<?xml version="1.0" encoding="UTF-8"?>
<svg id="_レイヤー_2" data-name="レイヤー 2" xmlns="http://www.w3.org/2000/svg" xmlns:xlink="http://www.w3.org/1999/xlink" viewBox="0 0 350 80">
  <defs>
    <style>
      .cls-1 {
        fill: url(#_名称未設定グラデーション_18_コピー);
      }

      .cls-2 {
        fill: #fff;
      }

      .cls-3 {
        fill: #603;
      }
    </style>
    <linearGradient id="_名称未設定グラデーション_18_コピー" data-name="名称未設定グラデーション 18 コピー" x1="175" y1="2" x2="175" y2="78" gradientTransform="translate(135 215) rotate(-90)" gradientUnits="userSpaceOnUse">
      <stop offset="0" stop-color="#c36"/>
      <stop offset="1" stop-color="#f69"/>
    </linearGradient>
  </defs>
  <g id="_レイヤー_23" data-name="レイヤー 23">
    <g id="UI_check">
      <rect class="cls-3" x="0" width="350" height="80" rx="25" ry="25"/>
      <rect class="cls-1" x="137" y="-133" width="76" height="346" rx="23" ry="23" transform="translate(215 -135) rotate(90)"/>
      <g>
        <path class="cls-2" d="M52.73,32.4c-.82.02-1.37.11-1.66.27-.29.16-.56.31-.83.45l-1.73-1.66c-.07-.07-.11-.17-.11-.29s.1-.16.29-.11c1.39.24,3.07.37,5.04.4h4.32l1.8-1.94c1.34,1.42,2.06,2.27,2.16,2.56-.02.22-.36.32-1.01.32h-8.28ZM58.74,34.13c1.58,1.66,2.38,2.54,2.38,2.66-.14.14-.43.22-.86.22h-6.95c-.82.02-1.37.11-1.66.27s-.58.31-.86.45l-1.73-1.66c-.07-.07-.11-.14-.11-.22,0-.14.11-.19.32-.14,1.39.24,3.07.36,5.04.36h2.63l1.8-1.94ZM58.74,38.63c1.51,1.42,2.3,2.3,2.38,2.66-.07.14-.36.22-.86.22h-6.95c-.82.02-1.38.11-1.69.27-.31.16-.59.31-.83.45l-1.73-1.66c-.07-.07-.11-.16-.11-.25,0-.17.11-.23.32-.18,1.39.24,3.07.38,5.04.43h2.63l1.8-1.94ZM57.84,25.31c1.49,1.3,2.28,2.1,2.38,2.41,0,.26-.29.42-.86.47h-5.69c-.82.02-1.37.11-1.66.27-.29.16-.56.31-.83.45l-1.73-1.66c-.07-.07-.11-.17-.11-.29s.1-.16.29-.11c1.39.24,2.88.37,4.46.4h1.94l1.8-1.94ZM53.16,45.29h3.74l1.73-1.98c1.66,1.34,2.48,2.16,2.48,2.45l-1.01,1.3v3.85l.22,3.02c-.05.48-.71.72-1.98.72h-.4c-.43-.02-.65-.29-.65-.79,0-.19.02-.42.07-.68h-4.79c.1.94.14,1.81.14,2.61s-.84,1.21-2.52,1.21c-.43,0-.67-.29-.72-.86l.18-3.56v-6.19c0-.82-.01-1.37-.04-1.67-.02-.3-.04-.62-.04-.95l3.56,1.55ZM57.2,46.05h-4.43c-.14.14-.22.35-.22.61v5.65h4.86v-5.26c0-.46-.07-.79-.22-1.01ZM72.64,53.18c.14,1.92.22,2.95.22,3.1-.05.48-.89.72-2.52.72-.38,0-.62-.28-.72-.83l.14-2.99v-6.7h-3.71c-.7.05-1.27.15-1.71.31-.44.16-.69.23-.74.23-1.06-1.03-1.58-1.62-1.58-1.76,1.37.22,2.93.34,4.68.36h3.06v-5.54h-2.59c-.7.05-1.27.15-1.71.31-.44.16-.69.23-.74.23-1.25-1.03-1.87-1.62-1.87-1.76,1.34.22,3,.34,4.97.36h1.94v-5.58h-2.66c-.7.05-1.27.15-1.71.31s-.69.23-.74.23c-1.25-1.15-1.87-1.74-1.87-1.76,1.39.22,3.05.34,4.97.36h8.42l2.02-2.3c1.63,1.49,2.57,2.36,2.81,2.63,0,.36-.26.54-.79.54h-7.56v5.58h2.81l2.09-2.3c1.68,1.49,2.62,2.36,2.81,2.63,0,.36-.26.54-.79.54h-6.91v5.54h3.85l2.09-2.3c1.68,1.49,2.62,2.36,2.81,2.63,0,.36-.26.54-.79.54h-7.96v6.7ZM64.25,26.07c-.12-.12-.17-.29-.16-.5s.21-.32.59-.32,1.13.41,2.23,1.22c1.92,1.44,2.88,2.59,2.88,3.46,0,.67-.24,1.31-.72,1.91-.24.29-.65.44-1.22.47-.34,0-.62-.41-.86-1.22-.72-2.26-1.63-3.92-2.74-5ZM73.47,32.44c-.53,0-.79-.17-.79-.5,0-.24.14-.5.43-.79,1.15-2.11,1.8-4.08,1.94-5.9,3.02.65,4.54,1.18,4.54,1.58,0,.14-.17.22-.5.22s-.74-.04-1.22-.11c-.96,1.94-2.33,3.77-4.1,5.47-.1.02-.19.04-.29.04Z"/>
        <path class="cls-2" d="M102.13,29.92c.05.31-.1.49-.45.54-.35.05-.64.07-.86.07h-.56c-2.71,3.67-5,6.64-6.88,8.89,2.14-.17,4.15-.42,6.05-.76-.41-1.1-.79-1.96-1.15-2.57-.36-.61-.54-.94-.54-.99.1-.29.29-.4.59-.32s.56.25.77.54c1.92,2.16,3.14,4.06,3.67,5.69.02.12.04.29.04.52s-.06.57-.18,1.03c-.24.96-.68,1.44-1.33,1.44-.22,0-.38-.04-.5-.11-.22-.05-.38-.53-.49-1.44-.11-.91-.27-1.74-.49-2.48-.96.26-1.98.53-3.06.79v12.38c.14,1.92.22,2.95.22,3.1,0,.48-.86.72-2.59.72-.41,0-.65-.28-.72-.83l.18-2.99v-11.74c-1.44.29-2.98.56-4.61.83l-.94,1.55c-.62-.58-1.33-1.96-2.12-4.14h1.71c.83,0,1.89-.02,3.19-.07,2.45-3.26,4.81-7.25,7.09-11.95,2.59,1.15,3.91,1.92,3.96,2.3ZM86.4,28.95c.05-.24.23-.36.54-.36s.59.11.83.32c.79.22,1.86.96,3.2,2.23.91-2.11,1.64-4.55,2.2-7.31,2.76,1.03,4.14,1.92,4.14,2.66,0,.1-.6.3-1.8.61-.74,1.87-1.85,3.62-3.31,5.26.31.31.64.65.97,1.01.14.41.22.79.22,1.15,0,.82-.41,1.48-1.22,1.98-.05.05-.1.07-.14.07-.22,0-.52-.36-.9-1.08-1.32-2.59-2.8-4.64-4.43-6.16-.17-.14-.26-.22-.29-.22v-.18ZM87.59,54.8c-.07.12-.23.23-.49.32s-.4-.03-.43-.38-.02-.65.05-.92c1.7-4.18,2.56-7.43,2.56-9.76v-.25c2.38.14,3.74.68,4.1,1.62l-1.44.79c-.77,2.69-2.22,5.54-4.36,8.57ZM97.99,43.57c-.12-.19-.11-.37.02-.54s.31-.19.54-.05.44.33.63.59c2.11,3,3.17,5.2,3.17,6.59,0,.6-.17,1.17-.5,1.71s-.74.81-1.22.81c-.17,0-.36-.04-.58-.11-.17-.1-.29-.53-.36-1.3-.31-3.26-.88-5.83-1.69-7.7ZM103.61,27.76l-.18-1.62c-.02-.14.01-.22.11-.22s.65.26,1.67.77c1.02.52,1.69.81,2,.88h7.6l2.23-2.09c2.14,1.25,3.2,2.1,3.2,2.56l-1.51,1.62v23.15c0,.7.04,1.33.11,1.91.07.58.11.96.11,1.15v.4c-.07.48-.92.72-2.56.72-.48,0-.72-.25-.72-.74s.05-1.27.14-2.32h-9.25c.09,1.2.14,1.98.14,2.34-.07.48-.92.72-2.56.72-.46,0-.68-.29-.68-.86,0-.12.05-1.24.14-3.35v-25.02ZM109.73,39.42v-10.76h-3.2c-.02.1-.04.23-.04.4v10.37h3.24ZM109.73,40.54h-3.24v12.17h3.24v-12.17ZM112.57,28.66v10.76h3.28v-10.15c0-.19-.07-.4-.22-.61h-3.06ZM112.57,40.54v12.17h3.28v-12.17h-3.28Z"/>
        <path class="cls-2" d="M134.88,33.95c-1.46.1-2.4.14-2.81.14-1.66,0-2.87-.38-3.64-1.15-.46-.5-.69-1.03-.7-1.57-.01-.54.05-.86.2-.97.14-.11.28-.08.4.09.43.62.89,1.1,1.39,1.42s1.31.49,2.45.49,2.33-.05,3.58-.14c.53-1.94.79-3.33.79-4.18s-.35-1.43-1.04-1.76c-.22-.1-.32-.23-.32-.4,0-.24.14-.31.43-.22,1.54.46,2.46.76,2.77.9,1.58.77,2.39,1.32,2.41,1.66,0,.12-.18.35-.54.68s-.66.73-.9,1.19c-.24.46-.55,1.06-.94,1.8h.04c2.02-.41,3.59-1.22,4.72-2.45.12-.14.33-.22.63-.22s.68.08,1.13.25c1.7.7,2.56,1.24,2.56,1.62,0,.58-.84.95-2.52,1.12-1.13.6-3.6,1.08-7.42,1.44-.6,1.13-1.31,2.29-2.12,3.49h1.22c1.46,0,2.45.29,2.95.86.38.43.92,1.5,1.62,3.2l5.8-3.17c.5-.29.76-.66.76-1.12,0-.22-.23-.41-.68-.58s-.88-.25-1.26-.25-.58-.12-.58-.36.24-.4.72-.47c.07,0,.14.01.22.04,2.21.12,3.92.79,5.15,2.02.58.58.86,1.18.86,1.8,0,.5-.46.78-1.37.83-.43,0-.73-.03-.9-.09-.17-.06-.3-.07-.4-.02-2.11.72-4.66,1.85-7.63,3.38.31,1.32.47,2.65.47,4,0,2.28-.52,3.42-1.55,3.42-.7,0-1.18-.23-1.46-.7-.28-.47-.41-.87-.41-1.21l.29-2.95v-1.15c-1.3.65-2.24,1.13-2.84,1.44-1.42.82-2.12,1.86-2.12,3.13,0,.46.1.94.29,1.44.7,1.87,2.74,2.81,6.12,2.81h.07c1.66,0,2.63-.09,2.92-.27.29-.18.7-.37,1.24-.58s.95-.31,1.24-.31.86.15,1.71.45c.85.3,1.35.57,1.49.81.14.26.22.46.22.58,0,1.17-2.46,1.76-7.38,1.76-1.1,0-2.23-.06-3.38-.18-3.6-.29-5.77-1.87-6.52-4.75-.12-.43-.18-.86-.18-1.3,0-2.45,1.74-4.57,5.22-6.37l1.69-.86c-.5-1.9-1.5-3.16-2.99-3.78h-.11c-1.13,0-1.84.19-2.12.58-2.71,3.65-4.38,5.47-5,5.47-.43,0-.9-.3-1.4-.9-.02-.12-.04-.24-.04-.36,0-.94.48-1.67,1.44-2.2,2.02-1.13,4.04-3.58,6.08-7.34Z"/>
        <path class="cls-2" d="M170.32,25.53c1.8,1.46,2.7,2.33,2.7,2.59s-.28.4-.83.4h-6.19c-.34,2.95-.85,5.63-1.55,8.03l1.51.61h1.58c.24,0,.61-.32,1.12-.97.5-.65.86-1.01,1.08-1.08.26.07.8.44,1.62,1.1.82.66,1.25,1.1,1.3,1.31-.1.22-.34.59-.72,1.12-.38.53-.58,1-.58,1.4v8.78l.22,1.98c-.05.48-.91.72-2.59.72-.48,0-.72-.26-.72-.79,0-.86.05-1.44.14-1.73h-3.13c0,.96.05,2.74.14,5.33,0,.72-.66,1.08-1.98,1.08-.82,0-1.25-.29-1.3-.86l.18-2.74v-9.86c-.94,1.78-2.03,3.3-3.28,4.57-.24.1-.45.14-.63.14s-.31-.05-.4-.14-.13-.2-.13-.31.12-.25.36-.41c2.98-5.06,4.55-10.82,4.72-17.28h-1.58l-1.76.36-1.3-1.15c-.07-.07-.1-.16-.07-.25,0-.14.07-.18.22-.11.77.19,1.49.29,2.16.29h7.81l1.87-2.12ZM168.23,38.06h-2.95c0,.26-.01.41-.04.43v9.61h3.2v-9.22c0-.33-.07-.61-.22-.83ZM175.61,31.15c0,.41-.17,1.08-.5,2.02-.12.43-.65.72-1.58.86-.17.02-.34.04-.5.04-.55,0-.83-.28-.83-.83,0-.91.42-1.87,1.26-2.88.53-.62.79-1.51.79-2.66,0-.26.14-.4.43-.4h.65c.22,0,.35.4.4,1.19l.07,1.48h3.17c.62-1.7,1.13-3.47,1.51-5.29,2.69.67,4,1.32,3.92,1.94l-1.4.54c-.31.96-.67,1.9-1.08,2.81h6.7l1.91-2.16c1.46,1.46,2.2,2.51,2.2,3.13,0,.14-.24.22-.72.22l-2.84,2.81c-.1.1-.2.14-.32.14s-.32-.16-.61-.47l.25-2.48h-7.09c-1.06,2.16-2.38,4.25-3.96,6.26h4.61c.82-1.44,1.4-3.29,1.76-5.54,2.02.48,3.29,1.06,3.82,1.73-.41.34-.94.53-1.58.58-.55,1.3-1.2,2.38-1.94,3.24h2.81l1.87-1.76c1.8,1.46,2.7,2.26,2.7,2.38,0,.31-.28.47-.83.47h-6.01v4.28h1.55l2.05-1.76c1.68,1.46,2.52,2.26,2.52,2.38,0,.31-.28.47-.83.47h-5.29v4.32h1.55l1.87-1.76c1.8,1.46,2.7,2.26,2.7,2.38,0,.31-.28.47-.83.47h-5.29v4.46h3.35l1.87-1.76c1.8,1.46,2.7,2.26,2.7,2.38,0,.31-.28.47-.83.47h-14.04c.05.65.07,1.08.07,1.3,0,.6-.78.9-2.34.9-.48,0-.72-.38-.72-1.13s.06-1.77.18-3.04v-12.42c-.46.5-.94,1-1.44,1.48-.22.1-.38.14-.5.14-.34,0-.5-.17-.5-.52s.12-.64.36-.88c2.42-2.88,4.34-6.04,5.76-9.47h-2.92ZM181.95,38.49h-4.39v4.28h4.39v-4.28ZM181.95,43.85h-4.39v4.32h4.39v-4.32ZM181.95,49.25h-4.39v3.92c.02.19.04.37.04.54h4.36v-4.46Z"/>
        <path class="cls-2" d="M210.18,32.44h-8.86l-1.98.18-1.55-1.37c.67.17,1.26.25,1.76.25s.91-.01,1.22-.04h5.94l2.12-1.94c1.56,1.63,2.34,2.53,2.34,2.7s-.13.25-.4.25-.47-.01-.61-.04ZM208.09,34.13l2.56,2.66c0,.1-.29.17-.86.22h-6.98l-2.84.22-1.19-1.58c.96.24,2.08.38,3.35.43h3.85l2.12-1.94ZM208.09,38.81l2.56,2.66c0,.1-.29.17-.86.22h-6.98l-2.95.18-1.08-1.55c1.78.24,2.93.38,3.46.43h3.74l2.12-1.94ZM202.94,45.83h2.95l1.73-1.98c2.02,1.34,3.02,2.16,3.02,2.45l-1.01,1.3v3.67l.22,3.02c-.05.48-.77.72-2.16.72h-.4c-.43-.02-.65-.29-.65-.79,0-.19.02-.42.07-.68h-4.18c.09.94.14,1.75.14,2.43s-.9,1.03-2.7,1.03c-.43,0-.67-.29-.72-.86l.18-3.56v-5.65c0-.84-.04-1.33-.13-1.48-.08-.14-.13-.3-.13-.47s.06-.4.18-.68l3.56,1.55ZM206.83,25.31l2.56,2.66c0,.1-.29.17-.86.22h-4.86l-2.77.22-1.26-1.58c1.87.24,2.94.38,3.2.43h1.87l2.12-1.94ZM206.54,46.59h-4c0,.38-.01.59-.04.61v5.47h4.25v-5.08c0-.46-.07-.79-.22-1.01ZM214.68,46.7c-.14,3.91-.5,6.16-1.08,6.75s-1.25.88-2.03.88-1.17-.19-1.17-.58c0-.19.17-.65.5-1.37,1.08-2.35,1.84-4.73,2.27-7.13.07-.65.22-1.08.45-1.31.23-.23.47-.19.72.11.25.3.38.76.38,1.37s-.01,1.04-.04,1.28ZM214.68,28.12l-2.16.29c-.19-.53-.79-1.18-1.8-1.94,1.49.29,3.17.43,5.04.43h10.22c.31-.14.73-.5,1.24-1.06.52-.56.85-.85.99-.85.41,0,1.03.4,1.85,1.19s1.24,1.3,1.24,1.51l-1.19,1.66c-.1,4.13-.46,7.44-1.08,9.94-.65,1.8-1.88,2.71-3.71,2.74l-1.04-1.12c-.86-.91-2.5-1.42-4.9-1.51-.34-.14-.5-.29-.5-.45s.14-.33.43-.52l6.16.58s.25-.26.68-.79c.74-2.74,1.12-5.63,1.12-8.68,0-.31-.07-.62-.22-.94-.05-.19-.12-.35-.22-.47h-5.4c-.22,1.49-.54,2.86-.97,4.1,1.58.67,2.93,1.48,4.03,2.41.29.26.43.62.43,1.08s-.07.96-.22,1.51c-.14.55-.31.83-.49.83s-.77-.52-1.78-1.55c-.86-.82-1.81-1.55-2.84-2.2-1.63,3.31-4.21,5.6-7.74,6.88-.12.05-.3.07-.54.07-.38,0-.58-.16-.58-.47,0-.24.13-.43.4-.58,2.9-1.58,4.97-3.98,6.19-7.2-1.25-.62-2.33-1.06-3.24-1.31s-1.39-.43-1.44-.52c-.19-.24-.13-.43.18-.58.31-.14.64-.18.97-.11l1.12.18c1.06.19,2.04.42,2.95.68.29-1.01.49-2.09.61-3.24h-3.82ZM220.8,53.75h3.02c1.13,0,1.78-.76,1.94-2.27.17-1.27.42-1.91.76-1.91.24,0,.44.84.61,2.52.12.7.29,1.2.5,1.51.29.26.43.52.43.76s-.02.44-.07.61c-.36,1.01-1.3,1.51-2.81,1.51h-5.4c-1.92,0-2.88-1-2.88-2.99l-.04-8.86-.18-1.58c-.02-.17.08-.25.32-.25.12,0,.72.08,1.8.25s1.62.35,1.62.54c0,.12-.18.28-.54.49-.36.2-.54.43-.54.67v7.27c0,1.15.48,1.73,1.44,1.73ZM220.48,41.94c-.17-.17-.25-.3-.25-.4,0-.53.12-.79.36-.79.07,0,.16.02.25.07,2.23,1.1,4.01,2.98,5.33,5.62.07.14.08.44.02.88-.06.44-.29.94-.68,1.48-.4.54-.7.81-.92.81-.17,0-.49-.42-.97-1.26-.72-2.9-1.76-5.04-3.13-6.41ZM227.21,44.57c-.26-.22-.4-.38-.4-.5-.05-.29.07-.43.36-.43.33.02.65.16.94.4l.94.76c2.21,2.23,3.31,4.32,3.31,6.26,0,.67-.34,1.34-1.01,2.02-.31.31-.58.47-.81.47s-.4-.47-.52-1.4c-.34-2.98-1.27-5.5-2.81-7.56Z"/>
        <path class="cls-2" d="M245.88,41.58c0-.94.48-1.95,1.44-3.04.96-1.09,1.96-1.64,2.99-1.64s2.21.56,3.53,1.69v-5.4c-5.47.82-9.44,1.24-11.92,1.26-1.61-.14-2.88-1.15-3.82-3.02-.12-.24-.18-.6-.18-1.08s.08-.72.25-.72.29.19.36.58c0,.34.22.72.65,1.15.7.72,2.5,1.08,5.4,1.08s5.92-.25,9.04-.76l-.11-3.17c-.34-.96-1.19-1.75-2.56-2.38-.53-.24-.79-.48-.79-.72,0-.34.22-.5.65-.5.19,0,.85.14,1.96.41,1.12.28,2.05.61,2.79,1.01.74.4,1.15.66,1.22.79.07.13.11.31.11.54s-.06.49-.18.79c-.12.3-.18.64-.18,1.03v1.76l3.35-.5,1.37-.47c.91-.31,1.5-.47,1.76-.47,1.25,0,2.2.22,2.86.67s.99.85.99,1.21c0,.65-.88.97-2.63.97h-.36l-3.31-.18h-.9l-3.13.4c-.22,3.19-.32,4.99-.32,5.4v1.01c.53,1.13.82,2.27.86,3.42v1.4c0,6.46-3.35,10.49-10.04,12.1-.98-.02-1.48-.3-1.48-.83,0-.05.32-.18.97-.4h.07c4.61-1.1,7.15-4.25,7.63-9.43-.7,1.06-1.68,1.58-2.95,1.58h-.14c-1.73,0-3.04-.49-3.92-1.48s-1.33-2.32-1.33-4v-.07ZM251.1,45.26c.65,0,1.27-.37,1.85-1.1.59-.73.88-1.61.88-2.65,0-1.82-1.08-2.74-3.24-2.74h-.14c-.24,0-.67.31-1.3.94-.62.62-.94,1.24-.94,1.84,0,1.27.32,2.21.95,2.81s1.28.9,1.93.9Z"/>
        <path class="cls-2" d="M281.1,41.8c3.41-1.99,6.21-2.99,8.41-2.99s3.82.3,4.88.9c2.52,1.42,3.78,3.53,3.78,6.35s-1,5.17-2.99,7.06c-1.99,1.88-4.92,2.89-8.78,3.01h-.07c-1.9-.07-3.22-.36-3.96-.86-1.42-.94-2.12-1.85-2.12-2.74,0-1.61.49-2.8,1.48-3.56,1.42-1.08,2.71-1.62,3.89-1.62.31,0,.61.04.9.11h.11c1.22,0,2.3.46,3.22,1.39.92.92,1.39,1.88,1.39,2.86,0,.43-.02.85-.07,1.26.96-.46,1.56-.78,1.8-.97,1.75-1.3,2.63-3.47,2.63-6.52s-2.1-4.52-6.3-4.79h-.04c-2.64,0-6.06,1.4-10.26,4.21-.07.05-.31.36-.72.94l-1.73,1.98c-.74.86-1.4,1.3-1.98,1.3s-.86-.61-.86-1.82.3-2.02.9-2.43c3.53-2.66,7.46-6.48,11.81-11.45.86-1.03,1.73-2.3,2.59-3.82l-6.84,2.41c-.55.19-.91.36-1.08.5-.17.14-.36.22-.58.22-.84,0-1.59-.44-2.25-1.31-.66-.88-.99-1.81-.99-2.79,0-.46.09-.68.27-.68s.56.31,1.15.94c.59.62,1.19.95,1.82.97l1.37.04h.65c.29,0,2.75-.67,7.38-2.02.26-.48.49-.79.68-.94,2.04,1.3,3.06,2.12,3.06,2.48s-.3.63-.9.81c-.6.18-1.01.37-1.22.56-3.1,3-6.56,6.67-10.4,11.02ZM289.06,53.72c.12-.96.18-1.68.18-2.16s-.25-.98-.76-1.49-1.2-.77-2.09-.77c-.26,0-.79.07-1.58.22-1.66.29-2.48,1.02-2.48,2.2,0,.14.01.3.04.47.17,1.27,1.49,1.91,3.96,1.91.82,0,1.73-.12,2.74-.36Z"/>
      </g>
    </g>
  </g>
</svg>