<?xml version="1.0" encoding="UTF-8"?>
<svg id="_レイヤー_2" data-name="レイヤー 2" xmlns="http://www.w3.org/2000/svg" xmlns:xlink="http://www.w3.org/1999/xlink" viewBox="0 0 570 72">
  <defs>
    <style>
      .cls-1 {
        fill: #fff;
      }

      .cls-2 {
        fill: #603;
      }

      .cls-3 {
        fill: url(#_名称未設定グラデーション_598);
      }
    </style>
    <linearGradient id="_名称未設定グラデーション_598" data-name="名称未設定グラデーション 598" x1="285" y1="1.8" x2="285" y2="70.2" gradientTransform="translate(249 321) rotate(-90)" gradientUnits="userSpaceOnUse">
      <stop offset="0" stop-color="#de1659"/>
      <stop offset="1" stop-color="#c36"/>
    </linearGradient>
  </defs>
  <g id="_レイヤー_10" data-name="レイヤー 10">
    <g id="UI_inquiry_push">
      <rect class="cls-2" width="570" height="72" rx="25" ry="25"/>
      <rect class="cls-3" x="250.8" y="-247.1" width="68.4" height="566.2" rx="23" ry="23" transform="translate(321 -249) rotate(90)"/>
      <g>
        <path class="cls-1" d="M23.61,46.12h-.07c-.3,0-.59-.21-.89-.62l-.68-1.13-.27-.92c-.02-.16-.03-.28-.03-.38,0-.34.12-.51.38-.51h.07c.09,0,.29.08.6.24.31.16.52.19.63.1,2.03-1.69,3.75-3.02,5.16-4,.02-.25.1-2.95.24-8.1l-2.5.92c-1.05-.02-1.85-.43-2.39-1.23-.66-.84-.99-1.47-.99-1.88s.15-.62.44-.62c1.23,1.03,1.86,1.61,1.88,1.74h.07c.64,0,1.82-.3,3.56-.89.14-.87.21-1.69.21-2.46s-.13-1.36-.38-1.76c-.25-.4-.63-.76-1.15-1.08-.51-.32-.77-.57-.77-.75v-.03c0-.3.14-.46.41-.48.8.02,1.77.3,2.92.84,1.15.54,1.78.95,1.9,1.25.11.3.12.56.03.79l-.68,1.64-.24,1.33,1.06-.48c.21-.02.43-.13.68-.31l.72-.55c.55-.46.83-.68.85-.68.21-.02.58-.03,1.13-.03s1.04.14,1.49.43c.44.29.67.55.67.8,0,.5-.34.89-1.03,1.16l-5.61,1.61-.27,7.59c4.17-2.44,7.4-3.66,9.68-3.66,1.64,0,3.04.34,4.21,1.03,2.69,1.6,4.04,3.33,4.04,5.2s-.82,3.75-2.46,5.64-3.97,2.84-6.98,2.84c-2.17,0-3.91-.66-5.23-1.98-.23-.23-.34-.46-.34-.68v-.03c0-.57.11-.85.34-.85.09,0,.23.07.41.22.18.15.76.42,1.74.8.98.39,1.76.58,2.33.58,2.48,0,4.26-.68,5.33-2.03,1.07-1.36,1.61-2.82,1.61-4.39s-.6-2.75-1.81-3.52c-.91-.59-2.44-.89-4.58-.89-1.66,0-4.4,1.13-8.21,3.39.07,1.85.23,4.33.48,7.46l-.34.99c-.62,1.21-1.37,1.82-2.26,1.85-.39,0-.64-.11-.75-.34-.11-.23-.26-.64-.44-1.23-1.03-.73-2.05-1.69-3.08-2.87l-.48.85-.34.1ZM25.02,44.35c.77.84,1.89,1.57,3.35,2.19.02-2.37.06-4.31.1-5.81-1.39,1.21-2.54,2.42-3.45,3.63ZM40.95,24.37c5.2,1.82,7.8,4.07,7.8,6.74,0,.66-.25,1.12-.75,1.37-.07.02-.15.03-.24.03-.5,0-1.16-.38-1.98-1.13v-.03c-1.39-1.05-2.92-1.57-4.58-1.57-.46,0-.79-.02-.99-.07-.21-.05-.31-.18-.31-.41,0-.21.14-.32.41-.34.27-.02.85-.03,1.74-.03s1.96.14,3.22.41c-.23-.66-.54-1.19-.94-1.59-.4-.4-.87-.81-1.4-1.25s-1.13-.82-1.78-1.15c-.65-.33-1.04-.53-1.18-.6-.11-.09-.16-.22-.14-.38.02-.14.13-.21.31-.21s.46.07.82.21Z"/>
        <path class="cls-1" d="M71.16,48.07l.21,2.57c.05.71-.76,1.06-2.43,1.06-.48,0-.71-.27-.68-.82l.17-2.84v-6.87h-8.31c.09.84.14,1.36.14,1.54v.34c-.05.46-.84.68-2.39.68-.39,0-.62-.26-.68-.79l.14-2.43v-13.47l-.14-1.61c0-.11.05-.17.14-.17l3.45,1.44h7.66v-3.97l-.14-1.61c0-.11.1-.17.29-.17s.85.2,1.97.6c1.12.4,1.68.69,1.68.87,0,.11-.18.32-.53.63-.35.31-.53.58-.53.8v2.84h7.52l2.12-1.81c2.03,1.23,3.04,2.04,3.04,2.43l-1.44,1.5v11.29c.14,1.82.21,2.8.21,2.94-.07.46-.88.68-2.43.68-.46,0-.68-.26-.68-.79,0-.18.05-.77.14-1.78h-8.48v6.91ZM68.39,33.4v-5.68h-8.28s-.05,1.91-.07,5.68h8.34ZM68.39,40.31v-6.05h-8.34l.03,6.05h8.31ZM71.13,33.4h8.55v-4.92c0-.32-.07-.57-.21-.75h-8.31l-.03,5.68ZM71.13,40.31h8.55v-6.05h-8.55v6.05Z"/>
        <path class="cls-1" d="M94.15,31.04c0-4.4-.57-6.6-1.71-6.6-.55,0-.89-.14-1.03-.41-.05-.09-.07-.17-.07-.24,0-.32.19-.48.58-.48h.31c1.8.32,3.26.91,4.38,1.78.62.46.92.97.92,1.54,0,.3-.07.59-.22.87-.15.29-.26.84-.33,1.66-.75,7.91-1.13,11.98-1.13,12.21,0,4.17,2.04,6.26,6.12,6.26h.07c4.15,0,7.23-1.93,9.23-5.78,1.09-2.85,1.86-4.27,2.29-4.27.25,0,.38.19.38.58,0,.78-.46,2.39-1.37,4.86-1.94,4.86-5.36,7.28-10.26,7.28h-.03c-5.72,0-8.58-2.93-8.58-8.79v-.41l.38-7.63c.05-.73.07-1.54.07-2.43Z"/>
        <path class="cls-1" d="M124.52,50.84v.31c0,.71-.1,1.07-.31,1.09-.53,0-1.47-1.11-2.84-3.32,1.41-.64,2.93-1.55,4.55-2.74v-8.52c0-.32-.06-.57-.17-.75h-2.12l-1.81.24-.75-1.71c.8.11,1.6.23,2.39.34h1.61l1.98-1.74c.39,0,.99.31,1.8.92.81.62,1.21,1.06,1.21,1.33,0,.11-.23.34-.7.67-.47.33-.7.61-.7.84v7.56c1.53,2.37,4.96,3.56,10.29,3.56s10.09-.19,14.26-.58c-.82,1.28-1.39,2.39-1.71,3.35h-2.26c-12.2,0-19.36-1.75-21.48-5.23l-3.25,4.38ZM122.57,23.62c-.14-.07-.23-.24-.29-.51-.06-.27,0-.41.15-.41.05,0,.11.01.21.03,3.72,1.3,5.84,2.87,6.36,4.72.05.16.07.42.07.77s-.15.79-.46,1.32c-.31.52-.58.79-.8.79-.34,0-.7-.4-1.06-1.2-1.32-2.94-2.71-4.78-4.17-5.51ZM135.8,24.75l-2.05.24c-.3-.48-.67-1.11-1.13-1.88,1.05.16,2.11.32,3.18.48l3.04-.03c.3-.14.69-.47,1.18-1.01.49-.54.8-.8.94-.8.39,0,.97.31,1.74.92.77.62,1.16,1.06,1.16,1.33,0,.11-.29.32-.85.62-.57.3-1.04.59-1.4.89,1.28,9.71,5.08,15.77,11.42,18.16-1,1.07-1.8,2.22-2.39,3.45-4.7-4.15-7.62-8.96-8.76-14.43-1.76,5.59-5.31,10.17-10.67,13.75-.07.05-.22.07-.44.07-.41,0-.62-.17-.62-.51,0-.14.11-.28.34-.44,5.7-4.47,9.03-10.69,9.99-18.67v-1.85l-.44-.27h-4.24Z"/>
        <path class="cls-1" d="M185.28,39.83c.8.66,1.2,1.5,1.2,2.53s-.38,1.54-1.13,1.54c-.43,0-.92-.3-1.47-.89-1.14-1.23-1.92-1.96-2.33-2.19-1.46,3.74-3.41,6.66-5.85,8.76-.68.59-1.19.89-1.52.89s-.5-.13-.5-.38.21-.6.62-1.06c2.19-2.55,3.92-5.67,5.2-9.34-2.44-1.39-5.61-2.09-9.51-2.09l-3.86,7.28c-.73,1.32-1.39,1.98-1.98,1.98-3.15,0-4.71-1.61-4.69-4.82-.02-.8.1-1.47.38-2.02,1-2.07,3.75-3.57,8.24-4.48l3.69-7.56s-.27-.31-.89-.86c-1.48.66-2.94.99-4.38.99-.34,0-.66-.03-.94-.09-.29-.06-.61-.41-.97-1.06-.37-.65-.55-1.19-.55-1.62s.02-.65.07-.65c.18,0,.4.17.65.5.25.33.38.5.38.51,0,.01.31.12.92.33l.92.31c.75,0,1.9-.34,3.45-1.03,1.55-.68,2.37-1.08,2.46-1.2l2.33,1.47c.73.46,1.09.81,1.09,1.06,0,.41-.55.84-1.64,1.3-1.8,2.96-3.16,5.49-4.07,7.59h.27c3.15,0,6.22.65,9.23,1.95.39-1.46.58-2.59.58-3.39-.14-1.78-.54-2.91-1.2-3.39-.27-.21-.41-.38-.41-.51,0-.41.19-.62.58-.62.71,0,1.44.33,2.21.98.76.65,1.29,1.15,1.57,1.49.28.34.43.63.43.87s-.03.42-.1.53c-.07.11-.24.49-.51,1.13s-.48,1.35-.62,2.14c-.14.79-.26,1.4-.38,1.83l3.01,1.27ZM161.34,40.82c-.11.46-.17.87-.17,1.23,0,1.69.57,2.53,1.71,2.53.66-.11,1.52-1.19,2.56-3.21s1.65-3.23,1.81-3.59c-3.35.64-5.32,1.65-5.92,3.04Z"/>
        <path class="cls-1" d="M197.9,37.54c-.59-.59-.89-1.3-.89-2.12s.3-1.53.89-2.12c.59-.59,1.3-.89,2.12-.89s1.53.3,2.12.89c.59.59.89,1.3.89,2.12s-.3,1.53-.89,2.12c-.59.59-1.3.89-2.12.89s-1.53-.3-2.12-.89Z"/>
        <path class="cls-1" d="M215.31,46.12h-.07c-.3,0-.59-.21-.89-.62l-.68-1.13-.27-.92c-.02-.16-.03-.28-.03-.38,0-.34.12-.51.38-.51h.07c.09,0,.29.08.6.24.31.16.52.19.63.1,2.03-1.69,3.75-3.02,5.16-4,.02-.25.1-2.95.24-8.1l-2.5.92c-1.05-.02-1.85-.43-2.39-1.23-.66-.84-.99-1.47-.99-1.88s.15-.62.44-.62c1.23,1.03,1.86,1.61,1.88,1.74h.07c.64,0,1.82-.3,3.56-.89.14-.87.21-1.69.21-2.46s-.13-1.36-.38-1.76c-.25-.4-.63-.76-1.15-1.08-.51-.32-.77-.57-.77-.75v-.03c0-.3.14-.46.41-.48.8.02,1.77.3,2.92.84,1.15.54,1.78.95,1.9,1.25.11.3.12.56.03.79l-.68,1.64-.24,1.33,1.06-.48c.21-.02.43-.13.68-.31l.72-.55c.55-.46.83-.68.85-.68.21-.02.58-.03,1.13-.03s1.04.14,1.49.43c.44.29.67.55.67.8,0,.5-.34.89-1.03,1.16l-5.61,1.61-.27,7.59c4.17-2.44,7.4-3.66,9.68-3.66,1.64,0,3.04.34,4.21,1.03,2.69,1.6,4.04,3.33,4.04,5.2s-.82,3.75-2.46,5.64-3.97,2.84-6.98,2.84c-2.17,0-3.91-.66-5.23-1.98-.23-.23-.34-.46-.34-.68v-.03c0-.57.11-.85.34-.85.09,0,.23.07.41.22.18.15.76.42,1.74.8.98.39,1.76.58,2.33.58,2.48,0,4.26-.68,5.33-2.03,1.07-1.36,1.61-2.82,1.61-4.39s-.6-2.75-1.81-3.52c-.91-.59-2.44-.89-4.58-.89-1.66,0-4.4,1.13-8.21,3.39.07,1.85.23,4.33.48,7.46l-.34.99c-.62,1.21-1.37,1.82-2.26,1.85-.39,0-.64-.11-.75-.34-.11-.23-.26-.64-.44-1.23-1.03-.73-2.05-1.69-3.08-2.87l-.48.85-.34.1ZM216.71,44.35c.77.84,1.89,1.57,3.35,2.19.02-2.37.06-4.31.1-5.81-1.39,1.21-2.54,2.42-3.45,3.63ZM232.65,24.37c5.2,1.82,7.8,4.07,7.8,6.74,0,.66-.25,1.12-.75,1.37-.07.02-.15.03-.24.03-.5,0-1.16-.38-1.98-1.13v-.03c-1.39-1.05-2.92-1.57-4.58-1.57-.46,0-.79-.02-.99-.07-.21-.05-.31-.18-.31-.41,0-.21.14-.32.41-.34.27-.02.85-.03,1.74-.03s1.96.14,3.22.41c-.23-.66-.54-1.19-.94-1.59-.4-.4-.87-.81-1.4-1.25s-1.13-.82-1.78-1.15c-.65-.33-1.04-.53-1.18-.6-.11-.09-.16-.22-.14-.38.02-.14.13-.21.31-.21s.46.07.82.21Z"/>
        <path class="cls-1" d="M248.27,21.43l3.35,1.4h5.37c.3-.14.68-.47,1.16-1.01.48-.54.78-.8.91-.8s.6.33,1.42.99c.82.66,1.23,1.19,1.23,1.57l-.99,1.33v5.75l.21,2.43c-.07.46-.88.68-2.43.68-.16,0-.31-.08-.44-.24s-.21-.32-.21-.5.03-.37.1-.6h-7.05v15.6c.14,1.6.21,2.54.21,2.84,0,.55-.83.82-2.5.82-.14,0-.33-.29-.58-.86l.17-2.8v-24.86l-.17-1.54c-.02-.14.02-.21.14-.21h.1ZM257.98,27.04v-2.77c0-.21-.07-.4-.21-.58h-6.87v3.35h7.08ZM250.9,31.55h7.08v-3.63h-7.08v3.63ZM267.21,46.67c-.41,0-.62-.24-.62-.72,0-.14.02-.36.07-.68h-7.93c.05.64.09,1.29.14,1.95-.07.46-.88.68-2.43.68-.43,0-.65-.28-.65-.86l.14-2.98v-6.84l-.17-1.54v-.14s.06-.07.17-.07.63.17,1.54.5c.91.33,1.54.55,1.88.67h6.36l2.09-1.81c1.96,1.41,2.93,2.34,2.91,2.77l-1.27,1.5v4.58l.21,2.29c-.07.46-.88.68-2.43.68ZM258.66,37.57v6.84h8.04v-6.09c0-.32-.07-.57-.21-.75h-7.83ZM274.53,32.44h-7.15l.14.75c-.07.39-.84.62-2.33.68-.16,0-.31-.09-.46-.26-.15-.17-.21-.42-.19-.75.02-.33.06-.68.1-1.04v-8.65l-.17-1.54c-.02-.14.03-.21.15-.21s.64.21,1.56.62c.91.41,1.54.67,1.88.79h5.44s.08-.01.1-.03l2.05-1.78c1.87,1.14,2.8,1.95,2.8,2.43l-1.2,1.54v23.8c0,.66-.29,1.31-.85,1.95-.57.64-1.15.96-1.74.96-.21-.27-.42-.55-.65-.82-1.32-1.62-3.44-2.47-6.36-2.57-.32-.07-.48-.21-.48-.43s.14-.32.41-.32l6.26.55c.46,0,.68-.18.68-.55v-15.12ZM267.35,27.04h7.15v-2.77c0-.21-.07-.4-.21-.58h-6.94v3.35ZM267.35,27.93v3.59h7.15v-3.59h-7.15Z"/>
        <path class="cls-1" d="M288.72,32.03c-.34,3.97-.51,6.05-.51,6.26,0,2.44.9,4.53,2.7,6.26,1.6-3.21,3.03-5.72,4.31-7.52.46-.64.83-.96,1.11-.96s.42.14.39.43c-.02.29-.27.86-.75,1.73-1.98,3.56-2.99,5.97-3.01,7.25v.07l.44,1.2c.3.8.46,1.32.48,1.56s-.13.47-.44.7c-.32.23-.65.35-.99.38-.87-.07-1.69-.47-2.46-1.2-2.58-2.44-3.86-6.24-3.86-11.39,0-.66.02-1.33.07-2.02l.27-4.1.03-.31c-.05-1.12-.38-1.96-1.01-2.53-.63-.57-.94-.93-.94-1.09.02-.34.41-.51,1.16-.51s1.62.58,2.6,1.74c.48.62.72,1.21.72,1.78v.21l-.31,2.09ZM309.44,44.99h-.24c-.59-.07-.92-.73-.99-1.98.02-.07.03-.15.03-.24,0-.68-1.19-1.29-3.56-1.81l-.79-.14c-.34-.07-.54-.19-.58-.38l-.03-.07c.14.02.22-.07.24-.29.02-.22.34-.29.94-.22.6.07,1.91.35,3.92.85l.1-.75c.09-.84.14-1.74.14-2.7,0-3.19-1.56-5.96-4.69-8.31-.34-.25-.36-.51-.07-.77.3-.26.49-.39.58-.39.27.02.54.15.79.38,2.55,2.14,4.31,4.3,5.27,6.46.75,2.14,1.13,4.46,1.13,6.94,0,.46-.01.91-.03,1.37v.48c0,.09-.22.38-.67.86s-.9.72-1.35.72h-.14Z"/>
        <path class="cls-1" d="M318.48,34.46c-.36,0-.55-.19-.55-.58,0-.18.1-.32.31-.41,5.54-2.58,9.96-6.61,13.27-12.11,3.21.34,4.81.7,4.79,1.06l-2.36,1.16c5.06,4.42,9.87,7.09,14.43,8-.87.91-1.62,1.96-2.26,3.15-4.1-1.91-8.47-5.39-13.1-10.43-4.81,4.99-9.5,8.34-14.06,10.05-.18.07-.34.1-.48.1ZM327.13,32.96h9.95l2.12-1.98,3.25,2.8c0,.27-.19.41-.58.41h-15.39l-2.02.24-1.54-1.88,4.21.41ZM340.4,51.7c-.41,0-.62-.36-.62-1.08s.02-1.33.07-1.83h-13.85c.09.39.14,1.13.14,2.22-.07.46-.88.68-2.43.68-.43,0-.65-.29-.65-.86l.14-2.63v-8.34l-.17-1.54v-.12c0-.06.06-.09.17-.09s.63.17,1.54.5c.91.33,1.54.55,1.88.67h12.28c.3-.14.68-.47,1.16-1.01.48-.54.78-.8.91-.8s.64.37,1.56,1.09c.91.73,1.37,1.29,1.37,1.68,0,.11-.21.34-.63.68-.42.34-.63.62-.63.82v6.46l.21,2.8c-.07.46-.88.68-2.43.68ZM339.89,40.96c0-.32-.07-.57-.21-.75h-13.75v7.73h13.95v-6.98Z"/>
        <path class="cls-1" d="M356.71,47.18c-1,0-1.5-.67-1.5-2.02,0-.75.22-1.37.65-1.85l2.6-2.8,3.52-5.13.14-3.56c-1.28,1.14-2.33,1.71-3.16,1.71s-1.45-.19-1.86-.58c-1.35-1.28-2.11-2.39-2.29-3.35.02-.3.19-.44.51-.44.14,0,.26.05.38.15s.44.39.98.87c.54.48,1.07.72,1.59.72h.14c1.03,0,2.27-.39,3.73-1.16v-1.81c0-.73-.03-1.54-.09-2.45-.06-.9-.43-1.73-1.11-2.48-.32-.41-.48-.68-.48-.82.02-.39.22-.57.6-.55.38.02.93.18,1.66.48,1.96.8,2.94,1.64,2.94,2.53,0,.23-.15.58-.44,1.06-.3.48-.47,1.02-.51,1.62-.05.6-.12,1.2-.21,1.8.09-.16.87-.47,2.33-.92.41.21.62.54.62.99s-.24.86-.72,1.2l-2.46,1.81c-.14.96-.24,1.87-.31,2.74,3.37-2.92,6.53-4.48,9.47-4.69,5.84,0,8.76,2.75,8.76,8.24,0,4.63-2.2,8.01-6.6,10.16-1.69.84-3.27,1.37-4.75,1.57-.39.05-.58-.07-.58-.34,0-.32.52-.67,1.57-1.06,5.11-2.03,7.66-5.4,7.66-10.12,0-4.19-2.08-6.29-6.22-6.29-2.87,0-5.91,1.71-9.1,5.13v6.94c.27,1.71.41,2.89.41,3.54s-.19,1.21-.58,1.69c-.75.94-1.34,1.4-1.76,1.4s-.68-.23-.77-.68c-.05-.18-.07-.56-.07-1.13s.13-1.65.38-3.25l.1-5.92-2.67,4.21c-1.05,1.89-1.84,2.84-2.36,2.84h-.1Z"/>
        <path class="cls-1" d="M398.35,32.58l9.47-1.71c-.02-2.8-.08-4.61-.17-5.4-.11-.55-.48-.98-1.09-1.3-.62-.32-.96-.54-1.03-.65-.05-.11-.07-.22-.07-.31,0-.32.2-.48.6-.48s.92.1,1.56.31c2.33.73,3.49,1.45,3.49,2.15,0,.3-.07.6-.21.91-.14.31-.22.93-.24,1.86-.02.94-.05,1.73-.07,2.39.57-.14,1.08-.25,1.54-.34.46-.09.92-.25,1.39-.48s.94-.34,1.42-.34c.89,0,1.82.4,2.8,1.2.52.43.79.81.79,1.13,0,.5-.4.75-1.2.75h-.03l-4.99-.41c-.57.12-1.16.22-1.78.31-.18,4.31-.27,6.68-.27,7.11s-.17.92-.51,1.47c-.62,1.03-1.33,1.54-2.16,1.54-.23,0-.43-.14-.62-.41-.18-.3-.42-.71-.72-1.23-.3-.52-1.46-.92-3.49-1.2-1-.14-1.5-.42-1.5-.85,0-.14.06-.28.17-.45.11-.16.3-.24.55-.24s.86.11,1.83.33c.97.22,1.77.32,2.39.32s1.05-.13,1.27-.39c.22-.26.32-.64.32-1.15v-.03c0-1.5.01-3,.03-4.48-2.99.3-6.14.94-9.47,1.91-.02,4.51-.03,6.94-.03,7.28v.03c0,1.21.07,2.16.21,2.84.14.68.58,1.24,1.33,1.68,1.05.57,2.29.86,3.73.86,2.26,0,4.07-.3,5.44-.89.57-.27,1.2-.41,1.9-.41s1.42.29,2.17.86c.75.59,1.13,1.02,1.13,1.28s-.14.48-.41.67c-.73.34-2.09.59-4.09.75-2,.16-3.57.24-4.74.24-4.13,0-6.61-.57-7.46-1.71-.66-.87-1.06-2.01-1.2-3.42-.14-1.41-.25-4.17-.34-8.28l-.03-.99-1.85.62c-.68.23-1.16.39-1.42.48-.26.09-.48.14-.67.14-.64,0-1.24-.26-1.8-.77-.56-.51-.91-.99-1.04-1.42-.39-1.28-.58-2.06-.58-2.36s.06-.44.17-.44.21.05.27.14.28.46.65,1.09c.36.62.81,1,1.33,1.16,2.14-.23,3.73-.47,4.75-.72l-.31-7.32c-.07-.68-.47-1.15-1.2-1.4-.5-.16-.8-.27-.89-.32-.09-.06-.14-.18-.14-.36,0-.41.25-.62.75-.62s1.05.1,1.64.31c1.5.55,2.45,1.09,2.84,1.64.14.18.21.45.21.8s-.05.59-.15.72c-.1.13-.15.55-.15,1.28l-.03,3.8v.92Z"/>
        <path class="cls-1" d="M428.86,46.02c.32.59.48,1.16.48,1.71,0,1.44-.43,2.2-1.3,2.29h-.03c-.36-.02-.82-.4-1.37-1.13-.55-.73-.88-1.37-.99-1.92-.39-1.71-.58-3.58-.58-5.61s.04-3.6.12-4.7c.08-1.11.38-2.63.91-4.57.52-1.94.79-3.2.79-3.8s-.08-1.05-.24-1.39-.42-.77-.79-1.32c-.37-.55-.55-.88-.55-.99s.03-.17.1-.17c.43,0,1.04.23,1.81.68,1.53.94,2.29,1.97,2.29,3.11l-1.27,3.9c-.68,2.12-1.03,4.31-1.03,6.57v.86c0,.43.19,1.57.58,3.42l1.06-1.64c1.25-1.98,2.03-3.12,2.32-3.42.3-.3.5-.44.62-.44.25,0,.38.14.38.41,0,.14-.11.41-.34.82l-.72,1.23c-1.48,2.67-2.22,4.57-2.22,5.71,0,.14-.01.26-.03.38ZM446.23,30.19c.87-.16,1.58-.43,2.15-.8.57-.38.9-.56.99-.56h.21c.73,0,1.5.38,2.33,1.13,0,.75-.4,1.15-1.2,1.2l-1.85.41c-.91.16-1.82.33-2.74.51-.05,1.09-.07,1.75-.07,1.97s.03,1.77.1,4.67l.14,3.86c2.58.68,4.37,1.76,5.37,3.21l.03.55c0,.87-.59,1.3-1.78,1.3-.71,0-1.14-.13-1.3-.38-.36-.62-.63-1.06-.79-1.33-.16-.27-.31-.48-.46-.63-.15-.15-.52-.36-1.11-.63-.18,1.6-.85,2.88-2.02,3.86-1.16.96-2.47,1.44-3.92,1.44s-2.72-.41-3.81-1.23c-1.09-.82-1.64-1.97-1.64-3.45,0-.75.33-1.49.99-2.22.98-1.03,2.35-1.54,4.1-1.54h.07c1.32,0,2.57.11,3.73.34.18-1.23.27-2.57.27-4s-.03-2.85-.1-4.24l-.07-1.3c-1.94.16-3.37.35-4.31.58-.94.23-1.56.34-1.88.34-1.19,0-2.02-.44-2.5-1.32-.48-.88-.72-1.42-.72-1.62,0-.64.02-.96.07-.96.14,0,.23.03.27.1.41.84,1.21,1.36,2.39,1.54,2.87-.07,5.06-.22,6.57-.44v-.75c0-1.03-.09-2.13-.27-3.32-.11-.73-.57-1.35-1.37-1.85-.46-.3-.71-.49-.77-.58s-.09-.18-.09-.27c0-.32.23-.44.68-.36.46.08,1.09.23,1.91.46,2.03.62,3.04,1.3,3.04,2.05,0,.36-.12.67-.36.92-.24.25-.36.71-.36,1.37l.03,1.3v.68ZM439.49,47.94h.14c1.73,0,2.87-.57,3.42-1.71.32-.68.48-1.25.48-1.71v-.41c-1.14-.55-2.42-.82-3.83-.82-.73,0-1.43.26-2.09.79-.66.55-.99,1.08-.99,1.59s.27,1.02.82,1.52c.55.5,1.22.75,2.02.75h.03Z"/>
        <path class="cls-1" d="M468.79,46.33h2.53c3.01-.02,4.84-.23,5.51-.62.25-.16.52-.35.82-.56.3-.22.64-.32,1.03-.32h.03c1.16,0,2.29.41,3.39,1.23.48.36.72.65.72.86,0,.3-.22.52-.65.68-.94.36-2.42.69-4.45.97-2.03.29-3.91.43-5.64.43s-3.27-.05-4.62-.15c-1.35-.1-2.58-.49-3.71-1.16-1.13-.67-1.91-1.33-2.34-1.97-.43-.66-.65-1.23-.65-1.71,0-1.62.28-3,.84-4.14.56-1.14,1.46-2.17,2.72-3.08.25-.18.46-.27.62-.27s.3.06.41.17c.11.12.17.23.17.36s-.21.34-.62.63c-1.62,1.14-2.43,2.79-2.43,4.96,0,1.14.44,1.97,1.33,2.5,1.25.71,2.92,1.11,4.99,1.2ZM473.96,28.24c-1.21.05-2.6.08-4.17.1-3.31-.39-5.63-1.38-6.98-2.98-.25-.27-.38-.48-.38-.62s.1-.21.31-.21.41.07.62.21c1.78,1.05,4.1,1.57,6.98,1.57,1.59,0,3.15-.27,4.65-.82.59-.21,1.2-.31,1.83-.31s1.21.26,1.74.77.8,1.04.8,1.59c0,.34-.32.56-.96.65l-9.23,5.1c-.41.23-.68.34-.82.34-.32,0-.48-.12-.48-.38,0-.09.09-.21.27-.34l2.12-1.64c1.91-1.48,3.15-2.5,3.69-3.04Z"/>
        <path class="cls-1" d="M497.23,44.14c-.21.73-.59,1.09-1.16,1.09s-1.08-.24-1.52-.72-.67-.99-.67-1.54.22-1.56.65-3.04l2.09-8.62c-1.19.3-2.04.44-2.57.44-2.12-.39-3.31-1.65-3.56-3.8-.05-.41,0-.62.14-.62s.23.04.27.12c.05.08.16.25.34.5l.17.31c.41.84,1.07,1.27,1.97,1.27s2.14-.11,3.71-.34c.27-.66.53-1.61.77-2.84s.36-2.06.36-2.5-.26-.89-.79-1.39c-.53-.49-.8-.79-.82-.91-.02-.41.19-.62.65-.62h.34c.23,0,.67.14,1.33.41,1.8.66,2.76,1.36,2.87,2.09.07.57.07.88,0,.92-.59.48-1.29,1.98-2.09,4.51,2.55-.59,4.33-1.25,5.34-1.98.36-.25.71-.53,1.04-.84.33-.31.68-.46,1.04-.46s.7.06.99.17c1.76.5,2.63,1.09,2.63,1.78,0,.46-.64.89-1.91,1.3-2.8.84-5.99,1.46-9.54,1.85-1.19,3.4-1.84,6.52-1.95,9.37,2.69-2.35,5.86-3.52,9.51-3.52,4.83,0,7.25,1.94,7.25,5.81,0,1.03-.34,2.11-1.03,3.25-2.19,3.65-6.68,5.47-13.48,5.47h-1.03c-.87-.27-1.3-.53-1.3-.75s.35-.46,1.06-.68c.52.02.81.03.86.03,8.02-.43,12.04-3.1,12.04-8-.21-2.1-2.02-3.15-5.44-3.15h-.1c-3.88,0-6.67,1.5-8.38,4.51-.02.39-.06.75-.1,1.09Z"/>
        <path class="cls-1" d="M526.04,44.24h-.03c-.43,0-.81-.23-1.13-.68-.32-.48-.5-.94-.53-1.39s-.05-1.01-.05-1.69v-1.06c0-1.21.28-2.51.85-3.9,1.8-4.2,3.16-6.35,4.07-6.46.3-.02.51.02.65.14-1.78,1.85-2.8,3.9-3.08,6.16-.18,1.39-.27,2.3-.27,2.74s.1,1.01.31,1.74c3.06-3.08,6.56-4.62,10.5-4.62,1.94,0,3.56.35,4.86,1.06,2.26,1.28,3.39,2.96,3.39,5.04s-1.21,4.28-3.63,6.58c-2.17,1.44-4.79,2.42-7.87,2.94-.59.09-1.24.14-1.93.14s-1.04-.17-1.04-.51c0-.27.19-.44.58-.51l2.33-.38c5.79-1.85,8.69-4.5,8.69-7.97,0-2.85-1.77-4.33-5.3-4.45h-.17c-3.99,0-6.91,1.11-8.76,3.32-.25.32-.67.94-1.27,1.85v.31c0,.41-.36.95-1.09,1.61h-.07ZM537.9,28.03c-.34,0-.97-.14-1.88-.41-.62-.07-1.21-.1-1.78-.1s-1.14.1-1.71.31c-.57.21-.91.31-1.03.31-.48,0-.7-.12-.67-.36s.63-.62,1.8-1.15l1.98-.24c-2.23-1.05-4.07-2.39-5.51-4.04-.18-.23-.24-.44-.19-.65.06-.21.14-.34.26-.39.11-.06.34.13.68.56,1.87,1.6,3.75,2.54,5.64,2.84.91.14,1.49.26,1.73.36s.58.36,1.03.77c.45.41.67.82.67,1.23,0,.64-.34.96-1.03.96Z"/>
      </g>
    </g>
  </g>
</svg>