<?xml version="1.0" encoding="UTF-8"?>
<svg id="_レイヤー_2" data-name="レイヤー 2" xmlns="http://www.w3.org/2000/svg" xmlns:xlink="http://www.w3.org/1999/xlink" viewBox="0 0 600 80">
  <defs>
    <style>
      .cls-1 {
        fill: url(#_名称未設定グラデーション_18_コピー);
      }

      .cls-2 {
        fill: #fff;
      }

      .cls-3 {
        fill: #603;
      }
    </style>
    <linearGradient id="_名称未設定グラデーション_18_コピー" data-name="名称未設定グラデーション 18 コピー" x1="300" y1="2" x2="300" y2="78" gradientTransform="translate(260 340) rotate(-90)" gradientUnits="userSpaceOnUse">
      <stop offset="0" stop-color="#c36"/>
      <stop offset="1" stop-color="#f69"/>
    </linearGradient>
  </defs>
  <g id="_レイヤー_10" data-name="レイヤー 10">
    <g id="UI_inquiry">
      <rect class="cls-3" width="600" height="80" rx="25" ry="25"/>
      <rect class="cls-1" x="262" y="-258" width="76" height="596" rx="23" ry="23" transform="translate(340 -260) rotate(90)"/>
      <g>
        <path class="cls-2" d="M24.93,51.12h-.07c-.31,0-.62-.22-.94-.65l-.72-1.19-.29-.97c-.02-.17-.04-.3-.04-.4,0-.36.13-.54.4-.54h.07c.1,0,.31.08.63.25.32.17.55.2.67.11,2.14-1.78,3.95-3.18,5.44-4.21.02-.26.11-3.11.25-8.53l-2.63.97c-1.1-.02-1.94-.46-2.52-1.3-.7-.89-1.04-1.55-1.04-1.98s.16-.65.47-.65c1.3,1.08,1.96,1.69,1.98,1.84h.07c.67,0,1.92-.31,3.74-.94.14-.91.22-1.78.22-2.59s-.13-1.43-.4-1.85c-.26-.42-.67-.8-1.21-1.13-.54-.33-.81-.6-.81-.79v-.04c0-.31.14-.48.43-.5.84.02,1.87.32,3.08.88,1.21.56,1.88,1,2,1.31.12.31.13.59.04.83l-.72,1.73-.25,1.4,1.12-.5c.22-.02.46-.13.72-.32l.76-.58c.58-.48.88-.72.9-.72.22-.02.61-.04,1.19-.04s1.1.15,1.57.45c.47.3.7.58.7.85,0,.53-.36.94-1.08,1.22l-5.9,1.69-.29,7.99c4.39-2.57,7.79-3.85,10.19-3.85,1.73,0,3.2.36,4.43,1.08,2.83,1.68,4.25,3.5,4.25,5.47s-.86,3.95-2.59,5.94-4.18,2.99-7.34,2.99c-2.28,0-4.12-.7-5.51-2.09-.24-.24-.36-.48-.36-.72v-.04c0-.6.12-.9.36-.9.1,0,.24.08.43.23.19.16.8.44,1.84.85,1.03.41,1.85.61,2.45.61,2.62,0,4.49-.71,5.62-2.14,1.13-1.43,1.69-2.97,1.69-4.63s-.64-2.89-1.91-3.71c-.96-.62-2.57-.94-4.82-.94-1.75,0-4.63,1.19-8.64,3.56.07,1.94.24,4.56.5,7.85l-.36,1.04c-.65,1.27-1.44,1.92-2.38,1.94-.41,0-.67-.12-.79-.36-.12-.24-.28-.67-.47-1.3-1.08-.77-2.16-1.78-3.24-3.02l-.5.9-.36.11ZM26.41,49.25c.82.89,1.99,1.66,3.53,2.3.02-2.5.06-4.54.11-6.12-1.46,1.27-2.68,2.54-3.64,3.82ZM43.18,28.23c5.47,1.92,8.21,4.28,8.21,7.09,0,.7-.26,1.18-.79,1.44-.07.02-.16.04-.25.04-.53,0-1.22-.4-2.09-1.19v-.04c-1.46-1.1-3.07-1.66-4.82-1.66-.48,0-.83-.02-1.04-.07-.22-.05-.32-.19-.32-.43,0-.22.14-.34.43-.36.29-.02.9-.04,1.84-.04s2.06.14,3.38.43c-.24-.7-.57-1.25-.99-1.67-.42-.42-.91-.86-1.48-1.31s-1.19-.86-1.87-1.21c-.68-.35-1.1-.56-1.24-.63-.12-.1-.17-.23-.14-.4.02-.14.13-.22.32-.22s.48.07.86.22Z"/>
        <path class="cls-2" d="M74.98,53.18l.22,2.7c.05.74-.8,1.12-2.56,1.12-.5,0-.74-.29-.72-.86l.18-2.99v-7.24h-8.75c.1.89.14,1.43.14,1.62v.36c-.05.48-.89.72-2.52.72-.41,0-.65-.28-.72-.83l.14-2.56v-14.18l-.14-1.69c0-.12.05-.18.14-.18l3.64,1.51h8.06v-4.18l-.14-1.69c0-.12.1-.18.31-.18s.89.21,2.07.63c1.18.42,1.76.73,1.76.92,0,.12-.19.34-.56.67-.37.32-.56.61-.56.85v2.99h7.92l2.23-1.91c2.14,1.3,3.2,2.15,3.2,2.56l-1.51,1.58v11.88c.14,1.92.22,2.95.22,3.1-.07.48-.92.72-2.56.72-.48,0-.72-.28-.72-.83,0-.19.05-.82.14-1.87h-8.93v7.27ZM72.06,37.73v-5.98h-8.71s-.05,2.02-.07,5.98h8.78ZM72.06,45v-6.37h-8.78l.04,6.37h8.75ZM74.94,37.73h9v-5.18c0-.34-.07-.6-.22-.79h-8.75l-.04,5.98ZM74.94,45h9v-6.37h-9v6.37Z"/>
        <path class="cls-2" d="M99.18,35.25c0-4.63-.6-6.95-1.8-6.95-.58,0-.94-.14-1.08-.43-.05-.1-.07-.18-.07-.25,0-.34.2-.5.61-.5h.32c1.9.34,3.43.96,4.61,1.87.65.48.97,1.02.97,1.62,0,.31-.08.62-.23.92-.16.3-.27.88-.34,1.75-.79,8.33-1.19,12.61-1.19,12.85,0,4.39,2.15,6.59,6.44,6.59h.07c4.37,0,7.61-2.03,9.72-6.08,1.15-3,1.96-4.5,2.41-4.5.26,0,.4.2.4.61,0,.82-.48,2.52-1.44,5.11-2.04,5.11-5.64,7.67-10.8,7.67h-.04c-6.02,0-9.04-3.08-9.04-9.25v-.43l.4-8.03c.05-.77.07-1.62.07-2.56Z"/>
        <path class="cls-2" d="M131.14,56.09v.32c0,.74-.11,1.13-.32,1.15-.55,0-1.55-1.16-2.99-3.49,1.49-.67,3.08-1.63,4.79-2.88v-8.96c0-.34-.06-.6-.18-.79h-2.23l-1.91.25-.79-1.8c.84.12,1.68.24,2.52.36h1.69l2.09-1.84c.41,0,1.04.32,1.89.97.85.65,1.28,1.12,1.28,1.4,0,.12-.25.35-.74.7-.49.35-.74.64-.74.88v7.96c1.61,2.5,5.22,3.74,10.84,3.74s10.62-.2,15.01-.61c-.86,1.34-1.46,2.52-1.8,3.53h-2.38c-12.84,0-20.38-1.84-22.61-5.51l-3.42,4.61ZM129.09,27.44c-.14-.07-.25-.25-.31-.54-.06-.29,0-.43.16-.43.05,0,.12.01.22.04,3.91,1.37,6.14,3.02,6.7,4.97.05.17.07.44.07.81s-.16.83-.49,1.39c-.32.55-.61.83-.85.83-.36,0-.73-.42-1.12-1.26-1.39-3.1-2.86-5.03-4.39-5.8ZM143.02,28.62l-2.16.25c-.31-.5-.71-1.16-1.19-1.98,1.1.17,2.22.34,3.35.5l3.2-.04c.31-.14.73-.5,1.24-1.06.52-.56.85-.85.99-.85.41,0,1.02.32,1.84.97.82.65,1.22,1.12,1.22,1.4,0,.12-.3.34-.9.65-.6.31-1.09.62-1.48.94,1.34,10.22,5.35,16.6,12.02,19.12-1.06,1.13-1.9,2.34-2.52,3.64-4.94-4.37-8.02-9.43-9.22-15.19-1.85,5.88-5.59,10.7-11.23,14.47-.07.05-.23.07-.47.07-.43,0-.65-.18-.65-.54,0-.14.12-.3.36-.47,6-4.7,9.5-11.26,10.51-19.66v-1.94l-.47-.29h-4.46Z"/>
        <path class="cls-2" d="M195.1,44.5c.84.7,1.26,1.58,1.26,2.66s-.4,1.62-1.19,1.62c-.46,0-.97-.31-1.55-.94-1.2-1.3-2.02-2.06-2.45-2.3-1.54,3.94-3.59,7.01-6.16,9.22-.72.62-1.25.94-1.6.94s-.52-.13-.52-.4.22-.64.65-1.12c2.3-2.69,4.13-5.96,5.47-9.83-2.57-1.46-5.9-2.2-10.01-2.2l-4.07,7.67c-.77,1.39-1.46,2.09-2.09,2.09-3.31,0-4.96-1.69-4.93-5.08-.02-.84.11-1.55.4-2.12,1.06-2.18,3.95-3.76,8.68-4.72l3.89-7.96s-.29-.32-.94-.9c-1.56.7-3.1,1.04-4.61,1.04-.36,0-.69-.03-.99-.09-.3-.06-.64-.43-1.03-1.12-.38-.68-.58-1.25-.58-1.71s.02-.68.07-.68c.19,0,.42.17.68.52.26.35.4.53.4.54,0,.01.32.13.97.34l.97.32c.79,0,2-.36,3.64-1.08,1.63-.72,2.5-1.14,2.59-1.26l2.45,1.55c.77.48,1.15.85,1.15,1.12,0,.43-.58.89-1.73,1.37-1.9,3.12-3.32,5.78-4.28,7.99h.29c3.31,0,6.55.68,9.72,2.05.41-1.54.61-2.72.61-3.56-.14-1.87-.56-3.06-1.26-3.56-.29-.22-.43-.4-.43-.54,0-.43.2-.65.61-.65.74,0,1.52.34,2.32,1.03.8.68,1.36,1.21,1.66,1.57.3.36.45.67.45.92s-.04.44-.11.56c-.07.12-.25.52-.54,1.19s-.5,1.42-.65,2.25c-.14.83-.28,1.47-.4,1.93l3.17,1.33ZM169.9,45.54c-.12.48-.18.91-.18,1.3,0,1.78.6,2.66,1.8,2.66.7-.12,1.6-1.25,2.7-3.38s1.74-3.4,1.91-3.78c-3.53.67-5.6,1.74-6.23,3.2Z"/>
        <path class="cls-2" d="M208.39,42.09c-.62-.62-.94-1.37-.94-2.23s.31-1.61.94-2.23c.62-.62,1.37-.94,2.23-.94s1.61.31,2.23.94c.62.62.94,1.37.94,2.23s-.31,1.61-.94,2.23c-.62.62-1.37.94-2.23.94s-1.61-.31-2.23-.94Z"/>
        <path class="cls-2" d="M226.71,51.12h-.07c-.31,0-.62-.22-.94-.65l-.72-1.19-.29-.97c-.02-.17-.04-.3-.04-.4,0-.36.13-.54.4-.54h.07c.1,0,.31.08.63.25.32.17.55.2.67.11,2.14-1.78,3.95-3.18,5.44-4.21.02-.26.11-3.11.25-8.53l-2.63.97c-1.1-.02-1.94-.46-2.52-1.3-.7-.89-1.04-1.55-1.04-1.98s.16-.65.47-.65c1.3,1.08,1.96,1.69,1.98,1.84h.07c.67,0,1.92-.31,3.74-.94.14-.91.22-1.78.22-2.59s-.13-1.43-.4-1.85c-.26-.42-.67-.8-1.21-1.13-.54-.33-.81-.6-.81-.79v-.04c0-.31.14-.48.43-.5.84.02,1.87.32,3.08.88,1.21.56,1.88,1,2,1.31.12.31.13.59.04.83l-.72,1.73-.25,1.4,1.12-.5c.22-.02.46-.13.72-.32l.76-.58c.58-.48.88-.72.9-.72.22-.02.61-.04,1.19-.04s1.1.15,1.57.45c.47.3.7.58.7.85,0,.53-.36.94-1.08,1.22l-5.9,1.69-.29,7.99c4.39-2.57,7.79-3.85,10.19-3.85,1.73,0,3.2.36,4.43,1.08,2.83,1.68,4.25,3.5,4.25,5.47s-.86,3.95-2.59,5.94-4.18,2.99-7.34,2.99c-2.28,0-4.12-.7-5.51-2.09-.24-.24-.36-.48-.36-.72v-.04c0-.6.12-.9.36-.9.1,0,.24.08.43.23.19.16.8.44,1.84.85,1.03.41,1.85.61,2.45.61,2.62,0,4.49-.71,5.62-2.14,1.13-1.43,1.69-2.97,1.69-4.63s-.64-2.89-1.91-3.71c-.96-.62-2.57-.94-4.82-.94-1.75,0-4.63,1.19-8.64,3.56.07,1.94.24,4.56.5,7.85l-.36,1.04c-.65,1.27-1.44,1.92-2.38,1.94-.41,0-.67-.12-.79-.36-.12-.24-.28-.67-.47-1.3-1.08-.77-2.16-1.78-3.24-3.02l-.5.9-.36.11ZM228.19,49.25c.82.89,1.99,1.66,3.53,2.3.02-2.5.06-4.54.11-6.12-1.46,1.27-2.68,2.54-3.64,3.82ZM244.96,28.23c5.47,1.92,8.21,4.28,8.21,7.09,0,.7-.26,1.18-.79,1.44-.07.02-.16.04-.25.04-.53,0-1.22-.4-2.09-1.19v-.04c-1.46-1.1-3.07-1.66-4.82-1.66-.48,0-.83-.02-1.04-.07-.22-.05-.32-.19-.32-.43,0-.22.14-.34.43-.36.29-.02.9-.04,1.84-.04s2.06.14,3.38.43c-.24-.7-.57-1.25-.99-1.67-.42-.42-.91-.86-1.48-1.31s-1.19-.86-1.87-1.21c-.68-.35-1.1-.56-1.24-.63-.12-.1-.17-.23-.14-.4.02-.14.13-.22.32-.22s.48.07.86.22Z"/>
        <path class="cls-2" d="M261.41,25.13l3.53,1.48h5.65c.31-.14.72-.5,1.22-1.06.5-.56.82-.85.95-.85s.63.35,1.49,1.04c.86.7,1.3,1.25,1.3,1.66l-1.04,1.4v6.05l.22,2.56c-.07.48-.92.72-2.56.72-.17,0-.32-.08-.47-.25s-.22-.34-.22-.52.04-.39.11-.63h-7.42v16.42c.14,1.68.22,2.68.22,2.99,0,.58-.88.86-2.63.86-.14,0-.35-.3-.61-.9l.18-2.95v-26.17l-.18-1.62c-.02-.14.02-.22.14-.22h.11ZM271.63,31.04v-2.92c0-.22-.07-.42-.22-.61h-7.24v3.53h7.45ZM264.18,35.79h7.45v-3.82h-7.45v3.82ZM281.35,51.7c-.43,0-.65-.25-.65-.76,0-.14.02-.38.07-.72h-8.35c.05.67.1,1.36.14,2.05-.07.48-.92.72-2.56.72-.46,0-.68-.3-.68-.9l.14-3.13v-7.2l-.18-1.62v-.14s.06-.07.18-.07.66.17,1.62.52c.96.35,1.62.58,1.98.7h6.7l2.2-1.91c2.06,1.49,3.08,2.46,3.06,2.92l-1.33,1.58v4.82l.22,2.41c-.07.48-.92.72-2.56.72ZM272.35,42.12v7.2h8.46v-6.41c0-.34-.07-.6-.22-.79h-8.24ZM289.05,36.72h-7.52l.14.79c-.07.41-.89.65-2.45.72-.17,0-.33-.09-.49-.27-.16-.18-.22-.44-.2-.79.02-.35.06-.71.11-1.1v-9.11l-.18-1.62c-.02-.14.03-.22.16-.22s.68.22,1.64.65c.96.43,1.62.71,1.98.83h5.72s.08-.01.11-.04l2.16-1.87c1.97,1.2,2.95,2.05,2.95,2.56l-1.26,1.62v25.06c0,.7-.3,1.38-.9,2.05-.6.67-1.21,1.01-1.84,1.01-.22-.29-.44-.58-.68-.86-1.39-1.7-3.62-2.6-6.7-2.7-.34-.07-.5-.22-.5-.45s.14-.34.43-.34l6.59.58c.48,0,.72-.19.72-.58v-15.91ZM281.49,31.04h7.52v-2.92c0-.22-.07-.42-.22-.61h-7.31v3.53ZM281.49,31.97v3.78h7.52v-3.78h-7.52Z"/>
        <path class="cls-2" d="M303.99,36.29c-.36,4.18-.54,6.37-.54,6.59,0,2.57.95,4.76,2.84,6.59,1.68-3.38,3.19-6.02,4.54-7.92.48-.67.87-1.01,1.17-1.01s.44.15.41.45c-.02.3-.29.91-.79,1.82-2.09,3.74-3.14,6.29-3.17,7.63v.07l.47,1.26c.31.84.48,1.39.5,1.64s-.13.5-.47.74c-.34.24-.68.37-1.04.4-.91-.07-1.78-.49-2.59-1.26-2.71-2.57-4.07-6.56-4.07-11.99,0-.7.02-1.4.07-2.12l.29-4.32.04-.32c-.05-1.17-.4-2.06-1.06-2.66-.66-.6-.99-.98-.99-1.15.02-.36.43-.54,1.22-.54s1.7.61,2.74,1.84c.5.65.76,1.27.76,1.87v.22l-.32,2.2ZM325.8,49.94h-.25c-.62-.07-.97-.77-1.04-2.09.02-.07.04-.16.04-.25,0-.72-1.25-1.36-3.74-1.91l-.83-.14c-.36-.07-.56-.2-.61-.4l-.04-.07c.14.02.23-.08.25-.31.02-.23.35-.31.99-.23.64.07,2.01.37,4.12.9l.11-.79c.1-.89.14-1.84.14-2.84,0-3.36-1.64-6.28-4.93-8.75-.36-.26-.38-.53-.07-.81.31-.28.52-.41.61-.41.29.02.56.16.83.4,2.69,2.26,4.54,4.52,5.54,6.8.79,2.26,1.19,4.69,1.19,7.31,0,.48-.01.96-.04,1.44v.5c0,.1-.23.4-.7.9s-.94.76-1.42.76h-.14Z"/>
        <path class="cls-2" d="M335.31,38.85c-.38,0-.58-.2-.58-.61,0-.19.11-.33.32-.43,5.83-2.71,10.49-6.96,13.97-12.74,3.38.36,5.06.73,5.04,1.12l-2.48,1.22c5.33,4.66,10.39,7.46,15.19,8.42-.91.96-1.7,2.06-2.38,3.31-4.32-2.02-8.92-5.68-13.79-10.98-5.06,5.26-10,8.78-14.8,10.58-.19.07-.36.11-.5.11ZM344.42,37.26h10.48l2.23-2.09,3.42,2.95c0,.29-.21.43-.61.43h-16.2l-2.12.25-1.62-1.98,4.43.43ZM358.39,56.99c-.43,0-.65-.38-.65-1.13s.02-1.4.07-1.93h-14.58c.1.41.14,1.19.14,2.34-.07.48-.92.72-2.56.72-.46,0-.68-.3-.68-.9l.14-2.77v-8.78l-.18-1.62v-.13c0-.06.06-.09.18-.09s.66.17,1.62.52c.96.35,1.62.58,1.98.7h12.92c.31-.14.72-.5,1.22-1.06.5-.56.82-.85.95-.85s.68.38,1.64,1.15c.96.77,1.44,1.36,1.44,1.76,0,.12-.22.36-.67.72-.44.36-.67.65-.67.86v6.8l.22,2.95c-.07.48-.92.72-2.56.72ZM357.85,45.69c0-.34-.07-.6-.22-.79h-14.47v8.14h14.69v-7.34Z"/>
        <path class="cls-2" d="M375.56,52.24c-1.06,0-1.58-.71-1.58-2.12,0-.79.23-1.44.68-1.94l2.74-2.95,3.71-5.4.14-3.74c-1.34,1.2-2.45,1.8-3.33,1.8s-1.53-.2-1.96-.61c-1.42-1.34-2.22-2.52-2.41-3.53.02-.31.2-.47.54-.47.14,0,.28.05.4.16s.46.41,1.03.92c.56.5,1.12.76,1.67.76h.14c1.08,0,2.39-.41,3.92-1.22v-1.91c0-.77-.03-1.63-.09-2.57-.06-.95-.45-1.82-1.17-2.61-.34-.43-.5-.72-.5-.86.02-.41.23-.6.63-.58.4.02.98.19,1.75.5,2.06.84,3.1,1.73,3.1,2.66,0,.24-.16.61-.47,1.12-.31.5-.49,1.07-.54,1.71-.05.64-.12,1.27-.22,1.89.1-.17.91-.49,2.45-.97.43.22.65.56.65,1.04s-.25.9-.76,1.26l-2.59,1.91c-.14,1.01-.25,1.97-.32,2.88,3.55-3.07,6.88-4.72,9.97-4.93,6.14,0,9.22,2.89,9.22,8.68,0,4.87-2.32,8.44-6.95,10.69-1.78.89-3.44,1.44-5,1.66-.41.05-.61-.07-.61-.36,0-.34.55-.71,1.66-1.12,5.38-2.14,8.06-5.69,8.06-10.66,0-4.42-2.18-6.62-6.55-6.62-3.02,0-6.22,1.8-9.58,5.4v7.31c.29,1.8.43,3.04.43,3.73s-.2,1.28-.61,1.78c-.79.98-1.41,1.48-1.85,1.48s-.71-.24-.81-.72c-.05-.19-.07-.59-.07-1.19s.13-1.74.4-3.42l.11-6.23-2.81,4.43c-1.1,1.99-1.93,2.99-2.48,2.99h-.11Z"/>
        <path class="cls-2" d="M419.39,36.87l9.97-1.8c-.02-2.95-.08-4.85-.18-5.69-.12-.58-.5-1.03-1.15-1.37-.65-.34-1.01-.56-1.08-.68-.05-.12-.07-.23-.07-.32,0-.34.21-.5.63-.5s.97.11,1.64.32c2.45.77,3.67,1.52,3.67,2.27,0,.31-.07.63-.22.95-.14.32-.23.98-.25,1.96-.02.98-.05,1.82-.07,2.52.6-.14,1.14-.26,1.62-.36.48-.1.97-.26,1.46-.5s.99-.36,1.49-.36c.94,0,1.92.42,2.95,1.26.55.46.83.85.83,1.19,0,.53-.42.79-1.26.79h-.04l-5.26-.43c-.6.12-1.22.23-1.87.32-.19,4.54-.29,7.03-.29,7.49s-.18.97-.54,1.55c-.65,1.08-1.4,1.62-2.27,1.62-.24,0-.46-.14-.65-.43-.19-.31-.44-.74-.76-1.3-.31-.55-1.54-.97-3.67-1.26-1.06-.14-1.58-.44-1.58-.9,0-.14.06-.3.18-.47.12-.17.31-.25.58-.25s.91.11,1.93.34c1.02.23,1.86.34,2.52.34s1.1-.14,1.33-.41c.23-.28.34-.68.34-1.21v-.04c0-1.58.01-3.16.04-4.72-3.14.31-6.47.98-9.97,2.02-.02,4.75-.04,7.31-.04,7.67v.04c0,1.27.07,2.27.22,2.99.14.72.61,1.31,1.4,1.76,1.1.6,2.41.9,3.92.9,2.38,0,4.28-.31,5.72-.94.6-.29,1.27-.43,2-.43s1.49.3,2.29.9c.79.62,1.19,1.07,1.19,1.35s-.14.51-.43.7c-.77.36-2.2.62-4.3.79-2.1.17-3.76.25-4.99.25-4.34,0-6.96-.6-7.85-1.8-.7-.91-1.12-2.11-1.26-3.6-.14-1.49-.26-4.39-.36-8.71l-.04-1.04-1.94.65c-.72.24-1.22.41-1.49.5-.28.1-.51.14-.7.14-.67,0-1.3-.27-1.89-.81-.59-.54-.95-1.04-1.1-1.49-.41-1.34-.61-2.17-.61-2.48s.06-.47.18-.47.22.05.29.14.3.48.68,1.15c.38.65.85,1.06,1.4,1.22,2.26-.24,3.92-.49,5-.76l-.32-7.7c-.07-.72-.49-1.21-1.26-1.48-.53-.17-.84-.28-.94-.34-.1-.06-.14-.19-.14-.38,0-.43.26-.65.79-.65s1.1.11,1.73.32c1.58.58,2.58,1.15,2.99,1.73.14.19.22.47.22.85s-.05.62-.16.76c-.11.13-.16.58-.16,1.35l-.04,4v.97Z"/>
        <path class="cls-2" d="M451.5,51.02c.34.62.5,1.22.5,1.8,0,1.51-.46,2.32-1.37,2.41h-.04c-.38-.02-.86-.42-1.44-1.19-.58-.77-.92-1.44-1.04-2.02-.41-1.8-.61-3.77-.61-5.9s.04-3.79.13-4.95c.08-1.16.4-2.77.95-4.81.55-2.04.83-3.37.83-4s-.08-1.11-.25-1.46-.44-.81-.83-1.39c-.38-.58-.58-.92-.58-1.04s.04-.18.11-.18c.46,0,1.09.24,1.91.72,1.61.98,2.41,2.08,2.41,3.28l-1.33,4.1c-.72,2.23-1.08,4.54-1.08,6.91v.9c0,.46.2,1.66.61,3.6l1.12-1.73c1.32-2.09,2.14-3.29,2.45-3.6.31-.31.53-.47.65-.47.26,0,.4.14.4.43,0,.14-.12.43-.36.86l-.76,1.3c-1.56,2.81-2.34,4.81-2.34,6.01,0,.14-.01.28-.04.4ZM469.79,34.35c.91-.17,1.67-.45,2.27-.85.6-.4.95-.59,1.04-.59h.22c.77,0,1.58.4,2.45,1.19,0,.79-.42,1.21-1.26,1.26l-1.94.43c-.96.17-1.92.35-2.88.54-.05,1.15-.07,1.84-.07,2.07s.04,1.87.11,4.91l.14,4.07c2.71.72,4.6,1.85,5.65,3.38l.04.58c0,.91-.62,1.37-1.87,1.37-.74,0-1.2-.13-1.37-.4-.38-.65-.66-1.12-.83-1.4-.17-.29-.33-.51-.49-.67-.16-.16-.55-.38-1.17-.67-.19,1.68-.9,3.04-2.12,4.07-1.22,1.01-2.6,1.51-4.12,1.51s-2.86-.43-4.01-1.3c-1.15-.86-1.73-2.08-1.73-3.64,0-.79.35-1.57,1.04-2.34,1.03-1.08,2.47-1.62,4.32-1.62h.07c1.39,0,2.7.12,3.92.36.19-1.3.29-2.7.29-4.21s-.04-3-.11-4.46l-.07-1.37c-2.04.17-3.55.37-4.54.61-.98.24-1.64.36-1.98.36-1.25,0-2.12-.46-2.63-1.39-.5-.92-.76-1.49-.76-1.71,0-.67.02-1.01.07-1.01.14,0,.24.04.29.11.43.89,1.27,1.43,2.52,1.62,3.02-.07,5.33-.23,6.91-.47v-.79c0-1.08-.1-2.24-.29-3.49-.12-.77-.6-1.42-1.44-1.94-.48-.31-.75-.52-.81-.61s-.09-.19-.09-.29c0-.34.24-.46.72-.38.48.08,1.15.25,2.02.49,2.14.65,3.2,1.37,3.2,2.16,0,.38-.13.71-.38.97-.25.26-.38.74-.38,1.44l.04,1.37v.72ZM462.7,53.03h.14c1.82,0,3.02-.6,3.6-1.8.34-.72.5-1.32.5-1.8v-.43c-1.2-.58-2.54-.86-4.03-.86-.77,0-1.5.28-2.2.83-.7.58-1.04,1.13-1.04,1.67s.29,1.07.86,1.6c.58.53,1.28.79,2.12.79h.04Z"/>
        <path class="cls-2" d="M493.54,51.34h2.66c3.17-.02,5.1-.24,5.8-.65.26-.17.55-.37.86-.59.31-.23.67-.34,1.08-.34h.04c1.22,0,2.41.43,3.56,1.3.5.38.76.68.76.9,0,.31-.23.55-.68.72-.98.38-2.54.73-4.68,1.03-2.14.3-4.12.45-5.94.45s-3.44-.05-4.86-.16c-1.42-.11-2.72-.52-3.91-1.22-1.19-.71-2.01-1.4-2.47-2.07-.46-.7-.68-1.3-.68-1.8,0-1.7.29-3.16.88-4.36.59-1.2,1.54-2.28,2.86-3.24.26-.19.48-.29.65-.29s.31.06.43.18c.12.12.18.25.18.38s-.22.35-.65.67c-1.7,1.2-2.56,2.94-2.56,5.22,0,1.2.47,2.08,1.4,2.63,1.32.74,3.07,1.16,5.26,1.26ZM498.97,32.3c-1.27.05-2.74.08-4.39.11-3.48-.41-5.93-1.45-7.34-3.13-.26-.29-.4-.5-.4-.65s.11-.22.32-.22.43.07.65.22c1.87,1.1,4.32,1.66,7.34,1.66,1.68,0,3.31-.29,4.9-.86.62-.22,1.27-.32,1.93-.32s1.27.27,1.84.81.85,1.1.85,1.67c0,.36-.34.59-1.01.68l-9.72,5.36c-.43.24-.72.36-.86.36-.34,0-.5-.13-.5-.4,0-.1.1-.22.29-.36l2.23-1.73c2.02-1.56,3.31-2.63,3.89-3.2Z"/>
        <path class="cls-2" d="M523.48,49.04c-.22.77-.62,1.15-1.22,1.15s-1.13-.25-1.6-.76-.7-1.04-.7-1.62.23-1.64.68-3.2l2.2-9.07c-1.25.31-2.15.47-2.7.47-2.23-.41-3.48-1.74-3.74-4-.05-.43,0-.65.14-.65s.24.04.29.13c.05.08.17.26.36.52l.18.32c.43.89,1.12,1.33,2.07,1.33s2.25-.12,3.91-.36c.29-.7.56-1.69.81-2.99s.38-2.17.38-2.63-.28-.94-.83-1.46c-.55-.52-.84-.83-.86-.95-.02-.43.2-.65.68-.65h.36c.24,0,.71.14,1.4.43,1.9.7,2.9,1.43,3.02,2.2.07.6.07.92,0,.97-.62.5-1.36,2.09-2.2,4.75,2.69-.62,4.56-1.32,5.62-2.09.38-.26.75-.56,1.1-.88.35-.32.71-.49,1.1-.49s.73.06,1.04.18c1.85.53,2.77,1.15,2.77,1.87,0,.48-.67.94-2.02,1.37-2.95.89-6.3,1.54-10.04,1.94-1.25,3.58-1.93,6.86-2.05,9.86,2.83-2.47,6.17-3.71,10.01-3.71,5.09,0,7.63,2.04,7.63,6.12,0,1.08-.36,2.22-1.08,3.42-2.3,3.84-7.03,5.76-14.18,5.76h-1.08c-.91-.29-1.37-.55-1.37-.79s.37-.48,1.12-.72c.55.02.85.04.9.04,8.45-.46,12.67-3.26,12.67-8.42-.22-2.21-2.12-3.31-5.72-3.31h-.11c-4.08,0-7.02,1.58-8.82,4.75-.02.41-.06.79-.11,1.15Z"/>
        <path class="cls-2" d="M553.79,49.14h-.04c-.46,0-.85-.24-1.19-.72-.34-.5-.52-.99-.56-1.46s-.05-1.06-.05-1.78v-1.12c0-1.27.3-2.64.9-4.1,1.9-4.42,3.32-6.68,4.28-6.8.31-.02.54.02.68.14-1.87,1.94-2.95,4.1-3.24,6.48-.19,1.46-.29,2.42-.29,2.88s.11,1.07.32,1.84c3.22-3.24,6.9-4.86,11.05-4.86,2.04,0,3.74.37,5.11,1.12,2.38,1.34,3.56,3.11,3.56,5.31s-1.27,4.51-3.82,6.93c-2.28,1.51-5.04,2.54-8.28,3.1-.62.1-1.3.14-2.03.14s-1.1-.18-1.1-.54c0-.29.2-.47.61-.54l2.45-.4c6.1-1.94,9.14-4.74,9.14-8.39,0-3-1.86-4.56-5.58-4.68h-.18c-4.2,0-7.27,1.17-9.22,3.49-.26.34-.71.98-1.33,1.94v.32c0,.43-.38,1-1.15,1.69h-.07ZM566.29,32.08c-.36,0-1.02-.14-1.98-.43-.65-.07-1.27-.11-1.87-.11s-1.2.11-1.8.32c-.6.22-.96.32-1.08.32-.5,0-.74-.13-.7-.38s.67-.65,1.89-1.21l2.09-.25c-2.35-1.1-4.28-2.52-5.8-4.25-.19-.24-.26-.47-.2-.68.06-.22.15-.35.27-.41.12-.06.36.14.72.59,1.97,1.68,3.95,2.68,5.94,2.99.96.14,1.57.27,1.82.38s.61.38,1.08.81c.47.43.7.86.7,1.3,0,.67-.36,1.01-1.08,1.01Z"/>
      </g>
    </g>
  </g>
</svg>