<?xml version="1.0" encoding="UTF-8"?>
<svg id="_レイヤー_2" data-name="レイヤー 2" xmlns="http://www.w3.org/2000/svg" xmlns:xlink="http://www.w3.org/1999/xlink" viewBox="0 0 570 72">
  <defs>
    <style>
      .cls-1 {
        fill: #fff;
      }

      .cls-2 {
        fill: #603;
      }

      .cls-3 {
        fill: url(#_名称未設定グラデーション_598);
      }
    </style>
    <linearGradient id="_名称未設定グラデーション_598" data-name="名称未設定グラデーション 598" x1="285" y1="1.8" x2="285" y2="70.2" gradientTransform="translate(249 321) rotate(-90)" gradientUnits="userSpaceOnUse">
      <stop offset="0" stop-color="#de1659"/>
      <stop offset="1" stop-color="#c36"/>
    </linearGradient>
  </defs>
  <g id="_レイヤー_10" data-name="レイヤー 10">
    <g id="UI_news_push">
      <rect class="cls-2" width="570" height="72" rx="25" ry="25"/>
      <rect class="cls-3" x="250.8" y="-247.1" width="68.4" height="566.2" rx="23" ry="23" transform="translate(321 -249) rotate(90)"/>
      <g>
        <path class="cls-1" d="M138.44,32.91l1.64-1.91c1.85,1.39,2.77,2.27,2.77,2.63,0,.14-.24.21-.72.21h-16.18v13.75l.21,3.25c.05.71-.76,1.06-2.43,1.06-.48,0-.7-.27-.65-.82l.14-3.52v-1.06c-2.92,1-6.12,1.82-9.61,2.46-.5,1.12-.81,1.7-.92,1.74-.68-.57-1.39-1.91-2.12-4.04,1.41,0,2.8-.05,4.17-.14v-12.69h-.82c-.91,0-1.68.1-2.29.31l-1.44-1.57c1.3.21,2.86.32,4.69.34h23.56ZM133.96,29.66h-14.64l.14.68c-.05.46-1,.68-2.87.68-.07,0-.14-.26-.21-.79l.14-1.78v-5.85l-.14-1.61c0-.11.05-.17.14-.17l3.45,1.44h13.03l1.95-1.98c2.03,1.09,3.04,1.96,3.04,2.6l-1.27,1.5v3.66l.21,2.29c-.07.46-.88.68-2.43.68-.46,0-.68-.24-.68-.72,0-.09.05-.31.14-.65ZM123.22,33.84h-5.75v3.39h5.75v-3.39ZM123.22,38.21h-5.75v3.32h5.75v-3.32ZM123.22,45.16v-2.67h-5.75v3.76c2.01-.25,3.92-.62,5.75-1.09ZM119.32,25.49h14.67v-1.44c0-.32-.07-.57-.21-.75h-14.47v2.19ZM119.32,28.81h14.67v-2.46h-14.67v2.46ZM132.62,46.08c-1.8-2.39-2.88-5.29-3.25-8.69h-.38c-.09,0-.59.11-1.5.34l-1.16-1.3v-.14s.05-.09.14-.14c.73.23,1.61.34,2.63.34h7.22l1.71-1.98c1.78,1.14,2.67,2.01,2.67,2.6,0,.05-.23.25-.68.62-.46.41-.71.71-.75.89-.57,2.62-1.9,5.03-4,7.22,1.98,1.55,4.48,2.59,7.49,3.11-1.05,1.12-1.72,2.16-2.02,3.11-2.92-1.21-5.28-2.78-7.08-4.72-2.23,1.89-4.36,3.33-6.36,4.31-.14.07-.25.1-.34.1-.57,0-.71-.19-.41-.58.14-.18.25-.3.34-.34,1.66-.64,3.58-2.22,5.75-4.75ZM136.69,37.67c-.07-.09-.14-.18-.21-.27h-6.26c.68,2.92,1.89,5.3,3.63,7.15,1.41-1.96,2.36-4.25,2.84-6.87Z"/>
        <path class="cls-1" d="M158.05,32.67h3.11l1.61-1.64c1.62,1.12,2.43,1.9,2.43,2.36,0,.21-.18.31-.55.31h-13.88c-.46,0-1.06.13-1.81.38l-1.37-1.37.21-.31c1.05.16,2.3.25,3.76.27h5.54c-.05-.16.1-.52.44-1.09.87-1.41,1.5-3.12,1.92-5.13,2.55.89,3.83,1.57,3.83,2.05l-1.68-.1c-.87,1.41-2.05,2.84-3.56,4.28ZM157.78,48.27c.14,1.82.21,2.8.21,2.94-.07.46-.88.68-2.43.68-.27,0-.44-.26-.51-.79l.17-2.84v-5.34c-1.85,3.21-3.8,5.4-5.85,6.57-.23.09-.41.14-.55.14s-.21-.11-.21-.34.11-.48.34-.75c2.71-2.71,4.54-5.94,5.47-9.68h-3.63c-.66.05-1.1.14-1.32.29-.22.15-.35.22-.39.22l-1.09-1.88c1.41.21,2.55.32,3.42.34h3.8v-1.85c-.11-1.03-.17-1.57-.17-1.64s.1-.1.29-.1.82.08,1.88.24c1.06.16,1.59.33,1.59.51l-1.03,1.09v1.74l2.8.03,1.61-1.71c1.66,1.25,2.55,2.02,2.67,2.29,0,.27-.25.41-.75.41h-6.33v.82c1.48.48,2.65,1.27,3.51,2.38s1.28,1.96,1.28,2.55c0,.09-.01.17-.03.24-.3,1.39-.73,2.09-1.3,2.09-.21,0-.49-.5-.85-1.5-.73-1.96-1.6-3.51-2.6-4.65v7.49ZM164.11,26.11h-12.65c-.46,0-1.06.13-1.81.38l-1.37-1.44.21-.27c1.05.16,2.3.25,3.76.27h2.77v-2.32l-.17-1.54c-.02-.16.06-.24.24-.24,2.44.23,3.67.49,3.69.79,0,.12-.17.26-.51.45s-.51.4-.51.65v2.22h2.7l1.61-1.64c1.73,1.12,2.6,1.9,2.6,2.36,0,.23-.18.34-.55.34ZM151.11,26.72c.09-.25.24-.32.44-.21,2.28,1.46,3.42,2.77,3.42,3.93,0,.68-.4,1.28-1.2,1.78-.11.07-.23.1-.34.1-.32,0-.57-.4-.75-1.2-.48-2.05-.96-3.41-1.44-4.07-.11-.16-.16-.27-.14-.34ZM168.28,28.09v4.27c3.33,0,6.06.01,8.21.03l1.61-1.71c1.71,1.32,2.6,2.07,2.67,2.26,0,.27-.25.41-.75.41h-4.51v14.91c.14,1.82.21,2.8.21,2.94-.07.46-.88.68-2.43.68-.27,0-.44-.26-.51-.79l.17-2.84v-14.91h-4.65v1.23c0,8.25-2.01,13.77-6.02,16.55-.34,0-.51-.18-.51-.55,0-.25.13-.51.38-.79,2.42-2.49,3.63-7.81,3.63-15.97v-7.28l-.17-1.95c.02.14.1.21.24.21s1.04.44,2.7,1.33c3.31-1.07,5.91-2.7,7.8-4.89,2.33,1.76,3.49,2.86,3.49,3.32,0,.02-.06.03-.19.03s-.78-.15-1.97-.44c-1.87,1.25-4.92,2.26-9.17,3.01-.14.11-.21.42-.21.92Z"/>
        <path class="cls-1" d="M186.89,26.76c.07-.27.15-.41.24-.41h.03c.46,0,.8.54,1.03,1.61.36,1.91.55,3.21.55,3.9,0,1.37-.26,2.53-.79,3.49-.62.98-1.27,1.47-1.95,1.47-.27,0-.53-.07-.75-.21-.05-.02-.07-.16-.07-.41s.3-1.08.91-2.48c.6-1.4.91-3.07.91-5.01,0-.64-.03-1.29-.1-1.95ZM189.69,48.27v-24.69l-.17-1.5c-.02-.16.07-.24.27-.24.09,0,.7.08,1.81.24,1.12.16,1.68.33,1.68.51l-1.03,1.09v24.59c.14,1.82.21,2.8.21,2.94-.07.46-.82.68-2.26.68-.39,0-.62-.26-.68-.79l.17-2.84ZM194.24,33.49l-.17-2.36c-.3-2.42-.67-3.85-1.13-4.31-.07-.07-.09-.24-.07-.51.02-.27.15-.33.38-.17,1.44,1.28,2.38,2.61,2.84,4,.18.55.27.98.27,1.28s-.03.59-.1.84c1.07.16,2.06.25,2.98.27h5.1v-2.77h-4.72c-.66.05-1.19.11-1.59.19-.4.08-.63.12-.7.12-.32-.66-.8-1.18-1.44-1.57,1.28.21,2.84.32,4.69.34h3.76v-2.87h-5.37c-.91,0-1.68.1-2.29.31l-1.27-1.61c1.3.21,2.8.32,4.51.34h4.38v-1.91l-.17-1.54c-.02-.16.06-.24.24-.24,2.46,0,3.69.26,3.69.79,0,.11-.17.27-.51.46-.34.19-.51.4-.51.63v1.81h5.16l2.15-1.71c1.73,1.39,2.6,2.21,2.6,2.46,0,.14-.24.21-.72.21h-9.2v2.87h4l2.12-1.74c1.76,1.62,2.63,2.47,2.63,2.55s-.25.12-.75.12h-8v2.77h5.51l2.29-1.75,2.5,2.29c0,.25-.25.38-.75.38h-17.92c-.94.02-1.57.13-1.92.31-.25-.34-.48-.65-.68-.92-.18.37-.42.64-.72.84-.3.19-.54.31-.72.36-.23,0-.35-.18-.38-.55ZM197.69,34.66l3.49,1.57h9.3l1.71-1.74c1.8,1.28,2.7,2.09,2.7,2.43l-1.09,1.5v11.12c0,1.6-.88,2.39-2.63,2.39-.32,0-.7-.24-1.13-.72-1.12-1.23-2.87-1.89-5.27-1.98-.32-.07-.48-.21-.48-.41s.14-.32.41-.34c3.81.39,5.78.58,5.92.58.3,0,.44-.19.44-.58v-4h-10.57v3.97c.11,1.48.17,2.41.17,2.77,0,.57-.8.86-2.39.86-.46,0-.68-.27-.68-.82l.14-2.67v-12.04l-.14-1.68c0-.14.03-.21.1-.21ZM200.5,39.92h10.57c0-1.71-.07-2.66-.21-2.84h-10.33s-.03.39-.03,1.03v1.81ZM200.5,43.62h10.57v-2.84h-10.57v2.84Z"/>
        <path class="cls-1" d="M238.41,31.58h-12.89l-2.02.41-1.33-1.57c.39.05.68.13.89.24s1.17.17,2.91.17h3.45v-4.31h-3.04l-2.02.41-1.33-1.54c.39.05.68.12.89.22.21.1,1.17.17,2.91.19h2.6v-2.56l-.17-1.54c-.02-.16.09-.24.34-.24s.89.09,1.92.26,1.54.35,1.54.53c0,.12-.18.27-.53.46-.35.19-.53.41-.53.63v2.46h1.92c1.07-1.32,1.7-1.98,1.88-1.98,1.55,1.46,2.33,2.27,2.33,2.45s-.29.26-.85.26h-5.27v4.31h3.08c1.07-1.32,1.7-1.98,1.88-1.98,1.55,1.46,2.33,2.28,2.33,2.46s-.29.27-.85.27ZM225.38,32.88c-.14-.21-.17-.37-.1-.5.07-.13.21-.18.41-.15.21.02.69.46,1.45,1.3.76.84,1.28,1.48,1.54,1.9s.39.82.39,1.2-.09.76-.27,1.16c-.18.4-.39.7-.62.91h4.34c-.02-.07-.03-.15-.03-.26s.03-.24.1-.43c.68-1.73,1.25-3.72,1.71-5.95,2.35.64,3.59,1.3,3.73,1.98-.07.14-.27.21-.62.21s-.67-.02-.99-.07c-.55,1.23-1.59,2.74-3.11,4.51h1.78c1.07-1.32,1.7-1.98,1.88-1.98,1.55,1.46,2.33,2.28,2.33,2.46s-.29.27-.85.27h-6.29c-.02.59-.03,2.17-.03,4.72h2.46c1.07-1.32,1.7-1.98,1.88-1.98,1.55,1.46,2.33,2.28,2.33,2.46s-.29.27-.85.27h-5.81v3.18c.14,1.6.21,2.59.21,2.98,0,.55-.83.82-2.5.82-.34,0-.54-.29-.58-.86l.17-2.94v-3.18h-3.39l-2.02.41-1.33-1.57c.39.05.68.13.89.24s1.17.17,2.91.17h2.94v-4.72h-3.9l-2.02.41-1.33-1.57c.39.05.68.13.89.24s1.17.17,2.91.17h1.3c-.14-.21-.25-.55-.34-1.03-.16-1.91-.67-3.51-1.54-4.79ZM242.18,48.1c.14,1.6.21,2.59.21,2.98,0,.55-.83.82-2.5.82-.34,0-.54-.29-.58-.86l.17-2.94v-24.56l-.17-1.54c-.02-.14.02-.21.12-.21s.59.2,1.45.6c.87.4,1.54.67,2.02.8h5.4l2.12-1.81c.41,0,1.02.31,1.83.92.81.62,1.21,1.12,1.21,1.5l-1.44,1.54.07,2.19c0,2.51-.48,3.98-1.44,4.41-.96.43-1.6.65-1.93.65s-.53-.09-.6-.27c-.53-1.25-2.05-2.03-4.58-2.32-.32-.07-.48-.24-.48-.53s.14-.43.41-.43l4.48.68c.91,0,1.37-.96,1.37-2.87v-.24l-.03-1.81c0-.3-.07-.55-.21-.75h-6.84c-.02.07-.03,3.61-.03,10.64h6.98l1.95-1.95c1.89,1.16,2.84,2.02,2.84,2.57,0,.02-.23.24-.7.67-.47.42-.71.7-.74.84-.37,3.06-1.54,6.01-3.52,8.86,1.44,1.64,3.15,2.92,5.13,3.83-1,1.28-1.68,2.19-2.02,2.74-1.69-1.37-3.16-3-4.41-4.89-1.14,1.39-2.47,2.75-4,4.07-.37.18-.62.17-.75-.05-.14-.22-.13-.42.03-.6,1.44-1.66,2.66-3.37,3.66-5.13-1.6-2.83-2.77-6.16-3.52-9.99h-.92c-.02,3.4-.03,7.55-.03,12.45ZM247.61,43.82c1.21-2.49,1.97-5.05,2.29-7.7-.11-.18-.18-.35-.21-.51l-5.47.03c.75,3.24,1.88,5.96,3.39,8.17Z"/>
        <path class="cls-1" d="M263.13,36.74l-2.02.24c-.07,0-.16-.07-.27-.21-.11-.14-.39-.34-.84-.62s-.7-.43-.77-.48c-.07-.09-.1-.17-.1-.24s.06-.1.17-.09c.11.01.54.07,1.27.19.73.11,1.96.18,3.69.21h21.48s.08-.02.17-.07c1.37-1.5,2.17-2.26,2.39-2.26,2.42,1.82,3.63,2.8,3.63,2.94,0,.25-.27.38-.82.38h-27.98Z"/>
        <path class="cls-1" d="M303.5,36.43l-.17-1.61c0-.09.03-.14.1-.14s.45.15,1.15.44c.69.3,1.48.67,2.34,1.13h10.53c.3-.14.68-.5,1.16-1.09s.8-.89.96-.89c1.76,1.05,2.63,1.86,2.63,2.43,0,.11-.17.34-.51.68-.34.34-.51.63-.51.86v6.43l.21,2.02c-.07.46-.82.68-2.26.68-.43,0-.65-.3-.65-.89l.1-.92h-2.15v2.19c0,.98.42,1.47,1.27,1.47h5.51c.82,0,1.29-.79,1.4-2.36l.31-4.62c.16-.18.32-.27.48-.27s.31.09.45.27l.38,5.27c.09,1.25.28,1.96.56,2.12.28.16.43.32.43.48,0,1.05-.79,1.57-2.36,1.57h-7.59c-2.21,0-3.32-1-3.32-3.01v-3.11h-2.84c-.64,3.79-5.16,5.88-13.58,6.29-.3,0-.44-.21-.44-.63s.13-.66.38-.7c6.36-.57,9.92-2.22,10.67-4.96h-1.98l.14,1.13c-.07.48-.84.72-2.32.72-.14,0-.33-.31-.58-.92l.14-1.81v-8.24ZM307.02,30.11v3.08h2.57l1.61-1.68c1.94,1.39,2.91,2.18,2.91,2.36,0,.23-.26.34-.79.34h-12.72c.09.87.14,1.48.14,1.85-.07.46-.88.68-2.43.68-.43,0-.65-.28-.65-.86l.14-3.32v-9.54l-.17-1.54c-.02-.14.03-.21.17-.21s.65.21,1.56.62c.9.41,1.52.67,1.86.79h7.32l1.78-1.85c1.94,1.39,2.91,2.18,2.91,2.36,0,.23-.26.34-.79.34h-5.4v2.36h1.09c.3-.3.62-.68.98-1.16.35-.48.59-.72.72-.72s.67.37,1.64,1.09c.97.73,1.45,1.29,1.45,1.68,0,.12-.24.34-.72.68-.48.34-.72.62-.72.82v.62l.21,1.37c0,.66-.81.99-2.43.99-.39,0-.58-.25-.58-.75,0-.11.01-.25.03-.41h-1.68ZM304.28,23.54h-3.76v2.36h3.76v-2.36ZM308.73,27.44c0-.27-.07-.5-.21-.68h-8v2.5h8.21v-1.81ZM304.28,30.11h-3.76v3.08h3.76v-3.08ZM306.06,39.03h12.55v-1.33c0-.21-.07-.4-.21-.58h-12.31c-.02.07-.03.19-.03.38v1.54ZM318.61,39.96h-12.55v2.09h12.55v-2.09ZM318.61,42.97h-12.55v1.85h12.55v-1.85ZM312.77,31.72c-.25,0-.38-.14-.38-.41s.06-.52.17-.75c1.73-3.51,2.79-6.61,3.18-9.3,2.53.96,3.8,1.59,3.8,1.9s-.51.46-1.54.46c-.23.68-.5,1.38-.82,2.09h5.71l2.09-2.19c1.98,1.25,2.98,2.19,2.98,2.8-.02.27-.26.41-.72.41h-10.6c-.87,1.6-2,3.23-3.39,4.89-.18.07-.34.1-.48.1ZM326.55,32.98h-8.41l-2.33.51-1.61-1.4c-.07-.27,0-.44.21-.51,1.3.23,2.86.35,4.69.38h3.28l1.92-2.19c1.98,1.25,2.98,2.19,2.98,2.8-.02.27-.26.41-.72.41Z"/>
        <path class="cls-1" d="M338.25,46.22c.32.59.48,1.16.48,1.71,0,1.44-.43,2.2-1.3,2.29h-.03c-.36-.02-.82-.4-1.37-1.13-.55-.73-.88-1.37-.99-1.92-.39-1.71-.58-3.58-.58-5.61s.04-3.6.12-4.7c.08-1.11.38-2.63.91-4.57.52-1.94.79-3.2.79-3.8s-.08-1.05-.24-1.39-.42-.77-.79-1.32c-.37-.55-.55-.88-.55-.99s.03-.17.1-.17c.43,0,1.04.23,1.81.68,1.53.94,2.29,1.97,2.29,3.11l-1.27,3.9c-.68,2.12-1.03,4.31-1.03,6.57v.86c0,.43.19,1.57.58,3.42l1.06-1.64c1.25-1.98,2.03-3.12,2.32-3.42.3-.3.5-.44.62-.44.25,0,.38.14.38.41,0,.14-.11.41-.34.82l-.72,1.23c-1.48,2.67-2.22,4.57-2.22,5.71,0,.14-.01.26-.03.38ZM355.62,30.38c.87-.16,1.58-.43,2.15-.8.57-.38.9-.56.99-.56h.21c.73,0,1.5.38,2.33,1.13,0,.75-.4,1.15-1.2,1.2l-1.85.41c-.91.16-1.82.33-2.74.51-.05,1.09-.07,1.75-.07,1.97s.03,1.77.1,4.67l.14,3.86c2.58.68,4.37,1.76,5.37,3.21l.03.55c0,.87-.59,1.3-1.78,1.3-.71,0-1.14-.13-1.3-.38-.36-.62-.63-1.06-.79-1.33-.16-.27-.31-.48-.46-.63-.15-.15-.52-.36-1.11-.63-.18,1.6-.85,2.88-2.02,3.86-1.16.96-2.47,1.44-3.92,1.44s-2.72-.41-3.81-1.23c-1.09-.82-1.64-1.97-1.64-3.45,0-.75.33-1.49.99-2.22.98-1.03,2.35-1.54,4.1-1.54h.07c1.32,0,2.57.11,3.73.34.18-1.23.27-2.57.27-4s-.03-2.85-.1-4.24l-.07-1.3c-1.94.16-3.37.35-4.31.58-.94.23-1.56.34-1.88.34-1.19,0-2.02-.44-2.5-1.32-.48-.88-.72-1.42-.72-1.62,0-.64.02-.96.07-.96.14,0,.23.03.27.1.41.84,1.21,1.36,2.39,1.54,2.87-.07,5.06-.22,6.57-.44v-.75c0-1.03-.09-2.13-.27-3.32-.11-.73-.57-1.35-1.37-1.85-.46-.3-.71-.49-.77-.58s-.09-.18-.09-.27c0-.32.23-.44.68-.36.46.08,1.09.23,1.91.46,2.03.62,3.04,1.3,3.04,2.05,0,.36-.12.67-.36.92-.24.25-.36.71-.36,1.37l.03,1.3v.68ZM348.88,48.13h.14c1.73,0,2.87-.57,3.42-1.71.32-.68.48-1.25.48-1.71v-.41c-1.14-.55-2.42-.82-3.83-.82-.73,0-1.43.26-2.09.79-.66.55-.99,1.08-.99,1.59s.27,1.02.82,1.52c.55.5,1.22.75,2.02.75h.03Z"/>
        <path class="cls-1" d="M378.18,46.52h2.53c3.01-.02,4.84-.23,5.51-.62.25-.16.52-.35.82-.56.3-.22.64-.32,1.03-.32h.03c1.16,0,2.29.41,3.39,1.23.48.36.72.65.72.86,0,.3-.22.52-.65.68-.94.36-2.42.69-4.45.97-2.03.29-3.91.43-5.64.43s-3.27-.05-4.62-.15c-1.35-.1-2.58-.49-3.71-1.16-1.13-.67-1.91-1.33-2.34-1.97-.43-.66-.65-1.23-.65-1.71,0-1.62.28-3,.84-4.14.56-1.14,1.46-2.17,2.72-3.08.25-.18.46-.27.62-.27s.3.06.41.17c.11.12.17.23.17.36s-.21.34-.62.63c-1.62,1.14-2.43,2.79-2.43,4.96,0,1.14.44,1.97,1.33,2.5,1.25.71,2.92,1.11,4.99,1.2ZM383.35,28.43c-1.21.05-2.6.08-4.17.1-3.31-.39-5.63-1.38-6.98-2.98-.25-.27-.38-.48-.38-.62s.1-.21.31-.21.41.07.62.21c1.78,1.05,4.1,1.57,6.98,1.57,1.59,0,3.15-.27,4.65-.82.59-.21,1.2-.31,1.83-.31s1.21.26,1.74.77.8,1.04.8,1.59c0,.34-.32.56-.96.65l-9.23,5.1c-.41.23-.68.34-.82.34-.32,0-.48-.12-.48-.38,0-.09.09-.21.27-.34l2.12-1.64c1.91-1.48,3.15-2.5,3.69-3.04Z"/>
        <path class="cls-1" d="M406.62,44.34c-.21.73-.59,1.09-1.16,1.09s-1.08-.24-1.52-.72-.67-.99-.67-1.54.22-1.56.65-3.04l2.09-8.62c-1.19.3-2.04.44-2.57.44-2.12-.39-3.31-1.65-3.56-3.8-.05-.41,0-.62.14-.62s.23.04.27.12c.05.08.16.25.34.5l.17.31c.41.84,1.07,1.27,1.97,1.27s2.14-.11,3.71-.34c.27-.66.53-1.61.77-2.84s.36-2.06.36-2.5-.26-.89-.79-1.39c-.53-.49-.8-.79-.82-.91-.02-.41.19-.62.65-.62h.34c.23,0,.67.14,1.33.41,1.8.66,2.76,1.36,2.87,2.09.07.57.07.88,0,.92-.59.48-1.29,1.98-2.09,4.51,2.55-.59,4.33-1.25,5.34-1.98.36-.25.71-.53,1.04-.84.33-.31.68-.46,1.04-.46s.7.06.99.17c1.76.5,2.63,1.09,2.63,1.78,0,.46-.64.89-1.91,1.3-2.8.84-5.99,1.46-9.54,1.85-1.19,3.4-1.84,6.52-1.95,9.37,2.69-2.35,5.86-3.52,9.51-3.52,4.83,0,7.25,1.94,7.25,5.81,0,1.03-.34,2.11-1.03,3.25-2.19,3.65-6.68,5.47-13.48,5.47h-1.03c-.87-.27-1.3-.53-1.3-.75s.35-.46,1.06-.68c.52.02.81.03.86.03,8.02-.43,12.04-3.1,12.04-8-.21-2.1-2.02-3.15-5.44-3.15h-.1c-3.88,0-6.67,1.5-8.38,4.51-.02.39-.06.75-.1,1.09Z"/>
        <path class="cls-1" d="M435.43,44.44h-.03c-.43,0-.81-.23-1.13-.68-.32-.48-.5-.94-.53-1.39s-.05-1.01-.05-1.69v-1.06c0-1.21.28-2.51.85-3.9,1.8-4.2,3.16-6.35,4.07-6.46.3-.02.51.02.65.14-1.78,1.85-2.8,3.9-3.08,6.16-.18,1.39-.27,2.3-.27,2.74s.1,1.01.31,1.74c3.06-3.08,6.56-4.62,10.5-4.62,1.94,0,3.56.35,4.86,1.06,2.26,1.28,3.39,2.96,3.39,5.04s-1.21,4.28-3.63,6.58c-2.17,1.44-4.79,2.42-7.87,2.94-.59.09-1.24.14-1.93.14s-1.04-.17-1.04-.51c0-.27.19-.44.58-.51l2.33-.38c5.79-1.85,8.69-4.5,8.69-7.97,0-2.85-1.77-4.33-5.3-4.45h-.17c-3.99,0-6.91,1.11-8.76,3.32-.25.32-.67.94-1.27,1.85v.31c0,.41-.36.95-1.09,1.61h-.07ZM447.29,28.23c-.34,0-.97-.14-1.88-.41-.62-.07-1.21-.1-1.78-.1s-1.14.1-1.71.31c-.57.21-.91.31-1.03.31-.48,0-.7-.12-.67-.36s.63-.62,1.8-1.15l1.98-.24c-2.23-1.05-4.07-2.39-5.51-4.04-.18-.23-.24-.44-.19-.65.06-.21.14-.34.26-.39.11-.06.34.13.68.56,1.87,1.6,3.75,2.54,5.64,2.84.91.14,1.49.26,1.73.36s.58.36,1.03.77c.45.41.67.82.67,1.23,0,.64-.34.96-1.03.96Z"/>
      </g>
    </g>
  </g>
</svg>