<svg id="_レイヤー_2" data-name="レイヤー 2" xmlns="http://www.w3.org/2000/svg" viewBox="0 0 1120 366.73"><defs><style>.cls-1{fill:#fff}.cls-2{fill:#090064}.cls-3{fill:navy}.cls-4{fill:#0f0}</style></defs><g id="_引越のページ_" data-name="引越のページ２"><rect class="cls-1" y="92.6" width="340" height="274.14" rx="50" ry="50"/><rect class="cls-1" x="390" y="92.6" width="340" height="274.14" rx="50" ry="50"/><rect class="cls-1" x="780" y="92.6" width="340" height="274.14" rx="50" ry="50"/><path class="cls-1" d="M356.63 227.01h-30v-68.83h30v-29.84l51.4 64.26-51.4 64.25v-29.84z"/><path class="cls-3" d="m401.63 192.6-40-50v20.58h-30v58.83h30v20.59l40-50z"/><path class="cls-1" d="M742.29 227.01h-30v-68.83h30v-29.84l51.4 64.26-51.4 64.25v-29.84z"/><path class="cls-3" d="m787.29 192.6-40-50v20.58h-30v58.83h30v20.59l40-50z"/><circle class="cls-4" cx="165.64" cy="320.46" r="25"/><path class="cls-3" d="M177.62 337.11c-.18.3-.44.54-.76.7l-1.64.71c-1.23.55-2.49.82-3.79.82a9.73 9.73 0 0 1-3.1-.51c-1.02-.34-2-.83-2.93-1.46-.93-.64-1.81-1.4-2.63-2.29a17.99 17.99 0 0 1-2.21-2.98c-.4-.62-.83-1.32-1.29-2.11-.38-.67-.82-1.46-1.31-2.38-.49-.92-.98-1.95-1.49-3.07-1.2-2.65-2.01-4.97-2.45-6.98-.44-2.01-.65-3.7-.65-5.06 0-1.09.11-2.15.34-3.17.23-1.02.58-1.97 1.05-2.84.47-.87 1.06-1.65 1.77-2.34s1.55-1.25 2.53-1.67l1.64-.71c.27-.12.52-.18.75-.18.35 0 .69.1 1 .3.31.2.55.47.71.81l3.04 6.81c.12.27.18.52.18.75 0 .35-.1.69-.31 1-.21.31-.49.55-.84.71l-3.1 1.42c-.47.22-.81.5-1.02.84-.21.34-.31.72-.31 1.15 0 .15.01.3.03.44.02.15.07.3.14.44l5.19 11.62c.19.41.47.73.83.94.36.21.75.32 1.16.32.28 0 .58-.06.89-.18l3.17-1.4c.25-.1.51-.16.78-.16.37 0 .71.09 1.01.28.3.18.53.45.68.79l3.04 6.87c.12.27.18.52.18.78 0 .35-.09.68-.28.99Z"/><circle class="cls-4" cx="560" cy="320.46" r="25"/><path class="cls-3" d="M571.99 337.11c-.18.3-.44.54-.76.7l-1.64.71c-1.23.55-2.49.82-3.79.82a9.73 9.73 0 0 1-3.1-.51c-1.02-.34-2-.83-2.93-1.46-.93-.64-1.81-1.4-2.63-2.29a17.99 17.99 0 0 1-2.21-2.98c-.4-.62-.83-1.32-1.29-2.11-.38-.67-.82-1.46-1.31-2.38-.49-.92-.98-1.95-1.49-3.07-1.2-2.65-2.01-4.97-2.45-6.98-.44-2.01-.65-3.7-.65-5.06 0-1.09.11-2.15.34-3.17.23-1.02.58-1.97 1.05-2.84.47-.87 1.06-1.65 1.77-2.34s1.55-1.25 2.53-1.67l1.64-.71c.27-.12.52-.18.75-.18.35 0 .69.1 1 .3.31.2.55.47.71.81l3.04 6.81c.12.27.18.52.18.75 0 .35-.1.69-.31 1-.21.31-.49.55-.84.71l-3.1 1.42c-.47.22-.81.5-1.02.84-.21.34-.31.72-.31 1.15 0 .15.01.3.03.44.02.15.07.3.14.44l5.19 11.62c.19.41.47.73.83.94.36.21.75.32 1.16.32.28 0 .58-.06.89-.18l3.17-1.4c.25-.1.51-.16.78-.16.37 0 .71.09 1.01.28.3.18.53.45.68.79l3.04 6.87c.12.27.18.52.18.78 0 .35-.09.68-.28.99Z"/><circle class="cls-4" cx="950.48" cy="320.46" r="25"/><path class="cls-3" d="M962.46 337.11c-.18.3-.44.54-.76.7l-1.64.71c-1.23.55-2.49.82-3.79.82a9.73 9.73 0 0 1-3.1-.51c-1.02-.34-2-.83-2.93-1.46-.93-.64-1.81-1.4-2.63-2.29a17.99 17.99 0 0 1-2.21-2.98c-.4-.62-.83-1.32-1.29-2.11-.38-.67-.82-1.46-1.31-2.38-.49-.92-.98-1.95-1.49-3.07-1.2-2.65-2.01-4.97-2.45-6.98-.44-2.01-.65-3.7-.65-5.06 0-1.09.11-2.15.34-3.17.23-1.02.58-1.97 1.05-2.84.47-.87 1.06-1.65 1.77-2.34s1.55-1.25 2.53-1.67l1.64-.71c.27-.12.52-.18.75-.18.35 0 .69.1 1 .3.31.2.55.47.71.81l3.04 6.81c.12.27.18.52.18.75 0 .35-.1.69-.31 1-.21.31-.49.55-.84.71l-3.1 1.42c-.47.22-.81.5-1.02.84-.21.34-.31.72-.31 1.15 0 .15.01.3.03.44.02.15.07.3.14.44l5.19 11.62c.19.41.47.73.83.94.36.21.75.32 1.16.32.28 0 .58-.06.89-.18l3.17-1.4c.25-.1.51-.16.78-.16.37 0 .71.09 1.01.28.3.18.53.45.68.79l3.04 6.87c.12.27.18.52.18.78 0 .35-.09.68-.28.99Z"/><g id="image_moving3_en"><path class="cls-2" d="M18.63 157.1c-1.38 0-2.67-.25-3.85-.76a9.064 9.064 0 0 1-3.14-2.24c-.9-.98-1.6-2.17-2.1-3.58-.5-1.41-.75-3.03-.75-4.84s.26-3.41.78-4.83 1.23-2.62 2.13-3.62c.9-.99 1.96-1.75 3.18-2.26 1.22-.52 2.53-.78 3.93-.78s2.57.28 3.63.84c1.06.56 1.93 1.21 2.61 1.95l-1.86 2.22a7.87 7.87 0 0 0-1.94-1.42c-.71-.37-1.51-.55-2.39-.55-1.28 0-2.4.34-3.38 1.02s-1.73 1.64-2.28 2.88c-.55 1.24-.83 2.73-.83 4.47s.26 3.25.78 4.52c.52 1.27 1.26 2.25 2.22 2.92.96.68 2.09 1.02 3.39 1.02 1 0 1.89-.21 2.69-.65.79-.43 1.52-1 2.17-1.72l1.89 2.22c-.9 1.04-1.92 1.83-3.04 2.38-1.13.55-2.42.83-3.85.83ZM33.5 157.1c-1.76 0-3.05-.57-3.87-1.71-.82-1.14-1.23-2.75-1.23-4.83v-10.41h3.48v9.99c0 1.4.22 2.41.66 3.03s1.14.93 2.1.93c.76 0 1.44-.19 2.04-.58s1.24-1.01 1.92-1.88v-11.49h3.48v16.53h-2.85l-.27-2.49h-.09c-.76.86-1.56 1.56-2.4 2.1-.84.54-1.83.81-2.97.81ZM46.77 156.68v-16.53h2.82l.3 2.97h.06c.6-1.06 1.31-1.88 2.13-2.48.82-.59 1.68-.88 2.58-.88.4 0 .74.03 1.02.09s.55.14.81.24l-.6 3.03c-.3-.1-.57-.17-.81-.21a5.39 5.39 0 0 0-.87-.06c-.66 0-1.36.27-2.1.79-.74.53-1.37 1.46-1.89 2.78v10.26h-3.45ZM59.02 156.68v-16.53h2.82l.3 2.97h.06c.6-1.06 1.31-1.88 2.13-2.48.82-.59 1.68-.88 2.58-.88.4 0 .74.03 1.02.09s.55.14.81.24l-.6 3.03c-.3-.1-.57-.17-.81-.21a5.39 5.39 0 0 0-.87-.06c-.66 0-1.36.27-2.1.79-.74.53-1.37 1.46-1.89 2.78v10.26h-3.45ZM77.85 157.1c-1.5 0-2.86-.34-4.08-1.04-1.22-.69-2.19-1.68-2.91-2.97s-1.08-2.84-1.08-4.67c0-1.34.21-2.54.63-3.62.42-1.07.99-1.98 1.71-2.73s1.53-1.33 2.43-1.72c.9-.4 1.82-.6 2.76-.6 1.46 0 2.69.33 3.69.98 1 .65 1.76 1.56 2.28 2.73s.78 2.53.78 4.09c0 .34-.02.67-.05.97-.03.31-.07.58-.13.79H73.17c.1 1.04.38 1.94.82 2.69.45.75 1.04 1.33 1.77 1.74s1.56.62 2.51.62c.74 0 1.43-.11 2.07-.33.64-.22 1.26-.52 1.86-.9l1.2 2.19c-.76.5-1.6.92-2.54 1.26-.93.34-1.94.51-3.02.51Zm-4.71-10.17h7.92c0-1.4-.32-2.49-.95-3.27-.63-.78-1.54-1.17-2.75-1.17-.68 0-1.32.17-1.92.51-.6.34-1.1.84-1.51 1.5-.41.66-.68 1.47-.8 2.43ZM87.74 156.68v-16.53h2.82l.3 2.31h.06c.76-.74 1.58-1.38 2.46-1.91.88-.53 1.88-.79 3-.79 1.76 0 3.04.57 3.85 1.69.81 1.13 1.21 2.75 1.21 4.85v10.38h-3.45v-9.96c0-1.42-.22-2.43-.66-3.04-.44-.61-1.15-.92-2.13-.92-.76 0-1.44.18-2.02.55-.59.37-1.26.93-2 1.67v11.7h-3.45ZM111.53 157.1c-1.24 0-2.23-.25-2.96-.74s-1.26-1.17-1.58-2.04c-.32-.87-.48-1.88-.48-3.04v-8.34h-2.4v-2.58l2.58-.21.39-4.56h2.88v4.56h4.29v2.79h-4.29v8.37c0 .98.19 1.72.57 2.24.38.51 1 .76 1.86.76.28 0 .58-.04.9-.12.32-.08.6-.17.84-.27l.63 2.55c-.44.14-.94.28-1.48.42-.55.14-1.14.21-1.75.21ZM130.28 164.09c-1.32 0-2.5-.17-3.54-.5-1.04-.33-1.86-.82-2.45-1.46-.59-.64-.88-1.44-.88-2.4 0-.7.21-1.36.63-1.98s1.01-1.16 1.77-1.62v-.12c-.42-.28-.78-.65-1.06-1.09-.29-.45-.44-1-.44-1.67s.19-1.25.58-1.79.81-.95 1.27-1.27v-.12c-.58-.44-1.09-1.04-1.53-1.8-.44-.76-.66-1.63-.66-2.61 0-1.24.29-2.31.89-3.2.59-.89 1.37-1.56 2.34-2.02.97-.46 2.02-.69 3.17-.69.48 0 .92.04 1.33.1.41.07.77.17 1.06.29h5.85v2.61h-3.12c.3.34.55.77.75 1.29.2.52.3 1.09.3 1.71 0 1.2-.27 2.23-.82 3.08-.55.85-1.3 1.5-2.23 1.95-.94.45-1.98.68-3.12.68-.36 0-.75-.04-1.16-.13-.41-.09-.79-.21-1.15-.35-.26.22-.48.46-.65.72-.17.26-.25.59-.25.99 0 .48.19.87.58 1.17.39.3 1.11.45 2.17.45h3.06c1.94 0 3.41.31 4.41.95 1 .63 1.5 1.64 1.5 3.04 0 1.06-.35 2.03-1.05 2.91-.7.88-1.69 1.58-2.98 2.1s-2.82.78-4.58.78Zm.48-2.28c.98 0 1.82-.14 2.52-.42.7-.28 1.25-.64 1.65-1.09.4-.45.6-.93.6-1.42 0-.7-.26-1.18-.78-1.43s-1.28-.38-2.28-.38h-2.49a10.135 10.135 0 0 1-2.22-.24c-.48.36-.83.75-1.05 1.17-.22.42-.33.83-.33 1.23 0 .8.39 1.43 1.17 1.89.78.46 1.85.69 3.21.69Zm-.39-12.6c.56 0 1.08-.14 1.56-.42.48-.28.86-.69 1.14-1.21.28-.53.42-1.17.42-1.91s-.14-1.37-.42-1.88c-.28-.51-.66-.91-1.12-1.18-.47-.28-1-.42-1.57-.42s-1.11.14-1.58.42c-.47.28-.85.67-1.12 1.18-.28.51-.42 1.14-.42 1.88s.15 1.38.44 1.91c.29.53.67.93 1.14 1.21.47.28.98.42 1.54.42ZM141.62 156.68v-16.53h2.82l.3 2.97h.06c.6-1.06 1.31-1.88 2.13-2.48.82-.59 1.68-.88 2.58-.88.4 0 .74.03 1.02.09s.55.14.81.24l-.6 3.03c-.3-.1-.57-.17-.81-.21a5.39 5.39 0 0 0-.87-.06c-.66 0-1.36.27-2.1.79-.74.53-1.37 1.46-1.89 2.78v10.26h-3.45ZM157.81 157.1c-.94 0-1.77-.2-2.5-.6-.73-.4-1.3-.96-1.73-1.68-.42-.72-.63-1.56-.63-2.52 0-1.78.78-3.15 2.35-4.12 1.57-.97 4.08-1.64 7.52-2.03-.02-.64-.12-1.23-.3-1.77s-.5-.97-.95-1.3c-.45-.33-1.08-.5-1.9-.5-.86 0-1.69.17-2.49.51-.8.34-1.56.73-2.28 1.17l-1.29-2.34c.58-.36 1.22-.71 1.92-1.04.7-.33 1.45-.6 2.25-.81.8-.21 1.63-.32 2.49-.32 1.38 0 2.51.27 3.39.83.88.55 1.53 1.35 1.97 2.38.43 1.04.65 2.3.65 3.78v9.93h-2.82l-.27-1.89h-.12c-.74.64-1.55 1.18-2.43 1.63-.88.45-1.82.67-2.82.67Zm1.05-2.76c.72 0 1.39-.17 2.01-.5.62-.33 1.27-.81 1.95-1.46v-4.02c-1.62.18-2.91.45-3.87.79s-1.65.76-2.05 1.23c-.41.47-.62 1.02-.62 1.64 0 .82.25 1.41.75 1.77.5.36 1.11.54 1.83.54ZM174.07 156.68l-5.79-16.53h3.51l2.82 8.91c.24.8.48 1.62.72 2.45.24.83.48 1.65.72 2.47h.12c.26-.82.51-1.64.75-2.47.24-.83.47-1.64.69-2.45l2.82-8.91h3.36l-5.67 16.53h-4.05ZM193.05 157.1c-1.5 0-2.86-.34-4.08-1.04-1.22-.69-2.19-1.68-2.91-2.97s-1.08-2.84-1.08-4.67c0-1.34.21-2.54.63-3.62.42-1.07.99-1.98 1.71-2.73s1.53-1.33 2.43-1.72c.9-.4 1.82-.6 2.76-.6 1.46 0 2.69.33 3.69.98 1 .65 1.76 1.56 2.28 2.73s.78 2.53.78 4.09c0 .34-.02.67-.05.97-.03.31-.07.58-.13.79h-10.71c.1 1.04.38 1.94.82 2.69.45.75 1.04 1.33 1.77 1.74s1.56.62 2.51.62c.74 0 1.43-.11 2.07-.33.64-.22 1.26-.52 1.86-.9l1.2 2.19c-.76.5-1.6.92-2.54 1.26-.93.34-1.94.51-3.02.51Zm-4.71-10.17h7.92c0-1.4-.32-2.49-.95-3.27-.63-.78-1.54-1.17-2.75-1.17-.68 0-1.32.17-1.92.51-.6.34-1.1.84-1.51 1.5-.41.66-.68 1.47-.8 2.43ZM209.88 156.68v-16.53h2.82l.3 2.34h.06c.72-.76 1.49-1.4 2.33-1.93.83-.53 1.76-.79 2.8-.79 1.22 0 2.19.26 2.91.79.72.53 1.26 1.27 1.62 2.24.82-.88 1.67-1.61 2.53-2.18.87-.57 1.81-.85 2.83-.85 1.72 0 3 .57 3.83 1.69.83 1.13 1.25 2.75 1.25 4.85v10.38h-3.48v-9.96c0-1.42-.22-2.43-.66-3.04-.44-.61-1.13-.92-2.07-.92-.56 0-1.15.18-1.76.54-.61.36-1.27.92-1.96 1.68v11.7h-3.45v-9.96c0-1.42-.22-2.43-.66-3.04-.44-.61-1.14-.92-2.1-.92-.54 0-1.12.18-1.74.54-.62.36-1.27.92-1.95 1.68v11.7h-3.45ZM241.63 157.1c-.94 0-1.77-.2-2.5-.6-.73-.4-1.3-.96-1.73-1.68-.42-.72-.63-1.56-.63-2.52 0-1.78.78-3.15 2.35-4.12 1.57-.97 4.08-1.64 7.52-2.03-.02-.64-.12-1.23-.3-1.77s-.5-.97-.95-1.3c-.45-.33-1.08-.5-1.9-.5-.86 0-1.69.17-2.49.51-.8.34-1.56.73-2.28 1.17l-1.29-2.34c.58-.36 1.22-.71 1.92-1.04.7-.33 1.45-.6 2.25-.81.8-.21 1.63-.32 2.49-.32 1.38 0 2.51.27 3.39.83.88.55 1.53 1.35 1.97 2.38.43 1.04.65 2.3.65 3.78v9.93h-2.82l-.27-1.89h-.12c-.74.64-1.55 1.18-2.43 1.63-.88.45-1.82.67-2.82.67Zm1.05-2.76c.72 0 1.39-.17 2.01-.5.62-.33 1.27-.81 1.95-1.46v-4.02c-1.62.18-2.91.45-3.87.79s-1.65.76-2.05 1.23c-.41.47-.62 1.02-.62 1.64 0 .82.25 1.41.75 1.77.5.36 1.11.54 1.83.54ZM254.62 156.68v-16.53h2.82l.3 2.31h.06c.76-.74 1.58-1.38 2.46-1.91.88-.53 1.88-.79 3-.79 1.76 0 3.04.57 3.85 1.69.81 1.13 1.21 2.75 1.21 4.85v10.38h-3.45v-9.96c0-1.42-.22-2.43-.66-3.04-.44-.61-1.15-.92-2.13-.92-.76 0-1.44.18-2.02.55-.59.37-1.26.93-2 1.67v11.7h-3.45ZM276.78 157.1c-.94 0-1.77-.2-2.5-.6-.73-.4-1.3-.96-1.73-1.68-.42-.72-.63-1.56-.63-2.52 0-1.78.78-3.15 2.35-4.12 1.57-.97 4.08-1.64 7.52-2.03-.02-.64-.12-1.23-.3-1.77s-.5-.97-.95-1.3c-.45-.33-1.08-.5-1.9-.5-.86 0-1.69.17-2.49.51-.8.34-1.56.73-2.28 1.17l-1.29-2.34c.58-.36 1.22-.71 1.92-1.04.7-.33 1.45-.6 2.25-.81.8-.21 1.63-.32 2.49-.32 1.38 0 2.51.27 3.39.83.88.55 1.53 1.35 1.97 2.38.43 1.04.65 2.3.65 3.78v9.93h-2.82l-.27-1.89h-.12c-.74.64-1.55 1.18-2.43 1.63-.88.45-1.82.67-2.82.67Zm1.05-2.76c.72 0 1.39-.17 2.01-.5.62-.33 1.27-.81 1.95-1.46v-4.02c-1.62.18-2.91.45-3.87.79s-1.65.76-2.05 1.23c-.41.47-.62 1.02-.62 1.64 0 .82.25 1.41.75 1.77.5.36 1.11.54 1.83.54ZM295.33 164.09c-1.32 0-2.5-.17-3.54-.5-1.04-.33-1.86-.82-2.45-1.46-.59-.64-.88-1.44-.88-2.4 0-.7.21-1.36.63-1.98s1.01-1.16 1.77-1.62v-.12c-.42-.28-.78-.65-1.06-1.09-.29-.45-.44-1-.44-1.67s.19-1.25.58-1.79.81-.95 1.27-1.27v-.12c-.58-.44-1.09-1.04-1.53-1.8-.44-.76-.66-1.63-.66-2.61 0-1.24.29-2.31.89-3.2.59-.89 1.37-1.56 2.34-2.02.97-.46 2.02-.69 3.17-.69.48 0 .92.04 1.33.1.41.07.77.17 1.06.29h5.85v2.61h-3.12c.3.34.55.77.75 1.29.2.52.3 1.09.3 1.71 0 1.2-.27 2.23-.82 3.08-.55.85-1.3 1.5-2.23 1.95-.94.45-1.98.68-3.12.68-.36 0-.75-.04-1.16-.13-.41-.09-.79-.21-1.15-.35-.26.22-.48.46-.65.72-.17.26-.25.59-.25.99 0 .48.19.87.58 1.17.39.3 1.11.45 2.17.45h3.06c1.94 0 3.41.31 4.41.95 1 .63 1.5 1.64 1.5 3.04 0 1.06-.35 2.03-1.05 2.91-.7.88-1.69 1.58-2.98 2.1s-2.82.78-4.58.78Zm.48-2.28c.98 0 1.82-.14 2.52-.42.7-.28 1.25-.64 1.65-1.09.4-.45.6-.93.6-1.42 0-.7-.26-1.18-.78-1.43s-1.28-.38-2.28-.38h-2.49a10.135 10.135 0 0 1-2.22-.24c-.48.36-.83.75-1.05 1.17-.22.42-.33.83-.33 1.23 0 .8.39 1.43 1.17 1.89.78.46 1.85.69 3.21.69Zm-.39-12.6c.56 0 1.08-.14 1.56-.42.48-.28.86-.69 1.14-1.21.28-.53.42-1.17.42-1.91s-.14-1.37-.42-1.88c-.28-.51-.66-.91-1.12-1.18-.47-.28-1-.42-1.57-.42s-1.11.14-1.58.42c-.47.28-.85.67-1.12 1.18-.28.51-.42 1.14-.42 1.88s.15 1.38.44 1.91c.29.53.67.93 1.14 1.21.47.28.98.42 1.54.42ZM313.34 157.1c-1.5 0-2.86-.34-4.08-1.04-1.22-.69-2.19-1.68-2.91-2.97s-1.08-2.84-1.08-4.67c0-1.34.21-2.54.63-3.62.42-1.07.99-1.98 1.71-2.73s1.53-1.33 2.43-1.72c.9-.4 1.82-.6 2.76-.6 1.46 0 2.69.33 3.69.98 1 .65 1.76 1.56 2.28 2.73s.78 2.53.78 4.09c0 .34-.02.67-.05.97-.03.31-.07.58-.13.79h-10.71c.1 1.04.38 1.94.82 2.69.45.75 1.04 1.33 1.77 1.74s1.56.62 2.51.62c.74 0 1.43-.11 2.07-.33.64-.22 1.26-.52 1.86-.9l1.2 2.19c-.76.5-1.6.92-2.54 1.26-.93.34-1.94.51-3.02.51Zm-4.71-10.17h7.92c0-1.4-.32-2.49-.95-3.27-.63-.78-1.54-1.17-2.75-1.17-.68 0-1.32.17-1.92.51-.6.34-1.1.84-1.51 1.5-.41.66-.68 1.47-.8 2.43ZM323.23 156.68v-16.53h2.82l.3 2.97h.06c.6-1.06 1.31-1.88 2.13-2.48.82-.59 1.68-.88 2.58-.88.4 0 .74.03 1.02.09s.55.14.81.24l-.6 3.03c-.3-.1-.57-.17-.81-.21a5.39 5.39 0 0 0-.87-.06c-.66 0-1.36.27-2.1.79-.74.53-1.37 1.46-1.89 2.78v10.26h-3.45Z"/><path d="M72.48 192.49c-.42-.42-.62-.91-.62-1.49s.21-1.07.62-1.49c.42-.42.91-.62 1.49-.62s1.07.21 1.49.62.62.91.62 1.49-.21 1.07-.62 1.49-.91.62-1.49.62-1.07-.21-1.49-.62ZM103.37 199.81h1.34v1.08h-7.63v-1.08h1.68c.34 0 .5-.08.5-.24 0-.11-.06-.25-.19-.41l-4.9-6.41h-2.14v6.36c0 .46.36.7 1.08.7h1.58v1.08h-7.78v-1.08h1.73c.24 0 .47-.07.68-.2s.32-.3.32-.49v-13.73c0-.27-.11-.52-.32-.74s-.49-.34-.83-.34h-1.58v-1.08h8.71c3.74 0 5.62 1.62 5.62 4.87 0 2.74-1.54 4.26-4.61 4.58l4.94 6.48c.37.43.96.65 1.78.65Zm-11.33-14.54v6.41h3.1c2.37 0 3.55-1.2 3.55-3.6 0-2.26-.74-3.48-2.23-3.67-.5-.06-1.26-.1-2.28-.1s-1.64.09-1.84.28c-.2.18-.3.41-.3.68ZM116.15 200.08a9.28 9.28 0 0 1-4.56 1.18h-.1c-1.94 0-3.46-.56-4.57-1.68-1.11-1.12-1.67-2.67-1.67-4.66s.54-3.5 1.63-4.56c1.2-1.14 2.72-1.7 4.55-1.7s3.18.58 4.03 1.73c.86 1.15 1.28 2.61 1.28 4.37v.58h-9.22c.1 1.25.52 2.33 1.27 3.24.8.93 1.92 1.39 3.36 1.39s2.8-.47 4.08-1.42l-.1 1.54Zm-1.37-6c-.05-2.62-1.12-3.94-3.22-3.94h-.05c-2.29 0-3.62 1.31-3.98 3.94h7.25ZM128.1 191.51c.38-1.92 1.46-2.88 3.22-2.88 1.34 0 2.39.27 3.14.8.75.54 1.13 1.48 1.13 2.84v6.82c.11.48.4.72.86.72h.91v1.08h-5.54v-1.08l1.03-.02h.02c.19 0 .43-.23.72-.7v-6.36c0-.93-.2-1.62-.61-2.09s-.93-.7-1.57-.7c-1.89 0-2.83 1.21-2.83 3.62v5.52c.11.48.4.72.86.72h.91v1.08h-5.54v-1.08l1.03-.02h.02c.19 0 .43-.23.72-.7v-6.22c0-.93-.2-1.65-.59-2.16-.39-.51-.91-.77-1.55-.77-1.92 0-2.88 1.71-2.88 5.14v4.01c.11.48.4.72.86.72h.91v1.08h-5.54v-1.08l1.03-.02c.32-.06.57-.3.74-.7v-8.76h-1.8v-.48l2.86-1.44h.94v3.12c.4-1.92 1.3-2.89 2.69-2.9h.07c2.4 0 3.66.96 3.77 2.88ZM144 201.35c-1.62 0-3-.62-4.12-1.87s-1.68-2.74-1.68-4.49.56-3.26 1.68-4.54c1.12-1.28 2.49-1.92 4.12-1.92s3.02.64 4.2 1.92c1.18 1.28 1.76 2.79 1.76 4.54s-.59 3.24-1.76 4.49c-1.18 1.25-2.58 1.87-4.2 1.87Zm3.46-6.37c0-1.75-.33-3.08-.98-3.97-.66-.9-1.52-1.34-2.58-1.34s-1.89.44-2.47 1.31-.88 2.2-.88 4 .33 3.12.98 3.98c.66.86 1.52 1.3 2.59 1.3s1.9-.44 2.47-1.32.86-2.2.86-3.95ZM151.2 189.92h-.96v-1.08h5.71v1.08h-1.08v.02c-.34 0-.51.09-.53.28-.02.18-.02.35-.02.49v.31l2.78 6.96 2.66-6.96h-.02v-.29c0-.14-.02-.3-.05-.47s-.19-.28-.48-.32v-.02h-1.08v-1.08h4.82v1.08h-.84s-.17.15-.42.36-.43.46-.54.74l-4.49 11.02-4.51-11.02c-.29-.69-.61-1.06-.96-1.1ZM174.3 200.08a9.28 9.28 0 0 1-4.56 1.18h-.1c-1.94 0-3.46-.56-4.57-1.68s-1.67-2.67-1.67-4.66.54-3.5 1.63-4.56c1.2-1.14 2.72-1.7 4.55-1.7s3.18.58 4.03 1.73c.86 1.15 1.28 2.61 1.28 4.37v.58h-9.22c.1 1.25.52 2.33 1.27 3.24.8.93 1.92 1.39 3.36 1.39s2.8-.47 4.08-1.42l-.1 1.54Zm-1.37-6c-.05-2.62-1.12-3.94-3.22-3.94h-.05c-2.29 0-3.62 1.31-3.98 3.94h7.25ZM190.88 188.27c1.47 0 2.23 1.14 2.28 3.43l-.53.31c-.27-1.25-.82-1.87-1.63-1.87-2.46 0-3.7 1.54-3.7 4.61v4.34c.11.48.4.72.86.72h1.15v1.08h-6.02v-1.08l1.27-.02c.32-.06.57-.3.74-.7v-8.78h-1.8v-.48l2.86-1.44h.94v3.89c.42-2.67 1.61-4.01 3.58-4.01ZM204.91 200.08a9.28 9.28 0 0 1-4.56 1.18h-.1c-1.94 0-3.46-.56-4.57-1.68-1.11-1.12-1.67-2.67-1.67-4.66s.54-3.5 1.63-4.56c1.2-1.14 2.72-1.7 4.55-1.7s3.18.58 4.03 1.73c.86 1.15 1.28 2.61 1.28 4.37v.58h-9.22c.1 1.25.52 2.33 1.27 3.24.8.93 1.92 1.39 3.36 1.39s2.8-.47 4.08-1.42l-.1 1.54Zm-1.37-6c-.05-2.62-1.12-3.94-3.22-3.94h-.05c-2.29 0-3.62 1.31-3.98 3.94h7.25ZM216.86 191.51c.38-1.92 1.46-2.88 3.22-2.88 1.34 0 2.39.27 3.14.8.75.54 1.13 1.48 1.13 2.84v6.82c.11.48.4.72.86.72h.91v1.08h-5.54v-1.08l1.03-.02h.02c.19 0 .43-.23.72-.7v-6.36c0-.93-.2-1.62-.61-2.09s-.93-.7-1.57-.7c-1.89 0-2.83 1.21-2.83 3.62v5.52c.11.48.4.72.86.72h.91v1.08h-5.54v-1.08l1.03-.02h.02c.19 0 .43-.23.72-.7v-6.22c0-.93-.2-1.65-.59-2.16-.39-.51-.91-.77-1.55-.77-1.92 0-2.88 1.71-2.88 5.14v4.01c.11.48.4.72.86.72h.91v1.08h-5.54v-1.08l1.03-.02c.32-.06.57-.3.74-.7v-8.76h-1.8v-.48l2.86-1.44h.94v3.12c.4-1.92 1.3-2.89 2.69-2.9h.07c2.4 0 3.66.96 3.77 2.88ZM232.6 189.25h-.05c-1.33 0-2.79.69-4.39 2.06l.07-1.18c1.76-1.23 3.15-1.85 4.18-1.85h.53c1.1 0 1.87.11 2.3.34 1.14.54 1.7 1.37 1.7 2.47v8.21c.1.11.42.17.98.17.03 0 .33-.31.89-.94v1.08c-.26 1.04-1.02 1.56-2.3 1.56-.77 0-1.33-.66-1.68-1.99-.94 1.33-2.03 1.99-3.26 1.99s-2.13-.16-2.69-.48c-1.04-.61-1.56-1.41-1.56-2.4 0-2.43 1.64-4.12 4.92-5.06.56-.16 1.42-.31 2.59-.46l.02-.58v-.12c0-1.15-.14-1.87-.43-2.16-.48-.45-1.09-.67-1.82-.67Zm2.23 4.47c-3.44.54-5.16 1.89-5.16 4.03 0 1.34.67 2.02 2.02 2.02 1.74 0 2.79-.9 3.14-2.69v-3.36ZM243.88 199.09c.11.48.4.72.86.72h1.01v1.08h-5.88v-1.08l1.27-.02c.32-.06.57-.3.74-.7v-8.76h-1.8v-.48l2.86-1.44h.94v10.68Zm-2.08-13.26c-.31-.31-.47-.68-.47-1.12s.16-.8.47-1.12c.31-.31.68-.47 1.12-.47s.8.16 1.12.47c.31.31.47.68.47 1.12s-.16.8-.47 1.12c-.31.31-.68.47-1.12.47s-.8-.16-1.12-.47ZM250.77 192.3c.56-2.45 1.83-3.67 3.82-3.67 2.83.02 4.25 1.38 4.25 4.1v6.36c.11.48.4.72.86.72h.91v1.08h-5.78v-1.08l1.03-.02c.32-.06.57-.3.74-.7v-5.45c0-2.46-.67-3.7-2.02-3.7-2.54 0-3.82 2.53-3.82 7.58v1.56c.11.48.4.72.86.72h.91v1.08h-5.54v-1.08l1.03-.02c.32-.06.57-.3.74-.7v-8.76h-1.8v-.48l2.86-1.44h.94v3.89ZM266.01 188.8h.12c.82 0 1.66.32 2.54.96.1 0 .15-.06.17-.17l.12-1.22h1.2l.48 4.66c-1.5-1.95-2.99-2.93-4.46-2.93s-2.21.48-2.21 1.44c0 .88.96 1.56 2.88 2.04 1.2.3 2.1.6 2.69.89 1.26.64 1.9 1.62 1.9 2.93v.07c0 .99-.42 1.85-1.26 2.57s-1.98 1.08-3.42 1.08c-.91 0-1.95-.58-3.12-1.75-.06.4-.12.92-.17 1.56h-1.2l-.48-4.9c2.24 2.51 3.88 3.77 4.92 3.77 1.63 0 2.45-.58 2.45-1.75 0-1.02-.98-1.83-2.93-2.42-.9-.26-1.65-.52-2.26-.8s-1.09-.66-1.45-1.15c-.36-.49-.54-1.01-.54-1.56s.17-1.06.5-1.52c.85-1.18 2.02-1.78 3.53-1.78ZM86.64 228.49c-.42-.42-.62-.91-.62-1.49s.21-1.07.62-1.49c.42-.42.91-.62 1.49-.62s1.07.21 1.49.62.62.91.62 1.49-.21 1.07-.62 1.49-.91.62-1.49.62-1.07-.21-1.49-.62ZM109.05 218.92c2.33 0 3.95.45 4.85 1.34.67-.69 1.1-1.38 1.3-2.09h.96v6.43a7.85 7.85 0 0 0-1.46-2.3c-1.28-1.39-2.73-2.09-4.34-2.09h-.05c-1.94 0-3.67.92-5.21 2.76-.98 1.17-1.46 2.66-1.46 4.46 0 2.29.6 4.24 1.8 5.84 1.2 1.61 2.68 2.41 4.44 2.41 2.72 0 4.69-.74 5.9-2.23l.48-.65.7.58c-.62.82-1.06 1.33-1.31 1.55-.25.22-.51.43-.79.64-.28.21-.55.38-.82.5s-.45.22-.56.29l-.36.14c-1.15.43-2.36.65-3.62.65s-2.4-.23-3.4-.7-1.86-1.12-2.58-1.97c-.72-.85-1.3-1.9-1.75-3.14-.45-1.25-.67-2.46-.67-3.62 0-2.94 1.25-5.37 3.74-7.27 1.36-1.02 2.77-1.54 4.22-1.54ZM121.97 217.45v17.64c.11.48.32.72.62.72h1.27v1.08h-5.83v-1.08l1.39-.02c.05-.06.22-.3.5-.7v-15.72h-1.8v-.48l2.86-1.44h.98ZM130.53 237.35c-1.62 0-3-.62-4.12-1.87s-1.68-2.74-1.68-4.49.56-3.26 1.68-4.54c1.12-1.28 2.49-1.92 4.12-1.92s3.02.64 4.2 1.92c1.18 1.28 1.76 2.79 1.76 4.54s-.59 3.24-1.76 4.49c-1.18 1.25-2.58 1.87-4.2 1.87Zm3.47-6.37c0-1.75-.33-3.08-.98-3.97-.66-.9-1.52-1.34-2.58-1.34s-1.89.44-2.47 1.31-.88 2.2-.88 4 .33 3.12.98 3.98c.66.86 1.52 1.3 2.59 1.3s1.9-.44 2.47-1.32.86-2.2.86-3.95ZM142.16 224.8h.12c.82 0 1.66.32 2.54.96.1 0 .15-.06.17-.17l.12-1.22h1.2l.48 4.66c-1.5-1.95-2.99-2.93-4.46-2.93s-2.21.48-2.21 1.44c0 .88.96 1.56 2.88 2.04 1.2.3 2.1.6 2.69.89 1.26.64 1.9 1.62 1.9 2.93v.07c0 .99-.42 1.85-1.26 2.57s-1.98 1.08-3.42 1.08c-.91 0-1.95-.58-3.12-1.75-.06.4-.12.92-.17 1.56h-1.2l-.48-4.9c2.24 2.51 3.88 3.77 4.92 3.77 1.63 0 2.45-.58 2.45-1.75 0-1.02-.98-1.83-2.93-2.42-.9-.26-1.65-.52-2.26-.8s-1.09-.66-1.45-1.15c-.36-.49-.54-1.01-.54-1.56s.17-1.06.5-1.52c.85-1.18 2.02-1.78 3.53-1.78ZM155.58 224.56h3.82v10.75c.1.11.22.17.36.17.1 0 .39-.31.89-.94v1.08c-.26 1.06-.78 1.58-1.56 1.58s-1.35-.57-1.7-1.7v-1.27c-.38 2.02-1.62 3.02-3.7 3.02-2.67-.02-4.01-1.5-4.01-4.44v-7.18h-1.8v-1.08h3.79v7.25c.03 2.72.77 4.08 2.21 4.08 2.34 0 3.5-1.87 3.5-5.62v-4.63h-1.8v-1.08ZM169.29 224.27c1.47 0 2.23 1.14 2.28 3.43l-.53.31c-.27-1.25-.82-1.87-1.63-1.87-2.46 0-3.7 1.54-3.7 4.61v4.34c.11.48.4.72.86.72h1.15v1.08h-6.02v-1.08l1.27-.02c.32-.06.57-.3.74-.7v-8.78h-1.8v-.48l2.86-1.44h.94v3.89c.42-2.67 1.61-4.01 3.58-4.01ZM183.32 236.08a9.28 9.28 0 0 1-4.56 1.18h-.1c-1.94 0-3.46-.56-4.57-1.68-1.11-1.12-1.67-2.67-1.67-4.66s.54-3.5 1.63-4.56c1.2-1.14 2.72-1.7 4.55-1.7s3.18.58 4.03 1.73c.86 1.15 1.28 2.61 1.28 4.37v.58h-9.22c.1 1.25.52 2.33 1.27 3.24.8.93 1.92 1.39 3.36 1.39s2.8-.47 4.08-1.42l-.1 1.54Zm-1.37-6c-.05-2.62-1.12-3.94-3.22-3.94h-.05c-2.29 0-3.62 1.31-3.98 3.94h7.25ZM199.9 224.27c1.47 0 2.23 1.14 2.28 3.43l-.53.31c-.27-1.25-.82-1.87-1.63-1.87-2.46 0-3.7 1.54-3.7 4.61v4.34c.11.48.4.72.86.72h1.15v1.08h-6.02v-1.08l1.27-.02c.32-.06.57-.3.74-.7v-8.78h-1.8v-.48l2.86-1.44h.94v3.89c.42-2.67 1.61-4.01 3.58-4.01ZM207.09 235.09c.11.48.4.72.86.72h1.01v1.08h-5.88v-1.08l1.27-.02c.32-.06.57-.3.74-.7v-8.76h-1.8v-.48l2.86-1.44h.94v10.68Zm-2.08-13.26c-.31-.31-.47-.68-.47-1.12s.16-.8.47-1.12c.31-.31.68-.47 1.12-.47s.8.16 1.12.47c.31.31.47.68.47 1.12s-.16.8-.47 1.12c-.31.31-.68.47-1.12.47s-.8-.16-1.12-.47ZM214.84 237.11c-2.32 0-3.48-1.02-3.48-3.05v-7.34h-2.18v-1.15h.91c1.18-.06 1.86-1.06 2.02-2.98l1.3-1.49v4.46h2.83v1.15h-2.83v6.67c0 1.65.44 2.47 1.32 2.47 1.07 0 1.9-.28 2.47-.84v.84c-.62.83-1.41 1.25-2.35 1.25ZM225.09 224.56h3.82v10.75c.1.11.22.17.36.17.1 0 .39-.31.89-.94v1.08c-.26 1.06-.78 1.58-1.56 1.58s-1.35-.57-1.7-1.7v-1.27c-.38 2.02-1.62 3.02-3.7 3.02-2.67-.02-4.01-1.5-4.01-4.44v-7.18h-1.8v-1.08h3.79v7.25c.03 2.72.77 4.08 2.21 4.08 2.34 0 3.5-1.87 3.5-5.62v-4.63h-1.8v-1.08ZM236.57 225.25h-.05c-1.33 0-2.79.69-4.39 2.06l.07-1.18c1.76-1.23 3.15-1.85 4.18-1.85h.53c1.1 0 1.87.11 2.3.34 1.14.54 1.7 1.37 1.7 2.47v8.21c.1.11.42.17.98.17.03 0 .33-.31.89-.94v1.08c-.26 1.04-1.02 1.56-2.3 1.56-.77 0-1.33-.66-1.68-1.99-.94 1.33-2.03 1.99-3.26 1.99s-2.13-.16-2.69-.48c-1.04-.61-1.56-1.41-1.56-2.4 0-2.43 1.64-4.12 4.92-5.06.56-.16 1.42-.31 2.59-.46l.02-.58v-.12c0-1.15-.14-1.87-.43-2.16-.48-.45-1.09-.67-1.82-.67Zm2.24 4.47c-3.44.54-5.16 1.89-5.16 4.03 0 1.34.67 2.02 2.02 2.02 1.74 0 2.79-.9 3.14-2.69v-3.36ZM247.92 217.45v17.64c.11.48.32.72.62.72h1.27v1.08h-5.83v-1.08l1.39-.02c.05-.06.22-.3.5-.7v-15.72h-1.8v-.48l2.86-1.44h.98ZM99.39 276.4h-.96c-1.28-.66-2.49-1.74-3.62-3.26-1.58-2.08-2.38-4.48-2.38-7.2 0-2 .38-3.74 1.15-5.23.77-1.49 1.6-2.64 2.5-3.46.9-.82 1.57-1.35 2.02-1.61l.34-.19h.96c-.45.29-.98.78-1.58 1.48-.61.7-1.12 1.41-1.54 2.15-.42.74-.8 1.72-1.14 2.95-.34 1.23-.52 2.44-.52 3.62 0 2.18.31 4.02.92 5.52.62 1.5 1.28 2.67 2 3.5s1.25 1.35 1.58 1.56l.26.17Z"/><path d="M103.53 260.8h.12c.82 0 1.66.32 2.54.96.1 0 .15-.06.17-.17l.12-1.22h1.2l.48 4.66c-1.5-1.95-2.99-2.93-4.46-2.93s-2.21.48-2.21 1.44c0 .88.96 1.56 2.88 2.04 1.2.3 2.1.6 2.69.89 1.26.64 1.9 1.62 1.9 2.93v.07c0 .99-.42 1.85-1.26 2.57-.84.72-1.98 1.08-3.42 1.08-.91 0-1.95-.58-3.12-1.75-.06.4-.12.92-.17 1.56h-1.2l-.48-4.9c2.24 2.51 3.88 3.77 4.92 3.77 1.63 0 2.45-.58 2.45-1.75 0-1.02-.98-1.83-2.93-2.42-.9-.26-1.65-.52-2.26-.8-.61-.28-1.09-.66-1.45-1.15-.36-.49-.54-1.01-.54-1.56s.17-1.06.5-1.52c.85-1.18 2.02-1.78 3.53-1.78ZM113.59 262.16c.88-1.07 2.02-1.62 3.43-1.63h.07c1.66 0 3.01.6 4.04 1.79 1.03 1.19 1.55 2.75 1.55 4.68s-.52 3.45-1.57 4.57-2.39 1.68-4.02 1.68h-.07c-1.39-.02-2.54-.54-3.46-1.58v3.38c.11.48.4.72.86.72h1.15v1.08h-6.02v-1.08l1.27-.02c.32-.06.57-.3.74-.7v-12.91h-1.8v-.48l2.86-1.44h.96v1.94Zm5.66 1.25c-.58-.88-1.38-1.32-2.42-1.32-1.9 0-2.97 1.42-3.19 4.27v1.3c.14 2.66 1.21 3.99 3.19 4.01.96 0 1.74-.42 2.35-1.25.61-.83.93-2 .96-3.5-.02-1.46-.31-2.62-.89-3.5ZM127.51 271.09c.11.48.4.72.86.72h1.01v1.08h-5.88v-1.08l1.27-.02c.32-.06.57-.3.74-.7v-8.76h-1.8v-.48l2.86-1.44h.94v10.68Zm-2.08-13.26c-.31-.31-.47-.68-.47-1.12s.16-.8.47-1.12c.31-.31.68-.47 1.12-.47s.8.16 1.12.47c.31.31.47.68.47 1.12s-.16.8-.47 1.12c-.31.31-.68.47-1.12.47s-.8-.16-1.12-.47ZM138.1 260.27c1.47 0 2.23 1.14 2.28 3.43l-.53.31c-.27-1.25-.82-1.87-1.63-1.87-2.46 0-3.7 1.54-3.7 4.61v4.34c.11.48.4.72.86.72h1.15v1.08h-6.02v-1.08l1.27-.02c.32-.06.57-.3.74-.7v-8.78h-1.8v-.48l2.86-1.44h.94v3.89c.42-2.67 1.61-4.01 3.58-4.01ZM145.29 271.09c.11.48.4.72.86.72h1.01v1.08h-5.88v-1.08l1.27-.02c.32-.06.57-.3.74-.7v-8.76h-1.8v-.48l2.86-1.44h.94v10.68Zm-2.07-13.26c-.31-.31-.47-.68-.47-1.12s.16-.8.47-1.12.68-.47 1.12-.47.8.16 1.12.47.47.68.47 1.12-.16.8-.47 1.12-.68.47-1.12.47-.8-.16-1.12-.47ZM153.04 273.11c-2.32 0-3.48-1.02-3.48-3.05v-7.34h-2.18v-1.15h.91c1.18-.06 1.86-1.06 2.02-2.98l1.3-1.49v4.46h2.83v1.15h-2.83v6.67c0 1.65.44 2.47 1.32 2.47 1.07 0 1.9-.28 2.47-.84v.84c-.62.83-1.41 1.25-2.35 1.25ZM170.95 260.27c1.47 0 2.23 1.14 2.28 3.43l-.53.31c-.27-1.25-.82-1.87-1.63-1.87-2.46 0-3.7 1.54-3.7 4.61v4.34c.11.48.4.72.86.72h1.15v1.08h-6.02v-1.08l1.27-.02c.32-.06.57-.3.74-.7v-8.78h-1.8v-.48l2.86-1.44h.94v3.89c.42-2.67 1.61-4.01 3.58-4.01ZM184.97 272.08a9.28 9.28 0 0 1-4.56 1.18h-.1c-1.94 0-3.46-.56-4.57-1.68-1.11-1.12-1.67-2.67-1.67-4.66s.54-3.5 1.63-4.56c1.2-1.14 2.72-1.7 4.55-1.7s3.18.58 4.03 1.73c.86 1.15 1.28 2.61 1.28 4.37v.58h-9.22c.1 1.25.52 2.33 1.27 3.24.8.93 1.92 1.39 3.36 1.39s2.8-.47 4.08-1.42l-.1 1.54Zm-1.36-6c-.05-2.62-1.12-3.94-3.22-3.94h-.05c-2.29 0-3.62 1.31-3.98 3.94h7.25ZM190.67 253.45v17.64c.11.48.32.72.62.72h1.27v1.08h-5.83v-1.08l1.39-.02c.05-.06.22-.3.5-.7v-15.72h-1.8v-.48l2.86-1.44h.98ZM204.31 272.08a9.28 9.28 0 0 1-4.56 1.18h-.1c-1.94 0-3.46-.56-4.57-1.68s-1.67-2.67-1.67-4.66.54-3.5 1.63-4.56c1.2-1.14 2.72-1.7 4.55-1.7s3.18.58 4.03 1.73c.86 1.15 1.28 2.61 1.28 4.37v.58h-9.22c.1 1.25.52 2.33 1.27 3.24.8.93 1.92 1.39 3.36 1.39s2.8-.47 4.08-1.42l-.1 1.54Zm-1.37-6c-.05-2.62-1.12-3.94-3.22-3.94h-.05c-2.29 0-3.62 1.31-3.98 3.94h7.25ZM211.25 261.25h-.05c-1.33 0-2.79.69-4.39 2.06l.07-1.18c1.76-1.23 3.15-1.85 4.18-1.85h.53c1.1 0 1.87.11 2.3.34 1.14.54 1.7 1.37 1.7 2.47v8.21c.1.11.42.17.98.17.03 0 .33-.31.89-.94v1.08c-.26 1.04-1.02 1.56-2.3 1.56-.77 0-1.33-.66-1.68-1.99-.94 1.33-2.03 1.99-3.26 1.99s-2.13-.16-2.69-.48c-1.04-.61-1.56-1.41-1.56-2.4 0-2.43 1.64-4.12 4.92-5.06.56-.16 1.42-.31 2.59-.46l.02-.58v-.12c0-1.15-.14-1.87-.43-2.16-.48-.45-1.09-.67-1.82-.67Zm2.23 4.47c-3.44.54-5.16 1.89-5.16 4.03 0 1.34.67 2.02 2.02 2.02 1.74 0 2.79-.9 3.14-2.69v-3.36ZM222.74 260.8h.12c.82 0 1.66.32 2.54.96.1 0 .15-.06.17-.17l.12-1.22h1.2l.48 4.66c-1.5-1.95-2.99-2.93-4.46-2.93s-2.21.48-2.21 1.44c0 .88.96 1.56 2.88 2.04 1.2.3 2.1.6 2.69.89 1.26.64 1.9 1.62 1.9 2.93v.07c0 .99-.42 1.85-1.26 2.57-.84.72-1.98 1.08-3.42 1.08-.91 0-1.95-.58-3.12-1.75-.06.4-.12.92-.17 1.56H219l-.48-4.9c2.24 2.51 3.88 3.77 4.92 3.77 1.63 0 2.45-.58 2.45-1.75 0-1.02-.98-1.83-2.93-2.42-.9-.26-1.65-.52-2.26-.8-.61-.28-1.09-.66-1.45-1.15-.36-.49-.54-1.01-.54-1.56s.17-1.06.5-1.52c.85-1.18 2.02-1.78 3.53-1.78ZM240.34 272.08a9.28 9.28 0 0 1-4.56 1.18h-.1c-1.94 0-3.46-.56-4.57-1.68s-1.67-2.67-1.67-4.66.54-3.5 1.63-4.56c1.2-1.14 2.72-1.7 4.55-1.7s3.18.58 4.03 1.73c.86 1.15 1.28 2.61 1.28 4.37v.58h-9.22c.1 1.25.52 2.33 1.27 3.24.8.93 1.92 1.39 3.36 1.39s2.8-.47 4.08-1.42l-.1 1.54Zm-1.37-6c-.05-2.62-1.12-3.94-3.22-3.94h-.05c-2.29 0-3.62 1.31-3.98 3.94h7.25Z"/><path d="m240.61 276.4.26-.17c.34-.21.86-.73 1.58-1.56s1.39-2 2-3.5c.62-1.5.92-3.34.92-5.52 0-1.18-.17-2.39-.52-3.62-.34-1.23-.72-2.22-1.14-2.95-.42-.74-.93-1.45-1.54-2.15s-1.14-1.19-1.58-1.48h.96l.34.19c.45.26 1.12.79 2.02 1.61.9.82 1.73 1.97 2.5 3.46s1.15 3.23 1.15 5.23c0 2.72-.79 5.12-2.38 7.2-1.14 1.52-2.34 2.61-3.62 3.26h-.96Z"/><path class="cls-2" d="M422.53 156.68v-22.11h3.57l7.32 12.99 2.31 4.65h.15c-.1-1.12-.21-2.32-.31-3.6a43.52 43.52 0 0 1-.17-3.72v-10.32h3.33v22.11h-3.57l-7.32-13.02-2.31-4.62h-.12c.08 1.14.17 2.33.27 3.57.1 1.24.15 2.47.15 3.69v10.38h-3.3ZM450.85 157.1c-1.5 0-2.86-.34-4.08-1.04s-2.19-1.68-2.91-2.97c-.72-1.29-1.08-2.84-1.08-4.67 0-1.34.21-2.54.63-3.62.42-1.07.99-1.98 1.71-2.73s1.53-1.33 2.43-1.72c.9-.4 1.82-.6 2.76-.6 1.46 0 2.69.33 3.69.98 1 .65 1.76 1.56 2.28 2.73.52 1.17.78 2.53.78 4.09 0 .34-.01.67-.04.97a5.9 5.9 0 0 1-.13.79h-10.71c.1 1.04.38 1.94.82 2.69.45.75 1.04 1.33 1.77 1.74.73.41 1.56.62 2.5.62.74 0 1.43-.11 2.07-.33.64-.22 1.26-.52 1.86-.9l1.2 2.19c-.76.5-1.6.92-2.54 1.26-.93.34-1.93.51-3.01.51Zm-4.71-10.17h7.92c0-1.4-.32-2.49-.95-3.27-.63-.78-1.54-1.17-2.75-1.17-.68 0-1.32.17-1.92.51-.6.34-1.1.84-1.51 1.5-.41.66-.67 1.47-.79 2.43ZM463.12 156.68l-4.44-16.53h3.48l2.19 8.94c.16.8.31 1.58.45 2.35s.29 1.56.45 2.36h.15c.16-.8.33-1.58.5-2.36.17-.77.35-1.55.55-2.35l2.34-8.94h3.18l2.37 8.94c.2.8.39 1.58.57 2.35.18.77.36 1.56.54 2.36h.15c.16-.8.31-1.58.46-2.36.15-.77.3-1.55.46-2.35l2.13-8.94h3.27l-4.29 16.53h-4.14l-2.1-8.16c-.2-.78-.38-1.56-.54-2.34s-.33-1.59-.51-2.43h-.15c-.18.84-.34 1.66-.5 2.45-.15.79-.33 1.58-.52 2.36l-2.04 8.13h-4.02ZM497.77 164.09c-1.32 0-2.5-.17-3.54-.5s-1.86-.82-2.45-1.46c-.59-.64-.88-1.44-.88-2.4 0-.7.21-1.36.63-1.98s1.01-1.16 1.77-1.62v-.12c-.42-.28-.78-.65-1.07-1.09-.29-.45-.43-1-.43-1.67s.19-1.25.58-1.79c.39-.53.81-.95 1.27-1.27v-.12c-.58-.44-1.09-1.04-1.53-1.8-.44-.76-.66-1.63-.66-2.61 0-1.24.29-2.31.88-3.2s1.37-1.56 2.34-2.02c.97-.46 2.03-.69 3.17-.69.48 0 .92.04 1.33.1.41.07.77.17 1.07.29h5.85v2.61h-3.12c.3.34.55.77.75 1.29s.3 1.09.3 1.71c0 1.2-.27 2.23-.82 3.08-.55.85-1.3 1.5-2.24 1.95-.94.45-1.98.68-3.12.68-.36 0-.75-.04-1.16-.13s-.79-.21-1.15-.35c-.26.22-.48.46-.65.72s-.25.59-.25.99c0 .48.2.87.58 1.17.39.3 1.12.45 2.17.45h3.06c1.94 0 3.41.31 4.41.95 1 .63 1.5 1.64 1.5 3.04 0 1.06-.35 2.03-1.05 2.91-.7.88-1.69 1.58-2.98 2.1s-2.82.78-4.58.78Zm.48-2.28c.98 0 1.82-.14 2.52-.42.7-.28 1.25-.64 1.65-1.09.4-.45.6-.93.6-1.42 0-.7-.26-1.18-.78-1.43s-1.28-.38-2.28-.38h-2.49a10.135 10.135 0 0 1-2.22-.24c-.48.36-.83.75-1.05 1.17-.22.42-.33.83-.33 1.23 0 .8.39 1.43 1.17 1.89.78.46 1.85.69 3.21.69Zm-.39-12.6c.56 0 1.08-.14 1.56-.42.48-.28.86-.69 1.14-1.21.28-.53.42-1.17.42-1.91s-.14-1.37-.42-1.88c-.28-.51-.66-.91-1.12-1.18-.47-.28-1-.42-1.58-.42s-1.11.14-1.58.42c-.47.28-.84.67-1.12 1.18-.28.51-.42 1.14-.42 1.88s.15 1.38.44 1.91c.29.53.67.93 1.14 1.21.47.28.99.42 1.54.42ZM509.11 156.68v-16.53h2.82l.3 2.97h.06c.6-1.06 1.31-1.88 2.13-2.48.82-.59 1.68-.88 2.58-.88.4 0 .74.03 1.02.09s.55.14.81.24l-.6 3.03c-.3-.1-.57-.17-.81-.21a5.39 5.39 0 0 0-.87-.06c-.66 0-1.36.27-2.1.79-.74.53-1.37 1.46-1.89 2.78v10.26h-3.45ZM525.3 157.1c-.94 0-1.77-.2-2.5-.6-.73-.4-1.3-.96-1.72-1.68-.42-.72-.63-1.56-.63-2.52 0-1.78.78-3.15 2.35-4.12 1.57-.97 4.08-1.64 7.52-2.03-.02-.64-.12-1.23-.3-1.77s-.5-.97-.95-1.3-1.08-.5-1.91-.5c-.86 0-1.69.17-2.49.51-.8.34-1.56.73-2.28 1.17l-1.29-2.34c.58-.36 1.22-.71 1.92-1.04.7-.33 1.45-.6 2.25-.81.8-.21 1.63-.32 2.49-.32 1.38 0 2.51.27 3.39.83.88.55 1.53 1.35 1.96 2.38.43 1.04.65 2.3.65 3.78v9.93h-2.82l-.27-1.89h-.12c-.74.64-1.55 1.18-2.43 1.63-.88.45-1.82.67-2.82.67Zm1.05-2.76c.72 0 1.39-.17 2.01-.5.62-.33 1.27-.81 1.95-1.46v-4.02c-1.62.18-2.91.45-3.87.79s-1.65.76-2.05 1.23c-.41.47-.62 1.02-.62 1.64 0 .82.25 1.41.75 1.77.5.36 1.11.54 1.83.54ZM541.56 156.68l-5.79-16.53h3.51l2.82 8.91c.24.8.48 1.62.72 2.45s.48 1.65.72 2.47h.12c.26-.82.51-1.64.75-2.47s.47-1.64.69-2.45l2.82-8.91h3.36l-5.67 16.53h-4.05ZM560.54 157.1c-1.5 0-2.86-.34-4.08-1.04-1.22-.69-2.19-1.68-2.91-2.97-.72-1.29-1.08-2.84-1.08-4.67 0-1.34.21-2.54.63-3.62.42-1.07.99-1.98 1.71-2.73s1.53-1.33 2.43-1.72c.9-.4 1.82-.6 2.76-.6 1.46 0 2.69.33 3.69.98 1 .65 1.76 1.56 2.28 2.73.52 1.17.78 2.53.78 4.09 0 .34-.02.67-.05.97-.03.31-.07.58-.13.79h-10.71c.1 1.04.38 1.94.83 2.69s1.04 1.33 1.77 1.74c.73.41 1.57.62 2.51.62.74 0 1.43-.11 2.07-.33.64-.22 1.26-.52 1.86-.9l1.2 2.19c-.76.5-1.61.92-2.54 1.26s-1.94.51-3.02.51Zm-4.71-10.17h7.92c0-1.4-.32-2.49-.95-3.27-.63-.78-1.54-1.17-2.75-1.17-.68 0-1.32.17-1.92.51-.6.34-1.11.84-1.51 1.5-.41.66-.68 1.47-.8 2.43ZM577.37 156.68v-16.53h2.82l.3 2.34h.06c.72-.76 1.5-1.4 2.33-1.93s1.76-.79 2.8-.79c1.22 0 2.19.26 2.91.79s1.26 1.27 1.62 2.24c.82-.88 1.67-1.61 2.54-2.18.87-.57 1.81-.85 2.83-.85 1.72 0 3 .57 3.83 1.69.83 1.13 1.25 2.75 1.25 4.85v10.38h-3.48v-9.96c0-1.42-.22-2.43-.66-3.04-.44-.61-1.13-.92-2.07-.92-.56 0-1.15.18-1.76.54-.61.36-1.26.92-1.96 1.68v11.7h-3.45v-9.96c0-1.42-.22-2.43-.66-3.04-.44-.61-1.14-.92-2.1-.92-.54 0-1.12.18-1.74.54-.62.36-1.27.92-1.95 1.68v11.7h-3.45ZM609.12 157.1c-.94 0-1.78-.2-2.5-.6-.73-.4-1.3-.96-1.73-1.68-.42-.72-.63-1.56-.63-2.52 0-1.78.79-3.15 2.36-4.12 1.57-.97 4.08-1.64 7.51-2.03-.02-.64-.12-1.23-.3-1.77s-.5-.97-.95-1.3c-.45-.33-1.08-.5-1.9-.5-.86 0-1.69.17-2.49.51-.8.34-1.56.73-2.28 1.17l-1.29-2.34c.58-.36 1.22-.71 1.92-1.04s1.45-.6 2.25-.81c.8-.21 1.63-.32 2.49-.32 1.38 0 2.51.27 3.39.83.88.55 1.54 1.35 1.97 2.38.43 1.04.64 2.3.64 3.78v9.93h-2.82l-.27-1.89h-.12c-.74.64-1.55 1.18-2.43 1.63-.88.45-1.82.67-2.82.67Zm1.05-2.76c.72 0 1.39-.17 2.01-.5s1.27-.81 1.95-1.46v-4.02c-1.62.18-2.91.45-3.87.79s-1.64.76-2.05 1.23-.62 1.02-.62 1.64c0 .82.25 1.41.75 1.77.5.36 1.11.54 1.83.54ZM622.11 156.68v-16.53h2.82l.3 2.31h.06c.76-.74 1.58-1.38 2.46-1.91.88-.53 1.88-.79 3-.79 1.76 0 3.04.57 3.85 1.69.81 1.13 1.21 2.75 1.21 4.85v10.38h-3.45v-9.96c0-1.42-.22-2.43-.66-3.04-.44-.61-1.15-.92-2.13-.92-.76 0-1.44.18-2.03.55s-1.25.93-2 1.67v11.7h-3.45ZM644.27 157.1c-.94 0-1.78-.2-2.5-.6-.73-.4-1.3-.96-1.73-1.68-.42-.72-.63-1.56-.63-2.52 0-1.78.79-3.15 2.36-4.12 1.57-.97 4.08-1.64 7.51-2.03-.02-.64-.12-1.23-.3-1.77s-.5-.97-.95-1.3c-.45-.33-1.08-.5-1.9-.5-.86 0-1.69.17-2.49.51-.8.34-1.56.73-2.28 1.17l-1.29-2.34c.58-.36 1.22-.71 1.92-1.04s1.45-.6 2.25-.81c.8-.21 1.63-.32 2.49-.32 1.38 0 2.51.27 3.39.83.88.55 1.54 1.35 1.97 2.38.43 1.04.64 2.3.64 3.78v9.93h-2.82l-.27-1.89h-.12c-.74.64-1.55 1.18-2.43 1.63-.88.45-1.82.67-2.82.67Zm1.05-2.76c.72 0 1.39-.17 2.01-.5s1.27-.81 1.95-1.46v-4.02c-1.62.18-2.91.45-3.87.79s-1.64.76-2.05 1.23-.62 1.02-.62 1.64c0 .82.25 1.41.75 1.77.5.36 1.11.54 1.83.54ZM662.82 164.09c-1.32 0-2.5-.17-3.54-.5-1.04-.33-1.86-.82-2.45-1.46-.59-.64-.88-1.44-.88-2.4 0-.7.21-1.36.63-1.98s1.01-1.16 1.77-1.62v-.12c-.42-.28-.78-.65-1.06-1.09-.29-.45-.44-1-.44-1.67s.2-1.25.58-1.79c.39-.53.81-.95 1.28-1.27v-.12c-.58-.44-1.09-1.04-1.53-1.8-.44-.76-.66-1.63-.66-2.61 0-1.24.29-2.31.89-3.2.59-.89 1.37-1.56 2.34-2.02.97-.46 2.02-.69 3.17-.69.48 0 .92.04 1.33.1.41.07.76.17 1.06.29h5.85v2.61h-3.12c.3.34.55.77.75 1.29.2.52.3 1.09.3 1.71 0 1.2-.28 2.23-.83 3.08s-1.29 1.5-2.23 1.95c-.94.45-1.98.68-3.12.68-.36 0-.75-.04-1.16-.13-.41-.09-.79-.21-1.16-.35-.26.22-.48.46-.64.72-.17.26-.25.59-.25.99 0 .48.19.87.58 1.17.39.3 1.11.45 2.17.45h3.06c1.94 0 3.41.31 4.41.95 1 .63 1.5 1.64 1.5 3.04 0 1.06-.35 2.03-1.05 2.91-.7.88-1.7 1.58-2.99 2.1s-2.82.78-4.58.78Zm.48-2.28c.98 0 1.82-.14 2.52-.42.7-.28 1.25-.64 1.65-1.09s.6-.93.6-1.42c0-.7-.26-1.18-.78-1.43s-1.28-.38-2.28-.38h-2.49a10.135 10.135 0 0 1-2.22-.24c-.48.36-.83.75-1.05 1.17-.22.42-.33.83-.33 1.23 0 .8.39 1.43 1.17 1.89.78.46 1.85.69 3.21.69Zm-.39-12.6c.56 0 1.08-.14 1.56-.42.48-.28.86-.69 1.14-1.21.28-.53.42-1.17.42-1.91s-.14-1.37-.42-1.88c-.28-.51-.66-.91-1.12-1.18-.47-.28-1-.42-1.57-.42s-1.11.14-1.58.42c-.47.28-.85.67-1.12 1.18-.28.51-.42 1.14-.42 1.88s.14 1.38.43 1.91.67.93 1.14 1.21c.47.28.98.42 1.54.42ZM680.83 157.1c-1.5 0-2.86-.34-4.08-1.04-1.22-.69-2.19-1.68-2.91-2.97-.72-1.29-1.08-2.84-1.08-4.67 0-1.34.21-2.54.63-3.62.42-1.07.99-1.98 1.71-2.73s1.53-1.33 2.43-1.72c.9-.4 1.82-.6 2.76-.6 1.46 0 2.69.33 3.69.98 1 .65 1.76 1.56 2.28 2.73.52 1.17.78 2.53.78 4.09 0 .34-.02.67-.05.97-.03.31-.07.58-.13.79h-10.71c.1 1.04.38 1.94.83 2.69s1.04 1.33 1.77 1.74c.73.41 1.57.62 2.51.62.74 0 1.43-.11 2.07-.33.64-.22 1.26-.52 1.86-.9l1.2 2.19c-.76.5-1.61.92-2.54 1.26s-1.94.51-3.02.51Zm-4.71-10.17h7.92c0-1.4-.32-2.49-.95-3.27-.63-.78-1.54-1.17-2.75-1.17-.68 0-1.32.17-1.92.51-.6.34-1.11.84-1.51 1.5-.41.66-.68 1.47-.8 2.43ZM690.72 156.68v-16.53h2.82l.3 2.97h.06c.6-1.06 1.31-1.88 2.13-2.48.82-.59 1.68-.88 2.58-.88.4 0 .74.03 1.02.09s.55.14.81.24l-.6 3.03c-.3-.1-.57-.17-.81-.21a5.39 5.39 0 0 0-.87-.06c-.66 0-1.36.27-2.1.79-.74.53-1.37 1.46-1.89 2.78v10.26h-3.45Z"/><path d="M416.91 192.49c-.42-.42-.62-.91-.62-1.49s.21-1.07.62-1.49c.42-.42.91-.62 1.49-.62s1.07.21 1.49.62.62.91.62 1.49-.21 1.07-.62 1.49-.91.62-1.49.62-1.07-.21-1.49-.62ZM436.32 199.09c.11.48.48.72 1.1.72h1.56v1.08h-7.63v-1.08l1.7-.02c.45-.06.78-.3.98-.7v-13.85c-.06-.37-.44-.61-1.13-.72h-1.56v-1.08h7.63v1.08h-1.68c-.43.06-.76.3-.98.72v13.85ZM444.18 192.3c.56-2.45 1.83-3.67 3.82-3.67 2.83.02 4.25 1.38 4.25 4.1v6.36c.11.48.4.72.86.72h.91v1.08h-5.78v-1.08l1.03-.02c.32-.06.57-.3.74-.7v-5.45c0-2.46-.67-3.7-2.02-3.7-2.54 0-3.82 2.53-3.82 7.58v1.56c.11.48.4.72.86.72h.91v1.08h-5.54v-1.08l1.03-.02c.32-.06.57-.3.74-.7v-8.76h-1.8v-.48l2.86-1.44h.94v3.89ZM459.85 201.11c-2.32 0-3.48-1.02-3.48-3.05v-7.34h-2.18v-1.15h.91c1.18-.06 1.86-1.06 2.02-2.98l1.3-1.49v4.46h2.83v1.15h-2.83v6.67c0 1.65.44 2.47 1.32 2.47 1.07 0 1.9-.28 2.47-.84v.84c-.62.83-1.41 1.25-2.35 1.25ZM473.74 200.08a9.28 9.28 0 0 1-4.56 1.18h-.1c-1.94 0-3.46-.56-4.57-1.68-1.11-1.12-1.67-2.67-1.67-4.66s.54-3.5 1.63-4.56c1.2-1.14 2.72-1.7 4.55-1.7s3.18.58 4.03 1.73c.86 1.15 1.28 2.61 1.28 4.37v.58h-9.22c.1 1.25.52 2.33 1.27 3.24.8.93 1.92 1.39 3.36 1.39s2.8-.47 4.08-1.42l-.1 1.54Zm-1.37-6c-.05-2.62-1.12-3.94-3.22-3.94h-.05c-2.29 0-3.62 1.31-3.98 3.94h7.25ZM482.87 188.27c1.47 0 2.23 1.14 2.28 3.43l-.53.31c-.27-1.25-.82-1.87-1.63-1.87-2.46 0-3.7 1.54-3.7 4.61v4.34c.11.48.4.72.86.72h1.15v1.08h-6.02v-1.08l1.27-.02c.32-.06.57-.3.74-.7v-8.78h-1.8v-.48l2.86-1.44h.94v3.89c.42-2.67 1.61-4.01 3.58-4.01ZM500.6 188.27c1.47 0 2.23 1.14 2.28 3.43l-.53.31c-.27-1.25-.82-1.87-1.63-1.87-2.46 0-3.7 1.54-3.7 4.61v4.34c.11.48.4.72.86.72h1.15v1.08h-6.02v-1.08l1.27-.02c.32-.06.57-.3.74-.7v-8.78h-1.8v-.48l2.86-1.44h.94v3.89c.42-2.67 1.61-4.01 3.58-4.01ZM514.63 200.08a9.28 9.28 0 0 1-4.56 1.18h-.1c-1.94 0-3.46-.56-4.57-1.68-1.11-1.12-1.67-2.67-1.67-4.66s.54-3.5 1.63-4.56c1.2-1.14 2.72-1.7 4.55-1.7s3.18.58 4.03 1.73c.86 1.15 1.28 2.61 1.28 4.37v.58H506c.1 1.25.52 2.33 1.27 3.24.8.93 1.92 1.39 3.36 1.39s2.8-.47 4.08-1.42l-.1 1.54Zm-1.37-6c-.05-2.62-1.12-3.94-3.22-3.94h-.05c-2.29 0-3.62 1.31-3.98 3.94h7.25ZM526.58 191.51c.38-1.92 1.46-2.88 3.22-2.88 1.34 0 2.39.27 3.14.8.75.54 1.13 1.48 1.13 2.84v6.82c.11.48.4.72.86.72h.91v1.08h-5.54v-1.08l1.03-.02h.02c.19 0 .43-.23.72-.7v-6.36c0-.93-.2-1.62-.61-2.09-.41-.46-.93-.7-1.57-.7-1.89 0-2.83 1.21-2.83 3.62v5.52c.11.48.4.72.86.72h.91v1.08h-5.54v-1.08l1.03-.02h.02c.19 0 .43-.23.72-.7v-6.22c0-.93-.2-1.65-.59-2.16-.39-.51-.91-.77-1.55-.77-1.92 0-2.88 1.71-2.88 5.14v4.01c.11.48.4.72.86.72h.91v1.08h-5.54v-1.08l1.03-.02c.32-.06.57-.3.74-.7v-8.76h-1.8v-.48l2.86-1.44h.94v3.12c.4-1.92 1.3-2.89 2.69-2.9h.07c2.4 0 3.66.96 3.77 2.88ZM542.32 189.25h-.05c-1.33 0-2.79.69-4.39 2.06l.07-1.18c1.76-1.23 3.15-1.85 4.18-1.85h.53c1.1 0 1.87.11 2.3.34 1.14.54 1.7 1.37 1.7 2.47v8.21c.1.11.42.17.98.17.03 0 .33-.31.89-.94v1.08c-.26 1.04-1.02 1.56-2.3 1.56-.77 0-1.33-.66-1.68-1.99-.94 1.33-2.03 1.99-3.26 1.99s-2.13-.16-2.69-.48c-1.04-.61-1.56-1.41-1.56-2.4 0-2.43 1.64-4.12 4.92-5.06.56-.16 1.42-.31 2.59-.46l.02-.58v-.12c0-1.15-.14-1.87-.43-2.16-.48-.45-1.09-.67-1.82-.67Zm2.23 4.47c-3.44.54-5.16 1.89-5.16 4.03 0 1.34.67 2.02 2.02 2.02 1.74 0 2.79-.9 3.14-2.69v-3.36ZM553.6 199.09c.11.48.4.72.86.72h1.01v1.08h-5.88v-1.08l1.27-.02c.32-.06.57-.3.74-.7v-8.76h-1.8v-.48l2.86-1.44h.94v10.68Zm-2.08-13.26c-.31-.31-.47-.68-.47-1.12s.16-.8.47-1.12c.31-.31.68-.47 1.12-.47s.8.16 1.12.47c.31.31.47.68.47 1.12s-.16.8-.47 1.12c-.31.31-.68.47-1.12.47s-.8-.16-1.12-.47ZM560.49 192.3c.56-2.45 1.83-3.67 3.82-3.67 2.83.02 4.25 1.38 4.25 4.1v6.36c.11.48.4.72.86.72h.91v1.08h-5.78v-1.08l1.03-.02c.32-.06.57-.3.74-.7v-5.45c0-2.46-.67-3.7-2.02-3.7-2.54 0-3.82 2.53-3.82 7.58v1.56c.11.48.4.72.86.72h.91v1.08h-5.54v-1.08l1.03-.02c.32-.06.57-.3.74-.7v-8.76h-1.8v-.48l2.86-1.44h.94v3.89ZM575.73 188.8h.12c.82 0 1.66.32 2.54.96.1 0 .15-.06.17-.17l.12-1.22h1.2l.48 4.66c-1.5-1.95-2.99-2.93-4.46-2.93s-2.21.48-2.21 1.44c0 .88.96 1.56 2.88 2.04 1.2.3 2.1.6 2.69.89 1.26.64 1.9 1.62 1.9 2.93v.07c0 .99-.42 1.85-1.26 2.57-.84.72-1.98 1.08-3.42 1.08-.91 0-1.95-.58-3.12-1.75-.06.4-.12.92-.17 1.56h-1.2l-.48-4.9c2.24 2.51 3.88 3.77 4.92 3.77 1.63 0 2.45-.58 2.45-1.75 0-1.02-.98-1.83-2.93-2.42-.9-.26-1.65-.52-2.26-.8-.61-.28-1.09-.66-1.45-1.15-.36-.49-.54-1.01-.54-1.56s.17-1.06.5-1.52c.85-1.18 2.02-1.78 3.53-1.78ZM594.83 189.25h-.05c-1.33 0-2.79.69-4.39 2.06l.07-1.18c1.76-1.23 3.15-1.85 4.18-1.85h.53c1.1 0 1.87.11 2.3.34 1.14.54 1.71 1.37 1.71 2.47v8.21c.1.11.42.17.98.17.03 0 .33-.31.89-.94v1.08c-.26 1.04-1.02 1.56-2.3 1.56-.77 0-1.33-.66-1.68-1.99-.94 1.33-2.03 1.99-3.26 1.99s-2.13-.16-2.69-.48c-1.04-.61-1.56-1.41-1.56-2.4 0-2.43 1.64-4.12 4.92-5.06.56-.16 1.42-.31 2.59-.46l.03-.58v-.12c0-1.15-.14-1.87-.43-2.16-.48-.45-1.09-.67-1.82-.67Zm2.23 4.47c-3.44.54-5.16 1.89-5.16 4.03 0 1.34.67 2.02 2.02 2.02 1.74 0 2.79-.9 3.14-2.69v-3.36ZM606.76 201.11c-2.32 0-3.48-1.02-3.48-3.05v-7.34h-2.18v-1.15h.91c1.18-.06 1.86-1.06 2.02-2.98l1.3-1.49v4.46h2.83v1.15h-2.83v6.67c0 1.65.44 2.47 1.32 2.47 1.07 0 1.9-.28 2.47-.84v.84c-.62.83-1.41 1.25-2.35 1.25ZM621.06 192.3c.56-2.45 1.83-3.67 3.82-3.67 2.83.02 4.25 1.38 4.25 4.1v6.36c.11.48.4.72.86.72h.91v1.08h-5.78v-1.08l1.03-.02c.32-.06.57-.3.74-.7v-5.45c0-2.46-.67-3.7-2.02-3.7-2.54 0-3.82 2.53-3.82 7.58v1.56c.11.48.4.72.86.72h.91v1.08h-5.54v-1.08l1.03-.02c.32-.06.57-.3.74-.7v-8.76h-1.8v-.48l2.86-1.44h.94v3.89ZM642.54 200.08a9.28 9.28 0 0 1-4.56 1.18h-.1c-1.94 0-3.46-.56-4.57-1.68-1.11-1.12-1.67-2.67-1.67-4.66s.54-3.5 1.63-4.56c1.2-1.14 2.72-1.7 4.55-1.7s3.18.58 4.03 1.73c.86 1.15 1.28 2.61 1.28 4.37v.58h-9.21c.1 1.25.52 2.33 1.27 3.24.8.93 1.92 1.39 3.36 1.39s2.8-.47 4.08-1.42l-.1 1.54Zm-1.36-6c-.05-2.62-1.12-3.94-3.22-3.94h-.05c-2.29 0-3.62 1.31-3.98 3.94h7.25ZM644.56 189.92h-.96v-1.08h5.71v1.08h-1.08l-.36.31c-.13.11-.19.27-.19.48v.31l2.47 5.86 1.92-5.11-.31-.74c-.29-.7-.53-1.07-.72-1.1h-.67v-1.08h4.9v1.08h-.79l-.36.31c-.13.18-.19.34-.19.48v.31l2.59 6.41 2.14-6.41h-.02v-.29c0-.14-.02-.3-.05-.46l-.48-.36h-1.08v-1.08h4.82v1.08h-.84c-.48.08-.8.45-.96 1.1l-3.79 11.02-3.53-8.66-3.14 8.66-4.06-11.02c-.27-.74-.59-1.1-.96-1.1ZM674.3 188.8h.12c.82 0 1.66.32 2.54.96.1 0 .15-.06.17-.17l.12-1.22h1.2l.48 4.66c-1.5-1.95-2.99-2.93-4.46-2.93s-2.21.48-2.21 1.44c0 .88.96 1.56 2.88 2.04 1.2.3 2.1.6 2.69.89 1.26.64 1.9 1.62 1.9 2.93v.07c0 .99-.42 1.85-1.26 2.57s-1.98 1.08-3.42 1.08c-.91 0-1.95-.58-3.12-1.75-.06.4-.12.92-.17 1.56h-1.2l-.48-4.9c2.24 2.51 3.88 3.77 4.92 3.77 1.63 0 2.45-.58 2.45-1.75 0-1.02-.98-1.83-2.93-2.42-.9-.26-1.65-.52-2.26-.8-.61-.28-1.09-.66-1.45-1.15-.36-.49-.54-1.01-.54-1.56s.17-1.06.5-1.52c.85-1.18 2.02-1.78 3.53-1.78ZM684.6 199.09c.11.48.4.72.87.72h1.01v1.08h-5.88v-1.08l1.27-.02c.32-.06.57-.3.74-.7v-8.76h-1.8v-.48l2.86-1.44h.94v10.68Zm-2.08-13.26c-.31-.31-.47-.68-.47-1.12s.16-.8.47-1.12c.31-.31.68-.47 1.12-.47s.8.16 1.12.47c.31.31.47.68.47 1.12s-.16.8-.47 1.12c-.31.31-.68.47-1.12.47s-.8-.16-1.12-.47ZM692.35 201.11c-2.32 0-3.48-1.02-3.48-3.05v-7.34h-2.18v-1.15h.91c1.18-.06 1.86-1.06 2.02-2.98l1.3-1.49v4.46h2.83v1.15h-2.83v6.67c0 1.65.44 2.47 1.32 2.47 1.07 0 1.9-.28 2.47-.84v.84c-.62.83-1.41 1.25-2.35 1.25ZM706.24 200.08a9.28 9.28 0 0 1-4.56 1.18h-.1c-1.94 0-3.46-.56-4.57-1.68-1.11-1.12-1.67-2.67-1.67-4.66s.54-3.5 1.63-4.56c1.2-1.14 2.71-1.7 4.55-1.7s3.18.58 4.03 1.73c.86 1.15 1.28 2.61 1.28 4.37v.58h-9.22c.1 1.25.52 2.33 1.27 3.24.8.93 1.92 1.39 3.36 1.39s2.8-.47 4.08-1.42l-.1 1.54Zm-1.37-6c-.05-2.62-1.12-3.94-3.22-3.94h-.05c-2.29 0-3.62 1.31-3.98 3.94h7.25ZM470.65 228.49c-.42-.42-.62-.91-.62-1.49s.21-1.07.62-1.49c.42-.42.91-.62 1.49-.62s1.07.21 1.49.62.62.91.62 1.49-.21 1.07-.62 1.49-.91.62-1.49.62-1.07-.21-1.49-.62ZM489.4 236.12c-1.36-.83-2.46-1.94-3.29-3.31s-1.25-2.9-1.25-4.56.42-3.2 1.25-4.6c.83-1.4 1.93-2.52 3.29-3.37 1.36-.85 2.86-1.27 4.51-1.27s3.15.4 4.5 1.2c1.35.8 2.45 1.9 3.29 3.3.84 1.4 1.26 2.97 1.26 4.7s-.42 3.29-1.26 4.67a9.562 9.562 0 0 1-3.29 3.28c-1.35.81-2.85 1.21-4.5 1.21s-3.15-.42-4.51-1.25Zm4.65-15.84h-.79c-1.36 0-2.62.78-3.79 2.35s-1.75 3.47-1.75 5.71.62 4.09 1.87 5.54c1.25 1.46 2.75 2.18 4.5 2.18s3.19-.74 4.32-2.22c1.13-1.48 1.69-3.39 1.69-5.72s-.62-4.23-1.86-5.68c-1.24-1.45-2.64-2.17-4.19-2.17ZM508.02 226.16c.88-1.07 2.02-1.62 3.43-1.63h.07c1.66 0 3.01.6 4.04 1.79 1.03 1.19 1.55 2.75 1.55 4.68s-.52 3.45-1.57 4.57-2.39 1.68-4.02 1.68h-.07c-1.39-.02-2.54-.54-3.46-1.58v3.38c.11.48.4.72.86.72H510v1.08h-6.02v-1.08l1.27-.02c.32-.06.57-.3.74-.7v-12.91h-1.8v-.48l2.86-1.44h.96v1.94Zm5.66 1.25c-.58-.88-1.38-1.32-2.42-1.32-1.9 0-2.97 1.42-3.19 4.27v1.3c.14 2.66 1.21 3.99 3.19 4.01.96 0 1.74-.42 2.35-1.25.61-.83.93-2 .96-3.5-.02-1.46-.31-2.62-.89-3.5ZM529.51 236.08a9.28 9.28 0 0 1-4.56 1.18h-.1c-1.94 0-3.46-.56-4.57-1.68-1.11-1.12-1.67-2.67-1.67-4.66s.54-3.5 1.63-4.56c1.2-1.14 2.72-1.7 4.55-1.7s3.18.58 4.03 1.73c.86 1.15 1.28 2.61 1.28 4.37v.58h-9.22c.1 1.25.52 2.33 1.27 3.24.8.93 1.92 1.39 3.36 1.39s2.8-.47 4.08-1.42l-.1 1.54Zm-1.37-6c-.05-2.62-1.12-3.94-3.22-3.94h-.05c-2.29 0-3.62 1.31-3.98 3.94h7.25ZM534.93 228.3c.56-2.45 1.83-3.67 3.82-3.67 2.83.02 4.25 1.38 4.25 4.1v6.36c.11.48.4.72.86.72h.91v1.08h-5.78v-1.08l1.03-.02c.32-.06.57-.3.74-.7v-5.45c0-2.46-.67-3.7-2.02-3.7-2.54 0-3.82 2.53-3.82 7.58v1.56c.11.48.4.72.86.72h.91v1.08h-5.54v-1.08l1.03-.02c.32-.06.57-.3.74-.7v-8.76h-1.8v-.48l2.86-1.44h.94v3.89ZM550.03 235.09c.11.48.4.72.86.72h1.01v1.08h-5.88v-1.08l1.27-.02c.32-.06.57-.3.74-.7v-8.76h-1.8v-.48l2.86-1.44h.94v10.68Zm-2.08-13.26c-.31-.31-.47-.68-.47-1.12s.16-.8.47-1.12c.31-.31.68-.47 1.12-.47s.8.16 1.12.47c.31.31.47.68.47 1.12s-.16.8-.47 1.12c-.31.31-.68.47-1.12.47s-.8-.16-1.12-.47ZM556.91 228.3c.56-2.45 1.83-3.67 3.82-3.67 2.83.02 4.25 1.38 4.25 4.1v6.36c.11.48.4.72.86.72h.91v1.08h-5.78v-1.08l1.03-.02c.32-.06.57-.3.74-.7v-5.45c0-2.46-.67-3.7-2.02-3.7-2.54 0-3.82 2.53-3.82 7.58v1.56c.11.48.4.72.86.72h.91v1.08h-5.54v-1.08l1.03-.02c.32-.06.57-.3.74-.7v-8.76h-1.8v-.48l2.86-1.44h.94v3.89ZM569.94 232.28c-1.33-.94-1.99-2.13-1.99-3.55 0-1.17.53-2.17 1.58-3.01 1.06-.84 2.16-1.26 3.32-1.26s2.05.14 2.68.41h3.86v1.03h-2.4c.78.8 1.18 1.77 1.18 2.9s-.46 2.12-1.37 2.96-2.16 1.26-3.74 1.26c-.96 0-1.71-.1-2.26-.31-.56.24-.84.72-.84 1.44 0 .21.09.42.26.62.25.26 1.47.38 3.65.38l2.18-.02c1.52 0 2.61.53 3.26 1.58.26.4.38.84.38 1.32 0 2.24-1.14 3.53-3.43 3.86-.75.11-1.86.17-3.31.17s-2.54-.13-3.26-.38c-.96-.32-1.57-1.05-1.82-2.18-.03-.14-.05-.33-.05-.56s.13-.59.4-1.07c.26-.48.71-.89 1.33-1.22-.82-.38-1.22-.98-1.22-1.78 0-1.34.54-2.21 1.61-2.59Zm5.4 4.76-3.41.17c-.56 0-1.03-.03-1.42-.1-.54.21-.82.89-.82 2.04 0 .22.23.58.7 1.08.46.5 1.7.74 3.7.74 1.02 0 1.76-.07 2.21-.22 1.2-.43 1.8-1.06 1.8-1.9s-.39-1.34-1.18-1.54c-.5-.19-1.02-.29-1.58-.29Zm-.04-10.58c-.49-.63-1.16-.95-2.03-.95s-1.62.32-2.26.95c-.64.63-.96 1.39-.96 2.28s.32 1.65.96 2.28c.64.63 1.39.95 2.26.95s1.54-.32 2.03-.95.73-1.39.73-2.28-.24-1.65-.73-2.28ZM595.88 224.27c1.47 0 2.23 1.14 2.28 3.43l-.53.31c-.27-1.25-.82-1.87-1.63-1.87-2.46 0-3.7 1.54-3.7 4.61v4.34c.11.48.4.72.86.72h1.15v1.08h-6.02v-1.08l1.27-.02c.32-.06.57-.3.74-.7v-8.78h-1.8v-.48l2.86-1.44h.94v3.89c.42-2.67 1.61-4.01 3.58-4.01ZM603.08 235.09c.11.48.4.72.86.72h1.01v1.08h-5.88v-1.08l1.27-.02c.32-.06.57-.3.74-.7v-8.76h-1.8v-.48l2.86-1.44h.94v10.68ZM601 221.83c-.31-.31-.47-.68-.47-1.12s.16-.8.47-1.12c.31-.31.68-.47 1.12-.47s.8.16 1.12.47c.31.31.47.68.47 1.12s-.16.8-.47 1.12c-.31.31-.68.47-1.12.47s-.8-.16-1.12-.47ZM610.82 237.11c-2.32 0-3.48-1.02-3.48-3.05v-7.34h-2.18v-1.15h.91c1.18-.06 1.86-1.06 2.02-2.98l1.3-1.49v4.46h2.83v1.15h-2.83v6.67c0 1.65.44 2.47 1.32 2.47 1.07 0 1.9-.28 2.47-.84v.84c-.62.83-1.41 1.25-2.35 1.25ZM621.07 224.56h3.82v10.75c.1.11.22.17.36.17.1 0 .39-.31.89-.94v1.08c-.26 1.06-.78 1.58-1.56 1.58s-1.35-.57-1.7-1.7v-1.27c-.38 2.02-1.62 3.02-3.7 3.02-2.67-.02-4.01-1.5-4.01-4.44v-7.18h-1.8v-1.08h3.79v7.25c.03 2.72.77 4.08 2.21 4.08 2.34 0 3.5-1.87 3.5-5.62v-4.63h-1.8v-1.08ZM632.56 225.25h-.05c-1.33 0-2.79.69-4.39 2.06l.07-1.18c1.76-1.23 3.15-1.85 4.18-1.85h.53c1.1 0 1.87.11 2.3.34 1.14.54 1.7 1.37 1.7 2.47v8.21c.1.11.42.17.98.17.03 0 .33-.31.89-.94v1.08c-.26 1.04-1.02 1.56-2.3 1.56-.77 0-1.33-.66-1.68-1.99-.94 1.33-2.03 1.99-3.26 1.99s-2.13-.16-2.69-.48c-1.04-.61-1.56-1.41-1.56-2.4 0-2.43 1.64-4.12 4.92-5.06.56-.16 1.42-.31 2.59-.46l.02-.58v-.12c0-1.15-.14-1.87-.43-2.16-.48-.45-1.09-.67-1.82-.67Zm2.23 4.47c-3.44.54-5.16 1.89-5.16 4.03 0 1.34.67 2.02 2.02 2.02 1.74 0 2.79-.9 3.14-2.69v-3.36ZM643.9 217.45v17.64c.11.48.32.72.62.72h1.27v1.08h-5.83v-1.08l1.39-.02c.05-.06.22-.3.5-.7v-15.72h-1.8v-.48l2.86-1.44h.98ZM467.02 276.4h-.96c-1.28-.66-2.49-1.74-3.62-3.26-1.58-2.08-2.38-4.48-2.38-7.2 0-2 .38-3.74 1.15-5.23s1.6-2.64 2.5-3.46c.9-.82 1.57-1.35 2.02-1.61l.34-.19h.96c-.45.29-.98.78-1.58 1.48-.61.7-1.12 1.41-1.54 2.15-.42.74-.8 1.72-1.14 2.95-.34 1.23-.52 2.44-.52 3.62 0 2.18.31 4.02.92 5.52.62 1.5 1.28 2.67 2 3.5.72.83 1.25 1.35 1.58 1.56l.26.17Z"/><path d="M471.16 260.8h.12c.82 0 1.66.32 2.54.96.1 0 .15-.06.17-.17l.12-1.22h1.2l.48 4.66c-1.5-1.95-2.99-2.93-4.46-2.93s-2.21.48-2.21 1.44c0 .88.96 1.56 2.88 2.04 1.2.3 2.1.6 2.69.89 1.26.64 1.9 1.62 1.9 2.93v.07c0 .99-.42 1.85-1.26 2.57-.84.72-1.98 1.08-3.42 1.08-.91 0-1.95-.58-3.12-1.75-.06.4-.12.92-.17 1.56h-1.2l-.48-4.9c2.24 2.51 3.88 3.77 4.92 3.77 1.63 0 2.45-.58 2.45-1.75 0-1.02-.98-1.83-2.93-2.42-.9-.26-1.65-.52-2.26-.8-.61-.28-1.09-.66-1.45-1.15-.36-.49-.54-1.01-.54-1.56s.17-1.06.5-1.52c.85-1.18 2.02-1.78 3.53-1.78ZM481.22 262.16c.88-1.07 2.02-1.62 3.43-1.63h.07c1.66 0 3.01.6 4.04 1.79 1.03 1.19 1.55 2.75 1.55 4.68s-.52 3.45-1.57 4.57-2.39 1.68-4.02 1.68h-.07c-1.39-.02-2.54-.54-3.46-1.58v3.38c.11.48.4.72.86.72h1.15v1.08h-6.02v-1.08l1.27-.02c.32-.06.57-.3.74-.7v-12.91h-1.8v-.48l2.86-1.44h.96v1.94Zm5.67 1.25c-.58-.88-1.38-1.32-2.42-1.32-1.9 0-2.97 1.42-3.19 4.27v1.3c.14 2.66 1.21 3.99 3.19 4.01.96 0 1.74-.42 2.35-1.25.61-.83.93-2 .96-3.5-.02-1.46-.31-2.62-.89-3.5ZM495.14 271.09c.11.48.4.72.86.72h1.01v1.08h-5.88v-1.08l1.27-.02c.32-.06.57-.3.74-.7v-8.76h-1.8v-.48l2.86-1.44h.94v10.68Zm-2.08-13.26c-.31-.31-.47-.68-.47-1.12s.16-.8.47-1.12c.31-.31.68-.47 1.12-.47s.8.16 1.12.47c.31.31.47.68.47 1.12s-.16.8-.47 1.12c-.31.31-.68.47-1.12.47s-.8-.16-1.12-.47ZM505.74 260.27c1.47 0 2.23 1.14 2.28 3.43l-.53.31c-.27-1.25-.82-1.87-1.63-1.87-2.46 0-3.7 1.54-3.7 4.61v4.34c.11.48.4.72.86.72h1.15v1.08h-6.02v-1.08l1.27-.02c.32-.06.57-.3.74-.7v-8.78h-1.8v-.48l2.86-1.44h.94v3.89c.42-2.67 1.61-4.01 3.58-4.01ZM512.93 271.09c.11.48.4.72.86.72h1.01v1.08h-5.88v-1.08l1.27-.02c.32-.06.57-.3.74-.7v-8.76h-1.8v-.48l2.86-1.44h.94v10.68Zm-2.08-13.26c-.31-.31-.47-.68-.47-1.12s.16-.8.47-1.12c.31-.31.68-.47 1.12-.47s.8.16 1.12.47c.31.31.47.68.47 1.12s-.16.8-.47 1.12c-.31.31-.68.47-1.12.47s-.8-.16-1.12-.47ZM520.67 273.11c-2.32 0-3.48-1.02-3.48-3.05v-7.34h-2.18v-1.15h.91c1.18-.06 1.86-1.06 2.02-2.98l1.3-1.49v4.46h2.83v1.15h-2.83v6.67c0 1.65.44 2.47 1.32 2.47 1.07 0 1.9-.28 2.47-.84v.84c-.62.83-1.41 1.25-2.35 1.25ZM535.17 271.09c.11.48.4.72.86.72h1.01v1.08h-5.88v-1.08l1.27-.02c.32-.06.57-.3.74-.7v-8.76h-1.8v-.48l2.86-1.44h.94v10.68Zm-2.08-13.26c-.31-.31-.47-.68-.47-1.12s.16-.8.47-1.12c.31-.31.68-.47 1.12-.47s.8.16 1.12.47c.31.31.47.68.47 1.12s-.16.8-.47 1.12c-.31.31-.68.47-1.12.47s-.8-.16-1.12-.47ZM542.06 264.3c.56-2.45 1.83-3.67 3.82-3.67 2.83.02 4.25 1.38 4.25 4.1v6.36c.11.48.4.72.86.72h.91v1.08h-5.78v-1.08l1.03-.02c.32-.06.57-.3.74-.7v-5.45c0-2.46-.67-3.7-2.02-3.7-2.54 0-3.82 2.53-3.82 7.58v1.56c.11.48.4.72.86.72h.91v1.08h-5.54v-1.08l1.03-.02c.32-.06.57-.3.74-.7v-8.76h-1.8v-.48l2.86-1.44h.94v3.89ZM557.3 260.8h.12c.82 0 1.66.32 2.54.96.1 0 .15-.06.17-.17l.12-1.22h1.2l.48 4.66c-1.5-1.95-2.99-2.93-4.46-2.93s-2.21.48-2.21 1.44c0 .88.96 1.56 2.88 2.04 1.2.3 2.1.6 2.69.89 1.26.64 1.9 1.62 1.9 2.93v.07c0 .99-.42 1.85-1.26 2.57-.84.72-1.98 1.08-3.42 1.08-.91 0-1.95-.58-3.12-1.75-.06.4-.12.92-.17 1.56h-1.2l-.48-4.9c2.24 2.51 3.88 3.77 4.92 3.77 1.63 0 2.45-.58 2.45-1.75 0-1.02-.98-1.83-2.93-2.42-.9-.26-1.65-.52-2.26-.8-.61-.28-1.09-.66-1.45-1.15-.36-.49-.54-1.01-.54-1.56s.17-1.06.5-1.52c.85-1.18 2.02-1.78 3.53-1.78ZM569.05 273.11c-2.32 0-3.48-1.02-3.48-3.05v-7.34h-2.18v-1.15h.91c1.18-.06 1.86-1.06 2.02-2.98l1.3-1.49v4.46h2.83v1.15h-2.83v6.67c0 1.65.44 2.47 1.32 2.47 1.07 0 1.9-.28 2.47-.84v.84c-.62.83-1.41 1.25-2.35 1.25ZM577.77 261.25h-.05c-1.33 0-2.79.69-4.39 2.06l.07-1.18c1.76-1.23 3.15-1.85 4.18-1.85h.53c1.1 0 1.87.11 2.3.34 1.14.54 1.7 1.37 1.7 2.47v8.21c.1.11.42.17.98.17.03 0 .33-.31.89-.94v1.08c-.26 1.04-1.02 1.56-2.3 1.56-.77 0-1.33-.66-1.68-1.99-.94 1.33-2.03 1.99-3.26 1.99s-2.13-.16-2.69-.48c-1.04-.61-1.56-1.41-1.56-2.4 0-2.43 1.64-4.12 4.92-5.06.56-.16 1.42-.31 2.59-.46l.02-.58v-.12c0-1.15-.14-1.87-.43-2.16-.48-.45-1.09-.67-1.82-.67Zm2.23 4.47c-3.44.54-5.16 1.89-5.16 4.03 0 1.34.67 2.02 2.02 2.02 1.74 0 2.79-.9 3.14-2.69v-3.36ZM589.11 253.45v17.64c.11.48.32.72.62.72H591v1.08h-5.83v-1.08l1.39-.02c.05-.06.22-.3.5-.7v-15.72h-1.8v-.48l2.86-1.44h.98ZM596.42 253.45v17.64c.11.48.32.72.62.72h1.27v1.08h-5.83v-1.08l1.39-.02c.05-.06.22-.3.5-.7v-15.72h-1.8v-.48l2.86-1.44h.98ZM604.82 261.25h-.05c-1.33 0-2.79.69-4.39 2.06l.07-1.18c1.76-1.23 3.15-1.85 4.18-1.85h.53c1.1 0 1.87.11 2.3.34 1.14.54 1.7 1.37 1.7 2.47v8.21c.1.11.42.17.98.17.03 0 .33-.31.89-.94v1.08c-.26 1.04-1.02 1.56-2.3 1.56-.77 0-1.33-.66-1.68-1.99-.94 1.33-2.03 1.99-3.26 1.99s-2.13-.16-2.69-.48c-1.04-.61-1.56-1.41-1.56-2.4 0-2.43 1.64-4.12 4.92-5.06.56-.16 1.42-.31 2.59-.46l.02-.58v-.12c0-1.15-.14-1.87-.43-2.16-.48-.45-1.09-.67-1.82-.67Zm2.23 4.47c-3.44.54-5.16 1.89-5.16 4.03 0 1.34.67 2.02 2.02 2.02 1.74 0 2.79-.9 3.14-2.69v-3.36ZM616.74 273.11c-2.32 0-3.48-1.02-3.48-3.05v-7.34h-2.18v-1.15h.91c1.18-.06 1.86-1.06 2.02-2.98l1.3-1.49v4.46h2.83v1.15h-2.83v6.67c0 1.65.44 2.47 1.32 2.47 1.07 0 1.9-.28 2.47-.84v.84c-.62.83-1.41 1.25-2.35 1.25ZM624.2 271.09c.11.48.4.72.87.72h1.01v1.08h-5.88v-1.08l1.27-.02c.32-.06.57-.3.74-.7v-8.76h-1.8v-.48l2.86-1.44h.94v10.68Zm-2.07-13.26c-.31-.31-.47-.68-.47-1.12s.16-.8.47-1.12c.31-.31.68-.47 1.12-.47s.8.16 1.12.47c.31.31.47.68.47 1.12s-.16.8-.47 1.12c-.31.31-.68.47-1.12.47s-.8-.16-1.12-.47ZM632.6 273.35c-1.62 0-3-.62-4.12-1.87s-1.68-2.74-1.68-4.49.56-3.26 1.68-4.54c1.12-1.28 2.49-1.92 4.12-1.92s3.02.64 4.2 1.92c1.18 1.28 1.76 2.79 1.76 4.54s-.59 3.24-1.76 4.49c-1.18 1.25-2.58 1.87-4.2 1.87Zm3.47-6.37c0-1.75-.33-3.08-.98-3.97-.66-.9-1.52-1.34-2.58-1.34s-1.89.44-2.47 1.31c-.58.87-.88 2.2-.88 4s.33 3.12.98 3.98c.66.86 1.52 1.3 2.59 1.3s1.9-.44 2.47-1.32c.58-.88.86-2.2.86-3.95ZM643.2 264.3c.56-2.45 1.83-3.67 3.82-3.67 2.83.02 4.25 1.38 4.25 4.1v6.36c.11.48.4.72.86.72h.91v1.08h-5.78v-1.08l1.03-.02c.32-.06.57-.3.74-.7v-5.45c0-2.46-.67-3.7-2.02-3.7-2.54 0-3.82 2.53-3.82 7.58v1.56c.11.48.4.72.86.72h.91v1.08h-5.54v-1.08l1.03-.02c.32-.06.57-.3.74-.7v-8.76h-1.8v-.48l2.86-1.44h.94v3.89Z"/><path d="m652.98 276.4.26-.17c.34-.21.86-.73 1.58-1.56.72-.83 1.39-2 2-3.5.62-1.5.92-3.34.92-5.52 0-1.18-.17-2.39-.52-3.62s-.72-2.22-1.14-2.95c-.42-.74-.93-1.45-1.54-2.15s-1.14-1.19-1.58-1.48h.96l.34.19c.45.26 1.12.79 2.02 1.61.9.82 1.73 1.97 2.5 3.46s1.15 3.23 1.15 5.23c0 2.72-.79 5.12-2.38 7.2-1.14 1.52-2.34 2.61-3.62 3.26h-.96Z"/><path class="cls-2" d="M807.27 156.68v-22.11h4.02l4.02 11.19c.26.72.51 1.46.75 2.21s.48 1.5.72 2.24h.15c.26-.74.5-1.49.74-2.24.23-.75.46-1.49.71-2.21l3.96-11.19h4.05v22.11h-3.24v-10.92c0-.66.03-1.39.08-2.19s.11-1.61.18-2.43c.07-.82.14-1.56.22-2.22h-.15l-1.77 5.1-3.84 10.53h-2.16l-3.87-10.53-1.77-5.1h-.12c.08.66.15 1.4.22 2.22s.13 1.63.18 2.43c.05.8.08 1.53.08 2.19v10.92h-3.15ZM838.21 157.1c-1.36 0-2.64-.34-3.83-1.04-1.19-.69-2.15-1.68-2.88-2.97-.73-1.29-1.1-2.84-1.1-4.67s.37-3.41 1.1-4.69c.73-1.29 1.69-2.28 2.88-2.96a7.576 7.576 0 0 1 3.83-1.02c1 0 1.97.19 2.91.58s1.77.96 2.49 1.7 1.29 1.64 1.71 2.71.63 2.29.63 3.67c0 1.82-.37 3.38-1.09 4.67-.73 1.29-1.68 2.28-2.85 2.97s-2.44 1.04-3.79 1.04Zm0-2.88c.86 0 1.6-.24 2.23-.72.63-.48 1.12-1.15 1.46-2.02s.51-1.88.51-3.04-.17-2.17-.51-3.04-.83-1.55-1.46-2.04-1.38-.73-2.23-.73-1.64.24-2.27.73-1.12 1.17-1.46 2.04-.51 1.89-.51 3.04.17 2.17.51 3.04.83 1.54 1.46 2.02 1.38.72 2.27.72ZM849.69 156.68v-16.53h2.82l.3 2.31h.06c.76-.74 1.58-1.38 2.46-1.91s1.88-.79 3-.79c1.76 0 3.04.57 3.86 1.69.81 1.13 1.21 2.75 1.21 4.85v10.38h-3.45v-9.96c0-1.42-.22-2.43-.66-3.04-.44-.61-1.15-.92-2.13-.92-.76 0-1.44.18-2.02.55-.59.37-1.26.93-2 1.67v11.7h-3.45ZM872.9 157.1c-1.76 0-3.05-.57-3.87-1.71-.82-1.14-1.23-2.75-1.23-4.83v-10.41h3.48v9.99c0 1.4.22 2.41.66 3.03.44.62 1.14.93 2.1.93.76 0 1.44-.19 2.04-.58.6-.39 1.24-1.01 1.92-1.88v-11.49h3.48v16.53h-2.85l-.27-2.49h-.09c-.76.86-1.56 1.56-2.4 2.1-.84.54-1.83.81-2.97.81ZM886.16 156.68v-16.53h2.82l.3 2.34h.06c.72-.76 1.49-1.4 2.33-1.93.83-.53 1.76-.79 2.8-.79 1.22 0 2.19.26 2.91.79.72.53 1.26 1.27 1.62 2.24.82-.88 1.67-1.61 2.53-2.18.87-.57 1.82-.85 2.83-.85 1.72 0 3 .57 3.83 1.69.83 1.13 1.25 2.75 1.25 4.85v10.38h-3.48v-9.96c0-1.42-.22-2.43-.66-3.04-.44-.61-1.13-.92-2.07-.92-.56 0-1.15.18-1.75.54-.61.36-1.27.92-1.96 1.68v11.7h-3.45v-9.96c0-1.42-.22-2.43-.66-3.04-.44-.61-1.14-.92-2.1-.92-.54 0-1.12.18-1.74.54-.62.36-1.27.92-1.95 1.68v11.7h-3.45ZM921.13 157.1c-1.5 0-2.86-.34-4.08-1.04s-2.19-1.68-2.91-2.97c-.72-1.29-1.08-2.84-1.08-4.67 0-1.34.21-2.54.63-3.62.42-1.07.99-1.98 1.71-2.73s1.53-1.33 2.43-1.72c.9-.4 1.82-.6 2.76-.6 1.46 0 2.69.33 3.69.98 1 .65 1.76 1.56 2.28 2.73.52 1.17.78 2.53.78 4.09 0 .34-.01.67-.04.97a5.9 5.9 0 0 1-.13.79h-10.71c.1 1.04.38 1.94.82 2.69.45.75 1.04 1.33 1.77 1.74.73.41 1.56.62 2.5.62.74 0 1.43-.11 2.07-.33.64-.22 1.26-.52 1.86-.9l1.2 2.19c-.76.5-1.6.92-2.54 1.26-.93.34-1.93.51-3.01.51Zm-4.71-10.17h7.92c0-1.4-.32-2.49-.95-3.27-.63-.78-1.54-1.17-2.75-1.17-.68 0-1.32.17-1.92.51-.6.34-1.1.84-1.51 1.5-.41.66-.67 1.47-.79 2.43ZM931.02 156.68v-16.53h2.82l.3 2.31h.06c.76-.74 1.58-1.38 2.46-1.91.88-.53 1.88-.79 3-.79 1.76 0 3.04.57 3.85 1.69.81 1.13 1.21 2.75 1.21 4.85v10.38h-3.45v-9.96c0-1.42-.22-2.43-.66-3.04-.44-.61-1.15-.92-2.13-.92-.76 0-1.44.18-2.03.55s-1.25.93-2 1.67v11.7H931ZM954.81 157.1c-1.24 0-2.22-.25-2.96-.74-.73-.49-1.25-1.17-1.58-2.04-.32-.87-.48-1.88-.48-3.04v-8.34h-2.4v-2.58l2.58-.21.39-4.56h2.88v4.56h4.29v2.79h-4.29v8.37c0 .98.19 1.72.57 2.24.38.51 1 .76 1.86.76.28 0 .58-.04.9-.12.32-.08.6-.17.84-.27l.63 2.55c-.44.14-.94.28-1.49.42-.55.14-1.13.21-1.75.21ZM974.61 157.1c-1.5 0-2.84-.34-4.02-1.04s-2.12-1.68-2.82-2.97c-.7-1.29-1.05-2.84-1.05-4.67s.38-3.41 1.14-4.69c.76-1.29 1.76-2.28 3-2.96a8.227 8.227 0 0 1 4.02-1.02c1.06 0 1.98.18 2.76.54.78.36 1.47.81 2.07 1.35l-1.71 2.25c-.44-.4-.9-.71-1.38-.95-.48-.23-1-.34-1.56-.34-.92 0-1.74.24-2.46.73s-1.29 1.17-1.69 2.04c-.41.87-.62 1.89-.62 3.04s.2 2.17.6 3.04.95 1.54 1.65 2.02 1.5.72 2.4.72c.7 0 1.35-.14 1.95-.44.6-.29 1.15-.64 1.65-1.06l1.44 2.31c-.76.68-1.61 1.2-2.55 1.54s-1.88.52-2.82.52ZM989.37 157.1c-1.36 0-2.64-.34-3.83-1.04-1.19-.69-2.15-1.68-2.88-2.97-.73-1.29-1.1-2.84-1.1-4.67s.37-3.41 1.1-4.69c.73-1.29 1.69-2.28 2.88-2.96a7.576 7.576 0 0 1 3.83-1.02c1 0 1.97.19 2.91.58s1.77.96 2.49 1.7 1.29 1.64 1.71 2.71.63 2.29.63 3.67c0 1.82-.37 3.38-1.09 4.67-.73 1.29-1.68 2.28-2.85 2.97s-2.44 1.04-3.79 1.04Zm0-2.88c.86 0 1.6-.24 2.23-.72.63-.48 1.12-1.15 1.46-2.02s.51-1.88.51-3.04-.17-2.17-.51-3.04-.83-1.55-1.46-2.04-1.38-.73-2.23-.73-1.64.24-2.27.73-1.12 1.17-1.46 2.04-.51 1.89-.51 3.04.17 2.17.51 3.04.83 1.54 1.46 2.02 1.38.72 2.27.72ZM1000.84 156.68v-16.53h2.82l.3 2.34h.06c.72-.76 1.49-1.4 2.33-1.93.83-.53 1.76-.79 2.8-.79 1.22 0 2.19.26 2.91.79.72.53 1.26 1.27 1.62 2.24.82-.88 1.67-1.61 2.53-2.18.87-.57 1.82-.85 2.83-.85 1.72 0 3 .57 3.83 1.69.83 1.13 1.25 2.75 1.25 4.85v10.38h-3.48v-9.96c0-1.42-.22-2.43-.66-3.04-.44-.61-1.13-.92-2.07-.92-.56 0-1.15.18-1.75.54-.61.36-1.27.92-1.96 1.68v11.7h-3.45v-9.96c0-1.42-.22-2.43-.66-3.04-.44-.61-1.14-.92-2.1-.92-.54 0-1.12.18-1.74.54-.62.36-1.27.92-1.95 1.68v11.7h-3.45ZM1028.73 163.37v-23.22h2.82l.3 1.83h.06c.74-.6 1.54-1.12 2.4-1.56.86-.44 1.76-.66 2.7-.66 1.38 0 2.56.35 3.54 1.05.98.7 1.72 1.68 2.22 2.93s.75 2.72.75 4.42c0 1.88-.33 3.49-1 4.83-.67 1.34-1.54 2.36-2.62 3.06-1.08.7-2.24 1.05-3.48 1.05-.72 0-1.45-.17-2.19-.5s-1.45-.79-2.13-1.39l.09 2.82v5.34h-3.45Zm7.02-9.18c.8 0 1.51-.23 2.14-.69.63-.46 1.13-1.13 1.5-2.02s.56-1.97.56-3.25c0-1.16-.14-2.15-.41-2.98-.27-.83-.69-1.47-1.25-1.92-.56-.45-1.3-.67-2.22-.67-.64 0-1.28.17-1.91.5s-1.29.83-2 1.51v8.07c.64.54 1.27.92 1.89 1.14.62.22 1.18.33 1.68.33ZM1051.06 157.1c-.94 0-1.78-.2-2.5-.6-.73-.4-1.3-.96-1.73-1.68-.42-.72-.63-1.56-.63-2.52 0-1.78.79-3.15 2.36-4.12 1.57-.97 4.08-1.64 7.51-2.03-.02-.64-.12-1.23-.3-1.77s-.5-.97-.95-1.3c-.45-.33-1.08-.5-1.9-.5-.86 0-1.69.17-2.49.51-.8.34-1.56.73-2.28 1.17l-1.29-2.34c.58-.36 1.22-.71 1.92-1.04s1.45-.6 2.25-.81c.8-.21 1.63-.32 2.49-.32 1.38 0 2.51.27 3.39.83.88.55 1.54 1.35 1.97 2.38.43 1.04.64 2.3.64 3.78v9.93h-2.82l-.27-1.89h-.12c-.74.64-1.55 1.18-2.43 1.63-.88.45-1.82.67-2.82.67Zm1.05-2.76c.72 0 1.39-.17 2.01-.5s1.27-.81 1.95-1.46v-4.02c-1.62.18-2.91.45-3.87.79s-1.64.76-2.05 1.23-.62 1.02-.62 1.64c0 .82.25 1.41.75 1.77.5.36 1.11.54 1.83.54ZM1064.05 156.68v-16.53h2.82l.3 2.31h.06c.76-.74 1.58-1.38 2.46-1.91s1.88-.79 3-.79c1.76 0 3.04.57 3.86 1.69.81 1.13 1.21 2.75 1.21 4.85v10.38h-3.45v-9.96c0-1.42-.22-2.43-.66-3.04-.44-.61-1.15-.92-2.13-.92-.76 0-1.44.18-2.02.55-.59.37-1.26.93-2 1.67v11.7h-3.45ZM1082.71 163.58c-.44 0-.83-.03-1.16-.09-.33-.06-.65-.14-.95-.24l.66-2.7c.16.04.35.09.57.15.22.06.44.09.66.09.9 0 1.62-.3 2.16-.88.54-.59.96-1.33 1.26-2.21l.36-1.14-6.54-16.41h3.51l3.03 8.52c.26.74.51 1.5.77 2.29.25.79.5 1.58.76 2.35h.15c.2-.76.41-1.54.63-2.34.22-.8.44-1.57.66-2.31l2.67-8.52h3.33l-6.06 17.52c-.42 1.18-.92 2.21-1.49 3.1-.57.89-1.25 1.58-2.05 2.07s-1.78.73-2.94.73Z"/><path d="M857.48 211.81h1.34v1.08h-7.63v-1.08h1.68c.34 0 .5-.08.5-.24 0-.11-.06-.25-.19-.41l-4.9-6.41h-2.14v6.36c0 .46.36.7 1.08.7h1.58v1.08h-7.78v-1.08h1.73c.24 0 .47-.07.68-.2.22-.14.32-.3.32-.49v-13.73c0-.27-.11-.52-.32-.74-.22-.22-.49-.34-.83-.34h-1.58v-1.08h8.71c3.74 0 5.62 1.62 5.62 4.87 0 2.74-1.54 4.26-4.61 4.58l4.94 6.48c.37.43.96.65 1.78.65Zm-11.33-14.54v6.41h3.1c2.37 0 3.55-1.2 3.55-3.6 0-2.26-.74-3.48-2.23-3.67-.5-.06-1.26-.1-2.28-.1s-1.64.09-1.84.28c-.2.18-.3.41-.3.68ZM864.1 211.09c.11.48.4.72.86.72h1.01v1.08h-5.88v-1.08l1.27-.02c.32-.06.57-.3.74-.7v-8.76h-1.8v-.48l2.86-1.44h.94v10.68Zm-2.07-13.26c-.31-.31-.47-.68-.47-1.12s.16-.8.47-1.12c.31-.31.68-.47 1.12-.47s.8.16 1.12.47.47.68.47 1.12-.16.8-.47 1.12-.68.47-1.12.47-.8-.16-1.12-.47ZM871.85 213.11c-2.32 0-3.48-1.02-3.48-3.05v-7.34h-2.18v-1.15h.91c1.18-.06 1.86-1.06 2.02-2.98l1.29-1.49v4.46h2.83v1.15h-2.83v6.67c0 1.65.44 2.47 1.32 2.47 1.07 0 1.9-.28 2.47-.84v.84c-.62.83-1.41 1.25-2.35 1.25ZM882.1 200.56h3.82v10.75c.1.11.22.17.36.17.1 0 .39-.31.89-.94v1.08c-.26 1.06-.78 1.58-1.56 1.58s-1.35-.57-1.7-1.7v-1.27c-.38 2.02-1.62 3.02-3.7 3.02-2.67-.02-4.01-1.5-4.01-4.44v-7.18h-1.8v-1.08h3.79v7.25c.03 2.72.77 4.08 2.21 4.08 2.34 0 3.5-1.87 3.5-5.62v-4.63h-1.8v-1.08ZM893.58 201.25h-.05c-1.33 0-2.79.69-4.39 2.06l.07-1.18c1.76-1.23 3.15-1.85 4.18-1.85h.53c1.1 0 1.87.11 2.3.34 1.14.54 1.71 1.37 1.71 2.47v8.21c.1.11.42.17.98.17.03 0 .33-.31.89-.94v1.08c-.26 1.04-1.02 1.56-2.3 1.56-.77 0-1.33-.66-1.68-1.99-.94 1.33-2.03 1.99-3.26 1.99s-2.13-.16-2.69-.48c-1.04-.61-1.56-1.41-1.56-2.4 0-2.43 1.64-4.12 4.92-5.06.56-.16 1.42-.31 2.59-.46l.03-.58v-.12c0-1.15-.14-1.87-.43-2.16-.48-.45-1.09-.67-1.82-.67Zm2.24 4.47c-3.44.54-5.16 1.89-5.16 4.03 0 1.34.67 2.02 2.02 2.02 1.74 0 2.79-.9 3.14-2.69v-3.36ZM904.93 193.45v17.64c.11.48.32.72.62.72h1.27v1.08h-5.83v-1.08l1.39-.02c.05-.06.22-.3.5-.7v-15.72h-1.8v-.48l2.86-1.44h.98ZM920.77 201.25h-.05c-1.33 0-2.79.69-4.39 2.06l.07-1.18c1.76-1.23 3.15-1.85 4.18-1.85h.53c1.1 0 1.87.11 2.3.34 1.14.54 1.71 1.37 1.71 2.47v8.21c.1.11.42.17.98.17.03 0 .33-.31.89-.94v1.08c-.26 1.04-1.02 1.56-2.3 1.56-.77 0-1.33-.66-1.68-1.99-.94 1.33-2.03 1.99-3.26 1.99s-2.13-.16-2.69-.48c-1.04-.61-1.56-1.41-1.56-2.4 0-2.43 1.64-4.12 4.92-5.06.56-.16 1.42-.31 2.59-.46l.03-.58v-.12c0-1.15-.14-1.87-.43-2.16-.48-.45-1.09-.67-1.82-.67Zm2.23 4.47c-3.44.54-5.16 1.89-5.16 4.03 0 1.34.67 2.02 2.02 2.02 1.74 0 2.79-.9 3.14-2.69v-3.36ZM931.84 204.3c.56-2.45 1.83-3.67 3.82-3.67 2.83.02 4.25 1.38 4.25 4.1v6.36c.11.48.4.72.86.72h.91v1.08h-5.78v-1.08l1.03-.02c.32-.06.57-.3.74-.7v-5.45c0-2.46-.67-3.7-2.02-3.7-2.54 0-3.82 2.53-3.82 7.58v1.56c.11.48.4.72.86.72h.91v1.08h-5.54v-1.08l1.03-.02c.32-.06.57-.3.74-.7v-8.76h-1.8v-.48l2.86-1.44h.94v3.89ZM944.18 211.46c-1.03-1.19-1.55-2.75-1.55-4.68s.52-3.44 1.55-4.55c1.03-1.1 2.33-1.66 3.9-1.66s2.82.59 3.77 1.78v-6.98h-1.8v-.48l2.86-1.44h.96v17.86c.1.11.22.17.36.17.1 0 .39-.31.89-.94v1.08c-.26 1.06-.78 1.58-1.56 1.58s-1.35-.57-1.7-1.7l.02-.07-.02-.05c-.96 1.25-2.22 1.87-3.78 1.87s-2.86-.6-3.89-1.79Zm1.76-1.09c.61.88 1.46 1.32 2.54 1.32 2 0 3.12-1.42 3.36-4.27v-1.3c-.14-2.66-1.26-3.99-3.36-4.01-1.01 0-1.83.42-2.47 1.25-.64.83-.98 2-1.01 3.5.02 1.46.33 2.62.94 3.5ZM965.29 211.46c-1.03-1.19-1.55-2.75-1.55-4.68s.52-3.44 1.55-4.55c1.03-1.1 2.33-1.66 3.9-1.66s2.82.59 3.77 1.78v-6.98h-1.8v-.48l2.86-1.44h.96v17.86c.1.11.22.17.36.17.1 0 .39-.31.89-.94v1.08c-.26 1.06-.78 1.58-1.56 1.58s-1.35-.57-1.7-1.7l.02-.07-.02-.05c-.96 1.25-2.22 1.87-3.78 1.87s-2.86-.6-3.89-1.79Zm1.77-1.09c.61.88 1.46 1.32 2.54 1.32 2 0 3.12-1.42 3.36-4.27v-1.3c-.14-2.66-1.26-3.99-3.36-4.01-1.01 0-1.83.42-2.47 1.25-.64.83-.98 2-1.01 3.5.02 1.46.33 2.62.94 3.5ZM981.4 211.09c.11.48.4.72.87.72h1.01v1.08h-5.88v-1.08l1.27-.02c.32-.06.57-.3.74-.7v-8.76h-1.8v-.48l2.86-1.44h.94v10.68Zm-2.07-13.26c-.31-.31-.47-.68-.47-1.12s.16-.8.47-1.12c.31-.31.68-.47 1.12-.47s.8.16 1.12.47c.31.31.47.68.47 1.12s-.16.8-.47 1.12c-.31.31-.68.47-1.12.47s-.8-.16-1.12-.47ZM988.65 200.8h.12c.82 0 1.66.32 2.54.96.1 0 .15-.06.17-.17l.12-1.22h1.2l.48 4.66c-1.5-1.95-2.99-2.93-4.46-2.93s-2.21.48-2.21 1.44c0 .88.96 1.56 2.88 2.04 1.2.3 2.1.6 2.69.89 1.26.64 1.9 1.62 1.9 2.93v.07c0 .99-.42 1.85-1.26 2.57s-1.98 1.08-3.42 1.08c-.91 0-1.95-.58-3.12-1.75-.06.4-.12.92-.17 1.56h-1.2l-.48-4.9c2.24 2.51 3.88 3.77 4.92 3.77 1.63 0 2.45-.58 2.45-1.75 0-1.02-.98-1.83-2.93-2.42-.9-.26-1.65-.52-2.26-.8-.61-.28-1.09-.66-1.45-1.15-.36-.49-.54-1.01-.54-1.56s.17-1.06.5-1.52c.85-1.18 2.02-1.78 3.53-1.78ZM998.71 202.16c.88-1.07 2.02-1.62 3.43-1.63h.07c1.66 0 3.01.6 4.04 1.79 1.03 1.19 1.55 2.75 1.55 4.68s-.52 3.45-1.57 4.57-2.39 1.68-4.02 1.68h-.07c-1.39-.02-2.54-.54-3.46-1.58v3.38c.11.48.4.72.86.72h1.15v1.08h-6.02v-1.08l1.27-.02c.32-.06.57-.3.74-.7v-12.91h-1.8v-.48l2.86-1.44h.96v1.94Zm5.66 1.25c-.58-.88-1.38-1.32-2.42-1.32-1.9 0-2.97 1.42-3.19 4.27v1.3c.14 2.66 1.21 3.99 3.19 4.01.96 0 1.74-.42 2.35-1.25.61-.83.93-2 .96-3.5-.02-1.46-.31-2.62-.89-3.5ZM1015.06 213.35c-1.62 0-3-.62-4.12-1.87s-1.68-2.74-1.68-4.49.56-3.26 1.68-4.54c1.12-1.28 2.49-1.92 4.12-1.92s3.02.64 4.2 1.92c1.18 1.28 1.76 2.79 1.76 4.54s-.59 3.24-1.76 4.49-2.58 1.87-4.2 1.87Zm3.46-6.37c0-1.75-.33-3.08-.98-3.97-.66-.9-1.52-1.34-2.58-1.34s-1.89.44-2.47 1.31-.88 2.2-.88 4 .33 3.12.98 3.98 1.52 1.3 2.59 1.3 1.9-.44 2.47-1.32.86-2.2.86-3.95ZM1026.69 200.8h.12c.82 0 1.66.32 2.54.96.1 0 .15-.06.17-.17l.12-1.22h1.2l.48 4.66c-1.5-1.95-2.99-2.93-4.46-2.93s-2.21.48-2.21 1.44c0 .88.96 1.56 2.88 2.04 1.2.3 2.1.6 2.69.89 1.26.64 1.9 1.62 1.9 2.93v.07c0 .99-.42 1.85-1.26 2.57-.84.72-1.98 1.08-3.42 1.08-.91 0-1.95-.58-3.12-1.75-.06.4-.12.92-.17 1.56h-1.2l-.48-4.9c2.24 2.51 3.88 3.77 4.92 3.77 1.63 0 2.45-.58 2.45-1.75 0-1.02-.98-1.83-2.93-2.42-.9-.26-1.65-.52-2.26-.8-.61-.28-1.09-.66-1.45-1.15-.36-.49-.54-1.01-.54-1.56s.17-1.06.5-1.52c.85-1.18 2.02-1.78 3.53-1.78ZM1038.62 201.25h-.05c-1.33 0-2.79.69-4.39 2.06l.07-1.18c1.76-1.23 3.15-1.85 4.18-1.85h.53c1.1 0 1.87.11 2.3.34 1.14.54 1.7 1.37 1.7 2.47v8.21c.1.11.42.17.98.17.03 0 .33-.31.89-.94v1.08c-.26 1.04-1.02 1.56-2.3 1.56-.77 0-1.33-.66-1.68-1.99-.94 1.33-2.03 1.99-3.26 1.99s-2.13-.16-2.69-.48c-1.04-.61-1.56-1.41-1.56-2.4 0-2.43 1.64-4.12 4.92-5.06.56-.16 1.42-.31 2.59-.46l.02-.58v-.12c0-1.15-.14-1.87-.43-2.16-.48-.45-1.09-.67-1.82-.67Zm2.23 4.47c-3.44.54-5.16 1.89-5.16 4.03 0 1.34.67 2.02 2.02 2.02 1.74 0 2.79-.9 3.14-2.69v-3.36ZM1049.96 193.45v17.64c.11.48.32.72.62.72h1.27v1.08h-5.83v-1.08l1.39-.02c.05-.06.22-.3.5-.7v-15.72h-1.8v-.48l2.86-1.44h.98ZM842.92 261.35c-1.62 0-3-.62-4.12-1.87s-1.68-2.74-1.68-4.49.56-3.26 1.68-4.54c1.12-1.28 2.49-1.92 4.12-1.92s3.02.64 4.2 1.92c1.18 1.28 1.76 2.79 1.76 4.54s-.59 3.24-1.76 4.49-2.58 1.87-4.2 1.87Zm3.46-6.37c0-1.75-.33-3.08-.98-3.97-.66-.9-1.52-1.34-2.58-1.34s-1.89.44-2.47 1.31c-.58.87-.88 2.2-.88 4s.33 3.12.98 3.98 1.52 1.3 2.59 1.3 1.9-.44 2.47-1.32c.58-.88.86-2.2.86-3.95ZM859.43 243.56c-.51-.43-1.17-.65-1.97-.65-1.81 0-2.71.79-2.71 2.38v4.37h3.29v1.03h-3.29v8.4c.11.48.48.72 1.1.72h1.49v1.08H850v-1.08l1.63-.02c.45-.06.78-.3.98-.7v-8.4h-3.02v-1.03h3.02v-3.79c0-2.62 1.31-3.94 3.94-3.94 1.1 0 2.06.21 2.88.62v1.01ZM877.5 260.08a9.28 9.28 0 0 1-4.56 1.18h-.1c-1.94 0-3.46-.56-4.57-1.68-1.11-1.12-1.67-2.67-1.67-4.66s.54-3.5 1.63-4.56c1.2-1.14 2.72-1.7 4.55-1.7s3.18.58 4.03 1.73c.86 1.15 1.28 2.61 1.28 4.37v.58h-9.21c.1 1.25.52 2.33 1.27 3.24.8.93 1.92 1.39 3.36 1.39s2.8-.47 4.08-1.42l-.1 1.54Zm-1.37-6c-.05-2.62-1.12-3.94-3.22-3.94h-.05c-2.29 0-3.62 1.31-3.98 3.94h7.25ZM889.45 251.51c.38-1.92 1.46-2.88 3.22-2.88 1.34 0 2.39.27 3.14.8.75.54 1.13 1.48 1.13 2.84v6.82c.11.48.4.72.86.72h.91v1.08h-5.54v-1.08l1.03-.02h.02c.19 0 .43-.23.72-.7v-6.36c0-.93-.2-1.62-.61-2.09-.41-.46-.93-.7-1.57-.7-1.89 0-2.83 1.21-2.83 3.62v5.52c.11.48.4.72.86.72h.91v1.08h-5.54v-1.08l1.03-.02h.02c.19 0 .43-.23.72-.7v-6.22c0-.93-.2-1.65-.59-2.16-.39-.51-.91-.77-1.55-.77-1.92 0-2.88 1.71-2.88 5.14v4.01c.11.48.4.72.86.72h.91v1.08h-5.54v-1.08l1.03-.02c.32-.06.57-.3.74-.7v-8.76h-1.8v-.48l2.86-1.44h.94v3.12c.4-1.92 1.29-2.89 2.69-2.9h.07c2.4 0 3.66.96 3.77 2.88ZM903.02 250.16c.88-1.07 2.02-1.62 3.43-1.63h.07c1.66 0 3.01.6 4.04 1.79 1.03 1.19 1.55 2.75 1.55 4.68s-.52 3.45-1.57 4.57-2.39 1.68-4.02 1.68h-.07c-1.39-.02-2.54-.54-3.46-1.58v3.38c.11.48.4.72.86.72H905v1.08h-6.02v-1.08l1.27-.02c.32-.06.57-.3.74-.7v-12.91h-1.8v-.48l2.86-1.44h.96v1.94Zm5.66 1.25c-.58-.88-1.38-1.32-2.42-1.32-1.9 0-2.97 1.42-3.19 4.27v1.3c.14 2.66 1.21 3.99 3.19 4.01.96 0 1.74-.42 2.35-1.25.61-.83.93-2 .96-3.5-.02-1.46-.31-2.62-.89-3.5ZM918.5 261.11c-2.32 0-3.48-1.02-3.48-3.05v-7.34h-2.18v-1.15h.91c1.18-.06 1.86-1.06 2.02-2.98l1.3-1.49v4.46h2.83v1.15h-2.83v6.67c0 1.65.44 2.47 1.32 2.47 1.07 0 1.9-.28 2.47-.84v.84c-.62.83-1.41 1.25-2.35 1.25ZM925.59 250.6c0 .1 0 .24.02.43l3.55 7.37 3.21-7.37v-.29c0-.14-.02-.3-.05-.47-.03-.17-.19-.28-.48-.32v-.02h-1.08v-1.08h4.82v1.08h-.84s-.17.15-.42.36-.43.46-.54.74c-3.31 7.47-5.13 11.51-5.45 12.12-.82 1.54-2.2 2.3-4.15 2.3h-1.58v-1.49c1.04.1 1.6.17 1.68.22 1.54 0 2.62-.66 3.24-1.97.34-.7.5-1.09.5-1.16s0-.12-.02-.16l-4.99-10.34c-.21-.38-.45-.59-.72-.62h-.96v-1.08h5.83v1.08h-1.01v.02c-.38.02-.58.23-.58.65ZM946.25 256.28c-1.33-.94-1.99-2.13-1.99-3.55 0-1.17.53-2.17 1.58-3.01 1.06-.84 2.16-1.26 3.32-1.26s2.05.14 2.68.41h3.86v1.03h-2.4c.78.8 1.18 1.77 1.18 2.9s-.46 2.12-1.37 2.96-2.16 1.26-3.74 1.26c-.96 0-1.71-.1-2.26-.31-.56.24-.84.72-.84 1.44 0 .21.09.42.26.62.26.26 1.47.38 3.65.38l2.18-.02c1.52 0 2.61.53 3.26 1.58.26.4.38.84.38 1.32 0 2.24-1.14 3.53-3.43 3.86-.75.11-1.86.17-3.31.17s-2.54-.13-3.26-.38c-.96-.32-1.57-1.05-1.82-2.18-.03-.14-.05-.33-.05-.56s.13-.59.4-1.07c.26-.48.71-.89 1.33-1.22-.82-.38-1.22-.98-1.22-1.78 0-1.34.54-2.21 1.61-2.59Zm5.4 4.76-3.41.17c-.56 0-1.03-.03-1.42-.1-.54.21-.82.89-.82 2.04 0 .22.23.58.7 1.08.46.5 1.7.74 3.7.74 1.02 0 1.76-.07 2.21-.22 1.2-.43 1.8-1.06 1.8-1.9s-.39-1.34-1.18-1.54c-.5-.19-1.02-.29-1.58-.29Zm-.03-10.58c-.49-.63-1.16-.95-2.03-.95s-1.62.32-2.26.95c-.64.63-.96 1.39-.96 2.28s.32 1.65.96 2.28 1.39.95 2.26.95 1.54-.32 2.03-.95c.49-.63.73-1.39.73-2.28s-.24-1.65-.73-2.28ZM964.84 248.27c1.47 0 2.23 1.14 2.28 3.43l-.53.31c-.27-1.25-.82-1.87-1.63-1.87-2.46 0-3.7 1.54-3.7 4.61v4.34c.11.48.4.72.87.72h1.15v1.08h-6.02v-1.08l1.27-.02c.32-.06.57-.3.74-.7v-8.78h-1.8v-.48l2.86-1.44h.94v3.89c.42-2.67 1.61-4.01 3.58-4.01ZM973.03 249.25h-.05c-1.33 0-2.79.69-4.39 2.06l.07-1.18c1.76-1.23 3.15-1.85 4.18-1.85h.53c1.1 0 1.87.11 2.3.34 1.13.54 1.7 1.37 1.7 2.47v8.21c.1.11.42.17.98.17.03 0 .33-.31.89-.94v1.08c-.26 1.04-1.03 1.56-2.3 1.56-.77 0-1.33-.66-1.68-1.99-.94 1.33-2.03 1.99-3.26 1.99s-2.13-.16-2.69-.48c-1.04-.61-1.56-1.41-1.56-2.4 0-2.43 1.64-4.12 4.92-5.06.56-.16 1.42-.31 2.59-.46l.02-.58v-.12c0-1.15-.14-1.87-.43-2.16-.48-.45-1.09-.67-1.82-.67Zm2.24 4.47c-3.44.54-5.16 1.89-5.16 4.03 0 1.34.67 2.02 2.02 2.02 1.74 0 2.79-.9 3.14-2.69v-3.36ZM980.21 249.92h-.96v-1.08h5.71v1.08h-1.08v.02c-.34 0-.51.09-.53.28s-.02.35-.02.49v.31l2.78 6.96 2.66-6.96h-.02v-.29c0-.14-.02-.3-.05-.47-.03-.17-.19-.28-.48-.32v-.02h-1.08v-1.08h4.82v1.08h-.84s-.17.15-.42.36-.43.46-.54.74l-4.49 11.02-4.51-11.02c-.29-.69-.61-1.06-.96-1.1ZM1003.3 260.08a9.28 9.28 0 0 1-4.56 1.18h-.1c-1.94 0-3.46-.56-4.57-1.68-1.11-1.12-1.67-2.67-1.67-4.66s.54-3.5 1.63-4.56c1.2-1.14 2.71-1.7 4.55-1.7s3.18.58 4.03 1.73c.86 1.15 1.28 2.61 1.28 4.37v.58h-9.22c.1 1.25.52 2.33 1.27 3.24.8.93 1.92 1.39 3.36 1.39s2.8-.47 4.08-1.42l-.1 1.54Zm-1.36-6c-.05-2.62-1.12-3.94-3.22-3.94h-.05c-2.29 0-3.62 1.31-3.98 3.94h7.25ZM1009.65 248.8h.12c.82 0 1.66.32 2.54.96.1 0 .15-.06.17-.17l.12-1.22h1.2l.48 4.66c-1.5-1.95-2.99-2.93-4.46-2.93s-2.21.48-2.21 1.44c0 .88.96 1.56 2.88 2.04 1.2.3 2.1.6 2.69.89 1.26.64 1.9 1.62 1.9 2.93v.07c0 .99-.42 1.85-1.26 2.57s-1.98 1.08-3.42 1.08c-.91 0-1.95-.58-3.12-1.75-.06.4-.12.92-.17 1.56h-1.2l-.48-4.9c2.24 2.51 3.88 3.77 4.92 3.77 1.63 0 2.45-.58 2.45-1.75 0-1.02-.98-1.83-2.93-2.42-.9-.26-1.65-.52-2.26-.8-.61-.28-1.09-.66-1.45-1.15-.36-.49-.54-1.01-.54-1.56s.17-1.06.5-1.52c.85-1.18 2.02-1.78 3.53-1.78ZM1021.41 261.11c-2.32 0-3.48-1.02-3.48-3.05v-7.34h-2.18v-1.15h.91c1.18-.06 1.86-1.06 2.02-2.98l1.29-1.49v4.46h2.83v1.15h-2.83v6.67c0 1.65.44 2.47 1.32 2.47 1.07 0 1.9-.28 2.47-.84v.84c-.62.83-1.41 1.25-2.35 1.25ZM1030.16 261.35c-1.62 0-3-.62-4.12-1.87s-1.68-2.74-1.68-4.49.56-3.26 1.68-4.54c1.12-1.28 2.49-1.92 4.12-1.92s3.02.64 4.2 1.92c1.18 1.28 1.76 2.79 1.76 4.54s-.59 3.24-1.76 4.49c-1.18 1.25-2.58 1.87-4.2 1.87Zm3.47-6.37c0-1.75-.33-3.08-.98-3.97-.66-.9-1.52-1.34-2.58-1.34s-1.89.44-2.47 1.31-.88 2.2-.88 4 .33 3.12.98 3.98c.66.86 1.52 1.3 2.59 1.3s1.9-.44 2.47-1.32.86-2.2.86-3.95ZM1040.75 252.3c.56-2.45 1.83-3.67 3.82-3.67 2.83.02 4.25 1.38 4.25 4.1v6.36c.11.48.4.72.87.72h.91v1.08h-5.78v-1.08l1.03-.02c.32-.06.57-.3.74-.7v-5.45c0-2.46-.67-3.7-2.02-3.7-2.54 0-3.82 2.53-3.82 7.58v1.56c.11.48.4.72.86.72h.91v1.08h-5.54v-1.08l1.03-.02c.32-.06.57-.3.74-.7v-8.76h-1.8v-.48l2.86-1.44h.94v3.89ZM1062.23 260.08a9.28 9.28 0 0 1-4.56 1.18h-.1c-1.94 0-3.46-.56-4.57-1.68s-1.67-2.67-1.67-4.66.54-3.5 1.63-4.56c1.2-1.14 2.72-1.7 4.55-1.7s3.18.58 4.03 1.73c.86 1.15 1.28 2.61 1.28 4.37v.58h-9.22c.1 1.25.52 2.33 1.27 3.24.8.93 1.92 1.39 3.36 1.39s2.8-.47 4.08-1.42l-.1 1.54Zm-1.36-6c-.05-2.62-1.12-3.94-3.22-3.94h-.05c-2.29 0-3.62 1.31-3.98 3.94h7.25Z"/><path class="cls-1" d="M19.1 38.93c-3.14 0-5.94-.72-8.42-2.16-2.48-1.44-4.43-3.52-5.86-6.24-1.42-2.72-2.14-6.02-2.14-9.89 0-2.88.42-5.46 1.27-7.73.85-2.27 2.02-4.2 3.5-5.78a15.04 15.04 0 0 1 5.23-3.62c2-.83 4.18-1.25 6.55-1.25 2.5 0 4.6.46 6.31 1.39 1.71.93 3.1 1.95 4.15 3.07l-2.98 3.55c-.9-.87-1.92-1.61-3.07-2.23s-2.58-.94-4.27-.94c-2.18 0-4.09.54-5.74 1.63-1.65 1.09-2.93 2.62-3.84 4.61-.91 1.98-1.37 4.37-1.37 7.15s.43 5.19 1.3 7.22c.86 2.03 2.13 3.59 3.79 4.68 1.66 1.09 3.71 1.63 6.14 1.63 1.09 0 2.12-.15 3.1-.46.98-.3 1.77-.73 2.38-1.27v-8.26h-6.96v-4.61h12.05v15.31c-1.18 1.18-2.74 2.18-4.66 2.98-1.92.8-4.08 1.2-6.48 1.2ZM37.19 38.26V11.81h4.51l.48 4.75h.1c.96-1.7 2.1-3.02 3.41-3.96s2.69-1.42 4.13-1.42c.64 0 1.18.05 1.63.14.45.1.88.22 1.3.38l-.96 4.85c-.48-.16-.91-.27-1.3-.34-.38-.06-.85-.1-1.39-.1-1.06 0-2.18.42-3.36 1.27-1.18.85-2.19 2.33-3.02 4.44v16.42H37.2ZM62.81 38.93c-1.5 0-2.84-.32-4.01-.96a7.066 7.066 0 0 1-2.76-2.69c-.67-1.15-1.01-2.5-1.01-4.03 0-2.85 1.26-5.05 3.77-6.6 2.51-1.55 6.52-2.63 12.02-3.24-.03-1.02-.19-1.97-.48-2.83-.29-.86-.79-1.56-1.51-2.09-.72-.53-1.74-.79-3.05-.79-1.38 0-2.7.27-3.98.82-1.28.54-2.5 1.17-3.65 1.87l-2.06-3.74c.93-.58 1.95-1.13 3.07-1.66 1.12-.53 2.32-.96 3.6-1.29 1.28-.34 2.61-.5 3.98-.5 2.21 0 4.02.44 5.42 1.32 1.41.88 2.46 2.15 3.14 3.82.69 1.66 1.03 3.68 1.03 6.05v15.89h-4.51l-.43-3.02h-.19c-1.18 1.03-2.48 1.9-3.89 2.62a9.77 9.77 0 0 1-4.51 1.08Zm1.68-4.42c1.15 0 2.22-.26 3.22-.79.99-.53 2.03-1.3 3.12-2.33v-6.43c-2.59.29-4.66.71-6.19 1.27-1.54.56-2.63 1.22-3.29 1.97-.66.75-.98 1.62-.98 2.62 0 1.31.4 2.26 1.2 2.83.8.58 1.78.86 2.93.86ZM88.52 38.26l-9.26-26.45h5.62l4.51 14.26c.38 1.28.77 2.58 1.15 3.91.38 1.33.77 2.65 1.15 3.96h.19c.42-1.31.82-2.63 1.2-3.96s.75-2.63 1.1-3.91l4.51-14.26h5.38L95 38.26h-6.48ZM118.59 38.93c-2.4 0-4.58-.55-6.53-1.66-1.95-1.1-3.5-2.69-4.66-4.75-1.15-2.06-1.73-4.55-1.73-7.46 0-2.14.34-4.07 1.01-5.78.67-1.71 1.58-3.17 2.74-4.37 1.15-1.2 2.45-2.12 3.89-2.76 1.44-.64 2.91-.96 4.42-.96 2.34 0 4.3.52 5.9 1.56 1.6 1.04 2.82 2.5 3.65 4.37.83 1.87 1.25 4.06 1.25 6.55 0 .54-.02 1.06-.07 1.56s-.12.92-.22 1.27H111.1c.16 1.66.6 3.1 1.32 4.3.72 1.2 1.66 2.13 2.83 2.78 1.17.66 2.5.98 4.01.98 1.18 0 2.29-.18 3.31-.53 1.02-.35 2.02-.83 2.98-1.44l1.92 3.5c-1.22.8-2.57 1.47-4.06 2.02-1.49.54-3.1.82-4.82.82Zm-7.53-16.27h12.67c0-2.24-.5-3.98-1.51-5.23-1.01-1.25-2.47-1.87-4.39-1.87-1.09 0-2.11.27-3.07.82-.96.54-1.77 1.34-2.42 2.4-.66 1.05-1.08 2.35-1.27 3.89ZM145.52 38.26V11.81h4.51l.48 4.75h.1c.96-1.7 2.1-3.02 3.41-3.96s2.69-1.42 4.13-1.42c.64 0 1.18.05 1.63.14.45.1.88.22 1.3.38l-.96 4.85c-.48-.16-.91-.27-1.3-.34-.38-.06-.85-.1-1.39-.1-1.06 0-2.18.42-3.36 1.27-1.18.85-2.19 2.33-3.02 4.44v16.42h-5.52ZM175.36 38.93c-2.4 0-4.58-.55-6.53-1.66-1.95-1.1-3.5-2.69-4.66-4.75-1.15-2.06-1.73-4.55-1.73-7.46 0-2.14.34-4.07 1.01-5.78.67-1.71 1.58-3.17 2.74-4.37 1.15-1.2 2.45-2.12 3.89-2.76 1.44-.64 2.91-.96 4.42-.96 2.34 0 4.3.52 5.9 1.56 1.6 1.04 2.82 2.5 3.65 4.37.83 1.87 1.25 4.06 1.25 6.55 0 .54-.02 1.06-.07 1.56s-.12.92-.22 1.27h-17.14c.16 1.66.6 3.1 1.32 4.3.72 1.2 1.66 2.13 2.83 2.78 1.17.66 2.5.98 4.01.98 1.18 0 2.29-.18 3.31-.53 1.02-.35 2.02-.83 2.98-1.44l1.92 3.5c-1.22.8-2.57 1.47-4.06 2.02-1.49.54-3.1.82-4.82.82Zm-7.54-16.27h12.67c0-2.24-.5-3.98-1.51-5.23-1.01-1.25-2.47-1.87-4.39-1.87-1.09 0-2.11.27-3.07.82-.96.54-1.77 1.34-2.42 2.4-.66 1.05-1.08 2.35-1.27 3.89ZM196.29 38.93c-1.34 0-2.42-.28-3.22-.84-.8-.56-1.38-1.36-1.73-2.4-.35-1.04-.53-2.26-.53-3.67V0h5.52v32.3c0 .74.14 1.26.41 1.56.27.3.57.46.89.46.13 0 .26 0 .38-.02.13-.02.32-.04.58-.07l.67 4.18c-.32.13-.72.25-1.2.36s-1.07.17-1.78.17ZM214.8 38.93c-2.18 0-4.22-.55-6.12-1.66-1.9-1.1-3.44-2.69-4.61-4.75-1.17-2.06-1.75-4.55-1.75-7.46s.58-5.45 1.75-7.51c1.17-2.06 2.7-3.64 4.61-4.73 1.9-1.09 3.94-1.63 6.12-1.63 1.6 0 3.15.31 4.66.94 1.5.62 2.83 1.53 3.98 2.71s2.06 2.63 2.74 4.34c.67 1.71 1.01 3.67 1.01 5.88 0 2.91-.58 5.4-1.75 7.46-1.17 2.06-2.69 3.65-4.56 4.75-1.87 1.1-3.9 1.66-6.07 1.66Zm0-4.61c1.38 0 2.57-.38 3.58-1.15 1.01-.77 1.78-1.85 2.33-3.24.54-1.39.82-3.02.82-4.87s-.27-3.48-.82-4.87c-.54-1.39-1.32-2.48-2.33-3.26-1.01-.78-2.2-1.18-3.58-1.18s-2.62.39-3.62 1.18c-1.01.78-1.78 1.87-2.33 3.26-.54 1.39-.82 3.02-.82 4.87s.27 3.48.82 4.87c.54 1.39 1.32 2.47 2.33 3.24s2.22 1.15 3.62 1.15ZM243.89 38.93c-2.4 0-4.54-.55-6.43-1.66-1.89-1.1-3.39-2.69-4.51-4.75-1.12-2.06-1.68-4.55-1.68-7.46s.61-5.45 1.82-7.51c1.22-2.06 2.82-3.64 4.8-4.73 1.98-1.09 4.13-1.63 6.43-1.63 1.7 0 3.17.29 4.42.86s2.35 1.3 3.31 2.16l-2.74 3.6c-.7-.64-1.44-1.14-2.21-1.51-.77-.37-1.6-.55-2.5-.55-1.47 0-2.78.39-3.94 1.18s-2.06 1.87-2.71 3.26c-.66 1.39-.98 3.02-.98 4.87s.32 3.48.96 4.87c.64 1.39 1.52 2.47 2.64 3.24s2.4 1.15 3.84 1.15c1.12 0 2.16-.23 3.12-.7s1.84-1.03 2.64-1.7l2.3 3.7a12.783 12.783 0 0 1-4.08 2.47c-1.5.56-3.01.84-4.51.84ZM263.59 38.93c-1.5 0-2.84-.32-4.01-.96a7.066 7.066 0 0 1-2.76-2.69c-.67-1.15-1.01-2.5-1.01-4.03 0-2.85 1.26-5.05 3.77-6.6 2.51-1.55 6.52-2.63 12.02-3.24-.03-1.02-.19-1.97-.48-2.83-.29-.86-.79-1.56-1.51-2.09-.72-.53-1.74-.79-3.05-.79-1.38 0-2.7.27-3.98.82-1.28.54-2.5 1.17-3.65 1.87l-2.06-3.74c.93-.58 1.95-1.13 3.07-1.66 1.12-.53 2.32-.96 3.6-1.29 1.28-.34 2.61-.5 3.98-.5 2.21 0 4.02.44 5.42 1.32 1.41.88 2.46 2.15 3.14 3.82.69 1.66 1.03 3.68 1.03 6.05v15.89h-4.51l-.43-3.02h-.19c-1.18 1.03-2.48 1.9-3.89 2.62a9.77 9.77 0 0 1-4.51 1.08Zm1.68-4.42c1.15 0 2.22-.26 3.22-.79.99-.53 2.03-1.3 3.12-2.33v-6.43c-2.59.29-4.66.71-6.19 1.27-1.54.56-2.63 1.22-3.29 1.97-.66.75-.98 1.62-.98 2.62 0 1.31.4 2.26 1.2 2.83.8.58 1.78.86 2.93.86ZM292.74 38.93c-1.98 0-3.56-.39-4.73-1.18-1.17-.78-2.01-1.87-2.52-3.26-.51-1.39-.77-3.02-.77-4.87V16.28h-3.84v-4.13l4.13-.34.62-7.3h4.61v7.3h6.86v4.46h-6.86v13.39c0 1.57.3 2.76.91 3.58.61.82 1.6 1.22 2.98 1.22.45 0 .93-.06 1.44-.19.51-.13.96-.27 1.34-.43l1.01 4.08c-.7.22-1.5.45-2.38.67-.88.22-1.82.34-2.81.34ZM304.92 6.91c-1.06 0-1.9-.3-2.52-.91-.62-.61-.94-1.42-.94-2.45 0-.96.31-1.74.94-2.35s1.46-.91 2.52-.91c.99 0 1.81.3 2.45.91.64.61.96 1.39.96 2.35 0 1.02-.32 1.84-.96 2.45-.64.61-1.46.91-2.45.91Zm-2.79 31.35V11.81h5.52v26.45h-5.52ZM325.72 38.93c-2.18 0-4.22-.55-6.12-1.66-1.9-1.1-3.44-2.69-4.61-4.75-1.17-2.06-1.75-4.55-1.75-7.46s.58-5.45 1.75-7.51c1.17-2.06 2.7-3.64 4.61-4.73 1.9-1.09 3.94-1.63 6.12-1.63 1.6 0 3.15.31 4.66.94 1.5.62 2.83 1.53 3.98 2.71s2.06 2.63 2.74 4.34c.67 1.71 1.01 3.67 1.01 5.88 0 2.91-.58 5.4-1.75 7.46-1.17 2.06-2.69 3.65-4.56 4.75-1.87 1.1-3.9 1.66-6.07 1.66Zm0-4.61c1.38 0 2.57-.38 3.58-1.15 1.01-.77 1.78-1.85 2.33-3.24.54-1.39.82-3.02.82-4.87s-.27-3.48-.82-4.87c-.54-1.39-1.32-2.48-2.33-3.26-1.01-.78-2.2-1.18-3.58-1.18s-2.62.39-3.62 1.18c-1.01.78-1.78 1.87-2.33 3.26-.54 1.39-.82 3.02-.82 4.87s.27 3.48.82 4.87c.54 1.39 1.32 2.47 2.33 3.24s2.22 1.15 3.62 1.15ZM343.79 38.26V11.81h4.51l.48 3.7h.1c1.22-1.18 2.53-2.2 3.94-3.05 1.41-.85 3.01-1.27 4.8-1.27 2.82 0 4.87.9 6.17 2.71 1.3 1.81 1.94 4.39 1.94 7.75v16.61h-5.52V22.32c0-2.27-.35-3.89-1.06-4.87-.7-.98-1.84-1.46-3.41-1.46-1.22 0-2.3.3-3.24.89-.94.59-2.01 1.48-3.19 2.66v18.72h-5.52ZM384.54 48.96V11.81h4.51l.48 2.93h.1c1.18-.96 2.46-1.79 3.84-2.5a9.43 9.43 0 0 1 4.32-1.05c2.21 0 4.1.56 5.66 1.68 1.57 1.12 2.75 2.68 3.55 4.68.8 2 1.2 4.36 1.2 7.08 0 3.01-.54 5.58-1.61 7.73-1.07 2.14-2.47 3.78-4.2 4.9-1.73 1.12-3.58 1.68-5.57 1.68-1.15 0-2.32-.26-3.5-.79-1.18-.53-2.32-1.27-3.41-2.23l.14 4.51v8.54h-5.52Zm11.23-14.69c1.28 0 2.42-.37 3.43-1.1 1.01-.74 1.81-1.82 2.4-3.24.59-1.42.89-3.16.89-5.21 0-1.86-.22-3.45-.65-4.78s-1.1-2.35-1.99-3.07c-.9-.72-2.08-1.08-3.55-1.08-1.02 0-2.04.26-3.05.79-1.01.53-2.07 1.34-3.19 2.42v12.91c1.02.86 2.03 1.47 3.02 1.82.99.35 1.89.53 2.69.53ZM414 38.26V11.81h4.51l.48 4.75h.1c.96-1.7 2.1-3.02 3.41-3.96s2.69-1.42 4.13-1.42c.64 0 1.18.05 1.63.14.45.1.88.22 1.3.38l-.96 4.85c-.48-.16-.91-.27-1.3-.34-.38-.06-.85-.1-1.39-.1-1.06 0-2.18.42-3.36 1.27-1.18.85-2.19 2.33-3.02 4.44v16.42h-5.52ZM443.42 38.93c-2.18 0-4.22-.55-6.12-1.66-1.9-1.1-3.44-2.69-4.61-4.75-1.17-2.06-1.75-4.55-1.75-7.46s.58-5.45 1.75-7.51c1.17-2.06 2.7-3.64 4.61-4.73 1.9-1.09 3.94-1.63 6.12-1.63 1.6 0 3.15.31 4.66.94 1.5.62 2.83 1.53 3.98 2.71s2.06 2.63 2.74 4.34c.67 1.71 1.01 3.67 1.01 5.88 0 2.91-.58 5.4-1.75 7.46-1.17 2.06-2.69 3.65-4.56 4.75-1.87 1.1-3.9 1.66-6.07 1.66Zm0-4.61c1.38 0 2.57-.38 3.58-1.15 1.01-.77 1.78-1.85 2.33-3.24.54-1.39.82-3.02.82-4.87s-.27-3.48-.82-4.87c-.54-1.39-1.32-2.48-2.33-3.26-1.01-.78-2.2-1.18-3.58-1.18s-2.62.39-3.62 1.18c-1.01.78-1.78 1.87-2.33 3.26-.54 1.39-.82 3.02-.82 4.87s.27 3.48.82 4.87c.54 1.39 1.32 2.47 2.33 3.24s2.22 1.15 3.62 1.15ZM472.51 38.93c-2.4 0-4.54-.55-6.43-1.66-1.89-1.1-3.39-2.69-4.51-4.75-1.12-2.06-1.68-4.55-1.68-7.46s.61-5.45 1.82-7.51c1.22-2.06 2.82-3.64 4.8-4.73 1.98-1.09 4.13-1.63 6.43-1.63 1.7 0 3.17.29 4.42.86s2.35 1.3 3.31 2.16l-2.74 3.6c-.7-.64-1.44-1.14-2.21-1.51-.77-.37-1.6-.55-2.5-.55-1.47 0-2.78.39-3.94 1.18s-2.06 1.87-2.71 3.26c-.66 1.39-.98 3.02-.98 4.87s.32 3.48.96 4.87c.64 1.39 1.52 2.47 2.64 3.24s2.4 1.15 3.84 1.15c1.12 0 2.16-.23 3.12-.7s1.84-1.03 2.64-1.7l2.3 3.7a12.783 12.783 0 0 1-4.08 2.47c-1.5.56-3.01.84-4.51.84ZM496.26 38.93c-2.4 0-4.58-.55-6.53-1.66-1.95-1.1-3.5-2.69-4.66-4.75-1.15-2.06-1.73-4.55-1.73-7.46 0-2.14.34-4.07 1.01-5.78.67-1.71 1.58-3.17 2.74-4.37 1.15-1.2 2.45-2.12 3.89-2.76 1.44-.64 2.91-.96 4.42-.96 2.34 0 4.3.52 5.9 1.56 1.6 1.04 2.82 2.5 3.65 4.37.83 1.87 1.25 4.06 1.25 6.55 0 .54-.02 1.06-.07 1.56s-.12.92-.22 1.27h-17.14c.16 1.66.6 3.1 1.32 4.3.72 1.2 1.66 2.13 2.83 2.78 1.17.66 2.5.98 4.01.98 1.18 0 2.29-.18 3.31-.53 1.02-.35 2.02-.83 2.98-1.44l1.92 3.5c-1.22.8-2.57 1.47-4.06 2.02-1.49.54-3.1.82-4.82.82Zm-7.54-16.27h12.67c0-2.24-.5-3.98-1.51-5.23-1.01-1.25-2.47-1.87-4.39-1.87-1.09 0-2.11.27-3.07.82-.96.54-1.77 1.34-2.42 2.4-.66 1.05-1.08 2.35-1.27 3.89ZM518.99 38.93c-1.79 0-3.58-.35-5.35-1.06s-3.3-1.58-4.58-2.64l2.64-3.6c1.15.93 2.33 1.67 3.53 2.23 1.2.56 2.5.84 3.91.84 1.57 0 2.73-.34 3.48-1.03s1.13-1.53 1.13-2.52c0-.8-.28-1.47-.84-2.02-.56-.54-1.29-1.02-2.18-1.42-.9-.4-1.82-.78-2.78-1.13-1.18-.45-2.34-.98-3.48-1.61a8.63 8.63 0 0 1-2.81-2.4c-.74-.98-1.1-2.2-1.1-3.67s.38-2.83 1.13-3.98c.75-1.15 1.83-2.06 3.24-2.74 1.41-.67 3.09-1.01 5.04-1.01 1.76 0 3.37.3 4.82.91 1.46.61 2.7 1.34 3.72 2.21l-2.54 3.41c-.93-.67-1.87-1.22-2.83-1.66s-1.97-.65-3.02-.65c-1.47 0-2.56.31-3.26.94-.7.62-1.06 1.4-1.06 2.33 0 .74.26 1.34.77 1.82s1.19.9 2.04 1.25c.85.35 1.75.72 2.71 1.1.93.32 1.85.7 2.76 1.13s1.74.94 2.47 1.54c.74.59 1.34 1.31 1.8 2.16.46.85.7 1.9.7 3.14 0 1.47-.38 2.83-1.15 4.08s-1.89 2.23-3.36 2.95c-1.47.72-3.31 1.08-5.52 1.08ZM541.8 38.93c-1.79 0-3.58-.35-5.35-1.06-1.78-.7-3.3-1.58-4.58-2.64l2.64-3.6c1.15.93 2.33 1.67 3.53 2.23 1.2.56 2.5.84 3.91.84 1.57 0 2.73-.34 3.48-1.03s1.13-1.53 1.13-2.52c0-.8-.28-1.47-.84-2.02-.56-.54-1.29-1.02-2.18-1.42-.9-.4-1.82-.78-2.78-1.13-1.18-.45-2.34-.98-3.48-1.61a8.63 8.63 0 0 1-2.81-2.4c-.74-.98-1.1-2.2-1.1-3.67s.38-2.83 1.13-3.98c.75-1.15 1.83-2.06 3.24-2.74 1.41-.67 3.09-1.01 5.04-1.01 1.76 0 3.37.3 4.82.91 1.46.61 2.7 1.34 3.72 2.21l-2.54 3.41c-.93-.67-1.87-1.22-2.83-1.66s-1.97-.65-3.02-.65c-1.47 0-2.56.31-3.26.94-.7.62-1.06 1.4-1.06 2.33 0 .74.26 1.34.77 1.82s1.19.9 2.04 1.25c.85.35 1.75.72 2.71 1.1.93.32 1.85.7 2.76 1.13.91.43 1.74.94 2.47 1.54.74.59 1.34 1.31 1.8 2.16.46.85.7 1.9.7 3.14 0 1.47-.38 2.83-1.15 4.08s-1.89 2.23-3.36 2.95-3.31 1.08-5.52 1.08Z"/></g></g></svg>