<?xml version="1.0" encoding="UTF-8"?>
<svg id="_レイヤー_2" data-name="レイヤー 2" xmlns="http://www.w3.org/2000/svg" xmlns:xlink="http://www.w3.org/1999/xlink" viewBox="0 0 600 80">
  <defs>
    <style>
      .cls-1 {
        fill: url(#_名称未設定グラデーション_18_コピー);
      }

      .cls-2 {
        fill: #fff;
      }

      .cls-3 {
        fill: #603;
      }
    </style>
    <linearGradient id="_名称未設定グラデーション_18_コピー" data-name="名称未設定グラデーション 18 コピー" x1="300" y1="2" x2="300" y2="78" gradientTransform="translate(260 340) rotate(-90)" gradientUnits="userSpaceOnUse">
      <stop offset="0" stop-color="#c36"/>
      <stop offset="1" stop-color="#f69"/>
    </linearGradient>
  </defs>
  <g id="_レイヤー_22" data-name="レイヤー 22">
    <g id="UI_3d">
      <rect class="cls-3" width="600" height="80" rx="25" ry="25"/>
      <rect class="cls-1" x="262" y="-258" width="76" height="596" rx="23" ry="23" transform="translate(340 -260) rotate(90)"/>
      <g>
        <path class="cls-2" d="M112.03,31.33c-1.1-.53-2.33-.8-3.67-.83-2.06,0-4.06.74-5.98,2.23l-1.08-1.44c3.26-2.06,5.94-3.1,8.03-3.1,1.46,0,2.89.26,4.28.77,1.39.52,2.29,1.24,2.7,2.16.41.92.61,1.93.61,3.02s-.46,2.17-1.37,3.24c-.91,1.07-2.35,2.02-4.32,2.86,3.74.1,6.17,1.07,7.27,2.92.53.89.79,1.97.79,3.24,0,2.04-.95,3.89-2.84,5.54-2.4,2.09-6.08,3.13-11.05,3.13-1.73,0-3.24-.1-4.54-.29l-.65-1.94,1.44.22c.55.07,1.18.11,1.89.11h1.6c3.7-.07,6.61-.96,8.75-2.66,1.34-1.08,2.02-2.45,2.02-4.1,0-3-2.21-4.5-6.62-4.5-.91,0-2.21.23-3.89.68l-1.73.47-.29-2.09,1.51-.18c1.2-.14,2.38-.5,3.53-1.08,3.5-1.82,5.26-3.79,5.26-5.9,0-1.13-.55-1.96-1.66-2.48Z"/>
        <path class="cls-2" d="M142.54,28.23c1.58,0,3.13.65,4.64,1.96,1.51,1.31,2.72,2.99,3.64,5.06s1.37,4.12,1.37,6.17-.45,4.09-1.35,6.12-2.16,3.73-3.78,5.09-3.35,2.05-5.2,2.05h-14.69v-1.62h2.56c.67-.1,1.16-.44,1.48-1.04v-20.56c-.07-.41-.26-.76-.56-1.06-.3-.3-.68-.49-1.13-.56h-2.34v-1.62h15.37ZM140.38,52.89c1.51,0,2.88-.56,4.1-1.69,1.22-1.13,2.15-2.55,2.79-4.27.64-1.72.95-3.6.95-5.65s-.32-3.95-.97-5.69-1.59-3.13-2.83-4.16c-1.24-1.03-2.66-1.55-4.27-1.55h-4.07c-.65.1-1.14.46-1.48,1.08v20.45c.12.7.49,1.19,1.12,1.48h4.64Z"/>
        <path class="cls-2" d="M172.17,33.92c-.1.1-.14.37-.13.81.01.44,0,.79-.02,1.03l-.11,1.08c-.07.72-.11,1.92-.11,3.6,3.55-.31,7.14-.97,10.76-1.98.96-.26,1.49-.4,1.6-.4s.41.14.92.43c1.39.84,2.09,1.42,2.09,1.73s-.34.62-1.01.92c-.67.3-1.02.45-1.04.45l-5.69-.36-7.63.97v4.54c0,1.97.17,3.27.52,3.91.35.64,1.23.95,2.65.95s2.27-.07,2.56-.22l.58-.29c.72-.36,1.27-.54,1.64-.54s1.01.1,1.93.31c.91.2,1.58.61,2.02,1.21.29.36.44.7.45,1.03s-.15.51-.49.56c-2.21.29-3.41.43-3.6.43l-4.54-.04c-.24.02-.47.04-.68.04-2.06,0-3.5-.56-4.32-1.69s-1.22-2.59-1.22-4.39c0-.82.06-2.6.18-5.36-2.35.22-4.62.73-6.8,1.55-.5,0-.91-.11-1.21-.34-.3-.23-.75-.6-1.35-1.12-.6-.52-1.01-1.04-1.22-1.58-.22-.54-.32-.89-.32-1.06l.54-.58h.22c.07,0,.24.18.5.54,1.06,1.01,2.09,1.51,3.1,1.51h.11l6.52-.79v-2.7c0-.77-.07-2.06-.22-3.89l-3.78,1.01c-1.46,0-2.46-.6-2.99-1.8-.22-.48-.32-.76-.32-.83,0-.41.11-.61.34-.61s.5.12.81.36c.31.24,1.22.36,2.74.36s2.62-.07,3.31-.22l6.62-1.37c.38-.07.86-.2,1.42-.4.56-.19.95-.29,1.15-.29s.56.11,1.06.32c1.39.67,2.09,1.3,2.09,1.87,0,.14-.26.4-.77.76-.52.36-.98.55-1.39.58-2.02-.19-3.19-.33-3.51-.41s-.7-.13-1.12-.13-1.36.18-2.83.54Z"/>
        <path class="cls-2" d="M210.7,39.68c1.34.65,2.02,1.22,2.02,1.73,0,.1-.16.28-.49.56-.32.28-.52.64-.59,1.1l-.25,1.73c-.38,4.99-2.92,8.71-7.6,11.16-1.13-.1-1.69-.18-1.69-.25,0-.58.35-.97,1.04-1.19,3.91-2.45,5.87-6.3,5.87-11.56v-1.08l-.07-1.22c0-.19-.08-.42-.25-.68l-9.18,1.8c-.98,0-2.05-.67-3.2-2.02-.6-.7-.9-1.21-.9-1.55s.18-.5.54-.5c.17,0,.3.04.4.11.67.91,1.6,1.37,2.77,1.37.12,0,.25-.01.4-.04,8.45-.74,14.98-1.78,19.58-3.1.94-.26,1.46-.4,1.58-.4s.43.12.94.36c1.39.67,2.09,1.28,2.09,1.82s-.31.94-.94,1.21c-.36.14-.65.22-.88.22s-.71-.07-1.46-.22c-.74-.14-1.56-.22-2.45-.22l-7.27.86ZM208.72,31.86h-.29c-.17,0-.71.16-1.62.47s-1.86.6-2.84.86c-1.15,0-2.16-.58-3.02-1.73-.5-.67-.76-1.18-.76-1.51s.18-.5.54-.5c.24,0,.36.04.36.11s.12.22.36.43c.5.5,1.14.76,1.91.76.05,0,.2-.01.47-.04l4.43-.4c2.74-.74,4.49-1.23,5.26-1.46.77-.23,1.25-.34,1.46-.34s.56.12,1.06.36c1.39.67,2.09,1.28,2.09,1.84,0,.38-.25.67-.74.86-.49.19-.83.29-1.03.29h-.47c-1.44-.26-2.57-.4-3.38-.4h-.07l-3.71.4ZM221.18,29.52c0,.84-.4,1.26-1.21,1.26s-1.31-.31-1.53-.94l-.32-1.08c-.24-.82-.68-1.57-1.33-2.27s-.97-1.09-.97-1.19v-.07c0-.33.29-.5.86-.5.1,0,.22.05.36.14,2.54,1.54,3.91,2.9,4.1,4.1.02.19.04.37.04.54ZM225.75,28.41c0,.96-.49,1.44-1.48,1.44-.67,0-1.12-.31-1.33-.94l-.32-1.08c-.22-.74-.65-1.48-1.3-2.21s-.97-1.15-.97-1.24c0-.34.22-.5.65-.5.1,0,.22.02.36.07,2.93,1.61,4.39,3.1,4.39,4.46Z"/>
        <path class="cls-2" d="M230.69,53.93c-.67.5-1.12.76-1.33.76-.34,0-.5-.14-.5-.43,0-.1.05-.2.14-.32,4.68-4.1,7.02-10.1,7.02-18,0-1.34-.13-2.27-.4-2.77-.26-.5-.62-.83-1.06-.97-.44-.14-.68-.26-.72-.36s-.05-.18-.05-.25c0-.29.16-.43.47-.43.94,0,2.05.37,3.33,1.12,1.28.74,1.99,1.3,2.11,1.66.05.12.07.23.07.32s-.04.2-.11.31c-.07.11-.2.29-.4.56-.19.26-.3.53-.32.79-.41,8.23-3.16,14.24-8.24,18.04ZM257.58,38.38c.31-.53.61-.79.9-.79.36,0,.55.18.58.54,0,.1-.04.2-.11.32-2.45,5.66-6.52,10.56-12.2,14.69-.79,1.06-1.48,1.6-2.05,1.62-.19,0-.34-.07-.43-.22-1.13-1.2-1.69-2.14-1.69-2.83s.04-1.18.11-1.49c.38-1.63.58-4.96.58-9.97v-.04c0-4.39-.14-8-.43-10.84-.07-.7-.36-1.15-.86-1.37-.24-.1-.36-.23-.36-.4,0-.29.29-.44.86-.47,1.06,0,2.21.38,3.46,1.15.72.43,1.08.8,1.08,1.12,0,.24-.23.53-.7.86-.47.34-.73.73-.77,1.19-.1.94-.14,3.47-.14,7.6.12,3.22.18,6.64.18,10.26,0,.24.11.5.32.79,4.44-2.06,8.34-5.98,11.7-11.74Z"/>
        <path class="cls-2" d="M266.42,34.06c-.41-.34-.97-.95-1.69-1.85-.72-.9-1.08-1.57-1.08-2s.07-.65.2-.65.29.1.49.29c1.15,1.25,2.34,1.87,3.56,1.87h1.8c4.58,0,9.1-.55,13.54-1.66,1.01-.26,1.73-.5,2.16-.72.43-.22.87-.46,1.31-.72.44-.26.85-.4,1.21-.4.89,0,1.85.42,2.88,1.26.43.36.65.65.65.86s-.06.41-.18.58c-.19.31-1.37.47-3.53.47h-.18c-7.68,4.03-11.52,8.36-11.52,13,0,3.34,1.86,5.72,5.58,7.16l.14.04,2.84.18.22.04c1.61.94,2.41,1.72,2.41,2.34s-.86.94-2.59.94c-.6,0-1.3-.04-2.09-.11-5.88-1.37-8.82-4.9-8.82-10.58,0-4.22,3.49-8.5,10.48-12.82-1.7.07-6.56,1.02-14.58,2.84-.41.1-.94.14-1.6.14s-1.19-.17-1.6-.5ZM287.7,40.85c-.19-.03-.4-.14-.62-.34s-.35-.45-.39-.75l-.17-1.12c-.16-.97-.41-1.72-.76-2.25-.35-.53-.53-.86-.53-.98v-.04c.05-.33.23-.48.54-.43.09.01.2.06.31.15,2.33,1.9,3.42,3.37,3.27,4.4-.15,1.03-.69,1.48-1.64,1.35ZM289.67,33.28c2.33,1.9,3.42,3.37,3.27,4.4-.15,1.03-.71,1.48-1.68,1.34-.17-.02-.36-.14-.59-.34s-.37-.45-.42-.75l-.17-1.11c-.16-.97-.41-1.72-.76-2.25-.35-.53-.52-.86-.5-.98.05-.33.22-.48.53-.43.1.01.2.05.31.12Z"/>
        <path class="cls-2" d="M309.93,25.53c1.8,1.46,2.7,2.33,2.7,2.59s-.28.4-.83.4h-6.19c-.34,2.95-.85,5.63-1.55,8.03l1.51.61h1.58c.24,0,.61-.32,1.12-.97.5-.65.86-1.01,1.08-1.08.26.07.8.44,1.62,1.1.82.66,1.25,1.1,1.3,1.31-.1.22-.34.59-.72,1.12-.38.53-.58,1-.58,1.4v8.78l.22,1.98c-.05.48-.91.72-2.59.72-.48,0-.72-.26-.72-.79,0-.86.05-1.44.14-1.73h-3.13c0,.96.05,2.74.14,5.33,0,.72-.66,1.08-1.98,1.08-.82,0-1.25-.29-1.3-.86l.18-2.74v-9.86c-.94,1.78-2.03,3.3-3.28,4.57-.24.1-.45.14-.63.14s-.31-.05-.4-.14c-.08-.1-.13-.2-.13-.31s.12-.25.36-.41c2.98-5.06,4.55-10.82,4.72-17.28h-1.58l-1.76.36-1.3-1.15c-.07-.07-.1-.16-.07-.25,0-.14.07-.18.22-.11.77.19,1.49.29,2.16.29h7.81l1.87-2.12ZM307.85,38.06h-2.95c0,.26-.01.41-.04.43v9.61h3.2v-9.22c0-.34-.07-.61-.22-.83ZM315.23,31.14c0,.41-.17,1.08-.5,2.02-.12.43-.65.72-1.58.86-.17.02-.34.04-.5.04-.55,0-.83-.28-.83-.83,0-.91.42-1.87,1.26-2.88.53-.62.79-1.51.79-2.66,0-.26.14-.4.43-.4h.65c.22,0,.35.4.4,1.19l.07,1.48h3.17c.62-1.7,1.13-3.47,1.51-5.29,2.69.67,4,1.32,3.92,1.94l-1.4.54c-.31.96-.67,1.9-1.08,2.81h6.7l1.91-2.16c1.46,1.46,2.2,2.51,2.2,3.13,0,.14-.24.22-.72.22l-2.84,2.81c-.1.1-.2.14-.32.14s-.32-.16-.61-.47l.25-2.48h-7.09c-1.06,2.16-2.38,4.25-3.96,6.26h4.61c.82-1.44,1.4-3.29,1.76-5.54,2.02.48,3.29,1.06,3.82,1.73-.41.34-.94.53-1.58.58-.55,1.3-1.2,2.38-1.94,3.24h2.81l1.87-1.76c1.8,1.46,2.7,2.26,2.7,2.38,0,.31-.28.47-.83.47h-6.01v4.28h1.55l2.05-1.76c1.68,1.46,2.52,2.26,2.52,2.38,0,.31-.28.47-.83.47h-5.29v4.32h1.55l1.87-1.76c1.8,1.46,2.7,2.26,2.7,2.38,0,.31-.28.47-.83.47h-5.29v4.46h3.35l1.87-1.76c1.8,1.46,2.7,2.26,2.7,2.38,0,.31-.28.47-.83.47h-14.04c.05.65.07,1.08.07,1.3,0,.6-.78.9-2.34.9-.48,0-.72-.38-.72-1.13s.06-1.77.18-3.04v-12.42c-.46.5-.94,1-1.44,1.48-.22.1-.38.14-.5.14-.34,0-.5-.17-.5-.52s.12-.64.36-.88c2.42-2.88,4.34-6.04,5.76-9.47h-2.92ZM321.56,38.49h-4.39v4.28h4.39v-4.28ZM321.56,43.85h-4.39v4.32h4.39v-4.32ZM321.56,49.25h-4.39v3.92c.02.19.04.37.04.54h4.36v-4.46Z"/>
        <path class="cls-2" d="M349.79,32.44h-8.86l-1.98.18-1.55-1.37c.67.17,1.26.25,1.76.25s.91-.01,1.22-.04h5.94l2.12-1.94c1.56,1.63,2.34,2.53,2.34,2.7s-.13.25-.4.25-.47-.01-.61-.04ZM347.71,34.13l2.56,2.66c0,.1-.29.17-.86.22h-6.98l-2.84.22-1.19-1.58c.96.24,2.08.38,3.35.43h3.85l2.12-1.94ZM347.71,38.81l2.56,2.66c0,.1-.29.17-.86.22h-6.98l-2.95.18-1.08-1.55c1.78.24,2.93.38,3.46.43h3.74l2.12-1.94ZM342.56,45.83h2.95l1.73-1.98c2.02,1.34,3.02,2.16,3.02,2.45l-1.01,1.3v3.67l.22,3.02c-.05.48-.77.72-2.16.72h-.4c-.43-.02-.65-.29-.65-.79,0-.19.02-.42.07-.68h-4.18c.09.94.14,1.75.14,2.43s-.9,1.03-2.7,1.03c-.43,0-.67-.29-.72-.86l.18-3.56v-5.65c0-.84-.04-1.33-.13-1.48-.08-.14-.13-.3-.13-.47s.06-.4.18-.68l3.56,1.55ZM346.45,25.31l2.56,2.66c0,.1-.29.17-.86.22h-4.86l-2.77.22-1.26-1.58c1.87.24,2.94.38,3.2.43h1.87l2.12-1.94ZM346.16,46.59h-4c0,.38-.01.59-.04.61v5.47h4.25v-5.08c0-.46-.07-.79-.22-1.01ZM354.29,46.7c-.14,3.91-.5,6.16-1.08,6.75-.58.59-1.25.88-2.03.88s-1.17-.19-1.17-.58c0-.19.17-.65.5-1.37,1.08-2.35,1.84-4.73,2.27-7.13.07-.65.22-1.09.45-1.31.23-.23.47-.19.72.11.25.3.38.76.38,1.37s-.01,1.04-.04,1.28ZM354.29,28.12l-2.16.29c-.19-.53-.79-1.18-1.8-1.94,1.49.29,3.17.43,5.04.43h10.22c.31-.14.73-.5,1.24-1.06.52-.56.85-.85.99-.85.41,0,1.03.4,1.85,1.19s1.24,1.3,1.24,1.51l-1.19,1.66c-.1,4.13-.46,7.44-1.08,9.94-.65,1.8-1.88,2.71-3.71,2.74l-1.04-1.12c-.86-.91-2.5-1.42-4.9-1.51-.34-.14-.5-.29-.5-.45s.14-.33.43-.52l6.16.58s.25-.26.68-.79c.74-2.74,1.12-5.63,1.12-8.68,0-.31-.07-.62-.22-.94-.05-.19-.12-.35-.22-.47h-5.4c-.22,1.49-.54,2.86-.97,4.1,1.58.67,2.93,1.48,4.03,2.41.29.26.43.62.43,1.08s-.07.96-.22,1.51c-.14.55-.31.83-.49.83s-.77-.52-1.78-1.55c-.86-.82-1.81-1.55-2.84-2.2-1.63,3.31-4.21,5.6-7.74,6.88-.12.05-.3.07-.54.07-.38,0-.58-.16-.58-.47,0-.24.13-.43.4-.58,2.9-1.58,4.97-3.98,6.19-7.2-1.25-.62-2.33-1.06-3.24-1.31s-1.39-.43-1.44-.52c-.19-.24-.13-.43.18-.58.31-.14.64-.18.97-.11l1.12.18c1.06.19,2.04.42,2.95.68.29-1.01.49-2.09.61-3.24h-3.82ZM360.41,53.75h3.02c1.13,0,1.78-.76,1.94-2.27.17-1.27.42-1.91.76-1.91.24,0,.44.84.61,2.52.12.7.29,1.2.5,1.51.29.26.43.52.43.76s-.02.44-.07.61c-.36,1.01-1.3,1.51-2.81,1.51h-5.4c-1.92,0-2.88-1-2.88-2.99l-.04-8.86-.18-1.58c-.02-.17.08-.25.32-.25.12,0,.72.08,1.8.25,1.08.17,1.62.35,1.62.54,0,.12-.18.28-.54.49s-.54.43-.54.67v7.27c0,1.15.48,1.73,1.44,1.73ZM360.09,41.94c-.17-.17-.25-.3-.25-.4,0-.53.12-.79.36-.79.07,0,.16.02.25.07,2.23,1.1,4.01,2.98,5.33,5.62.07.14.08.44.02.88-.06.44-.29.94-.68,1.48-.4.54-.7.81-.92.81-.17,0-.49-.42-.97-1.26-.72-2.9-1.76-5.04-3.13-6.41ZM366.82,44.57c-.26-.22-.4-.38-.4-.5-.05-.29.07-.43.36-.43.33.02.65.16.94.4l.94.76c2.21,2.23,3.31,4.32,3.31,6.26,0,.67-.34,1.34-1.01,2.02-.31.31-.58.47-.81.47s-.4-.47-.52-1.4c-.34-2.98-1.27-5.5-2.81-7.56Z"/>
        <path class="cls-2" d="M382.31,35.25c0-4.63-.6-6.95-1.8-6.95-.58,0-.94-.14-1.08-.43-.05-.1-.07-.18-.07-.25,0-.34.2-.5.61-.5h.32c1.9.34,3.43.96,4.61,1.87.65.48.97,1.02.97,1.62,0,.31-.08.62-.23.92-.16.3-.27.88-.34,1.75-.79,8.33-1.19,12.61-1.19,12.85,0,4.39,2.15,6.59,6.44,6.59h.07c4.37,0,7.61-2.03,9.72-6.08,1.15-3,1.96-4.5,2.41-4.5.26,0,.4.2.4.61,0,.82-.48,2.52-1.44,5.11-2.04,5.11-5.64,7.67-10.8,7.67h-.04c-6.02,0-9.04-3.08-9.04-9.25v-.43l.4-8.03c.05-.77.07-1.62.07-2.56Z"/>
        <path class="cls-2" d="M409.77,34.06c-.41-.34-.97-.95-1.69-1.85-.72-.9-1.08-1.57-1.08-2s.07-.65.2-.65.29.1.49.29c1.15,1.25,2.34,1.87,3.56,1.87h1.8c4.58,0,9.1-.55,13.54-1.66,1.01-.26,1.73-.5,2.16-.72s.87-.46,1.31-.72.85-.4,1.21-.4c.89,0,1.85.42,2.88,1.26.43.36.65.65.65.86s-.06.41-.18.58c-.19.31-1.37.47-3.53.47h-.18c-7.68,4.03-11.52,8.36-11.52,13,0,3.34,1.86,5.72,5.58,7.16l.14.04,2.84.18.22.04c1.61.94,2.41,1.72,2.41,2.34s-.86.94-2.59.94c-.6,0-1.3-.04-2.09-.11-5.88-1.37-8.82-4.9-8.82-10.58,0-4.22,3.49-8.5,10.48-12.82-1.7.07-6.56,1.02-14.58,2.84-.41.1-.94.14-1.6.14s-1.19-.17-1.6-.5Z"/>
        <path class="cls-2" d="M468.22,44.5c.84.7,1.26,1.58,1.26,2.66s-.4,1.62-1.19,1.62c-.46,0-.97-.31-1.55-.94-1.2-1.3-2.02-2.06-2.45-2.3-1.54,3.94-3.59,7.01-6.16,9.22-.72.62-1.25.94-1.6.94s-.52-.13-.52-.4.22-.64.65-1.12c2.3-2.69,4.13-5.96,5.47-9.83-2.57-1.46-5.9-2.2-10.01-2.2l-4.07,7.67c-.77,1.39-1.46,2.09-2.09,2.09-3.31,0-4.96-1.69-4.93-5.08-.02-.84.11-1.55.4-2.12,1.06-2.18,3.95-3.76,8.68-4.72l3.89-7.96s-.29-.32-.94-.9c-1.56.7-3.1,1.04-4.61,1.04-.36,0-.69-.03-.99-.09-.3-.06-.64-.43-1.03-1.12-.38-.68-.58-1.25-.58-1.71s.02-.68.07-.68c.19,0,.42.17.68.52.26.35.4.53.4.54,0,.01.32.13.97.34l.97.32c.79,0,2-.36,3.64-1.08,1.63-.72,2.5-1.14,2.59-1.26l2.45,1.55c.77.48,1.15.85,1.15,1.12,0,.43-.58.89-1.73,1.37-1.9,3.12-3.32,5.78-4.28,7.99h.29c3.31,0,6.55.68,9.72,2.05.41-1.54.61-2.72.61-3.56-.14-1.87-.56-3.06-1.26-3.56-.29-.22-.43-.4-.43-.54,0-.43.2-.65.61-.65.74,0,1.52.34,2.32,1.03.8.68,1.36,1.21,1.66,1.57.3.36.45.67.45.92s-.04.44-.11.56-.25.52-.54,1.19-.5,1.42-.65,2.25c-.14.83-.28,1.47-.4,1.93l3.17,1.33ZM443.02,45.54c-.12.48-.18.91-.18,1.3,0,1.78.6,2.66,1.8,2.66.7-.12,1.6-1.25,2.7-3.38,1.1-2.14,1.74-3.4,1.91-3.78-3.53.67-5.6,1.74-6.23,3.2Z"/>
        <path class="cls-2" d="M485.99,41.8c3.41-1.99,6.21-2.99,8.41-2.99s3.82.3,4.88.9c2.52,1.42,3.78,3.53,3.78,6.35s-1,5.17-2.99,7.06-4.92,2.89-8.78,3.01h-.07c-1.9-.07-3.22-.36-3.96-.86-1.42-.94-2.12-1.85-2.12-2.74,0-1.61.49-2.79,1.48-3.56,1.42-1.08,2.71-1.62,3.89-1.62.31,0,.61.04.9.11h.11c1.22,0,2.3.46,3.22,1.39s1.39,1.88,1.39,2.86c0,.43-.02.85-.07,1.26.96-.46,1.56-.78,1.8-.97,1.75-1.3,2.63-3.47,2.63-6.52s-2.1-4.52-6.3-4.79h-.04c-2.64,0-6.06,1.4-10.26,4.21-.07.05-.31.36-.72.94l-1.73,1.98c-.74.86-1.4,1.3-1.98,1.3s-.86-.61-.86-1.82.3-2.02.9-2.43c3.53-2.66,7.46-6.48,11.81-11.45.86-1.03,1.73-2.3,2.59-3.82l-6.84,2.41c-.55.19-.91.36-1.08.5-.17.14-.36.22-.58.22-.84,0-1.59-.44-2.25-1.31-.66-.88-.99-1.81-.99-2.79,0-.46.09-.68.27-.68s.56.31,1.15.94,1.19.95,1.82.97l1.37.04h.65c.29,0,2.75-.67,7.38-2.02.26-.48.49-.79.68-.94,2.04,1.3,3.06,2.12,3.06,2.48s-.3.63-.9.81c-.6.18-1.01.37-1.22.56-3.1,3-6.56,6.67-10.4,11.02ZM493.95,53.72c.12-.96.18-1.68.18-2.16s-.25-.98-.76-1.49c-.5-.52-1.2-.77-2.09-.77-.26,0-.79.07-1.58.22-1.66.29-2.48,1.02-2.48,2.2,0,.14.01.3.04.47.17,1.27,1.49,1.91,3.96,1.91.82,0,1.73-.12,2.74-.36Z"/>
      </g>
    </g>
  </g>
</svg>