<?xml version="1.0" encoding="UTF-8"?>
<svg id="_レイヤー_2" data-name="レイヤー 2" xmlns="http://www.w3.org/2000/svg" xmlns:xlink="http://www.w3.org/1999/xlink" viewBox="0 0 570 72">
  <defs>
    <style>
      .cls-1 {
        fill: #fff;
      }

      .cls-2 {
        fill: #603;
      }

      .cls-3 {
        fill: url(#_名称未設定グラデーション_598);
      }
    </style>
    <linearGradient id="_名称未設定グラデーション_598" data-name="名称未設定グラデーション 598" x1="285" y1="1.8" x2="285" y2="70.2" gradientTransform="translate(249 321) rotate(-90)" gradientUnits="userSpaceOnUse">
      <stop offset="0" stop-color="#de1659"/>
      <stop offset="1" stop-color="#c36"/>
    </linearGradient>
  </defs>
  <g id="_レイヤー_22" data-name="レイヤー 22">
    <g id="UI_3d_push">
      <rect class="cls-2" width="570" height="72" rx="25" ry="25"/>
      <rect class="cls-3" x="250.8" y="-247.1" width="68.4" height="566.2" rx="23" ry="23" transform="translate(321 -249) rotate(90)"/>
      <g>
        <path class="cls-1" d="M106.51,27.28c-1.05-.5-2.21-.76-3.49-.79-1.96,0-3.85.71-5.68,2.12l-1.03-1.37c3.1-1.96,5.64-2.94,7.63-2.94,1.39,0,2.75.25,4.07.74,1.32.49,2.18,1.17,2.56,2.05.39.88.58,1.84.58,2.87s-.43,2.06-1.3,3.08c-.87,1.01-2.23,1.92-4.1,2.72,3.56.09,5.86,1.01,6.91,2.77.5.84.75,1.87.75,3.08,0,1.94-.9,3.69-2.7,5.27-2.28,1.98-5.78,2.98-10.5,2.98-1.64,0-3.08-.09-4.31-.27l-.62-1.85,1.37.21c.52.07,1.12.1,1.8.1h1.52c3.51-.07,6.28-.91,8.31-2.53,1.28-1.03,1.92-2.33,1.92-3.9,0-2.85-2.1-4.27-6.29-4.27-.87,0-2.1.22-3.69.65l-1.64.44-.27-1.98,1.44-.17c1.14-.14,2.26-.48,3.35-1.03,3.33-1.73,4.99-3.6,4.99-5.61,0-1.07-.52-1.86-1.57-2.36Z"/>
        <path class="cls-1" d="M135.5,24.34c1.5,0,2.98.62,4.41,1.86,1.44,1.24,2.59,2.84,3.45,4.81s1.3,3.92,1.3,5.87-.43,3.89-1.28,5.81-2.05,3.54-3.59,4.84-3.19,1.95-4.94,1.95h-13.95v-1.54h2.43c.64-.09,1.11-.42,1.4-.99v-19.53c-.07-.39-.25-.72-.53-1.01-.29-.28-.64-.46-1.08-.53h-2.22v-1.54h14.6ZM133.44,47.77c1.44,0,2.74-.54,3.9-1.61,1.16-1.07,2.05-2.42,2.65-4.05.6-1.63.91-3.42.91-5.37s-.31-3.75-.92-5.4-1.51-2.97-2.68-3.95c-1.17-.98-2.53-1.47-4.05-1.47h-3.86c-.62.09-1.08.43-1.4,1.03v19.43c.11.66.47,1.13,1.06,1.4h4.41Z"/>
        <path class="cls-1" d="M163.64,29.74c-.09.09-.13.35-.12.77.01.42,0,.75-.02.98l-.1,1.03c-.07.68-.1,1.82-.1,3.42,3.37-.3,6.78-.92,10.23-1.88.91-.25,1.42-.38,1.52-.38s.39.14.87.41c1.32.8,1.98,1.35,1.98,1.64s-.32.59-.96.87c-.64.29-.97.43-.99.43l-5.4-.34-7.25.92v4.31c0,1.87.16,3.11.5,3.71.33.6,1.17.91,2.51.91s2.15-.07,2.43-.21l.55-.27c.68-.34,1.2-.51,1.56-.51s.96.1,1.83.29c.87.19,1.5.58,1.92,1.15.27.34.42.67.43.98s-.14.48-.46.53c-2.1.27-3.24.41-3.42.41l-4.31-.03c-.23.02-.44.03-.65.03-1.96,0-3.33-.54-4.1-1.61s-1.16-2.46-1.16-4.17c0-.78.06-2.47.17-5.1-2.23.21-4.39.7-6.46,1.47-.48,0-.86-.11-1.15-.32-.29-.22-.71-.57-1.28-1.06-.57-.49-.96-.99-1.16-1.5-.21-.51-.31-.85-.31-1.01l.51-.55h.21c.07,0,.23.17.48.51,1,.96,1.98,1.44,2.94,1.44h.1l6.19-.75v-2.57c0-.73-.07-1.96-.21-3.69l-3.59.96c-1.39,0-2.34-.57-2.84-1.71-.21-.46-.31-.72-.31-.79,0-.39.11-.58.32-.58s.47.11.77.34c.3.23,1.16.34,2.6.34s2.48-.07,3.15-.21l6.29-1.3c.36-.07.82-.19,1.35-.38.54-.18.9-.27,1.09-.27s.53.1,1.01.31c1.32.64,1.98,1.23,1.98,1.78,0,.14-.25.38-.74.72-.49.34-.93.53-1.32.55-1.91-.18-3.03-.31-3.33-.39s-.66-.12-1.06-.12-1.29.17-2.68.51Z"/>
        <path class="cls-1" d="M200.25,35.21c1.28.62,1.92,1.16,1.92,1.64,0,.09-.15.27-.46.53-.31.26-.5.61-.56,1.04l-.24,1.64c-.37,4.74-2.77,8.28-7.22,10.6-1.07-.09-1.61-.17-1.61-.24,0-.55.33-.92.99-1.13,3.72-2.33,5.57-5.98,5.57-10.98v-1.03l-.07-1.16c0-.18-.08-.4-.24-.65l-8.72,1.71c-.94,0-1.95-.64-3.04-1.91-.57-.66-.86-1.15-.86-1.47s.17-.48.51-.48c.16,0,.28.03.38.1.64.87,1.52,1.3,2.63,1.3.11,0,.24-.01.38-.03,8.03-.71,14.23-1.69,18.6-2.94.89-.25,1.39-.38,1.51-.38s.41.11.89.34c1.32.64,1.98,1.21,1.98,1.73s-.3.9-.89,1.15c-.34.14-.62.21-.84.21s-.68-.07-1.39-.21c-.71-.14-1.48-.21-2.33-.21l-6.91.82ZM198.37,27.79h-.27c-.16,0-.67.15-1.54.45s-1.77.57-2.7.82c-1.09,0-2.05-.55-2.87-1.64-.48-.64-.72-1.12-.72-1.44s.17-.48.51-.48c.23,0,.34.03.34.1s.11.21.34.41c.48.48,1.08.72,1.81.72.05,0,.19-.01.44-.03l4.21-.38c2.6-.71,4.26-1.17,4.99-1.39.73-.22,1.19-.32,1.39-.32s.53.11,1.01.34c1.32.64,1.98,1.22,1.98,1.74,0,.36-.23.64-.7.82-.47.18-.79.27-.97.27h-.44c-1.37-.25-2.44-.38-3.22-.38h-.07l-3.52.38ZM210.2,25.57c0,.8-.38,1.2-1.15,1.2s-1.25-.3-1.45-.89l-.31-1.03c-.23-.77-.65-1.49-1.27-2.15s-.92-1.04-.92-1.13v-.07c0-.32.27-.48.82-.48.09,0,.21.05.34.14,2.42,1.46,3.72,2.76,3.9,3.9.02.18.03.35.03.51ZM214.55,24.51c0,.91-.47,1.37-1.4,1.37-.64,0-1.06-.3-1.27-.89l-.31-1.03c-.21-.71-.62-1.41-1.23-2.1s-.92-1.09-.92-1.18c0-.32.21-.48.62-.48.09,0,.21.02.34.07,2.78,1.53,4.17,2.94,4.17,4.24Z"/>
        <path class="cls-1" d="M219.24,48.76c-.64.48-1.06.72-1.27.72-.32,0-.48-.14-.48-.41,0-.09.05-.19.14-.31,4.45-3.9,6.67-9.6,6.67-17.1,0-1.28-.13-2.15-.38-2.63-.25-.48-.59-.79-1.01-.92-.42-.14-.65-.25-.68-.34s-.05-.17-.05-.24c0-.27.15-.41.44-.41.89,0,1.94.35,3.16,1.06,1.22.71,1.89,1.23,2,1.57.05.11.07.22.07.31s-.03.19-.1.29c-.07.1-.19.28-.38.53-.18.25-.29.5-.31.75-.39,7.82-3,13.53-7.83,17.13ZM244.79,33.98c.3-.5.58-.75.85-.75.34,0,.52.17.55.51,0,.09-.03.19-.1.31-2.33,5.38-6.19,10.03-11.59,13.95-.75,1-1.4,1.52-1.95,1.54-.18,0-.32-.07-.41-.21-1.07-1.14-1.61-2.04-1.61-2.68s.03-1.12.1-1.42c.36-1.55.55-4.71.55-9.47v-.03c0-4.17-.14-7.6-.41-10.29-.07-.66-.34-1.09-.82-1.3-.23-.09-.34-.22-.34-.38,0-.27.27-.42.82-.45,1,0,2.1.37,3.28,1.09.68.41,1.03.76,1.03,1.06,0,.23-.22.5-.67.82-.44.32-.69.7-.74,1.13-.09.89-.14,3.3-.14,7.22.11,3.06.17,6.3.17,9.75,0,.23.1.48.31.75,4.22-1.96,7.92-5.68,11.12-11.15Z"/>
        <path class="cls-1" d="M253.18,29.88c-.39-.32-.92-.91-1.61-1.76-.68-.86-1.03-1.49-1.03-1.9s.06-.62.19-.62.28.09.46.27c1.09,1.19,2.22,1.78,3.39,1.78h1.71c4.35,0,8.64-.52,12.86-1.57.96-.25,1.64-.48,2.05-.68.41-.21.83-.43,1.25-.68.42-.25.8-.38,1.15-.38.84,0,1.76.4,2.74,1.2.41.34.62.62.62.82s-.06.39-.17.55c-.18.3-1.3.44-3.35.44h-.17c-7.3,3.83-10.94,7.95-10.94,12.35,0,3.17,1.77,5.44,5.3,6.81l.14.03,2.7.17.21.03c1.53.89,2.29,1.63,2.29,2.22s-.82.89-2.46.89c-.57,0-1.23-.03-1.98-.1-5.59-1.3-8.38-4.65-8.38-10.05,0-4.01,3.32-8.07,9.95-12.17-1.62.07-6.24.97-13.85,2.7-.39.09-.9.14-1.52.14s-1.13-.16-1.52-.48ZM273.39,36.33c-.18-.03-.38-.13-.59-.33s-.34-.43-.37-.71l-.16-1.06c-.15-.92-.39-1.63-.72-2.14-.33-.51-.5-.82-.51-.93v-.03c.05-.32.22-.45.51-.41.09.01.19.06.29.14,2.21,1.81,3.25,3.2,3.11,4.18-.14.98-.66,1.41-1.56,1.28ZM275.27,29.14c2.21,1.81,3.25,3.2,3.11,4.18-.14.98-.67,1.41-1.6,1.28-.16-.02-.34-.13-.56-.32s-.35-.43-.4-.71l-.16-1.06c-.15-.92-.39-1.63-.72-2.14-.33-.51-.49-.82-.47-.93.04-.32.21-.45.51-.41.09.01.19.05.3.11Z"/>
        <path class="cls-1" d="M294.52,21.77c1.71,1.39,2.57,2.21,2.57,2.46s-.26.38-.79.38h-5.88c-.32,2.8-.81,5.35-1.47,7.63l1.44.58h1.5c.23,0,.58-.31,1.06-.92.48-.62.82-.96,1.03-1.03.25.07.76.42,1.54,1.04.77.63,1.19,1.04,1.23,1.25-.09.21-.32.56-.68,1.06-.37.5-.55.95-.55,1.33v8.34l.21,1.88c-.05.46-.87.68-2.46.68-.46,0-.68-.25-.68-.75,0-.82.05-1.37.14-1.64h-2.98c0,.91.05,2.6.14,5.06,0,.68-.63,1.03-1.88,1.03-.78,0-1.19-.27-1.23-.82l.17-2.6v-9.37c-.89,1.69-1.93,3.14-3.11,4.34-.23.09-.43.14-.6.14s-.3-.05-.38-.14c-.08-.09-.12-.19-.12-.29s.11-.23.34-.39c2.83-4.81,4.32-10.28,4.48-16.42h-1.5l-1.68.34-1.23-1.09c-.07-.07-.09-.15-.07-.24,0-.14.07-.17.21-.1.73.18,1.41.27,2.05.27h7.42l1.78-2.02ZM292.54,33.68h-2.8c0,.25-.01.39-.03.41v9.13h3.04v-8.76c0-.32-.07-.58-.21-.79ZM299.55,27.11c0,.39-.16,1.03-.48,1.92-.11.41-.62.68-1.5.82-.16.02-.32.03-.48.03-.53,0-.79-.26-.79-.79,0-.87.4-1.78,1.2-2.74.5-.59.75-1.44.75-2.53,0-.25.14-.38.41-.38h.62c.21,0,.33.38.38,1.13l.07,1.4h3.01c.59-1.62,1.07-3.29,1.44-5.03,2.55.64,3.8,1.25,3.73,1.85l-1.33.51c-.3.91-.64,1.8-1.03,2.67h6.36l1.81-2.05c1.39,1.39,2.09,2.38,2.09,2.98,0,.14-.23.21-.68.21l-2.7,2.67c-.09.09-.19.14-.31.14s-.31-.15-.58-.44l.24-2.36h-6.74c-1,2.05-2.26,4.04-3.76,5.95h4.38c.77-1.37,1.33-3.12,1.68-5.27,1.91.46,3.12,1,3.63,1.64-.39.32-.89.5-1.5.55-.53,1.23-1.14,2.26-1.85,3.08h2.67l1.78-1.68c1.71,1.39,2.57,2.14,2.57,2.26,0,.3-.26.44-.79.44h-5.71v4.07h1.47l1.95-1.68c1.6,1.39,2.39,2.14,2.39,2.26,0,.3-.26.44-.79.44h-5.03v4.1h1.47l1.78-1.68c1.71,1.39,2.57,2.14,2.57,2.26,0,.3-.26.44-.79.44h-5.03v4.24h3.18l1.78-1.68c1.71,1.39,2.57,2.14,2.57,2.26,0,.3-.26.44-.79.44h-13.34c.05.62.07,1.03.07,1.23,0,.57-.74.86-2.22.86-.46,0-.68-.36-.68-1.08s.06-1.68.17-2.89v-11.8c-.43.48-.89.95-1.37,1.4-.21.09-.36.14-.48.14-.32,0-.48-.17-.48-.5s.11-.61.34-.84c2.3-2.74,4.13-5.73,5.47-8.99h-2.77ZM305.57,34.09h-4.17v4.07h4.17v-4.07ZM305.57,39.18h-4.17v4.1h4.17v-4.1ZM305.57,44.31h-4.17v3.73c.02.18.03.35.03.51h4.14v-4.24Z"/>
        <path class="cls-1" d="M332.39,28.34h-8.41l-1.88.17-1.47-1.3c.64.16,1.2.24,1.68.24s.87-.01,1.16-.03h5.64l2.02-1.85c1.48,1.55,2.22,2.41,2.22,2.57s-.13.24-.38.24-.44-.01-.58-.03ZM330.4,29.95l2.43,2.53c0,.09-.27.16-.82.21h-6.63l-2.7.21-1.13-1.5c.91.23,1.97.37,3.18.41h3.66l2.02-1.85ZM330.4,34.39l2.43,2.53c0,.09-.27.16-.82.21h-6.63l-2.8.17-1.03-1.47c1.69.23,2.78.36,3.28.41h3.56l2.02-1.85ZM325.51,41.06h2.8l1.64-1.88c1.92,1.28,2.87,2.05,2.87,2.33l-.96,1.23v3.49l.21,2.87c-.05.46-.73.68-2.05.68h-.38c-.41-.02-.62-.27-.62-.75,0-.18.02-.4.07-.65h-3.97c.09.89.14,1.66.14,2.31s-.86.98-2.57.98c-.41,0-.64-.27-.68-.82l.17-3.39v-5.37c0-.8-.04-1.27-.12-1.4-.08-.14-.12-.28-.12-.44s.06-.38.17-.65l3.39,1.47ZM329.2,21.57l2.43,2.53c0,.09-.27.16-.82.21h-4.62l-2.63.21-1.2-1.5c1.78.23,2.79.36,3.04.41h1.78l2.02-1.85ZM328.93,41.78h-3.8c0,.36-.01.56-.03.58v5.2h4.04v-4.82c0-.43-.07-.75-.21-.96ZM336.66,41.88c-.14,3.72-.48,5.85-1.03,6.41-.55.56-1.19.84-1.93.84s-1.11-.18-1.11-.55c0-.18.16-.62.48-1.3,1.03-2.23,1.74-4.49,2.15-6.77.07-.62.21-1.03.43-1.25.22-.22.44-.18.68.1.24.29.36.72.36,1.3s-.01.99-.03,1.21ZM336.66,24.24l-2.05.27c-.18-.5-.75-1.12-1.71-1.85,1.41.27,3.01.41,4.79.41h9.71c.3-.14.69-.47,1.18-1.01.49-.54.8-.8.94-.8.39,0,.97.38,1.76,1.13s1.18,1.23,1.18,1.44l-1.13,1.57c-.09,3.92-.43,7.07-1.03,9.44-.62,1.71-1.79,2.58-3.52,2.6l-.99-1.06c-.82-.87-2.37-1.34-4.65-1.44-.32-.14-.48-.28-.48-.43s.14-.31.41-.5l5.85.55s.24-.25.65-.75c.71-2.6,1.06-5.35,1.06-8.24,0-.3-.07-.59-.21-.89-.05-.18-.11-.33-.21-.44h-5.13c-.21,1.41-.51,2.71-.92,3.9,1.5.64,2.78,1.4,3.83,2.29.27.25.41.59.41,1.03s-.07.91-.21,1.44c-.14.53-.29.79-.46.79s-.73-.49-1.69-1.47c-.82-.77-1.72-1.47-2.7-2.09-1.55,3.15-4,5.32-7.35,6.53-.11.05-.28.07-.51.07-.36,0-.55-.15-.55-.44,0-.23.12-.41.38-.55,2.76-1.5,4.72-3.78,5.88-6.84-1.19-.59-2.21-1.01-3.08-1.25s-1.32-.4-1.37-.5c-.18-.23-.13-.41.17-.55.3-.14.6-.17.92-.1l1.06.17c1,.18,1.94.4,2.8.65.27-.96.47-1.98.58-3.08h-3.62ZM342.48,48.59h2.87c1.07,0,1.69-.72,1.85-2.16.16-1.21.4-1.81.72-1.81.23,0,.42.8.58,2.39.11.66.27,1.14.48,1.44.27.25.41.49.41.72s-.02.42-.07.58c-.34.96-1.23,1.44-2.67,1.44h-5.13c-1.82,0-2.74-.95-2.74-2.84l-.03-8.41-.17-1.5c-.02-.16.08-.24.31-.24.11,0,.68.08,1.71.24,1.03.16,1.54.33,1.54.51,0,.11-.17.27-.51.46s-.51.4-.51.63v6.91c0,1.09.46,1.64,1.37,1.64ZM342.17,37.37c-.16-.16-.24-.28-.24-.38,0-.5.11-.75.34-.75.07,0,.15.02.24.07,2.12,1.05,3.81,2.83,5.06,5.33.07.14.07.42.02.84-.06.42-.27.89-.65,1.4-.38.51-.67.77-.87.77-.16,0-.47-.4-.92-1.2-.68-2.76-1.68-4.79-2.98-6.09ZM348.56,39.87c-.25-.21-.38-.36-.38-.48-.05-.27.07-.41.34-.41.32.02.62.15.89.38l.89.72c2.1,2.12,3.15,4.1,3.15,5.95,0,.64-.32,1.28-.96,1.91-.3.3-.55.45-.77.45s-.38-.45-.5-1.33c-.32-2.83-1.21-5.22-2.67-7.18Z"/>
        <path class="cls-1" d="M363.28,31.01c0-4.4-.57-6.6-1.71-6.6-.55,0-.89-.14-1.03-.41-.05-.09-.07-.17-.07-.24,0-.32.19-.48.58-.48h.31c1.8.32,3.26.91,4.38,1.78.62.46.92.97.92,1.54,0,.3-.07.59-.22.87-.15.29-.26.84-.32,1.66-.75,7.91-1.13,11.98-1.13,12.21,0,4.17,2.04,6.26,6.12,6.26h.07c4.15,0,7.23-1.93,9.23-5.78,1.09-2.85,1.86-4.27,2.29-4.27.25,0,.38.19.38.58,0,.78-.46,2.39-1.37,4.86-1.94,4.86-5.36,7.28-10.26,7.28h-.03c-5.72,0-8.58-2.93-8.58-8.79v-.41l.38-7.63c.05-.73.07-1.54.07-2.43Z"/>
        <path class="cls-1" d="M389.36,29.88c-.39-.32-.92-.91-1.61-1.76-.68-.86-1.03-1.49-1.03-1.9s.06-.62.19-.62.28.09.46.27c1.09,1.19,2.22,1.78,3.39,1.78h1.71c4.35,0,8.64-.52,12.86-1.57.96-.25,1.64-.48,2.05-.68s.83-.43,1.25-.68.8-.38,1.15-.38c.84,0,1.76.4,2.74,1.2.41.34.62.62.62.82s-.06.39-.17.55c-.18.3-1.3.44-3.35.44h-.17c-7.3,3.83-10.94,7.95-10.94,12.35,0,3.17,1.77,5.44,5.3,6.81l.14.03,2.7.17.21.03c1.53.89,2.29,1.63,2.29,2.22s-.82.89-2.46.89c-.57,0-1.23-.03-1.98-.1-5.59-1.3-8.38-4.65-8.38-10.05,0-4.01,3.32-8.07,9.95-12.17-1.62.07-6.24.97-13.85,2.7-.39.09-.9.14-1.52.14s-1.13-.16-1.52-.48Z"/>
        <path class="cls-1" d="M444.89,39.8c.8.66,1.2,1.5,1.2,2.53s-.38,1.54-1.13,1.54c-.43,0-.92-.3-1.47-.89-1.14-1.23-1.92-1.96-2.33-2.19-1.46,3.74-3.41,6.66-5.85,8.76-.68.59-1.19.89-1.52.89s-.5-.13-.5-.38.21-.6.62-1.06c2.19-2.55,3.92-5.67,5.2-9.34-2.44-1.39-5.61-2.09-9.51-2.09l-3.86,7.28c-.73,1.32-1.39,1.98-1.98,1.98-3.15,0-4.71-1.61-4.69-4.82-.02-.8.1-1.47.38-2.02,1-2.07,3.75-3.57,8.24-4.48l3.69-7.56s-.27-.31-.89-.86c-1.48.66-2.94.99-4.38.99-.34,0-.66-.03-.94-.09-.29-.06-.61-.41-.98-1.06-.36-.65-.55-1.19-.55-1.62s.02-.65.07-.65c.18,0,.4.17.65.5.25.33.38.5.38.51,0,.01.31.12.92.33l.92.31c.75,0,1.9-.34,3.45-1.03,1.55-.68,2.37-1.08,2.46-1.2l2.33,1.47c.73.46,1.09.81,1.09,1.06,0,.41-.55.84-1.64,1.3-1.8,2.96-3.16,5.49-4.07,7.59h.27c3.15,0,6.23.65,9.23,1.95.39-1.46.58-2.59.58-3.39-.14-1.78-.54-2.91-1.2-3.39-.27-.21-.41-.38-.41-.51,0-.41.19-.62.58-.62.71,0,1.44.33,2.21.98.76.65,1.29,1.15,1.57,1.49.28.34.43.63.43.87s-.03.42-.1.53-.24.49-.51,1.13-.48,1.35-.62,2.14c-.14.79-.26,1.4-.38,1.83l3.01,1.27ZM420.95,40.79c-.11.46-.17.87-.17,1.23,0,1.69.57,2.53,1.71,2.53.66-.11,1.52-1.19,2.57-3.21,1.05-2.03,1.65-3.23,1.81-3.59-3.35.64-5.32,1.65-5.92,3.04Z"/>
        <path class="cls-1" d="M461.77,37.23c3.24-1.89,5.9-2.84,7.99-2.84s3.63.29,4.63.86c2.39,1.35,3.59,3.36,3.59,6.04s-.95,4.91-2.84,6.7-4.67,2.74-8.34,2.86h-.07c-1.8-.07-3.06-.34-3.76-.82-1.35-.89-2.02-1.76-2.02-2.6,0-1.53.47-2.66,1.4-3.39,1.35-1.03,2.58-1.54,3.69-1.54.3,0,.58.03.86.1h.1c1.16,0,2.18.44,3.06,1.32s1.32,1.78,1.32,2.72c0,.41-.02.81-.07,1.2.91-.43,1.48-.74,1.71-.92,1.66-1.23,2.5-3.29,2.5-6.19s-2-4.3-5.98-4.55h-.03c-2.51,0-5.76,1.33-9.75,4-.07.05-.3.34-.68.89l-1.64,1.88c-.71.82-1.33,1.23-1.88,1.23s-.82-.58-.82-1.73.29-1.92.86-2.31c3.35-2.53,7.09-6.16,11.22-10.87.82-.98,1.64-2.19,2.46-3.63l-6.5,2.29c-.53.18-.87.34-1.03.48-.16.14-.34.21-.55.21-.8,0-1.51-.42-2.14-1.25-.63-.83-.94-1.72-.94-2.65,0-.43.09-.65.26-.65s.54.3,1.09.89,1.13.9,1.73.92l1.3.03h.62c.27,0,2.61-.64,7.01-1.91.25-.46.47-.75.65-.89,1.94,1.23,2.91,2.02,2.91,2.36s-.28.6-.85.77c-.57.17-.96.35-1.16.53-2.94,2.85-6.24,6.34-9.88,10.46ZM469.33,48.55c.11-.91.17-1.6.17-2.05s-.24-.93-.72-1.42c-.48-.49-1.14-.73-1.98-.73-.25,0-.75.07-1.5.21-1.57.27-2.36.97-2.36,2.09,0,.14.01.28.03.44.16,1.21,1.41,1.81,3.76,1.81.77,0,1.64-.11,2.6-.34Z"/>
      </g>
    </g>
  </g>
</svg>