<?xml version="1.0" encoding="UTF-8"?>
<svg id="_レイヤー_2" data-name="レイヤー 2" xmlns="http://www.w3.org/2000/svg" viewBox="0 0 1140.62 321.14">
  <defs>
    <style>
      .cls-1 {
        fill: #8cc63f;
      }

      .cls-2 {
        fill: #fff;
      }

      .cls-3 {
        fill: #090064;
      }

      .cls-4 {
        fill: navy;
      }
    </style>
  </defs>
  <g id="_引越手続き_書き出し" data-name="引越手続き・書き出し">
    <g id="text_moving3">
      <path class="cls-2" d="M20.26,1.92c-.06.29-.11.65-.14,1.08-.03.43-.07.88-.12,1.34-.05.46-.09.89-.12,1.27-.03.83-.07,1.82-.12,2.95-.05,1.14-.1,2.37-.14,3.7-.05,1.33-.08,2.66-.1,3.98-.02,1.33-.02,2.6-.02,3.82s.02,2.64.05,4.18c.03,1.54.06,3.05.1,4.54.03,1.49.06,2.86.1,4.13.03,1.26.05,2.26.05,3,0,1.7-.2,3.02-.6,3.98-.4.96-.94,1.63-1.63,2.02-.69.38-1.51.58-2.47.58-1.02,0-2.14-.22-3.36-.67-1.22-.45-2.37-1.06-3.46-1.82-1.09-.77-1.98-1.66-2.69-2.69-.7-1.02-1.06-2.11-1.06-3.26,0-1.47.57-2.94,1.7-4.39,1.14-1.46,2.63-2.79,4.49-4.01,1.86-1.22,3.82-2.21,5.9-2.98,2.18-.8,4.4-1.41,6.67-1.82,2.27-.42,4.34-.62,6.19-.62,2.4,0,4.54.4,6.43,1.2s3.38,1.95,4.46,3.46c1.09,1.5,1.63,3.28,1.63,5.33,0,1.89-.38,3.58-1.13,5.09-.75,1.5-1.9,2.78-3.43,3.84-1.54,1.06-3.47,1.87-5.81,2.45-1.09.22-2.15.38-3.19.48-1.04.1-2.01.18-2.9.24l-1.73-4.9c.96.03,1.94.03,2.93,0,.99-.03,1.94-.14,2.83-.34,1.34-.26,2.59-.66,3.74-1.22s2.07-1.31,2.76-2.26c.69-.94,1.03-2.09,1.03-3.43,0-1.25-.34-2.3-1.01-3.14-.67-.85-1.58-1.5-2.74-1.94-1.15-.45-2.46-.67-3.94-.67-2.08,0-4.14.22-6.19.65-2.05.43-4.06,1.03-6.05,1.8-1.47.58-2.82,1.26-4.03,2.06-1.22.8-2.18,1.62-2.88,2.47-.7.85-1.06,1.66-1.06,2.42,0,.48.16.94.48,1.37.32.43.71.81,1.18,1.13.46.32.95.58,1.46.77.51.19.98.29,1.39.29.48,0,.87-.17,1.18-.5.3-.34.46-.9.46-1.7,0-.9-.02-2.16-.07-3.79s-.09-3.43-.12-5.4c-.03-1.97-.05-3.86-.05-5.69,0-1.38,0-2.81.02-4.3.02-1.49.03-2.92.05-4.3.02-1.38.03-2.59.05-3.65.02-1.06.02-1.82.02-2.3,0-.35-.02-.77-.05-1.25-.03-.48-.06-.95-.1-1.42-.03-.46-.08-.84-.14-1.13h5.28ZM5.52,10.22c1.38.16,2.56.26,3.55.31.99.05,1.94.07,2.83.07,1.18,0,2.53-.06,4.03-.19,1.5-.13,3.03-.29,4.58-.48,1.55-.19,3.07-.44,4.56-.74,1.49-.3,2.84-.63,4.06-.98l.1,4.7c-1.28.29-2.7.56-4.25.82-1.55.26-3.12.49-4.7.7s-3.09.37-4.51.48c-1.42.11-2.68.17-3.77.17-1.44,0-2.66-.02-3.65-.07-.99-.05-1.89-.1-2.69-.17l-.14-4.61ZM34.61,7.2c1.18.58,2.5,1.29,3.96,2.14,1.46.85,2.85,1.7,4.18,2.54,1.33.85,2.39,1.59,3.19,2.23l-2.35,3.84c-.58-.54-1.34-1.14-2.28-1.78-.94-.64-1.95-1.3-3.02-1.97-1.07-.67-2.11-1.3-3.12-1.9-1.01-.59-1.9-1.08-2.66-1.46l2.11-3.65Z"/>
      <path class="cls-2" d="M63.15,21.79l4.42.67c-1.44,3.17-3.58,6.06-6.41,8.66-2.83,2.61-6.57,4.82-11.21,6.65-.16-.35-.38-.74-.67-1.15-.29-.42-.6-.82-.94-1.2s-.65-.69-.94-.91c2.88-.99,5.37-2.18,7.46-3.55,2.1-1.38,3.82-2.85,5.18-4.42,1.36-1.57,2.39-3.15,3.1-4.75ZM48.47,25.2h43.06v3.6h-43.06v-3.6ZM49.23,2.98h41.76v3.7h-41.76v-3.7ZM51.25,39.84h38.02v3.6h-38.02v-3.6ZM53.94,9.55h32.54v13.25h-32.54v-13.25ZM58.07,32.83h23.86v3.31h-23.86v-3.31ZM58.31,12.29v2.54h23.62v-2.54h-23.62ZM58.31,17.47v2.59h23.62v-2.59h-23.62ZM59.55.05h4.37v8.98h-4.37V.05ZM67.91,29.81h4.51v11.76h-4.51v-11.76ZM79.43,26.21c.93,1.12,2.09,2.2,3.48,3.24,1.39,1.04,2.94,1.95,4.66,2.74,1.71.79,3.45,1.4,5.21,1.85-.48.42-.98.97-1.51,1.66-.53.69-.95,1.3-1.27,1.85-1.82-.61-3.62-1.42-5.38-2.45-1.76-1.02-3.38-2.19-4.85-3.5-1.47-1.31-2.7-2.72-3.7-4.22l3.36-1.15ZM76.11.05h4.46v8.98h-4.46V.05Z"/>
      <path class="cls-2" d="M120.62,7.73c-.32,2.46-.73,5.06-1.22,7.8-.5,2.74-1.16,5.45-1.99,8.14-.96,3.26-2.04,6.02-3.24,8.28-1.2,2.26-2.5,3.98-3.91,5.16-1.41,1.18-2.9,1.78-4.46,1.78s-3.09-.55-4.46-1.66c-1.38-1.1-2.5-2.66-3.36-4.66-.86-2-1.3-4.33-1.3-6.98s.55-5.23,1.66-7.63c1.1-2.4,2.63-4.53,4.58-6.38,1.95-1.86,4.22-3.31,6.82-4.37,2.59-1.06,5.39-1.58,8.4-1.58s5.48.46,7.8,1.39c2.32.93,4.3,2.22,5.95,3.86,1.65,1.65,2.9,3.58,3.77,5.78.86,2.21,1.3,4.56,1.3,7.06,0,3.36-.7,6.34-2.09,8.95s-3.43,4.74-6.12,6.38c-2.69,1.65-5.98,2.76-9.89,3.34l-2.83-4.51c.83-.1,1.6-.2,2.3-.31.7-.11,1.36-.23,1.97-.36,1.54-.35,3-.9,4.39-1.63,1.39-.74,2.63-1.67,3.72-2.81,1.09-1.14,1.94-2.47,2.57-4.01s.94-3.26.94-5.18-.3-3.7-.91-5.35c-.61-1.65-1.5-3.08-2.69-4.3-1.18-1.22-2.64-2.17-4.37-2.86-1.73-.69-3.68-1.03-5.86-1.03-2.62,0-4.96.46-7.01,1.39-2.05.93-3.78,2.15-5.21,3.67-1.42,1.52-2.5,3.16-3.24,4.92-.74,1.76-1.1,3.46-1.1,5.09,0,1.82.22,3.34.67,4.54.45,1.2,1.01,2.09,1.68,2.66s1.36.86,2.06.86,1.42-.36,2.16-1.08c.74-.72,1.48-1.86,2.23-3.43.75-1.57,1.5-3.57,2.23-6,.74-2.3,1.35-4.76,1.85-7.37.5-2.61.86-5.16,1.08-7.66l5.14.1Z"/>
      <path class="cls-2" d="M145.15,12.91h4.66c-.26,1.86-.56,3.81-.91,5.86-.35,2.05-.7,4.02-1.03,5.9-.34,1.89-.68,3.57-1.03,5.04l-4.56-.72c.38-1.44.75-3.07,1.1-4.9s.69-3.71,1.01-5.66c.32-1.95.58-3.79.77-5.52ZM146.78,12.91h12.19v-6.72h-15.22V1.97h19.68v15.22h-16.66v-4.27ZM145.72,23.23h14.69v4.18h-15.26l.58-4.18ZM159.07,23.23h4.7c-.03.48-.06.87-.07,1.18-.02.3-.06.57-.12.79-.22,3.68-.5,6.7-.82,9.05-.32,2.35-.67,4.18-1.06,5.5-.38,1.31-.88,2.27-1.49,2.88-.54.61-1.15,1.03-1.82,1.27-.67.24-1.47.41-2.4.5-.8.1-1.89.14-3.26.12-1.38-.02-2.83-.06-4.37-.12-.03-.74-.2-1.54-.5-2.42-.3-.88-.68-1.66-1.13-2.33,1.54.16,3.01.26,4.42.29,1.41.03,2.42.05,3.02.05.48,0,.89-.03,1.22-.1.34-.06.65-.21.94-.43.42-.35.78-1.11,1.1-2.28.32-1.17.61-2.83.86-4.99.26-2.16.5-4.94.72-8.33l.05-.62ZM175.58.62h4.61v43.97h-4.61V.62Z"/>
      <path class="cls-2" d="M189.96,21.89l3.84.24c.06,2.46,0,5.01-.19,7.63-.19,2.62-.6,5.2-1.22,7.73-.62,2.53-1.59,4.86-2.9,7.01-.22-.32-.51-.67-.86-1.03-.35-.37-.72-.71-1.1-1.03-.38-.32-.74-.54-1.06-.67,1.12-1.89,1.94-3.96,2.45-6.22.51-2.26.83-4.56.96-6.91.13-2.35.16-4.6.1-6.74ZM187.6,14.78h20.78v4.03h-20.78v-4.03ZM189.38,5.62h18.19v3.98h-18.19v-3.98ZM193.41,27.17c.74,2.53,1.67,4.57,2.81,6.12,1.14,1.55,2.5,2.74,4.08,3.58s3.43,1.4,5.54,1.7c2.11.3,4.5.46,7.15.46h5.5c1.26,0,2.58,0,3.96-.02,1.38-.02,2.72-.02,4.03-.02s2.49,0,3.53-.02c1.04-.02,1.83-.04,2.38-.07-.22.32-.46.75-.7,1.3-.24.54-.46,1.1-.65,1.66-.19.56-.34,1.08-.43,1.56h-17.62c-3.2,0-6.02-.2-8.47-.6-2.45-.4-4.59-1.14-6.43-2.21-1.84-1.07-3.4-2.61-4.68-4.61-1.28-2-2.37-4.58-3.26-7.75l3.26-1.06ZM196.44.05h4.22v17.14h-4.22V.05ZM197.3,17.38h4.08v21.74h-4.08v-21.74ZM198.84,24.91h8.98v3.98h-8.98v-3.98ZM205.56,31.44c1.57-.83,3.48-1.89,5.74-3.17,2.26-1.28,4.55-2.59,6.89-3.94l1.25,3.26c-2.02,1.28-4.06,2.57-6.14,3.86-2.08,1.3-3.98,2.49-5.71,3.58l-2.02-3.6ZM209.54,8.06h22.32v3.84h-18.24v18.77h-4.08V8.06ZM227.54,14.5l3.5.96c-.93,3.17-2.1,6.18-3.53,9.02s-3.07,5.4-4.94,7.66-3.94,4.12-6.22,5.59c-.32-.48-.75-1.03-1.3-1.66-.54-.62-1.02-1.11-1.44-1.46,2.14-1.25,4.1-2.91,5.88-4.99,1.78-2.08,3.35-4.42,4.73-7.01,1.38-2.59,2.48-5.29,3.31-8.11ZM217.8.05h4.27c-.03,3.55.05,6.96.24,10.22.19,3.26.47,6.26.84,9,.37,2.74.8,5.12,1.3,7.15.5,2.03,1.06,3.62,1.68,4.75.62,1.14,1.29,1.7,1.99,1.7.42,0,.74-.53.96-1.58.22-1.06.37-2.75.43-5.09.45.45.97.87,1.56,1.27.59.4,1.14.71,1.66.94-.19,2.21-.49,3.94-.89,5.21-.4,1.26-.93,2.14-1.58,2.64-.66.5-1.51.74-2.57.74-1.41,0-2.66-.66-3.74-1.97-1.09-1.31-2.01-3.13-2.76-5.45-.75-2.32-1.37-5.04-1.85-8.16s-.84-6.5-1.08-10.13c-.24-3.63-.39-7.38-.46-11.26ZM223.46,2.02l3.12-1.58c.86.83,1.73,1.78,2.59,2.83.86,1.06,1.5,1.98,1.92,2.78l-3.31,1.87c-.38-.83-.99-1.8-1.82-2.9-.83-1.1-1.66-2.1-2.5-3Z"/>
      <path class="cls-2" d="M246.26.24l4.42,1.34c-1.06,2.72-2.29,5.43-3.7,8.14-1.41,2.7-2.94,5.24-4.58,7.61-1.65,2.37-3.35,4.46-5.11,6.29-.13-.35-.34-.83-.65-1.44-.3-.61-.62-1.22-.96-1.85s-.65-1.1-.94-1.42c1.54-1.54,3.02-3.3,4.44-5.28,1.42-1.98,2.74-4.13,3.96-6.43,1.22-2.3,2.26-4.62,3.12-6.96ZM241.27,12.96l4.56-4.56.05.1v36.05h-4.61V12.96ZM258.31.58l4.42,1.1c-.9,2.59-1.95,5.14-3.17,7.63-1.22,2.5-2.52,4.83-3.91,7.01-1.39,2.18-2.82,4.1-4.3,5.76-.22-.29-.55-.63-.98-1.03-.43-.4-.87-.79-1.32-1.18-.45-.38-.83-.69-1.15-.91,1.44-1.5,2.81-3.24,4.1-5.21,1.3-1.97,2.49-4.08,3.58-6.34,1.09-2.26,2-4.54,2.74-6.84ZM256.82,7.97h22.85v4.37h-25.01l2.16-4.37ZM260.66,9.41h4.66v35.18h-4.66V9.41ZM262.92,18.43h15.6v4.18h-15.6v-4.18ZM262.92,29.04h16.27v4.27h-16.27v-4.27Z"/>
      <path class="cls-2" d="M301.57,31.15l3.65,1.68c-1.5,1.63-3.33,3.17-5.47,4.61-2.14,1.44-4.45,2.71-6.91,3.82-2.46,1.1-4.9,1.99-7.3,2.66-.22-.42-.5-.86-.84-1.32s-.69-.92-1.06-1.37c-.37-.45-.73-.83-1.08-1.15,2.4-.51,4.8-1.22,7.2-2.11,2.4-.9,4.64-1.93,6.72-3.1,2.08-1.17,3.78-2.41,5.09-3.72ZM283.91,29.57h42.38v3.79h-42.38v-3.79ZM284.1,8.3h42.05v3.79h-42.05v-3.79ZM286.02,16.66h38.35v3.65h-38.35v-3.65ZM287.75,1.73l3.89-1.34c.8,1.06,1.57,2.24,2.3,3.55.74,1.31,1.28,2.46,1.63,3.46l-4.13,1.49c-.29-.96-.78-2.11-1.49-3.46-.7-1.34-1.44-2.58-2.21-3.7ZM288.42,23.23h33.65v3.36h-33.65v-3.36ZM293.94,12.29l4.37-.77c.51.74.99,1.57,1.44,2.5.45.93.77,1.73.96,2.4l-4.56.86c-.16-.67-.45-1.48-.86-2.42-.42-.94-.86-1.8-1.34-2.57ZM298.4,0h4.27v10.08h-4.27V0ZM302.72,18.43h4.46v26.16h-4.46v-26.16ZM308.34,31.06c1.02.99,2.25,1.95,3.67,2.88,1.42.93,2.98,1.78,4.68,2.57,1.7.78,3.46,1.46,5.3,2.04,1.84.58,3.69,1.04,5.54,1.39-.32.32-.68.72-1.08,1.2-.4.48-.77.98-1.1,1.49-.34.51-.62.98-.84,1.39-1.89-.51-3.76-1.14-5.62-1.9-1.86-.75-3.64-1.62-5.35-2.62-1.71-.99-3.31-2.07-4.8-3.24-1.49-1.17-2.79-2.42-3.91-3.77l3.5-1.44ZM307.43,0h4.32v9.84h-4.32V0ZM312.13,10.7l4.75,1.15c-.61,1.12-1.22,2.2-1.82,3.24-.61,1.04-1.18,1.93-1.73,2.66l-3.79-1.1c.45-.86.92-1.86,1.42-2.98.5-1.12.89-2.11,1.18-2.98ZM318.51.53l4.7,1.2c-.74,1.28-1.5,2.56-2.28,3.84-.78,1.28-1.5,2.38-2.14,3.31l-3.7-1.15c.42-.67.83-1.43,1.25-2.28.42-.85.82-1.7,1.2-2.57.38-.86.7-1.65.96-2.35Z"/>
    </g>
    <g>
      <rect class="cls-2" y="121.14" width="340" height="200" rx="50" ry="50"/>
      <rect class="cls-2" x="390" y="121.14" width="340" height="200" rx="50" ry="50"/>
      <rect class="cls-2" x="780" y="121.14" width="340" height="200" rx="50" ry="50"/>
      <path class="cls-1" d="M360.39,156.53c.2-1.1.1-2.16-.3-3.2-.28-.74-.75-1.43-1.39-2.07l-16.63-16.72c-.82-.83-1.77-1.34-2.87-1.55-1.1-.2-2.19-.09-3.27.32-.78.3-1.48.74-2.1,1.33l-7.72,7.66c-.78.7-1.58,1.2-2.4,1.52-1.21.47-2.47.59-3.77.37-1.3-.22-2.47-.83-3.5-1.83l-28.27-28.2c-.38-.35-.69-.73-.92-1.14-.23-.41-.43-.83-.6-1.26-.48-1.26-.61-2.5-.39-3.73.22-1.23.9-2.43,2.04-3.62l7.5-7.65c.86-.88,1.41-1.88,1.67-3.03.26-1.14.19-2.23-.21-3.27-.27-.69-.72-1.36-1.37-2.01l-16.55-16.53c-.86-.81-1.86-1.34-2.99-1.57s-2.22-.15-3.26.25c-.69.27-1.36.72-2.01,1.37l-4.01,3.92c-2.38,2.35-4.22,4.94-5.52,7.75s-2.16,5.76-2.57,8.85c-.41,3.09-.37,6.25.11,9.5.48,3.25,1.33,6.47,2.56,9.68,1.53,3.98,4.06,8.68,7.6,14.08,3.54,5.4,8.55,11.3,15.03,17.71,2.74,2.73,5.34,5.17,7.81,7.33,2.47,2.16,4.64,4,6.51,5.51,2.22,1.78,4.27,3.35,6.14,4.72,3.13,2.47,6.41,4.56,9.82,6.26,3.41,1.7,6.84,2.95,10.28,3.77,3.44.81,6.85,1.15,10.22,1,3.37-.15,6.59-.82,9.67-2,3.81-1.46,7.21-3.69,10.19-6.67l4.01-3.92c.77-.84,1.25-1.81,1.46-2.91Z"/>
      <path class="cls-1" d="M750.46,156.53c.2-1.1.1-2.16-.3-3.2-.28-.74-.75-1.43-1.39-2.07l-16.63-16.72c-.82-.83-1.77-1.34-2.87-1.55-1.1-.2-2.19-.09-3.27.32-.78.3-1.48.74-2.1,1.33l-7.72,7.66c-.78.7-1.58,1.2-2.4,1.52-1.21.47-2.47.59-3.77.37-1.3-.22-2.47-.83-3.5-1.83l-28.27-28.2c-.38-.35-.69-.73-.92-1.14-.23-.41-.43-.83-.6-1.26-.48-1.26-.61-2.5-.39-3.73.22-1.23.9-2.43,2.04-3.62l7.5-7.65c.86-.88,1.41-1.88,1.67-3.03.26-1.14.19-2.23-.21-3.27-.27-.69-.72-1.36-1.37-2.01l-16.55-16.53c-.86-.81-1.86-1.34-2.99-1.57s-2.22-.15-3.26.25c-.69.27-1.36.72-2.01,1.37l-4.01,3.92c-2.38,2.35-4.22,4.94-5.52,7.75s-2.16,5.76-2.57,8.85c-.41,3.09-.37,6.25.11,9.5.48,3.25,1.33,6.47,2.56,9.68,1.53,3.98,4.06,8.68,7.6,14.08,3.54,5.4,8.55,11.3,15.03,17.71,2.74,2.73,5.34,5.17,7.81,7.33,2.47,2.16,4.64,4,6.51,5.51,2.22,1.78,4.27,3.35,6.14,4.72,3.13,2.47,6.41,4.56,9.82,6.26,3.41,1.7,6.84,2.95,10.28,3.77,3.44.81,6.85,1.15,10.22,1,3.37-.15,6.59-.82,9.67-2,3.81-1.46,7.21-3.69,10.19-6.67l4.01-3.92c.77-.84,1.25-1.81,1.46-2.91Z"/>
      <path class="cls-1" d="M1140.52,156.53c.2-1.1.1-2.16-.3-3.2-.28-.74-.75-1.43-1.39-2.07l-16.63-16.72c-.82-.83-1.77-1.34-2.87-1.55-1.1-.2-2.19-.09-3.27.32-.78.3-1.48.74-2.1,1.33l-7.72,7.66c-.78.7-1.58,1.2-2.4,1.52-1.21.47-2.47.59-3.77.37-1.3-.22-2.47-.83-3.5-1.83l-28.27-28.2c-.38-.35-.69-.73-.92-1.14-.23-.41-.43-.83-.6-1.26-.48-1.26-.61-2.5-.39-3.73.22-1.23.9-2.43,2.04-3.62l7.5-7.65c.86-.88,1.41-1.88,1.67-3.03.26-1.14.19-2.23-.21-3.27-.27-.69-.72-1.36-1.37-2.01l-16.55-16.53c-.86-.81-1.86-1.34-2.99-1.57s-2.22-.15-3.26.25c-.69.27-1.36.72-2.01,1.37l-4.01,3.92c-2.38,2.35-4.22,4.94-5.52,7.75s-2.16,5.76-2.57,8.85c-.41,3.09-.37,6.25.11,9.5.48,3.25,1.33,6.47,2.56,9.68,1.53,3.98,4.06,8.68,7.6,14.08,3.54,5.4,8.55,11.3,15.03,17.71,2.74,2.73,5.34,5.17,7.81,7.33,2.47,2.16,4.64,4,6.51,5.51,2.22,1.78,4.27,3.35,6.14,4.72,3.13,2.47,6.41,4.56,9.82,6.26,3.41,1.7,6.84,2.95,10.28,3.77,3.44.81,6.85,1.15,10.22,1,3.37-.15,6.59-.82,9.67-2,3.81-1.46,7.21-3.69,10.19-6.67l4.01-3.92c.77-.84,1.25-1.81,1.46-2.91Z"/>
      <g>
        <polygon class="cls-2" points="356.63 255.55 326.63 255.55 326.63 186.73 356.63 186.73 356.63 156.88 408.03 221.14 356.63 285.39 356.63 255.55"/>
        <polygon class="cls-4" points="401.63 221.14 361.63 171.14 361.63 191.73 331.63 191.73 331.63 250.55 361.63 250.55 361.63 271.14 401.63 221.14"/>
      </g>
      <g>
        <polygon class="cls-2" points="742.29 255.55 712.29 255.55 712.29 186.73 742.29 186.73 742.29 156.88 793.69 221.14 742.29 285.39 742.29 255.55"/>
        <polygon class="cls-4" points="787.29 221.14 747.29 171.14 747.29 191.73 717.29 191.73 717.29 250.55 747.29 250.55 747.29 271.14 787.29 221.14"/>
      </g>
      <g>
        <g>
          <path class="cls-3" d="M12.4,179.31c1.13-.26,2.42-.59,3.89-.97,1.46-.38,3.02-.8,4.66-1.26,1.64-.46,3.27-.91,4.88-1.37l.47,3.02c-2.26.67-4.54,1.34-6.84,2.02-2.3.67-4.37,1.28-6.19,1.84l-.86-3.28ZM13.16,156.42h12.49v3.13h-12.49v-3.13ZM13.52,166.64h11.77v3.13h-11.77v-3.13ZM17.88,157.68h3.28v21.17l-3.28.54v-21.71ZM30.26,175.5h3.35c-.17,1.54-.43,2.95-.77,4.25-.35,1.3-.88,2.47-1.58,3.53-.71,1.06-1.67,1.99-2.9,2.81-1.22.82-2.78,1.52-4.68,2.12-.12-.29-.28-.61-.49-.95-.2-.35-.43-.69-.68-1.03-.25-.34-.5-.61-.74-.83,1.68-.46,3.05-1,4.1-1.62s1.88-1.35,2.47-2.18c.59-.83,1.03-1.75,1.31-2.77.29-1.02.49-2.13.61-3.33ZM27.2,156.02h17.28v20.05h-17.28v-20.05ZM30.4,158.83v3.02h10.76v-3.02h-10.76ZM30.4,164.52v3.02h10.76v-3.02h-10.76ZM30.4,170.17v3.06h10.76v-3.06h-10.76ZM36.49,174.74h3.28v8.96c0,.48.05.78.16.9s.35.18.74.18h2.23c.24,0,.43-.1.56-.29.13-.19.23-.59.29-1.19s.1-1.51.13-2.74c.24.17.53.34.86.5.34.17.68.32,1.04.45s.68.23.97.31c-.1,1.56-.26,2.77-.5,3.62-.24.85-.6,1.45-1.08,1.78-.48.34-1.12.5-1.91.5h-3.17c-.98,0-1.73-.12-2.25-.36-.52-.24-.87-.65-1.06-1.24-.19-.59-.29-1.4-.29-2.43v-8.96Z"/>
          <path class="cls-3" d="M60.88,154.51l3.56.86c-.86,2.81-1.95,5.59-3.26,8.33-1.31,2.75-2.89,5.3-4.73,7.67-1.85,2.36-4.01,4.42-6.48,6.17-.12-.34-.28-.7-.49-1.08-.2-.38-.41-.77-.63-1.17-.22-.4-.41-.73-.58-.99,1.63-1.1,3.11-2.41,4.45-3.91,1.33-1.5,2.52-3.13,3.56-4.88s1.95-3.56,2.72-5.44,1.39-3.73,1.87-5.58ZM49.25,159.87h31.79v3.28h-31.79v-3.28ZM53.75,169.48h3.42v18.36h-3.42v-18.36ZM59.26,183.92h21.74v3.17h-21.74v-3.17ZM60.66,171.39h18.94v3.13h-18.94v-3.13ZM68.47,164.84h3.42v20.77h-3.42v-20.77Z"/>
          <path class="cls-3" d="M102.38,160.3c-.24,1.85-.55,3.8-.92,5.85s-.87,4.09-1.49,6.1c-.72,2.45-1.53,4.52-2.43,6.21-.9,1.69-1.88,2.98-2.93,3.87-1.06.89-2.17,1.33-3.35,1.33s-2.32-.41-3.35-1.24c-1.03-.83-1.87-1.99-2.52-3.49s-.97-3.25-.97-5.24.41-3.92,1.24-5.72c.83-1.8,1.97-3.4,3.44-4.79,1.46-1.39,3.17-2.48,5.11-3.28s4.04-1.19,6.3-1.19,4.11.35,5.85,1.04c1.74.7,3.23,1.66,4.46,2.9,1.24,1.24,2.18,2.68,2.83,4.34.65,1.66.97,3.42.97,5.29,0,2.52-.52,4.76-1.57,6.71s-2.57,3.55-4.59,4.79c-2.02,1.24-4.49,2.07-7.42,2.5l-2.12-3.38c.62-.07,1.2-.15,1.73-.23s1.02-.17,1.48-.27c1.15-.26,2.25-.67,3.29-1.22,1.04-.55,1.97-1.25,2.79-2.11.82-.85,1.46-1.85,1.93-3.01.47-1.15.7-2.45.7-3.89s-.23-2.78-.68-4.01c-.46-1.24-1.13-2.31-2.02-3.22-.89-.91-1.98-1.62-3.28-2.14-1.3-.52-2.76-.77-4.39-.77-1.97,0-3.72.35-5.26,1.04-1.54.7-2.84,1.61-3.91,2.75-1.07,1.14-1.88,2.37-2.43,3.69-.55,1.32-.83,2.59-.83,3.82,0,1.37.17,2.5.5,3.4.34.9.76,1.57,1.26,2,.5.43,1.02.65,1.55.65s1.07-.27,1.62-.81c.55-.54,1.11-1.4,1.67-2.57.56-1.17,1.12-2.68,1.67-4.5.55-1.73,1.01-3.57,1.39-5.53.37-1.96.64-3.87.81-5.74l3.85.07Z"/>
          <path class="cls-3" d="M130.62,155.95c-.05.22-.08.49-.11.81-.02.32-.05.66-.09,1.01-.04.35-.07.67-.09.95-.02.62-.05,1.36-.09,2.21-.04.85-.07,1.78-.11,2.77-.04,1-.06,1.99-.07,2.99-.01,1-.02,1.95-.02,2.86s.01,1.98.04,3.13.05,2.29.07,3.4c.02,1.12.05,2.15.07,3.1s.04,1.7.04,2.25c0,1.27-.15,2.27-.45,2.99-.3.72-.71,1.22-1.22,1.51-.52.29-1.13.43-1.85.43-.77,0-1.61-.17-2.52-.5-.91-.34-1.78-.79-2.59-1.37-.82-.58-1.49-1.25-2.02-2.02-.53-.77-.79-1.58-.79-2.45,0-1.1.43-2.2,1.28-3.29.85-1.09,1.97-2.09,3.37-3.01,1.39-.91,2.87-1.66,4.43-2.23,1.63-.6,3.3-1.06,5-1.37,1.7-.31,3.25-.47,4.64-.47,1.8,0,3.41.3,4.82.9,1.42.6,2.53,1.46,3.35,2.59.82,1.13,1.22,2.46,1.22,4,0,1.42-.28,2.69-.85,3.82s-1.42,2.09-2.57,2.88-2.6,1.4-4.36,1.84c-.82.17-1.61.29-2.39.36-.78.07-1.51.13-2.18.18l-1.3-3.67c.72.02,1.45.02,2.2,0,.74-.02,1.45-.11,2.12-.25,1.01-.19,1.94-.5,2.81-.92.86-.42,1.55-.98,2.07-1.69.52-.71.77-1.57.77-2.57,0-.94-.25-1.72-.76-2.36-.5-.64-1.19-1.12-2.05-1.46-.86-.34-1.85-.5-2.95-.5-1.56,0-3.11.16-4.64.49-1.54.32-3.05.77-4.54,1.35-1.1.43-2.11.95-3.02,1.55s-1.63,1.22-2.16,1.85c-.53.64-.79,1.24-.79,1.82,0,.36.12.7.36,1.03.24.32.53.61.88.85.35.24.71.43,1.1.58.38.14.73.22,1.04.22.36,0,.65-.13.88-.38.23-.25.34-.68.34-1.28,0-.67-.02-1.62-.05-2.84-.04-1.22-.07-2.57-.09-4.05-.02-1.48-.04-2.9-.04-4.27,0-1.03,0-2.11.02-3.22.01-1.12.02-2.19.04-3.22.01-1.03.02-1.94.04-2.74.01-.79.02-1.37.02-1.73,0-.26-.01-.58-.04-.94-.02-.36-.05-.71-.07-1.06s-.06-.63-.11-.85h3.96ZM119.57,162.18c1.03.12,1.92.2,2.66.23.74.04,1.45.05,2.12.05.89,0,1.9-.05,3.02-.14,1.13-.1,2.27-.22,3.44-.36,1.16-.14,2.3-.33,3.42-.56,1.12-.23,2.13-.47,3.04-.74l.07,3.53c-.96.22-2.02.42-3.19.61s-2.34.37-3.53.52c-1.19.16-2.32.28-3.38.36-1.07.08-2.01.13-2.83.13-1.08,0-1.99-.02-2.74-.05-.74-.04-1.42-.08-2.02-.13l-.11-3.46ZM141.39,159.91c.89.43,1.88.97,2.97,1.6,1.09.64,2.14,1.27,3.13,1.91,1,.64,1.79,1.19,2.39,1.67l-1.76,2.88c-.43-.41-1-.85-1.71-1.33-.71-.48-1.46-.97-2.27-1.48-.8-.5-1.58-.98-2.34-1.42-.76-.44-1.42-.81-2-1.1l1.58-2.74Z"/>
          <path class="cls-3" d="M162.97,170.85l3.31.5c-1.08,2.38-2.68,4.54-4.81,6.5s-4.93,3.62-8.41,4.99c-.12-.26-.29-.55-.5-.86-.22-.31-.45-.61-.7-.9s-.49-.52-.7-.68c2.16-.74,4.03-1.63,5.6-2.66,1.57-1.03,2.87-2.14,3.89-3.31,1.02-1.17,1.79-2.36,2.32-3.56ZM151.95,173.41h32.29v2.7h-32.29v-2.7ZM152.53,156.74h31.32v2.77h-31.32v-2.77ZM154.04,184.39h28.51v2.7h-28.51v-2.7ZM156.06,161.67h24.41v9.94h-24.41v-9.94ZM159.15,179.13h17.89v2.48h-17.89v-2.48ZM159.33,163.72v1.91h17.71v-1.91h-17.71ZM159.33,167.61v1.94h17.71v-1.94h-17.71ZM160.27,154.54h3.28v6.73h-3.28v-6.73ZM166.53,176.86h3.38v8.82h-3.38v-8.82ZM175.17,174.16c.7.84,1.57,1.65,2.61,2.43s2.21,1.46,3.49,2.05c1.28.59,2.59,1.05,3.91,1.39-.36.31-.74.73-1.13,1.24-.4.52-.71.98-.95,1.39-1.37-.46-2.71-1.07-4.03-1.84-1.32-.77-2.53-1.64-3.64-2.63-1.1-.98-2.03-2.04-2.77-3.17l2.52-.86ZM172.69,154.54h3.35v6.73h-3.35v-6.73Z"/>
          <path class="cls-3" d="M206.23,160.3c-.24,1.85-.55,3.8-.92,5.85s-.87,4.09-1.49,6.1c-.72,2.45-1.53,4.52-2.43,6.21-.9,1.69-1.88,2.98-2.93,3.87-1.06.89-2.17,1.33-3.35,1.33s-2.32-.41-3.35-1.24c-1.03-.83-1.87-1.99-2.52-3.49s-.97-3.25-.97-5.24.41-3.92,1.24-5.72c.83-1.8,1.97-3.4,3.44-4.79,1.46-1.39,3.17-2.48,5.11-3.28s4.04-1.19,6.3-1.19,4.11.35,5.85,1.04c1.74.7,3.23,1.66,4.46,2.9,1.24,1.24,2.18,2.68,2.83,4.34.65,1.66.97,3.42.97,5.29,0,2.52-.52,4.76-1.57,6.71s-2.57,3.55-4.59,4.79c-2.02,1.24-4.49,2.07-7.42,2.5l-2.12-3.38c.62-.07,1.2-.15,1.73-.23s1.02-.17,1.48-.27c1.15-.26,2.25-.67,3.29-1.22,1.04-.55,1.97-1.25,2.79-2.11.82-.85,1.46-1.85,1.93-3.01.47-1.15.7-2.45.7-3.89s-.23-2.78-.68-4.01c-.46-1.24-1.13-2.31-2.02-3.22-.89-.91-1.98-1.62-3.28-2.14-1.3-.52-2.76-.77-4.39-.77-1.97,0-3.72.35-5.26,1.04-1.54.7-2.84,1.61-3.91,2.75-1.07,1.14-1.88,2.37-2.43,3.69-.55,1.32-.83,2.59-.83,3.82,0,1.37.17,2.5.5,3.4.34.9.76,1.57,1.26,2,.5.43,1.02.65,1.55.65s1.07-.27,1.62-.81c.55-.54,1.11-1.4,1.67-2.57.56-1.17,1.12-2.68,1.67-4.5.55-1.73,1.01-3.57,1.39-5.53.37-1.96.64-3.87.81-5.74l3.85.07Z"/>
          <path class="cls-3" d="M226.7,154.33l3.2.83c-.7,1.61-1.55,3.16-2.57,4.66-1.02,1.5-2.06,2.77-3.11,3.8-.19-.19-.46-.4-.81-.63-.35-.23-.7-.46-1.04-.68-.35-.23-.65-.41-.92-.56,1.08-.91,2.09-2.03,3.02-3.35.94-1.32,1.68-2.68,2.23-4.07ZM223.03,164.62h30.78v6.95h-3.35v-4.36h-24.23v4.36h-3.2v-6.95ZM226.27,157.17h11.48v2.77h-11.48v-2.77ZM227.96,159.3l2.92-.79c.46.62.89,1.33,1.31,2.11.42.78.73,1.46.92,2.03l-3.06.9c-.17-.55-.45-1.24-.85-2.05-.4-.82-.81-1.55-1.24-2.2ZM228.4,169.16h3.24v18.83h-3.24v-18.83ZM230.27,169.16h18.07v7.6h-18.07v-2.52h14.69v-2.56h-14.69v-2.52ZM230.41,178.88h20.45v9.07h-3.38v-6.52h-17.06v-2.56ZM230.41,184.32h18.36v2.56h-18.36v-2.56ZM241.1,154.33l3.24.79c-.65,1.54-1.49,3.01-2.54,4.41-1.04,1.4-2.13,2.57-3.26,3.51-.22-.17-.5-.36-.86-.58-.36-.22-.73-.43-1.1-.63-.37-.2-.7-.37-.99-.49,1.18-.84,2.25-1.88,3.22-3.13.97-1.25,1.73-2.54,2.29-3.89ZM236.53,161.92h3.28v4.18h-3.28v-4.18ZM240.53,157.17h14.29v2.77h-14.29v-2.77ZM243.59,159.37l2.99-.86c.55.62,1.11,1.33,1.67,2.11.56.78.98,1.47,1.24,2.07l-3.1.94c-.26-.58-.66-1.27-1.19-2.07-.53-.8-1.07-1.53-1.62-2.18Z"/>
          <path class="cls-3" d="M257.62,180.93c1.01-.26,2.15-.59,3.42-.97,1.27-.38,2.62-.8,4.03-1.26,1.42-.46,2.83-.91,4.25-1.37l.58,3.24c-1.97.67-3.96,1.34-5.98,2.02s-3.84,1.28-5.47,1.84l-.83-3.49ZM258.01,156.81h11.56v3.17h-11.56v-3.17ZM258.37,167.22h10.66v3.13h-10.66v-3.13ZM262.3,158.07h3.24v22.21l-3.24.58v-22.79ZM268.17,183.7h23.29v3.1h-23.29v-3.1ZM270.83,176.29h19.44v3.1h-19.44v-3.1ZM271.15,156.13h18.65v16.45h-18.65v-16.45ZM274.25,159.04v3.92h12.31v-3.92h-12.31ZM274.25,165.7v3.96h12.31v-3.96h-12.31ZM279,157.46h2.92v13.72h.25v13.93h-3.46v-13.93h.29v-13.72Z"/>
          <path class="cls-3" d="M322.23,155.7l2.92,1.55c-2.35,3.19-5.1,6.11-8.24,8.77-3.14,2.65-6.53,5-10.15,7.06-3.62,2.05-7.36,3.81-11.2,5.27-.14-.26-.34-.57-.59-.92s-.52-.7-.79-1.04-.52-.63-.74-.85c3.89-1.32,7.62-2.95,11.2-4.9,3.58-1.94,6.86-4.18,9.86-6.7,3-2.52,5.58-5.27,7.74-8.24ZM294.37,165.81h32.26v3.02h-32.26v-3.02ZM297.54,158.79h20.74v2.99h-20.74v-2.99ZM301.71,172.26h20.59v15.59h-3.53v-12.74h-13.68v12.89h-3.38v-15.73ZM303.59,178.09h16.56v2.66h-16.56v-2.66ZM303.59,183.96h16.56v2.88h-16.56v-2.88ZM306.43,154.54h3.38v12.92h-3.38v-12.92Z"/>
        </g>
        <g>
          <path d="M89.84,233.99c-.42-.42-.62-.91-.62-1.49s.21-1.07.62-1.49c.42-.42.91-.62,1.49-.62s1.07.21,1.49.62.62.91.62,1.49-.21,1.07-.62,1.49-.91.62-1.49.62-1.07-.21-1.49-.62Z"/>
          <path d="M106.11,242.94v.22c0,.5-.07.75-.22.77-.34-.05-1-.7-1.99-1.94,1.5-.56,2.7-1.27,3.6-2.14v-5.76c0-.22-.04-.4-.12-.53h-1.13l-1.42.38-.98-1.15.24-.26c.74.22,1.42.34,2.04.34h.77c.19-.11.45-.36.77-.74.32-.38.53-.58.62-.58.27,0,.69.22,1.26.65.57.43.85.74.85.94,0,.08-.16.24-.49.47-.33.23-.49.43-.49.59v5.09c.38.59.93,1.08,1.63,1.46.05-.18.18-.34.38-.5,1.7-.58,3.1-1.51,4.2-2.81,1.39.88,2.09,1.34,2.1,1.39,0,.05-.02.13-.08.24l-.86-.19c-1.06.94-2.81,1.64-5.26,2.09,1.28.58,3.02.88,5.21.91.8.02,2.1.02,3.91.02s3.87-.1,6.19-.31c-.58.9-.98,1.68-1.2,2.35h-1.34c-8.82,0-14.04-1.29-15.67-3.89-.54.88-1.38,1.85-2.52,2.9ZM105.03,224.41c-.14-.06-.22-.19-.22-.37s.03-.28.1-.28.12,0,.17.02c2.61.91,4.1,2.02,4.46,3.31.03.11.05.29.05.54s-.11.56-.32.92-.4.55-.56.55c-.24,0-.49-.28-.74-.84-.96-2.13-1.94-3.42-2.93-3.86ZM112.28,223.81s.05-.05.16-.05.88.22,2.34.65h2.02v-.82l-.1-1.08c-.02-.11.03-.17.14-.17,1.73.16,2.59.34,2.59.55,0,.08-.12.19-.36.32-.24.14-.36.28-.36.44v.74h1.94c.21-.1.48-.35.8-.77s.56-.62.68-.62c1.41.74,2.11,1.3,2.11,1.71,0,.08-.17.24-.5.48-.34.24-.5.44-.5.6v.82l.14,1.18c-.06.32-.62.49-1.68.5-.32,0-.48-.17-.48-.5l.1-.55h-2.62v1.73h4.27l1.63-1.56c1.06.99,1.68,1.62,1.87,1.87,0,.16-.18.24-.53.24h-13.44c-.46.03-.84.1-1.14.2s-.46.16-.49.16l-1.34-.98v-.07s.03-.07.1-.12c.59.18,1.7.26,3.31.26h3.84v-1.73h-2.45l.1.55c-.03.32-.59.48-1.68.48-.32,0-.48-.17-.48-.5v-.12l.1-1.03v-1.63l-.1-1.13v-.05ZM121.35,237.76l.05-.79h-7.1l.1.79c-.03.32-.59.48-1.68.48,0,.02-.02.02-.05.02-.1,0-.24-.22-.43-.65l.1-1.27v-5.04l-.1-.89c0-.06.05-.1.14-.1.54,0,1.33.22,2.35.65h6.38l1.1-1.03c1.44.74,2.16,1.3,2.16,1.71,0,.08-.17.24-.5.48-.34.24-.5.44-.5.6v3.62l.14,1.42c-.03.32-.59.49-1.68.5-.32,0-.48-.17-.48-.5ZM114.25,232.79h7.2v-.82c0-.14-.05-.28-.14-.41h-7.01s-.05.14-.05.26v.96ZM121.45,233.39h-7.2v1.25h7.2v-1.25ZM121.45,235.24h-7.2v1.13h7.2v-1.13ZM116.79,225.01h-2.45s-.05.14-.05.26v1.37h2.5v-1.63ZM121.33,226.65v-1.22c0-.14-.05-.28-.14-.41h-2.47v1.63h2.62ZM119.53,237.85c3.62,1.19,5.46,1.88,5.54,2.09.16.43.24.72.24.87s0,.24-.02.29c-.02.24-.24.36-.67.36-.62,0-1.44-.49-2.45-1.46-1.1-.59-2.13-1.1-3.07-1.51-.11-.11-.17-.2-.17-.26v-.14c.02-.14.22-.22.6-.22Z"/>
          <path d="M145.6,230.01l1.39-1.44c1.38.98,2.06,1.67,2.06,2.09,0,.1-.16.14-.48.14l-2.81,2.33c-.16.06-.3,0-.43-.17l.53-2.16h-15.7c-.29,2.21-.85,3.43-1.68,3.67-.22.06-.5.1-.84.1-.46,0-.7-.25-.7-.74,0-.32.45-1.05,1.34-2.18.3-.38.71-1.43,1.22-3.14.05-.16.09-.24.13-.25s.07-.01.08-.01c.27,0,.42.26.46.79l.05.98h1.42v-6.19l-.12-1.08c-.02-.1.02-.14.11-.14s.45.14,1.09.43c.64.29,1.08.47,1.32.55h7.58c.21-.1.48-.33.82-.71s.55-.56.64-.56.47.26,1.15.77,1.02.9,1.02,1.18c0,.08-.17.24-.5.48-.34.24-.5.43-.5.58v4.7h1.34ZM131.83,232.02l2.45,1.1h7.2c.21-.1.48-.35.83-.77.34-.42.56-.62.66-.62.29,0,.72.21,1.28.64.57.42.85.78.85,1.07,0,.08-.17.24-.5.48-.34.24-.5.43-.5.58v7.78c0,1.12-.62,1.68-1.85,1.68-.22,0-.49-.17-.79-.5-.78-.86-2.02-1.33-3.7-1.39-.22-.05-.34-.14-.34-.29s.1-.22.29-.24c2.67.27,4.06.41,4.15.41.21,0,.31-.13.31-.41v-2.62h-8.38v2.59c.08,1.04.12,1.69.12,1.94,0,.4-.56.6-1.68.6-.32,0-.48-.19-.48-.58l.1-1.87v-8.26l-.1-1.18c0-.1.02-.14.07-.14ZM142.34,224.7c0-.22-.05-.4-.14-.53h-8.62v5.83h2.88v-3.31l-.1-1.08c-.02-.1.02-.14.11-.14s.45.14,1.09.43c.64.29,1.07.47,1.3.55h3.48v-1.75ZM133.79,235.72h8.38c0-1.2-.05-1.86-.14-1.99h-8.21s-.02.27-.02.72v1.27ZM133.79,238.31h8.38v-1.99h-8.38v1.99ZM142.34,230.01v-2.95h-3.96v2.95h3.96Z"/>
          <path d="M155.78,228.57c-.98.06-1.6.1-1.87.1-1.1,0-1.91-.26-2.42-.77-.3-.34-.46-.68-.47-1.04,0-.36.04-.58.13-.65s.18-.05.26.06c.29.42.6.73.92.95.33.22.87.32,1.63.32s1.56-.03,2.39-.1c.35-1.29.53-2.22.53-2.78s-.23-.95-.7-1.18c-.14-.06-.22-.15-.22-.26,0-.16.1-.21.29-.14,1.02.3,1.64.5,1.85.6,1.06.51,1.59.88,1.61,1.1,0,.08-.12.23-.36.46s-.44.49-.6.79c-.16.3-.37.71-.62,1.2h.02c1.34-.27,2.39-.82,3.14-1.63.08-.1.22-.14.42-.14s.45.06.76.17c1.14.46,1.7.82,1.7,1.08,0,.38-.56.63-1.68.74-.75.4-2.4.72-4.94.96-.4.75-.87,1.53-1.42,2.33h.82c.98,0,1.63.19,1.97.58.26.29.62,1,1.08,2.13l3.86-2.11c.34-.19.5-.44.5-.74,0-.14-.15-.27-.46-.38s-.58-.17-.84-.17-.38-.08-.38-.24.16-.26.48-.31c.05,0,.1,0,.14.02,1.47.08,2.62.53,3.43,1.34.38.38.58.79.58,1.2,0,.34-.3.52-.91.55-.29,0-.49-.02-.6-.06-.11-.04-.2-.04-.26-.01-1.41.48-3.1,1.23-5.09,2.26.21.88.31,1.77.31,2.66,0,1.52-.34,2.28-1.03,2.28-.46,0-.79-.16-.97-.47-.18-.31-.28-.58-.28-.8l.19-1.97v-.77c-.86.43-1.5.75-1.9.96-.94.54-1.42,1.24-1.42,2.09,0,.3.06.62.19.96.46,1.25,1.82,1.87,4.08,1.87h.05c1.1,0,1.75-.06,1.94-.18.19-.12.47-.25.83-.38.36-.14.64-.2.83-.2s.57.1,1.14.3c.57.2.9.38,1,.54.1.18.14.3.14.38,0,.78-1.64,1.18-4.92,1.18-.74,0-1.49-.04-2.26-.12-2.4-.19-3.85-1.25-4.34-3.17-.08-.29-.12-.58-.12-.86,0-1.63,1.16-3.05,3.48-4.25l1.13-.58c-.34-1.26-1-2.1-1.99-2.52h-.07c-.75,0-1.22.13-1.42.38-1.81,2.43-2.92,3.65-3.34,3.65-.29,0-.6-.2-.94-.6-.02-.08-.02-.16-.02-.24,0-.62.32-1.11.96-1.46,1.34-.75,2.7-2.38,4.06-4.9Z"/>
          <path d="M177.32,238.38c-3.06,1.1-5.26,1.82-6.62,2.13,0,.85-.19,1.27-.58,1.27-.45-.37-1.01-1.29-1.68-2.76.58,0,1.53-.1,2.86-.31v-13.82l-.5.02c-.8.03-1.22.06-1.25.1l-.98-.91.17-.26c.64.16,1.42.24,2.35.24h7.7l1.46-1.32c1.18,1.1,1.78,1.72,1.78,1.85,0,.19-.18.29-.53.29h-2.26v16.49l.14,1.8c.03.5-.54.74-1.73.74-.35,0-.51-.19-.48-.58l.14-1.99v-2.97ZM173.22,224.89v3.67h4.1v-3.67h-4.1ZM177.32,229.38h-4.1v4.01h4.1v-4.01ZM177.32,234.21h-4.1v4.18c1.18-.22,2.55-.5,4.1-.82v-3.36ZM182.38,225.69h5.23l1.37-1.37c1.42.82,2.14,1.42,2.14,1.8,0,.02-.16.16-.48.44-.32.28-.5.48-.53.61-.45,3.2-1.57,6.46-3.36,9.77,1.31,1.98,2.93,3.62,4.85,4.92-.74.78-1.21,1.51-1.42,2.18-1.79-1.6-3.29-3.46-4.49-5.57-2.18,2.8-4.05,4.59-5.62,5.38-.1.05-.18.07-.24.07-.19,0-.29-.23-.29-.7,0-.03.08-.11.24-.24,2.05-1.66,3.75-3.62,5.11-5.86-1.54-3.23-2.5-6.82-2.9-10.75l-1.25.19-.98-.94v-.1s.03-.06.1-.1c.51.16,1.35.24,2.52.24ZM185.79,235.5c1.33-2.91,2.07-5.85,2.23-8.81-.08-.13-.13-.25-.14-.36h-5.06c.54,4.11,1.54,7.17,2.98,9.17Z"/>
          <path d="M198.86,229.57c.14,0,.22.09.22.28s-.08.47-.24.85c-.69,1.71-1.11,3.42-1.27,5.11.51.46.77.98.77,1.56s-.38.86-1.13.86c-.26,0-.67-.32-1.25-.96s-.87-2.15-.89-4.54c0-.29,0-.61.02-.96s.16-1.18.42-2.47c.26-1.3.4-2.25.4-2.86s-.18-1.05-.55-1.33c-.37-.28-.57-.45-.61-.5s-.06-.11-.06-.17.02-.12.05-.18c.11-.21.32-.31.62-.31s.64.12,1.01.37.72.53,1.04.84.49.59.49.83-.09.49-.26.74-.36.68-.55,1.28c-.19.6-.34,1.14-.43,1.62-.1.48-.16,1.2-.2,2.17s-.08,1.5-.12,1.6.06.3.3.6l1.03-2.69c.58-1.17.98-1.75,1.2-1.75ZM207.24,232.09c-.48,5.87-2.99,9.69-7.54,11.45-.29.11-.43.03-.43-.24,0-.16.22-.33.65-.5,1.87-.72,3.41-2.57,4.61-5.54.45-1.09.68-2.89.7-5.4,0-4.27-.47-6.41-1.42-6.41-.16,0-.46.17-.89.52-.43.34-.69.52-.77.52-.18,0-.26-.08-.26-.25s.16-.44.48-.83c.64-.8,1.42-1.2,2.33-1.2,1.6.02,2.45,2.65,2.54,7.9Z"/>
          <path d="M212.92,233.2l.12-1.61v-5.93l-.12-1.1c-.02-.1.04-.14.18-.14s.58.06,1.34.18c.76.12,1.14.24,1.14.37,0,.08-.11.18-.34.31-.22.13-.35.25-.38.36v3l.02,2.71h5.3v-7.22l-.12-1.08c-.02-.1.07-.14.25-.14s.63.06,1.34.17,1.07.23,1.07.36c0,.08-.12.19-.36.32-.24.14-.36.29-.36.44v7.15h5.42v-5.69l-.12-1.1c.03-.13.15-.17.36-.12.16,0,.58.06,1.27.17.69.11,1.03.23,1.03.36,0,.08-.12.19-.35.32-.23.14-.35.25-.35.35l-.02,5.57c.08,1.04.12,1.69.12,1.94,0,.4-.53.6-1.58.6-.32,0-.48-.18-.48-.55,0-.13.03-.54.1-1.25h-5.4v9.53h6.38v-5.54l-.14-1.06c-.02-.11.06-.17.24-.17s.62.06,1.34.17c.72.11,1.08.23,1.08.36,0,.08-.11.18-.34.31-.22.13-.34.26-.36.38v5.4l.14,1.85c0,.5-.54.74-1.61.74-.32,0-.48-.18-.48-.55,0-.16.03-.59.1-1.3h-14.66c.06.61.1,1.06.1,1.37-.03.32-.56.48-1.58.48-.32,0-.48-.19-.48-.58l.12-2.04v-5.38l-.14-1.06c-.02-.16.08-.22.29-.17.06,0,.48.06,1.24.17.76.11,1.14.23,1.14.36,0,.08-.11.18-.34.31-.22.13-.35.26-.38.38l.02,5.54h6.5v-9.53h-5.28c.06.61.1.98.1,1.1,0,.46-.53.7-1.58.7-.37,0-.54-.18-.5-.55Z"/>
          <path d="M238.54,233.65c0-.62.32-1.3.96-2.03.64-.73,1.3-1.09,1.99-1.09s1.47.38,2.35,1.13v-3.6c-3.65.54-6.3.82-7.94.84-1.07-.1-1.92-.77-2.54-2.02-.08-.16-.12-.4-.12-.72s.06-.48.17-.48.19.13.24.38c0,.22.14.48.43.77.46.48,1.66.72,3.6.72s3.94-.17,6.02-.5l-.07-2.11c-.22-.64-.79-1.17-1.7-1.58-.35-.16-.53-.32-.53-.48,0-.22.14-.34.43-.34.13,0,.56.09,1.31.28.74.18,1.36.41,1.86.67s.77.44.82.53c.05.09.07.21.07.36s-.04.33-.12.53c-.08.2-.12.43-.12.68v1.18l2.23-.34.91-.31c.61-.21,1-.31,1.18-.31.83,0,1.47.15,1.91.44.44.3.66.56.66.8,0,.43-.58.65-1.75.65h-.24l-2.21-.12h-.6l-2.09.26c-.14,2.13-.22,3.33-.22,3.6v.67c.35.75.54,1.51.58,2.28v.94c0,4.3-2.23,6.99-6.7,8.06-.66-.02-.98-.2-.98-.55,0-.03.22-.12.65-.26h.05c3.07-.74,4.77-2.83,5.09-6.29-.46.7-1.12,1.06-1.97,1.06h-.1c-1.15,0-2.02-.33-2.62-.98-.59-.66-.89-1.54-.89-2.66v-.05ZM242.02,236.1c.43,0,.84-.24,1.24-.73.39-.49.59-1.08.59-1.76,0-1.21-.72-1.82-2.16-1.82h-.1c-.16,0-.45.21-.86.62-.42.42-.62.82-.62,1.22,0,.85.21,1.47.64,1.87.42.4.85.6,1.28.6Z"/>
          <path d="M70.02,281.99c-.42-.42-.62-.91-.62-1.49s.21-1.07.62-1.49c.42-.42.91-.62,1.49-.62s1.07.21,1.49.62.62.91.62,1.49-.21,1.07-.62,1.49-.91.62-1.49.62-1.07-.21-1.49-.62Z"/>
          <path d="M85.59,270.95l2.35.98h3.53l1.44-1.27c1.31.7,1.99,1.22,2.04,1.56l-.86,1.18v3.53l.14,1.71c-.05.32-.62.48-1.7.48-.11,0-.22-.06-.31-.17-.1-.11-.14-.23-.14-.35s.02-.26.07-.42h-4.7v11.18c.1,1.12.14,1.79.14,1.99,0,.38-.58.58-1.75.58-.1,0-.23-.2-.41-.6l.12-1.97v-17.18l-.12-1.08c-.02-.1.02-.14.1-.14h.07ZM92.17,274.62v-1.68c0-.14-.05-.28-.14-.41h-4.58v2.09h4.73ZM87.44,277.55h4.73v-2.3h-4.73v2.3ZM98.34,289.07c-.03,1.17-.71,1.75-2.04,1.75l-.7-.74c-.58-.61-1.64-.94-3.19-1.01-.22-.1-.34-.2-.34-.3s.1-.22.29-.35l3.31.38c.5-.03.74-.23.74-.6v-4.22c-1.82,2.13-4.42,3.93-7.8,5.4-.08.02-.21.02-.38.02s-.26-.08-.26-.25.05-.32.14-.44c2.99-1.76,5.39-3.93,7.2-6.5h-4.25c-.32,0-.94.13-1.85.38-.85-.58-1.27-1-1.27-1.27h.1c.06,0,.32.03.77.1.45.06,1.28.1,2.5.12h5.11v-.91l-.12-1.06c-.02-.11.05-.17.19-.17.06,0,.51.06,1.33.17.82.11,1.24.23,1.24.36l-.72.77v.84h1.06l1.37-1.49c1.3,1.04,1.94,1.61,1.94,1.7v.19c0,.18-.19.26-.58.26h-3.79v6.86ZM103.54,278.17h-4.78l.1.53c-.05.32-.59.48-1.63.48-.11,0-.22-.06-.32-.18-.1-.12-.15-.3-.13-.53.02-.23.04-.48.07-.73v-5.57l-.12-1.08c-.02-.1.02-.14.11-.14s.45.14,1.09.43c.64.29,1.08.47,1.32.55h3.58s.06,0,.07-.02l1.44-1.25c1.31.8,1.97,1.37,1.97,1.7l-.84,1.08v16.82c0,.35-.19.72-.58,1.09-.38.38-.8.56-1.25.56-.19,0-.34-.06-.46-.19-.8-.9-1.93-1.5-3.38-1.8-.22-.05-.34-.15-.34-.3s.1-.23.29-.23l3.31.38c.32,0,.48-.13.48-.38v-11.23ZM98.74,274.62h4.78v-1.68c0-.14-.05-.28-.14-.41h-4.63v2.09ZM98.74,275.25v2.28h4.78v-2.28h-4.78Z"/>
          <path d="M111,272.25h1.9l1.51-1.32c1.17.75,1.81,1.35,1.92,1.8l-1.01.98v10.8l.14,1.82c-.03.32-.61.48-1.73.48-.34,0-.5-.16-.5-.49s.04-.6.12-.83h-2.81l.1,3.24c0,.38-.57.58-1.7.58-.29,0-.45-.19-.48-.58l.12-2.78v-13.46c0-.08-.04-.44-.12-1.08-.02-.13,0-.19.07-.19l2.47,1.03ZM113.23,272.75h-2.69c0,.18,0,.27-.02.29v3.34h2.86v-3.07c0-.22-.05-.41-.14-.55ZM110.52,276.9v3.5h2.86v-3.5h-2.86ZM110.52,280.91v4.08h2.86v-4.08h-2.86ZM117.5,270.97l2.52.98h4.82c.21-.1.5-.33.86-.71.37-.38.6-.56.7-.56s.46.23,1.08.7c.62.46.94.87.94,1.22l-.84.82v5.64l.14,1.7c-.05.32-.66.48-1.82.48-.11,0-.22-.06-.31-.17-.1-.11-.14-.23-.14-.35s.02-.26.07-.42h-2.86c.61,1.66,1.3,3.12,2.06,4.37,1.46-1.12,2.71-2.39,3.77-3.82,1.12,1.02,1.68,1.82,1.68,2.38,0,.13-.06.25-.17.36l-1.2-.31c-1.01.8-2.21,1.51-3.6,2.14,1.41,2.06,3.09,3.5,5.04,4.3-.27.58-.57,1.28-.89,2.11-3.47-1.58-5.96-5.42-7.46-11.52h-2.38l-.02,8.21c1.42-.32,2.54-.62,3.34-.9s1.27-.42,1.42-.42.23.06.25.17c.02.11-.02.24-.13.38-2.56,1.42-5.13,2.46-7.7,3.1-.08.66-.19,1.02-.34,1.08-.29-.03-.79-.94-1.51-2.74.9-.06,1.78-.17,2.66-.31l.02-16.68-.17-1.08c-.02-.1.02-.14.1-.14h.07ZM125.54,275.61v-2.64c0-.14-.05-.28-.14-.41h-5.88v3.05h6.02ZM119.52,279.69h6.02v-3.48h-6.02v3.48Z"/>
          <path d="M132.21,283.07c-.16.06-.29.1-.38.1-.22,0-.34-.16-.34-.48,0-.11.06-.26.19-.43,1.86-3.87,3.14-7.9,3.86-12.1,1.95.3,2.93.66,2.93,1.08l-1.18.43c-.42,1.74-.96,3.36-1.63,4.85.72.1,1.08.19,1.08.29s-.12.21-.37.35-.37.28-.37.44v11.79c.08.99.12,1.68.12,2.06,0,.32-.5.48-1.49.48-.34,0-.52-.19-.55-.58l.12-1.97v-9.6c-.5,1.09-1.16,2.18-1.99,3.29ZM153.62,283.53h-14.14c-.48.02-.86.08-1.14.19-.28.11-.45.17-.52.17l-1.15-.98s-.07-.11-.07-.19.06-.1.19-.07c.93.16,2.05.25,3.36.26h1.1v-6.36h-1.06c-.48.02-.86.08-1.14.19s-.45.17-.52.17l-1.15-.98s-.07-.11-.07-.19.06-.1.19-.07c.93.16,2.05.25,3.36.26h.38v-4.32l-.24-1.08c-.03-.11.06-.17.29-.17s.72.06,1.48.18c.76.12,1.14.24,1.14.37,0,.08-.12.19-.37.32-.25.14-.37.28-.37.44v4.25h3.7v-4.32l-.24-1.08c-.03-.11.06-.17.29-.17s.72.06,1.48.18,1.14.24,1.14.37c0,.08-.12.19-.37.32-.25.14-.37.28-.37.44v4.25h1.44l1.3-1.39c1.2.93,1.8,1.5,1.8,1.73,0,.19-.18.29-.55.29h-3.98v6.36h2.28l1.3-1.39c1.2.93,1.8,1.5,1.8,1.73,0,.19-.18.29-.55.29ZM137.59,291.83c-.1.06-.21.1-.34.1-.19,0-.29-.12-.29-.36,0-.05.05-.15.14-.31,2.26-1.68,3.84-3.95,4.75-6.82,1.87.66,2.81,1.14,2.81,1.44l-1.13-.07c-1.17,2.34-3.15,4.34-5.95,6.02ZM146.88,276.54h-3.7v6.36h3.7v-6.36ZM152.81,290.44c0,.87-.36,1.36-1.08,1.49-.29,0-.54-.25-.77-.74-1.06-2.21-2.46-4.09-4.22-5.64-.16-.06-.24-.14-.24-.24.02-.21.14-.31.36-.31s.42.05.6.14l.72.41c1.15.66,2.57,1.88,4.25,3.67.26.35.38.76.38,1.22Z"/>
          <path d="M163.05,289.21c2.66-.14,4.28-.3,4.87-.48.37.03.55.1.55.19,0,.05-.06.11-.17.19-.78.61-4,1.23-9.65,1.87l-.74,1.08c-.38-.06-.75-.98-1.1-2.74.38.02.95.02,1.69.02s1.62-.02,2.63-.05v-7.73c-1.57,1.2-3.34,2.22-5.33,3.07-.13.05-.24.07-.34.07-.26,0-.38-.1-.38-.29,0-.11.07-.21.22-.29,2.51-1.44,4.67-3.22,6.48-5.33h-3.79c-.67.02-1.21.13-1.61.34l-1.15-.94s-.02-.09-.02-.12c0-.11.06-.18.17-.19.91.16,2.01.25,3.29.26h6.91v-1.68h-5.06c-.67.02-1.21.13-1.61.34l-1.15-.94s-.02-.09-.02-.12c0-.11.06-.18.17-.19.91.16,2.01.25,3.29.26h4.39v-1.73h-6.14c-.67.02-1.21.13-1.61.34l-1.15-.94s-.02-.09-.02-.12c0-.11.06-.18.17-.19.91.16,2.01.25,3.29.26h2.66c-.16-.26-.37-.78-.62-1.56l-1.18-1.54c.03-.13.11-.19.24-.19l.62.26c1.7.66,2.54,1.32,2.54,1.99,0,.48-.1.82-.29,1.03h4.99c.05-.11.12-.24.22-.38.5-.85.78-1.84.86-2.98,1.97.26,2.98.53,3.02.82l-1.3.65c-.46.75-1.01,1.38-1.63,1.9h2.71l1.61-1.46,1.99,1.85c0,.18-.18.26-.53.26h-8.4v1.73h4.25l1.61-1.46,1.99,1.85c0,.18-.18.26-.53.26h-7.32v1.68h6.77l1.61-1.46,1.99,1.85c0,.18-.18.26-.53.26h-6.77c2.32,1.76,4.79,3.05,7.42,3.86-.75.64-1.28,1.3-1.58,1.97-1.3-.8-2.58-1.74-3.86-2.81l-.74,1.03v1.94l.14,1.61c-.05.32-.62.48-1.7.48-.26,0-.38-.18-.38-.53v-.17h-2.81c1.09.66,2.17,1.23,3.24,1.73,1.49-.96,2.58-1.94,3.29-2.95,1.18.9,1.81,1.54,1.87,1.92.03.18-.02.34-.14.5l-1.27-.12c-.64.4-1.56.75-2.76,1.06,2.02.83,4.02,1.37,6.02,1.61-.74.58-1.25,1.23-1.54,1.97-3.47-1.01-6.82-2.91-10.06-5.71h-2.78v3ZM162.21,280.69c.64.22,1.08.38,1.32.46h2.11v-.43l-.12-1.08c-.02-.11.04-.17.17-.17,1.73,0,2.59.18,2.59.55,0,.08-.12.19-.36.32-.24.14-.36.29-.36.44v.36h1.99l.98-1.03c.32.22.61.42.86.6-.66-.59-1.3-1.22-1.94-1.9h-5.38c-.58.66-1.2,1.28-1.87,1.87ZM170.01,282.33c0-.22-.05-.4-.14-.53h-6.82v1.58h6.96v-1.06ZM163.05,283.96v1.66h6.96v-1.66h-6.96Z"/>
          <path d="M192.4,292.96h-1.06c-1.41-.72-2.75-1.92-4.03-3.6-1.73-2.29-2.59-4.93-2.59-7.92,0-2.21.42-4.13,1.27-5.76.85-1.63,1.76-2.9,2.75-3.79.98-.9,1.72-1.49,2.22-1.78l.38-.22h1.06c-.5.32-1.08.86-1.75,1.63-.67.77-1.24,1.56-1.69,2.36-.46.81-.88,1.89-1.26,3.24-.38,1.35-.58,2.68-.58,4,0,2.45.34,4.48,1.02,6.11.68,1.62,1.42,2.9,2.21,3.82s1.36,1.49,1.72,1.71l.34.19Z"/>
          <path d="M202.05,286.96c-.08,0-.19-.01-.32-.04-.14-.02-.26-.32-.38-.9-.12-.58-.24-1.06-.37-1.46-2.5,1.26-4.4,1.98-5.71,2.16-.02.69-.1,1.03-.26,1.03-.43,0-.95-1.05-1.56-3.14.11.02.35.03.71.03s.83-.02,1.4-.05c.56-2.05.93-4.1,1.1-6.17h-.48c-.48.02-.86.08-1.14.19-.28.11-.45.17-.52.17l-1.15-.98c.03-.08.07-.17.12-.26.93.16,2.05.25,3.36.26h2.47l1.46-1.42c1.22.83,1.82,1.38,1.82,1.64s-.18.4-.55.4h-3.19c-.54,1.87-1.35,3.9-2.42,6.1,1.47-.14,2.87-.41,4.2-.79-.38-.91-.9-1.86-1.54-2.83l-.17-.14c.03-.22.14-.34.31-.36.21,0,.43.11.67.34,2.14,1.84,3.22,3.34,3.22,4.5s-.36,1.74-1.08,1.74ZM197.44,274.17h1.39l1.46-1.42c1.22.83,1.82,1.38,1.82,1.64s-.18.4-.55.4h-4.8c-.48.02-.86.08-1.14.19s-.45.17-.52.17l-1.15-.98c.03-.08.07-.17.12-.26.93.16,2.05.25,3.36.26ZM212.66,282.37c-.45,0-.67-.11-.67-.34,0-.1.02-.21.07-.34h-2.09v6.86c0,.88.3,1.32.91,1.32h2.93c.74,0,1.17-.22,1.3-.67.18-.66.35-.98.53-.98s.3.39.38,1.18l.34.38c.19.18.29.34.29.5s-.02.3-.05.41c-.24.67-.86,1.01-1.87,1.01h-4.46c-1.38,0-2.06-.8-2.06-2.4v-7.61h-.96v1.39c0,4.66-3.38,7.62-10.13,8.9-.24,0-.36-.14-.36-.41,0-.14.09-.24.26-.29,5.65-1.34,8.47-4.21,8.47-8.59l.02-1.01h-.82l.1.55c0,.32-.51.48-1.54.48-.29,0-.45-.19-.48-.58l.1-1.51v-6.22c0-.56,0-.91-.02-1.06-.02-.14-.02-.38-.02-.7l2.5,1.03h.7c.48-1.17.79-2.33.94-3.48,1.98.48,2.98.84,2.98,1.08s-.44.37-1.32.38c-.38.85-.86,1.52-1.44,2.02h4.03c.21-.1.48-.34.83-.73.34-.39.58-.59.71-.59.27,0,.7.25,1.28.74.58.5.88.88.88,1.15l-1.01.86v5.14l.14,1.61c.03.32-.42.48-1.37.48ZM207.4,274.38h-2.71c-.03.11-.05.21-.05.29v2.54h2.76v-2.83ZM207.4,281.03v-3.17h-2.76v3.17h2.76ZM209.28,274.38v2.83h2.83v-2.28c0-.22-.05-.41-.14-.55h-2.69ZM209.28,281.03h2.83v-3.17h-2.83v3.17ZM216.04,287.37c0,.61-.33.91-.98.91-.32,0-.5-.27-.55-.82-.02-.11-.05-.25-.1-.41-.88.5-1.89.91-3.02,1.25.06.18.1.33.1.46,0,.19-.1.29-.29.29s-.58-.92-1.15-2.76h.89c.4-1.57.66-2.84.77-3.82,1.41.16,2.42.54,3.02,1.15-.02.1-.13.14-.34.14s-.46-.02-.77-.07c-.56,1.06-1.13,1.92-1.7,2.59.91-.03,1.65-.08,2.21-.14-.14-.37-.33-.78-.55-1.22l-.1-.05c.02-.21.12-.29.3-.24.18.05.32.11.42.19.99.78,1.55,1.34,1.67,1.68s.18.62.18.86Z"/>
          <path d="M217.99,275.05c1.07.18,1.86.27,2.38.29h.98v-3.41l-.12-1.08c-.02-.11.06-.17.24-.17s.62.06,1.34.18c.72.12,1.08.24,1.08.37,0,.08-.12.19-.37.32-.25.14-.37.28-.37.44v3.34h.41l1.32-1.39c1.06,1.25,1.58,1.88,1.58,1.9,0,.19-.19.29-.58.29h-2.74v4.82l3-1.44c.3-.02.46.06.46.22,0,.06-.02.22-.07.48-1.14.7-2.26,1.42-3.38,2.13v7.78c0,1.2-.57,1.8-1.7,1.8l-.94-.74c-.8-.64-1.58-.97-2.35-1.01-.22-.1-.34-.2-.34-.3s.1-.22.29-.35l2.14.38c.74-.03,1.1-.21,1.1-.53v-6.12c-.48.22-.92.43-1.32.62-.05.75-.2,1.13-.46,1.13-.3,0-.86-.9-1.68-2.69,1.09-.14,2.24-.43,3.46-.86v-5.33h-.84l-1.42.17-1.1-1.25ZM224.4,291.85c-.1.05-.22.07-.38.07-.19,0-.29-.11-.29-.34,0-.16.1-.35.29-.58,2.96-3.1,4.75-8.29,5.38-15.55h-.53c-.48.02-.86.08-1.14.18-.28.1-.45.16-.52.16l-1.34-1.03s-.05-.08-.05-.16.02-.11.05-.11.28.04.76.13c.47.09,1.36.15,2.65.18h.17c.1-1.3.15-2.66.17-4.08l-.02-.41c2.16.22,3.25.56,3.26,1.01l-1.18.48c-.03,1.04-.09,2.04-.17,3h5.06l1.61-1.54c1.52.98,2.28,1.62,2.28,1.94,0,.16-.18.24-.55.24h-8.45c-.14,1.41-.34,2.74-.58,3.98h4.37l1.37-1.37c1.5.82,2.26,1.42,2.26,1.8,0,.02-.18.17-.55.44s-.57.48-.6.61c-.56,2.19-1.44,4.1-2.64,5.74,1.52,1.39,3.33,2.42,5.42,3.07-.54.64-1.02,1.37-1.42,2.18-2.05-.98-3.78-2.26-5.18-3.84-1.5,1.6-3.38,2.87-5.64,3.82-.08.03-.23.05-.46.05s-.34-.1-.34-.31c0-.06.08-.14.24-.24,2.11-1.23,3.83-2.77,5.16-4.61-1.06-1.49-1.89-3.2-2.5-5.14-1.18,4.45-3.18,7.85-5.98,10.2ZM233.81,285.35c.83-1.47,1.45-3.1,1.85-4.9-.1-.11-.14-.22-.14-.34h-4.63c.75,2.03,1.73,3.78,2.93,5.23Z"/>
          <path d="M252.13,280.43c-1.9.32-3.34.48-4.32.48-2.64,0-4.37-.87-5.18-2.62-.02-.05-.02-.1-.02-.14,0-.18.12-.27.36-.29.86,1.06,1.99,1.58,3.38,1.58h.22l.38-.02c1.66-.05,3.2-.19,4.61-.43-.38-.88-.81-1.74-1.27-2.57-1.33.16-2.22.24-2.66.24-1.66,0-2.84-.77-3.53-2.3.02-.32.15-.48.41-.48.43.88,1.27,1.34,2.52,1.39.34.02.74.02,1.21.02s.9-.04,1.28-.12c-.38-.99-.96-1.82-1.73-2.47-.38-.45-.82-.67-1.3-.67s-.75-.05-.82-.14c-.06-.1-.1-.18-.12-.24,0-.3.51-.46,1.54-.46s1.73.17,2.12.52c.39.34.57.65.54.92l-.02.21c.27.42.74,1.1,1.42,2.06l.5-.1c.51-.4.89-.75,1.13-1.04.24-.29.53-.44.88-.44s.68.08,1,.24c.61.3.91.62.91.95s-.23.57-.7.73c-.78.45-1.78.77-3,.96.48.83.91,1.62,1.3,2.38,1.36-.42,2.25-.88,2.66-1.38s.77-.76,1.06-.76.71.1,1.26.31c.55.21.83.44.83.71s-.15.47-.46.61c-1.89.93-3.43,1.59-4.63,1.99,1.17,2.54,1.75,4.62,1.75,6.24,0,.37-.18.55-.53.55-.3,0-.76-.22-1.37-.67-1.57-1.17-3.37-1.75-5.4-1.75-2.3,0-3.47.66-3.5,1.99.1,1.82,1.57,2.82,4.42,3,.61.03,1.06.05,1.34.05s.46-.02.5-.05c.34-.19.53-.31.59-.35.06-.04.12-.04.2.01,1.57.58,2.35,1.12,2.35,1.63,0,.05-.05.13-.16.24-.1.11-.7.21-1.79.31-.32,0-.95-.04-1.9-.12-4.59-.4-6.97-2.01-7.13-4.82v-.17c0-1.97,1.87-2.95,5.62-2.95,1.44,0,2.91.49,4.42,1.46-.3-1.47-.7-2.89-1.18-4.25Z"/>
          <path d="M263.1,292.96l.34-.19c.35-.22.92-.79,1.7-1.71.78-.92,1.52-2.19,2.21-3.82.69-1.62,1.03-3.66,1.03-6.11,0-1.31-.19-2.64-.58-4-.38-1.35-.81-2.43-1.27-3.24-.46-.81-1.03-1.6-1.69-2.36-.66-.77-1.24-1.31-1.74-1.63h1.06l.38.22c.48.29,1.22.88,2.21,1.78.99.9,1.91,2.16,2.76,3.79.85,1.63,1.27,3.55,1.27,5.76,0,2.99-.86,5.63-2.59,7.92-1.28,1.68-2.62,2.88-4.03,3.6h-1.06Z"/>
        </g>
      </g>
      <g>
        <g>
          <path class="cls-3" d="M437.25,157.53h12.67v13.97h-3.28v-10.8h-9.4v-3.17ZM437.25,167.07h3.28v11.3c0,.6.1.98.31,1.13s.65.23,1.35.23h4.5c.41,0,.71-.1.92-.29.2-.19.35-.58.43-1.15s.15-1.44.2-2.59c.24.19.54.37.9.54.36.17.73.32,1.12.45.38.13.73.25,1.04.34-.12,1.56-.33,2.77-.63,3.64s-.74,1.46-1.33,1.8-1.39.5-2.39.5h-5.15c-1.18,0-2.09-.13-2.75-.4-.66-.26-1.12-.73-1.39-1.39-.26-.66-.4-1.59-.4-2.79v-11.34ZM439.08,167.07h8.82v3.13h-8.82v-3.13ZM463.56,162.36l3.49.4c-.48,3.34-1.15,6.33-2.02,8.98-.86,2.65-1.96,5-3.29,7.06-1.33,2.05-2.97,3.85-4.91,5.38-1.94,1.54-4.24,2.84-6.88,3.92-.12-.26-.3-.58-.54-.95s-.5-.75-.77-1.13c-.28-.38-.52-.7-.74-.94,3.36-1.22,6.1-2.83,8.21-4.82,2.11-1.99,3.76-4.46,4.93-7.42,1.18-2.95,2.02-6.44,2.52-10.48ZM455.39,154.54l3.56.65c-.48,2.18-1.06,4.3-1.75,6.34-.68,2.04-1.47,3.92-2.36,5.65-.89,1.73-1.86,3.25-2.92,4.57-.22-.19-.51-.43-.88-.7-.37-.28-.75-.55-1.13-.83-.38-.28-.72-.49-1.01-.63,1.06-1.15,2-2.52,2.83-4.1s1.55-3.31,2.16-5.18,1.11-3.79,1.49-5.76ZM456.18,163.72c.65,3.31,1.55,6.36,2.7,9.14,1.15,2.79,2.65,5.21,4.5,7.29,1.85,2.08,4.09,3.67,6.73,4.77-.24.22-.52.5-.83.85s-.6.71-.86,1.1c-.26.38-.48.73-.65,1.04-2.81-1.34-5.17-3.15-7.07-5.42-1.91-2.27-3.47-4.94-4.7-8.01-1.22-3.07-2.2-6.47-2.92-10.19l3.1-.58ZM454.74,161.02h14.9v3.2h-14.9v-3.2Z"/>
          <path class="cls-3" d="M472.71,178.34h32.8v2.92h-32.8v-2.92ZM482.04,162.93l2.66.76c-.7,1.13-1.58,2.17-2.66,3.11-1.08.95-2.25,1.8-3.49,2.56-1.25.76-2.51,1.41-3.78,1.96-.14-.19-.33-.42-.56-.68-.23-.26-.47-.53-.74-.79-.26-.26-.49-.48-.68-.65,1.87-.65,3.66-1.51,5.36-2.59s3-2.3,3.89-3.67ZM473.14,156.7h32.15v2.74h-32.15v-2.74ZM481.57,175.64h3.17v3.46c0,.89-.11,1.77-.32,2.65-.22.88-.65,1.71-1.3,2.5-.65.79-1.6,1.52-2.84,2.18-1.25.66-2.9,1.22-4.97,1.67-.12-.26-.29-.55-.52-.86-.23-.31-.47-.62-.74-.94-.26-.31-.5-.56-.72-.76,1.82-.36,3.29-.78,4.39-1.26,1.1-.48,1.93-1.01,2.48-1.6.55-.59.92-1.19,1.1-1.82s.27-1.25.27-1.87v-3.35ZM486.57,166.35h.58l.54-.14,1.91.83c-.94,2.4-2.59,4.43-4.95,6.08-2.36,1.66-5.53,2.89-9.49,3.71-.17-.34-.41-.73-.72-1.17-.31-.44-.62-.82-.94-1.13,3.67-.67,6.59-1.67,8.77-3.01s3.61-2.89,4.3-4.66v-.5ZM474.01,162.28h30.53v2.7h-30.53v-2.7ZM476.82,169.77l2.09-1.26c.53.26,1.07.58,1.64.94.56.36,1.1.72,1.6,1.08.5.36.92.7,1.26,1.01l-2.16,1.37c-.31-.31-.72-.65-1.22-1.03s-1.03-.75-1.58-1.13c-.55-.38-1.09-.71-1.62-.97ZM479.44,166.35h7.96v2.09h-7.96v-2.09ZM481.39,154.51h3.35v7.13h-3.35v-7.13ZM490.5,164.19h3.1v7.45c0,.46.11.76.34.9.23.14.75.22,1.57.22h5.4c.41,0,.71-.07.92-.2s.35-.37.45-.72.17-.89.22-1.64c.31.22.74.42,1.28.61.54.19,1.01.34,1.42.43-.1,1.1-.28,1.95-.56,2.54-.28.59-.68,1-1.22,1.24-.54.24-1.27.36-2.18.36h-6.08c-1.22,0-2.17-.11-2.84-.32-.67-.22-1.14-.6-1.4-1.15-.26-.55-.4-1.31-.4-2.27v-7.45ZM501.04,165.74l2.38,1.87c-.98.41-2.09.79-3.33,1.13-1.24.35-2.5.65-3.78.92-1.28.26-2.53.49-3.73.68-.07-.26-.19-.61-.36-1.03-.17-.42-.34-.76-.5-1.03,1.13-.22,2.27-.46,3.44-.72,1.16-.26,2.26-.56,3.29-.88,1.03-.32,1.9-.64,2.59-.95ZM493.41,154.51h3.38v7.13h-3.38v-7.13ZM493.52,175.64h3.46v12.35h-3.46v-12.35Z"/>
          <path class="cls-3" d="M518.06,172.29h3.53c-.17,1.78-.44,3.46-.83,5.04-.38,1.58-.97,3.05-1.75,4.41-.78,1.36-1.85,2.57-3.2,3.64-1.36,1.07-3.11,1.99-5.27,2.75-.12-.31-.3-.64-.54-.99-.24-.35-.5-.7-.77-1.06-.28-.36-.55-.65-.81-.86,1.94-.62,3.52-1.37,4.72-2.25s2.13-1.87,2.79-2.97c.66-1.1,1.15-2.3,1.46-3.58.31-1.28.54-2.66.68-4.12ZM508.91,169.77h31.9v3.28h-31.9v-3.28ZM515.25,155.23l3.46.68c-.38,1.39-.85,2.84-1.39,4.36s-1.15,2.98-1.84,4.39c-.68,1.42-1.45,2.65-2.29,3.71-.26-.17-.58-.35-.94-.56-.36-.2-.72-.4-1.08-.58-.36-.18-.68-.32-.97-.41.82-1.03,1.55-2.21,2.2-3.53.65-1.32,1.21-2.68,1.69-4.09.48-1.4.86-2.73,1.15-3.98ZM514.85,159.84h23.26v3.28h-23.26v-3.28ZM523.13,154.54h3.46v16.24h-3.46v-16.24ZM527.67,172.22h3.42v10.62c0,.58.09.94.27,1.1s.59.23,1.24.23h3.92c.41,0,.72-.13.94-.38.22-.25.37-.74.45-1.48.08-.73.15-1.85.2-3.37.24.19.55.38.92.56.37.18.76.34,1.15.49.4.14.74.25,1.03.32-.1,1.87-.29,3.32-.59,4.34-.3,1.02-.74,1.73-1.33,2.14-.59.41-1.41.61-2.47.61h-4.68c-1.2,0-2.12-.14-2.75-.41-.64-.28-1.08-.75-1.33-1.42-.25-.67-.38-1.58-.38-2.74v-10.62Z"/>
          <path class="cls-3" d="M562.87,160.3c-.24,1.85-.55,3.8-.92,5.85s-.87,4.09-1.49,6.1c-.72,2.45-1.53,4.52-2.43,6.21-.9,1.69-1.88,2.98-2.93,3.87-1.06.89-2.17,1.33-3.35,1.33s-2.32-.41-3.35-1.24c-1.03-.83-1.87-1.99-2.52-3.49-.65-1.5-.97-3.25-.97-5.24s.41-3.92,1.24-5.72,1.97-3.4,3.44-4.79c1.46-1.39,3.17-2.48,5.11-3.28,1.94-.79,4.04-1.19,6.3-1.19s4.11.35,5.85,1.04c1.74.7,3.23,1.66,4.46,2.9,1.24,1.24,2.18,2.68,2.83,4.34.65,1.66.97,3.42.97,5.29,0,2.52-.52,4.76-1.57,6.71s-2.57,3.55-4.59,4.79c-2.02,1.24-4.49,2.07-7.42,2.5l-2.12-3.38c.62-.07,1.2-.15,1.73-.23.53-.08,1.02-.17,1.48-.27,1.15-.26,2.25-.67,3.29-1.22,1.04-.55,1.97-1.25,2.79-2.11.82-.85,1.46-1.85,1.93-3.01.47-1.15.7-2.45.7-3.89s-.23-2.78-.68-4.01-1.13-2.31-2.02-3.22c-.89-.91-1.98-1.62-3.28-2.14-1.3-.52-2.76-.77-4.39-.77-1.97,0-3.72.35-5.26,1.04-1.54.7-2.84,1.61-3.91,2.75-1.07,1.14-1.88,2.37-2.43,3.69-.55,1.32-.83,2.59-.83,3.82,0,1.37.17,2.5.5,3.4.34.9.76,1.57,1.26,2,.5.43,1.02.65,1.55.65s1.07-.27,1.62-.81c.55-.54,1.11-1.4,1.67-2.57.56-1.17,1.12-2.68,1.67-4.5.55-1.73,1.01-3.57,1.39-5.53.37-1.96.64-3.87.81-5.74l3.85.07Z"/>
          <path class="cls-3" d="M583.34,154.33l3.2.83c-.7,1.61-1.55,3.16-2.57,4.66-1.02,1.5-2.06,2.77-3.11,3.8-.19-.19-.46-.4-.81-.63-.35-.23-.7-.46-1.04-.68-.35-.23-.65-.41-.92-.56,1.08-.91,2.09-2.03,3.02-3.35.94-1.32,1.68-2.68,2.23-4.07ZM579.67,164.62h30.78v6.95h-3.35v-4.36h-24.23v4.36h-3.2v-6.95ZM582.91,157.17h11.48v2.77h-11.48v-2.77ZM584.6,159.3l2.92-.79c.46.62.89,1.33,1.31,2.11.42.78.73,1.46.92,2.03l-3.06.9c-.17-.55-.45-1.24-.85-2.05-.4-.82-.81-1.55-1.24-2.2ZM585.03,169.16h3.24v18.83h-3.24v-18.83ZM586.9,169.16h18.07v7.6h-18.07v-2.52h14.69v-2.56h-14.69v-2.52ZM587.04,178.88h20.45v9.07h-3.38v-6.52h-17.06v-2.56ZM587.04,184.32h18.36v2.56h-18.36v-2.56ZM597.74,154.33l3.24.79c-.65,1.54-1.49,3.01-2.54,4.41-1.04,1.4-2.13,2.57-3.26,3.51-.22-.17-.5-.36-.86-.58-.36-.22-.73-.43-1.1-.63-.37-.2-.7-.37-.99-.49,1.18-.84,2.25-1.88,3.22-3.13.97-1.25,1.73-2.54,2.29-3.89ZM593.17,161.92h3.28v4.18h-3.28v-4.18ZM597.16,157.17h14.29v2.77h-14.29v-2.77ZM600.22,159.37l2.99-.86c.55.62,1.11,1.33,1.67,2.11.56.78.98,1.47,1.24,2.07l-3.1.94c-.26-.58-.66-1.27-1.19-2.07-.53-.8-1.07-1.53-1.62-2.18Z"/>
          <path class="cls-3" d="M614.25,180.93c1.01-.26,2.15-.59,3.42-.97s2.62-.8,4.03-1.26c1.42-.46,2.83-.91,4.25-1.37l.58,3.24c-1.97.67-3.96,1.34-5.98,2.02-2.02.67-3.84,1.28-5.47,1.84l-.83-3.49ZM614.65,156.81h11.56v3.17h-11.56v-3.17ZM615.01,167.22h10.66v3.13h-10.66v-3.13ZM618.93,158.07h3.24v22.21l-3.24.58v-22.79ZM624.8,183.7h23.29v3.1h-23.29v-3.1ZM627.46,176.29h19.44v3.1h-19.44v-3.1ZM627.79,156.13h18.65v16.45h-18.65v-16.45ZM630.88,159.04v3.92h12.31v-3.92h-12.31ZM630.88,165.7v3.96h12.31v-3.96h-12.31ZM635.63,157.46h2.92v13.72h.25v13.93h-3.46v-13.93h.29v-13.72Z"/>
          <path class="cls-3" d="M678.87,155.7l2.92,1.55c-2.35,3.19-5.1,6.11-8.24,8.77-3.14,2.65-6.53,5-10.15,7.06-3.62,2.05-7.36,3.81-11.2,5.27-.14-.26-.34-.57-.59-.92s-.52-.7-.79-1.04c-.28-.35-.52-.63-.74-.85,3.89-1.32,7.62-2.95,11.2-4.9,3.58-1.94,6.86-4.18,9.86-6.7,3-2.52,5.58-5.27,7.74-8.24ZM651,165.81h32.26v3.02h-32.26v-3.02ZM654.17,158.79h20.74v2.99h-20.74v-2.99ZM658.35,172.26h20.59v15.59h-3.53v-12.74h-13.68v12.89h-3.38v-15.73ZM660.22,178.09h16.56v2.66h-16.56v-2.66ZM660.22,183.96h16.56v2.88h-16.56v-2.88ZM663.06,154.54h3.38v12.92h-3.38v-12.92Z"/>
        </g>
        <g>
          <path d="M485.94,233.99c-.42-.42-.62-.91-.62-1.49s.21-1.07.62-1.49c.42-.42.91-.62,1.49-.62s1.07.21,1.49.62.62.91.62,1.49-.21,1.07-.62,1.49-.91.62-1.49.62-1.07-.21-1.49-.62Z"/>
          <path d="M508.83,225.73v6.29l.14,1.08c0,.46-.57.7-1.7.7-.29,0-.42-.19-.41-.58l.05-1.15h-4.49c0,.18,0,.27-.02.29v5.66c0,.88.35,1.32,1.06,1.32h3.98c.75,0,1.18-.69,1.3-2.06l.14-1.68c.14-.94.27-1.42.37-1.42s.19.46.25,1.39l.14,2.66.34,1.01c.19.18.29.34.29.5s-.02.3-.05.41c-.24.67-.86,1.01-1.87,1.01h-5.5c-1.5,0-2.26-.8-2.26-2.4-.02-3.09-.02-5.33-.02-6.72l-.12-1.75,2.42,1.03h4.03v-5.81c0-.22-.04-.4-.12-.53h-4.13l-1.42.17-1.1-1.08c1.28.16,2.08.24,2.4.24h3.77l1.39-1.22c1.31.61,1.97,1.14,1.97,1.58l-.84,1.06ZM508.83,243.71c-.1.05-.21.07-.35.07s-.24-.07-.3-.2c-.06-.14-.1-.24-.1-.32s.08-.2.24-.36c2.98-1.22,5.3-3.03,6.96-5.45-1.09-1.97-2-4.33-2.74-7.08-.56,1.31-1.22,2.58-1.99,3.82-.16.08-.3.12-.41.12-.24,0-.36-.09-.36-.26,0-.05.06-.26.19-.62,1.76-4.27,2.66-7.94,2.71-10.99,1.97.21,2.96.52,2.98.94l-1.15.5c-.24,1.3-.55,2.56-.94,3.79h6.14l1.2-1.42c.67.43,1.22,1.02,1.63,1.75,0,.19-.16.29-.48.29h-1.97c-.1,3.68-1.02,6.78-2.76,9.29,1.5,1.78,3.29,3.14,5.35,4.1-.48.69-.96,1.38-1.44,2.06-1.94-1.04-3.62-2.62-5.04-4.75-1.82,2.03-4.29,3.61-7.39,4.73ZM516.18,236.03c1.17-2.18,1.89-4.76,2.16-7.75h-4.97c-.1.29-.2.58-.31.86.77,2.67,1.81,4.97,3.12,6.89Z"/>
          <path d="M529.14,230.89c1.09.5,1.63.97,1.63,1.42,0,.35-.07.63-.22.84-.22.22-.46.34-.7.35-.24,0-.42-.08-.55-.28-.19-.67-.46-1.16-.82-1.46-.1-.08-.18-.15-.24-.22-1.15.78-2.47,1.49-3.96,2.11-.34-.03-.5-.13-.5-.29s.12-.37.36-.62c2.5-1.34,4.34-2.95,5.52-4.82h-2.45c-.18,0-.74.11-1.68.34l-1.27-.91.02-.26c.62.16,1.34.24,2.16.24h15.72c.46-.54.9-1.03,1.3-1.46,1.28.95,1.92,1.54,1.92,1.8,0,.16-.1.25-.29.26h-7.22v3.26c2.16-.64,3.89-1.58,5.18-2.81,1.74.94,2.62,1.63,2.62,2.06l-1.34-.36c-1.65.78-3.8,1.38-6.46,1.78v.82c0,.72.53,1.08,1.58,1.08h3.36c.75,0,1.18-.34,1.3-1.03l.14-.87c.16-.94.29-1.42.38-1.42s.18.46.24,1.39l.14.96.34.86c.19.18.29.34.29.5s-.02.3-.05.41c-.21.59-.83.89-1.87.89h-5.74c-1.3,0-1.94-.68-1.94-2.04v-5.5h-4.06c-.42.61-.89,1.18-1.42,1.73.66,0,1.25,0,1.78-.02l1.25-1.06c.22,0,.6.2,1.12.6.52.4.78.7.78.89l-.94.7c-1.25,2.61-4.63,4.66-10.15,6.17-.18.05-.29.07-.34.07-.27,0-.41-.16-.41-.48,0-.11.08-.19.24-.24,5.2-1.49,8.08-3.39,8.64-5.71-.03-.13-.08-.23-.14-.31h-2.47c-.26.22-.52.44-.79.65ZM526.38,243.78c-.19.05-.31.08-.35.11-.04.02-.08.04-.11.04-.16,0-.24-.11-.24-.34s.06-.4.17-.53c3.04-1.09,4.62-2.52,4.73-4.3h-3.96c-.18,0-.74.11-1.68.34l-1.27-.91.02-.26c.32.16,1.04.24,2.16.24h4.73v-1.49l-.1-1.06c-.02-.11.04-.17.17-.17.06,0,.51.06,1.34.18.83.12,1.25.24,1.25.35l-.74.77v1.42h5.02v-1.18l-.1-1.06c-.02-.11.04-.17.17-.17.06,0,.51.06,1.34.18.83.12,1.25.24,1.25.35l-.74.77v1.1h3.34c.46-.54.9-1.03,1.3-1.46,1.28.94,1.92,1.54,1.92,1.8,0,.16-.1.25-.29.26h-6.26v2.62l.14,1.8s0,.1-.02.26c-.03.32-.59.48-1.68.48-.32,0-.48-.25-.48-.76s.04-1.18.12-2.03v-2.38h-5.02v.17c0,2.22-2.04,3.84-6.12,4.85ZM532.74,224.37h4.32v-1.32l-.12-1.06v-.02c0-.1.07-.14.2-.14s.6.06,1.38.17c.78.11,1.18.23,1.18.36l-.72.77v1.25h3.53c.46-.54.9-1.03,1.3-1.46,1.28.94,1.92,1.54,1.92,1.8,0,.16-.1.25-.29.26h-6.46v.58l.14.98c-.05.32-.62.48-1.7.48-.27,0-.43-.18-.48-.55l.12-.91v-.58h-4.32v.58l.14.98c-.05.32-.62.48-1.7.48-.27,0-.43-.18-.48-.55l.12-.91v-.58h-3.7c-.18,0-.74.11-1.68.34l-1.27-.91.02-.26c.61.16,1.33.24,2.16.24h4.46v-1.32l-.12-1.06v-.02c0-.1.07-.14.2-.14s.6.06,1.38.17c.78.11,1.18.23,1.18.36l-.72.77v1.25Z"/>
          <path d="M562.12,241.89h3.34c.7,0,1.11-.78,1.22-2.33l.22-2.93c.14-.95.27-1.42.37-1.42s.19.46.25,1.39l.14,4.18.34,1.01c.43.4.65.69.65.86,0,.7-.76,1.06-2.28,1.06h-4.85c-1.5,0-2.26-.8-2.26-2.4,0-2.78,0-5.49-.02-8.11h-2.4c-.02.18-.03.35-.05.53-.34,4.82-3.15,8.22-8.45,10.2h-.31c-.24-.02-.36-.12-.36-.31s.09-.33.26-.41c4.42-1.89,6.71-5.05,6.89-9.48l.02-.53h-5.18c-.64,0-1.18.08-1.61.24l-1.1-1.18s.04-.06.07-.1c.86.14,1.84.22,2.93.22h7.15l.02-4.25h-4.68c-.67,1.23-1.54,2.46-2.59,3.7-.3.13-.5.11-.6-.05-.1-.16-.07-.39.07-.7,1.55-2.27,2.58-5.06,3.1-8.35,1.49.27,2.42.68,2.81,1.22l-1.08.36c-.29.78-.74,1.78-1.34,3h4.32v-3.36l-.12-1.06v-.1s.02-.07.05-.07h.26c.08,0,.49.06,1.24.17.74.11,1.12.23,1.12.36,0,.08-.12.19-.36.32-.24.14-.36.29-.36.44v3.29h4.27c.34-.38.77-.82,1.3-1.32,1.28.94,1.92,1.57,1.92,1.87,0,.16-.1.25-.29.26h-7.2v4.25h7.1c.45-.45.88-.89,1.3-1.32,1.28.94,1.92,1.57,1.92,1.87,0,.16-.1.25-.29.26h-7.92v7.37c0,.88.35,1.32,1.06,1.32Z"/>
          <path d="M572.01,238.31l-.02-2.5c0-.43.06-1.36.17-2.77.11-1.42.38-2.84.82-4.28.43-1.44.65-2.27.65-2.5l-.82-1.42c-.06-.13-.07-.3-.03-.53.08-.14.19-.22.32-.22s.42.13.85.38c1.06.64,1.58,1.39,1.58,2.26,0,.32-.4,1.03-1.2,2.14-.62,1.62-.94,3.49-.94,5.62,0,1.25.18,2.42.55,3.53.72-1.44,1.64-2.72,2.76-3.84.02-.02.06-.02.14-.02.16,0,.23.08.21.24-.02.16-.22.52-.59,1.08-.83,1.26-1.42,2.74-1.75,4.44-.02.08-.04.16-.07.24.19.35.29.77.29,1.25,0,1.04-.3,1.56-.91,1.56-.27,0-.6-.26-.97-.78-.38-.52-.64-1.26-.8-2.22-.16-.96-.24-1.51-.24-1.66ZM581.3,234.3c.22,0,.34.12.34.36,0,.08-.21.29-.62.62-.67.66-1.01,1.31-1.01,1.97,0,1.6.87,2.4,2.62,2.4l2.9-.19c.38,0,.7-.1.95-.29.25-.19.52-.29.83-.29h.31c.35,0,.82.16,1.39.49.58.33.86.62.86.88s-.15.45-.44.58c-.3.13-1.02.26-2.17.38-1.15.13-2.09.19-2.82.19s-1.3-.02-1.72-.05c-1.82-.1-3.08-.8-3.77-2.11-.21-.4-.31-.88-.31-1.44s.25-1.2.76-1.91,1.03-1.21,1.57-1.5c.13-.06.24-.1.34-.1ZM585.43,228.09c-1.47.3-2.5.46-3.1.46-1.12,0-2.02-.37-2.71-1.1l-.22-.26s.03-.07.13-.16c.1-.09.21-.13.32-.13s.23.06.36.17c.27.22,1,.34,2.2.34s2.18-.22,2.95-.67c.78-.45,1.24-.67,1.38-.67.37,0,.76.16,1.16.48.41.32.61.64.61.96,0,.24-.21.42-.62.53l-3.55,2.5-.55.34c-.22,0-.34-.06-.34-.19-.02-.13.03-.23.14-.31.46-.34,1.07-1.09,1.82-2.26Z"/>
          <path d="M600.17,232.65c-.66.19-1.33.36-2.02.5v8.21c.1,1.28.14,1.97.14,2.06,0,.32-.58.48-1.73.48-.27,0-.43-.18-.48-.55l.12-1.99v-7.8c-1.29.32-2.39.54-3.29.65-.03.61-.09.91-.17.91-.37-.3-.8-1.22-1.3-2.76h1.01c.56,0,1.27-.02,2.14-.05,1.63-2.18,3.21-4.83,4.73-7.97,1.73.77,2.61,1.28,2.64,1.54.03.21-.07.33-.3.36-.23.03-.42.05-.56.05h-.38c-1.81,2.45-3.34,4.42-4.58,5.93,1.31-.1,2.56-.25,3.74-.46-.26-.69-.5-1.24-.73-1.64-.23-.41-.35-.63-.35-.66.06-.19.2-.26.4-.22.2.05.37.17.52.36,1.65,1.86,2.47,3.23,2.47,4.13,0,.16-.04.39-.12.7-.16.64-.46.96-.89.96-.14,0-.26-.03-.34-.07-.14-.03-.25-.35-.32-.96-.07-.61-.19-1.18-.35-1.7ZM591.49,225.23c.03-.16.15-.24.36-.24s.39.07.55.22c.53.14,1.24.64,2.14,1.49.62-1.39,1.11-3.02,1.46-4.87,1.84.69,2.76,1.28,2.76,1.78,0,.06-.4.2-1.2.41-.5,1.25-1.23,2.42-2.21,3.5.21.21.42.43.65.67.1.27.14.53.14.77,0,.54-.27.98-.82,1.32-.03.03-.06.05-.1.05-.14,0-.34-.24-.6-.72-.88-1.73-1.86-3.1-2.95-4.1-.11-.1-.18-.14-.19-.14v-.12ZM593.26,235.5v-.38l.62.05c1.47.35,2.2.65,2.18.89l-.91.14c-.66,2.9-1.46,5.06-2.4,6.48-.1.16-.24.24-.43.24-.14,0-.22-.12-.22-.37s0-.4.02-.44c.66-2.67,1.03-4.87,1.13-6.6ZM599.17,235.26c-.03-.06-.05-.12-.05-.18s.02-.12.07-.18c.05-.06.1-.1.14-.1.19,0,.4.15.62.46,1.23,2,1.85,3.3,1.85,3.91,0,.4-.11.78-.34,1.14-.22.36-.5.54-.82.54-.13,0-.26-.02-.38-.07-.11-.06-.19-.35-.24-.86-.22-2.42-.51-3.97-.86-4.66ZM602.43,225.71c-.02-.1.01-.14.08-.14s.85.33,2.34.98h2.28c.03-.69.05-1.38.05-2.06s-.02-1.35-.07-1.99v-.41c2.22.3,3.34.66,3.34,1.08-.38.14-.78.29-1.18.43-.03,1.04-.1,2.03-.19,2.95h2.26l1.49-1.27c.29,0,.7.22,1.24.65s.8.79.8,1.06c0,.08-.17.24-.5.48-.34.24-.5.44-.5.6v14.21c0,.35-.19.72-.58,1.09-.38.38-.8.56-1.25.56-.16,0-.46-.26-.91-.77-.66-.75-1.94-1.16-3.86-1.22-.22-.05-.34-.1-.34-.17,0-.24.1-.36.29-.36l4.34.38c.32,0,.48-.13.48-.38v-13.73c0-.21-.05-.38-.14-.53h-2.88c-.1.94-.22,1.82-.38,2.64,1.22,1.25,2.13,2.76,2.74,4.54.16.51.24.97.24,1.37s-.14.75-.41,1.06c-.27.3-.49.46-.65.46-.38,0-.59-.3-.62-.91-.13-1.95-.62-3.86-1.46-5.74-.66,2.96-1.69,5.1-3.1,6.43-.11.05-.23.07-.36.07s-.24-.09-.32-.26c-.09-.18-.03-.38.18-.62,1.3-1.6,2.05-4.61,2.26-9.02h-2.71v14.21l.12,1.82c.03.5-.53.74-1.68.74-.1,0-.23-.2-.41-.6l.12-1.97v-14.57l-.12-1.08Z"/>
          <path d="M634.28,230.01l1.39-1.44c1.38.98,2.06,1.67,2.06,2.09,0,.1-.16.14-.48.14l-2.81,2.33c-.16.06-.3,0-.43-.17l.53-2.16h-15.7c-.29,2.21-.85,3.43-1.68,3.67-.22.06-.5.1-.84.1-.46,0-.7-.25-.7-.74,0-.32.45-1.05,1.34-2.18.3-.38.71-1.43,1.22-3.14.05-.16.09-.24.13-.25.04,0,.07-.01.08-.01.27,0,.42.26.46.79l.05.98h1.42v-6.19l-.12-1.08c-.02-.1.02-.14.11-.14s.45.14,1.09.43c.64.29,1.08.47,1.32.55h7.58c.21-.1.48-.33.82-.71s.55-.56.64-.56.47.26,1.15.77,1.02.9,1.02,1.18c0,.08-.17.24-.5.48s-.5.43-.5.58v4.7h1.34ZM620.5,232.02l2.45,1.1h7.2c.21-.1.48-.35.83-.77.34-.42.56-.62.66-.62.29,0,.72.21,1.28.64.57.42.85.78.85,1.07,0,.08-.17.24-.5.48s-.5.43-.5.58v7.78c0,1.12-.62,1.68-1.85,1.68-.22,0-.49-.17-.79-.5-.78-.86-2.02-1.33-3.7-1.39-.22-.05-.34-.14-.34-.29s.1-.22.29-.24c2.67.27,4.06.41,4.15.41.21,0,.31-.13.31-.41v-2.62h-8.38v2.59c.08,1.04.12,1.69.12,1.94,0,.4-.56.6-1.68.6-.32,0-.48-.19-.48-.58l.1-1.87v-8.26l-.1-1.18c0-.1.02-.14.07-.14ZM631.02,224.7c0-.22-.05-.4-.14-.53h-8.62v5.83h2.88v-3.31l-.1-1.08c-.02-.1.02-.14.11-.14s.45.14,1.09.43c.64.29,1.07.47,1.29.55h3.48v-1.75ZM622.47,235.72h8.38c0-1.2-.05-1.86-.14-1.99h-8.21s-.02.27-.02.72v1.27ZM622.47,238.31h8.38v-1.99h-8.38v1.99ZM631.02,230.01v-2.95h-3.96v2.95h3.96Z"/>
          <path d="M459.98,281.99c-.42-.42-.62-.91-.62-1.49s.21-1.07.62-1.49c.42-.42.91-.62,1.49-.62s1.07.21,1.49.62.62.91.62,1.49-.21,1.07-.62,1.49-.91.62-1.49.62-1.07-.21-1.49-.62Z"/>
          <path d="M475.55,270.95l2.35.98h3.53l1.44-1.27c.98.58,1.67,1.1,2.09,1.56l-.91,1.18v3.55l.14,1.2c-.05.32-.62.48-1.7.48-.11,0-.22-.06-.31-.17-.1-.11-.14-.23-.14-.35s.02-.26.07-.42h-4.7v11.66c.1,1.12.14,1.79.14,1.99,0,.38-.58.58-1.75.58-.1,0-.23-.2-.41-.6l.12-1.97v-17.18l-.12-1.08c-.02-.1.02-.14.1-.14h.07ZM482.13,274.38v-1.44c0-.14-.05-.28-.14-.41h-4.58v1.85h4.73ZM477.4,277.07h4.73v-2.06h-4.73v2.06ZM480.71,284.22c-.53.11-.97.21-1.32.29l-1.08-.91.17-.26c.98.14,1.77.22,2.38.24h1.34v-2.88h-.89c-.53.11-.97.21-1.32.29l-1.08-.98.17-.26c.98.14,1.77.22,2.38.24h7.56l1.22-1.25c1.14.8,1.7,1.36,1.7,1.68,0,.19-.17.29-.5.29h-2.66v2.88h.82l1.22-1.32c1.14.8,1.7,1.36,1.7,1.68,0,.19-.17.29-.5.29h-3.24v3.7l.14,1.97c.03.5-.55.74-1.75.74-.34,0-.5-.19-.48-.58l.12-2.02v-3.82h-2.71c-.06,3.26-1.57,5.47-4.51,6.62-.24,0-.36-.12-.36-.37s.09-.44.26-.56c1.71-1.33,2.62-3.22,2.71-5.69h-1.49ZM486.81,283.57v-2.88h-2.71v2.88h2.71ZM493.51,277.69h-4.78l.1.53c-.05.32-.59.48-1.63.48-.11,0-.22-.06-.32-.18-.1-.12-.15-.29-.13-.53.02-.23.04-.48.07-.73v-5.09l-.12-1.08c-.02-.1.02-.14.11-.14s.45.14,1.09.43c.64.29,1.08.47,1.32.55h3.58s.06,0,.07-.02l1.44-1.37c1.31.8,1.97,1.41,1.97,1.82l-.84,1.08v16.82c0,.35-.19.72-.58,1.09-.38.38-.8.56-1.25.56-.19,0-.34-.06-.46-.19-.8-.9-1.93-1.5-3.38-1.8-.22-.05-.34-.15-.34-.3s.1-.23.29-.23l3.31.38c.32,0,.48-.13.48-.38v-11.71ZM488.71,274.38h4.78v-1.44c0-.14-.05-.28-.14-.41h-4.63v1.85ZM488.71,275.01v2.04h4.78v-2.04h-4.78Z"/>
          <path d="M500.96,272.25h1.9l1.51-1.32c1.17.75,1.81,1.35,1.92,1.8l-1.01.98v10.8l.14,1.82c-.03.32-.61.48-1.73.48-.34,0-.5-.16-.5-.49s.04-.6.12-.83h-2.81l.1,3.24c0,.38-.57.58-1.7.58-.29,0-.45-.19-.48-.58l.12-2.78v-13.46c0-.08-.04-.44-.12-1.08-.02-.13,0-.19.07-.19l2.47,1.03ZM503.19,272.75h-2.69c0,.18,0,.27-.02.29v3.34h2.86v-3.07c0-.22-.05-.41-.14-.55ZM500.48,276.9v3.5h2.86v-3.5h-2.86ZM500.48,280.91v4.08h2.86v-4.08h-2.86ZM507.46,270.97l2.52.98h4.82c.21-.1.5-.33.86-.71.37-.38.6-.56.7-.56s.46.23,1.08.7c.62.46.94.87.94,1.22l-.84.82v5.64l.14,1.7c-.05.32-.66.48-1.82.48-.11,0-.22-.06-.31-.17-.1-.11-.14-.23-.14-.35s.02-.26.07-.42h-2.86c.61,1.66,1.3,3.12,2.06,4.37,1.46-1.12,2.71-2.39,3.77-3.82,1.12,1.02,1.68,1.82,1.68,2.38,0,.13-.06.25-.17.36l-1.2-.31c-1.01.8-2.21,1.51-3.6,2.14,1.41,2.06,3.09,3.5,5.04,4.3-.27.58-.57,1.28-.89,2.11-3.47-1.58-5.96-5.42-7.46-11.52h-2.38l-.02,8.21c1.42-.32,2.54-.62,3.34-.9.8-.28,1.27-.42,1.42-.42s.23.06.25.17-.02.24-.13.38c-2.56,1.42-5.13,2.46-7.7,3.1-.08.66-.19,1.02-.34,1.08-.29-.03-.79-.94-1.51-2.74.9-.06,1.78-.17,2.66-.31l.02-16.68-.17-1.08c-.02-.1.02-.14.1-.14h.07ZM515.5,275.61v-2.64c0-.14-.05-.28-.14-.41h-5.88v3.05h6.02ZM509.48,279.69h6.02v-3.48h-6.02v3.48Z"/>
          <path d="M522.18,283.07c-.16.06-.29.1-.38.1-.22,0-.34-.16-.34-.48,0-.11.06-.26.19-.43,1.86-3.87,3.14-7.9,3.86-12.1,1.95.3,2.93.66,2.93,1.08l-1.18.43c-.42,1.74-.96,3.36-1.63,4.85.72.1,1.08.19,1.08.29s-.12.21-.37.35-.37.28-.37.44v11.79c.08.99.12,1.68.12,2.06,0,.32-.5.48-1.49.48-.34,0-.52-.19-.55-.58l.12-1.97v-9.6c-.5,1.09-1.16,2.18-1.99,3.29ZM543.59,283.53h-14.14c-.48.02-.86.08-1.14.19-.28.11-.45.17-.52.17l-1.15-.98s-.07-.11-.07-.19.06-.1.19-.07c.93.16,2.05.25,3.36.26h1.1v-6.36h-1.06c-.48.02-.86.08-1.14.19-.28.11-.45.17-.52.17l-1.15-.98s-.07-.11-.07-.19.06-.1.19-.07c.93.16,2.05.25,3.36.26h.38v-4.32l-.24-1.08c-.03-.11.06-.17.29-.17s.72.06,1.48.18c.76.12,1.14.24,1.14.37,0,.08-.12.19-.37.32-.25.14-.37.28-.37.44v4.25h3.7v-4.32l-.24-1.08c-.03-.11.06-.17.29-.17s.72.06,1.48.18c.76.12,1.14.24,1.14.37,0,.08-.12.19-.37.32-.25.14-.37.28-.37.44v4.25h1.44l1.3-1.39c1.2.93,1.8,1.5,1.8,1.73,0,.19-.18.29-.55.29h-3.98v6.36h2.28l1.3-1.39c1.2.93,1.8,1.5,1.8,1.73,0,.19-.18.29-.55.29ZM527.55,291.83c-.1.06-.21.1-.34.1-.19,0-.29-.12-.29-.36,0-.05.05-.15.14-.31,2.26-1.68,3.84-3.95,4.75-6.82,1.87.66,2.81,1.14,2.81,1.44l-1.13-.07c-1.17,2.34-3.15,4.34-5.95,6.02ZM536.84,276.54h-3.7v6.36h3.7v-6.36ZM542.77,290.44c0,.87-.36,1.36-1.08,1.49-.29,0-.54-.25-.77-.74-1.06-2.21-2.46-4.09-4.22-5.64-.16-.06-.24-.14-.24-.24.02-.21.14-.31.36-.31s.42.05.6.14l.72.41c1.15.66,2.57,1.88,4.25,3.67.26.35.38.76.38,1.22Z"/>
          <path d="M553.02,289.21c2.66-.14,4.28-.3,4.87-.48.37.03.55.1.55.19,0,.05-.06.11-.17.19-.78.61-4,1.23-9.65,1.87l-.74,1.08c-.38-.06-.75-.98-1.1-2.74.38.02.95.02,1.69.02s1.62-.02,2.63-.05v-7.73c-1.57,1.2-3.34,2.22-5.33,3.07-.13.05-.24.07-.34.07-.26,0-.38-.1-.38-.29,0-.11.07-.21.22-.29,2.51-1.44,4.67-3.22,6.48-5.33h-3.79c-.67.02-1.21.13-1.61.34l-1.15-.94s-.02-.09-.02-.12c0-.11.06-.18.17-.19.91.16,2.01.25,3.29.26h6.91v-1.68h-5.06c-.67.02-1.21.13-1.61.34l-1.15-.94s-.02-.09-.02-.12c0-.11.06-.18.17-.19.91.16,2.01.25,3.29.26h4.39v-1.73h-6.14c-.67.02-1.21.13-1.61.34l-1.15-.94s-.02-.09-.02-.12c0-.11.06-.18.17-.19.91.16,2.01.25,3.29.26h2.66c-.16-.26-.37-.78-.62-1.56l-1.18-1.54c.03-.13.11-.19.24-.19l.62.26c1.7.66,2.54,1.32,2.54,1.99,0,.48-.1.82-.29,1.03h4.99c.05-.11.12-.24.22-.38.5-.85.78-1.84.86-2.98,1.97.26,2.98.53,3.02.82l-1.3.65c-.46.75-1.01,1.38-1.63,1.9h2.71l1.61-1.46,1.99,1.85c0,.18-.18.26-.53.26h-8.4v1.73h4.25l1.61-1.46,1.99,1.85c0,.18-.18.26-.53.26h-7.32v1.68h6.77l1.61-1.46,1.99,1.85c0,.18-.18.26-.53.26h-6.77c2.32,1.76,4.79,3.05,7.42,3.86-.75.64-1.28,1.3-1.58,1.97-1.3-.8-2.58-1.74-3.86-2.81l-.74,1.03v1.94l.14,1.61c-.05.32-.62.48-1.7.48-.26,0-.38-.18-.38-.53v-.17h-2.81c1.09.66,2.17,1.23,3.24,1.73,1.49-.96,2.58-1.94,3.29-2.95,1.18.9,1.81,1.54,1.87,1.92.03.18-.02.34-.14.5l-1.27-.12c-.64.4-1.56.75-2.76,1.06,2.02.83,4.02,1.37,6.02,1.61-.74.58-1.25,1.23-1.54,1.97-3.47-1.01-6.82-2.91-10.06-5.71h-2.78v3ZM552.17,280.69c.64.22,1.08.38,1.32.46h2.11v-.43l-.12-1.08c-.02-.11.04-.17.17-.17,1.73,0,2.59.18,2.59.55,0,.08-.12.19-.36.32-.24.14-.36.29-.36.44v.36h1.99l.98-1.03c.32.22.61.42.86.6-.66-.59-1.3-1.22-1.94-1.9h-5.38c-.58.66-1.2,1.28-1.87,1.87ZM559.98,282.33c0-.22-.05-.4-.14-.53h-6.82v1.58h6.96v-1.06ZM553.02,283.96v1.66h6.96v-1.66h-6.96Z"/>
          <path d="M582.37,292.96h-1.06c-1.41-.72-2.75-1.92-4.03-3.6-1.73-2.29-2.59-4.93-2.59-7.92,0-2.21.42-4.13,1.27-5.76.85-1.63,1.76-2.9,2.75-3.79.98-.9,1.72-1.49,2.22-1.78l.38-.22h1.06c-.5.32-1.08.86-1.75,1.63-.67.77-1.24,1.56-1.69,2.36-.46.81-.88,1.89-1.26,3.24-.38,1.35-.58,2.68-.58,4,0,2.45.34,4.48,1.02,6.11.68,1.62,1.42,2.9,2.21,3.82.79.92,1.36,1.49,1.72,1.71l.34.19Z"/>
          <path d="M591.25,272.73c-.48,0-.96.06-1.44.17-.59-.74-.9-1.11-.94-1.13l.14-.19c.93.21,1.67.32,2.23.34l2.14-.02c.21-.1.48-.33.83-.71.34-.38.56-.56.66-.56.27,0,.68.22,1.22.65.54.43.82.74.82.94,0,.08-.2.22-.6.43-.4.21-.73.42-.98.62,1.01,7.82,4.65,13.37,10.92,16.63-.7.75-1.26,1.56-1.68,2.42-4.75-3.28-7.82-7.75-9.22-13.42-1.79,4.99-5.43,9.32-10.92,12.98-.05.03-.15.05-.31.05-.29,0-.43-.18-.43-.55,0-.11.08-.22.24-.31,5.95-4.08,9.51-9.7,10.68-16.85-.03-.43-.06-.87-.07-1.3l-.31-.19h-2.98Z"/>
          <path d="M614.58,286.96c-.08,0-.19-.01-.32-.04-.14-.02-.26-.32-.38-.9-.12-.58-.24-1.06-.37-1.46-2.5,1.26-4.4,1.98-5.71,2.16-.02.69-.1,1.03-.26,1.03-.43,0-.95-1.05-1.56-3.14.11.02.35.03.71.03s.83-.02,1.4-.05c.56-2.05.93-4.1,1.1-6.17h-.48c-.48.02-.86.08-1.14.19-.28.11-.45.17-.52.17l-1.15-.98c.03-.08.07-.17.12-.26.93.16,2.05.25,3.36.26h2.47l1.46-1.42c1.22.83,1.82,1.38,1.82,1.64s-.18.4-.55.4h-3.19c-.54,1.87-1.35,3.9-2.42,6.1,1.47-.14,2.87-.41,4.2-.79-.38-.91-.9-1.86-1.54-2.83l-.17-.14c.03-.22.14-.34.31-.36.21,0,.43.11.67.34,2.14,1.84,3.21,3.34,3.21,4.5s-.36,1.74-1.08,1.74ZM609.98,274.17h1.39l1.46-1.42c1.22.83,1.82,1.38,1.82,1.64s-.18.4-.55.4h-4.8c-.48.02-.86.08-1.14.19-.28.11-.45.17-.52.17l-1.15-.98c.03-.08.07-.17.12-.26.93.16,2.05.25,3.36.26ZM625.19,282.37c-.45,0-.67-.11-.67-.34,0-.1.02-.21.07-.34h-2.09v6.86c0,.88.3,1.32.91,1.32h2.93c.74,0,1.17-.22,1.3-.67.18-.66.35-.98.53-.98s.3.39.38,1.18l.34.38c.19.18.29.34.29.5s-.02.3-.05.41c-.24.67-.86,1.01-1.87,1.01h-4.46c-1.38,0-2.06-.8-2.06-2.4v-7.61h-.96v1.39c0,4.66-3.38,7.62-10.13,8.9-.24,0-.36-.14-.36-.41,0-.14.09-.24.26-.29,5.65-1.34,8.47-4.21,8.47-8.59l.02-1.01h-.82l.1.55c0,.32-.51.48-1.54.48-.29,0-.45-.19-.48-.58l.1-1.51v-6.22c0-.56,0-.91-.02-1.06-.02-.14-.02-.38-.02-.7l2.5,1.03h.7c.48-1.17.79-2.33.94-3.48,1.98.48,2.98.84,2.98,1.08s-.44.37-1.32.38c-.38.85-.86,1.52-1.44,2.02h4.03c.21-.1.48-.34.83-.73s.58-.59.71-.59c.27,0,.7.25,1.28.74s.88.88.88,1.15l-1.01.86v5.14l.14,1.61c.03.32-.42.48-1.37.48ZM619.94,274.38h-2.71c-.03.11-.05.21-.05.29v2.54h2.76v-2.83ZM619.94,281.03v-3.17h-2.76v3.17h2.76ZM621.81,274.38v2.83h2.83v-2.28c0-.22-.05-.41-.14-.55h-2.69ZM621.81,281.03h2.83v-3.17h-2.83v3.17ZM628.58,287.37c0,.61-.33.91-.98.91-.32,0-.5-.27-.55-.82-.02-.11-.05-.25-.1-.41-.88.5-1.89.91-3.03,1.25.06.18.1.33.1.46,0,.19-.1.29-.29.29s-.58-.92-1.15-2.76h.89c.4-1.57.66-2.84.77-3.82,1.41.16,2.42.54,3.02,1.15-.02.1-.13.14-.34.14s-.46-.02-.77-.07c-.56,1.06-1.13,1.92-1.7,2.59.91-.03,1.65-.08,2.21-.14-.14-.37-.33-.78-.55-1.22l-.1-.05c.02-.21.12-.29.3-.24.18.05.32.11.42.19.99.78,1.55,1.34,1.67,1.68.12.34.18.62.18.86Z"/>
          <path d="M649.63,289.17c.27,0,.5-.99.67-2.98l.14-1.68c.14-.94.31-1.42.49-1.42s.31.46.37,1.39l.14,3.94c.02.5.07.96.17,1.39.37.34.55.73.55,1.18-.02.64-.29.96-.82.96-.14,0-.31-.02-.5-.07-4.21-1.36-6.89-6.37-8.04-15.02h-10.22c-.37,0-.99.11-1.87.31l-.98-1.34c.38.19,1.18.29,2.38.29h10.61c-.16-1.34-.29-2.78-.38-4.3l-.12-1.06c-.02-.11.06-.17.23-.17s.6.06,1.3.17c.7.11,1.04.23,1.04.36,0,.08-.12.19-.36.32-.24.14-.36.29-.36.45.1,1.49.22,2.9.38,4.22h3.89c.43-.45.91-.94,1.44-1.46.86.64,1.44,1.24,1.73,1.8.03.06.05.12.05.17,0,.16-.15.24-.46.24h-6.55c.85,6,2.54,10.1,5.09,12.31ZM642.88,286.21c.11-.03.21.08.29.34l-.17.31c-3.58,1.58-6.96,2.78-10.13,3.6-.05.3-.1.61-.17.91-.72-.16-1.22-.96-1.51-2.4-.03-.16.06-.25.29-.26,1.36-.14,2.93-.41,4.7-.79v-6.14h-2.38c-.37,0-.99.11-1.87.31l-.98-1.34c.38.19,1.18.29,2.38.29h6c.43-.45.91-.94,1.44-1.46.96.59,1.59,1.19,1.9,1.8.03.06.05.12.05.17,0,.16-.15.24-.46.24h-4.25v5.74c1.5-.37,3.13-.8,4.87-1.29ZM645.07,271.38c0-.16.08-.24.24-.24s.37.06.62.17c1.68.8,2.57,1.58,2.66,2.33.02.14.02.27.02.38,0,.64-.19.96-.58.96-.13,0-.28-.04-.47-.12-.18-.08-.55-.62-1.09-1.63l-1.42-1.85Z"/>
          <path d="M653.13,292.96l.34-.19c.35-.22.92-.79,1.71-1.71.78-.92,1.52-2.19,2.21-3.82s1.03-3.66,1.03-6.11c0-1.31-.19-2.64-.58-4-.38-1.35-.81-2.43-1.27-3.24-.46-.81-1.03-1.6-1.69-2.36-.66-.77-1.24-1.31-1.74-1.63h1.06l.38.22c.48.29,1.22.88,2.21,1.78.99.9,1.91,2.16,2.76,3.79.85,1.63,1.27,3.55,1.27,5.76,0,2.99-.86,5.63-2.59,7.92-1.28,1.68-2.62,2.88-4.03,3.6h-1.06Z"/>
        </g>
      </g>
      <g>
        <g>
          <path class="cls-3" d="M909.84,158.9l3.64.9c-.86,2.47-1.93,4.94-3.19,7.4-1.26,2.46-2.72,4.76-4.39,6.89s-3.57,4-5.71,5.58c-.17-.26-.4-.56-.68-.88-.29-.32-.58-.65-.88-.97-.3-.32-.57-.58-.81-.77,1.97-1.42,3.73-3.13,5.29-5.13,1.56-2,2.91-4.13,4.05-6.37,1.14-2.24,2.03-4.46,2.68-6.64ZM899.36,157.14h31.54v3.35h-31.54v-3.35ZM905.7,169.27h23.08v18.61h-3.6v-15.34h-16.02v15.41h-3.46v-18.68ZM907.14,182.3h20.23v3.28h-20.23v-3.28Z"/>
          <path class="cls-3" d="M939.83,164.23l2.3.83c-.34,1.46-.77,2.98-1.3,4.54s-1.1,3.08-1.73,4.57c-.62,1.49-1.3,2.88-2.02,4.18-.72,1.3-1.48,2.4-2.27,3.31-.17-.5-.44-1.07-.81-1.71-.37-.64-.7-1.18-.99-1.64.72-.82,1.42-1.76,2.11-2.84.68-1.08,1.33-2.25,1.93-3.51.6-1.26,1.14-2.55,1.62-3.87.48-1.32.86-2.6,1.15-3.85ZM934.17,162.14h14v3.24h-14v-3.24ZM939.97,154.54h3.42v33.37h-3.42v-33.37ZM943.14,166.1c.24.19.56.5.97.94.41.43.86.92,1.37,1.46s1,1.08,1.49,1.62c.49.54.94,1.03,1.33,1.48.4.44.68.77.85.99l-2.05,2.92c-.29-.48-.68-1.07-1.19-1.78s-1.04-1.44-1.6-2.2c-.56-.76-1.11-1.46-1.64-2.12s-.96-1.19-1.3-1.6l1.76-1.69ZM959.37,163.69l2.74,1.66c-.67,1.58-1.48,3.18-2.41,4.79-.94,1.61-1.97,3.17-3.11,4.68s-2.33,2.92-3.56,4.21c-1.24,1.3-2.48,2.42-3.73,3.38-.29-.46-.66-.95-1.12-1.49-.46-.54-.9-.98-1.33-1.31,1.25-.82,2.48-1.82,3.71-3.01,1.22-1.19,2.39-2.5,3.49-3.92s2.11-2.9,3.02-4.43c.91-1.52,1.68-3.04,2.3-4.55ZM949.37,162.14h17.5v3.28h-17.5v-3.28ZM959.66,154.58h3.6v28.98c0,1.08-.14,1.89-.41,2.43-.28.54-.74.94-1.39,1.21-.67.29-1.56.47-2.66.56-1.1.08-2.42.13-3.96.13-.1-.48-.26-1.06-.49-1.75-.23-.68-.46-1.27-.7-1.75,1.08.02,2.12.04,3.13.05,1.01.01,1.67,0,1.98-.02.33,0,.57-.06.7-.18.13-.12.2-.35.2-.68v-28.98Z"/>
          <path class="cls-3" d="M972.02,156.31h3.42v10.22c0,1.56-.05,3.26-.14,5.11-.1,1.85-.29,3.74-.59,5.69-.3,1.94-.73,3.83-1.3,5.65-.56,1.82-1.31,3.48-2.25,4.97-.22-.19-.51-.4-.88-.63-.37-.23-.75-.44-1.13-.65-.38-.2-.72-.35-1.01-.45.89-1.42,1.6-2.96,2.12-4.64.53-1.68.91-3.4,1.15-5.17.24-1.76.4-3.49.49-5.18s.13-3.26.13-4.7v-10.22ZM973.89,156.31h25.16v8.68h-25.16v-2.77h21.74v-3.1h-21.74v-2.81ZM974.21,184.28h26.82v2.74h-26.82v-2.74ZM975.15,167h24.95v2.74h-24.95v-2.74ZM976.01,173.26c1.68-.05,3.63-.1,5.85-.16,2.22-.06,4.58-.13,7.07-.22,2.5-.08,4.99-.17,7.49-.27l-.07,2.56c-2.42.1-4.85.2-7.29.31-2.44.11-4.76.2-6.97.29s-4.18.16-5.9.23l-.18-2.74ZM976.8,178.23h21.56v2.74h-21.56v-2.74ZM983.03,167.61l3.42,1.12c-.72,1.13-1.48,2.28-2.29,3.46-.8,1.18-1.54,2.17-2.21,2.99l-2.66-1.04c.46-.6.91-1.28,1.37-2.03.46-.76.9-1.53,1.33-2.32.43-.79.78-1.51,1.04-2.16ZM985.77,175.14h3.31v10.94h-3.31v-10.94ZM990.05,170.92l2.59-1.62c.89.55,1.8,1.18,2.74,1.87.94.7,1.82,1.4,2.66,2.11.84.71,1.52,1.37,2.05,2l-2.77,1.8c-.48-.6-1.12-1.27-1.93-2-.8-.73-1.67-1.46-2.61-2.2s-1.85-1.39-2.74-1.96Z"/>
        </g>
        <g>
          <path d="M825.08,244.36h-7.27v5.59h6.62l1.44-1.39h.14c.08,0,.44.33,1.07.98.63.66.95,1.05.95,1.18,0,.05-.18.08-.55.1l-19.01-.02c-.46.03-.84.1-1.12.2-.28.1-.44.16-.49.16l-1.18-1.08c.02-.08.07-.2.17-.36.91.14,2.01.22,3.29.24h6.74v-5.59h-4.97l-1.63.36-1.13-.84c-.1-.19-.05-.4.14-.62.91.16,2.01.25,3.29.26h10.37l1.3-1.54c.21,0,.38.06.5.19,1.21,1.1,1.82,1.7,1.82,1.78-.02.27-.18.41-.5.41ZM809.72,233.77c-.46,2.26-1.27,3.38-2.42,3.38-.74,0-1.1-.22-1.1-.65,0-.83.51-1.64,1.54-2.42.54-.42.94-1.29,1.2-2.62.05-.16.12-.24.2-.25.09,0,.14-.01.16-.01.26,0,.39.26.41.79l.05.98,6.14.02v-1.73l-.12-1.08c-.02-.11.04-.17.17-.17,1.71.16,2.58.34,2.59.55,0,.08-.12.19-.36.32-.24.14-.36.28-.36.44v1.66l6.38-.02,1.39-1.44c1.54.98,2.3,1.67,2.3,2.09,0,.1-.16.14-.48.14l-3.6,2.57c-.19.18-.4.18-.62,0l.91-2.57h-4.08v4.34c0,.61.21.91.65.91h3.43c.54,0,.87-.52.98-1.56l.19-1.68.5-.02.14,2.16c.03.54.48,1.05,1.34,1.51.21.11.29.25.24.41-.24.67-1.02,1.01-2.35,1.01h-5.09c-1.23,0-1.85-.66-1.85-1.99l-.02-5.09h-2.9c-.37,4.37-3.07,7.19-8.11,8.47-.19.05-.32.07-.38.07-.24,0-.36-.12-.36-.36s.09-.38.26-.43c4.1-1.12,6.27-3.7,6.53-7.75h-3.5Z"/>
          <path d="M830.46,246.23l-.02-2.5c0-.43.06-1.36.17-2.77s.38-2.84.82-4.28c.43-1.44.65-2.27.65-2.5l-.82-1.42c-.06-.13-.07-.3-.02-.53.08-.14.19-.22.32-.22s.42.13.85.38c1.06.64,1.58,1.39,1.58,2.26,0,.32-.4,1.03-1.2,2.14-.62,1.62-.94,3.49-.94,5.62,0,1.25.18,2.42.55,3.53.72-1.44,1.64-2.72,2.76-3.84.02-.02.06-.02.14-.02.16,0,.23.08.2.24s-.22.52-.59,1.08c-.83,1.26-1.42,2.74-1.75,4.44-.02.08-.04.16-.07.24.19.35.29.77.29,1.25,0,1.04-.3,1.56-.91,1.56-.27,0-.6-.26-.97-.78-.38-.52-.64-1.26-.8-2.22-.16-.96-.24-1.51-.24-1.66ZM839.75,242.22c.22,0,.34.12.34.36,0,.08-.21.29-.62.62-.67.66-1.01,1.31-1.01,1.97,0,1.6.87,2.4,2.62,2.4l2.9-.19c.38,0,.7-.1.95-.29.25-.19.52-.29.83-.29h.31c.35,0,.82.16,1.39.49.58.33.86.62.86.88s-.15.45-.44.58c-.3.13-1.02.26-2.17.38-1.15.13-2.09.19-2.82.19s-1.3-.02-1.72-.05c-1.82-.1-3.08-.8-3.77-2.11-.21-.4-.31-.88-.31-1.44s.25-1.2.76-1.91,1.03-1.21,1.57-1.5c.13-.06.24-.1.34-.1ZM843.88,236.01c-1.47.3-2.5.46-3.1.46-1.12,0-2.03-.37-2.71-1.1l-.22-.26s.03-.07.13-.16c.1-.09.21-.13.32-.13s.23.06.36.17c.27.22,1,.34,2.2.34s2.18-.22,2.95-.67c.78-.45,1.24-.67,1.38-.67.37,0,.76.16,1.16.48.41.32.61.64.61.96,0,.24-.21.42-.62.53l-3.55,2.5-.55.34c-.22,0-.34-.06-.34-.19-.02-.13.03-.23.14-.31.46-.34,1.07-1.09,1.82-2.26Z"/>
          <path d="M859.34,236.37l-1.73.67c-.74,1.12-1.79,3.48-3.14,7.08-.54,1.46-1.06,2.18-1.56,2.18-.27,0-.53-.25-.78-.74s-.37-.95-.37-1.37.06-.7.17-.86c.77-1.1,1.48-2.18,2.14-3.22.66-1.04,1.28-1.97,1.87-2.78l-.12-.02c-.11,0-.63.1-1.56.3-.93.2-1.52.3-1.76.3s-.47-.13-.66-.38c-.59-.8-.89-1.51-.89-2.14,0-.21.02-.31.07-.31.16,0,.31.1.46.31.24.42.82.67,1.75.74h.18c.1,0,.62-.03,1.55-.08s1.41-.1,1.44-.13c.4-.74.6-1.66.6-2.78,0-.48-.07-.81-.2-1-.14-.18-.36-.37-.66-.56-.3-.19-.46-.35-.46-.48,0-.22.14-.34.42-.34s.64.09,1.07.26c1.23.48,1.91,1,2.04,1.56.02.05.02.14.02.29s-.06.39-.17.74c-.11.35-.17.54-.17.55-.35.46-.64.97-.86,1.51.51-.02.92-.18,1.22-.48.3-.3.52-.53.66-.68s.28-.28.42-.4c.14-.11.34-.17.59-.17s.6.05,1.04.16c.45.1.78.35.98.73.06.13.1.24.1.34,0,.3-.25.5-.74.6-.27.05-.76.15-1.48.31-.71.16-1.2.26-1.48.29ZM864.38,239.25c.22,0,.33.11.31.34,0,.13-.08.41-.23.84s-.23,1.09-.23,1.98.07,2.01.22,3.37c1.74.51,2.85.99,3.31,1.43.46.44.7.83.7,1.16,0,.7-.3,1.06-.89,1.06h-.1c-.34,0-.76-.28-1.28-.85-.52-.57-1.08-.95-1.67-1.14-.18,1.33-.44,2.23-.79,2.71-.54.72-1.78,1.08-3.7,1.08-1.12,0-2.07-.26-2.86-.79-.79-.53-1.18-1.17-1.18-1.92v-.02c0-1.01.36-1.82,1.07-2.45s1.61-.94,2.7-.94,2.05.06,2.9.19c-.03-1.01-.05-1.54-.05-1.58v-.02c0-.4.07-1.08.2-2.03.14-.95.51-1.72,1.12-2.29l.29-.1s.08-.02.14-.02ZM860.38,249.73c1.55,0,2.33-.57,2.33-1.7v-.46c0-.27-.02-.54-.07-.79-.5-.24-1.26-.36-2.3-.36-1.38,0-2.29.38-2.74,1.15-.1.16-.14.44-.14.84s.15.67.46.82c.62.34,1.4.5,2.33.5h.14ZM866.25,237.76c.47,0,.94.03,1.4.1-.16-.42-.3-.74-.41-.96-.34-.78-1.18-1.52-2.54-2.21-.32-.16-.48-.36-.48-.61s.14-.37.43-.37c.18,0,.36.05.55.14.96.43,1.9,1.01,2.81,1.73,1.31,1.02,1.97,1.93,1.97,2.71,0,.1-.01.19-.04.29-.02.1-.08.34-.16.73-.08.39-.27.59-.58.59-.22,0-.54-.22-.94-.67-.18-.18-.65-.36-1.42-.56-.77-.2-1.18-.33-1.24-.38-.06-.05-.08-.11-.08-.16,0-.24.24-.36.71-.36Z"/>
          <path d="M879.64,249.83c-.8,0-1.21-.2-1.22-.6,0-.1.09-.17.26-.22.29,0,1.05-.12,2.28-.36,4.32-.77,6.48-2.47,6.48-5.11,0-1.95-.9-2.93-2.69-2.93-1.94,0-3.96.54-6.07,1.63-.34.18-.68.4-1.04.66-.36.26-.69.4-.98.4s-.76-.28-1.4-.84c-.21-.19-.51-.54-.91-1.03-.4-.5-.6-.88-.6-1.14s.1-.4.29-.4c.14,0,.26.06.34.19l.22.26c.42.56.96.84,1.63.84.3,0,1.13-.2,2.47-.6l3.26-.98c.86-.26,1.66-.39,2.4-.41,3.28.02,4.92,1.35,4.92,4.01v.46c-.02,3.36-2.86,5.39-8.54,6.1-.42.05-.78.07-1.08.07Z"/>
          <path d="M896.06,232.05c-.24-.05-.36-.18-.35-.38,0-.21.14-.31.4-.31s.62.07,1.08.22c1.25.43,1.9.9,1.97,1.42v.29c0,.16-.09.37-.28.62s-.3.54-.35.84c-.03.46-.07.93-.12,1.39,1.04-.34,2.04-1,3-1.99.4-.35.63-.55.7-.59.06-.04.3-.11.72-.22s.7-.16.84-.16.26,0,.34.02c.69.18,1.03.38,1.03.6s-.71.82-2.12,1.79c-1.42.97-2.96,1.58-4.64,1.84-.53,3.84-1.72,7.83-3.58,11.98-.35,1.12-.74,1.68-1.16,1.68s-.72-.2-.9-.59c-.18-.39-.26-.79-.26-1.19s.14-.79.43-1.15l1.22-2.28c1.31-2.9,2.17-5.68,2.57-8.35-.78-.02-1.61-.2-2.47-.55-.69-.3-1.14-.81-1.37-1.51-.02-.05-.02-.09-.02-.12,0-.21.08-.31.24-.3.16,0,.55.2,1.16.56.62.37,1.11.59,1.48.67.37.08.74.12,1.13.12.1-.82.14-1.68.14-2.6s-.2-1.48-.6-1.69l-.21-.05ZM902.95,243.16c.21,0,.31.12.31.36,0,.06-.2.28-.6.65-.58.59-.86,1.3-.86,2.12s.08,1.33.24,1.52c.58.62,1.99.94,4.25.94.22,0,.46,0,.7-.01s.58-.08,1.01-.23c.43-.14.87-.22,1.32-.22s.9.18,1.36.53.68.63.68.84-.06.34-.17.41c-.54.29-1.94.43-4.2.43-3.2,0-5.21-.66-6.02-1.99-.29-.46-.43-.93-.43-1.39s.18-1.1.55-1.91c.37-.81.87-1.44,1.51-1.88.14-.11.26-.17.36-.17ZM907.72,239.17c-.56-.22-.97-.34-1.24-.34s-1.69.28-4.28.84c-.26-.02-.38-.16-.38-.43,0-.22.22-.42.65-.6,2.1-.82,3.7-1.22,4.81-1.22s1.84.12,2.17.36c.67.45,1.01.84,1.01,1.18,0,.48-.55.8-1.64.95-1.1.15-2.08.59-2.96,1.31-.46.38-.75.58-.86.58-.16,0-.24-.1-.24-.31,0-.11.38-.46,1.14-1.04.76-.58,1.37-1,1.84-1.26Z"/>
          <path d="M931.79,239.41c.1,1.28.14,1.98.14,2.09-.05.32-.58.48-1.61.48-.32,0-.48-.17-.48-.5,0-.19.03-.44.1-.74h-5.78c-.35.77-.81,1.5-1.37,2.21h9.84l1.51-1.66c1.2.99,1.86,1.62,1.97,1.87,0,.26-.18.38-.53.38h-6.22c2.1,1.5,4.3,2.54,6.62,3.1-.66.72-1.1,1.38-1.32,1.97-2.8-1.54-4.97-3.22-6.5-5.06h-5.9c-1.9,2.05-4.81,3.77-8.71,5.16-.24.1-.36-.04-.36-.41,0-.19.09-.32.26-.38,2.78-1.22,4.96-2.67,6.53-4.37h-3.82l-1.63.46-1.34-1.1v-.1s.03-.06.1-.1c.91.14,2.02.22,3.31.24h3.91c.56-.7,1.02-1.44,1.39-2.21h-2.69c.03.26.06.51.1.77-.05.32-.58.48-1.61.48-.3,0-.46-.19-.46-.58l.1-1.99v-4.13l-.12-1.06c-.02-.11,0-.17.05-.17h.1l2.28.98h9.62l1.39-1.06c.27,0,.67.22,1.2.65.53.43.79.78.79,1.05l-.86,1.08v2.64ZM931.88,231.97l1.51-1.66c1.2.99,1.86,1.62,1.97,1.87,0,.26-.18.38-.53.38h-5.59v.36l.14,1.25c-.05.32-.62.48-1.7.48-.27,0-.43-.18-.48-.55l.12-1.18v-.36h-5.42v.36l.14,1.25c-.05.32-.62.48-1.71.48-.27,0-.43-.18-.48-.55l.12-1.18v-.36h-3.1l-1.63.46-1.34-1.1v-.1s.03-.06.1-.1c.91.14,2.02.22,3.31.24h2.66v-1.01l-.12-1.06v-.02c0-.1.07-.14.2-.14s.6.06,1.38.17,1.18.23,1.18.36l-.72.77v.94h5.42v-1.01l-.12-1.06v-.02c0-.1.07-.14.2-.14s.6.06,1.38.17c.78.11,1.18.23,1.18.36l-.72.77v.94h2.64ZM930.9,250.5l1.51-1.66c1.2.99,1.86,1.62,1.97,1.87,0,.25-.18.38-.53.38h-16.25l-1.63.46-1.34-1.1v-.1s.03-.06.1-.1c.91.14,2.02.22,3.31.24h5.62v-2.78h-2.45l-1.63.46-1.34-1.1v-.1s.03-.06.1-.1c.91.14,2.02.22,3.31.24h2.02v-1.87l-.12-1.06v-.02c0-.1.07-.14.2-.14s.6.06,1.38.17c.78.11,1.18.23,1.18.36l-.72.77v1.8h1.73l1.51-1.66c1.2.99,1.86,1.62,1.97,1.87,0,.26-.18.38-.53.38h-4.68v2.78h5.33ZM919.19,237.69h10.78v-1.39c0-.22-.05-.4-.14-.53h-10.63v1.92ZM919.19,240.13h10.78v-1.87h-10.78v1.87Z"/>
          <path d="M957.05,230.51c1.52.98,2.28,1.6,2.28,1.87,0,.16-.18.24-.55.24h-11.11c-.58,2.56-1.51,4.9-2.81,7.03l1.2.48h7.94c.21-.1.49-.33.85-.71.36-.38.6-.56.71-.56.27,0,.68.21,1.21.62.54.42.84.74.9.96-.03.13-.18.33-.46.6-.27.27-.41.53-.41.77v7.63l.14,1.92c-.03.32-.66.48-1.87.48-.32,0-.48-.2-.48-.59s.03-.96.1-1.69h-9.1c.06.62.1,1.16.1,1.61s-.62.67-1.85.67c-.29,0-.45-.19-.48-.58l.12-1.82v-7.82c-1.46,1.89-3.23,3.58-5.33,5.09-.32.13-.55.1-.68-.08-.14-.18-.08-.36.16-.52,4.42-3.97,6.99-8.46,7.73-13.49h-4.7c-.48.02-.86.08-1.14.18-.28.1-.45.16-.52.16l-1.34-.96s-.06-.09-.05-.17c0-.1.05-.12.14-.07.91.16,2.02.26,3.31.29h14.38l1.61-1.54ZM954.58,240.73h-8.98c0,.18,0,.27-.02.29v7.94h9.14v-7.68c0-.22-.05-.41-.14-.55Z"/>
          <path d="M970.16,250.41c-.16.02-.3.02-.43.02-.51,0-.77-.13-.77-.41,0-.21.3-.39.91-.55,2.56-.74,4.46-1.94,5.71-3.6,1.07-1.44,1.61-3.35,1.61-5.74,0-1.66-.43-2.91-1.29-3.74-1.28-1.26-2.71-1.9-4.27-1.9h-.29c-.29,0-.54.02-.77.07-.74,4.42-1.46,7.39-2.18,8.93s-1.42,2.6-2.11,3.2c-.69.6-1.23.9-1.63.9h-.26c-.91,0-1.64-.66-2.18-1.97-.77-1.07-1.15-1.94-1.15-2.59v-.02c0-1.46.39-2.9,1.16-4.33.78-1.43,1.95-2.7,3.5-3.79s3.28-1.65,5.15-1.67c2.54,0,4.55.72,6.02,2.16,1.46,1.73,2.18,3.48,2.18,5.26,0,2.67-.89,4.9-2.68,6.68s-3.86,2.81-6.23,3.08ZM969.17,234.69c-1.22.24-2.32.8-3.31,1.68s-1.72,1.78-2.18,2.7c-.46.92-.7,2.13-.7,3.64s.49,2.42,1.46,2.76h.14c.54,0,1.08-.36,1.61-1.08,1.3-1.7,2.29-4.93,2.98-9.7Z"/>
          <path d="M982.15,242.99c-.16.06-.29.1-.38.1-.22,0-.34-.16-.34-.48,0-.11.06-.26.19-.43,1.86-3.87,3.14-7.9,3.86-12.1,1.95.3,2.93.66,2.93,1.08l-1.18.43c-.42,1.74-.96,3.36-1.63,4.85.72.1,1.08.19,1.08.29s-.12.21-.37.35-.37.28-.37.44v11.79c.08.99.12,1.68.12,2.06,0,.32-.5.48-1.49.48-.34,0-.52-.19-.55-.58l.12-1.97v-9.6c-.5,1.09-1.16,2.18-1.99,3.29ZM1003.55,243.45h-14.14c-.48.02-.86.08-1.14.19-.28.11-.45.17-.52.17l-1.15-.98s-.07-.11-.07-.19.06-.1.19-.07c.93.16,2.05.25,3.36.26h1.1v-6.36h-1.05c-.48.02-.86.08-1.14.19-.28.11-.45.17-.52.17l-1.15-.98s-.07-.11-.07-.19.06-.1.19-.07c.93.16,2.05.25,3.36.26h.38v-4.32l-.24-1.08c-.03-.11.06-.17.29-.17s.72.06,1.48.18c.76.12,1.14.24,1.14.37,0,.08-.12.19-.37.32-.25.14-.37.28-.37.44v4.25h3.7v-4.32l-.24-1.08c-.03-.11.06-.17.29-.17s.72.06,1.48.18,1.14.24,1.14.37c0,.08-.12.19-.37.32-.25.14-.37.28-.37.44v4.25h1.44l1.3-1.39c1.2.93,1.8,1.5,1.8,1.73,0,.19-.18.29-.55.29h-3.98v6.36h2.28l1.3-1.39c1.2.93,1.8,1.5,1.8,1.73,0,.19-.18.29-.55.29ZM987.52,251.75c-.1.06-.21.1-.34.1-.19,0-.29-.12-.29-.36,0-.05.05-.15.14-.31,2.26-1.68,3.84-3.95,4.75-6.82,1.87.66,2.81,1.14,2.81,1.44l-1.13-.07c-1.17,2.34-3.15,4.34-5.95,6.02ZM996.81,236.46h-3.7v6.36h3.7v-6.36ZM1002.74,250.36c0,.87-.36,1.36-1.08,1.49-.29,0-.54-.25-.77-.74-1.06-2.21-2.46-4.09-4.22-5.64-.16-.06-.24-.14-.24-.24.02-.21.14-.31.36-.31s.42.05.6.14l.72.41c1.15.66,2.57,1.88,4.25,3.67.26.35.38.76.38,1.22Z"/>
          <path d="M1012.98,249.13c2.65-.14,4.28-.3,4.87-.48.37.03.55.1.55.19,0,.05-.06.11-.17.19-.79.61-4,1.23-9.65,1.87l-.74,1.08c-.38-.06-.75-.98-1.1-2.74.38.02.95.02,1.69.02s1.62-.02,2.63-.05v-7.73c-1.57,1.2-3.34,2.22-5.33,3.07-.13.05-.24.07-.34.07-.26,0-.38-.1-.38-.29,0-.11.07-.21.22-.29,2.51-1.44,4.67-3.22,6.48-5.33h-3.79c-.67.02-1.21.13-1.61.34l-1.15-.94s-.02-.09-.02-.12c0-.11.06-.18.17-.19.91.16,2.01.25,3.29.26h6.91v-1.68h-5.06c-.67.02-1.21.13-1.61.34l-1.15-.94s-.02-.09-.02-.12c0-.11.05-.18.17-.19.91.16,2.01.25,3.29.26h4.39v-1.73h-6.14c-.67.02-1.21.13-1.61.34l-1.15-.94s-.02-.09-.02-.12c0-.11.05-.18.17-.19.91.16,2.01.25,3.29.26h2.66c-.16-.26-.37-.78-.62-1.56l-1.18-1.54c.03-.13.11-.19.24-.19l.62.26c1.7.66,2.54,1.32,2.54,1.99,0,.48-.1.82-.29,1.03h4.99c.05-.11.12-.24.22-.38.5-.85.78-1.84.86-2.98,1.97.26,2.98.53,3.02.82l-1.3.65c-.46.75-1.01,1.38-1.63,1.9h2.71l1.61-1.46,1.99,1.85c0,.18-.18.26-.53.26h-8.4v1.73h4.25l1.61-1.46,1.99,1.85c0,.18-.18.26-.53.26h-7.32v1.68h6.77l1.61-1.46,1.99,1.85c0,.18-.18.26-.53.26h-6.77c2.32,1.76,4.79,3.05,7.42,3.86-.75.64-1.28,1.3-1.58,1.97-1.3-.8-2.58-1.74-3.86-2.81l-.74,1.03v1.94l.14,1.61c-.05.32-.62.48-1.7.48-.26,0-.38-.18-.38-.53v-.17h-2.81c1.09.66,2.17,1.23,3.24,1.73,1.49-.96,2.58-1.94,3.29-2.95,1.18.9,1.81,1.54,1.87,1.92.03.18-.02.34-.14.5l-1.27-.12c-.64.4-1.56.75-2.76,1.06,2.02.83,4.02,1.37,6.02,1.61-.74.58-1.25,1.23-1.54,1.97-3.47-1.01-6.82-2.91-10.06-5.71h-2.78v3ZM1012.14,240.61c.64.22,1.08.38,1.32.46h2.11v-.43l-.12-1.08c-.02-.11.04-.17.17-.17,1.73,0,2.59.18,2.59.55,0,.08-.12.19-.36.32-.24.14-.36.29-.36.44v.36h1.99l.98-1.03c.32.22.61.42.86.6-.66-.59-1.3-1.22-1.94-1.9h-5.38c-.58.66-1.2,1.28-1.87,1.87ZM1019.94,242.25c0-.22-.05-.4-.14-.53h-6.82v1.58h6.96v-1.06ZM1012.98,243.88v1.66h6.96v-1.66h-6.96Z"/>
          <path d="M1036.65,241.91c-.42-.42-.62-.91-.62-1.49s.21-1.07.62-1.49c.42-.42.91-.62,1.49-.62s1.07.21,1.49.62.62.91.62,1.49-.21,1.07-.62,1.49-.91.62-1.49.62-1.07-.21-1.49-.62Z"/>
          <path d="M1058.7,247.24c2.22,1.6,5.08,2.4,8.57,2.4,1.28,0,2.61-.09,3.98-.26-.51.9-.91,1.72-1.2,2.47h-1.34c-6.42,0-10.98-2.15-13.68-6.46-1.58,2.85-3.56,4.95-5.93,6.31-.13.05-.32.07-.56.07s-.37-.06-.37-.19c0-.08.07-.18.21-.31.14-.13.22-.2.22-.21,2.27-1.79,4.08-4.31,5.42-7.56-.7-1.54-1.22-3.3-1.54-5.28-.96,2.02-2.14,3.89-3.53,5.62-.16.08-.29.12-.38.12-.19,0-.29-.1-.29-.3s.02-.36.07-.49c2.66-4.51,4.03-8.82,4.13-12.91,2.14.37,3.22.83,3.22,1.39l-1.06.41c-.14.59-.3,1.18-.46,1.75l1.34-.02c.21-.1.48-.31.83-.65s.56-.5.66-.5c.43,0,.96.22,1.57.65.62.43.92.74.92.94,0,.02-.16.16-.48.44-.32.28-.49.48-.5.61-.69,3.41-1.62,6.34-2.81,8.78.7,1.09,1.53,2.02,2.47,2.78.03-.06.1-.14.19-.24,1.31-1.3,2.08-4.14,2.3-8.52v-5.52l-.12-1.13c0-.06.02-.1.07-.1s.32.1.8.3,1.04.46,1.64.78h1.29c.21-.1.48-.35.82-.76s.55-.61.65-.61h.02c1.42.74,2.14,1.3,2.14,1.7,0,.08-.17.24-.5.48-.34.24-.5.44-.5.6v10.87c0,.58.2.87.6.87h.65c.35,0,.62-1.1.82-3.29l.14-1.68c.11-.77.26-1.24.43-1.42h.02c.06,0,.16.46.29,1.39l.26,4.18.46,1.01c.19.18.29.34.29.5,0,.94-.76,1.42-2.28,1.42h-1.68c-1.26,0-1.9-.87-1.9-2.62l-.02-11.62c0-.14-.05-.28-.14-.41h-2.3s-.02.14-.02.26v5.23c0,3.41-1.3,6.31-3.91,8.71ZM1053.93,234.61c-.22.67-.46,1.34-.72,1.99.29,2,.76,3.77,1.42,5.3.7-2.08,1.25-4.42,1.63-7.01-.03-.13-.08-.23-.14-.31l-2.18.02Z"/>
          <path d="M1072.3,241.84c-.29,0-.43-.18-.43-.53,0-.11.08-.22.24-.34,3.65-2.51,6.15-6.1,7.51-10.78,1.84.3,2.76.66,2.76,1.08l-1.18.43c-1.63,3.98-4.5,7.34-8.59,10.08-.05.03-.15.05-.31.05ZM1087.13,239.34c.21-.1.48-.33.83-.71.34-.38.56-.56.66-.56.27,0,.68.22,1.22.65.54.43.82.74.82.94,0,.08-.17.23-.49.46-.33.22-.49.42-.49.6.03.62.05,1.25.05,1.87,0,2.7-.29,5.18-.86,7.44-.43,1.2-1.46,1.81-3.07,1.82l-.94-.74c-.77-.61-2.18-.95-4.25-1.03-.22-.1-.34-.2-.34-.3s.1-.22.29-.35l5.33.41c.42,0,.77-.18,1.06-.53.58-2.21.86-4.65.86-7.32,0-.5,0-1-.02-1.51-.03-.13-.08-.23-.14-.31h-4.7c-.94,6.69-4.05,10.63-9.31,11.83-.14.03-.26.05-.36.05-.26,0-.38-.1-.38-.3s.09-.33.26-.4c4.69-1.76,7.26-5.49,7.73-11.18l-2.76.02-1.22.17c0-.26-.1-.7-.31-1.32.02.03.3.09.85.18.55.09,1.31.13,2.27.13h7.44ZM1085.96,230.39c2.42,4.11,5.24,6.97,8.47,8.57-.61.75-1.09,1.56-1.44,2.42-3.25-2.78-5.79-6.34-7.63-10.68l.6-.31Z"/>
        </g>
      </g>
    </g>
  </g>
</svg>