<?xml version="1.0" encoding="UTF-8"?>
<svg id="_レイヤー_2" data-name="レイヤー 2" xmlns="http://www.w3.org/2000/svg" xmlns:xlink="http://www.w3.org/1999/xlink" viewBox="0 0 800 120">
  <defs>
    <style>
      .cls-1 {
        fill: #fff;
      }

      .cls-2 {
        fill: url(#_名称未設定グラデーション_2);
      }

      .cls-3 {
        fill: #603;
      }
    </style>
    <linearGradient id="_名称未設定グラデーション_2" data-name="名称未設定グラデーション 2" x1="400" y1="2" x2="400" y2="112" gradientTransform="translate(343 457) rotate(-90)" gradientUnits="userSpaceOnUse">
      <stop offset="0" stop-color="#c36"/>
      <stop offset="1" stop-color="#f69"/>
    </linearGradient>
  </defs>
  <g id="_レイヤー_15" data-name="レイヤー 15">
    <g id="UI_funeral_process_0428">
      <rect class="cls-3" width="800" height="120" rx="25" ry="25"/>
      <rect class="cls-3" width="800" height="114" rx="25" ry="25"/>
      <rect class="cls-2" x="345" y="-341" width="110" height="796" rx="23" ry="23" transform="translate(457 -343) rotate(90)"/>
      <g>
        <path class="cls-1" d="M147.82,51.92c2.72,1.24,4.08,2.42,4.08,3.54,0,.88-.18,1.58-.54,2.1-.56.56-1.14.85-1.74.87-.6.02-1.06-.21-1.38-.69-.48-1.68-1.16-2.9-2.04-3.66-.24-.2-.44-.38-.6-.54-2.88,1.96-6.18,3.72-9.9,5.28-.84-.08-1.26-.32-1.26-.72s.3-.92.9-1.56c6.24-3.36,10.84-7.38,13.8-12.06h-6.12c-.44,0-1.84.28-4.2.84l-3.18-2.28.06-.66c1.56.4,3.36.6,5.4.6h39.3c1.16-1.36,2.24-2.58,3.24-3.66,3.2,2.36,4.8,3.86,4.8,4.5,0,.4-.24.62-.72.66h-18.06v8.16c5.4-1.6,9.72-3.94,12.96-7.02,4.36,2.36,6.54,4.08,6.54,5.16l-3.36-.9c-4.12,1.96-9.5,3.44-16.14,4.44v2.04c0,1.8,1.32,2.7,3.96,2.7h8.4c1.88,0,2.96-.86,3.24-2.58l.36-2.16c.4-2.36.72-3.54.96-3.54s.44,1.16.6,3.48l.36,2.4.84,2.16c.48.44.72.86.72,1.26s-.04.74-.12,1.02c-.52,1.48-2.08,2.22-4.68,2.22h-14.34c-3.24,0-4.86-1.7-4.86-5.1v-13.74h-10.14c-1.04,1.52-2.22,2.96-3.54,4.32,1.64,0,3.12-.02,4.44-.06l3.12-2.64c.56,0,1.49.5,2.79,1.5,1.3,1,1.95,1.74,1.95,2.22l-2.34,1.74c-3.12,6.52-11.58,11.66-25.38,15.42-.44.12-.72.18-.84.18-.68,0-1.02-.4-1.02-1.2,0-.28.2-.48.6-.6,13-3.72,20.2-8.48,21.6-14.28-.08-.32-.2-.58-.36-.78h-6.18c-.64.56-1.3,1.1-1.98,1.62ZM140.92,84.14c-.48.12-.77.21-.87.27-.1.06-.19.09-.27.09-.4,0-.6-.28-.6-.84s.14-1,.42-1.32c7.6-2.72,11.54-6.3,11.82-10.74h-9.9c-.44,0-1.84.28-4.2.84l-3.18-2.28.06-.66c.8.4,2.6.6,5.4.6h11.82v-3.72l-.24-2.64c-.04-.28.1-.42.42-.42.16,0,1.28.15,3.36.45,2.08.3,3.12.59,3.12.87l-1.86,1.92v3.54h12.54v-2.94l-.24-2.64c-.04-.28.1-.42.42-.42.16,0,1.28.15,3.36.45,2.08.3,3.12.59,3.12.87l-1.86,1.92v2.76h8.34c1.16-1.36,2.24-2.58,3.24-3.66,3.2,2.36,4.8,3.86,4.8,4.5,0,.4-.24.62-.72.66h-15.66v6.54l.36,4.5s-.02.26-.06.66c-.08.8-1.48,1.2-4.2,1.2-.8,0-1.2-.63-1.2-1.89s.1-2.95.3-5.07v-5.94h-12.54v.42c0,5.56-5.1,9.6-15.3,12.12ZM156.82,35.6h10.8v-3.3l-.3-2.64v-.06c0-.24.17-.36.51-.36s1.49.14,3.45.42c1.96.28,2.94.58,2.94.9l-1.8,1.92v3.12h8.82c1.16-1.36,2.24-2.58,3.24-3.66,3.2,2.36,4.8,3.86,4.8,4.5,0,.4-.24.62-.72.66h-16.14v1.44l.36,2.46c-.12.8-1.54,1.2-4.26,1.2-.68,0-1.08-.46-1.2-1.38l.3-2.28v-1.44h-10.8v1.44l.36,2.46c-.12.8-1.54,1.2-4.26,1.2-.68,0-1.08-.46-1.2-1.38l.3-2.28v-1.44h-9.24c-.44,0-1.84.28-4.2.84l-3.18-2.28.06-.66c1.52.4,3.32.6,5.4.6h11.16v-3.3l-.3-2.64v-.06c0-.24.17-.36.51-.36s1.49.14,3.45.42c1.96.28,2.94.58,2.94.9l-1.8,1.92v3.12Z"/>
        <path class="cls-1" d="M200.07,62.36c-.4.16-.72.24-.96.24-.56,0-.84-.4-.84-1.2,0-.28.16-.64.48-1.08,4.64-9.68,7.86-19.76,9.66-30.24,4.88.76,7.32,1.66,7.32,2.7l-2.58,1.08c-.84,4.36-2.32,8.4-4.44,12.12,1.8.24,2.7.48,2.7.72s-.31.53-.93.87c-.62.34-.93.71-.93,1.11v29.46c.2,2.48.3,4.2.3,5.16,0,.8-1.24,1.2-3.72,1.2-.84,0-1.3-.48-1.38-1.44l.3-4.92v-24c-1.24,2.72-2.9,5.46-4.98,8.22ZM226.77,68.18c1.68-.48,3.04-.89,4.08-1.23,1.04-.34,1.74-.51,2.1-.51s.63.07.81.21c.18.14.07.33-.33.57-2.28,1.28-4.5,2.46-6.66,3.54v9.6c0,.88-.48,1.79-1.44,2.73-.96.94-2,1.41-3.12,1.41-.08,0-.6-.52-1.56-1.56-.96-1.04-3.84-2.08-8.64-3.12-.56-.12-.84-.37-.84-.75s.24-.57.72-.57l9.12.96c.8,0,1.2-.32,1.2-.96v-5.7c-2.4,1.04-4.68,1.9-6.84,2.58-.16,1.6-.4,2.4-.72,2.4-.6,0-1.7-1.92-3.3-5.76-.04-.08-.06-.18-.06-.3,0-.28.3-.46.9-.54,3.04-.36,6.38-.98,10.02-1.86v-4.98h-4.32c-1.16.08-2.11.25-2.85.51-.74.26-1.15.39-1.23.39-2.08-1.72-3.12-2.7-3.12-2.94,2.28.36,5.04.56,8.28.6h3.24v-3.96c-2.24.4-4.82.78-7.74,1.14-.64-.28-.98-.52-1.02-.72,0-.44.46-.82,1.38-1.14,6.8-1.48,11.54-3.26,14.22-5.34,2.72,2.8,4.08,4.46,4.08,4.98,0,.12-.22.16-.66.12l-2.4-1.14c-.88.36-1.98.72-3.3,1.08v4.98h7.74c-.28-2-.48-4.12-.6-6.36l-.54-2.52c-.08-.32.1-.48.54-.48h.84c3.12,0,4.68.2,4.68.6,0,.24-.27.59-.81,1.05-.54.46-.79.85-.75,1.17.16,2.36.44,4.54.84,6.54h7.68l3.42-3.84c2.76,2.48,4.32,3.94,4.68,4.38,0,.6-.44.9-1.32.9h-14.16c.6,2.68,1.42,5.04,2.46,7.08,1.48-2,2.66-4.1,3.54-6.3.6-.52,1.1-.6,1.5-.24,2.16,2.08,3.24,3.44,3.24,4.08,0,.4-.2.51-.6.33-.4-.18-.76-.35-1.08-.51-1.04,2.12-2.54,4.14-4.5,6.06,1.28,1.56,2.74,2.82,4.38,3.78.72,0,1.32-1.54,1.8-4.62l.72-4.5c.56-2.28,1.01-3.42,1.35-3.42s.51,1.18.51,3.54l.12,6.18c-.04.96-.06,1.65-.06,2.07s.08.85.24,1.29c.92.84,1.38,1.82,1.38,2.94-.04,1.6-.86,2.4-2.46,2.4-2.08,0-3.68-.34-4.8-1.02-2.6-1.48-4.8-3.42-6.6-5.82-3.24,2.32-7.3,4.44-12.18,6.36-.76.32-1.02.1-.78-.66.08-.4.24-.72.48-.96,4.28-2.24,7.84-4.76,10.68-7.56-1.64-2.96-2.84-6.46-3.6-10.5h-7.98v3.84ZM218.91,52.22c-1.16.08-2.11.25-2.85.51-.74.26-1.15.39-1.23.39-2.08-1.72-3.12-2.7-3.12-2.94,2.28.36,5.04.56,8.28.6h9.96v-4.98h-6.84c-1.16.08-2.11.25-2.85.51-.74.26-1.15.39-1.23.39-2.08-1.72-3.12-2.7-3.12-2.94,2.28.36,5.04.56,8.28.6h5.76v-4.44h-9.84c-1.16.08-2.11.25-2.85.51-.74.26-1.15.39-1.23.39-2.08-1.92-3.12-2.9-3.12-2.94,2.28.36,5.04.56,8.28.6h14.1c.04-.24.45-1.04,1.23-2.4.78-1.36,1.47-3.52,2.07-6.48,4.64,2.04,6.96,3.24,6.96,3.6,0,.16-.3.26-.9.3-.6.04-1.18,0-1.74-.12-2.16,2.68-4.1,4.38-5.82,5.1h7.5l3.42-3.84c2.72,2.48,4.28,3.94,4.68,4.38,0,.6-.44.9-1.32.9h-16.62v4.44h8.04l3.42-3.84c2.76,2.48,4.32,3.94,4.68,4.38,0,.6-.44.9-1.32.9h-14.82v4.98h12.12l3.42-3.84c2.76,2.48,4.32,3.94,4.68,4.38,0,.6-.44.9-1.32.9h-34.74ZM220.83,31.04c-.24-.2-.35-.46-.33-.78.02-.32.18-.48.48-.48s1.55.46,3.75,1.38c2.2.92,3.76,2.08,4.68,3.48.16.24.24.74.24,1.5,0,1.4-1.16,2.1-3.48,2.1-.56-.04-1.16-.72-1.8-2.04-1.12-2.4-2.3-4.12-3.54-5.16ZM242.13,54.86c-.16-.12-.29-.25-.39-.39-.1-.14,0-.33.33-.57.32-.24.74-.32,1.26-.24.52.08,1.48.47,2.88,1.17,1.4.7,2.17,1.36,2.31,1.98.14.62.13,1.17-.03,1.65-.8,1.44-1.68,2.16-2.64,2.16-.52,0-.92-.36-1.2-1.08-.96-2.6-1.8-4.16-2.52-4.68Z"/>
        <path class="cls-1" d="M289.03,80.9c-.4.04-.76.06-1.08.06-1.28,0-1.92-.34-1.92-1.02,0-.52.76-.98,2.28-1.38,6.4-1.84,11.16-4.84,14.28-9,2.68-3.6,4.02-8.38,4.02-14.34,0-4.16-1.08-7.28-3.24-9.36-3.2-3.16-6.76-4.74-10.68-4.74h-.72c-.72,0-1.36.06-1.92.18-1.84,11.04-3.66,18.48-5.46,22.32s-3.56,6.51-5.28,8.01c-1.72,1.5-3.08,2.25-4.08,2.25h-.66c-2.28,0-4.1-1.64-5.46-4.92-1.92-2.68-2.88-4.84-2.88-6.48v-.06c0-3.64.97-7.25,2.91-10.83,1.94-3.58,4.86-6.74,8.76-9.48,3.9-2.74,8.19-4.13,12.87-4.17,6.36,0,11.38,1.8,15.06,5.4,3.64,4.32,5.46,8.7,5.46,13.14,0,6.68-2.23,12.25-6.69,16.71-4.46,4.46-9.65,7.03-15.57,7.71ZM286.57,41.6c-3.04.6-5.8,2-8.28,4.2-2.48,2.2-4.3,4.45-5.46,6.75-1.16,2.3-1.74,5.33-1.74,9.09s1.22,6.06,3.66,6.9h.36c1.36,0,2.7-.9,4.02-2.7,3.24-4.24,5.72-12.32,7.44-24.24Z"/>
        <path class="cls-1" d="M331.89,52.94v.6c0,1.56-.6,2.4-1.8,2.52h-.12c-.84,0-1.58-.64-2.22-1.92-.76-1.72-2.88-4.32-6.36-7.8-.2-.2-.32-.53-.36-.99-.04-.46.18-.69.66-.69s1.6.5,3.36,1.5c4.56,1.84,6.84,4.1,6.84,6.78ZM331.53,75.02l1.2,5.04c0,2.92-1.12,4.38-3.36,4.38h-.48c-1.12,0-1.68-.62-1.68-1.86,0-.24.13-1.26.39-3.06.26-1.8.39-3.7.39-5.7-1-1.76-2.28-3.22-3.84-4.38-.32-.64-.62-1.26-.9-1.86,1.32.4,2.24.6,2.76.6,1.12,0,1.98-.44,2.58-1.32,2.32-3.96,5.32-11.48,9-22.56.16-.48.39-.83.69-1.05.3-.22.54-.33.72-.33s.39.09.63.27c.24.18.36.47.36.87-.72,2.16-1.4,4.22-2.04,6.18,2.6.44,4.59.66,5.97.66h2.49c2.16-3.4,3.86-6.72,5.1-9.96h-6.06c-1.36,0-2.78.34-4.26,1.02-.64-.84-1.64-1.74-3-2.7.24-.32.38-.5.42-.54,2.08.36,4.54.54,7.38.54h7.92v-5.52l-.3-2.94c0-.08.06-.12.18-.12h.42c4.32.52,6.56,1.1,6.72,1.74l-2.22,1.5v5.34h8.94l3.24-3.84c3.24,2.48,4.86,4,4.86,4.56,0,.64-.48.96-1.44.96h-18.18c-2.4,3.92-4.92,7.2-7.56,9.84,3.72-.2,10.14-.74,19.26-1.62-1.72-2.56-3.42-4.38-5.1-5.46-.32-.2-.48-.38-.48-.54-.04-.56.24-.84.84-.84.4,0,.92.2,1.56.6,4.64,2.8,8.56,6.36,11.76,10.68.48.96.72,2.03.72,3.21s-.88,2.25-2.64,3.21h-.54c-.32,0-.97-1.09-1.95-3.27-.98-2.18-2.05-4.19-3.21-6.03-10.12,2.2-18.74,3.6-25.86,4.2-.44,1.72-.96,2.58-1.56,2.58h-.06c-1.2-.72-2.32-3.08-3.36-7.08-4.28,13.28-6.42,21.26-6.42,23.94v.66ZM336.93,39.44c.08.28.12.72.12,1.32,0,1.56-.62,2.4-1.86,2.52h-.12c-.88,0-1.65-.75-2.31-2.25-.66-1.5-2.73-3.99-6.21-7.47-.2-.2-.32-.53-.36-.99-.04-.46.18-.69.66-.69s1.6.48,3.36,1.44c3.6,1.48,5.84,3.52,6.72,6.12ZM335.37,84.44c-.56,0-.84-.38-.84-1.14,0-.32.14-.64.42-.96,5.52-3.4,8.48-7.86,8.88-13.38l.72-9.9-.24-2.64c-.04-.28.1-.42.42-.42s1.41.15,3.27.45,2.79.59,2.79.87l-1.86,1.92-.42,9.72c-1.52,6.48-5.6,11.54-12.24,15.18-.36.2-.66.3-.9.3ZM353.19,74.6v-15l-.24-2.64c-.04-.28.08-.42.36-.42s1.37.15,3.27.45c1.9.3,2.85.59,2.85.87l-1.86,1.92v15.42c.2,2.2.3,3.58.3,4.14v1.02c-.04.8-1.3,1.2-3.78,1.2-.8,0-1.2-.63-1.2-1.89s.1-2.95.3-5.07ZM369.15,79.94h2.88c.96,0,1.7-2.98,2.22-8.94l.36-4.2c.36-2.36.67-3.54.93-3.54s.47,1.16.63,3.48l.36,10.44.84,2.52c.48.44.72.86.72,1.26s-.04.74-.12,1.02c-.6,1.68-2.16,2.52-4.68,2.52h-5.64c-3.24,0-4.86-1.62-4.86-4.86v-20.4l-.36-2.64c-.04-.28.15-.42.57-.42s1.54.14,3.36.42c1.82.28,2.73.58,2.73.9,0,.2-.3.47-.9.81-.6.34-.9.71-.9,1.11v18.36c0,1.44.62,2.16,1.86,2.16Z"/>
        <path class="cls-1" d="M435.23,67.04c.56,0,.84.9.84,2.7,0,3.56-1.14,6.18-3.42,7.86-1.4,1.08-2.72,1.62-3.96,1.62-4.72,0-7.08-2.72-7.08-8.16,0-1.8.36-5.48,1.08-11.04.72-5.56,1.08-8.82,1.08-9.78s-.08-1.82-.24-2.58c-.12-.56-.78-.94-1.98-1.14-.2-.08-.42-.12-.66-.12-3.16,0-8.68,3.78-16.56,11.34l-2.94,2.82.6,10.98c.28,2.92.42,4.97.42,6.15s-.36,2.19-1.08,3.03c-1.36,1.64-2.44,2.46-3.24,2.46s-1.28-.4-1.44-1.2c-.08-.4-.12-1.12-.12-2.16s.24-2.88.72-5.52l.18-8.16-2.88,4.44c-1.72,2.72-3.18,4.08-4.38,4.08-.24,0-.44-.04-.6-.12-1.12-.6-1.68-1.68-1.68-3.24s.46-2.72,1.38-3.48l4.02-3.36c1.2-1,2.68-2.64,4.44-4.92l.06-2.28c0-.72.04-2.86.12-6.42l-1.5,1.02c-.8,1.12-1.73,1.68-2.79,1.68s-2.09-.5-3.09-1.5c-1.36-1.2-2.16-2.78-2.4-4.74.04-.24.13-.36.27-.36s.63.33,1.47.99,1.62.99,2.34.99h.24c1.56,0,3.34-.62,5.34-1.86.08-1.76.12-3.6.12-5.52s-.04-3.64-.12-5.16c-.08-1.52-.56-2.53-1.44-3.03-.88-.5-1.34-.87-1.38-1.11,0-.16.33-.24.99-.24s1.63.24,2.91.72c3.44,1.32,5.16,2.7,5.16,4.14,0,.36-.5,1.32-1.5,2.88-.4.64-.62,2.56-.66,5.76,1.48-.76,2.96-1.54,4.44-2.34.52.32.78.76.78,1.32s-.3,1.16-.9,1.8l-4.68,5.7-.18,5.04c8.48-8.92,15.06-13.7,19.74-14.34,2.12,0,3.72.4,4.8,1.2,1.08.84,1.75,1.76,2.01,2.76.26,1,.39,2.1.39,3.3s-.34,3.78-1.02,7.74c-.68,3.96-1.02,7.55-1.02,10.77s.46,5.15,1.38,5.79c.28.16.69.24,1.23.24h1.17c2.24-.2,3.7-2.32,4.38-6.36.12-.72.38-1.08.78-1.08h.06Z"/>
        <path class="cls-1" d="M455.43,74.54c.56,1.04.84,2.04.84,3,0,2.52-.76,3.86-2.28,4.02h-.06c-.64-.04-1.44-.7-2.4-1.98s-1.54-2.4-1.74-3.36c-.68-3-1.02-6.28-1.02-9.84s.07-6.31.21-8.25c.14-1.94.67-4.61,1.59-8.01.92-3.4,1.38-5.62,1.38-6.66s-.14-1.85-.42-2.43c-.28-.58-.74-1.35-1.38-2.31-.64-.96-.96-1.54-.96-1.74s.06-.3.18-.3c.76,0,1.82.4,3.18,1.2,2.68,1.64,4.02,3.46,4.02,5.46l-2.22,6.84c-1.2,3.72-1.8,7.56-1.8,11.52v1.5c0,.76.34,2.76,1.02,6l1.86-2.88c2.2-3.48,3.56-5.48,4.08-6,.52-.52.88-.78,1.08-.78.44,0,.66.24.66.72,0,.24-.2.72-.6,1.44l-1.26,2.16c-2.6,4.68-3.9,8.02-3.9,10.02,0,.24-.02.46-.06.66ZM485.91,46.76c1.52-.28,2.78-.75,3.78-1.41,1-.66,1.58-.99,1.74-.99h.36c1.28,0,2.64.66,4.08,1.98,0,1.32-.7,2.02-2.1,2.1l-3.24.72c-1.6.28-3.2.58-4.8.9-.08,1.92-.12,3.07-.12,3.45s.06,3.11.18,8.19l.24,6.78c4.52,1.2,7.66,3.08,9.42,5.64l.06.96c0,1.52-1.04,2.28-3.12,2.28-1.24,0-2-.22-2.28-.66-.64-1.08-1.1-1.86-1.38-2.34-.28-.48-.55-.85-.81-1.11-.26-.26-.91-.63-1.95-1.11-.32,2.8-1.5,5.06-3.54,6.78-2.04,1.68-4.33,2.52-6.87,2.52s-4.77-.72-6.69-2.16-2.88-3.46-2.88-6.06c0-1.32.58-2.62,1.74-3.9,1.72-1.8,4.12-2.7,7.2-2.7h.12c2.32,0,4.5.2,6.54.6.32-2.16.48-4.5.48-7.02s-.06-5-.18-7.44l-.12-2.28c-3.4.28-5.92.62-7.56,1.02-1.64.4-2.74.6-3.3.6-2.08,0-3.54-.77-4.38-2.31-.84-1.54-1.26-2.49-1.26-2.85,0-1.12.04-1.68.12-1.68.24,0,.4.06.48.18.72,1.48,2.12,2.38,4.2,2.7,5.04-.12,8.88-.38,11.52-.78v-1.32c0-1.8-.16-3.74-.48-5.82-.2-1.28-1-2.36-2.4-3.24-.8-.52-1.25-.86-1.35-1.02-.1-.16-.15-.32-.15-.48,0-.56.4-.77,1.2-.63.8.14,1.92.41,3.36.81,3.56,1.08,5.34,2.28,5.34,3.6,0,.64-.21,1.18-.63,1.62-.42.44-.63,1.24-.63,2.4l.06,2.28v1.2ZM474.09,77.9h.24c3.04,0,5.04-1,6-3,.56-1.2.84-2.2.84-3v-.72c-2-.96-4.24-1.44-6.72-1.44-1.28,0-2.5.46-3.66,1.38-1.16.96-1.74,1.89-1.74,2.79s.48,1.79,1.44,2.67c.96.88,2.14,1.32,3.54,1.32h.06Z"/>
        <path class="cls-1" d="M524.81,75.08h4.44c5.28-.04,8.5-.4,9.66-1.08.44-.28.92-.61,1.44-.99.52-.38,1.12-.57,1.8-.57h.06c2.04,0,4.02.72,5.94,2.16.84.64,1.26,1.14,1.26,1.5,0,.52-.38.92-1.14,1.2-1.64.64-4.24,1.21-7.8,1.71-3.56.5-6.86.75-9.9.75s-5.74-.09-8.1-.27c-2.36-.18-4.53-.86-6.51-2.04-1.98-1.18-3.35-2.33-4.11-3.45-.76-1.16-1.14-2.16-1.14-3,0-2.84.49-5.26,1.47-7.26.98-2,2.57-3.8,4.77-5.4.44-.32.8-.48,1.08-.48s.52.1.72.3c.2.2.3.41.3.63s-.36.59-1.08,1.11c-2.84,2-4.26,4.9-4.26,8.7,0,2,.78,3.46,2.34,4.38,2.2,1.24,5.12,1.94,8.76,2.1ZM533.87,43.34c-2.12.08-4.56.14-7.32.18-5.8-.68-9.88-2.42-12.24-5.22-.44-.48-.66-.84-.66-1.08s.18-.36.54-.36.72.12,1.08.36c3.12,1.84,7.2,2.76,12.24,2.76,2.8,0,5.52-.48,8.16-1.44,1.04-.36,2.11-.54,3.21-.54s2.12.45,3.06,1.35c.94.9,1.41,1.83,1.41,2.79,0,.6-.56.98-1.68,1.14l-16.2,8.94c-.72.4-1.2.6-1.44.6-.56,0-.84-.22-.84-.66,0-.16.16-.36.48-.6l3.72-2.88c3.36-2.6,5.52-4.38,6.48-5.34Z"/>
        <path class="cls-1" d="M573.89,71.24c-.36,1.28-1.04,1.92-2.04,1.92s-1.89-.42-2.67-1.26c-.78-.84-1.17-1.74-1.17-2.7s.38-2.74,1.14-5.34l3.66-15.12c-2.08.52-3.58.78-4.5.78-3.72-.68-5.8-2.9-6.24-6.66-.08-.72,0-1.08.24-1.08s.4.07.48.21c.08.14.28.43.6.87l.3.54c.72,1.48,1.87,2.22,3.45,2.22s3.75-.2,6.51-.6c.48-1.16.93-2.82,1.35-4.98.42-2.16.63-3.62.63-4.38s-.46-1.57-1.38-2.43c-.92-.86-1.4-1.39-1.44-1.59-.04-.72.34-1.08,1.14-1.08h.6c.4,0,1.18.24,2.34.72,3.16,1.16,4.84,2.38,5.04,3.66.12,1,.12,1.54,0,1.62-1.04.84-2.26,3.48-3.66,7.92,4.48-1.04,7.6-2.2,9.36-3.48.64-.44,1.25-.93,1.83-1.47.58-.54,1.19-.81,1.83-.81s1.22.1,1.74.3c3.08.88,4.62,1.92,4.62,3.12,0,.8-1.12,1.56-3.36,2.28-4.92,1.48-10.5,2.56-16.74,3.24-2.08,5.96-3.22,11.44-3.42,16.44,4.72-4.12,10.28-6.18,16.68-6.18,8.48,0,12.72,3.4,12.72,10.2,0,1.8-.6,3.7-1.8,5.7-3.84,6.4-11.72,9.6-23.64,9.6h-1.8c-1.52-.48-2.28-.92-2.28-1.32s.62-.8,1.86-1.2c.92.04,1.42.06,1.5.06,14.08-.76,21.12-5.44,21.12-14.04-.36-3.68-3.54-5.52-9.54-5.52h-.18c-6.8,0-11.7,2.64-14.7,7.92-.04.68-.1,1.32-.18,1.92Z"/>
        <path class="cls-1" d="M623.68,71.42h-.06c-.76,0-1.42-.4-1.98-1.2-.56-.84-.87-1.65-.93-2.43-.06-.78-.09-1.77-.09-2.97v-1.86c0-2.12.5-4.4,1.5-6.84,3.16-7.36,5.54-11.14,7.14-11.34.52-.04.9.04,1.14.24-3.12,3.24-4.92,6.84-5.4,10.8-.32,2.44-.48,4.04-.48,4.8s.18,1.78.54,3.06c5.36-5.4,11.5-8.1,18.42-8.1,3.4,0,6.24.62,8.52,1.86,3.96,2.24,5.94,5.19,5.94,8.85s-2.12,7.51-6.36,11.55c-3.8,2.52-8.4,4.24-13.8,5.16-1.04.16-2.17.24-3.39.24s-1.83-.3-1.83-.9c0-.48.34-.78,1.02-.9l4.08-.66c10.16-3.24,15.24-7.9,15.24-13.98,0-5-3.1-7.6-9.3-7.8h-.3c-7,0-12.12,1.94-15.36,5.82-.44.56-1.18,1.64-2.22,3.24v.54c0,.72-.64,1.66-1.92,2.82h-.12ZM644.5,42.98c-.6,0-1.7-.24-3.3-.72-1.08-.12-2.12-.18-3.12-.18s-2,.18-3,.54c-1,.36-1.6.54-1.8.54-.84,0-1.23-.21-1.17-.63.06-.42,1.11-1.09,3.15-2.01l3.48-.42c-3.92-1.84-7.14-4.2-9.66-7.08-.32-.4-.43-.78-.33-1.14.1-.36.25-.59.45-.69.2-.1.6.23,1.2.99,3.28,2.8,6.58,4.46,9.9,4.98,1.6.24,2.61.45,3.03.63.42.18,1.02.63,1.8,1.35.78.72,1.17,1.44,1.17,2.16,0,1.12-.6,1.68-1.8,1.68Z"/>
      </g>
      <g>
        <path class="cls-3" d="M689.97,59.6c.02-.1.22,0,.27.02.7.23,7.86,3.33,10.77,11.8,1.97,5.73.97,10.9.25,13.49.85-.23,1.22-2.01,1.47-2.78,1.16-3.58,1.61-7.14,2.17-10.84.83-5.43-1.23-11.08-1.18-16.62.07-7.85,3.03-19.22,4.1-27.49.31-2.36,1.01-4.85.95-7.24-1.94.92-2.34,3.7-3.74,5.01-.67.63-1.78.83-2.53,1.48-3,2.61-6.3,5.02-5.77,9.5,1.87.16,3.52,0,4.77-1.5.8,1.07-1.4,1.99-1.97,3.03-1.31,2.38-1.22,4.89-4.34,6.67-3.73,2.13-9.43-2.19-8.49-3.2,2.71,2.64,6.52,4.71,9.53,1.25-.7-.21-1.95-.7-3.11-1.82-.72-.7-1.18-1.43-1.46-1.97-.4-1.45-.78-3.45-.75-5.84.02-1.75.27-3.27.55-4.47-2.05,1.64-2.1,2.6-2.2,3.22-.24,1.58,1.62,1.93,1.2,2.63-.11.18-.23.3-.38.38-.42.23-1.43-.16-1.87-1.14-.16-.35,1.16-2.21-1.52.27-.01.01-.91,1.88-.96,2.98-.03.83.05,3.83.05,3.87-4.14-1.42-6.69-4.29-7.39-6.83-.81-2.94.49-3.95,1.27-6.51-8.7-1.2-4.39-14.51,3.01-12.99-1.75,4.03-1.4,5.64,1.76,8.5.64.58,1.5.67,2.11,1.15,1.32,1.03.29,2.06,3.38,2.38.71.07,3.5.33,3.79-.52-2.82.56-6.28-8.56-5.9-10.2.23-1.02,1.49-.96,1.96-1.3.06-.04.2-.15.21-.29,0,0,0-.13-.13-.27-1.28-1.28-4.73-1.09-6.17.3-1.12.51-.54-.65.03-.97,2.34-1.28,6.66-1.21,7.5,1.72l-2.02.24c-1.14,1.07-.24,2.08.88,2.65,5.49,2.79,19.39-2.75,20.23-2.16,1.1.78-.71,5.51-.95,7.08-1.65,10.59-4.99,25.67-4.57,35.92.13,3.25.98,6.94,1,10.25l5.76-16c7.27-2.08,14.26,2.22,20.6,5.31l1.13-.41c.97-1.8,1.01-3.81-.38-5.38,3.17-1.26,4.27,3.27,5.19,4.63.58.53,1.46-.31,2.08.37,2.16,2.41,1.18,6.9-.97,9.02-.43.42-1.16.36-1.27.46,1.86-1.12,4.22-5.2,1.94-9.34,0,0,.93,3.23-1.3,5.35-1.17,1.11-6.15,1.99-6.15,1.99-.07.98,1.75.25,1.97,1.29.5,2.34-2.45,1.96-2.49-.29h-.49c.22,1.31-.88,1.14-1.95.93l-1.06-1.93,1,5.49c-1.33.07-1.84.31-2.25-1-1.29,1.09-2.29,2.13-3.12,3.33-.69,1-1.55,1.76-1.68,1.85-1.13.83-3.78-.12-3.87.13-.13,0,1.92,1.18,4.67,1.17.86,0,4.57-.38,6.36-3.23.31-.49.78-1.4.91-2.75,1.35.24-.42,3.09,0,3.49,2.27.27,5.5-3.03,5.05-5.19-.12-.57-1.26.03-1.04-.8.98-.04,2.69-.01,3.51-.5-1.91,1.72-1.86,4.27-4.26,6-1.53,1.1-2.85.96-4.41,1.61-.84.35-1.42,1.37-2.34,1.66-2.88.92-7.44.19-10.07-1.29.38-3.72,5.66,1.74,6.02-1.99-1.48,1.09-2.4-.03-2.97-.19,2.14.8,6.94-3.58,7.37-5.67,1.12-5.4-6.27-12.9-11.6-13.16-3.58,6.11,3.48,9.41,5.77,13.96,1.76,1.02,4.46-3.33,5.44-4.43.02,2.44-2.49,5.11-4.8,5.49-1.45.24-3.44-1.44-3.73-.23-.26,1.1,1.27,3.96,2,4.24-1.4-.41-1.76-.04-2.4-2.37-1.47-5.38,2.1-1.89,2.22-3.15.16-1.59-3.95-3.96-4.77-5.3-.38-.62-2.68-7.23-4.08-6.17-1.2,5.51-4.43,11.15-5.81,16.46-1.02,3.89-1.17,8.77-2.73,12.77l5.36-4.66c5.42-3.17,9.2-1.41,12.22,3.42-3.81-3.9-7.23-6.1-12.3-2.5-1.42,1.01-8.09,7.74-7.78,9.23,4.41,3.08,7.62-2.08,12.29-1.75,4.04.29,6.55,4.16,11.05,4.05,2.07-.05,5.18-1.19,6.27-3.03-2.16-.14-4.4.3-6.54-.24-4.4-1.11-6.48-6.59-12.25-5.74-1.16.07-4.76,2.2-5.96,2.22-.86.02,5.44-2.93,6.15-3.03,5.12-.74,7.35,4,11.58,5.27-.95-1.34-1.69-3.17-2.51-4.49,1.23,1.26,3.23,4.54,3.86,4.9,1.85,1.08,5.08.4,7.18.6,1.18,1.03-5.23,3.88-6.26,4.01-5.58.69-6.2-1.66-10.31-3.25-6.22-2.41-9.22,4.68-15.32,1.35l-2.74,3.39c-.49-1.24,1.05-2.21,1.42-3.64-2.06-2.18-6.66-7.96-7.24-11.06-1.32-7.17-1.48-13.46-3.36-18.82-.75-1.85-2.79-3.81-2.13-5.46.71.56,1.46,1.19,2.22,1.91.73.69,1.29,1.28,1.57,1.58.12.13.09.2-.05.14-.15-.05-2.28-1.9-2.51-1.72-.2.15.94,1.8,1.14,2.26.73,1.71,1.4,4.79,1.68,6.93.32,2.45.36,5.16.77,7.58.98,5.73,4.24,11.42,8.48,15.3.37-5.21-1.3-10.69-3.27-15.48-.78-1.91-2.07-3.57-2.75-5.51,4.16,4.63,6.82,15.25,6.27,20.64,0,0,.25-.59.31-.69,1.52-2.39,3.01-10.08,1.6-15-.43-1.52-1.79-5.28-4.95-8.82-2.98-3.34-6.06-4.66-6-4.95ZM687.21,25.95c-2.67-2.87-9.31-6.37-7.53-10.99-6.01,2.61-5.17,13.39,2.51,11-.15,1.77-2.2,1.65-2.78,3.47-1.52,4.8,2.28,7.41,5.55,10.02.43-1.65.08-3.16.64-4.86.67-2.03,2-2.16,3.05-3.46.26-.31,2.26-3.5,2.08-3.67-1.32.48-1.43-1.01-2.24-1.06-1.53-.09-3.52,1.27-4.47,1.02-1.62-.43-.77-3.09,1.19-2.46v1.5s2.01-.51,2.01-.51ZM709.8,15.96l-5.16,1.14s1.47,1.47,1.47,1.48c0,0,.68,1.37.68,1.37.47-.27,3.01-1.26,3.01-3.99ZM705.56,18.8c-2.55-3.1-7.51.23-11.05.17-1.68-.03-3.63-1.26-5.3-.76.83,1.87,3.32,6.67,5.27,6.78,2.42.14,8.85-2.99,10.69-4.6.57-.5,1-.85.39-1.59ZM706.28,20.46l-9.2,5.08c-4.06,3.08-3.64,4.9-1.84,9.4,0,0,2.05-4.44,3-5.75,2.3-3.18,8.23-4.19,8.04-8.73ZM699.26,36.45c-4.19,2.22-5.96-2.97-6.04-6.28-.04-1.7,2.04-2.9,1.75-4.27-3.92,2.08-4.22,8.03-2.88,11.39.29.74,2.7,3.22,3.48,3.38,1.89.37,2.76-2.42,3.69-4.22ZM732.39,58.44c-4.8-1.57-8.89-5.04-14.05-5.5l4.02,2.74,5.84,6.2c.84-.33,4.84-2.56,4.19-3.44ZM736.27,54.08c-.12-.14-1.65-1.66-1.7-1.6,1.36,6.57-2.34,7.86-5.69,10.45,4.59,1.25,8.73.97,8.57-4.74-.03-1.01-.56-3.4-1.18-4.11Z"/>
        <g>
          <path class="cls-3" d="M110.05,39.2c-3.46.59-5.45-2.44-7.86-3.91-2.4-1.47-9.58-3.05-12.47-3.12-.89-.02-1.68,0-2.25.8l5.21.3c2.13.77,4.88.9,6.94,1.59,3.87,1.28,7.02,6.8,11.94,4.85-2.9-3.03-1.41-6.83-2.52-10.48-.94-.1-.41,1.05-.35,1.6.28,2.88,0,5.98,1.36,8.39Z"/>
          <path class="cls-3" d="M105.69,56.6c-8.26,2.85-8.76,4.18-13.09,10.94-.32.5-.49.85-1.19,1.29-1.04-5.45.27-11.18.06-16.64-2.85,2.27,1.87,9.52-4.18,8.06l-2.84-6.05c1.71,0,4.06.37,5.02-1.5-8.67,4.31-7.97-6.78-14.05-9.75,3.76-1.44,7.3-3.91,11.54-3.25.09-.71-1.94-.95-2.31-.94-2.31.04-10.33,3.41-11.77,5.18-2.13,2.63-1.61,3.83-.67,6.71.18.56.74,1.26-.32.82-1.61-3.05-6.02-5.03-6.43-8.63-.25-2.23,1.22-6.79,2.95-8.33.82-.73,4.26-2.69,5.27-2.76,1.27-.09,2.73.83,4.04.93,6.45.48,8.59-1.39,10.81,6.23,1.51,5.18.17,7.6.41,12.06.04.76-.35,1.45.77,1.26,2.67-.46,1.57-6.58,1.82-8.69.37-3.22,1.3-6.3,2.44-9.31,0,0-1.86,2.64-2.08,3.67-.67,3.17-1.45,13.3-1.93,13.32v-9.75c0-.36-.89-3.26-1.11-3.89-1.11-3.04-4.24-4.94-.37-7.59,1.22-.84,3.02-.97,4.18-1.84.88-.65,1.2-1.73,2.07-2.44,3.93-3.22,8.29-1.91,11.84,1.23.71.63.68,1.69,1.47,1.77.41-2.09-1.82-2.45-2.71-3.54-4.29-5.32-5.55-10.85-14.49-9.33-1.61.27-4.31,2.2-5.14,2.2-1.23,0-3.13-1.98-5.95-1.78-.83.06-9.36,2.47-10.23,2.85-3.06,1.33-1.89,4.35-2.75,5.51-.25.33-2.33.67-3.09,1.18-4.8,3.18-6.03,10.89-4.33,16.42.31,1.02.9-.07.99-.75.62-4.59,1.81-8.91,7.54-7.74-2.07,2.52-3.4,6.35-2.9,9.62.59,3.78,4.22,4.95,6.41,8.62.32.54,2.87.76,2.51.25-1.75-2.49-2.61-5.8,0-8.27.36-.25.72-.22,1.13-.16,3.1.46,9.13,13.54,11.4,16.55.64.85,1.75.84,2.39,2.26.7,1.57.85,4.35,1.13,6.12-5.46-8.99-14.57,2.08-14.05,8.74.12,1.51.96,2.91.88,4.38-.1,1.8-1.5,4.49-1.89,6.37,1.06.8,4.21-2.91,5.45-4.41.06-.07-.03-.17-.11-.12l-3.34,2.28c1.27-4.12,2.2-9.4,4.02-13.24-2.27,2.28-1.95,4.52-3.02,7.5-4.71-4.74,5.08-19.36,10.54-12.24l-5.68,2.33c-1.31.57-1.37,1.42-1.84,2.41,3-3.02,7.7-5.56,10.04-.51-7.84.04-7.44,5.35-10.04,11,.13.14.8-.62,1.35-1.69,1.45-2.8,1.46-7.36,5.54-8.18,4.49-.91,3.73.95,5.95,3.83,2.03,2.63,11.33,14.25,13.63,14.91.86.25,1.76.13,2.64.12l-9.02-9.26c-.89-2-7.88-9.34-7.5-10.88.63-2.55,9.24-1.88,11.5-3.59,2.43-1.84,2.15-8.98,7-10.04,1.72-.38,3.34.88,4.04-.69-4.15-1.94-5.82-2.67-10.38-1.1ZM62.14,34.24l-2.79,4.96c-.55-6.53,1.24-12.24,8.04-14.23,2.97-.87,4.85-1.13,7.51.74.22-1.04-.5-1.16-1.15-1.6-1.5-1-3.81-.54-5.46-1.38-.26-.37.12-1.95,1.81-3.05,2.32-1.52,9.95-2.93,12.48-2.35.72.16,1.43.56,1.86,1.17.15.69-2.65,2.98-1,3.71.64-3.86,7.33-6.25,10.79-6.01,2.53.18,7.27,2.71,7.29,5.51-2.9-.33-5.23,1.75-7.31,3.48-.83.69-1.17,1.8-2.05,2.45-.31.23-5.15,2.52-5.45,2.58-1.43.28-.54-2.18-.75-3.01,4.05,1.88,2.67-1.89.24-2.99-1.31.06-.56,6.88-.75,8.1l-1.47-.39c-.04-1.28-.39-3.05-.64-4.31s.46-1.45-.06-2.08-1.25-1.35-1.83-.83c-1.01.89.86,2.41,1.07,3.17.56,2.01,1.08,3.66.69,4.03-.05.05-.83,0-1.13.06-1.43.29-2.39-3.67-2.68-4.47-.31-.82-.6-1.14-.86-1.13-.51.03-.9,1.67-.84,3.01.04.9,1.34.29,1.44.77.02.09,1.44,1.81,1.26,1.98-.1.1-1.45-.21-1.81-.24-.59-.11-1.46-1.9-1.57-2.1-.53-.97-1.27-1.56-1.24-1.37.01.07,1.15,2.11,1.65,3.28-1.61-.15-3.12-.74-4.79-.53-1.74.22-2.48,1.83-4.56,2.01-2.69.23-3.74-1.76-5.93,1.05ZM95.79,77.66c.96,1.31,4.86,5.44,5.41,6.94-3.27-2.74-7.27-7.77-9.22-12.42,1.73,2.14,2.18,3.26,3.81,5.48ZM92.49,71.18c-.12-.74-.54-1.14-.26-1.96.27-.8,2.93-5.2,3.55-6,2.63-3.36,8.73-5.37,12.76-6.53-.47.95-2.03,1.08-2.98,1.78-3.69,2.72-7.95,5.18-10.78,8.76-.71.9-2.3,3.95-2.3,3.95ZM104.23,68.14l-10.24,2.04c1.54-4.34,6.19-6.49,9.77-9.01.84-.59,1.43-1.6,2.3-2.2,1.38-.94,5.84-3.25,7-1.29-5.87-.07-5.81,7.02-8.83,10.45Z"/>
        </g>
      </g>
    </g>
  </g>
</svg>