<?xml version="1.0" encoding="UTF-8"?>
<svg id="_レイヤー_2" data-name="レイヤー 2" xmlns="http://www.w3.org/2000/svg" xmlns:xlink="http://www.w3.org/1999/xlink" viewBox="0 0 240 80.3">
  <defs>
    <style>
      .cls-1 {
        fill: #0a1543;
      }

      .cls-2 {
        fill: url(#_名称未設定グラデーション_37);
      }

      .cls-3 {
        fill: #00404f;
      }
    </style>
    <linearGradient id="_名称未設定グラデーション_37" data-name="名称未設定グラデーション 37" x1="120" y1="2" x2="120" y2="71" gradientTransform="translate(83.5 156.5) rotate(-90)" gradientUnits="userSpaceOnUse">
      <stop offset=".24" stop-color="#a5e26f"/>
      <stop offset=".36" stop-color="#a7e273"/>
      <stop offset=".49" stop-color="#b0e580"/>
      <stop offset=".62" stop-color="#bdea96"/>
      <stop offset=".76" stop-color="#d1f0b5"/>
      <stop offset=".9" stop-color="#e9f8dd"/>
      <stop offset="1" stop-color="#fff"/>
    </linearGradient>
  </defs>
  <g id="_レイヤー_14" data-name="レイヤー 14">
    <g id="UI_tombstone">
      <rect class="cls-3" width="240" height="80.3" rx="25" ry="25"/>
      <rect class="cls-3" width="240" height="73" rx="25" ry="25"/>
      <rect class="cls-2" x="85.5" y="-81.5" width="69" height="236" rx="23" ry="23" transform="translate(156.5 -83.5) rotate(90)"/>
      <g>
        <path class="cls-1" d="M95.22,35.55l2.7.43c-1.03,2.26-2.61,4.37-4.73,6.35-2.12,1.98-4.89,3.67-8.3,5.06-.1-.22-.23-.44-.41-.68-.18-.24-.37-.47-.58-.7-.21-.23-.4-.4-.59-.52,2.16-.82,4.04-1.76,5.63-2.83s2.91-2.21,3.94-3.44,1.81-2.45,2.34-3.67ZM83.98,38.29h32.18v2.2h-32.18v-2.2ZM84.56,21.73h31.21v2.23h-31.21v-2.23ZM85.93,49.3h28.66v2.2h-28.66v-2.2ZM88.23,26.37h24.01v9.83h-24.01v-9.83ZM90.86,28.1v2.3h18.65v-2.3h-18.65ZM90.86,32.1v2.34h18.65v-2.34h-18.65ZM91.08,43.94h17.96v2.05h-17.96v-2.05ZM92.55,19.28h2.63v6.73h-2.63v-6.73ZM98.78,41.35h2.66v9h-2.66v-9ZM107.02,38.9c.67.86,1.54,1.7,2.61,2.5,1.07.8,2.24,1.52,3.51,2.16,1.27.64,2.54,1.13,3.82,1.49-.29.24-.59.56-.92.97-.32.41-.57.77-.74,1.08-1.32-.46-2.63-1.06-3.92-1.82-1.3-.76-2.5-1.62-3.6-2.59-1.1-.97-2.04-1.99-2.81-3.04l2.05-.76ZM105.01,19.28h2.66v6.73h-2.66v-6.73Z"/>
        <path class="cls-1" d="M134.82,23.27l2.88.76c-.84,2.47-1.89,4.95-3.15,7.43-1.26,2.48-2.72,4.82-4.39,7s-3.57,4.08-5.71,5.69c-.14-.19-.32-.41-.54-.67-.22-.25-.44-.51-.68-.77-.24-.26-.46-.47-.65-.61,2.02-1.51,3.82-3.29,5.4-5.35,1.58-2.05,2.95-4.24,4.1-6.57,1.15-2.33,2.06-4.63,2.74-6.91ZM124.05,22.02h31.32v2.63h-31.32v-2.63ZM130.46,34.11h22.75v18.22h-2.88v-15.62h-17.14v15.7h-2.74v-18.29ZM131.65,47.29h20.45v2.59h-20.45v-2.59Z"/>
      </g>
    </g>
  </g>
</svg>