<?xml version="1.0" encoding="UTF-8"?>
<svg id="_レイヤー_2" data-name="レイヤー 2" xmlns="http://www.w3.org/2000/svg" xmlns:xlink="http://www.w3.org/1999/xlink" viewBox="0 0 240 80.3">
  <defs>
    <style>
      .cls-1 {
        fill: #0a1543;
      }

      .cls-2 {
        fill: url(#_名称未設定グラデーション_37);
      }

      .cls-3 {
        fill: #00404f;
      }
    </style>
    <linearGradient id="_名称未設定グラデーション_37" data-name="名称未設定グラデーション 37" x1="120" y1="2" x2="120" y2="71" gradientTransform="translate(83.5 156.5) rotate(-90)" gradientUnits="userSpaceOnUse">
      <stop offset=".24" stop-color="#a5e26f"/>
      <stop offset=".36" stop-color="#a7e273"/>
      <stop offset=".49" stop-color="#b0e580"/>
      <stop offset=".62" stop-color="#bdea96"/>
      <stop offset=".76" stop-color="#d1f0b5"/>
      <stop offset=".9" stop-color="#e9f8dd"/>
      <stop offset="1" stop-color="#fff"/>
    </linearGradient>
  </defs>
  <g id="_レイヤー_14" data-name="レイヤー 14">
    <g id="UI_eidaikuyou">
      <rect class="cls-3" width="240" height="80.3" rx="25" ry="25"/>
      <rect class="cls-3" width="240" height="73" rx="25" ry="25"/>
      <rect class="cls-2" x="85.5" y="-81.5" width="69" height="236" rx="23" ry="23" transform="translate(156.5 -83.5) rotate(90)"/>
      <g>
        <path class="cls-1" d="M41.07,33.68h.58l.5-.11,1.76.79c-.62,2.45-1.48,4.68-2.56,6.7s-2.31,3.79-3.69,5.31c-1.38,1.52-2.85,2.78-4.41,3.76-.14-.22-.34-.45-.59-.7s-.52-.5-.79-.76c-.28-.25-.53-.45-.77-.59,1.54-.89,2.96-2.01,4.28-3.37,1.32-1.36,2.47-2.92,3.46-4.68.98-1.76,1.73-3.69,2.23-5.78v-.58ZM31.89,33.68h10.22v2.59h-10.22v-2.59ZM36.57,26.69h11.56v2.59h-11.56v-2.59ZM39.85,21.55l1.33-2.2c1.1.26,2.27.57,3.51.92,1.24.35,2.47.73,3.69,1.15,1.22.42,2.37.85,3.44,1.28,1.07.43,1.99.85,2.75,1.26l-1.37,2.56c-.77-.41-1.67-.84-2.72-1.3s-2.17-.91-3.38-1.37c-1.21-.46-2.44-.88-3.67-1.28-1.24-.4-2.43-.74-3.58-1.03ZM46.54,26.69h2.88v22.21c0,.84-.11,1.48-.34,1.93-.23.44-.64.79-1.24,1.03-.58.22-1.36.35-2.36.4-1,.05-2.25.07-3.76.07-.05-.36-.16-.81-.34-1.35s-.38-.99-.59-1.35c.72.02,1.42.04,2.09.05.67.01,1.27.02,1.78.02h1.06c.31-.02.53-.09.65-.2s.18-.32.18-.63v-22.18ZM49.14,28.35c.79,3,1.88,5.77,3.28,8.32,1.39,2.54,3.11,4.76,5.15,6.66,2.04,1.9,4.39,3.35,7.06,4.36-.19.19-.41.43-.67.7-.25.28-.49.56-.7.86-.22.3-.4.57-.54.81-2.74-1.2-5.13-2.82-7.18-4.86-2.05-2.04-3.79-4.45-5.2-7.22-1.42-2.77-2.57-5.81-3.46-9.13l2.27-.5ZM60.87,29.29l2.48,1.76c-1.01.94-2.1,1.91-3.28,2.92-1.18,1.01-2.36,1.97-3.55,2.9s-2.3,1.73-3.33,2.43l-1.91-1.55c1.03-.72,2.13-1.57,3.29-2.54s2.3-1.97,3.42-3.01c1.12-1.03,2.07-2,2.86-2.92Z"/>
        <path class="cls-1" d="M77.14,19.64l2.56.83c-.91,2.11-1.97,4.18-3.19,6.19-1.21,2.02-2.53,3.91-3.94,5.67s-2.87,3.32-4.36,4.66c-.1-.22-.24-.49-.43-.83-.19-.34-.39-.67-.59-.99-.2-.32-.39-.58-.56-.77,1.39-1.18,2.74-2.54,4.05-4.1,1.31-1.56,2.51-3.25,3.62-5.08,1.1-1.82,2.05-3.68,2.84-5.58ZM73.04,29.25l2.74-2.74.04.07v25.74h-2.77v-23.08ZM77.54,31.63l22.32-2.81.4,2.56-22.32,2.81-.4-2.56ZM85.6,19.78h2.7c.14,4.06.41,7.84.79,11.34.38,3.5.91,6.59,1.58,9.25.67,2.66,1.51,4.76,2.52,6.3,1.01,1.54,2.18,2.38,3.53,2.52.53.02.95-.49,1.26-1.55.31-1.06.55-2.63.72-4.72.19.17.43.35.72.54.29.19.58.37.86.52.29.16.52.28.68.38-.26,2.06-.6,3.69-1.01,4.88s-.87,2.02-1.39,2.48c-.52.47-1.1.68-1.75.63-1.61-.12-3.01-.73-4.21-1.84-1.2-1.1-2.21-2.63-3.04-4.57s-1.51-4.25-2.03-6.91-.94-5.62-1.24-8.86c-.3-3.24-.53-6.71-.7-10.4ZM91.62,21.33l1.94-1.3c.72.58,1.46,1.21,2.23,1.91.77.7,1.48,1.39,2.14,2.07.66.68,1.19,1.29,1.6,1.82l-2.09,1.44c-.41-.55-.93-1.17-1.57-1.85-.64-.68-1.33-1.39-2.07-2.12-.74-.73-1.48-1.39-2.2-1.96Z"/>
        <path class="cls-1" d="M111.56,19.35l2.56.79c-.79,2.04-1.72,4.05-2.77,6.03s-2.19,3.85-3.4,5.6c-1.21,1.75-2.48,3.3-3.8,4.64-.07-.22-.2-.49-.38-.83-.18-.34-.37-.68-.58-1.03-.2-.35-.39-.63-.56-.85,1.18-1.15,2.32-2.5,3.42-4.03,1.1-1.54,2.13-3.19,3.08-4.95.95-1.76,1.76-3.56,2.43-5.38ZM107.71,28.67l2.63-2.59.04.04v26.21h-2.66v-23.65ZM119.3,43.11l2.59.83c-.6,1.03-1.28,2.06-2.05,3.08-.77,1.02-1.57,1.99-2.41,2.9-.84.91-1.67,1.7-2.48,2.38-.17-.14-.38-.32-.63-.54-.25-.22-.52-.43-.79-.65-.28-.22-.52-.38-.74-.5,1.25-.94,2.46-2.07,3.64-3.4,1.18-1.33,2.14-2.69,2.88-4.09ZM113.04,38.47h23.4v2.63h-23.4v-2.63ZM113.94,26.98h22.1v2.59h-22.1v-2.59ZM118.58,19.67h2.63v20.2h-2.63v-20.2ZM127.51,44.44l2.12-1.22c.82.77,1.64,1.62,2.47,2.56s1.59,1.85,2.29,2.75c.7.9,1.25,1.71,1.66,2.43l-2.27,1.44c-.38-.74-.92-1.58-1.6-2.5-.68-.92-1.43-1.87-2.25-2.83-.82-.96-1.62-1.84-2.41-2.63ZM128.23,19.64h2.66v20.27h-2.66v-20.27Z"/>
        <path class="cls-1" d="M149.58,31.81l2.52.76c-.84,1.27-1.87,2.47-3.08,3.58s-2.51,2.12-3.91,3.01c-1.39.89-2.79,1.66-4.18,2.3-.12-.17-.29-.38-.52-.63-.23-.25-.47-.5-.72-.76s-.47-.45-.67-.59c1.42-.55,2.79-1.22,4.12-2,1.33-.78,2.56-1.65,3.67-2.61,1.12-.96,2.03-1.98,2.75-3.06ZM139.89,31.23h31.93v2.12h-31.93v-2.12ZM141.91,22.95h27.83v2.12h-27.83v-2.12ZM142.48,49.66c1.32-.1,2.85-.2,4.59-.32,1.74-.12,3.6-.26,5.58-.43,1.98-.17,3.96-.34,5.96-.5v2.2c-1.9.19-3.79.38-5.69.56-1.9.18-3.71.34-5.44.49-1.73.14-3.3.29-4.72.43l-.29-2.41ZM143.92,27.13h23.87v2.05h-23.87v-2.05ZM146.62,36.23h2.66v14.15h-2.66v-14.15ZM146.84,20.04l2.34-.83c.53.53,1.03,1.14,1.51,1.84.48.7.84,1.31,1.08,1.84l-2.48,1.01c-.22-.55-.56-1.19-1.03-1.91-.47-.72-.94-1.37-1.42-1.94ZM148.1,40.02h15.16v1.66h-15.16v-1.66ZM148.39,36.23h16.74v9.22h-16.74v-1.84h14.04v-5.51h-14.04v-1.87ZM156.24,44.3c.94,1.1,2.19,2.06,3.76,2.86,1.57.8,3.38,1.46,5.44,1.96,2.05.5,4.23.85,6.53,1.04-.26.26-.54.62-.83,1.06-.29.44-.52.85-.68,1.21-2.38-.29-4.61-.76-6.71-1.4-2.1-.65-3.97-1.48-5.62-2.5-1.64-1.02-2.98-2.24-4.01-3.65l2.12-.58ZM154.44,24h2.77v8.32h-2.77v-8.32ZM154.51,34.25h2.59v3.2h-2.59v-3.2ZM162.03,31.81c.72,1.03,1.64,2.01,2.75,2.93s2.35,1.74,3.69,2.45c1.34.71,2.72,1.27,4.14,1.67-.29.24-.6.57-.94.99-.34.42-.6.8-.79,1.13-1.46-.5-2.89-1.18-4.27-2.03-1.38-.85-2.65-1.82-3.82-2.9s-2.13-2.23-2.9-3.46l2.12-.79ZM162.21,19.21l2.88.72c-.48.72-.97,1.41-1.46,2.07-.49.66-.95,1.23-1.39,1.71l-2.27-.72c.38-.53.79-1.16,1.22-1.89.43-.73.77-1.36,1.01-1.89ZM167.43,44.77l2.02,1.22c-1.06.67-2.23,1.31-3.53,1.91-1.3.6-2.48,1.1-3.56,1.51l-1.58-1.08c.7-.31,1.45-.68,2.27-1.1.82-.42,1.61-.85,2.39-1.28s1.45-.83,2-1.19Z"/>
        <path class="cls-1" d="M187.02,35.55l2.7.43c-1.03,2.26-2.61,4.37-4.73,6.35s-4.89,3.67-8.3,5.06c-.1-.22-.23-.44-.41-.68-.18-.24-.37-.47-.58-.7-.2-.23-.4-.4-.59-.52,2.16-.82,4.04-1.76,5.63-2.83,1.6-1.07,2.91-2.21,3.94-3.44s1.81-2.45,2.34-3.67ZM175.78,38.29h32.18v2.2h-32.18v-2.2ZM176.36,21.73h31.21v2.23h-31.21v-2.23ZM177.73,49.3h28.66v2.2h-28.66v-2.2ZM180.03,26.37h24.01v9.83h-24.01v-9.83ZM182.66,28.1v2.3h18.65v-2.3h-18.65ZM182.66,32.1v2.34h18.65v-2.34h-18.65ZM182.88,43.94h17.96v2.05h-17.96v-2.05ZM184.35,19.28h2.63v6.73h-2.63v-6.73ZM190.58,41.35h2.66v9h-2.66v-9ZM198.82,38.9c.67.86,1.54,1.7,2.61,2.5,1.07.8,2.24,1.52,3.51,2.16,1.27.64,2.54,1.13,3.82,1.49-.29.24-.59.56-.92.97-.32.41-.57.77-.74,1.08-1.32-.46-2.63-1.06-3.92-1.82s-2.5-1.62-3.6-2.59c-1.1-.97-2.04-1.99-2.81-3.04l2.05-.76ZM196.81,19.28h2.66v6.73h-2.66v-6.73Z"/>
      </g>
    </g>
  </g>
</svg>