<?xml version="1.0" encoding="UTF-8"?>
<svg id="_レイヤー_2" data-name="レイヤー 2" xmlns="http://www.w3.org/2000/svg" xmlns:xlink="http://www.w3.org/1999/xlink" viewBox="0 0 240 80.3">
  <defs>
    <style>
      .cls-1 {
        fill: #0a1543;
      }

      .cls-2 {
        fill: url(#_名称未設定グラデーション_37);
      }

      .cls-3 {
        fill: #00404f;
      }
    </style>
    <linearGradient id="_名称未設定グラデーション_37" data-name="名称未設定グラデーション 37" x1="120" y1="2" x2="120" y2="71" gradientTransform="translate(83.5 156.5) rotate(-90)" gradientUnits="userSpaceOnUse">
      <stop offset=".24" stop-color="#a5e26f"/>
      <stop offset=".36" stop-color="#a7e273"/>
      <stop offset=".49" stop-color="#b0e580"/>
      <stop offset=".62" stop-color="#bdea96"/>
      <stop offset=".76" stop-color="#d1f0b5"/>
      <stop offset=".9" stop-color="#e9f8dd"/>
      <stop offset="1" stop-color="#fff"/>
    </linearGradient>
  </defs>
  <g id="_レイヤー_14" data-name="レイヤー 14">
    <g id="UI_funeral">
      <rect class="cls-3" width="240" height="80.3" rx="25" ry="25"/>
      <rect class="cls-3" width="240" height="73" rx="25" ry="25"/>
      <rect class="cls-2" x="85.5" y="-81.5" width="69" height="236" rx="23" ry="23" transform="translate(156.5 -83.5) rotate(90)"/>
      <g>
        <path class="cls-1" d="M83.7,43.18h32.72v2.34h-32.72v-2.34ZM93.13,27.63l2.2.65c-.7,1.1-1.57,2.12-2.63,3.06-1.06.94-2.2,1.78-3.42,2.54-1.22.76-2.46,1.4-3.71,1.93-.1-.14-.24-.32-.43-.54-.19-.22-.4-.43-.61-.65s-.41-.4-.58-.54c1.85-.7,3.62-1.59,5.31-2.68,1.69-1.09,2.98-2.35,3.87-3.76ZM84.13,21.66h32.08v2.27h-32.08v-2.27ZM92.73,40.27h2.52v3.35c0,.89-.1,1.76-.31,2.61-.2.85-.62,1.67-1.24,2.45-.62.78-1.54,1.5-2.75,2.16-1.21.66-2.84,1.23-4.88,1.71-.1-.22-.24-.44-.43-.68-.19-.24-.39-.49-.59-.74-.2-.25-.39-.45-.56-.59,1.82-.41,3.29-.88,4.39-1.4,1.1-.53,1.93-1.1,2.48-1.71.55-.61.92-1.24,1.1-1.89.18-.65.27-1.31.27-1.98v-3.28ZM97.99,30.98h.43l.47-.11,1.55.68c-.91,2.38-2.54,4.4-4.9,6.07-2.35,1.67-5.5,2.92-9.43,3.76-.14-.29-.35-.61-.61-.97-.26-.36-.53-.67-.79-.94,3.72-.7,6.68-1.75,8.89-3.17,2.21-1.42,3.67-3.05,4.39-4.9v-.43ZM84.99,27.16h30.46v2.2h-30.46v-2.2ZM88.05,34.08l1.66-1.08c.6.29,1.21.63,1.84,1.03s1.21.79,1.76,1.17c.55.38,1.01.76,1.37,1.12l-1.73,1.19c-.34-.34-.78-.71-1.33-1.12-.55-.41-1.14-.82-1.76-1.22s-1.22-.77-1.8-1.08ZM90.54,30.98h8.1v1.8h-8.1v-1.8ZM92.66,19.24h2.66v7.16h-2.66v-7.16ZM101.59,28.75h2.45v7.92c0,.46.13.76.38.9s.8.22,1.64.22h6.05c.43,0,.76-.07.97-.2.22-.13.37-.39.47-.77.1-.38.16-.96.18-1.73.29.17.64.33,1.06.49.42.16.81.28,1.17.38-.1,1.06-.26,1.87-.5,2.45-.24.58-.6.98-1.08,1.21-.48.23-1.15.34-2.02.34h-6.48c-1.13,0-2-.1-2.61-.29-.61-.19-1.04-.52-1.3-.99s-.38-1.13-.38-2v-7.92ZM112.14,30.4l1.98,1.55c-.96.41-2.06.8-3.29,1.17-1.24.37-2.5.71-3.8,1.01-1.3.3-2.56.56-3.78.77-.05-.22-.14-.5-.27-.85-.13-.35-.28-.62-.45-.81,1.18-.26,2.36-.55,3.56-.85,1.2-.3,2.33-.62,3.38-.97,1.06-.35,1.94-.69,2.66-1.03ZM104.72,19.24h2.66v7.16h-2.66v-7.16ZM104.94,40.27h2.7v12.17h-2.7v-12.17Z"/>
        <path class="cls-1" d="M130.82,19.39l2.41.76c-.74,1.97-1.61,3.92-2.61,5.85-1,1.93-2.07,3.76-3.22,5.47-1.15,1.72-2.34,3.23-3.56,4.55-.1-.19-.23-.45-.4-.77-.17-.32-.35-.65-.54-.99-.19-.34-.37-.6-.54-.79,1.13-1.15,2.22-2.48,3.28-4,1.06-1.51,2.02-3.13,2.9-4.84.88-1.72,1.64-3.46,2.29-5.24ZM127.18,28.71l2.48-2.52.07.04v26.14h-2.56v-23.65ZM131.43,44.84c1.63-.17,3.61-.4,5.92-.7,2.32-.3,4.69-.61,7.11-.92l.04,1.98c-2.26.31-4.51.62-6.77.94s-4.25.59-5.98.83l-.32-2.12ZM131.61,39.29h24.77v1.98h-24.77v-1.98ZM142.38,33.93l1.55,1.62c-1.03.29-2.2.55-3.51.79-1.31.24-2.65.44-4.03.59-1.38.16-2.71.29-3.98.41-.05-.24-.13-.53-.23-.86-.11-.34-.22-.61-.34-.83,1.22-.12,2.5-.27,3.82-.45s2.57-.38,3.74-.59c1.18-.22,2.17-.44,2.99-.68ZM131.94,31.23h24.23v2.02h-24.23v-2.02ZM133.02,22.92h22v1.91h-22v-1.91ZM137.52,35.44h2.41v14.33c0,.6-.08,1.07-.23,1.4s-.45.59-.88.76c-.43.19-1,.3-1.71.32s-1.58.04-2.61.04c-.05-.29-.14-.63-.29-1.03-.14-.4-.3-.75-.47-1.06.74.02,1.42.04,2.02.05.6.01,1.01,0,1.22-.02.36,0,.54-.17.54-.5v-14.29ZM134.24,26.98h19.51v1.91h-19.51v-1.91ZM136.62,20.11l2.16-.79c.46.53.92,1.13,1.4,1.8.48.67.84,1.27,1.08,1.8l-2.27.94c-.22-.5-.55-1.11-1.01-1.82s-.91-1.35-1.37-1.93ZM152.42,41.81l2.16.72c-.82,1.32-1.82,2.56-3.01,3.73-1.19,1.16-2.46,2.22-3.82,3.17-1.36.95-2.73,1.77-4.12,2.47-.1-.17-.25-.36-.45-.58-.2-.22-.4-.44-.59-.67-.19-.23-.38-.41-.58-.56,2.06-.91,4.04-2.08,5.92-3.51,1.88-1.43,3.38-3.02,4.48-4.77ZM142.48,23.49h2.63v8.68h-2.63v-8.68ZM145.44,34.08h2.41c.02,2.4.19,4.58.5,6.55.31,1.97.74,3.66,1.28,5.08.54,1.42,1.16,2.5,1.85,3.24s1.44,1.12,2.23,1.12c.41,0,.69-.23.85-.68s.27-1.27.34-2.45c.26.24.56.46.9.65.34.19.65.34.94.43-.1,1.13-.26,2.01-.5,2.65s-.58,1.08-1.01,1.33c-.43.25-.98.39-1.66.41-1.25,0-2.36-.46-3.35-1.37-.98-.91-1.82-2.18-2.52-3.82-.7-1.63-1.23-3.56-1.6-5.8s-.59-4.68-.67-7.34ZM148.89,19.21l2.63.83c-.48.72-.97,1.39-1.48,2.02s-.96,1.18-1.37,1.66l-2.05-.76c.38-.5.8-1.12,1.24-1.84.44-.72.79-1.36,1.03-1.91ZM149.29,35.16l1.58-1.22c.77.5,1.57,1.07,2.41,1.71.84.64,1.48,1.22,1.91,1.75l-1.69,1.37c-.43-.53-1.05-1.13-1.85-1.8-.8-.67-1.59-1.27-2.36-1.8Z"/>
      </g>
    </g>
  </g>
</svg>