<?xml version="1.0" encoding="UTF-8"?>
<svg id="_レイヤー_2" data-name="レイヤー 2" xmlns="http://www.w3.org/2000/svg" xmlns:xlink="http://www.w3.org/1999/xlink" viewBox="0 0 454.52 82.36">
  <defs>
    <style>
      .cls-1 {
        fill: url(#_名称未設定グラデーション_9-11);
      }

      .cls-2 {
        fill: #fff;
        font-family: MicrosoftYaHei-Bold, 'Microsoft YaHei';
        font-size: 24px;
        font-weight: 700;
        letter-spacing: .07em;
      }

      .cls-3 {
        fill: url(#_名称未設定グラデーション_9-3);
      }

      .cls-4 {
        fill: url(#_名称未設定グラデーション_9-9);
      }

      .cls-5 {
        fill: url(#_名称未設定グラデーション_9-6);
      }

      .cls-6 {
        fill: url(#_名称未設定グラデーション_9-7);
      }

      .cls-7 {
        fill: url(#_名称未設定グラデーション_56-4);
      }

      .cls-8 {
        fill: url(#_名称未設定グラデーション_9-10);
      }

      .cls-9 {
        fill: url(#_名称未設定グラデーション_9-4);
      }

      .cls-10 {
        fill: url(#_名称未設定グラデーション_56-2);
      }

      .cls-11 {
        fill: url(#_名称未設定グラデーション_56-5);
      }

      .cls-12 {
        fill: url(#_名称未設定グラデーション_56-3);
      }

      .cls-13 {
        fill: url(#_名称未設定グラデーション_56-7);
      }

      .cls-14 {
        fill: url(#_名称未設定グラデーション_9-5);
      }

      .cls-15 {
        fill: url(#_名称未設定グラデーション_9-8);
      }

      .cls-16 {
        fill: url(#_名称未設定グラデーション_9-2);
      }

      .cls-17 {
        fill: url(#_名称未設定グラデーション_9-12);
      }

      .cls-18 {
        fill: url(#_名称未設定グラデーション_9);
      }

      .cls-19 {
        fill: lime;
      }

      .cls-20 {
        fill: url(#_名称未設定グラデーション_56-6);
      }

      .cls-21 {
        fill: url(#_名称未設定グラデーション_56);
      }
    </style>
    <linearGradient id="_名称未設定グラデーション_9" data-name="名称未設定グラデーション 9" x1="75.5" y1="36.06" x2="75.5" y2="81" gradientUnits="userSpaceOnUse">
      <stop offset="0" stop-color="#ff3"/>
      <stop offset="1" stop-color="#fc0"/>
    </linearGradient>
    <linearGradient id="_名称未設定グラデーション_9-2" data-name="名称未設定グラデーション 9" x1="111.47" y1="36.9" x2="111.47" y2="80.16" xlink:href="#_名称未設定グラデーション_9"/>
    <linearGradient id="_名称未設定グラデーション_9-3" data-name="名称未設定グラデーション 9" x1="145.82" x2="145.82" y2="80.16" xlink:href="#_名称未設定グラデーション_9"/>
    <linearGradient id="_名称未設定グラデーション_9-4" data-name="名称未設定グラデーション 9" x1="181.7" x2="181.7" xlink:href="#_名称未設定グラデーション_9"/>
    <linearGradient id="_名称未設定グラデーション_9-5" data-name="名称未設定グラデーション 9" x1="210.53" y1="59.82" x2="210.53" y2="66.18" xlink:href="#_名称未設定グラデーション_9"/>
    <linearGradient id="_名称未設定グラデーション_9-6" data-name="名称未設定グラデーション 9" x1="239.51" x2="239.51" xlink:href="#_名称未設定グラデーション_9"/>
    <linearGradient id="_名称未設定グラデーション_9-7" data-name="名称未設定グラデーション 9" x1="274.73" x2="274.73" xlink:href="#_名称未設定グラデーション_9"/>
    <linearGradient id="_名称未設定グラデーション_9-8" data-name="名称未設定グラデーション 9" x1="310.31" x2="310.31" xlink:href="#_名称未設定グラデーション_9"/>
    <linearGradient id="_名称未設定グラデーション_9-9" data-name="名称未設定グラデーション 9" x1="338.93" y1="59.82" x2="338.93" y2="66.18" xlink:href="#_名称未設定グラデーション_9"/>
    <linearGradient id="_名称未設定グラデーション_9-10" data-name="名称未設定グラデーション 9" x1="367.91" x2="367.91" xlink:href="#_名称未設定グラデーション_9"/>
    <linearGradient id="_名称未設定グラデーション_9-11" data-name="名称未設定グラデーション 9" x1="403.13" x2="403.13" xlink:href="#_名称未設定グラデーション_9"/>
    <linearGradient id="_名称未設定グラデーション_9-12" data-name="名称未設定グラデーション 9" x1="438.29" y1="36.9" x2="438.29" y2="80.16" xlink:href="#_名称未設定グラデーション_9"/>
    <linearGradient id="_名称未設定グラデーション_56" data-name="名称未設定グラデーション 56" x1="299.24" y1=".41" x2="299.24" y2="23.82" gradientUnits="userSpaceOnUse">
      <stop offset="0" stop-color="#fff"/>
      <stop offset="1" stop-color="#ccc"/>
    </linearGradient>
    <linearGradient id="_名称未設定グラデーション_56-2" data-name="名称未設定グラデーション 56" x1="324.74" y1=".57" x2="324.74" y2="23.59" xlink:href="#_名称未設定グラデーション_56"/>
    <linearGradient id="_名称未設定グラデーション_56-3" data-name="名称未設定グラデーション 56" x1="344.56" y1="2.5" x2="344.56" y2="23.66" xlink:href="#_名称未設定グラデーション_56"/>
    <linearGradient id="_名称未設定グラデーション_56-4" data-name="名称未設定グラデーション 56" x1="364.17" y1=".62" x2="364.17" y2="23.73" xlink:href="#_名称未設定グラデーション_56"/>
    <linearGradient id="_名称未設定グラデーション_56-5" data-name="名称未設定グラデーション 56" x1="389.96" y1="1.7" x2="389.96" y2="23.8" xlink:href="#_名称未設定グラデーション_56"/>
    <linearGradient id="_名称未設定グラデーション_56-6" data-name="名称未設定グラデーション 56" x1="415.78" y1=".6" x2="415.78" y2="23.89" xlink:href="#_名称未設定グラデーション_56"/>
    <linearGradient id="_名称未設定グラデーション_56-7" data-name="名称未設定グラデーション 56" x1="441.54" y1=".79" x2="441.54" xlink:href="#_名称未設定グラデーション_56"/>
  </defs>
  <g id="en1">
    <g id="image_TEL_zh">
      <path class="cls-19" d="M25,32.36C11.19,32.36,0,43.55,0,57.36s11.19,25,25,25,25-11.19,25-25-11.19-25-25-25ZM36.98,74.01c-.18.3-.44.54-.76.7l-1.64.71c-1.23.55-2.49.82-3.79.82-1.05,0-2.08-.17-3.1-.51-1.02-.34-2-.83-2.93-1.46-.93-.64-1.81-1.4-2.63-2.29-.82-.89-1.56-1.89-2.21-2.98-.4-.62-.83-1.32-1.29-2.11-.38-.67-.82-1.46-1.31-2.38-.49-.92-.98-1.95-1.49-3.07-1.2-2.65-2.01-4.97-2.45-6.98-.44-2.01-.65-3.7-.65-5.06,0-1.09.11-2.15.34-3.17.23-1.02.58-1.97,1.05-2.84.47-.87,1.06-1.65,1.77-2.34.71-.69,1.55-1.25,2.53-1.67l1.64-.71c.27-.12.52-.18.75-.18.35,0,.69.1,1,.3.31.2.55.47.71.81l3.04,6.81c.12.27.18.52.18.75,0,.35-.1.69-.31,1-.21.31-.49.55-.84.71l-3.1,1.42c-.47.22-.81.5-1.02.84-.21.34-.31.72-.31,1.15,0,.15.01.3.03.44.02.15.07.3.14.44l5.19,11.62c.19.41.47.73.83.94.36.21.75.32,1.16.32.28,0,.58-.06.89-.18l3.17-1.4c.25-.1.51-.16.78-.16.37,0,.71.09,1.01.28.3.18.53.45.68.79l3.04,6.87c.12.27.18.52.18.78,0,.35-.09.68-.28.99Z"/>
      <g>
        <path class="cls-18" d="M75.5,81c-3.04,0-5.69-.87-7.95-2.61-2.26-1.74-4.01-4.29-5.25-7.65-1.24-3.36-1.86-7.48-1.86-12.36s.62-9.03,1.86-12.33c1.24-3.3,2.99-5.79,5.25-7.47,2.26-1.68,4.91-2.52,7.95-2.52s5.69.84,7.95,2.52c2.26,1.68,4.01,4.17,5.25,7.47,1.24,3.3,1.86,7.41,1.86,12.33s-.62,9-1.86,12.36c-1.24,3.36-2.99,5.91-5.25,7.65-2.26,1.74-4.91,2.61-7.95,2.61ZM75.5,74.1c1.32,0,2.48-.47,3.48-1.41,1-.94,1.78-2.56,2.34-4.86.56-2.3.84-5.45.84-9.45s-.28-7.18-.84-9.42c-.56-2.24-1.34-3.8-2.34-4.68-1-.88-2.16-1.32-3.48-1.32-1.24,0-2.37.44-3.39,1.32-1.02.88-1.83,2.44-2.43,4.68-.6,2.24-.9,5.38-.9,9.42s.3,7.15.9,9.45c.6,2.3,1.41,3.92,2.43,4.86,1.02.94,2.15,1.41,3.39,1.41Z"/>
        <path class="cls-16" d="M98.12,80.16v-7.2h9.6v-26.82h-8.1v-5.52c2.24-.44,4.17-.96,5.79-1.56s3.13-1.32,4.53-2.16h6.54v36.06h8.34v7.2h-26.7Z"/>
        <path class="cls-3" d="M131.18,80.16v-5.1c3.84-3.68,7.2-7.01,10.08-9.99,2.88-2.98,5.12-5.7,6.72-8.16,1.6-2.46,2.4-4.75,2.4-6.87,0-1.48-.26-2.74-.78-3.78-.52-1.04-1.27-1.84-2.25-2.4-.98-.56-2.19-.84-3.63-.84-1.6,0-3.07.46-4.41,1.38-1.34.92-2.57,1.98-3.69,3.18l-4.92-4.8c2.08-2.2,4.21-3.87,6.39-5.01,2.18-1.14,4.77-1.71,7.77-1.71,2.8,0,5.25.56,7.35,1.68,2.1,1.12,3.73,2.69,4.89,4.71,1.16,2.02,1.74,4.39,1.74,7.11,0,2.48-.69,5.02-2.07,7.62-1.38,2.6-3.2,5.23-5.46,7.89-2.26,2.66-4.73,5.39-7.41,8.19,1.12-.16,2.36-.29,3.72-.39,1.36-.1,2.56-.15,3.6-.15h9.72v7.44h-29.76Z"/>
        <path class="cls-9" d="M181.7,81c-3.04,0-5.69-.87-7.95-2.61-2.26-1.74-4.01-4.29-5.25-7.65-1.24-3.36-1.86-7.48-1.86-12.36s.62-9.03,1.86-12.33c1.24-3.3,2.99-5.79,5.25-7.47,2.26-1.68,4.91-2.52,7.95-2.52s5.69.84,7.95,2.52c2.26,1.68,4.01,4.17,5.25,7.47,1.24,3.3,1.86,7.41,1.86,12.33s-.62,9-1.86,12.36c-1.24,3.36-2.99,5.91-5.25,7.65-2.26,1.74-4.91,2.61-7.95,2.61ZM181.7,74.1c1.32,0,2.48-.47,3.48-1.41,1-.94,1.78-2.56,2.34-4.86.56-2.3.84-5.45.84-9.45s-.28-7.18-.84-9.42c-.56-2.24-1.34-3.8-2.34-4.68-1-.88-2.16-1.32-3.48-1.32-1.24,0-2.37.44-3.39,1.32-1.02.88-1.83,2.44-2.43,4.68-.6,2.24-.9,5.38-.9,9.42s.3,7.15.9,9.45c.6,2.3,1.41,3.92,2.43,4.86,1.02.94,2.15,1.41,3.39,1.41Z"/>
        <path class="cls-14" d="M202.34,66.18v-6.36h16.38v6.36h-16.38Z"/>
        <path class="cls-5" d="M240.5,81c-2.12,0-4.13-.42-6.03-1.26-1.9-.84-3.6-2.12-5.1-3.84-1.5-1.72-2.68-3.92-3.54-6.6-.86-2.68-1.29-5.88-1.29-9.6,0-4.16.46-7.72,1.38-10.68.92-2.96,2.2-5.4,3.84-7.32,1.64-1.92,3.49-3.34,5.55-4.26,2.06-.92,4.19-1.38,6.39-1.38,2.72,0,5.09.5,7.11,1.5,2.02,1,3.69,2.18,5.01,3.54l-4.74,5.28c-.76-.88-1.76-1.62-3-2.22-1.24-.6-2.52-.9-3.84-.9-1.76,0-3.37.51-4.83,1.53s-2.62,2.72-3.48,5.1c-.86,2.38-1.29,5.65-1.29,9.81,0,3.56.34,6.41,1.02,8.55.68,2.14,1.6,3.69,2.76,4.65,1.16.96,2.46,1.44,3.9,1.44,1.12,0,2.14-.29,3.06-.87.92-.58,1.65-1.44,2.19-2.58s.81-2.55.81-4.23-.26-3.04-.78-4.08c-.52-1.04-1.26-1.8-2.22-2.28s-2.08-.72-3.36-.72c-1.2,0-2.45.37-3.75,1.11-1.3.74-2.53,2.05-3.69,3.93l-.36-6c.84-1.12,1.8-2.08,2.88-2.88,1.08-.8,2.2-1.41,3.36-1.83,1.16-.42,2.24-.63,3.24-.63,2.48,0,4.68.48,6.6,1.44s3.43,2.43,4.53,4.41c1.1,1.98,1.65,4.49,1.65,7.53s-.64,5.45-1.92,7.59c-1.28,2.14-2.97,3.8-5.07,4.98-2.1,1.18-4.43,1.77-6.99,1.77Z"/>
        <path class="cls-6" d="M274.7,81c-2.84,0-5.38-.5-7.62-1.5-2.24-1-4.01-2.4-5.31-4.2-1.3-1.8-1.95-3.86-1.95-6.18,0-1.8.36-3.38,1.08-4.74.72-1.36,1.65-2.56,2.79-3.6,1.14-1.04,2.39-1.92,3.75-2.64v-.24c-1.68-1.2-3.08-2.62-4.2-4.26-1.12-1.64-1.68-3.58-1.68-5.82,0-2.44.58-4.53,1.74-6.27,1.16-1.74,2.75-3.09,4.77-4.05,2.02-.96,4.31-1.44,6.87-1.44s4.92.49,6.84,1.47c1.92.98,3.41,2.35,4.47,4.11,1.06,1.76,1.59,3.82,1.59,6.18,0,1.4-.27,2.72-.81,3.96-.54,1.24-1.25,2.34-2.13,3.3-.88.96-1.8,1.78-2.76,2.46v.3c1.36.76,2.61,1.64,3.75,2.64,1.14,1,2.05,2.2,2.73,3.6.68,1.4,1.02,3.08,1.02,5.04,0,2.24-.63,4.26-1.89,6.06s-3.01,3.22-5.25,4.26c-2.24,1.04-4.84,1.56-7.8,1.56ZM274.88,74.76c1.28,0,2.41-.23,3.39-.69.98-.46,1.75-1.14,2.31-2.04.56-.9.84-1.97.84-3.21,0-1.12-.25-2.06-.75-2.82-.5-.76-1.19-1.44-2.07-2.04-.88-.6-1.92-1.17-3.12-1.71-1.2-.54-2.52-1.09-3.96-1.65-1.2.92-2.18,2.02-2.94,3.3-.76,1.28-1.14,2.7-1.14,4.26,0,1.32.33,2.47.99,3.45.66.98,1.55,1.75,2.67,2.31,1.12.56,2.38.84,3.78.84ZM277.46,55.44c1.04-1.12,1.83-2.26,2.37-3.42.54-1.16.81-2.38.81-3.66,0-1.16-.23-2.21-.69-3.15-.46-.94-1.13-1.66-2.01-2.16-.88-.5-1.94-.75-3.18-.75-1.52,0-2.8.47-3.84,1.41-1.04.94-1.56,2.31-1.56,4.11,0,1.32.36,2.42,1.08,3.3.72.88,1.69,1.66,2.91,2.34,1.22.68,2.59,1.34,4.11,1.98Z"/>
        <path class="cls-15" d="M311.3,81c-2.12,0-4.13-.42-6.03-1.26-1.9-.84-3.6-2.12-5.1-3.84-1.5-1.72-2.68-3.92-3.54-6.6-.86-2.68-1.29-5.88-1.29-9.6,0-4.16.46-7.72,1.38-10.68.92-2.96,2.2-5.4,3.84-7.32,1.64-1.92,3.49-3.34,5.55-4.26,2.06-.92,4.19-1.38,6.39-1.38,2.72,0,5.09.5,7.11,1.5,2.02,1,3.69,2.18,5.01,3.54l-4.74,5.28c-.76-.88-1.76-1.62-3-2.22-1.24-.6-2.52-.9-3.84-.9-1.76,0-3.37.51-4.83,1.53s-2.62,2.72-3.48,5.1c-.86,2.38-1.29,5.65-1.29,9.81,0,3.56.34,6.41,1.02,8.55.68,2.14,1.6,3.69,2.76,4.65,1.16.96,2.46,1.44,3.9,1.44,1.12,0,2.14-.29,3.06-.87.92-.58,1.65-1.44,2.19-2.58s.81-2.55.81-4.23-.26-3.04-.78-4.08c-.52-1.04-1.26-1.8-2.22-2.28s-2.08-.72-3.36-.72c-1.2,0-2.45.37-3.75,1.11-1.3.74-2.53,2.05-3.69,3.93l-.36-6c.84-1.12,1.8-2.08,2.88-2.88,1.08-.8,2.2-1.41,3.36-1.83,1.16-.42,2.24-.63,3.24-.63,2.48,0,4.68.48,6.6,1.44s3.43,2.43,4.53,4.41c1.1,1.98,1.65,4.49,1.65,7.53s-.64,5.45-1.92,7.59c-1.28,2.14-2.97,3.8-5.07,4.98-2.1,1.18-4.43,1.77-6.99,1.77Z"/>
        <path class="cls-4" d="M330.74,66.18v-6.36h16.38v6.36h-16.38Z"/>
        <path class="cls-8" d="M368.9,81c-2.12,0-4.13-.42-6.03-1.26-1.9-.84-3.6-2.12-5.1-3.84-1.5-1.72-2.68-3.92-3.54-6.6-.86-2.68-1.29-5.88-1.29-9.6,0-4.16.46-7.72,1.38-10.68.92-2.96,2.2-5.4,3.84-7.32,1.64-1.92,3.49-3.34,5.55-4.26,2.06-.92,4.19-1.38,6.39-1.38,2.72,0,5.09.5,7.11,1.5,2.02,1,3.69,2.18,5.01,3.54l-4.74,5.28c-.76-.88-1.76-1.62-3-2.22-1.24-.6-2.52-.9-3.84-.9-1.76,0-3.37.51-4.83,1.53s-2.62,2.72-3.48,5.1c-.86,2.38-1.29,5.65-1.29,9.81,0,3.56.34,6.41,1.02,8.55.68,2.14,1.6,3.69,2.76,4.65,1.16.96,2.46,1.44,3.9,1.44,1.12,0,2.14-.29,3.06-.87.92-.58,1.65-1.44,2.19-2.58s.81-2.55.81-4.23-.26-3.04-.78-4.08c-.52-1.04-1.26-1.8-2.22-2.28s-2.08-.72-3.36-.72c-1.2,0-2.45.37-3.75,1.11-1.3.74-2.53,2.05-3.69,3.93l-.36-6c.84-1.12,1.8-2.08,2.88-2.88,1.08-.8,2.2-1.41,3.36-1.83,1.16-.42,2.24-.63,3.24-.63,2.48,0,4.68.48,6.6,1.44s3.43,2.43,4.53,4.41c1.1,1.98,1.65,4.49,1.65,7.53s-.64,5.45-1.92,7.59c-1.28,2.14-2.97,3.8-5.07,4.98-2.1,1.18-4.43,1.77-6.99,1.77Z"/>
        <path class="cls-1" d="M403.1,81c-2.84,0-5.38-.5-7.62-1.5-2.24-1-4.01-2.4-5.31-4.2-1.3-1.8-1.95-3.86-1.95-6.18,0-1.8.36-3.38,1.08-4.74.72-1.36,1.65-2.56,2.79-3.6,1.14-1.04,2.39-1.92,3.75-2.64v-.24c-1.68-1.2-3.08-2.62-4.2-4.26-1.12-1.64-1.68-3.58-1.68-5.82,0-2.44.58-4.53,1.74-6.27,1.16-1.74,2.75-3.09,4.77-4.05,2.02-.96,4.31-1.44,6.87-1.44s4.92.49,6.84,1.47c1.92.98,3.41,2.35,4.47,4.11,1.06,1.76,1.59,3.82,1.59,6.18,0,1.4-.27,2.72-.81,3.96-.54,1.24-1.25,2.34-2.13,3.3-.88.96-1.8,1.78-2.76,2.46v.3c1.36.76,2.61,1.64,3.75,2.64,1.14,1,2.05,2.2,2.73,3.6.68,1.4,1.02,3.08,1.02,5.04,0,2.24-.63,4.26-1.89,6.06s-3.01,3.22-5.25,4.26c-2.24,1.04-4.84,1.56-7.8,1.56ZM403.28,74.76c1.28,0,2.41-.23,3.39-.69.98-.46,1.75-1.14,2.31-2.04.56-.9.84-1.97.84-3.21,0-1.12-.25-2.06-.75-2.82-.5-.76-1.19-1.44-2.07-2.04-.88-.6-1.92-1.17-3.12-1.71-1.2-.54-2.52-1.09-3.96-1.65-1.2.92-2.18,2.02-2.94,3.3-.76,1.28-1.14,2.7-1.14,4.26,0,1.32.33,2.47.99,3.45.66.98,1.55,1.75,2.67,2.31,1.12.56,2.38.84,3.78.84ZM405.86,55.44c1.04-1.12,1.83-2.26,2.37-3.42.54-1.16.81-2.38.81-3.66,0-1.16-.23-2.21-.69-3.15-.46-.94-1.13-1.66-2.01-2.16-.88-.5-1.94-.75-3.18-.75-1.52,0-2.8.47-3.84,1.41-1.04.94-1.56,2.31-1.56,4.11,0,1.32.36,2.42,1.08,3.3.72.88,1.69,1.66,2.91,2.34,1.22.68,2.59,1.34,4.11,1.98Z"/>
        <path class="cls-17" d="M441.02,80.16v-26.1c0-1.32.04-2.88.12-4.68.08-1.8.16-3.36.24-4.68h-.3c-.52,1.16-1.08,2.32-1.68,3.48-.6,1.16-1.22,2.34-1.86,3.54l-6.9,10.92h23.88v6.78h-32.46v-6.06l16.56-26.46h10.62v43.26h-8.22Z"/>
      </g>
      <text class="cls-2" transform="translate(287.44 20.65)"><tspan x="0" y="0">咨询/索取资料</tspan></text>
      <g>
        <path class="cls-21" d="M289.83,14.5l-2.37-1.97c1.88-2.58,3.38-4.72,4.5-6.42.88.81,1.64,1.48,2.3,2.02l-4.43,6.38ZM288.12,2.31l2.09-1.9c1.31,1.14,2.51,2.26,3.59,3.35-.7.61-1.48,1.34-2.34,2.18-.97-1.17-2.08-2.38-3.33-3.63ZM290.55,14.31h18.14v9.47h-3.33v-1.12h-11.48v1.17h-3.33v-9.52ZM300.37,5.43h3.14c-.09.35-.19.67-.28.95,1.02,2.6,3.62,4.23,7.78,4.89-.52,1.02-.98,2.05-1.41,3.12-3.67-.93-6.22-2.73-7.65-5.4-1.1,2.34-3.7,4.06-7.79,5.14-.41-.8-.98-1.77-1.73-2.93,2.39-.42,4.23-1.03,5.53-1.82s2.1-2.11,2.41-3.94ZM310.22,2.24v2.46c-.69,1.23-1.34,2.45-1.95,3.66l-2.95-.94c.59-1.08,1.06-1.88,1.41-2.41h-8.87c-.63,1.05-1.35,2.15-2.14,3.28-.84-.66-1.71-1.24-2.6-1.76,1.59-1.91,2.79-3.88,3.59-5.91l3.28.21c-.2.46-.41.93-.63,1.41h10.88ZM305.37,17.26h-11.48v2.44h11.48v-2.44Z"/>
        <path class="cls-10" d="M320.64,16.65c.02,1.19.11,2.38.28,3.59-1.66,1.14-3.07,2.26-4.24,3.35l-1.71-2.3c.5-.52.75-1.17.75-1.97v-7.83h-2.11v-3.05h5.06v9.77l1.97-1.57ZM316.75.93c1.08,1.41,2.08,2.84,3,4.29-.72.45-1.63,1-2.74,1.64-.86-1.59-1.79-3.08-2.79-4.45l2.53-1.48ZM323.03.57c1.03.14,2.1.3,3.21.49-.28.69-.58,1.35-.89,1.99h10.52l-.06,9-.13,6.28c-.05,1.62-.42,2.84-1.08,3.65s-1.48,1.27-2.44,1.37-2.7.13-5.22.09c-.19-1.11-.41-2.2-.68-3.26,1.55.14,2.95.21,4.2.21.52,0,.93-.12,1.25-.35s.55-.56.69-1,.23-3.59.26-9.45l.02-3.46h-9.08c-.38.59-.77,1.15-1.18,1.69h8.16v11.06h-6.47v1.27h-2.77v-10.99c-.23.27-.47.52-.7.77-.77-.95-1.45-1.74-2.06-2.37,2.02-2.02,3.5-4.35,4.45-7.01ZM327.81,10.42h-3.7v1.71h3.7v-1.71ZM327.81,16.32v-1.71h-3.7v1.71h3.7Z"/>
        <path class="cls-12" d="M350.66,2.5l-8.82,21.16h-3.39l8.79-21.16h3.42Z"/>
        <path class="cls-7" d="M358.49,17.66l1.88,2.16c-2.14,1.5-4.23,2.74-6.28,3.73-.41-.72-.94-1.55-1.59-2.51,2.03-.84,4.03-1.97,6-3.38ZM353.24,11.19v-4.9h9.35v-1.59h-8.81v-2.44h8.81V.62h3.19v1.64h8.81v2.44h-8.81v1.59h9.4v4.85h-3.23v-2.44h-6.91c-1.21.7-2.5,1.39-3.87,2.09,1.59,0,3.01-.01,4.25-.04,1.09-.6,2.14-1.24,3.15-1.91l2.3,2.02c-2.33,1.28-5.87,2.79-10.62,4.52l8.73-.36-1.65-1.3,1.99-1.71c2.16,1.53,4.02,2.91,5.58,4.15l-2.09,2.06c-.45-.39-.89-.77-1.34-1.15l-5.48.21v3.87c0,.68-.17,1.22-.52,1.63s-.81.67-1.41.78-2.03.17-4.31.17c-.17-1.17-.38-2.12-.61-2.86.86.09,1.59.13,2.18.13.54,0,.92-.08,1.14-.24s.33-.43.33-.8v-2.53c-3.58.16-6.02.3-7.34.42l-.94-2.53c2.37-.73,4.61-1.56,6.74-2.51-1.9.07-3.28.16-4.14.26l-.67-1.88h-3.22ZM356.47,10.9c1.29-.52,2.66-1.25,4.11-2.19h-4.11v2.19ZM368.96,17.68c2.28.98,4.58,2.06,6.89,3.23l-1.57,2.58c-2.47-1.36-4.75-2.49-6.84-3.4l1.52-2.41Z"/>
        <path class="cls-11" d="M378.73,21.32l-.4-3.12,1.01-.14V4.7h-.68V1.7h11.13v3h-.84v11.98l1.36-.21c-.02.61,0,1.61.05,3l-1.41.23v4.03h-3.14v-3.52l-7.08,1.1ZM382.48,7.02h3.33v-2.32h-3.33v2.32ZM382.48,12.2h3.33v-2.32h-3.33v2.32ZM385.81,17.14v-2.09h-3.33v2.57l3.33-.48ZM400.76,2.1v3.05c-.59,4.48-1.75,8.34-3.49,11.58,1.17,1.65,2.61,2.95,4.31,3.89-.52.75-1.16,1.81-1.92,3.19-1.68-1.1-3.13-2.44-4.35-4.02-1.13,1.51-2.43,2.84-3.9,4-.56-1.05-1.18-2.1-1.85-3.16,1.46-1.12,2.73-2.44,3.8-3.95-1.59-3.16-2.52-7-2.8-11.52h-.43v-3.05h10.64ZM397.57,5.14h-3.94c.27,3.09.84,5.76,1.73,8.02,1.07-2.34,1.8-5.02,2.2-8.02Z"/>
        <path class="cls-20" d="M405.51,11.99l-1.38-3.16c1.95-1.05,3.73-2.09,5.34-3.14l1.34,2.93c-2.12,1.3-3.89,2.42-5.3,3.38ZM414.4,15.46h3.42c-.14.95-.36,1.8-.66,2.57,2.59.68,5.82,1.62,9.7,2.82l-1.59,3.02c-2.09-.79-5.31-1.89-9.64-3.32-1.55,1.77-4.82,2.89-9.79,3.34-.39-.89-.92-1.96-1.59-3.21,2.99-.15,5.38-.56,7.18-1.24s2.78-2.01,2.97-3.99ZM404.6,3.06l1.92-2.39c1.64,1.06,2.88,1.92,3.73,2.58l-2.09,2.62c-1.08-.98-2.27-1.92-3.56-2.81ZM426.8,2.21v2.23l-1.57,2.86-2.46-.91.75-1.52h-3.45c-.06.27-.13.52-.21.77,1.45,2.06,3.97,3.24,7.57,3.54-.56,1.14-1.02,2.1-1.36,2.88-3.54-.45-6-1.72-7.38-3.8-1.28,1.94-3.41,3.17-6.4,3.7h12.47v6.61h-3.28v-3.8h-11.2v4.05h-3.28v-6.87h4.27l-1.45-2.46c4.3-.55,6.7-2.09,7.21-4.64h-2.6c-.58.94-1.18,1.78-1.79,2.53-.67-.47-1.54-1-2.6-1.59,1.44-1.55,2.52-3.28,3.26-5.2l3.23.21c-.22.48-.44.95-.66,1.41h10.95Z"/>
        <path class="cls-13" d="M431.9,2.52c.48,1.31.98,2.91,1.5,4.8l-2.18.68c-.59-2.06-1.08-3.68-1.45-4.85l2.13-.63ZM430,9.22h3.8V.83h3.05v8.39h3.66v2.79h-3.66v2.23l.96-.87c.69.61,1.56,1.41,2.62,2.41l-.07-.42,6.82-.63V5.66c-.81.77-1.47,1.41-1.97,1.95-1.06-1.12-2.24-2.21-3.54-3.26l1.97-1.99c1.14.86,2.32,1.83,3.54,2.91V.79h3.3v13.64l2.6-.26.23,2.93-2.84.28v6.45h-3.3v-6.14l-6.42.61-.23-1.8c-.67.62-1.26,1.19-1.76,1.69-.47-.56-1.11-1.25-1.92-2.06v7.69h-3.05v-6.89c-.75,1.42-1.67,2.81-2.77,4.17-.28-.98-.64-2.16-1.08-3.52,1.41-1.73,2.58-3.59,3.52-5.55h-3.47v-2.79ZM438.88,2.54c.22.08,1.01.36,2.37.84-.69,1.8-1.34,3.41-1.95,4.83l-2.18-.8c.62-1.5,1.21-3.12,1.76-4.88ZM442.75,8.43c1.22.91,2.47,1.94,3.75,3.09-.91.88-1.63,1.59-2.18,2.16-1.06-1.12-2.24-2.21-3.54-3.26l1.97-1.99Z"/>
      </g>
    </g>
  </g>
</svg>