<?xml version="1.0" encoding="UTF-8"?>
<svg id="_レイヤー_2" data-name=" レイヤー 2" xmlns="http://www.w3.org/2000/svg" xmlns:xlink="http://www.w3.org/1999/xlink" viewBox="0 0 404.5 22.75">
  <defs>
    <style>
      .cls-1 {
        fill: url(#_名称未設定グラデーション-6);
      }

      .cls-1, .cls-2, .cls-3, .cls-4, .cls-5, .cls-6, .cls-7 {
        stroke-width: 0px;
      }

      .cls-2 {
        fill: url(#_名称未設定グラデーション);
      }

      .cls-3 {
        fill: url(#_名称未設定グラデーション-3);
      }

      .cls-4 {
        fill: url(#_名称未設定グラデーション-7);
      }

      .cls-5 {
        fill: url(#_名称未設定グラデーション-2);
      }

      .cls-6 {
        fill: url(#_名称未設定グラデーション-4);
      }

      .cls-7 {
        fill: url(#_名称未設定グラデーション-5);
      }
    </style>
    <linearGradient id="_名称未設定グラデーション" data-name="名称未設定グラデーション" x1="145.94" y1="2410.09" x2="145.94" y2="2432.39" gradientTransform="translate(0 -2410)" gradientUnits="userSpaceOnUse">
      <stop offset="0" stop-color="#fff"/>
      <stop offset="1" stop-color="#ccc"/>
    </linearGradient>
    <linearGradient id="_名称未設定グラデーション-2" data-name="名称未設定グラデーション" x1="170.24" y1="2410.22" x2="170.24" y2="2432.18" xlink:href="#_名称未設定グラデーション"/>
    <linearGradient id="_名称未設定グラデーション-3" data-name="名称未設定グラデーション" x1="189.12" y1="2412.08" x2="189.12" y2="2432.24" xlink:href="#_名称未設定グラデーション"/>
    <linearGradient id="_名称未設定グラデーション-4" data-name="名称未設定グラデーション" x1="207.82" y1="2410.29" x2="207.82" y2="2432.31" xlink:href="#_名称未設定グラデーション"/>
    <linearGradient id="_名称未設定グラデーション-5" data-name="名称未設定グラデーション" x1="232.38" y1="2411.32" x2="232.38" y2="2432.38" xlink:href="#_名称未設定グラデーション"/>
    <linearGradient id="_名称未設定グラデーション-6" data-name="名称未設定グラデーション" x1="256.99" y1="2410.26" x2="256.99" y2="2432.46" xlink:href="#_名称未設定グラデーション"/>
    <linearGradient id="_名称未設定グラデーション-7" data-name="名称未設定グラデーション" x1="281.53" y1="2410.45" x2="281.53" y2="2432.4" xlink:href="#_名称未設定グラデーション"/>
  </defs>
  <g id="en1">
    <g id="image_TEL_zh" data-name="image TEL zh">
      <g>
        <path class="cls-2" d="M136.98,13.51l-2.26-1.88c1.79-2.46,3.22-4.5,4.29-6.12.84.77,1.56,1.41,2.19,1.92l-4.22,6.08h0ZM135.35,1.9l1.98-1.81c1.25,1.09,2.39,2.15,3.42,3.19-.67.58-1.41,1.28-2.23,2.08-.92-1.11-1.98-2.27-3.17-3.46ZM137.67,13.32h17.28v9.02h-3.17v-1.07h-10.94v1.11h-3.17s0-9.07,0-9.07ZM147.02,4.87h2.99c-.09.33-.18.64-.27.91.97,2.48,3.45,4.03,7.41,4.66-.5.97-.93,1.95-1.34,2.97-3.5-.89-5.93-2.6-7.29-5.15-1.05,2.23-3.53,3.87-7.42,4.9-.39-.76-.93-1.69-1.65-2.79,2.28-.4,4.03-.98,5.27-1.73s2-2.01,2.3-3.75h0ZM156.41,1.83v2.34c-.66,1.17-1.28,2.33-1.86,3.49l-2.81-.9c.56-1.03,1.01-1.79,1.34-2.3h-8.45c-.6,1-1.29,2.05-2.04,3.13-.8-.63-1.63-1.18-2.48-1.68,1.51-1.82,2.66-3.7,3.42-5.63l3.13.2c-.19.44-.39.89-.6,1.34h10.37s-.02,0-.02,0ZM151.79,16.14h-10.95v2.32h10.94v-2.32h0Z"/>
        <path class="cls-5" d="M166.34,15.56c.02,1.13.1,2.27.27,3.42-1.58,1.09-2.93,2.15-4.04,3.19l-1.63-2.19c.48-.5.71-1.11.71-1.88v-7.46h-2.01v-2.91h4.82v9.31l1.88-1.5h0ZM162.63.58c1.03,1.34,1.98,2.71,2.86,4.09-.69.43-1.55.95-2.61,1.56-.82-1.51-1.71-2.93-2.66-4.24,0,0,2.41-1.41,2.41-1.41ZM168.61.24c.98.13,2,.29,3.06.47-.27.66-.55,1.29-.85,1.9h10.02l-.06,8.58-.12,5.98c-.05,1.54-.4,2.71-1.03,3.48s-1.41,1.21-2.32,1.31-2.57.12-4.97.09c-.18-1.06-.39-2.1-.65-3.11,1.48.13,2.81.2,4,.2.5,0,.89-.11,1.19-.33s.52-.53.66-.95.22-3.42.25-9l.02-3.3h-8.65c-.36.56-.73,1.1-1.12,1.61h7.77v10.54h-6.16v1.21h-2.64v-10.47c-.22.26-.45.5-.67.73-.73-.91-1.38-1.66-1.96-2.26,1.92-1.92,3.33-4.14,4.24-6.68v.02ZM173.17,9.63h-3.53v1.63h3.53v-1.63ZM173.17,15.25v-1.63h-3.53v1.63h3.53Z"/>
        <path class="cls-3" d="M194.94,2.08l-8.4,20.16h-3.23l8.38-20.16s3.26,0,3.26,0Z"/>
        <path class="cls-6" d="M202.4,16.52l1.79,2.06c-2.04,1.43-4.03,2.61-5.98,3.55-.39-.69-.9-1.48-1.51-2.39,1.93-.8,3.84-1.88,5.72-3.22h0ZM197.4,10.35v-4.67h8.91v-1.51h-8.39V1.84h8.39V.29h3.04v1.56h8.39v2.32h-8.39v1.51h8.96v4.62h-3.08v-2.32h-6.58c-1.15.67-2.38,1.32-3.69,1.99,1.51,0,2.87,0,4.05-.04,1.04-.57,2.04-1.18,3-1.82l2.19,1.92c-2.22,1.22-5.59,2.66-10.12,4.31l8.32-.34-1.57-1.24,1.9-1.63c2.06,1.46,3.83,2.77,5.32,3.95l-1.99,1.96c-.43-.37-.85-.73-1.28-1.1l-5.22.2v3.69c0,.65-.16,1.16-.5,1.55s-.77.64-1.34.74-1.93.16-4.11.16c-.16-1.11-.36-2.02-.58-2.73.82.09,1.51.12,2.08.12.51,0,.88-.08,1.09-.23s.31-.41.31-.76v-2.41c-3.41.15-5.74.29-6.99.4l-.9-2.41c2.26-.7,4.39-1.49,6.42-2.39-1.81.07-3.13.15-3.94.25l-.64-1.79h-3.07.02,0ZM200.47,10.08c1.23-.5,2.53-1.19,3.92-2.09h-3.92s0,2.09,0,2.09ZM212.38,16.54c2.17.93,4.36,1.96,6.56,3.08l-1.5,2.46c-2.35-1.3-4.53-2.37-6.52-3.24l1.45-2.3Z"/>
        <path class="cls-7" d="M221.68,20.01l-.38-2.97.96-.13V4.18h-.65V1.32h10.6v2.86h-.8v11.41l1.3-.2c-.02.58,0,1.53.05,2.86l-1.34.22v3.84h-2.99v-3.35l-6.75,1.05h0ZM225.26,6.39h3.17v-2.21h-3.17v2.21ZM225.26,11.32h3.17v-2.21h-3.17v2.21ZM228.43,16.02v-1.99h-3.17v2.45l3.17-.46ZM242.67,1.7v2.91c-.56,4.27-1.67,7.95-3.33,11.03,1.11,1.57,2.49,2.81,4.11,3.71-.5.71-1.11,1.72-1.83,3.04-1.6-1.05-2.98-2.32-4.14-3.83-1.08,1.44-2.32,2.71-3.72,3.81-.53-1-1.12-2-1.76-3.01,1.39-1.07,2.6-2.32,3.62-3.76-1.51-3.01-2.4-6.67-2.67-10.98h-.41V1.7h10.14s0,0,0,0ZM239.64,4.6h-3.75c.26,2.94.8,5.49,1.65,7.64,1.02-2.23,1.72-4.78,2.1-7.64h0Z"/>
        <path class="cls-1" d="M247.2,11.12l-1.31-3.01c1.86-1,3.55-1.99,5.09-2.99l1.28,2.79c-2.02,1.24-3.71,2.31-5.05,3.22h0ZM255.67,14.43h3.26c-.13.91-.34,1.72-.63,2.45,2.47.65,5.55,1.54,9.24,2.69l-1.51,2.88c-1.99-.75-5.06-1.8-9.19-3.16-1.48,1.69-4.59,2.75-9.33,3.18-.37-.85-.88-1.87-1.51-3.06,2.85-.14,5.13-.53,6.84-1.18s2.65-1.92,2.83-3.8h0ZM246.33,2.61l1.83-2.28c1.56,1.01,2.74,1.83,3.55,2.46l-1.99,2.5c-1.03-.93-2.16-1.83-3.39-2.68ZM267.49,1.8v2.12l-1.5,2.73-2.34-.87.71-1.45h-3.29c-.06.26-.12.5-.2.73,1.38,1.96,3.78,3.09,7.21,3.37-.53,1.09-.97,2-1.3,2.74-3.37-.43-5.72-1.64-7.03-3.62-1.22,1.85-3.25,3.02-6.1,3.53h11.88v6.3h-3.13v-3.62h-10.67v3.86h-3.13v-6.55h4.07l-1.38-2.34c4.1-.52,6.38-1.99,6.87-4.42h-2.48c-.55.9-1.12,1.7-1.71,2.41-.64-.45-1.47-.95-2.48-1.51,1.37-1.48,2.4-3.13,3.11-4.95l3.08.2c-.21.46-.42.91-.63,1.34h10.43-.02,0Z"/>
        <path class="cls-4" d="M272.35,2.1c.46,1.25.93,2.77,1.43,4.57l-2.08.65c-.56-1.96-1.03-3.51-1.38-4.62l2.03-.6h0ZM270.54,8.48h3.62V.49h2.91v7.99h3.49v2.66h-3.49v2.12l.91-.83c.66.58,1.49,1.34,2.5,2.3l-.07-.4,6.5-.6V5.09c-.77.73-1.4,1.34-1.88,1.86-1.01-1.07-2.13-2.11-3.37-3.11l1.88-1.9c1.09.82,2.21,1.74,3.37,2.77V.45h3.14v13l2.48-.25.22,2.79-2.71.27v6.15h-3.14v-5.85l-6.12.58-.22-1.72c-.64.59-1.2,1.13-1.68,1.61-.45-.53-1.06-1.19-1.83-1.96v7.33h-2.91v-6.56c-.71,1.35-1.59,2.68-2.64,3.97-.27-.93-.61-2.06-1.03-3.35,1.34-1.65,2.46-3.42,3.35-5.29h-3.31v-2.68h0ZM279,2.12c.21.08.96.34,2.26.8-.66,1.72-1.28,3.25-1.86,4.6l-2.08-.76c.59-1.43,1.15-2.97,1.68-4.65h0ZM282.68,7.73c1.16.87,2.35,1.85,3.57,2.94-.87.84-1.55,1.51-2.08,2.06-1.01-1.07-2.13-2.11-3.37-3.11l1.88-1.9h0Z"/>
      </g>
    </g>
  </g>
</svg>