<?xml version="1.0" encoding="UTF-8"?>
<svg id="_レイヤー_2" data-name=" レイヤー 2" xmlns="http://www.w3.org/2000/svg" xmlns:xlink="http://www.w3.org/1999/xlink" viewBox="0 0 309.12 24.66">
  <defs>
    <style>
      .cls-1 {
        fill: url(#_名称未設定グラデーション-6);
      }

      .cls-1, .cls-2, .cls-3, .cls-4, .cls-5, .cls-6, .cls-7 {
        stroke-width: 0px;
      }

      .cls-2 {
        fill: url(#_名称未設定グラデーション);
      }

      .cls-3 {
        fill: url(#_名称未設定グラデーション-3);
      }

      .cls-4 {
        fill: url(#_名称未設定グラデーション-7);
      }

      .cls-5 {
        fill: url(#_名称未設定グラデーション-2);
      }

      .cls-6 {
        fill: url(#_名称未設定グラデーション-4);
      }

      .cls-7 {
        fill: url(#_名称未設定グラデーション-5);
      }
    </style>
    <linearGradient id="_名称未設定グラデーション" data-name="名称未設定グラデーション" x1="93.93" y1="25.44" x2="93.93" y2="2.02" gradientTransform="translate(0 26) scale(1 -1)" gradientUnits="userSpaceOnUse">
      <stop offset="0" stop-color="#fff"/>
      <stop offset="1" stop-color="#ccc"/>
    </linearGradient>
    <linearGradient id="_名称未設定グラデーション-2" data-name="名称未設定グラデーション" x1="119.44" y1="25.29" x2="119.44" y2="2.25" xlink:href="#_名称未設定グラデーション"/>
    <linearGradient id="_名称未設定グラデーション-3" data-name="名称未設定グラデーション" x1="139.25" y1="23.35" x2="139.25" y2="2.19" xlink:href="#_名称未設定グラデーション"/>
    <linearGradient id="_名称未設定グラデーション-4" data-name="名称未設定グラデーション" x1="158.87" y1="25.23" x2="158.87" y2="2.12" xlink:href="#_名称未設定グラデーション"/>
    <linearGradient id="_名称未設定グラデーション-5" data-name="名称未設定グラデーション" x1="184.65" y1="24.15" x2="184.65" y2="2.04" xlink:href="#_名称未設定グラデーション"/>
    <linearGradient id="_名称未設定グラデーション-6" data-name="名称未設定グラデーション" x1="210.48" y1="25.25" x2="210.48" y2="1.95" xlink:href="#_名称未設定グラデーション"/>
    <linearGradient id="_名称未設定グラデーション-7" data-name="名称未設定グラデーション" x1="236.24" y1="25.06" x2="236.24" y2="2.01" xlink:href="#_名称未設定グラデーション"/>
  </defs>
  <g id="en1">
    <g id="image_TEL_zh" data-name="image TEL zh">
      <g>
        <path class="cls-2" d="M84.53,14.66l-2.37-1.97c1.88-2.58,3.38-4.72,4.5-6.42.88.81,1.64,1.48,2.3,2.02l-4.43,6.38h0ZM82.82,2.47l2.08-1.9c1.31,1.14,2.51,2.26,3.59,3.35-.7.61-1.48,1.34-2.34,2.18-.97-1.17-2.08-2.38-3.33-3.63ZM85.25,14.46h18.14v9.47h-3.33v-1.12h-11.48v1.17h-3.33s0-9.52,0-9.52ZM95.07,5.59h3.14c-.09.35-.19.67-.28.95,1.02,2.6,3.62,4.23,7.78,4.89-.52,1.02-.98,2.05-1.41,3.12-3.67-.93-6.22-2.73-7.65-5.4-1.1,2.34-3.7,4.06-7.79,5.14-.41-.8-.98-1.77-1.73-2.93,2.39-.42,4.23-1.03,5.53-1.82s2.1-2.11,2.41-3.94h0ZM104.92,2.4v2.46c-.69,1.23-1.34,2.45-1.95,3.66l-2.95-.94c.59-1.08,1.06-1.88,1.41-2.41h-8.87c-.63,1.05-1.35,2.15-2.14,3.28-.84-.66-1.71-1.24-2.6-1.76,1.59-1.91,2.79-3.88,3.59-5.91l3.28.21c-.2.46-.41.93-.63,1.41h10.88-.02ZM100.07,17.42h-11.49v2.44h11.48v-2.44h.01Z"/>
        <path class="cls-5" d="M115.34,16.81c.02,1.19.11,2.38.28,3.59-1.66,1.14-3.07,2.26-4.24,3.35l-1.71-2.3c.5-.52.75-1.17.75-1.97v-7.83h-2.11v-3.05h5.06v9.77l1.97-1.57h0ZM111.45,1.09c1.08,1.41,2.08,2.84,3,4.29-.72.45-1.63,1-2.74,1.64-.86-1.59-1.79-3.08-2.79-4.45,0,0,2.53-1.48,2.53-1.48ZM117.73.73c1.03.14,2.1.3,3.21.49-.28.69-.58,1.35-.89,1.99h10.52l-.06,9-.13,6.28c-.05,1.62-.42,2.84-1.08,3.65s-1.48,1.27-2.44,1.37-2.7.13-5.22.09c-.19-1.11-.41-2.2-.68-3.26,1.55.14,2.95.21,4.2.21.52,0,.93-.12,1.25-.35s.55-.56.69-1,.23-3.59.26-9.45l.02-3.46h-9.08c-.38.59-.77,1.15-1.18,1.69h8.16v11.06h-6.47v1.27h-2.77v-10.99c-.23.27-.47.52-.7.77-.77-.95-1.45-1.74-2.06-2.37,2.02-2.02,3.5-4.35,4.45-7.01v.02ZM122.51,10.58h-3.7v1.71h3.7v-1.71ZM122.51,16.48v-1.71h-3.7v1.71h3.7Z"/>
        <path class="cls-3" d="M145.36,2.66l-8.82,21.16h-3.39l8.79-21.16h3.42Z"/>
        <path class="cls-6" d="M153.19,17.82l1.88,2.16c-2.14,1.5-4.23,2.74-6.28,3.73-.41-.72-.94-1.55-1.59-2.51,2.03-.84,4.03-1.97,6-3.38h-.01ZM147.94,11.34v-4.9h9.35v-1.59h-8.81v-2.44h8.81V.78h3.19v1.64h8.81v2.44h-8.81v1.59h9.4v4.85h-3.23v-2.44h-6.91c-1.21.7-2.5,1.39-3.87,2.09,1.59,0,3.01-.01,4.25-.04,1.09-.6,2.14-1.24,3.15-1.91l2.3,2.02c-2.33,1.28-5.87,2.79-10.62,4.52l8.73-.36-1.65-1.3,1.99-1.71c2.16,1.53,4.02,2.91,5.58,4.15l-2.09,2.06c-.45-.39-.89-.77-1.34-1.15l-5.48.21v3.87c0,.68-.17,1.22-.52,1.63s-.81.67-1.41.78-2.03.17-4.31.17c-.17-1.17-.38-2.12-.61-2.86.86.09,1.59.13,2.18.13.54,0,.92-.08,1.14-.24s.33-.43.33-.8v-2.53c-3.58.16-6.02.3-7.34.42l-.94-2.53c2.37-.73,4.61-1.56,6.74-2.51-1.9.07-3.28.16-4.14.26l-.67-1.88h-3.22.02ZM151.17,11.06c1.29-.52,2.66-1.25,4.11-2.19h-4.11v2.19ZM163.66,17.84c2.28.98,4.58,2.06,6.89,3.23l-1.57,2.58c-2.47-1.36-4.75-2.49-6.84-3.4,0,0,1.52-2.41,1.52-2.41Z"/>
        <path class="cls-7" d="M173.43,21.48l-.4-3.12,1.01-.14V4.86h-.68V1.86h11.13v3h-.84v11.98l1.36-.21c-.02.61,0,1.61.05,3l-1.41.23v4.03h-3.14v-3.52l-7.08,1.1h0ZM177.18,7.18h3.33v-2.32h-3.33v2.32ZM177.18,12.36h3.33v-2.32h-3.33v2.32ZM180.51,17.29v-2.09h-3.33v2.57l3.33-.48ZM195.46,2.26v3.05c-.59,4.48-1.75,8.34-3.49,11.58,1.17,1.65,2.61,2.95,4.31,3.89-.52.75-1.16,1.81-1.92,3.19-1.68-1.1-3.13-2.44-4.35-4.02-1.13,1.51-2.43,2.84-3.9,4-.56-1.05-1.18-2.1-1.85-3.16,1.46-1.12,2.73-2.44,3.8-3.95-1.59-3.16-2.52-7-2.8-11.52h-.43v-3.06h10.64-.01ZM192.27,5.3h-3.94c.27,3.09.84,5.76,1.73,8.02,1.07-2.34,1.8-5.02,2.2-8.02h.01Z"/>
        <path class="cls-1" d="M200.21,12.15l-1.38-3.16c1.95-1.05,3.73-2.09,5.34-3.14l1.34,2.93c-2.12,1.3-3.89,2.42-5.3,3.38h0ZM209.1,15.62h3.42c-.14.95-.36,1.8-.66,2.57,2.59.68,5.82,1.62,9.7,2.82l-1.59,3.02c-2.09-.79-5.31-1.89-9.64-3.32-1.55,1.77-4.82,2.89-9.79,3.34-.39-.89-.92-1.96-1.59-3.21,2.99-.15,5.38-.56,7.18-1.24s2.78-2.01,2.97-3.99h0ZM199.3,3.22l1.92-2.39c1.64,1.06,2.88,1.92,3.73,2.58l-2.09,2.62c-1.08-.98-2.27-1.92-3.56-2.81ZM221.5,2.37v2.23l-1.57,2.86-2.46-.91.75-1.52h-3.45c-.06.27-.13.52-.21.77,1.45,2.06,3.97,3.24,7.57,3.54-.56,1.14-1.02,2.1-1.36,2.88-3.54-.45-6-1.72-7.38-3.8-1.28,1.94-3.41,3.17-6.4,3.7h12.47v6.61h-3.28v-3.8h-11.2v4.05h-3.28v-6.87h4.27l-1.45-2.46c4.3-.55,6.7-2.09,7.21-4.64h-2.6c-.58.94-1.18,1.78-1.79,2.53-.67-.47-1.54-1-2.6-1.59,1.44-1.55,2.52-3.28,3.26-5.2l3.23.21c-.22.48-.44.95-.66,1.41h10.95-.02Z"/>
        <path class="cls-4" d="M226.6,2.68c.48,1.31.98,2.91,1.5,4.8l-2.18.68c-.59-2.06-1.08-3.68-1.45-4.85l2.13-.63h0ZM224.7,9.38h3.8V.99h3.05v8.39h3.66v2.79h-3.66v2.23l.96-.87c.69.61,1.56,1.41,2.62,2.41l-.07-.42,6.82-.63V5.82c-.81.77-1.47,1.41-1.97,1.95-1.06-1.12-2.24-2.21-3.54-3.26l1.97-1.99c1.14.86,2.32,1.83,3.54,2.91V.95h3.3v13.64l2.6-.26.23,2.93-2.84.28v6.45h-3.3v-6.14l-6.42.61-.23-1.8c-.67.62-1.26,1.19-1.76,1.69-.47-.56-1.11-1.25-1.92-2.06v7.69h-3.05v-6.89c-.75,1.42-1.67,2.81-2.77,4.17-.28-.98-.64-2.16-1.08-3.52,1.41-1.73,2.58-3.59,3.52-5.55h-3.47v-2.81ZM233.58,2.7c.22.08,1.01.36,2.37.84-.69,1.8-1.34,3.41-1.95,4.83l-2.18-.8c.62-1.5,1.21-3.12,1.76-4.88h0ZM237.45,8.59c1.22.91,2.47,1.94,3.75,3.09-.91.88-1.63,1.59-2.18,2.16-1.06-1.12-2.24-2.21-3.54-3.26l1.97-1.99h0Z"/>
      </g>
    </g>
  </g>
</svg>