<?xml version="1.0" encoding="UTF-8"?>
<svg id="_レイヤー_2" data-name="レイヤー 2" xmlns="http://www.w3.org/2000/svg" viewBox="0 0 372.77 94.13">
  <defs>
    <style>
      .cls-1 {
        fill: #fc0;
      }

      .cls-2 {
        fill: #ff3;
      }
    </style>
  </defs>
  <g id="en1">
    <g id="_花_zh" data-name=" 花_zh">
      <g>
        <path class="cls-1" d="M44.52,79.57c-4.31.74-11.48,3.23-11.48,6.22,0,6.69,9.89,7.29,11.48,8.34,1.6-1.05,11.48-1.65,11.48-8.34,0-2.99-7.18-5.48-11.48-6.22Z"/>
        <path class="cls-1" d="M66.73,81.39c-3.29-.1-10.73-1.4-15.06-1.4,1.92.82,4.03,1.94,6.82,4.49,3.2,2.93,3.23,4.98,5.65,6.04,3.16,1.39,9.86,1.42,13.94.16,3.68-1.14,5.92-3.67,7.75-4.89-3.4-1.52-4.04-3.19-6.29-4.08-4.49-1.78-7.97-.18-12.81-.32Z"/>
        <path class="cls-1" d="M57.02,71.59c-2.13,1.5-8.27,4.22-10.18,4.94,4.65.41,8.68,1.09,12,1.81,5.4,1.16,7.58,1.5,10.66,1.39,3.97-.15,7.84-.48,10.42-4.32,2.65-3.94,1.62-7.47,4.84-10.65,1.08-1.07,2.76-2.7,4.27-3.45-5.52-4.38-10-4.13-11.48-3.96-4.29.51-6.02,2.81-10.5,7.01-2.79,2.61-7.94,5.77-10.03,7.24h0Z"/>
        <path class="cls-1" d="M62.82,63.75c4.69-3.54,6.03-5.04,6.48-7.16.44-2.08.01-4.84-.21-8-.17-2.42.32-4.29.39-5.55-6.59-.55-9.61.86-11.17,2.15-1.65,1.35-2.74,2.48-3.37,9.23-.41,4.42-.73,8.03-1.63,10.73-1.02,3.05-1.77,4.23-3.05,7.03,5.31-3.15,9.52-6.12,12.56-8.42h0Z"/>
        <path class="cls-1" d="M44.52,75.81c2.4-3.09,4.75-5.71,6.77-11.52,1.55-4.45,2.43-11.25.39-16.84-1.72-4.68-4.55-5.71-7.16-8.58-2.61,2.87-5.44,3.89-7.16,8.58-2.05,5.59-1.16,12.39.39,16.84,2.02,5.81,4.37,8.42,6.77,11.52Z"/>
        <path class="cls-1" d="M22.3,81.39c-4.85.14-8.33-1.46-12.81.32-2.25.89-2.89,2.56-6.29,4.08,1.83,1.21,4.07,3.75,7.75,4.89,4.08,1.26,10.77,1.23,13.94-.16,2.42-1.06,2.45-3.11,5.65-6.04,2.79-2.55,4.9-3.67,6.82-4.49-4.32,0-11.77,1.31-15.06,1.4Z"/>
        <path class="cls-1" d="M9.11,75.4c2.58,3.84,6.45,4.18,10.42,4.32,3.09.11,5.26-.22,10.66-1.39,3.32-.72,7.35-1.4,12-1.81-1.9-.72-8.04-3.44-10.18-4.94-2.09-1.47-7.25-4.63-10.03-7.24-4.47-4.2-6.21-6.49-10.5-7.01-1.49-.18-5.96-.42-11.48,3.96,1.51.75,3.19,2.39,4.27,3.45,3.22,3.18,2.19,6.7,4.84,10.65h0Z"/>
        <path class="cls-1" d="M19.73,56.59c.45,2.12,1.79,3.62,6.48,7.16,3.05,2.3,7.25,5.27,12.56,8.42-1.27-2.81-2.03-3.98-3.05-7.03-.9-2.69-1.22-6.31-1.63-10.73-.63-6.75-1.73-7.87-3.37-9.23-1.57-1.29-4.59-2.7-11.17-2.15.07,1.26.56,3.13.39,5.55-.23,3.16-.66,5.92-.21,8h0Z"/>
      </g>
      <g>
        <path class="cls-2" d="M105.94,65.13l-2.83.34-1.06-1.87,4.13.38h15.98v-7.63h-11.14l-2.83.34c-1.06-1.18-1.58-1.82-1.58-1.92l4.51.43h11.04v-5.18l-.24-2.35c0-.06.16-.1.48-.1,3.36,0,5.04.35,5.04,1.06,0,.16-.24.38-.72.65s-.72.57-.72.89v5.04h8.5l2.59-3.26c2.91,1.98,4.37,3.2,4.37,3.65,0,.51-.38.77-1.15.77h-14.3v7.63h12.96s.11-.03.24-.1l2.64-3.17c2.91,2.4,4.37,3.7,4.37,3.89,0,.35-.38.53-1.15.53h-39.12v-.02ZM107.95,73.24l-2.83.34c-1.54-.99-2.3-1.65-2.3-1.97.22,0,.79.06,1.7.19.91.13,2.58.21,5.02.24h19.63v-3.46l-.24-2.16c-.03-.22.13-.34.48-.34s1.29.12,2.81.36,2.28.49,2.28.74c0,.16-.25.38-.74.65-.5.27-.74.57-.74.89v3.31h6.1l2.26-2.98c2.78,2.05,4.18,3.18,4.18,3.41v.38c0,.26-.38.38-1.15.38h-11.38v14.21c.03,2.43-1.58,3.65-4.85,3.65l-1.87-1.49c-1.54-1.22-3.94-1.89-7.2-2.02-.45-.19-.67-.39-.67-.6s.19-.44.58-.7l7.97.77c1.47-.06,2.21-.42,2.21-1.06v-12.77h-21.22l-.03.03ZM109.39,76.26c-.16-.06-.3-.26-.43-.58-.19-.48.11-.72.91-.72.29,0,1.07.21,2.35.62,5.31,1.5,7.97,3.66,7.97,6.48,0,.61-.14,1.22-.41,1.85s-.63.94-1.08.94c0,.77-.5.32-1.49-1.34-1.98-3.55-4.59-5.97-7.82-7.25Z"/>
        <path class="cls-2" d="M190.37,66.23c.19,2.56.29,3.95.29,4.18-.1.64-1.17.96-3.22.96-.64,0-.96-.34-.96-1.01,0-.38.06-.88.19-1.49h-11.57c-.7,1.54-1.62,3.01-2.74,4.42h19.68l3.02-3.31c2.4,1.98,3.71,3.23,3.94,3.74,0,.51-.35.77-1.06.77h-12.43c4.19,3.01,8.61,5.07,13.25,6.19-1.31,1.44-2.19,2.75-2.64,3.94-5.6-3.07-9.94-6.45-13.01-10.13h-11.81c-3.81,4.1-9.62,7.54-17.42,10.32-.48.19-.72-.08-.72-.82,0-.38.18-.64.53-.77,5.57-2.43,9.92-5.34,13.06-8.74h-7.63l-3.26.91-2.69-2.21v-.19c0-.06.06-.13.19-.19,1.82.29,4.03.45,6.62.48h7.82c1.12-1.41,2.05-2.88,2.78-4.42h-5.38c.06.51.13,1.02.19,1.54-.1.64-1.17.96-3.22.96-.61,0-.91-.38-.91-1.15l.19-3.98v-8.26l-.24-2.11c-.03-.22,0-.34.1-.34h.19l4.56,1.97h19.25l2.78-2.11c.54,0,1.34.43,2.4,1.3,1.06.86,1.58,1.57,1.58,2.11l-1.73,2.16v5.28h.03ZM190.56,51.35l3.02-3.31c2.4,1.98,3.71,3.23,3.94,3.74,0,.51-.35.77-1.06.77h-11.18v.72l.29,2.5c-.1.64-1.23.96-3.41.96-.54,0-.86-.37-.96-1.1l.24-2.35v-.72h-10.85v.72l.29,2.5c-.1.64-1.23.96-3.41.96-.54,0-.86-.37-.96-1.1l.24-2.35v-.72h-6.19l-3.26.91-2.69-2.21v-.19c0-.06.06-.13.19-.19,1.82.29,4.03.45,6.62.48h5.33v-2.02l-.24-2.11v-.05c0-.19.14-.29.41-.29s1.19.11,2.76.34c1.57.22,2.35.46,2.35.72l-1.44,1.54v1.87h10.85v-2.02l-.24-2.11v-.05c0-.19.14-.29.41-.29s1.19.11,2.76.34c1.57.22,2.35.46,2.35.72l-1.44,1.54v1.87h5.28v-.02ZM188.59,88.41l3.02-3.31c2.4,1.98,3.71,3.23,3.94,3.74,0,.51-.35.77-1.06.77h-32.5l-3.26.91-2.69-2.21v-.19c0-.06.06-.13.19-.19,1.82.29,4.03.45,6.62.48h11.23v-5.57h-4.9l-3.26.91-2.69-2.21v-.19c0-.06.06-.13.19-.19,1.82.29,4.03.45,6.62.48h4.03v-3.74l-.24-2.11v-.05c0-.19.14-.29.41-.29s1.19.11,2.76.34c1.57.22,2.35.46,2.35.72l-1.44,1.54v3.6h3.46l3.02-3.31c2.4,1.98,3.71,3.23,3.94,3.74,0,.51-.35.77-1.06.77h-9.36v5.57h10.68ZM165.17,62.77h21.55v-2.78c0-.45-.1-.8-.29-1.06h-21.26v3.84h0ZM165.17,67.67h21.55v-3.74h-21.55v3.74Z"/>
        <path class="cls-2" d="M220.05,60.28c2.18,2.05,3.26,3.3,3.26,3.74,0,.26-.4.38-1.2.38h-6v13.58c1.7-.64,3.1-1.2,4.2-1.68s1.77-.72,1.99-.72l.05.05c.16.06.34.13.53.19.19.06.26.16.19.29-.8,1.25-5.04,4.1-12.72,8.54-.7,1.54-1.1,2.3-1.18,2.3s-.14-.02-.17-.05c-.83-.35-1.98-2.14-3.46-5.38,1.18-.29,3.5-1.02,6.96-2.21v-14.93h-2.26l-2.83.58-1.87-2.5c.54.06.96.17,1.25.31s1.65.23,4.08.26h1.63v-9.84l-.24-2.16c-.03-.22.13-.34.48-.34s1.25.12,2.69.36,2.16.49,2.16.74c0,.16-.25.38-.74.65-.5.27-.74.57-.74.89v9.7h1.3l2.64-2.78v.03ZM222.84,69.21l-2.59,1.58c-1.25-.99-2.02-1.63-2.3-1.92.03-.03.41-.09,1.13-.17s1.83-.41,3.34-.98l2.45-1.06v-12.19l-.29-2.11c-.03-.22.12-.34.46-.34s1.23.11,2.69.34c1.46.22,2.18.46,2.18.72,0,.16-.24.38-.72.65s-.72.57-.72.89v10.56l5.95-2.54v-11.95l-.19-2.11c-.03-.22.08-.34.34-.34s1.14.12,2.64.36,2.26.47,2.26.7l-1.49,1.54v10.32l6.19-2.64c.32-.29.75-.74,1.3-1.37.54-.62.91-.94,1.1-.94.54,0,1.36.43,2.45,1.3,1.09.86,1.63,1.49,1.63,1.87,0,.16-.33.47-.98.94-.66.46-.98.81-.98,1.03v.62c0,7.01-.13,11.31-.38,12.91-.86,2.4-2.37,3.62-4.51,3.65l-1.01-1.49c-.83-1.22-1.94-1.84-3.31-1.87-.45-.19-.67-.4-.67-.62s.19-.46.58-.72l4.37.67c.54-.19.82-.54.82-1.06.32-2.18.48-6.4.48-12.67-.06-.48-.24-.78-.53-.91l-6.53,2.83v12.91l.29,3.6c0,.06-.02.24-.05.53-.06.64-1.09.96-3.07.96-.64,0-.96-.5-.96-1.51s.08-2.36.24-4.06v-10.9l-5.95,2.54v17.62c0,2.05,1.02,3.07,3.07,3.07h13.97c1.47,0,2.34-1.49,2.59-4.46l.29-3.36c.29-1.89.54-2.83.74-2.83s.38.93.5,2.78l.29,5.66.67,2.02c.38.35.58.69.58,1.01s-.03.59-.1.82c-.48,1.34-1.73,2.02-3.74,2.02h-18c-2.98,0-4.46-1.55-4.46-4.66v-18.1l-2.02.86h-.04Z"/>
        <path class="cls-1" d="M264.12,87.4c-.61-.61-.91-1.34-.91-2.21s.3-1.6.91-2.21c.61-.61,1.34-.91,2.21-.91s1.6.3,2.21.91.91,1.34.91,2.21-.3,1.6-.91,2.21c-.61.61-1.34.91-2.21.91s-1.6-.3-2.21-.91Z"/>
        <path class="cls-1" d="M297.07,84.71l1.54.96c-2.27,1.92-4.54,2.88-6.82,2.88h-.62c-4.03,0-7.07-.98-9.12-2.93-2.72-2.59-4.08-5.85-4.08-9.77s1.36-6.98,4.08-9.19c2.43-1.95,5.48-2.93,9.14-2.93s5.94.85,6.84,2.54l-1.25,3.46c-.58-1.95-2.45-2.93-5.62-2.93s-5.37.91-6.6,2.74-1.85,4.14-1.85,6.96.86,5.08,2.57,6.79c1.71,1.71,4.15,2.57,7.32,2.57,1.57,0,3.06-.38,4.46-1.15h0Z"/>
        <path class="cls-1" d="M315.54,88.93c-3.25,0-5.99-1.25-8.23-3.74-2.24-2.5-3.36-5.49-3.36-8.98s1.12-6.51,3.36-9.07,4.98-3.84,8.23-3.84,6.05,1.28,8.4,3.84,3.53,5.58,3.53,9.07-1.18,6.48-3.53,8.98-5.15,3.74-8.4,3.74ZM322.48,76.19c0-3.5-.66-6.15-1.97-7.94s-3.03-2.69-5.16-2.69-3.78.87-4.94,2.62c-1.17,1.74-1.75,4.41-1.75,7.99s.66,6.24,1.97,7.97,3.04,2.59,5.18,2.59,3.79-.88,4.94-2.64,1.73-4.39,1.73-7.9Z"/>
        <path class="cls-1" d="M354.24,69.25c.77-3.84,2.91-5.76,6.43-5.76,2.69,0,4.78.54,6.29,1.61,1.5,1.07,2.26,2.97,2.26,5.69v13.63c.22.96.8,1.44,1.73,1.44h1.82v2.16h-11.09v-2.16l2.06-.05h.05c.38,0,.86-.46,1.44-1.39v-12.72c0-1.86-.41-3.25-1.22-4.18-.82-.93-1.86-1.39-3.14-1.39-3.78,0-5.66,2.42-5.66,7.25v11.04c.22.96.8,1.44,1.73,1.44h1.82v2.16h-11.09v-2.16l2.06-.05h.05c.38,0,.86-.46,1.44-1.39v-12.43c0-1.86-.39-3.3-1.18-4.32-.78-1.02-1.82-1.54-3.1-1.54-3.84,0-5.76,3.42-5.76,10.27v8.02c.22.96.8,1.44,1.73,1.44h1.82v2.16h-11.09v-2.16l2.06-.05c.64-.13,1.14-.59,1.49-1.39v-17.52h-3.6v-.96l5.71-2.88h1.87v6.24c.8-3.84,2.59-5.78,5.38-5.81h.14c4.8,0,7.31,1.92,7.54,5.76h0Z"/>
      </g>
      <g>
        <path class="cls-2" d="M10.33,18.12c.69,3.84-1.02,6.21-2.37,7.08-.84.57-1.95.72-2.31.03-.3-.6.12-1.23.72-1.59,1.53-.81,3.24-2.94,3.45-5.52h.51ZM9.47,1.14l2.13.96h15.15l1.11-1.23,2.43,1.89c-.21.24-.66.48-1.26.6v11.91c-.03.18-1.02.66-1.68.66h-.3v-1.26h-15.6v1.08c0,.21-.84.69-1.65.69h-.33V1.14ZM18.13,7.92V2.97h-6.69v4.95h6.69ZM11.44,13.8h6.69v-5.01h-6.69v5.01ZM15.91,17.94c-.06.36-.33.6-.9.69v6.27c0,.48.15.6,1.53.6h3.84c1.74,0,3.09,0,3.6-.06.42-.03.54-.12.69-.42.24-.51.54-1.95.9-3.63h.39l.09,3.75c.69.24.9.45.9.84,0,.96-1.05,1.26-6.63,1.26h-4.05c-2.67,0-3.18-.42-3.18-1.98v-7.65l2.82.33ZM20.83,21.36c-.54-1.83-2.67-3.93-4.44-5.07l.3-.27c7.41,1.65,6.42,6.6,4.14,5.34ZM20.05,7.92h6.99V2.97h-6.99v4.95ZM20.05,13.8h6.99v-5.01h-6.99v5.01ZM31.06,25.14c-.48-2.43-2.88-5.4-4.95-7.14l.36-.27c8.52,3.51,6.96,9.18,4.59,7.41Z"/>
        <path class="cls-2" d="M37.67,11.49l-.18-.48c5.52-2.52,10.71-7.02,12.78-11.01l3.39.87c-.12.33-.42.51-1.26.57,2.94,3.21,7.86,5.88,13.35,7.23l-.06.48c-.93.27-1.5,1.02-1.71,1.8-5.28-2.07-9.69-5.25-12.09-9.18-2.73,3.63-8.07,7.65-14.22,9.72ZM42.53,18.27c.9,3.87-.69,6.18-2.04,7.05-.81.57-1.92.69-2.31,0-.3-.6.12-1.23.75-1.59,1.47-.78,3.06-2.88,3.09-5.46h.51ZM56.72,11.28l1.08-1.11,2.19,1.98c-.24.21-.75.36-1.44.39-.69,1.32-2.01,3.63-3,5.25-.54.09-1.14.03-1.95-.39,1.02-1.62,2.16-3.69,2.94-5.22h-13.74l-.27-.9h14.19ZM48.41,18.09c-.03.33-.3.6-.87.69v5.91c0,.48.15.57,1.47.57h3.78c1.68,0,3,0,3.48-.06.42-.03.54-.09.69-.39.24-.48.54-1.89.9-3.51h.39l.09,3.66c.69.21.9.42.9.81,0,.93-1.02,1.23-6.51,1.23h-3.99c-2.64,0-3.15-.42-3.15-1.95v-7.29l2.82.33ZM52.61,7.8l1.29-1.59s1.5,1.14,2.4,2.01c-.09.33-.39.45-.78.45h-8.73l-.24-.87h6.06ZM52.4,21.63c-.51-1.74-2.43-3.99-3.93-5.28l.36-.24c6.99,2.37,5.7,6.87,3.57,5.52ZM63.29,25.11c-.54-2.31-2.94-5.16-4.92-6.87l.33-.24c8.49,3.39,6.99,8.79,4.59,7.11Z"/>
        <path class="cls-2" d="M97.67,21.63c-.06.33-.33.48-.75.48h-11.79v2.97c0,1.5-.39,2.58-3.21,2.82-.06-.57-.24-1.08-.69-1.35-.45-.36-1.26-.6-2.76-.78v-.45s3.36.24,4.02.24c.57,0,.72-.15.72-.54v-2.91h-12.48l-.24-.9h12.72v-2.43h-8.76l-.24-.9h9v-2.49c-3.27.18-6.69.24-9.9.21l-.06-.6c6.36-.33,14.37-1.29,18.72-2.25l1.95,2.04c-.27.24-.84.21-1.5-.12-2.13.24-4.62.45-7.29.6v2.61h4.68l1.35-1.65s1.56,1.17,2.52,2.07c-.09.33-.33.48-.75.48h-7.8v2.43h8.58l1.41-1.68s1.59,1.17,2.55,2.1ZM81.53,4.14c-.06.33-.36.48-.78.48h-3.39v2.58l3.81-.72.06.45-3.87,1.41v3.21c0,1.53-.3,2.37-2.64,2.64-.06-.54-.15-1.02-.48-1.29-.33-.27-.87-.48-1.89-.63v-.48s2.19.18,2.64.18c.39,0,.51-.15.51-.54v-2.43l-3.03,1.05c-.12.36-.36.63-.66.69l-.9-2.43c.96-.12,2.61-.39,4.59-.75v-2.94h-4.35l-.24-.87h4.59V.18l2.91.33c-.09.45-.39.66-1.05.75v2.49h.69l1.23-1.59s1.38,1.11,2.25,1.98ZM87.65,1.26l-.15,2.34h3.24l1.11-1.14,2.13,1.77c-.18.21-.6.36-1.11.42-.06,3.12.33,6.06,2.55,6.75.36.12.45.03.57-.27.24-.54.48-1.35.69-2.25l.36.03-.12,2.79c.6.42.78.69.63,1.11-.21.78-1.32.84-2.49.51-3.39-.99-3.96-4.2-4.05-8.85h-3.63c-.15,1.14-.42,2.25-.93,3.3,4.32,1.8,3.84,4.11,2.13,3.6-.63-.63-1.71-1.44-2.91-2.22-1.2,1.77-3.21,3.36-6.57,4.71l-.36-.51c2.91-1.47,4.62-3.18,5.58-5.01-.93-.57-1.92-1.08-2.73-1.44l.24-.39c1.14.21,2.16.45,3,.69.36-.87.54-1.8.69-2.73h-3.39l-.27-.87h3.75c.09-1.08.12-2.22.12-3.36l2.88.27c-.06.39-.3.69-.96.75Z"/>
        <path class="cls-2" d="M114.21,11.61c-.24.84-.51,1.68-.84,2.52h10.05l1.38-1.59s1.56,1.08,2.61,1.98c-.09.33-.36.48-.78.48h-13.59c-.36.84-.75,1.65-1.17,2.46h10.29l1.2-1.14,2.19,1.95c-.21.21-.63.3-1.35.33-1.41,2.13-3.06,3.81-5.07,5.13,3.09.99,6.75,1.5,10.8,1.68l-.03.36c-.87.21-1.5.87-1.71,1.83-4.32-.48-7.98-1.32-10.92-2.79-3,1.53-6.69,2.46-11.4,3.06l-.18-.57c4.02-.81,7.35-1.8,10.08-3.33-1.98-1.23-3.57-2.88-4.8-4.98-1.98,3.15-4.62,5.85-7.95,7.71l-.33-.36c3.75-2.61,6.57-6.75,8.25-11.34h-5.46l-.24-.87h6c.42-1.17.72-2.4.96-3.6l3.18.66c-.12.36-.36.48-1.17.42ZM125.16,4.71c-.9,1.41-2.31,3.15-3.78,4.5h5.31l1.26-1.26,2.22,2.19c-.21.18-.57.24-1.11.3-.63.81-1.77,2.22-2.46,3l-.42-.18.69-3.18h-20.97c.09,1.5-.36,2.73-1.29,3.36-1.41,1.02-2.76-.54-1.14-1.77.6-.48,1.56-1.89,1.65-3.66l.45.03c.12.39.21.78.27,1.17h14.7c1.08-1.74,2.16-4.14,2.79-5.97l3,.93c-.15.33-.54.57-1.17.54ZM126.06,2.22c-5.64.72-13.89,1.38-21.18,1.38l-.06-.6c7.08-.42,16.02-1.59,20.85-2.64l1.92,2.01c-.27.21-.84.21-1.53-.15ZM109.08,8.61c-.21-1.41-1.2-3.21-2.1-4.26l.36-.21c5.4,2.25,3.51,5.97,1.74,4.47ZM121.83,18.33h-10.47v.06c1.38,2.07,3.39,3.57,5.94,4.65,1.8-1.23,3.3-2.76,4.53-4.71ZM115.29,8.37c-.09-1.47-1.11-3.42-1.95-4.59l.36-.21c5.37,2.7,3.36,6.42,1.59,4.8Z"/>
        <path class="cls-2" d="M150.72,1.14c-.06.42-.36.72-1.11.81v5.28h6.66l1.44-1.29,2.22,2.1c-.27.27-.6.33-1.35.36-3.51,5.22-9.57,10.65-16.53,14.1,2.22,2.1,5.4,2.46,10.35,2.46,2.28,0,7.65,0,10.08-.09v.45c-.81.15-1.2.78-1.26,1.53h-8.91c-6.54,0-9.9-1.05-12.27-6.24-.87,1.53-2.16,3.75-2.91,4.92.27.42.21.84-.03,1.08l-2.13-1.95c1.29-1.14,3.42-3.3,4.65-4.74l.54-1.98,1.35.45-1.2,1.74c.39.75.84,1.38,1.32,1.92,5.55-3.54,11.37-8.97,14.46-13.95h-19.23l-.27-.87h11.04V.81l3.09.33Z"/>
        <path class="cls-2" d="M194.44,25.74l-.06.33c-1.08.12-1.83.54-2.16,1.68-8.07-4.47-10.77-11.46-11.7-20.4-.54,7.26-2.7,14.85-13.38,20.4l-.42-.51c11.94-7.41,11.85-17.13,11.88-26.31l3.18.33c-.06.45-.3.75-1.05.84.66,11.04,3.33,18.84,13.71,23.64Z"/>
        <path class="cls-2" d="M206.25,1.68c-.6,1.17-1.47,2.73-2.16,3.93h3.81l1.11-1.2,2.37,1.86c-.18.24-.69.48-1.29.6v18.39c-.03.21-.93.72-1.62.72h-.27v-2.28h-6.27v2.46c0,.24-.69.69-1.53.69h-.33V4.65l2.01.96h.99c.36-1.53.87-3.69,1.14-5.28l3.15.72c-.12.42-.51.63-1.11.63ZM201.93,6.51v7.5h6.27v-7.5h-6.27ZM201.93,22.83h6.27v-7.95h-6.27v7.95ZM217.41,1.83c-.45,1.29-.96,2.58-1.53,3.78h6.57l1.23-1.35,2.37,2.01c-.24.27-.6.42-1.29.48-.21,11.1-.72,17.79-2.16,19.53-.81,1.02-2.01,1.44-3.45,1.44,0-.63-.15-1.2-.6-1.53-.45-.33-1.74-.69-2.97-.9l.03-.54c1.38.15,3.54.36,4.23.36.6,0,.84-.09,1.17-.42,1.11-1.11,1.56-7.95,1.77-18.21h-7.32c-1.26,2.49-2.73,4.68-4.38,6.33l-.42-.3c1.92-2.97,3.81-7.56,4.8-12.18l3.09.9c-.12.33-.48.63-1.14.6ZM217.02,18.24c-.33-2.04-2.13-4.65-3.63-6.24l.33-.21c7.23,3.24,5.49,8.13,3.3,6.45Z"/>
        <path class="cls-2" d="M234.17,20.58v-10.29h-3.54l-.24-.9h3.78V.9l3,.33c-.06.42-.33.72-1.08.84v7.32h1.02l1.23-1.77s1.5,1.26,2.31,2.19c-.06.33-.33.48-.75.48h-3.81v9.48l4.53-2.01.18.42c-2.1,1.38-5.04,3.39-8.85,5.7-.09.36-.3.66-.57.81l-1.2-2.58c.84-.27,2.25-.81,3.99-1.53ZM254.03,6.66l1.08-1.17,2.25,1.83c-.21.24-.57.36-1.17.45-.09,7.89-.42,10.8-1.44,11.88-.63.63-1.53.93-2.49.93,0-.54-.03-1.05-.33-1.35-.27-.27-.9-.48-1.56-.63v-.51c.69.06,1.74.15,2.22.15.45,0,.63-.06.84-.3.54-.57.75-3.51.87-10.41l-4.59,1.71v12.54c0,.24-.81.72-1.56.72h-.33v-12.54l-4.02,1.5v12.21c0,.9.33,1.26,2.22,1.26h4.44c2.1,0,3.63-.03,4.26-.12.48-.06.69-.18.87-.45.24-.57.69-2.34,1.11-4.53h.39l.09,4.65c.81.27,1.02.51,1.02.93,0,1.05-1.32,1.35-7.8,1.35h-4.53c-3.03,0-3.99-.57-3.99-2.7v-11.88l-3.69,1.38-.57-.72,4.26-1.62V2.61l2.97.36c-.06.39-.36.72-1.05.84v6.69l4.02-1.5V.36l2.94.3c-.06.42-.33.72-1.05.84v6.78l4.05-1.53.27-.09Z"/>
        <path class="cls-2" d="M278.32.57c-.06.42-.36.72-1.11.81v4.65h8.55l1.5-1.89s1.74,1.32,2.82,2.28c-.09.33-.39.48-.81.48h-14.52c-.12,1.95-.33,3.78-.63,5.49h8.73l1.17-1.23,2.31,1.92c-.21.24-.57.39-1.23.48-.36,6.33-1.14,11.61-2.61,12.96-.87.81-2.1,1.23-3.57,1.2,0-.57-.15-1.14-.66-1.47-.54-.36-2.22-.69-3.66-.9v-.54c1.62.15,4.5.42,5.25.42.63,0,.93-.06,1.29-.36.99-.87,1.68-5.85,1.98-11.58h-9.15c-1.26,6.36-4.14,11.16-10.92,14.52l-.27-.36c7.32-4.98,9.24-11.7,9.57-20.55h-9.54l-.24-.87h12.66V.27l3.09.3Z"/>
        <path class="cls-2" d="M294.79,23.67c0-2.31,1.92-4.2,4.23-4.2s4.2,1.89,4.2,4.2-1.89,4.23-4.2,4.23-4.23-1.92-4.23-4.23ZM302.2,23.67c0-1.77-1.41-3.18-3.18-3.18s-3.21,1.41-3.21,3.18,1.41,3.21,3.21,3.21,3.18-1.44,3.18-3.21Z"/>
      </g>
    </g>
  </g>
</svg>