<?xml version="1.0" encoding="UTF-8"?>
<svg id="_レイヤー_2" data-name="レイヤー 2" xmlns="http://www.w3.org/2000/svg" xmlns:xlink="http://www.w3.org/1999/xlink" viewBox="0 0 240 80.3">
  <defs>
    <style>
      .cls-1 {
        fill: #0a1543;
      }

      .cls-2 {
        fill: url(#_新規グラデーションスウォッチ_2);
      }

      .cls-3 {
        fill: #00404f;
      }
    </style>
    <linearGradient id="_新規グラデーションスウォッチ_2" data-name="新規グラデーションスウォッチ 2" x1="120" y1="2" x2="120" y2="71" gradientTransform="translate(83.5 156.5) rotate(-90)" gradientUnits="userSpaceOnUse">
      <stop offset=".24" stop-color="#c6deb4"/>
      <stop offset=".41" stop-color="#c9dfb8"/>
      <stop offset=".59" stop-color="#d3e5c5"/>
      <stop offset=".78" stop-color="#e4efdb"/>
      <stop offset=".98" stop-color="#fbfdfa"/>
      <stop offset="1" stop-color="#fff"/>
    </linearGradient>
  </defs>
  <g id="en_zh2">
    <g id="UI_eidaikuyou_en">
      <rect class="cls-3" width="240" height="80.3" rx="25" ry="25"/>
      <rect class="cls-3" width="240" height="73" rx="25" ry="25"/>
      <rect class="cls-2" x="85.5" y="-81.5" width="69" height="236" rx="23" ry="23" transform="translate(156.5 -83.5) rotate(90)"/>
    </g>
    <g id="zh">
      <g>
        <path class="cls-1" d="M37.97,33.68h.58l.5-.11,1.76.79c-.62,2.45-1.48,4.68-2.56,6.7-1.08,2.02-2.31,3.79-3.69,5.31-1.38,1.52-2.85,2.78-4.41,3.76-.14-.22-.34-.45-.59-.7s-.52-.5-.79-.76c-.28-.25-.53-.45-.77-.59,1.54-.89,2.96-2.01,4.28-3.37,1.32-1.36,2.47-2.92,3.46-4.68.98-1.76,1.73-3.69,2.23-5.78v-.58ZM28.79,33.68h10.22v2.59h-10.22v-2.59ZM33.47,26.69h11.56v2.59h-11.56v-2.59ZM36.75,21.55l1.33-2.2c1.1.26,2.27.57,3.51.92,1.24.35,2.47.73,3.69,1.15s2.37.85,3.44,1.28c1.07.43,1.99.85,2.75,1.26l-1.37,2.56c-.77-.41-1.67-.84-2.72-1.29-1.04-.46-2.17-.91-3.38-1.37-1.21-.46-2.44-.88-3.67-1.28-1.24-.4-2.43-.74-3.58-1.03ZM43.45,26.69h2.88v22.21c0,.84-.11,1.48-.34,1.93-.23.44-.64.79-1.24,1.03-.58.22-1.36.35-2.36.4-1,.05-2.25.07-3.76.07-.05-.36-.16-.81-.34-1.35-.18-.54-.38-.99-.59-1.35.72.02,1.42.04,2.09.05.67.01,1.27.02,1.78.02h1.06c.31-.02.53-.09.65-.2s.18-.32.18-.63v-22.18ZM46.04,28.35c.79,3,1.88,5.77,3.28,8.32,1.39,2.54,3.11,4.76,5.15,6.66,2.04,1.9,4.39,3.35,7.06,4.36-.19.19-.41.43-.67.7-.25.28-.49.56-.7.86-.22.3-.4.57-.54.81-2.74-1.2-5.13-2.82-7.18-4.86-2.05-2.04-3.79-4.45-5.2-7.22-1.42-2.77-2.57-5.81-3.46-9.13l2.27-.5ZM57.77,29.29l2.48,1.76c-1.01.94-2.1,1.91-3.28,2.92-1.18,1.01-2.36,1.97-3.55,2.9s-2.3,1.73-3.33,2.43l-1.91-1.55c1.03-.72,2.13-1.57,3.29-2.54s2.3-1.97,3.42-3.01c1.12-1.03,2.07-2,2.86-2.92Z"/>
        <path class="cls-1" d="M74.75,19.64l2.56.83c-.91,2.11-1.97,4.18-3.19,6.19-1.21,2.02-2.53,3.91-3.94,5.67s-2.87,3.32-4.36,4.66c-.1-.22-.24-.49-.43-.83-.19-.34-.39-.67-.59-.99-.2-.32-.39-.58-.56-.77,1.39-1.18,2.74-2.54,4.05-4.1,1.31-1.56,2.51-3.25,3.62-5.08s2.05-3.68,2.84-5.58ZM70.64,29.25l2.74-2.74.04.07v25.74h-2.77v-23.08ZM75.14,31.63l22.32-2.81.4,2.56-22.32,2.81-.4-2.56ZM83.21,19.78h2.7c.14,4.06.41,7.84.79,11.34.38,3.5.91,6.59,1.58,9.25.67,2.66,1.51,4.76,2.52,6.3,1.01,1.54,2.18,2.38,3.53,2.52.53.03.95-.49,1.26-1.55s.55-2.63.72-4.72c.19.17.43.35.72.54.29.19.58.37.86.52s.52.28.68.38c-.26,2.06-.6,3.69-1.01,4.88s-.87,2.02-1.39,2.48c-.52.47-1.1.68-1.75.63-1.61-.12-3.01-.73-4.21-1.84-1.2-1.1-2.21-2.63-3.04-4.57s-1.51-4.25-2.03-6.91-.94-5.62-1.24-8.86c-.3-3.24-.53-6.71-.7-10.4ZM89.22,21.33l1.94-1.3c.72.58,1.46,1.21,2.23,1.91.77.7,1.48,1.39,2.14,2.07.66.68,1.19,1.29,1.6,1.82l-2.09,1.44c-.41-.55-.93-1.17-1.57-1.85-.64-.68-1.33-1.39-2.07-2.12-.74-.73-1.48-1.39-2.2-1.96Z"/>
        <path class="cls-1" d="M110.73,19.35l2.56.79c-.79,2.04-1.72,4.05-2.77,6.03s-2.19,3.85-3.4,5.6c-1.21,1.75-2.48,3.3-3.8,4.64-.07-.22-.2-.49-.38-.83-.18-.34-.37-.68-.58-1.03-.2-.35-.39-.63-.56-.85,1.18-1.15,2.32-2.5,3.42-4.03,1.1-1.54,2.13-3.19,3.08-4.95.95-1.76,1.76-3.56,2.43-5.38ZM106.87,28.67l2.63-2.59.04.04v26.21h-2.66v-23.65ZM118.47,43.11l2.59.83c-.6,1.03-1.28,2.06-2.05,3.08-.77,1.02-1.57,1.99-2.41,2.9-.84.91-1.67,1.7-2.48,2.38-.17-.14-.38-.32-.63-.54-.25-.22-.52-.43-.79-.65-.28-.21-.52-.38-.74-.5,1.25-.94,2.46-2.07,3.64-3.4,1.18-1.33,2.14-2.69,2.88-4.09ZM112.2,38.47h23.4v2.63h-23.4v-2.63ZM113.1,26.98h22.1v2.59h-22.1v-2.59ZM117.75,19.67h2.63v20.2h-2.63v-20.2ZM126.67,44.44l2.12-1.22c.81.77,1.64,1.62,2.46,2.55.83.94,1.59,1.85,2.29,2.75.7.9,1.25,1.71,1.66,2.43l-2.27,1.44c-.38-.74-.92-1.58-1.6-2.5s-1.43-1.87-2.25-2.83-1.62-1.84-2.41-2.63ZM127.39,19.64h2.66v20.27h-2.66v-20.27Z"/>
        <path class="cls-1" d="M152.4,33.75l2.23.9c-.89,1.25-1.99,2.44-3.31,3.58-1.32,1.14-2.75,2.15-4.28,3.04-1.54.89-3.07,1.61-4.61,2.16-.14-.21-.32-.46-.52-.72-.2-.26-.41-.53-.63-.79-.22-.26-.43-.48-.65-.65,1.51-.46,3.02-1.07,4.54-1.84,1.51-.77,2.9-1.64,4.16-2.61,1.26-.97,2.29-2,3.08-3.08ZM141.28,33.28h31.68v2.27h-31.68v-2.27ZM142.93,23.31h28.84v2.27h-28.84v-2.27ZM150.17,38.25h2.63v2.41c0,.96-.09,1.96-.27,2.99-.18,1.03-.53,2.08-1.04,3.13-.52,1.06-1.3,2.07-2.34,3.04-1.04.97-2.44,1.87-4.19,2.68-.12-.19-.29-.42-.5-.68-.22-.26-.43-.52-.65-.76-.22-.24-.43-.43-.65-.58,1.58-.7,2.85-1.46,3.8-2.29s1.65-1.68,2.11-2.56c.46-.88.76-1.75.9-2.61.14-.86.22-1.68.22-2.45v-2.34ZM144.7,28.24h25.2v2.2h-25.2v-2.2ZM147.94,20.18l2.38-.76c.53.55,1.04,1.19,1.53,1.93.49.73.85,1.38,1.06,1.93l-2.52.97c-.22-.58-.55-1.25-1.01-2.02-.46-.77-.94-1.45-1.44-2.05ZM155.78,24.57h2.77v9.4h-2.77v-9.4ZM162.12,33.75c.79,1.08,1.8,2.09,3.02,3.04s2.59,1.78,4.09,2.48c1.5.71,3.03,1.28,4.59,1.71-.19.17-.41.38-.65.65-.24.26-.46.54-.65.83s-.36.55-.5.79c-1.58-.53-3.14-1.22-4.68-2.07-1.54-.85-2.95-1.84-4.23-2.97s-2.36-2.34-3.22-3.64l2.23-.83ZM161.15,38.21h2.66v14.15h-2.66v-14.15ZM163.96,19.21l2.77.79c-.46.74-.94,1.46-1.46,2.14-.52.68-.98,1.28-1.39,1.78l-2.48-.72c.43-.55.89-1.21,1.39-1.98.49-.77.88-1.44,1.17-2.02Z"/>
        <path class="cls-1" d="M190.11,35.55l2.7.43c-1.03,2.26-2.61,4.37-4.73,6.35s-4.89,3.67-8.3,5.06c-.1-.22-.23-.44-.41-.68-.18-.24-.37-.47-.58-.7-.2-.23-.4-.4-.59-.52,2.16-.82,4.04-1.76,5.63-2.83,1.6-1.07,2.91-2.21,3.94-3.44,1.03-1.22,1.81-2.45,2.34-3.67ZM178.88,38.29h32.18v2.2h-32.18v-2.2ZM179.46,21.73h31.21v2.23h-31.21v-2.23ZM180.83,49.3h28.66v2.2h-28.66v-2.2ZM183.13,26.37h24.01v9.83h-24.01v-9.83ZM185.76,28.1v2.3h18.65v-2.3h-18.65ZM185.76,32.09v2.34h18.65v-2.34h-18.65ZM185.97,43.94h17.96v2.05h-17.96v-2.05ZM187.45,19.28h2.63v6.73h-2.63v-6.73ZM193.68,41.35h2.66v9h-2.66v-9ZM201.92,38.9c.67.86,1.54,1.7,2.61,2.5,1.07.8,2.24,1.52,3.51,2.16,1.27.64,2.54,1.13,3.82,1.49-.29.24-.59.56-.92.97-.32.41-.57.77-.74,1.08-1.32-.46-2.63-1.06-3.92-1.82s-2.5-1.62-3.6-2.59c-1.1-.97-2.04-1.99-2.81-3.04l2.05-.76ZM199.91,19.28h2.66v6.73h-2.66v-6.73Z"/>
      </g>
    </g>
  </g>
</svg>