<?xml version="1.0" encoding="UTF-8"?>
<svg id="_レイヤー_2" data-name="レイヤー 2" xmlns="http://www.w3.org/2000/svg" xmlns:xlink="http://www.w3.org/1999/xlink" viewBox="0 0 240 80.3">
  <defs>
    <style>
      .cls-1 {
        fill: #0a1543;
      }

      .cls-2 {
        fill: url(#_新規グラデーションスウォッチ_2);
      }

      .cls-3 {
        fill: #00404f;
      }
    </style>
    <linearGradient id="_新規グラデーションスウォッチ_2" data-name="新規グラデーションスウォッチ 2" x1="120" y1="2" x2="120" y2="71" gradientTransform="translate(83.5 156.5) rotate(-90)" gradientUnits="userSpaceOnUse">
      <stop offset=".24" stop-color="#c6deb4"/>
      <stop offset=".41" stop-color="#c9dfb8"/>
      <stop offset=".59" stop-color="#d3e5c5"/>
      <stop offset=".78" stop-color="#e4efdb"/>
      <stop offset=".98" stop-color="#fbfdfa"/>
      <stop offset="1" stop-color="#fff"/>
    </linearGradient>
  </defs>
  <g id="en_zh2">
    <g id="UI_funeral_en">
      <rect class="cls-3" width="240" height="80.3" rx="25" ry="25"/>
      <rect class="cls-3" width="240" height="73" rx="25" ry="25"/>
      <rect class="cls-2" x="85.5" y="-81.5" width="69" height="236" rx="23" ry="23" transform="translate(156.5 -83.5) rotate(90)"/>
    </g>
    <g id="zh">
      <g>
        <path class="cls-1" d="M84.6,43.18h32.72v2.34h-32.72v-2.34ZM94.03,27.63l2.2.65c-.7,1.1-1.57,2.12-2.63,3.06-1.06.94-2.2,1.78-3.42,2.54-1.22.76-2.46,1.4-3.71,1.93-.1-.14-.24-.32-.43-.54-.19-.22-.4-.43-.61-.65-.22-.22-.41-.4-.58-.54,1.85-.7,3.62-1.59,5.31-2.68s2.98-2.35,3.87-3.76ZM85.03,21.65h32.08v2.27h-32.08v-2.27ZM93.63,40.27h2.52v3.35c0,.89-.1,1.76-.31,2.61-.2.85-.62,1.67-1.24,2.45-.62.78-1.54,1.5-2.75,2.16-1.21.66-2.84,1.23-4.88,1.71-.1-.22-.24-.45-.43-.68-.19-.24-.39-.49-.59-.74-.2-.25-.39-.45-.56-.59,1.82-.41,3.29-.88,4.39-1.4,1.1-.53,1.93-1.1,2.48-1.71.55-.61.92-1.24,1.1-1.89.18-.65.27-1.31.27-1.98v-3.28ZM98.89,30.98h.43l.47-.11,1.55.68c-.91,2.38-2.54,4.4-4.9,6.07s-5.5,2.92-9.43,3.76c-.14-.29-.35-.61-.61-.97-.26-.36-.53-.67-.79-.94,3.72-.7,6.68-1.75,8.89-3.17,2.21-1.42,3.67-3.05,4.39-4.9v-.43ZM85.89,27.16h30.46v2.2h-30.46v-2.2ZM88.95,34.07l1.66-1.08c.6.29,1.21.63,1.84,1.03s1.21.79,1.76,1.17c.55.38,1.01.76,1.37,1.12l-1.73,1.19c-.34-.34-.78-.71-1.33-1.12-.55-.41-1.14-.82-1.76-1.22s-1.22-.77-1.8-1.08ZM91.44,30.98h8.1v1.8h-8.1v-1.8ZM93.56,19.24h2.66v7.16h-2.66v-7.16ZM102.49,28.75h2.45v7.92c0,.46.13.76.38.9s.8.22,1.64.22h6.05c.43,0,.76-.07.97-.2.22-.13.37-.39.47-.77.1-.38.16-.96.18-1.73.29.17.64.33,1.06.49.42.16.81.28,1.17.38-.1,1.06-.26,1.87-.5,2.45-.24.58-.6.98-1.08,1.21-.48.23-1.15.34-2.02.34h-6.48c-1.13,0-2-.09-2.61-.29-.61-.19-1.04-.52-1.3-.99-.25-.47-.38-1.13-.38-2v-7.92ZM113.04,30.4l1.98,1.55c-.96.41-2.06.8-3.29,1.17-1.24.37-2.5.71-3.8,1.01-1.3.3-2.56.56-3.78.77-.05-.22-.14-.5-.27-.85-.13-.35-.28-.62-.45-.81,1.18-.26,2.36-.54,3.56-.85,1.2-.3,2.33-.62,3.38-.97,1.06-.35,1.94-.69,2.66-1.03ZM105.62,19.24h2.66v7.16h-2.66v-7.16ZM105.84,40.27h2.7v12.17h-2.7v-12.17Z"/>
        <path class="cls-1" d="M134.38,26.05h.54l.5-.11,1.51,1.01c-.94,2.23-2.17,4.37-3.69,6.41-1.53,2.04-3.18,3.88-4.97,5.53-1.79,1.64-3.58,3.02-5.38,4.12-.07-.24-.19-.52-.36-.85s-.34-.63-.52-.94c-.18-.3-.35-.52-.52-.67,1.29-.74,2.58-1.62,3.85-2.63,1.27-1.01,2.48-2.12,3.64-3.35,1.15-1.22,2.2-2.51,3.13-3.87.94-1.36,1.69-2.73,2.27-4.12v-.54ZM122.76,26.05h12.35v2.48h-12.35v-2.48ZM128.88,19.28h2.66v7.99h-2.66v-7.99ZM128.88,36.81l2.66-3.17v18.76h-2.66v-15.59ZM131.36,34.04c.34.24.82.62,1.44,1.15.62.53,1.3,1.1,2.03,1.73.73.62,1.4,1.2,2,1.73.6.53,1.04.92,1.33,1.19l-1.69,2.2c-.36-.41-.82-.91-1.39-1.51-.56-.6-1.18-1.22-1.84-1.87s-1.29-1.25-1.89-1.82c-.6-.56-1.1-1.03-1.51-1.39l1.51-1.4ZM140.14,19.93h2.73v27.11c0,.96.13,1.58.38,1.87.25.29.81.43,1.67.43h5.87c.57,0,1.01-.19,1.29-.58.29-.38.5-1.07.63-2.07.13-1,.23-2.41.3-4.23.36.26.79.5,1.28.72.49.22.93.37,1.31.47-.14,2.06-.35,3.7-.61,4.91-.26,1.21-.71,2.08-1.35,2.61-.64.53-1.53.79-2.68.79h-6.34c-1.15,0-2.06-.14-2.72-.41-.66-.28-1.12-.78-1.39-1.51-.26-.73-.39-1.75-.39-3.04v-27.07Z"/>
      </g>
    </g>
  </g>
</svg>