<?xml version="1.0" encoding="UTF-8"?>
<svg id="_レイヤー_2" data-name="レイヤー 2" xmlns="http://www.w3.org/2000/svg" xmlns:xlink="http://www.w3.org/1999/xlink" viewBox="0 0 240 80.3">
  <defs>
    <style>
      .cls-1 {
        fill: #0a1543;
      }

      .cls-2 {
        fill: url(#_名称未設定グラデーション_2);
      }

      .cls-3 {
        fill: #00404f;
      }
    </style>
    <linearGradient id="_名称未設定グラデーション_2" data-name="名称未設定グラデーション 2" x1="120" y1="-699.19" x2="120" y2="-768.19" gradientTransform="translate(0 -697.19) scale(1 -1)" gradientUnits="userSpaceOnUse">
      <stop offset=".24" stop-color="#a5e26f"/>
      <stop offset=".36" stop-color="#a7e273"/>
      <stop offset=".49" stop-color="#b0e580"/>
      <stop offset=".62" stop-color="#bdea96"/>
      <stop offset=".76" stop-color="#d1f0b5"/>
      <stop offset=".9" stop-color="#e9f8dd"/>
      <stop offset="1" stop-color="#fff"/>
    </linearGradient>
  </defs>
  <g id="en_zh2">
    <g id="UI__push4" data-name="UI _push4">
      <rect class="cls-3" width="240" height="80.3" rx="25" ry="25"/>
      <rect class="cls-3" width="240" height="73" rx="25" ry="25"/>
      <rect class="cls-2" x="2" y="2" width="236" height="69" rx="23" ry="23"/>
    </g>
    <g id="zh">
      <g>
        <path class="cls-1" d="M92.48,45.13c.86,1.32,2.06,2.3,3.6,2.95,1.54.65,3.35,1.01,5.44,1.08.96.05,2.14.08,3.55.09,1.4.01,2.87,0,4.41-.02,1.54-.02,3.02-.06,4.46-.11,1.44-.05,2.69-.11,3.74-.18-.1.22-.2.49-.32.81-.12.32-.23.65-.32.99-.1.34-.17.64-.22.9-.96.05-2.11.08-3.46.11-1.34.02-2.74.04-4.18.05-1.44.01-2.83.01-4.18,0-1.34-.01-2.51-.03-3.49-.05-2.33-.1-4.33-.49-5.99-1.17-1.67-.68-3.07-1.72-4.19-3.11-.89.77-1.81,1.54-2.75,2.3-.95.77-1.93,1.55-2.93,2.34l-1.33-2.7c.86-.58,1.81-1.24,2.84-1.98,1.03-.74,2.02-1.51,2.95-2.3h2.38ZM92.48,36.02v10.55h-2.63v-8.03h-5.11v-2.52h7.74ZM84.92,28.75l1.76-1.73c.77.36,1.57.79,2.39,1.28s1.61,1,2.34,1.53c.73.53,1.31,1.04,1.75,1.55l-1.84,1.91c-.43-.5-1-1.03-1.69-1.57-.7-.54-1.46-1.07-2.29-1.6-.83-.53-1.64-.98-2.43-1.37ZM86.36,21.4l1.8-1.66c.74.38,1.49.83,2.25,1.35s1.47,1.04,2.14,1.57c.67.53,1.21,1.03,1.62,1.51l-1.87,1.84c-.41-.5-.94-1.03-1.58-1.58-.65-.55-1.36-1.09-2.12-1.62-.77-.53-1.51-1-2.23-1.4ZM94.21,31.84h22.97v2.52h-22.97v-2.52ZM113.11,19.67l1.94,2.09c-1.66.55-3.56,1.04-5.72,1.46s-4.41.79-6.75,1.12c-2.34.32-4.61.58-6.82.77-.05-.31-.15-.68-.31-1.12-.16-.43-.29-.78-.41-1.04,1.61-.14,3.26-.33,4.95-.56,1.69-.23,3.34-.48,4.95-.76,1.61-.28,3.11-.58,4.52-.9s2.62-.68,3.65-1.06ZM104.07,22.56h2.66v25.02h-2.66v-25.02Z"/>
        <path class="cls-1" d="M122,43.98c1.03-.34,2.21-.75,3.53-1.24s2.72-1.03,4.2-1.6c1.47-.58,2.96-1.16,4.45-1.76l.58,2.48c-2.04.86-4.1,1.72-6.17,2.57-2.08.85-3.94,1.63-5.6,2.32l-.97-2.77ZM122.61,28.6h10.87v2.59h-10.87v-2.59ZM126.9,20.07h2.63v23.47h-2.63v-23.47ZM149.86,27.77l2.77.54c-1.03,4.13-2.41,7.72-4.12,10.78s-3.85,5.67-6.41,7.83c-2.55,2.16-5.63,3.97-9.23,5.44-.1-.22-.25-.48-.47-.79-.22-.31-.45-.62-.68-.92-.24-.3-.46-.53-.65-.7,3.5-1.27,6.49-2.9,8.96-4.9,2.47-1.99,4.51-4.42,6.1-7.27,1.6-2.86,2.84-6.19,3.72-10.01ZM132.94,26.05h22.39v2.59h-22.39v-2.59ZM138.81,27.7c.79,3.62,1.91,6.93,3.37,9.92,1.45,2.99,3.31,5.54,5.56,7.67,2.26,2.12,4.99,3.75,8.21,4.88-.21.17-.44.4-.68.68s-.47.58-.68.86c-.22.29-.41.55-.58.79-3.29-1.27-6.08-3.05-8.39-5.33-2.3-2.28-4.21-5.01-5.72-8.19-1.51-3.18-2.72-6.75-3.64-10.71l2.56-.58ZM142.88,19.46h2.77v8.24h-2.77v-8.24Z"/>
      </g>
    </g>
  </g>
</svg>