<?xml version="1.0" encoding="UTF-8"?>
<svg id="_レイヤー_2" data-name="レイヤー 2" xmlns="http://www.w3.org/2000/svg" xmlns:xlink="http://www.w3.org/1999/xlink" viewBox="0 0 240 80.3">
  <defs>
    <style>
      .cls-1 {
        fill: #0a1543;
      }

      .cls-2 {
        fill: url(#_新規グラデーションスウォッチ_2);
      }

      .cls-3 {
        fill: #00404f;
      }
    </style>
    <linearGradient id="_新規グラデーションスウォッチ_2" data-name="新規グラデーションスウォッチ 2" x1="120" y1="2" x2="120" y2="71" gradientTransform="translate(83.5 156.5) rotate(-90)" gradientUnits="userSpaceOnUse">
      <stop offset=".24" stop-color="#c6deb4"/>
      <stop offset=".41" stop-color="#c9dfb8"/>
      <stop offset=".59" stop-color="#d3e5c5"/>
      <stop offset=".78" stop-color="#e4efdb"/>
      <stop offset=".98" stop-color="#fbfdfa"/>
      <stop offset="1" stop-color="#fff"/>
    </linearGradient>
  </defs>
  <g id="en_zh2">
    <g id="UI_search_en">
      <rect class="cls-3" width="240" height="80.3" rx="25" ry="25"/>
      <rect class="cls-3" width="240" height="73" rx="25" ry="25"/>
      <rect class="cls-2" x="85.5" y="-81.5" width="69" height="236" rx="23" ry="23" transform="translate(156.5 -83.5) rotate(90)"/>
    </g>
    <g id="zh">
      <g>
        <path class="cls-1" d="M63.96,39.55h24.82v-2.53h2.88v2.53h7.24v2.53h-7.24v6.54c0,2.91-1.49,4.36-4.46,4.36-1.43,0-3.34-.02-5.73-.07-.14-.94-.32-1.96-.53-3.06,2.16.16,4,.25,5.52.25s2.32-.83,2.32-2.5v-5.52h-24.82v-2.53ZM67.06,32.69h25.07v-3.59h-23.66v-2.43h23.66v-3.55h-24.64v-2.43h27.35v15.68h-2.71v-1.27h-25.07v-2.43ZM70.54,44.61l1.79-1.83c2.55,2.06,4.56,3.74,6.01,5.03l-2.04,2.07c-2.16-2.06-4.08-3.82-5.77-5.27Z"/>
        <path class="cls-1" d="M102.74,37.75h22.99v-2.88h2.81v2.88h9.14v2.53h-9.14v8.51c0,2.84-1.49,4.25-4.46,4.25-1.69,0-3.52-.02-5.48-.07-.14-1.05-.32-2.07-.53-3.06,1.92.19,3.67.28,5.24.28s2.43-.8,2.43-2.39v-7.52h-22.99v-2.53ZM103.26,30.72h15.47v-4.92h-12.66v-2.53h12.66v-4.46h2.81v4.46h12.62v2.53h-12.62v4.92h15.61v2.53h-33.89v-2.53ZM108.54,42.75l1.9-1.97c2.04,1.66,4.32,3.61,6.86,5.84l-2.21,2.21c-1.85-1.97-4.03-4-6.54-6.08Z"/>
        <path class="cls-1" d="M142,38.77h10.44c.8-.77,1.5-1.61,2.11-2.5h-6.22v.81h-2.46v-10.97h25.03v10.97h-2.46v-.81h-11.11c-.52.87-1.11,1.7-1.79,2.5h19.27v2.04h-9.32c2.44,1.83,5.96,3.22,10.58,4.18-.63.8-1.16,1.56-1.58,2.29-5.04-1.48-9.04-3.63-11.99-6.47h-8.96c-2.84,2.58-6.6,4.82-11.29,6.71-.42-.63-.94-1.32-1.55-2.07,3.73-1.24,6.83-2.79,9.32-4.64h-8.02v-2.04ZM141.65,21.62h10.3v-2.57h2.46v2.57h7.95v-2.57h2.46v2.57h10.3v2.04h-10.3v1.79h-2.46v-1.79h-7.95v1.79h-2.46v-1.79h-10.3v-2.04ZM143.69,49.88h13.36v-3.09h-7.73v-2.04h7.73v-2.95h2.39v2.95h7.73v2.04h-7.73v3.09h14.06v2.04h-29.81v-2.04ZM168.44,28.09h-20.11v2.14h20.11v-2.14ZM148.33,34.31h20.11v-2.18h-20.11v2.18Z"/>
      </g>
    </g>
  </g>
</svg>