<?xml version="1.0" encoding="UTF-8"?>
<svg id="_レイヤー_2" data-name="レイヤー 2" xmlns="http://www.w3.org/2000/svg" xmlns:xlink="http://www.w3.org/1999/xlink" viewBox="0 0 240 80.3">
  <defs>
    <style>
      .cls-1 {
        fill: #0a1543;
      }

      .cls-2 {
        fill: url(#_名称未設定グラデーション_2);
      }

      .cls-3 {
        fill: #00404f;
      }
    </style>
    <linearGradient id="_名称未設定グラデーション_2" data-name="名称未設定グラデーション 2" x1="120" y1="-699.19" x2="120" y2="-768.19" gradientTransform="translate(0 -697.19) scale(1 -1)" gradientUnits="userSpaceOnUse">
      <stop offset=".24" stop-color="#a5e26f"/>
      <stop offset=".36" stop-color="#a7e273"/>
      <stop offset=".49" stop-color="#b0e580"/>
      <stop offset=".62" stop-color="#bdea96"/>
      <stop offset=".76" stop-color="#d1f0b5"/>
      <stop offset=".9" stop-color="#e9f8dd"/>
      <stop offset="1" stop-color="#fff"/>
    </linearGradient>
  </defs>
  <g id="en_zh2">
    <g id="UI__push5" data-name="UI _push5">
      <rect class="cls-3" width="240" height="80.3" rx="25" ry="25"/>
      <rect class="cls-3" width="240" height="73" rx="25" ry="25"/>
      <rect class="cls-2" x="2" y="2" width="236" height="69" rx="23" ry="23"/>
    </g>
    <g id="zh">
      <g>
        <path class="cls-1" d="M95.95,35.55l2.7.43c-1.03,2.26-2.61,4.37-4.73,6.35-2.12,1.98-4.89,3.67-8.3,5.06-.1-.22-.23-.44-.41-.68s-.37-.47-.58-.7c-.2-.23-.4-.4-.59-.52,2.16-.82,4.04-1.76,5.63-2.83,1.6-1.07,2.91-2.21,3.94-3.44,1.03-1.22,1.81-2.45,2.34-3.67ZM84.72,38.29h32.18v2.2h-32.18v-2.2ZM85.3,21.73h31.21v2.23h-31.21v-2.23ZM86.67,49.3h28.66v2.2h-28.66v-2.2ZM88.97,26.37h24.01v9.83h-24.01v-9.83ZM91.6,28.1v2.3h18.65v-2.3h-18.65ZM91.6,32.1v2.34h18.65v-2.34h-18.65ZM91.81,43.94h17.96v2.05h-17.96v-2.05ZM93.29,19.28h2.63v6.73h-2.63v-6.73ZM99.52,41.35h2.66v9h-2.66v-9ZM107.76,38.9c.67.86,1.54,1.7,2.61,2.5,1.07.8,2.24,1.52,3.51,2.16,1.27.64,2.54,1.13,3.82,1.49-.29.24-.59.56-.92.97-.32.41-.57.77-.74,1.08-1.32-.46-2.63-1.06-3.92-1.82-1.3-.76-2.5-1.62-3.6-2.59-1.1-.97-2.04-1.99-2.81-3.04l2.05-.76ZM105.75,19.28h2.66v6.73h-2.66v-6.73Z"/>
        <path class="cls-1" d="M127.02,22.45l2.56.36c-.34,2.5-.77,4.92-1.3,7.27-.53,2.35-1.18,4.54-1.94,6.57-.77,2.03-1.68,3.83-2.74,5.42-.1-.22-.25-.47-.45-.77-.21-.3-.41-.6-.63-.9-.21-.3-.41-.54-.58-.74.94-1.37,1.73-2.96,2.38-4.79s1.19-3.79,1.62-5.9.79-4.28,1.08-6.52ZM122.59,21.22h13.29v2.48h-13.29v-2.48ZM125.22,32.1h2.3v18.4h-2.3v-18.4ZM126.37,32.1h8.14v15.34h-8.14v-2.41h5.76v-10.55h-5.76v-2.38ZM135.3,42.72h20.2v2.48h-20.2v-2.48ZM136.96,22.95h17.21v13.79h-17.21v-13.79ZM140.05,37.78l2.59.61c-.43.96-.88,1.92-1.33,2.88-.46.96-.89,1.79-1.3,2.48l-2.09-.61c.26-.5.53-1.07.79-1.69.26-.62.52-1.26.76-1.91.24-.65.43-1.24.58-1.76ZM139.37,25.18v3.56h12.24v-3.56h-12.24ZM139.37,30.91v3.6h12.24v-3.6h-12.24ZM144.05,19.24l3.02.43c-.34.89-.68,1.76-1.03,2.63-.35.86-.68,1.61-.99,2.23l-2.34-.47c.26-.7.52-1.5.76-2.41.24-.91.43-1.71.58-2.41ZM144.19,24.07h2.34v11.63h-2.34v-11.63ZM146.35,37.39h2.59v15.01h-2.59v-15.01Z"/>
      </g>
    </g>
  </g>
</svg>