<?xml version="1.0" encoding="UTF-8"?>
<svg id="_レイヤー_2" data-name="レイヤー 2" xmlns="http://www.w3.org/2000/svg" xmlns:xlink="http://www.w3.org/1999/xlink" viewBox="0 0 570 72">
  <defs>
    <style>
      .cls-1 {
        fill: #fff;
      }

      .cls-2 {
        fill: #603;
      }

      .cls-3 {
        fill: url(#_名称未設定グラデーション_598);
      }
    </style>
    <linearGradient id="_名称未設定グラデーション_598" data-name="名称未設定グラデーション 598" x1="285" y1="1.8" x2="285" y2="70.2" gradientTransform="translate(249 321) rotate(-90)" gradientUnits="userSpaceOnUse">
      <stop offset="0" stop-color="#de1659"/>
      <stop offset="1" stop-color="#c36"/>
    </linearGradient>
  </defs>
  <g id="en_zh3">
    <g id="UI_3d_push">
      <rect class="cls-2" width="570" height="72" rx="25" ry="25"/>
      <rect class="cls-3" x="250.8" y="-247.1" width="68.4" height="566.2" rx="23" ry="23" transform="translate(321 -249) rotate(90)"/>
    </g>
    <g id="_95_zh" data-name="95_zh">
      <path class="cls-1" d="M215.78,45.16c.24-.68.75-1.06,1.4-1.06.82,0,1.3.48,1.61,1.74l.82,2.67c.75.27,1.57.45,2.53.45,3.8,0,5.98-2.36,5.98-5.98s-2.12-5.92-6.22-5.92h-1.54v-1.2h1.37c3.32,0,5.68-1.98,5.68-5.64,0-3.18-1.68-5.06-4.65-5.06-.82,0-1.61.1-2.46.38l-.79,2.63c-.31,1.16-.82,1.54-1.68,1.54-.58,0-1.09-.27-1.3-.86.58-3.39,3.62-4.75,6.87-4.75,4.38,0,6.91,2.43,6.91,6.02,0,2.91-1.91,5.4-5.71,6.26,4.41.62,6.43,3.11,6.43,6.7,0,4.21-3.32,6.94-8.1,6.94-3.9,0-6.46-1.68-7.15-4.86Z"/>
      <path class="cls-1" d="M245.94,24.61h10.22c7.69,0,12.34,4.51,12.34,12.45s-4.86,12.45-12.82,12.45h-9.75v-1.03l3.52-.31c.03-3.35.03-6.84.03-10.91v-.92c0-3.59,0-7.04-.03-10.43l-3.52-.27v-1.03ZM255.38,48.38c6.53,0,9.92-4.31,9.92-11.32,0-7.39-3.39-11.32-9.54-11.32h-3.18c-.03,3.42-.03,6.91-.03,10.6v.92c0,4.14,0,7.66.03,11.11h2.8Z"/>
      <path class="cls-1" d="M313.38,26.56c-.1.38-.41.55-.89.55h-12.04c3.01,3.45,8.65,6.33,13.4,7.73l-.07.38c-.96.1-1.64.79-1.95,1.81-4.72-2.05-9.71-5.61-12.34-9.92h-.34v7.35c0,.31-.96.75-1.81.75h-.41v-7.18c-3.39,4-8.45,7.25-14.19,9.37l-.31-.55c4.92-2.43,9.34-6.02,12.21-9.75h-11.32l-.31-1.03h13.92v-5.13l3.49.38c-.07.48-.41.82-1.27.92v3.83h9.51l1.64-2.09s1.91,1.47,3.08,2.57ZM313.86,50.33c-.07.38-.38.55-.89.55h-30.26l-.27-1.03h26.78l1.64-1.98s1.88,1.4,3.01,2.46ZM289.45,48.65h-.38v-13.4l2.39,1.13h13.1l1.23-1.33,2.63,2.05c-.21.24-.72.48-1.3.58v9.81c-.03.24-1.13.82-1.88.82h-.34v-1.74h-13.61v1.37c0,.21-.96.72-1.85.72ZM291.29,37.37v3.52h13.61v-3.52h-13.61ZM304.9,45.54v-3.63h-13.61v3.63h13.61Z"/>
      <path class="cls-1" d="M351.38,23.17c-.31.27-.96.27-1.78-.1-3.01.55-6.74,1.03-10.77,1.4-.31,1.23-.68,2.43-1.13,3.59h9.47l1.64-2.02s1.85,1.4,3.01,2.46c-.1.38-.41.55-.89.55h-13.64c-.48,1.13-1.03,2.26-1.64,3.32h14.05l1.61-2.05s1.85,1.44,3.01,2.46c-.07.38-.41.55-.89.55h-18.33c-.58.92-1.23,1.85-1.91,2.7l.72.31h13.2l1.23-1.33,2.6,2.02c-.21.24-.72.51-1.27.65v13.71c-.03.21-1.16.75-1.91.75h-.34v-2.22h-13.95v1.47c0,.17-.72.75-1.78.75h-.38v-13.95c-2.19,2.29-4.82,4.27-7.93,5.95l-.44-.48c4.17-2.7,7.39-6.26,9.75-10.33h-9.13l-.31-.96h9.99c.58-1.06,1.09-2.19,1.57-3.32h-8.65l-.27-.99h9.3c.41-1.09.75-2.22,1.06-3.35-3.69.27-7.56.44-11.25.44l-.1-.72c8.45-.41,18.74-1.98,24.14-3.56l2.36,2.29ZM347.42,40.44v-3.11h-13.95v3.11h13.95ZM333.46,44.65h13.95v-3.21h-13.95v3.21ZM333.46,48.89h13.95v-3.21h-13.95v3.21Z"/>
    </g>
  </g>
</svg>