<?xml version="1.0" encoding="UTF-8"?>
<svg id="_レイヤー_2" data-name="レイヤー 2" xmlns="http://www.w3.org/2000/svg" xmlns:xlink="http://www.w3.org/1999/xlink" viewBox="0 0 570 72">
  <defs>
    <style>
      .cls-1 {
        fill: #fff;
      }

      .cls-2 {
        fill: #603;
      }

      .cls-3 {
        fill: url(#_名称未設定グラデーション_598);
      }
    </style>
    <linearGradient id="_名称未設定グラデーション_598" data-name="名称未設定グラデーション 598" x1="285" y1="1.8" x2="285" y2="70.2" gradientTransform="translate(249 321) rotate(-90)" gradientUnits="userSpaceOnUse">
      <stop offset="0" stop-color="#de1659"/>
      <stop offset="1" stop-color="#c36"/>
    </linearGradient>
  </defs>
  <g id="en1">
    <g id="UI_inquiry_push_zh">
      <rect class="cls-2" x="0" width="570" height="72" rx="25" ry="25"/>
      <rect class="cls-3" x="250.8" y="-247.1" width="68.4" height="566.2" rx="23" ry="23" transform="translate(321 -249) rotate(90)"/>
      <g>
        <path class="cls-1" d="M195.57,25.52l2.46,1.16h8.58v-5.71l3.52.34c-.1.48-.38.85-1.27.99v4.38h8.65l1.26-1.44,2.8,2.19c-.24.27-.79.55-1.47.68v15.25c-.03.24-1.16.75-1.91.75h-.34v-2.5h-8.99v9.75c0,.34-.96.92-1.81.92h-.44v-10.67h-8.82v2.15c0,.24-.92.79-1.85.79h-.38v-19.05ZM197.79,27.67v5.95h8.82v-5.95h-8.82ZM206.61,34.61h-8.82v6.05h8.82v-6.05ZM208.87,33.62h8.99v-5.95h-8.99v5.95ZM217.86,40.66v-6.05h-8.99v6.05h8.99Z"/>
        <path class="cls-1" d="M238.59,45.86l4.27-2.87.31.41c-1.09,1.13-3.21,3.42-5.54,5.74-.21.62-.62,1.03-.92,1.2l-1.5-2.77c1.06-.55,1.23-.79,1.23-1.4v-15.01h-4.51l-.31-1.03h4.86l1.13-1.2,2.22,1.88c-.14.24-.58.48-1.23.62v14.43ZM237.8,26.95c-.48-1.81-2.12-4.21-3.45-5.64l.41-.27c7.04,2.87,5.3,7.52,3.04,5.92ZM262.42,25.45c-.1.38-.41.55-.85.55h-8.86v2.91h4.27l1.5-1.78s1.68,1.26,2.74,2.26c-.07.38-.38.55-.85.55h-7.66v3.15h5.85l1.64-1.98s1.81,1.4,2.98,2.46c-.1.38-.44.55-.92.55h-20.59l-.27-1.03h9.1v-3.15h-6.53l-.27-1.03h6.8v-2.91h-8.04l-.27-1.03h8.31v-4.07l3.35.34c-.07.48-.38.75-1.13.89v2.84h5.2l1.57-1.98s1.85,1.4,2.94,2.46ZM244.71,52.19h-.38v-16.93l2.39,1.09h10.4l1.16-1.37,2.87,2.12c-.24.27-.79.55-1.47.68v11.25c0,1.78-.38,2.87-3.35,3.18-.1-.72-.24-1.3-.68-1.68-.44-.34-1.2-.65-2.53-.82v-.55s3.01.24,3.62.24c.58,0,.72-.21.72-.68v-3.35h-10.94v6.05c0,.21-.89.75-1.81.75ZM246.52,37.38v3.01h10.94v-3.01h-10.94ZM257.47,44.39v-2.98h-10.94v2.98h10.94Z"/>
        <path class="cls-1" d="M288.46,23.19h1.5l-9.92,32.35h-1.57l9.99-32.35Z"/>
        <path class="cls-1" d="M319.1,30.95l.21.48c-2.29,1.27-5.51,3.08-9.78,5.23-.1.44-.34.72-.65.85l-1.64-2.63c2.05-.51,6.94-2.19,11.87-3.93ZM314.27,25l1.61-2.05s1.78,1.44,2.87,2.5c-.1.38-.41.55-.89.55h-9.61l-.27-.99h6.29ZM312.63,38.78l2.43,1.09h15.46l1.2-1.3,2.67,2.05c-.17.24-.68.51-1.3.62v9.88c-.03.24-1.16.79-1.92.79h-.34v-2.26h-15.94v1.78c0,.21-.96.75-1.88.75h-.38v-13.4ZM314.89,40.9v7.73h15.94v-7.73h-15.94ZM326.07,22.1c-.14.38-.55.68-1.26.62-.44.89-.96,1.74-1.57,2.6h11.11l1.4-1.44,2.5,2.46c-.24.24-.62.27-1.33.34-.96,1.4-2.87,3.45-4.31,4.62l-.44-.24c.65-1.2,1.57-3.25,2.19-4.75h-6.22c.99,4.58,3.52,8.65,10.46,11.22l-.03.38c-1.13.17-1.81.58-2.02,1.78-5.74-2.67-7.9-7.18-8.79-11.83-.68,4.48-2.74,8.38-11.59,11.18l-.38-.58c8.38-3.35,9.47-7.52,9.71-12.14h-3.01c-1.4,1.78-3.11,3.32-4.99,4.41l-.44-.38c2.29-2.15,4.41-5.85,5.57-9.4l3.45,1.16Z"/>
        <path class="cls-1" d="M354.06,46.17c1.3-.92,2.87-2.05,4.38-3.21l.31.41c-1.09,1.3-3.25,3.76-5.64,6.29-.21.62-.62.99-.92,1.16l-1.5-2.77c1.06-.55,1.23-.79,1.23-1.4v-15.49h-4.72l-.31-.99h5.06l1.13-1.2,2.22,1.88c-.14.24-.58.48-1.23.62v14.7ZM353.61,27.67c-.48-2.02-2.29-4.75-3.73-6.39l.41-.24c7.35,3.35,5.61,8.34,3.32,6.63ZM364.01,22.92c-.51,1.37-1.13,2.74-1.78,4h11.8l1.37-1.5,2.63,2.26c-.24.27-.68.48-1.44.55-.21,12.14-.72,20.28-2.33,22.26-.96,1.13-2.33,1.68-4.04,1.68,0-.72-.14-1.37-.65-1.71-.62-.41-2.22-.82-3.69-1.06l.03-.62c1.68.17,4.38.41,5.2.41.72,0,.96-.07,1.37-.44,1.23-1.3,1.71-9.57,1.91-20.83h-12.69c-1.57,2.87-3.45,5.4-5.47,7.28l-.48-.38c2.33-3.25,4.65-8.48,5.98-13.71l3.56,1.16c-.14.38-.55.68-1.3.65ZM360.08,46.24h-.34v-15.11l2.26,1.03h5.98l1.23-1.33,2.67,2.09c-.24.27-.79.55-1.47.68v11.01c-.03.17-1.09.72-1.78.72h-.31v-1.64h-6.5v1.85c0,.21-.85.72-1.74.72ZM368.32,33.18h-6.5v4.1h6.5v-4.1ZM361.82,38.27v4.38h6.5v-4.38h-6.5Z"/>
      </g>
    </g>
  </g>
</svg>