<svg id="レイヤー_1" data-name="レイヤー 1" xmlns="http://www.w3.org/2000/svg" viewBox="0 0 74.73 14.73"><defs><style>.cls-1{fill:#fff;}</style></defs><path class="cls-1" d="M7.88,10H3.65L3,12.38a2.13,2.13,0,0,0-.1.49.8.8,0,0,0,.86.89h1v.63H0v-.63H.89a1.35,1.35,0,0,0,1.32-1.07L5.88.3,7.69,0l4.24,12.4a2,2,0,0,0,1.68,1.36h.53v.63h-7v-.63h.94a.72.72,0,0,0,.74-.7,3.14,3.14,0,0,0-.15-.68Zm-4-.62H7.68l-2-6.07Z"/><path class="cls-1" d="M26.75,3.5l-.58.26c-.27-.53-1.7-3-4.05-3-2,0-3.42,1.75-3.42,5.67,0,4.55,1.74,6.5,4.1,6.5,1.25,0,2.52-.51,3.84-2.74l.44.28c-.78,1.57-2.2,4.26-5.62,4.26-2.44,0-5.9-1.59-5.9-6.77,0-4,2.44-8,6.07-8a6.9,6.9,0,0,1,1.42.13,3.46,3.46,0,0,0,1,.19A2.88,2.88,0,0,0,25.43,0Z"/><path class="cls-1" d="M39.71,3.5l-.59.26c-.26-.53-1.7-3-4-3-2,0-3.43,1.75-3.43,5.67,0,4.55,1.74,6.5,4.11,6.5,1.24,0,2.51-.51,3.83-2.74l.44.28c-.78,1.57-2.19,4.26-5.62,4.26-2.43,0-5.89-1.59-5.89-6.77,0-4,2.43-8,6.06-8A6.82,6.82,0,0,1,36,.13a3.52,3.52,0,0,0,1,.19A2.84,2.84,0,0,0,38.38,0Z"/><path class="cls-1" d="M41.17,13.76h.47a1.23,1.23,0,0,0,1.28-1.15V2.1A1.13,1.13,0,0,0,41.7.94h-.51V.32h10.2l1.33,3.12-.53.28a5.92,5.92,0,0,0-5-2.78A1.12,1.12,0,0,0,46,2.12V6.71h1.11A1.8,1.8,0,0,0,48.8,5v-.6h.61V9.79H48.8V8.94a1.68,1.68,0,0,0-1.72-1.61H46v5.22a1.05,1.05,0,0,0,1.17,1.21,5.84,5.84,0,0,0,5.28-3L53,11l-1.19,3.41H41.17Z"/><path class="cls-1" d="M54.14,11l.77-.28c.53,1,1.8,3.36,4.58,3.36a2.41,2.41,0,0,0,2.59-2.42c0-1.57-1.74-2.32-3.48-3.06-2.46-1-4.29-1.95-4.29-4.67a4,4,0,0,1,4-3.95,7.49,7.49,0,0,1,1.44.15,4.31,4.31,0,0,0,1.1.21A2,2,0,0,0,62,0l1,3.52-.66.2C62.08,3,61.23.62,58.75.62,57,.62,56.14,1.7,56.14,2.7c0,1.42,1.08,1.89,3.24,2.8,2.72,1.15,4.49,2.19,4.49,4.77a4.16,4.16,0,0,1-4.19,4.46,8,8,0,0,1-1.46-.19A4.52,4.52,0,0,0,57,14.35a4.76,4.76,0,0,0-1.57.38Z"/><path class="cls-1" d="M65,11l.78-.28c.53,1,1.79,3.36,4.57,3.36a2.41,2.41,0,0,0,2.59-2.42c0-1.57-1.74-2.32-3.48-3.06C67,7.58,65.16,6.67,65.16,4a4,4,0,0,1,4-3.95,7.67,7.67,0,0,1,1.44.15,4.17,4.17,0,0,0,1.09.21A1.93,1.93,0,0,0,72.89,0l1,3.52-.66.2C72.93,3,72.08.62,69.6.62,67.81.62,67,1.7,67,2.7c0,1.42,1.07,1.89,3.23,2.8,2.72,1.15,4.5,2.19,4.5,4.77a4.16,4.16,0,0,1-4.2,4.46,7.94,7.94,0,0,1-1.45-.19,3.64,3.64,0,0,0-2.78.19Z"/></svg>