<svg id="レイヤー_1" data-name="レイヤー 1" xmlns="http://www.w3.org/2000/svg" viewBox="0 0 306.99 101.32"><defs><style>.cls-1{fill:#fff;}</style></defs><path class="cls-1" d="M3.56,10.42A17.17,17.17,0,0,0,0,8.31L1.55,6.15A15.71,15.71,0,0,1,5.06,8.24Zm.66,8.84a10.05,10.05,0,0,0-.75,1.82c-.05.46-.08.53-.25.53a1.24,1.24,0,0,1-.65-.31L.65,19.75a38.72,38.72,0,0,0,3.78-7.56l2,1.69C5.65,16,4.8,18,4.22,19.26ZM5.09,4.53a15,15,0,0,0-3.27-2.4L3.71.05A13.3,13.3,0,0,1,6.93,2.62Zm15.34,7.73v5H17.69v-.9H14.9v2.94c0,2-2.32,2.35-4.12,2.32l-1-2.88c.29,0,.68.07,1.19.07.66,0,1.14-.05,1.14-.8V16.4H7.42V14h4.72V12.26H5.89V9.84h6.25V8.14H8.31v-1a7.15,7.15,0,0,1-.68.68L5.31,6.37A17.08,17.08,0,0,0,10,.05l2.26.48c.33.08.77.2.77.49a.29.29,0,0,1-.1.17,2.16,2.16,0,0,1-.34.17c-.07,0-.33.48-.38.53h6.15l.78.73c-.63.82-1.21,1.55-2.5,3h3.76V9.84h1.43v2.42ZM10.78,4c-.48.68-.77,1-1.23,1.63h3.8A9.24,9.24,0,0,0,14.76,4Zm6.91,4.12H14.9v1.7h2.79Zm0,4.12H14.9V14h2.79Z"/><path class="cls-1" d="M24.61,20.38V17.76h8.85v-8H26.31V7h7.15V.51l2.83.31c.37.05.61.15.61.39s0,.17-.27.32-.31.19-.31.29V7h7.39V9.72H36.32v8h8.91v2.62Z"/><path class="cls-1" d="M56.52,15.43c-.56.2-.56.2-.75.42a20.29,20.29,0,0,1-4.41,4.92L48.79,19a17.25,17.25,0,0,0,5.06-5.5l2.18,1c.41.19.75.36.75.61S56.64,15.36,56.52,15.43ZM60.78,13v6.69c0,1.5-1.53,1.84-4.22,1.87l-1.28-3.08a12.45,12.45,0,0,0,1.67.14c.88,0,1.07-.36,1.07-.84V13h-9V10.3H69.8V13Zm6-5.33V5.14H52V7.75H49.39V2.69H57.8V.27l2.69,0c.87,0,1,.17,1,.39a.5.5,0,0,1-.14.32c-.34.36-.39.39-.39.51V2.69h8.43V7.63ZM53.37,8.82V6.3H65.7V8.82ZM67.52,20.64a38.71,38.71,0,0,0-5.38-5.28l2.35-1.82A37.79,37.79,0,0,1,70,18.78Z"/><path class="cls-1" d="M87,3.54V6.47h5.91V21H90.18v-.92H77v1H74.31V6.47H80V3.54H73.25V1.07H94V3.54Zm3.22,9.35A2.32,2.32,0,0,1,88,14.83H85.92c-1.31,0-1.63-1.16-1.63-2V8.92H82.62a9.84,9.84,0,0,1-.89,4.43,7.28,7.28,0,0,1-2.18,2.74l-2.5-1.65a5.82,5.82,0,0,0,2.16-2.08A6.89,6.89,0,0,0,80,8.92H77v8.67H90.18ZM84.29,3.54H82.62V6.47h1.67Zm5.89,5.38H87v2.95c0,.34.12.49.53.49.56,0,.66-.27.88-1.6l1.81.92Z"/><path class="cls-1" d="M117.55,5.48s-.26.17-.26.29v14.8h-3V19.21H101v1.6h-3V4.58l3.08.14c.31,0,.48.15.48.37s-.19.26-.31.34-.3.19-.3.31V16.45h5.21V.44l3.15.24c.25,0,.51.07.51.36s-.24.27-.34.34-.34.17-.34.29V16.45h5.09V4.6l3.2.22c.24,0,.39.07.39.27S117.68,5.4,117.55,5.48Z"/><path class="cls-1" d="M137.44,17.2v4.05h-2.55V17.2h-6.17V14.93h6.17V13.54h-4.36v-1l-1.4,1.67c-.51-.36-1-.67-2.16-1.64v8.79h-2.52V13.64A13.34,13.34,0,0,1,123,15.05l-2.16-1.72a20.12,20.12,0,0,0,5.75-6.59h-4.9V4.36h2.89v-4l2,.1c.92,0,1.21.17,1.21.38s-.07.22-.29.39-.27.27-.27.41V4.36h1.92l1,.87a24.84,24.84,0,0,1-2.35,4.34,15.41,15.41,0,0,0,2.76,2.21v-7H131a17.89,17.89,0,0,0-2-3.34L131.36.19a39.61,39.61,0,0,1,2.18,3.73l-1.89.85h6.18A23.2,23.2,0,0,0,139.69.1L142,.92c.27.1.61.24.61.46a.31.31,0,0,1-.27.29c-.56.15-.61.15-.73.51a16.11,16.11,0,0,1-1.06,2.59h1.35v8.77h-4.43v1.39h5.26V17.2ZM134.89,6.78H133V8h1.93Zm0,3.28H133v1.5h1.93Zm0-5.31a27.62,27.62,0,0,0-1.6-3.66L135.6,0a18.69,18.69,0,0,1,1.64,3.8Zm4.58,2h-2.06V8h2.06Zm0,3.28h-2.06v1.5h2.06Z"/><path class="cls-1" d="M155.18,13.21a6.76,6.76,0,0,1-1.63-1.65v9.62h-2.61V13.84a16,16,0,0,1-2.6,3.53l-2.61-1.47a13.59,13.59,0,0,0,3.12-4,16.81,16.81,0,0,0,1.75-5.14h-3.83V4.12h4.17V.19l2.49.17c.39,0,.65.08.65.32,0,.07,0,.12-.12.19-.34.27-.41.32-.41.41V4.12h3.18V6.81h-3.18a13,13,0,0,0,3.37,4.46Zm11.19,4.36a25.07,25.07,0,0,1-3.54-4.32v8h-2.66V13.28a19.63,19.63,0,0,1-3.88,4.94l-2.4-1.6A19.75,19.75,0,0,0,157.82,12a15.87,15.87,0,0,0,2-5.23h-2.42V4.12h2.79V.24l2.52.17c.41,0,.65.07.65.32s-.12.19-.24.26-.27.22-.27.32V4.12h4.68V6.81H163.1a18.26,18.26,0,0,0,5.45,8.77Z"/><path class="cls-1" d="M187.81,9.3v1.82h2.91v2.69h-2.91v5.33c0,1.94-2.49,2.3-4,2.3h-1.09l-1.07-3c.58,0,1.94.1,2.18.1a.8.8,0,0,0,.92-.92V13.81H172.31V11.12h12.45V9.3H171.17V6.74H180V5h-6.47V2.5H180V.19l2.91.29c.24,0,.58.05.58.3,0,.09-.1.19-.22.31s-.29.27-.29.44v1h6.49V5H183V6.74h8.92V9.3Zm-10.1,10.79a18.21,18.21,0,0,0-3.73-4l2.18-1.92a20.55,20.55,0,0,1,3.8,4Z"/><path class="cls-1" d="M199.53,10.52a20.09,20.09,0,0,0-4.26-2l1.28-2.3a17.36,17.36,0,0,1,4.12,2.09Zm-.67,8.6a7.22,7.22,0,0,0-.42.94c0,.08.15.44.15.51s-.07.32-.27.32a2.41,2.41,0,0,1-1-.32l-2-1.21a30.66,30.66,0,0,0,3.83-7.46l2.2,1.55Q200.2,16.31,198.86,19.12Zm2.39-13.79a17,17,0,0,0-3.94-2.18L198.71.8a13.18,13.18,0,0,1,3.9,2.25Zm13.33,15.73c-4.46-4-4.87-9.16-5-12.85-.07,0-.5.08-.6.1V21.1h-2.69V8.63c-.39,0-.51,0-.82,0-.13,4.36-.25,8.51-3.11,12.38l-2.66-1.23c2-2.72,3.32-5.8,3.32-11.44a30.27,30.27,0,0,0-.63-6.81l2.3.66a29.8,29.8,0,0,0,9.43-1.6l1.45,2.22a1.62,1.62,0,0,1,.24.51.18.18,0,0,1-.19.17c-.1,0-.53-.12-.66-.12s-1.43.27-1.72.32a72,72,0,0,1-7.87.84c.07.83.07,1.14.1,1.63a20.38,20.38,0,0,0,9-2l1.31,1.77a2.06,2.06,0,0,1,.41.75.18.18,0,0,1-.17.19c-.07,0-.43-.12-.5-.12s-1,.27-1.12.32c-1.28.38-2,.55-2.47.65a17.11,17.11,0,0,0,.24,3.78,19.92,19.92,0,0,0,2.42-3.08l1.85,1.24c.36.24.43.36.43.53s-.14.27-.41.34a.71.71,0,0,0-.53.29A32,32,0,0,1,212.93,14a11,11,0,0,0,4.29,5.26Z"/><path class="cls-1" d="M28.31,57.64a2.19,2.19,0,0,1-1.36.64v22.1c0,2-.45,3.25-4.15,3.61A2.73,2.73,0,0,0,22,82.05a7.53,7.53,0,0,0-3.25-1v-.48s4,.29,4.73.29.87-.26.87-.77v-7.6H11.94A15.16,15.16,0,0,1,3.66,84l-.35-.36C8.79,79.19,9.72,73.45,9.72,67V55.67l3.09,1.26H24l1.29-1.61Zm-4,13.85V65.05h-12v1.87a36.85,36.85,0,0,1-.26,4.57Zm-12-13.66v6.25h12V57.83Z"/><path class="cls-1" d="M63,66.37l2.74,2a2.23,2.23,0,0,1-1.29.62V80.86c0,1.87-.29,2.84-2.55,3.1a3.91,3.91,0,0,0-.32-1.71,1.89,1.89,0,0,0-1.29-.74V81s1.19.1,1.55.1.38-.16.38-.52V75.29H59.9v7.6a1.78,1.78,0,0,1-1.48.58h-.26V75.29H55.84V83c0,.16-.58.61-1.51.61h-.26V75.29H51.75v7.92c0,.23-.87.75-1.8.75h-.36V77a.94.94,0,0,1-.7.26H43.47v6a2.37,2.37,0,0,1-2,.74h-.39v-6.7H35.94l-.26-.9h5.41v-3.8h-2v1c0,.22-.93.7-1.83.7H36.9V61.5l2.36,1.07h1.83v-2.9H36l-.25-.94h5.31V54.26l3.45.35c0,.42-.32.71-1.07.84v3.28h1.71l1.48-1.93a31.56,31.56,0,0,1,2.81,2.35c-.1.36-.36.52-.81.52H43.47v2.9h1.87l1.19-1.32,2.61,2a2.47,2.47,0,0,1-1.22.58v9.25a3.11,3.11,0,0,1-1.93.8h-.32V72.52h-2.2v3.8h1.91l1.54-2s1.61,1.28,2.67,2.22v-10l2.32,1h10ZM39.09,63.5V67h2.13V63.5Zm0,8.09h2.13V68H39.09Zm4.26-8.09V67h2.32V63.5Zm2.32,8.09V68H43.35v3.61Zm13.65-16.4c-.06.35-.35.48-1.06.55,1.64,2.83,5,5.34,8.12,6.79l-.07.42a2.46,2.46,0,0,0-1.8,2,19,19,0,0,1-6.7-8.86,24.84,24.84,0,0,1-9.34,9.28L48.18,65c3.06-2.48,6.6-7.25,7.47-10.53ZM54.07,74.36V68.62H51.75v5.74Zm-2-9.47L51.85,64H58l1.39-1.83S61,63.44,62,64.37c-.07.35-.36.52-.81.52Zm6,9.47V68.62H55.84v5.74Zm4.09,0V68.62H59.9v5.74Z"/><path class="cls-1" d="M97.27,62.31c-.1.45-.36.8-1.2.9V82.47c0,.32-1.16.91-2.15.91H93.4V79.9H73.72V83c0,.29-1.13.87-2.16.87h-.48V62l3.83.42c-.1.45-.32.77-1.19.9V79h8.41V55.06l3.83.39c-.06.45-.32.77-1.13.9V79H93.4V61.92Z"/><path class="cls-1" d="M165.56,44.77a5.74,5.74,0,0,1-3,1.47V93.29c0,4.19-1.05,6.77-9.29,7.54-.28-1.74-.7-3-2-3.84-1.4-.91-3.49-1.6-7.54-2.09V93.78s9.35.7,11.17.7c1.53,0,2-.56,2-1.75V70.32h-43V99c0,.76-2.16,2.16-4.61,2.16h-1V40.45l6.08,2.79H156.2l2.8-3.42ZM113.9,68.3h18.43V45.19H113.9Zm43,0V45.19H138V68.3Z"/><path class="cls-1" d="M235.71,93.29c1.68.63,2.1,1.33,2.1,2.51,0,2.52-2.38,3.49-13.82,3.49h-7.47c-6.15,0-7.47-1.18-7.47-5.51V66h-9c-1.47,18.22-7.33,29.18-27.29,35.32l-.35-1c16-7.75,20.45-18.15,21.22-34.34H173.44l-.55-2H202V37l8.3.76c-.14,1-.84,1.68-2.51,2V64h18.57l3.84-4.88s4.47,3.35,7.05,5.72A1.68,1.68,0,0,1,235.43,66H214.77V92.38c0,1.26.35,1.68,2.86,1.68h6.63a58.53,58.53,0,0,0,6.15-.21,1.45,1.45,0,0,0,1.53-1c.63-1.39,1.61-6.28,2.66-11.38h.9ZM180.15,41.21c18.84,9.36,13.75,23,7.67,17.87-.69-5.65-4.95-12.77-8.51-17.38Zm52.7,3.35c-.35.77-1.33,1.26-2.86,1A85.77,85.77,0,0,1,215.4,60.69l-.91-.7a132.75,132.75,0,0,0,10.19-19.2Z"/><path class="cls-1" d="M299.66,54.55s4.6,3.42,7.33,5.86c-.21.77-.91,1.12-1.89,1.12H243.6l-.56-2.1H271.8V49.1H250.58L250,47H271.8V37l8,.69c-.07.91-.63,1.54-2.16,1.82V47h13l3.84-4.75s4.47,3.28,7.05,5.73c-.21.76-.91,1.11-1.88,1.11h-22V59.43h18.15Zm-1.19,11.94s4.47,3.55,7.19,5.93c-.21.77-.91,1.12-1.89,1.12H289.6V93.71c0,4.33-1,6.91-9.28,7.61a5.56,5.56,0,0,0-2-3.91c-1.25-.91-3.42-1.61-7.4-2.16v-1s9.29.63,11,.63c1.47,0,1.89-.42,1.89-1.54V73.54H245.2l-.62-2h39.3V62.44l8.17.83c-.21,1-.84,1.54-2.45,1.82v6.42h4.89ZM256.72,75.7c18.43,5,13.76,17.94,7.61,13.61-1-4.47-4.95-9.84-8.31-13Z"/></svg>