<?xml version="1.0" encoding="utf-8"?>
<!-- Generator: Adobe Illustrator 25.2.0, SVG Export Plug-In . SVG Version: 6.00 Build 0)  -->
<svg version="1.1" id="レイヤー_1" xmlns="http://www.w3.org/2000/svg" xmlns:xlink="http://www.w3.org/1999/xlink" x="0px"
	 y="0px" viewBox="0 0 783.7 60" style="enable-background:new 0 0 783.7 60;" xml:space="preserve">
<style type="text/css">
	.st0{fill:#006837;}
	.st1{opacity:0.5;}
</style>
<g>
	<g>
		<path class="st0" d="M283.7,12.3c0,1.5-0.1,4.3-0.1,7.7c0,5.3,0.3,13.8,0.3,19.1c0,2.4,0,5.4-5.5,5.9c-0.1-1.4-0.4-2.4-4-4.6
			l0-0.3c2.2,0.4,4.2,0.4,4.6,0.4c1.3,0,1.5-0.4,1.5-2.1V27.6h-25.1c0.1,8.9,0.1,9.9,0.2,13.4c0,0.1,0,1.1,0,1.5c0,1,0,2.6-2.4,2.6
			c-1.3,0-1.3-0.8-1.3-1.4c0-0.8,0.2-4.2,0.2-4.9c0.2-7.7,0.3-15.3,0.3-22.9c0-4.4-0.1-6.7-0.4-8.6l4.6,2.7h23.2l1.5-1.5
			c0.3-0.3,0.5-0.4,0.7-0.4c0.2,0,0.4,0.1,0.8,0.4l2,1.8c0.3,0.3,0.5,0.6,0.5,0.8C285.3,11.3,284.6,11.9,283.7,12.3z M266.5,10.9
			h-11v15.7h11V10.9z M280.6,10.9h-11v15.7h11V10.9z"/>
		<path class="st0" d="M327,44.2c-8.6,0-8.6-0.1-8.6-6.3c0-2.4,0.1-12.7,0.1-14.8h-7.8l3.2,1.6c0.2,0.1,0.6,0.3,0.6,0.6
			c0,0.4-0.3,0.6-1.3,1.2c-0.9,8.4-2.7,16.4-16,18.7l-0.1-0.4c9.9-4,12.7-9.6,12.7-18.9c0-1.9-0.1-2.4-0.2-2.8H303
			c-1.1,0-3.1,0-5.1,0.4l-0.9-1.7c3,0.3,6,0.3,6.6,0.3h11.2c0-8,0-9.2-0.2-11.9c-0.1-2.2-0.4-3-0.8-3.9l4.8,1
			c0.5,0.1,0.8,0.2,0.8,0.6c0,0.4-0.9,1-1.5,1.4v12.8h11.7l2-2.4c0.3-0.3,0.5-0.6,0.7-0.6c0.2,0,0.5,0.2,0.7,0.5l2.6,2.4
			c0.3,0.3,0.4,0.4,0.4,0.7c0,0.4-0.3,0.4-0.6,0.4h-13.9c0,2.4-0.2,12.9-0.2,14.3c0,3,0,3.3,0.9,3.7c0.6,0.2,3.9,0.2,4.7,0.2
			c3.1,0,4.4,0,5.2-2.2c0.6-1.8,1.4-5.3,1.8-7.3h0.3c0.7,6.8,0.8,7.5,1.6,8.2c0.5,0.4,0.7,0.6,0.7,1.2
			C336.4,44.2,331.1,44.2,327,44.2z M308.5,19.2c-1.4,0-1.7-0.9-2.6-3.2c-1.2-3.3-2.7-4.9-3.5-5.7l0.2-0.2c3.9,1.6,7.6,4.5,7.6,7
			C310.3,18.2,309.7,19.2,308.5,19.2z M328.5,12.9c-1.9,2.3-5.7,5.8-8.3,7.5l-0.3-0.2c1.5-2.1,4.9-7.6,5.7-11.3l3.9,2.3
			c0.4,0.3,0.7,0.4,0.7,0.8C330.2,12.4,329.8,12.8,328.5,12.9z"/>
		<path class="st0" d="M383.5,22h-32.1c-0.8,0-3,0-5.1,0.4l-0.9-1.7c2.7,0.2,5.3,0.3,6.6,0.3h11v-6.7h-7.8c-0.8,0-3,0-5.1,0.4
			l-0.9-1.7c2.7,0.2,5.3,0.3,6.6,0.3h7.1c-0.1-3.9-0.2-5.4-0.9-7.5l4.8,1.5c0.6,0.2,0.8,0.3,0.8,0.7c0,0.5-0.4,0.9-1.5,1.5
			c0,0.3,0,2.6,0,3.9h7.7l1.6-2.3c0.3-0.4,0.4-0.6,0.6-0.6s0.4,0.2,0.8,0.4l2.7,2.3c0.2,0.2,0.4,0.4,0.4,0.6c0,0.4-0.3,0.5-0.6,0.5
			h-13.2c0,0.2,0,4.1,0,6.7h11.8l1.6-2.1c0.3-0.4,0.5-0.6,0.6-0.6c0.2,0,0.4,0.1,0.8,0.4l2.8,2.2c0.3,0.2,0.4,0.4,0.4,0.7
			C384.1,22,383.8,22,383.5,22z M382.7,30.1h-10.3c0.1,11.8,0.1,11.8-0.3,12.7c-0.1,0.3-1.1,2.5-4.9,3.2c-0.4-1.5-0.8-3-5.4-4.9
			v-0.3c1.2,0.1,4,0.3,6.2,0.3c1.2,0,1.5-0.5,1.5-1.5v-9.5h-17.2c-1,0-3.1,0-5,0.4l-0.9-1.7c3,0.3,6,0.3,6.6,0.3h16.4
			c0-3.7,0-3.9-0.6-6.3l4,1.2c0.3,0.1,0.8,0.3,0.8,0.7c0,0.6-0.5,0.9-1.2,1.3v3.2h4.8l1.5-2.2c0.3-0.4,0.4-0.6,0.6-0.6
			c0.3,0,0.4,0.1,0.8,0.4L383,29c0.2,0.2,0.4,0.4,0.4,0.6C383.4,30.1,383,30.1,382.7,30.1z M359,39.9c-1.3,0-1.7-0.8-2.1-1.8
			c-0.6-1.8-1.7-4.8-3.7-6.4l0.1-0.3c3.9,1.1,7.5,3.7,7.5,6.3C360.9,38.4,360.6,39.9,359,39.9z"/>
		<path class="st0" d="M412.7,41.3l0-0.3c9.2-3.3,13.4-9.3,13.4-15.8c0-7.2-5.8-11.5-13.3-11.5c-1.1,0-1.3,0-1.8,0.3
			c2.3,1.2,3,2.8,3,3.4c0,0.5-0.1,0.8-1.5,3.6c-2.7,5.9-6.8,14.5-9.7,16.9c-0.3,0.2-0.8,0.5-1.4,0.5c-1,0-1.4-0.6-2.7-2.4
			c-0.3-0.4-2-2-2.3-2.4c-0.5-0.7-1.2-2.2-1.2-4.4c0-9.2,7.8-16.8,18.2-16.8c8.3,0,15.8,4.8,15.8,13.4
			C429.5,34,422.5,40.4,412.7,41.3z M409.3,14.1c-4.7,0.8-11.3,6.8-11.3,14.7c0,2.9,1.7,6.1,3.3,6.1c1.2,0,2.8-3,3.6-4.5
			c4.3-8.6,5.7-11.4,5.7-13.6C410.7,15.8,410.2,14.9,409.3,14.1z"/>
		<path class="st0" d="M445.2,31.8c-0.3,0.9-0.8,2.4-1.9,5c-0.8,1.7-1.7,3.7-2.8,4.8l-0.3,0c1.2-3.7,2.2-9.5,2.2-10.8
			c0-0.6,0-1.5-0.2-2.2L446,30c0.3,0.1,0.6,0.4,0.6,0.7C446.6,31,446.5,31.1,445.2,31.8z M477.6,11.1c-0.3,0.3-0.7,0.6-1,0.9
			c-0.1,4.4-0.9,10-2.4,11.6c-0.6,0.6-1.5,1.4-4.1,1.8c-0.3-1.3-1.4-3.2-3.1-4.7l0.1-0.2c2.1,0.7,3.5,0.9,4,0.9c0.5,0,1,0,1.5-1.6
			c0.4-1.3,1.1-5.4,1.1-8.1c0-0.6,0-0.8-0.1-1.5H467c-0.3,6.4-2.2,12.3-9.2,15.7c0,1-0.6,1.8-1.6,1.8c-1.2,0-1.5-0.9-1.8-1.9
			c-0.1-0.5-0.3-1.3-0.5-1.7c-1.9,0.5-2.7,0.7-3.3,0.8c0,3,0.1,16.2,0.1,18.9c0,1.5-1.5,1.6-2,1.6c-1.1,0-1.2-0.7-1.2-1.2
			c0-3.6,0.3-9.4,0.3-13.1c0-0.8,0-1.2,0-5.6c-2.5,0.5-3.7,0.8-4.8,1.1c-0.1,0.5-0.3,1.2-0.9,1.2c-0.3,0-0.6-0.3-0.6-0.5l-1.4-4.2
			c1.2,0.4,2.4,0.7,6.8,0.7c2.5-3.5,5.1-8.3,5.6-10c0.4-1.4,0.4-1.7,0.5-2.1l4,2.2c0.2,0.1,0.5,0.3,0.5,0.7c0,0.3-0.2,0.4-0.4,0.6
			c-0.2,0.1-1,0.3-1.3,0.4c-2.4,2.8-3,3.3-7.9,8.2c3.9-0.1,4.3-0.1,5.8-0.3c-0.5-1.2-0.8-1.7-1.5-2.6l0.2-0.3c1.1,0.5,4.8,2,5.4,5
			c5.7-5.1,5.9-13.4,6-15.4c-0.7,0-2.7,0-4.4,0.3l-0.9-1.7c2.9,0.2,6,0.3,6.6,0.3h8.6l0.9-0.7c0.2-0.2,0.4-0.3,0.6-0.3
			c0.2,0,0.4,0.2,0.6,0.4l1.6,1.5c0.2,0.2,0.4,0.3,0.4,0.6C477.9,10.8,477.7,11,477.6,11.1z M451.2,10c-1.9,2.1-2.1,2.4-4.5,4.9
			c0.5,0.3,2.4,1.5,2.4,3c0,0.3-0.1,1.7-1.5,1.7c-1.2,0-1.3-0.3-2.9-3c-0.7-1.2-1.6-2.3-2.6-3.2l0-0.3c0.8,0.2,2.7,0.6,4.1,1.4
			c2.4-5.8,2.3-6.3,2.3-8.3l3.9,2c0.2,0.1,0.3,0.3,0.3,0.5C452.7,9.3,452.4,9.4,451.2,10z M455.1,37.1c-1.5,0-1.6-0.8-2.1-3.9
			c-0.3-2.1-0.8-2.9-1.3-3.8l0.2-0.2c0.9,0.6,5,3.1,5,5.9C456.9,35.7,456.5,37.1,455.1,37.1z M475.7,30.7c0,1.5,0.1,7.7,0.2,10.9
			c0,0.2,0.1,1.2,0.1,1.4c0,0.7-0.5,1.8-2,1.8c-1.4,0-1.4-0.6-1.4-2.4h-10.8c0.2,2.1-1.3,2.4-1.8,2.4c-1.3,0-1.3-0.9-1.3-1.4
			c0-0.6,0.1-3,0.1-3.6c0.1-3.3,0.1-6.1,0.1-8.3c0-1.7-0.1-3.4-0.2-5.1l3.2,1.7h10.6l1.2-1.1c0.2-0.2,0.5-0.4,0.7-0.4
			c0.2,0,0.4,0.2,0.6,0.3l1.7,1.5c0.3,0.3,0.4,0.4,0.4,0.7C477,29.5,476.9,29.6,475.7,30.7z M472.6,29.1h-10.9v12.2h10.9V29.1z"/>
		<path class="st0" d="M525.2,26.4c-8.1-3.8-13.9-9.7-16.6-16.4c-8.5,14-17.3,17.6-20.7,19l-0.1-0.2c5.5-4.1,11.3-9.2,16.4-17.9
			c1.6-2.8,1.8-3.9,1.9-5.2l4.3,2.1c0.4,0.2,0.5,0.3,0.5,0.6c0,0.6-0.6,0.9-1.7,1.1c3.9,7.1,12.4,12.4,20.1,13l0,0.2
			C528.5,23.1,526.6,24.2,525.2,26.4z M504.7,24.5c0.1,9.1-1.3,17.4-14.2,20.3l0-0.2c10.4-5.7,10.9-12,10.9-17.6
			c0-1.8,0-3.8-0.5-5.6l4.5,1.2c0.3,0.1,0.6,0.1,0.6,0.6C505.9,23.6,505,24.3,504.7,24.5z M515,24.4c0,2.5,0,8.3,0.1,10.4
			c0.1,1.7,0.3,7.4,0.3,8.7c0,1.5-1.4,1.8-2.2,1.8c-1.1,0-1.5-0.5-1.5-1.3c0-2,0.2-11,0.2-12.9c0-6.5,0-7.2-0.7-9.9l4.5,1.2
			c0.3,0.1,0.6,0,0.6,0.6C516.3,23.4,515.7,23.9,515,24.4z"/>
	</g>
</g>
<g>
	<g class="st1">
		<path class="st0" d="M96.8,19.1c5.4,0.8,10.8,4.5,11.9,10.2c-0.1,3.8,0.4,8.4-1.3,11.8c-0.3,3.3-2.6,6.3-3.9,9.5
			c-4.3,4.8-9.3,10.6-16.7,9.1c-3.6-0.1-5.5-3.9-7.8-5.4c-2.8,1-5.4,2.7-8.9,2c-1.4,0.8-2.3-0.1-3.3,0.2c-6.6-0.5-12.9-2.2-18.7-4.1
			c-8.4-4.6-16.8-10.6-26.9-11.5C15,39.7,8.1,40,1.8,41.5c-0.6-0.5-2.4-0.8-1.7-2.2l1.1-0.8c20.9-8.6,49.6-4.8,67.7,8.7
			c4,1.7,10.2,2.7,13.7-0.9c2.9-2.8,8.4-2.8,9.5-7.8c1.4-4.8-0.7-9.2-3-12.9c-2.4-1.6-4.7-3.2-7.9-2.8c-4.3,0.8-9.5,3.3-10.6,8.1
			c0.4,2.2,2.2,4.2,4.1,5.6c1.1,0.2,2.6-0.9,3-2.2c1.7-2.3-0.5-5.1-0.4-7.2c3.7,0.9,7,2.2,8.5,6.1c1.1,4.4-1.8,8.5-5,10.7
			c-5.6,2.2-9.9-2.3-15.5-2c-4-0.9-3.4-5.5-6.1-8c-0.8-2.8,0.4-5.8,2.7-7.8c2.9-2.1,6-3.7,9.5-4.5c3-4.8,7.4-9.2,13-9.8
			C89.8,11.9,94,15.1,96.8,19.1z"/>
		<path class="st0" d="M63.6,27.9c-1.5,1.4-2.2,3.2-2,4.8c1.1,1.3,1.7,2.7,2.2,4c0.7,1.8,1.1,2.5,2,2.8c2.6,0,5,0.7,7,1.5
			c2.6,0.9,4.7,1.6,7,0.8c2.4-1.7,4.5-4.8,3.8-7.8c-0.6-1.5-1.6-2.4-2.8-3.1c0.3,1.4,0.2,3-0.8,4.6c-0.9,2.2-3.4,3.8-5.6,3.5
			l-0.6-0.1l-0.5-0.4c-2.8-2.1-4.5-4.6-5-7.1l-0.1-0.5l0.1-0.5c0.6-2.6,2.2-4.9,4.7-6.7l-0.9,0.2C69.2,24.5,66.5,25.9,63.6,27.9z"/>
		<path class="st0" d="M135.4,14.6l1.1,3c5.2,1.5,9.6,5.9,10.4,11.3c0,3.1,0.4,6.9-1.9,9.4c-2.8,3.2-7.1,4.5-11.5,4.8
			c-2.6,3.7-5.4,9.7-11.1,9.1c-4.3,0.3-8.3-1.7-10.4-5.4c-3.3-7.4-2.7-16.3,2.8-22.6c2.1-2.1,5.1-3,7.8-1.9c1.4,0.6,2.8,1.2,3.5,2.8
			c1.1,2.8,0.7,5.8-1.3,8.1c-1.7,1.1-3.6,3.3-5.7,2.2c-1-0.9-0.5-2.3-0.6-3.5c0.8-0.8,1.1-2.2,0.6-3.3c-0.4-0.2-0.7-0.6-1.3-0.4
			c-1.7,1.3-2.4,2.2-3.3,3.9c-0.2,2.9,2,5.2,4.4,6.7c4.5,1,8.5-1.3,11.9-3c2.5-3.5,2.7-8.6,0.7-12.4c-1.5-2.4-3.9-4.3-6.5-4.6
			c-6-1.9-9.7,4.4-15.5,2.2c-2.6-0.8-3.6-3.3-5-5.4c2.2,0.7,4.2,1.1,6.5,0c4.4-4.7,10.9-7.2,17.4-5.4C131,11,133.7,12.2,135.4,14.6z
			"/>
		<path class="st0" d="M66.4,2.8c6.2-0.1,13.2-0.5,17.4,4.6c0.7,1.2,0.1,2.5-1.3,2.6c-6.3,1.4-12.6-0.2-17.4-3.7
			c-1.8-0.1-3.6,0-4.8,1.3c-2.5,3.7-6.9,4.4-11.1,4.6c-1.2,3-2.4,6.1-0.7,9.1c1.5,3.2,4.8,5.5,7.9,6.9v0.5
			c-6.5-0.5-14.4-0.1-18.2-6.3c-1.1-2.2-0.7-5.3,0.4-7.4c0,0,0.3-1.4,1.5-2.4c1.7-1.3,3.7-2.1,5.9-2.4c0.1-4.1,3.7-7.4,6.9-9.3
			C57.4-1.1,62.6,0.5,66.4,2.8z"/>
		<path class="st0" d="M41.6,14.5c-0.4,0.4-0.6,0.9-0.7,1.1l-0.1,0.3l-0.2,0.3c-0.9,1.5-1,3.8-0.4,5c1.8,2.9,4.9,4,8.4,4.5
			c-0.9-1-1.7-2.1-2.3-3.4l0.1,0.1c-2-3.5-1-7.1,0-9.8l-0.2,0C44.6,12.8,43.1,13.4,41.6,14.5z"/>
		<path class="st0" d="M67.7,5.2c4,2.4,8.5,3.4,13.1,2.6C77.6,5.1,72.6,5.1,67.7,5.2z"/>
		<path class="st0" d="M54,3.1c-1.4,0.9-5.2,3.4-5.6,6.7l0.7,0c4.2-0.2,7.4-0.8,9.2-3.5l0.1-0.2l0.1-0.2c1.4-1.4,3.1-1.9,4.7-2
			C60.9,2.8,57.2,1.7,54,3.1z"/>
		<path class="st0" d="M144.5,29.1c-0.7-4.2-4.2-7.9-8.7-9.2l-1.2-0.3l-0.4-1.2l-0.9-2.6c-1.4-1.8-3.6-2.7-5.5-3.5
			c-5.1-1.4-10.8,0.4-14.9,4.8l-0.4,0.5l-0.6,0.2c-0.7,0.2-1.5,0.4-2.2,0.5c0.2,0.1,0.4,0.3,0.7,0.3l0.1,0l0.1,0
			c1.9,0.7,3.4,0.1,5.9-1c2.4-1.1,5.5-2.4,9.2-1.3c3.1,0.4,6.2,2.6,8.1,5.7l0,0l0,0c2.5,4.6,2.2,10.7-0.8,14.9c0,0-0.4,0.5-0.4,0.5
			l-0.5,0.3l-0.8,0.4c-3.5,1.7-7.8,3.9-12.7,2.8l-0.4-0.1l-0.4-0.2c-2.6-1.7-4.4-3.8-5.1-6c-0.5,3.5,0,7.3,1.6,10.9
			c1.6,2.8,4.6,4.4,8.1,4.1l0.2,0l0.2,0c3.1,0.3,5-2.2,7.5-6.1c0.5-0.7,0.9-1.4,1.4-2.1l0.7-0.9l1.1-0.1c3.1-0.2,7.3-1,9.8-3.9l0,0
			l0,0c1.3-1.4,1.3-4,1.3-6.5V29.1z"/>
		<path class="st0" d="M71.6,12.6c0.8,2.7-2.4,4-3.9,5.2c-1,0.6-2.9,0.6-3.9,0c-1.2-1.2,0.1-5-2.8-3.9c-0.9,1-2.8,2.2-1.7,3.4
			c1.2-0.1,1.5,1.2,1.9,2c-0.1,1,0.2,2.1-0.8,2.6c-2.7,0.8-6,0.6-8.3-0.8c-2.2-3.2,2.4-5.6,3.9-8.3c3.9-3.1,10.4-3.5,14.8-1.3
			L71.6,12.6z"/>
		<path class="st0" d="M106.3,29.6c-1.1-4.7-5.7-7.4-9.9-8.1l-1-0.2l-0.6-0.8c-1.6-2.3-5-6.1-10.1-6.3c-5.4,0.7-9.2,5.7-11.1,8.6
			l-0.5,0.8c2.1-1.5,4.7-2.6,7.8-3.2l0.1,0l0.1,0c3.9-0.5,6.8,1.4,9.3,3.1l0.2,0.1l0.4,0.3l0.3,0.4c2.5,3.8,5,9,3.3,14.7
			c0,0,0,0,0-0.1l-0.1,0.2c0,0,0-0.1,0-0.1c-1,4.2-4.3,5.8-7,7c-1.3,0.6-2.5,1.1-3.2,1.9c-4.3,4.4-11.5,3.5-16.4,1.4l-0.3-0.1
			l-0.2-0.2c-14.8-11-37.2-15.2-55.8-11.3c3.3-0.1,6.6,0.1,9.7,0.7c8.7,0.9,15.9,5,22.9,9c1.5,0.9,3.1,1.8,4.7,2.6
			c6.5,2.1,12.3,3.4,17.6,3.9c0.8-0.1,1.5,0.1,1.9,0.2c0,0,0,0,0,0l0.9-0.1l1-0.3c2.1,0.4,3.8-0.3,5.8-1.2c0.6-0.2,1.2-0.5,1.8-0.7
			l1.2-0.4l1,0.7c1,0.7,1.8,1.6,2.7,2.4c1.6,1.6,2.6,2.6,3.9,2.6h0.2l0.2,0c5.8,1.2,10.1-3.5,14.2-8.1l0,0c0.4-1,1-2,1.4-2.9
			c1-1.9,2-3.8,2.1-5.5l0-0.5l0.2-0.4c1.1-2.1,1.1-5.1,1-8C106.3,31.2,106.3,30.4,106.3,29.6z"/>
		<path class="st0" d="M57.2,36.1c0.4,0.4,0.2,1.1,0.2,1.7c-0.5,0.7-1.8,0.5-2.4,0.2c-11.9-7.7-29.7-11-43.4-4.8
			c-0.7,0.1-1.4,0.3-1.7-0.7l0.6-1.3C24.5,24.4,45.8,23.8,57.2,36.1z"/>
	</g>
	<g class="st1">
		<path class="st0" d="M686.9,19.1c-5.4,0.8-10.8,4.5-11.9,10.2c0.1,3.8-0.4,8.4,1.3,11.8c0.3,3.3,2.6,6.3,3.9,9.5
			c4.3,4.8,9.3,10.6,16.7,9.1c3.6-0.1,5.5-3.9,7.8-5.4c2.8,1,5.4,2.7,8.9,2c1.4,0.8,2.3-0.1,3.3,0.2c6.6-0.5,12.9-2.2,18.7-4.1
			c8.4-4.6,16.8-10.6,26.9-11.5c6.2-1.1,13.2-0.8,19.4,0.7c0.6-0.5,2.4-0.8,1.7-2.2l-1.1-0.8c-20.9-8.6-49.6-4.8-67.7,8.7
			c-4,1.7-10.2,2.7-13.7-0.9c-2.9-2.8-8.4-2.8-9.5-7.8c-1.4-4.8,0.7-9.2,3-12.9c2.4-1.6,4.7-3.2,7.9-2.8c4.3,0.8,9.5,3.3,10.6,8.1
			c-0.4,2.2-2.2,4.2-4.1,5.6c-1.1,0.2-2.6-0.9-3-2.2c-1.7-2.3,0.5-5.1,0.4-7.2c-3.7,0.9-7,2.2-8.5,6.1c-1.1,4.4,1.8,8.5,5,10.7
			c5.6,2.2,9.9-2.3,15.5-2c4-0.9,3.4-5.5,6.1-8c0.8-2.8-0.4-5.8-2.7-7.8c-2.9-2.1-6-3.7-9.5-4.5c-3-4.8-7.4-9.2-13-9.8
			C693.9,11.9,689.7,15.1,686.9,19.1z"/>
		<path class="st0" d="M720.1,27.9c1.5,1.4,2.2,3.2,2,4.8c-1.1,1.3-1.7,2.7-2.2,4c-0.7,1.8-1.1,2.5-2,2.8c-2.6,0-5,0.7-7,1.5
			c-2.6,0.9-4.7,1.6-7,0.8c-2.4-1.7-4.5-4.8-3.8-7.8c0.6-1.5,1.6-2.4,2.8-3.1c-0.3,1.4-0.2,3,0.8,4.6c0.9,2.2,3.4,3.8,5.6,3.5
			l0.6-0.1l0.5-0.4c2.8-2.1,4.5-4.6,5-7.1l0.1-0.5l-0.1-0.5c-0.6-2.6-2.2-4.9-4.7-6.7l0.9,0.2C714.4,24.5,717.2,25.9,720.1,27.9z"/>
		<path class="st0" d="M648.3,14.6l-1.1,3c-5.2,1.5-9.6,5.9-10.4,11.3c0,3.1-0.4,6.9,1.9,9.4c2.8,3.2,7.1,4.5,11.5,4.8
			c2.6,3.7,5.4,9.7,11.1,9.1c4.3,0.3,8.3-1.7,10.4-5.4c3.3-7.4,2.7-16.3-2.8-22.6c-2.1-2.1-5.1-3-7.8-1.9c-1.4,0.6-2.8,1.2-3.5,2.8
			c-1.1,2.8-0.7,5.8,1.3,8.1c1.7,1.1,3.6,3.3,5.7,2.2c1-0.9,0.5-2.3,0.6-3.5c-0.8-0.8-1.1-2.2-0.6-3.3c0.4-0.2,0.7-0.6,1.3-0.4
			c1.7,1.3,2.4,2.2,3.3,3.9c0.2,2.9-2,5.2-4.4,6.7c-4.5,1-8.5-1.3-11.9-3c-2.5-3.5-2.7-8.6-0.7-12.4c1.5-2.4,3.9-4.3,6.5-4.6
			c6-1.9,9.7,4.4,15.5,2.2c2.6-0.8,3.6-3.3,5-5.4c-2.2,0.7-4.2,1.1-6.5,0c-4.4-4.7-10.9-7.2-17.4-5.4C652.7,11,650,12.2,648.3,14.6z
			"/>
		<path class="st0" d="M717.3,2.8c-6.2-0.1-13.2-0.5-17.4,4.6c-0.7,1.2-0.1,2.5,1.3,2.6c6.3,1.4,12.6-0.2,17.4-3.7
			c1.8-0.1,3.6,0,4.8,1.3c2.5,3.7,6.9,4.4,11.1,4.6c1.2,3,2.4,6.1,0.7,9.1c-1.5,3.2-4.8,5.5-7.9,6.9v0.5c6.5-0.5,14.4-0.1,18.2-6.3
			c1.1-2.2,0.7-5.3-0.4-7.4c0,0-0.3-1.4-1.5-2.4c-1.7-1.3-3.7-2.1-5.9-2.4c-0.1-4.1-3.7-7.4-6.9-9.3C726.3-1.1,721.1,0.5,717.3,2.8z
			"/>
		<path class="st0" d="M742.1,14.5c0.4,0.4,0.6,0.9,0.7,1.1l0.1,0.3l0.2,0.3c0.9,1.5,1,3.8,0.4,5c-1.8,2.9-4.9,4-8.4,4.5
			c0.9-1,1.7-2.1,2.3-3.4l-0.1,0.1c2-3.5,1-7.1,0-9.8l0.2,0C739.1,12.8,740.6,13.4,742.1,14.5z"/>
		<path class="st0" d="M715.9,5.2c-4,2.4-8.5,3.4-13.1,2.6C706.1,5.1,711.1,5.1,715.9,5.2z"/>
		<path class="st0" d="M729.7,3.1c1.4,0.9,5.2,3.4,5.6,6.7l-0.7,0c-4.2-0.2-7.4-0.8-9.2-3.5l-0.1-0.2l-0.1-0.2
			c-1.4-1.4-3.1-1.9-4.7-2C722.8,2.8,726.5,1.7,729.7,3.1z"/>
		<path class="st0" d="M639.2,29.1c0.7-4.2,4.2-7.9,8.7-9.2l1.2-0.3l0.4-1.2l0.9-2.6c1.4-1.8,3.6-2.7,5.5-3.5
			c5.1-1.4,10.8,0.4,14.9,4.8l0.4,0.5l0.6,0.2c0.7,0.2,1.5,0.4,2.2,0.5c-0.2,0.1-0.4,0.3-0.7,0.3l-0.1,0l-0.1,0
			c-1.9,0.7-3.4,0.1-5.9-1c-2.4-1.1-5.5-2.4-9.2-1.3c-3.1,0.4-6.2,2.6-8.1,5.7l0,0l0,0c-2.5,4.6-2.2,10.7,0.8,14.9
			c0,0,0.4,0.5,0.4,0.5l0.5,0.3l0.8,0.4c3.5,1.7,7.8,3.9,12.7,2.8l0.4-0.1l0.4-0.2c2.6-1.7,4.4-3.8,5.1-6c0.5,3.5,0,7.3-1.6,10.9
			c-1.6,2.8-4.6,4.4-8.1,4.1l-0.2,0l-0.2,0c-3.1,0.3-5-2.2-7.5-6.1c-0.5-0.7-0.9-1.4-1.4-2.1l-0.7-0.9l-1.1-0.1
			c-3.1-0.2-7.3-1-9.8-3.9l0,0l0,0c-1.3-1.4-1.3-4-1.3-6.5V29.1z"/>
		<path class="st0" d="M712.1,12.6c-0.8,2.7,2.4,4,3.9,5.2c1,0.6,2.9,0.6,3.9,0c1.2-1.2-0.1-5,2.8-3.9c0.9,1,2.8,2.2,1.7,3.4
			c-1.2-0.1-1.5,1.2-1.9,2c0.1,1-0.2,2.1,0.8,2.6c2.7,0.8,6,0.6,8.3-0.8c2.2-3.2-2.4-5.6-3.9-8.3c-3.9-3.1-10.4-3.5-14.8-1.3
			L712.1,12.6z"/>
		<path class="st0" d="M677.4,29.6c1.1-4.7,5.7-7.4,9.9-8.1l1-0.2l0.6-0.8c1.6-2.3,5-6.1,10.1-6.3c5.4,0.7,9.2,5.7,11.1,8.6l0.5,0.8
			c-2.1-1.5-4.7-2.6-7.8-3.2l-0.1,0l-0.1,0c-3.9-0.5-6.8,1.4-9.3,3.1l-0.2,0.1l-0.4,0.3l-0.3,0.4c-2.5,3.8-5,9-3.3,14.7
			c0,0,0,0,0-0.1l0.1,0.2c0,0,0-0.1,0-0.1c1,4.2,4.3,5.8,7,7c1.3,0.6,2.5,1.1,3.2,1.9c4.3,4.4,11.5,3.5,16.4,1.4l0.3-0.1l0.2-0.2
			c14.8-11,37.2-15.2,55.8-11.3c-3.3-0.1-6.6,0.1-9.7,0.7c-8.7,0.9-15.9,5-22.9,9c-1.5,0.9-3.1,1.8-4.7,2.6
			c-6.5,2.1-12.3,3.4-17.6,3.9c-0.8-0.1-1.5,0.1-1.9,0.2c0,0,0,0,0,0l-0.9-0.1l-1-0.3c-2.1,0.4-3.8-0.3-5.8-1.2
			c-0.6-0.2-1.2-0.5-1.8-0.7l-1.2-0.4l-1,0.7c-1,0.7-1.8,1.6-2.7,2.4c-1.6,1.6-2.6,2.6-3.9,2.6h-0.2l-0.2,0
			c-5.8,1.2-10.1-3.5-14.2-8.1l0,0c-0.4-1-1-2-1.4-2.9c-1-1.9-2-3.8-2.1-5.5l0-0.5l-0.2-0.4c-1.1-2.1-1.1-5.1-1-8
			C677.4,31.2,677.4,30.4,677.4,29.6z"/>
		<path class="st0" d="M726.5,36.1c-0.4,0.4-0.2,1.1-0.2,1.7c0.5,0.7,1.8,0.5,2.4,0.2c11.9-7.7,29.7-11,43.4-4.8
			c0.7,0.1,1.4,0.3,1.7-0.7l-0.6-1.3C759.2,24.4,737.9,23.8,726.5,36.1z"/>
	</g>
</g>
</svg>
