<svg id="レイヤー_1" data-name="レイヤー 1" xmlns="http://www.w3.org/2000/svg" viewBox="0 0 371.18 221.91"><defs><style>.cls-1{fill:#fff;stroke:#2e3191;stroke-miterlimit:10;stroke-width:0.5px;}.cls-2{fill:#2e3191;}</style></defs><ellipse class="cls-1" cx="185.21" cy="63.12" rx="184.96" ry="62.87"/><path class="cls-2" d="M111.37,35.12c0-1.91-.07-2.84-.15-3.92l2.35.26a37.91,37.91,0,0,0,3.77-6h-8.88a28,28,0,0,0-2.95.15l-.7-2.24c1.08.07,2.27.15,3.76.15h9L118.94,22c.34-.38.49-.41.68-.41a1,1,0,0,1,.71.37l3.39,3.39a1.14,1.14,0,0,1,.37.79c0,.33-.18.63-.89.74-.3,0-1.53.15-1.79.15-1.57,1.35-2,1.68-6.08,4.7l.78.08c.48,0,.89.19.89.67s-.37.67-1.38,1.08v3.32h2.73l1.6-2.31c.23-.34.38-.45.56-.45a1.1,1.1,0,0,1,.67.38l2.88,2.72a1.44,1.44,0,0,1,.48.89c0,.71-.71.71-1,.71h-7.91v8.17c0,.75.12,4,.12,4.63,0,2.57-1,3.88-5.94,4.18,0-1.27-.07-3.4-4.36-4.59v-.75l4.74.15c1,0,1.19-.22,1.19-.93V38.77h-4.66a26.15,26.15,0,0,0-2.91.15l-.38-1.19a38.11,38.11,0,0,1-2.23,6.9c1.41.86,4,2.46,4,5.07a2.09,2.09,0,0,1-1.9,2.21c-.64,0-1.2-.3-1.8-1.27-1.15-1.91-1.3-2.09-1.9-3a20.75,20.75,0,0,1-9.59,8L89.55,55a26.46,26.46,0,0,0,7.91-9.74,34.77,34.77,0,0,0-2.95-2.54c-.52,2.09-.6,2.43-2.39,2.43-.37,0-1.83,0-1.83-.75a8.36,8.36,0,0,1,.52-2c1-3.58,1.87-7.87,2.62-11.79a26.92,26.92,0,0,0-3.06.15l-.71-2.24c1.9.12,2.61.15,4.14.15a58.8,58.8,0,0,0,1-7.87l4.15.86c.85.19,1.08.3,1.08.71s-.34.63-1.35.93c-.15.86-.85,4.63-1,5.37h2.84l1-1.42c.15-.18.3-.41.6-.41a1.18,1.18,0,0,1,.75.38l2.68,2.35a.76.76,0,0,1,.34.63c0,.38-.3.6-.6.82s-.82.53-.93.6c-.19,1.53-.34,2.69-.82,5.11.78.08,1.75.11,3.17.11h4.55Zm-14-4.52c-1.12,5.49-1.23,6.12-2.57,11.08a17.91,17.91,0,0,1,3.58,1.38,56.92,56.92,0,0,0,2.43-12.46Z"/><path class="cls-2" d="M136.29,28l1.27-1.9a.75.75,0,0,1,.6-.45,1.21,1.21,0,0,1,.67.37l2.46,2.32a1.19,1.19,0,0,1,.45.89c0,.71-.64.71-1,.71H130.55a24.42,24.42,0,0,0-2.91.15l-.71-2.24c1.15.08,2.27.15,3.73.15ZM156,39.37l1.57-2.2c.26-.34.37-.41.56-.41a1,1,0,0,1,.63.33l2.65,2.62a1.34,1.34,0,0,1,.45.89c0,.71-.71.71-1,.71h-8.25v6.57c0,1,.12,5.29.12,6.15,0,.67,0,1.72-3,1.72-1.23,0-1.27-.56-1.27-1.23,0-1.12.08-5.38.08-6.27V41.31H143.9a26.62,26.62,0,0,0-3,.15l-.63-2c-.15,0-.26,0-.48,0H132a24.42,24.42,0,0,0-2.91.15l-.71-2.24c1.16.08,2.28.15,3.77.15h3.32l1.23-1.83c.15-.18.34-.44.64-.44a1.1,1.1,0,0,1,.67.41l2.35,2.24a1.22,1.22,0,0,1,.37.89.93.93,0,0,1-.11.45c1.08.07,2.27.11,3.39.11h4.56v-14H144.8a23.73,23.73,0,0,0-3,.15l-.71-2.24c1,.07,2.05.15,3.77.15h9.44l1.53-2.28a.8.8,0,0,1,.63-.44,1,1,0,0,1,.67.37l3.06,2.76a1.27,1.27,0,0,1,.45.82c0,.71-.75.71-1.08.71h-7v14Zm-20.48-6.64,1.27-1.83c.22-.33.41-.45.6-.45s.37.12.7.41l2.35,2.28a1.2,1.2,0,0,1,.38.86c0,.67-.52.67-.9.67H132c-.82,0-1.64,0-2.91.15l-.75-2.24c1.16.07,2.31.15,3.77.15Zm0-9.48,1.27-1.83c.19-.26.34-.44.6-.44s.56.33.67.41l2.39,2.2a1.68,1.68,0,0,1,.41.89c0,.71-.64.71-1,.71h-7.72a21.69,21.69,0,0,0-2.91.15l-.75-2.24c1.08.08,2.27.15,3.77.15Zm.82,19.25,1.05-1.41c.18-.27.33-.45.6-.45a1,1,0,0,1,.59.3L141,43.06a1.11,1.11,0,0,1,.45.75c0,.56-.37.78-1.27,1.34v3.36c0,.67.15,4.7.15,5,0,.56-.07,1.08-1.08,1.38a6.38,6.38,0,0,1-1.64.26c-1,0-1-.37-1-1.87h-3.91c0,1.61,0,1.79-.53,2.06a6.85,6.85,0,0,1-2.24.41c-1,0-1.08-.71-1.08-1.12s.15-4,.15-4.74V45.41c0-.67,0-2.35-.15-4.7l4.11,1.79Zm-3.61,1.94v6.94h3.91V44.44ZM141.89,27c2.91,2,5.48,5.82,5.48,8.36a2.15,2.15,0,0,1-2.24,2.31c-1.38,0-1.49-.71-1.82-3.09a24.88,24.88,0,0,0-2-7.13Zm19,1.65c.82.37.82.63.82.78,0,.37-.22.67-1.57.63-1.12,1.68-4.4,6.27-6.34,7.91l-.6-.41c.71-1.79,2.28-5.86,2.58-6.83a30.35,30.35,0,0,0,.89-4.06Z"/><path class="cls-2" d="M167,24c3.58-.11,5.56,2.65,5.56,4.07a4.87,4.87,0,0,1-.63,2.08,35.15,35.15,0,0,0-2.76,12.61c0,.34,0,2,.33,2,.11,0,2.69-5.27,2.95-5.83l.67.27c-.19.93-1.19,5.07-1.38,5.89a16,16,0,0,0-.52,3.58c0,.41.18,2.2.18,2.54A1.7,1.7,0,0,1,169.68,53c-2.35,0-3.73-4.58-3.73-9.51,0-3.69.48-6.38,1.56-12.61a17.48,17.48,0,0,0,.41-3.51,2.93,2.93,0,0,0-1.26-2.72Zm12.13,16.79a6.44,6.44,0,0,0-.38,2.05c0,4.25,4.33,4.25,6.9,4.25.86,0,2.06-.07,3.62-.18.23,0,1.46-.15,1.83-.15,1.57,0,3.1,1,3.1,2.31s-1.08,1.57-1.76,1.72a35,35,0,0,1-5.22.29c-3.06,0-10.71,0-10.71-6.11a6.19,6.19,0,0,1,2-4.52Zm-2.28-10.11c1.49-1.31,4.51-3.85,11.34-3.85,1.12,0,4.74,0,4.74,2.39,0,1.27-1,1.42-2.2,1.57-1.87.26-4.89,1.9-7.2,3.17l-.45-.56c.34-.34,3-2.87,3-3,0-.27-.93-.27-1.23-.27a31.15,31.15,0,0,0-7.61,1.16Z"/><path class="cls-2" d="M199.17,30.42a2.34,2.34,0,0,0,2.16,1.6,8.36,8.36,0,0,0,2.65-.56c8-2.5,10.67-3.36,14.81-3.36,5.63,0,10.71,2.95,10.71,9.59,0,11.72-13.88,13-20.67,12.91l-.11-.71C216.1,48.73,225,45.56,225,37.13c0-3.8-2-6.71-6.41-6.71-6.64,0-12.76,4.51-14.74,6a2.7,2.7,0,0,1-1.57.68c-1.64,0-4.14-2.32-4.14-4.78a4.25,4.25,0,0,1,.38-1.68Z"/><path class="cls-2" d="M236.78,28.4a7,7,0,0,0,3.06.52,24.71,24.71,0,0,0,6.53-.93c-.3-.63-1.19-2.83-1.42-3.17a2.46,2.46,0,0,0-2.57-1l-.15-.67a4.06,4.06,0,0,1,3.1-1.3c1.52,0,3.5.44,3.58,2.16a10.71,10.71,0,0,0,.52,3.1A24.53,24.53,0,0,0,252,26c1.26-.71,1.6-.9,2.31-.9,1.12,0,2.54.67,2.54,1.75s-.9,1.42-2.06,1.87c-1.6.63-3.39,1.16-4.17,1.38a25.83,25.83,0,0,0,1.45,3,25.37,25.37,0,0,0,3.81-1.38c2-.89,2.2-1,2.91-1,.89,0,2.68.37,2.68,1.75,0,.9-.71,1.42-2.53,2-1.39.49-4,1.23-5.19,1.53a54.13,54.13,0,0,0,3.69,5.45,4.46,4.46,0,0,1,1,2.8c0,.71-.26,2.27-1.57,2.27-.48,0-.93-.26-2-.89a16.11,16.11,0,0,0-9.22-2.58c-4.17,0-5.82,1.68-5.82,3.36,0,3.21,4.93,3.51,7.91,3.51a21.73,21.73,0,0,0,3.29-.19,11.55,11.55,0,0,1,1.9-.22c1.75,0,3.13,1,3.13,2.12s-1.27,1.57-1.86,1.72a27.5,27.5,0,0,1-5.67.48c-3.44,0-11.87-.48-11.87-6.56,0-3.21,2.76-6.27,9.11-6.27a24,24,0,0,1,6.64,1,4.8,4.8,0,0,0,.85.11c.19,0,.3-.07.3-.19s-.93-1.53-1.08-1.79c-.67-1.08-1.19-2-1.94-3.28-5,1.12-7.95,1.6-10.33,1.6a7.17,7.17,0,0,1-5-1.82A6.67,6.67,0,0,1,234,35l.49-.53a9.65,9.65,0,0,0,4.51.82,49.45,49.45,0,0,0,10-1.41c-.89-1.87-1-2.06-1.41-3a25.79,25.79,0,0,1-6.12,1A5.88,5.88,0,0,1,236.33,29Z"/><path class="cls-2" d="M266.5,43.29c6,1.53,9.93,5,9.93,8.13a2.6,2.6,0,0,1-2.35,2.84c-1.27,0-1.61-.79-2.65-3.06a21.26,21.26,0,0,0-5.3-7.28Z"/><path class="cls-2" d="M76.8,100.92a40.13,40.13,0,0,0,6.56-10.49h-2a25.36,25.36,0,0,0-3,.15l-.75-2.24c1.08.08,2.28.15,3.77.15h2.65c0-2.42,0-3.1-.11-3.95H80.68a24.42,24.42,0,0,0-2.91.15L77,82.45c1.08.07,2.24.15,3.77.15h1.6c-.63-.23-.78-.64-1-1.76a11.17,11.17,0,0,0-1.53-4.25l-1.19.11L78,74.46c1.09.08,2.28.15,3.77.15h2.39v-.89A34.35,34.35,0,0,0,84,69.46L88.4,70c.34,0,1,.12,1,.68s-.41.63-1.46,1v2.91h1.5l1.3-1.94c.23-.33.34-.48.64-.48s.41.15.63.37L94.41,75a1.66,1.66,0,0,1,.48,1c0,.6-.56.63-1,.63H90l1.94.67c.82.3,1,.53,1,.83,0,.52-.56.59-1.49.67A31.57,31.57,0,0,1,88.1,82.6h2.13l1.27-1.87c.18-.26.29-.48.59-.48s.41.18.67.41l2.32,2.27a1.51,1.51,0,0,1,.44.9c0,.71-.67.71-1,.71H87.24l.71.07c.45,0,1,.11,1,.64,0,.29-.11.48-1.15,1v2.27h1.67l1.31-1.94c.19-.3.34-.45.56-.45a1,1,0,0,1,.67.38l2.31,2.24a1.6,1.6,0,0,1,.53,1c0,.71-.68.71-1,.71H87.77v.9c1.94.33,5.55,1.79,5.55,4.29,0,1.15-.63,2.39-1.79,2.39-.82,0-.89-.27-2.09-2.77a11,11,0,0,0-1.67-2.46v4.7c0,.82.11,4.4.11,5.15s-.08,1.05-.75,1.31a5,5,0,0,1-1.86.37c-1,0-1.24-.34-1.24-1.27s.08-4.77.08-5.56V95.06a20.21,20.21,0,0,1-6.79,6.41Zm5-24.37c.74.38,3.24,1.64,3.24,3.66a2.41,2.41,0,0,1-1.9,2.39h3.43a41.55,41.55,0,0,0,1.46-6Zm9,27c4-5.85,5.19-10.7,5.19-20.7V77.15c0-2.69-.07-3.39-.15-5.22l4.33,1.6c5-2.09,5.52-2.27,7.35-4.1l3.24,3.35c.3.3.53.53.53.9,0,.22-.15.56-.68.56a4.2,4.2,0,0,1-1.3-.34,49.36,49.36,0,0,1-9.48,1.35v6.9h5.41L107,79.54a.7.7,0,0,1,.59-.41,1,1,0,0,1,.64.33l3.28,3.1a1.36,1.36,0,0,1,.41.86c0,.67-.63.67-1,.67H107.8V96c0,1,.07,5.56.07,6.49,0,.67,0,1.79-2.94,1.79-1.2,0-1.23-.52-1.23-1.31s.07-5,.07-5.89v-13H99.85c-.07,8.5-1.42,15.29-8.47,20Z"/><path class="cls-2" d="M141.94,99.8l1.68-2.54c.11-.15.29-.45.63-.45a.87.87,0,0,1,.63.34l3.51,3.09a1,1,0,0,1,.45.79c0,.71-.86.71-1.16.71H120.93c0,1.86,0,2.42-2.8,2.42-1.12,0-1.56-.11-1.56-1.16,0-.78.11-4.4.11-5.14v-23c0-2.5-.11-3.8-.15-4.36l5,2.09h20l1.64-2.39a.71.71,0,0,1,.64-.41,1,1,0,0,1,.63.33l3.4,2.91a1.37,1.37,0,0,1,.44.79c0,.71-.89.71-1.19.71H120.93V99.8Zm.7-22.35c.6.26,1,.52,1,.89,0,.79-1,.71-1.79.64a62.89,62.89,0,0,1-4.36,6.6c3.47,2.72,6.75,5.78,6.75,8.4,0,1.56-1,2.42-1.79,2.42-1.12,0-1.42-.34-4-3.54a39.88,39.88,0,0,0-3.69-4.07,39.44,39.44,0,0,1-12.12,8.95l-.49-.56a60.86,60.86,0,0,0,9.92-10.85,114.4,114.4,0,0,0-9.1-7.24l.41-.63a43.52,43.52,0,0,1,10.82,4.85,30.57,30.57,0,0,0,4.07-7.8Z"/><path class="cls-2" d="M166.88,74H155.09c-.74,0-1.41,0-2.91.15l-.74-2.24c1.15.07,2.27.15,3.76.15h24.25l1.8-2.43c.18-.22.37-.41.59-.41s.38.08.67.38l3.1,2.76a1.66,1.66,0,0,1,.52.93c0,.71-.71.71-1,.71H170.76v5.07h3.06l1-1.3c.19-.26.3-.41.56-.41a1.17,1.17,0,0,1,.6.29l2.24,2c.37.34.41.48.41.71s-.08.48-1.23,1.23V96.66c-.19,1-1.35,1.16-2.32,1.16s-1-.45-1-1.08V96H163.71c0,1.31,0,2.09-2,2.09-1.31,0-1.31-1.12-1.31-1.79,0-.37.08-1.9.08-2.24V81.74c0-1.46,0-3-.15-4.48l4,1.79h2.57Zm13.43,26V83.46a32.72,32.72,0,0,0-.18-4.37l4.47.48c.53.08,1,.19,1,.6s0,.56-1.45,1V96.14c0,1,.11,5.67.11,6.6,0,.56,0,1.68-2.76,1.68-1.16,0-1.16-.6-1.16-1.75v-.79H157.52c0,1.72,0,2.5-2.8,2.5-1.12,0-1.12-.56-1.12-1.19,0-.22.11-5.07.11-6V83.38c0-1.83,0-2.83-.15-4.37l4.44.53c.38,0,.9.15.9.63s-.37.71-1.38,1.08V99.94ZM167.14,81h-3.43v5.45h3.43Zm0,7.39h-3.43v5.67h3.43Zm3.36-1.94h3.55V81H170.5Zm0,7.61h3.55V88.38H170.5Z"/><path class="cls-2" d="M194.64,83c.26-.37.45-.44.63-.44a1.67,1.67,0,0,1,.71.29l2.72,2.32c.49.41.53.67.53.86,0,.52-.41.82-1.46,1.64V94.5c0,1.86,0,4.85,9.55,4.85.08,0,8.81-.11,16.68-1l0,.75a5.83,5.83,0,0,0-2.43,4.21H211.35c-8.54,0-12.53-.86-14.44-6.15a56.4,56.4,0,0,1-4.36,5.29c0,1,0,1.65-.64,1.65-.14,0-.37,0-.82-.75l-2.72-4.55a22.8,22.8,0,0,0,5.41-2.13V86.81h-1.6a23.13,23.13,0,0,0-2.77.15l-.78-2.24c1.08.08,2.24.15,3.77.15h.89Zm-4.55-12.53c1.41.37,8.54,2.54,8.54,6.38a2.73,2.73,0,0,1-2.43,2.91c-1,0-1.11-.3-2.38-2.87a19.66,19.66,0,0,0-4.14-5.82Zm18.84,4.36V73.72c0-2-.08-3.47-.15-4.29l4.62.52c.38,0,1,.11,1,.63s-.29.64-1.45,1.09v3.2h2.24l1.56-2.2c.15-.22.34-.45.6-.45a1,1,0,0,1,.67.38l3,2.72a1.12,1.12,0,0,1,.45.82c0,.67-.86.67-1.12.67h-7.42v4.74h4l1.57-2.24a.77.77,0,0,1,.6-.41,1.17,1.17,0,0,1,.67.34L222.77,82a1.22,1.22,0,0,1,.45.78c0,.71-.86.71-1.16.71H201.73a22.91,22.91,0,0,0-2.76.15l-.79-2.24c1.16.08,2.28.15,3.77.15h7V76.81h-5.08a25.86,25.86,0,0,1-3.5,4.26l-.6-.41a51.28,51.28,0,0,0,2.76-10.45l4.07,1.19c.52.15,1.08.45,1.08.86,0,.6-.56.64-1.46.67a18,18,0,0,1-1,1.94Zm6.56,11.76,1.31-1.76a.85.85,0,0,1,.63-.41,1,1,0,0,1,.67.3l2.54,2c.45.37.78.67.78,1.08s-.18.67-1.49,1.45v2.62c0,.63.11,3.58.11,4.17,0,1.57-2.5,1.57-3,1.57-1.15,0-1.15-.3-1.15-1.6H206c0,1.42,0,2-2.8,2-1.2,0-1.27-.48-1.27-1,0,0,.11-3.91.11-4.62v-3a41.52,41.52,0,0,0-.15-4.7l4.48,1.87ZM206,88.57v5.52h9.85V88.57Z"/><path class="cls-2" d="M237.64,103.53a34.19,34.19,0,0,0,10.11-9.07c-2.65-5.78-3.32-12.39-3.7-16H232.9v5.48h4.7l1.23-1.6a.63.63,0,0,1,.49-.3.7.7,0,0,1,.52.26l2.95,2.57a.78.78,0,0,1,.33.64c0,.56-.26.71-1.34,1.38-.49,10.7-1.38,13.28-6.9,13.35-.08-2.2-.86-2.87-3.59-4.25a17.67,17.67,0,0,1-5.14,8.13l-.6-.41c2.27-5.26,3.24-10.22,3.24-19.21V79.61c0-2.53-.07-3.73-.14-4.92l4.77,1.83H243.9c0-1-.26-5.9-.37-7l4.48.6c.41,0,1,.15,1,.71,0,.33-.34.59-1,1a46.33,46.33,0,0,0,.12,4.74h4.77a20.24,20.24,0,0,1-1.3-2.06,12.84,12.84,0,0,0-2.47-3.13l.23-.71c.63,0,6.45.34,6.45,4.37a1.69,1.69,0,0,1-.71,1.53h.41L257,74.17a.67.67,0,0,1,.6-.41c.26,0,.37.14.52.33l2.24,2.8a2,2,0,0,1,.37.86c0,.71-.67.71-.93.71h-11.6a47,47,0,0,0,2.27,11.71,33,33,0,0,0,3.29-9.1l4,2.31c.64.37.93.49.93.86,0,.56-.48.6-1.56.63A36.85,36.85,0,0,1,252.22,94c.38.64,2.58,4.22,4,4.22.22,0,.63,0,1.27-1.12.33-.6,1.86-3.73,2.24-4.44l.7.26c-.11.45-.52,2.8-.63,3.32a17.57,17.57,0,0,0-.41,2.69,2.28,2.28,0,0,0,.71,1.6,1.9,1.9,0,0,1,.48,1.27A2.32,2.32,0,0,1,258,104c-.94,0-4.59-.26-8.62-6.56A24.25,24.25,0,0,1,238,104.2Zm-4.78-17.65a35.09,35.09,0,0,1-1.34,9.36c.56,0,2.87.15,3.36.15,1.23,0,2.05,0,2.46-2.57a47.8,47.8,0,0,0,.59-6.94Z"/><path class="cls-2" d="M271.66,99.22a2.85,2.85,0,1,1-2.33-3.32A2.87,2.87,0,0,1,271.66,99.22Zm-2.78-6.55a93.49,93.49,0,0,0,1.23-11.48c.06-1,.13-6.15.19-6.48a2.76,2.76,0,1,1,5.41.91c-.11.63-1.75,5.19-2,6.2A89.36,89.36,0,0,0,270.9,93Z"/><path class="cls-2" d="M285.73,99.22a2.87,2.87,0,0,1-3.32,2.3,2.85,2.85,0,1,1,3.32-2.3ZM283,92.67a95,95,0,0,0,1.22-11.48c.07-1,.14-6.15.2-6.48a2.76,2.76,0,1,1,5.4.91c-.11.63-1.74,5.19-2,6.2A87.61,87.61,0,0,0,285,93Z"/><path class="cls-2" d="M24.4,169.55c.26-.25.37-.4.59-.4s.44.18.66.4l2.27,2.27c.36.37.36.55.36.73,0,.44-.25.66-1.72,1.21C24.7,178,22,184,14.27,187.7l-.4-.62a31.32,31.32,0,0,0,9.66-14.31H18.37a23.7,23.7,0,0,0-2.86.15l-.73-2.2c1.06.08,2.2.15,3.7.15h4.83Zm22-1.94a1.18,1.18,0,0,1,.48.81c0,.4-.41.51-.59.51a5.36,5.36,0,0,1-1.1-.22c-5.7,3.84-7.31,4.54-8.89,5.16a24.83,24.83,0,0,0,12,9.88v.73c-1.68.59-2.19,1.36-3.22,3-6.4-4-10.42-10.72-12.51-18v11.71c0,.81.11,4.39.11,5.13,0,2.56-.88,3.33-4.57,3.65-.08-2.26-.55-2.45-4.76-3.91v-.73l5.09.14c1,0,1.06-.25,1.06-1V165.86h-7.1a25.75,25.75,0,0,0-2.89.14l-.73-2.19c1.06.07,2.23.15,3.69.15h6.7l.88-1.32c.14-.22.29-.37.47-.37a1,1,0,0,1,.55.26l2.38,2.08a1,1,0,0,1,.44.74c0,.44-.26.62-1,1.13a22.93,22.93,0,0,0,2.75,6.33c5.19-4.65,6.33-5.67,7.83-8.05Zm-23-11.56c4.5.26,13.39,1.39,13.39,5a1.44,1.44,0,0,1-1.39,1.58c-.88,0-1.5-.44-2.67-1.28a36.27,36.27,0,0,0-9.44-4.58Z"/><path class="cls-2" d="M60.59,157.26c.84.29.95.55.95.77,0,.55-.37.69-1.54.8a55.72,55.72,0,0,1-3.22,6.84l.73.08c.33,0,.7.18.7.55s-.33.66-1.1,1v15.44s.07,4.76.07,5.67c0,.55,0,1.4-2.27,1.4-1,0-1-.44-1-1.1,0-.3.07-4.87.07-5.38v-13.1A29.61,29.61,0,0,1,49.13,176l-.55-.47c3.66-6.41,7.36-13.36,8.35-19.58Zm9.25-.81c1,.15,1.14.37,1.14.59,0,.51-.33.66-1.06,1a69.62,69.62,0,0,0,.44,8.86l6.18-.7,1.32-2.37a.64.64,0,0,1,.55-.41,1.12,1.12,0,0,1,.55.22L82,166a1.15,1.15,0,0,1,.47.84c0,.59-.54.66-.8.7l-11.09,1.24c.81,5.45,1.76,8.86,4.06,12.3,1.39,2,3,3.51,3.92,3.51.26,0,.62,0,1.21-1.17.33-.66,1.31-2.75,2-4.1l.7.22c-.37,1.9-1,5.27-1,5.63a1.49,1.49,0,0,0,.26,1c.62.91.73,1,.73,1.35s-.37,1.61-2.12,1.61c-.81,0-10-.59-12.85-19.94l-5.6.62a15.07,15.07,0,0,0-2.67.48l-.95-2.13c1.21,0,2.38-.14,3.44-.25l5.53-.62c-.37-3.77-.41-4.4-.63-10.07,0-.51,0-.88-.07-1.24Zm2.49.81c1.69.26,6.48,1.46,6.48,4.68a1.66,1.66,0,0,1-1.61,1.83c-.59,0-.7-.18-1.68-1.75a17.36,17.36,0,0,0-3.48-4.1Z"/><path class="cls-2" d="M94.22,156.86c.59.18.88.29.88.73s-.29.55-1.17.77c-.73,2.23-1.17,3.44-2.74,7.31,1,.12,1.46.19,1.46.7s-.44.62-1.06.84v15.92c0,.69.07,4.21.07,5,0,1.06,0,1.76-2.19,1.76-1,0-1-.51-1-.88,0-.73.07-4.46.07-5.34V170.91A19.73,19.73,0,0,1,84.71,176l-.59-.4c4.21-9,6.15-15.51,6.55-19.76Zm10.06,5.6h-7a23.2,23.2,0,0,0-2.67.14l-.73-2.19c1,.07,2.16.14,3.59.14h6.76c0-.84,0-2.67-.14-4.57l3.44.47c.33,0,.91.11.91.59,0,.26-.07.55-1.28,1v2.49h5.89l1.32-1.9a.65.65,0,0,1,.51-.33.86.86,0,0,1,.59.29l2.71,2.45a1.25,1.25,0,0,1,.4.74c0,.66-.88.66-1.06.66H107.21v3.69h4.94l.95-1.35c.15-.22.26-.33.44-.33a.76.76,0,0,1,.51.25l2.24,1.94a.9.9,0,0,1,.36.7c0,.36-.25.62-1.28,1.32v3.25c0,.77.15,4.17.15,4.87,0,1.06-1.14,1.28-2.16,1.28s-.88-.37-.88-1.46h-5.6a15.37,15.37,0,0,1-2,6.25c3.88,2,8.78,2.49,14.2,2.67l0,.74a3.56,3.56,0,0,0-2.37,3,28.41,28.41,0,0,1-13.07-4.65c-2.41,2.78-5.85,4.5-10.24,5.38l-.19-.69c4.25-1.91,6.92-4,8.49-6.33a18.39,18.39,0,0,1-3.33-5,5.14,5.14,0,0,1-1.5.22c-.87,0-.91-.55-.91-1,0-.69.14-3.84.14-4.5v-3.07c0-1.17,0-3.26-.14-5.09l3.44,1.61h4.86ZM99,177.53a16.52,16.52,0,0,0,3.62,3.88,14.08,14.08,0,0,0,1.32-4.79H99a1.91,1.91,0,0,1-.11.95Zm5.3-9.48H99v6.66h5.08c.07-1.57.18-3.18.18-5.78Zm2.93.92c0,2.63-.07,4.17-.18,5.74h5.45v-6.66h-5.27Z"/><path class="cls-2" d="M148.66,158.39l1-1.35a.59.59,0,0,1,.51-.37.86.86,0,0,1,.55.26l2.41,1.94c.26.22.44.4.44.69,0,.44-.15.55-1.35,1.47v20.6c0,1.1.07,4.06.07,4.72,0,2.05-.33,3.18-4.68,3.58,0-1,0-2.45-4.5-3.47v-.7l4.9.11c.91,0,1-.11,1-.87v-7.69h-8.81v6.92c0,.62.11,3.29.11,3.84,0,.8-.44,1.39-2.2,1.39-1.06,0-1.21-.29-1.21-.84s.15-3.66.15-4.25v-7.06h-9.15c-1.24,8.53-5.27,11.78-6.11,12.48l-.55-.48c3.18-5.52,4-10.35,4-21.55v-7c0-2.05-.08-3-.15-3.88l3.7,1.53Zm-20.23,10.32c0,2.64-.18,5.31-.33,6.7H137v-6.7Zm0-8.41v6.51H137V160.3ZM149,166.81V160.3h-8.81v6.51Zm0,8.6v-6.7h-8.81v6.7Z"/><path class="cls-2" d="M167,171.31c.77.33,5.71,2.85,5.71,6.26a1.61,1.61,0,0,1-1.46,1.79c-.7,0-.77-.22-1.54-2.23a16.36,16.36,0,0,0-2.71-4.61V183c0,.92.08,4.83.08,5.64s-.52,1.31-2.13,1.31c-.77,0-.91-.29-.91-1,0-.88.07-5.38.07-5.6v-8a28.1,28.1,0,0,1-7,8.56l-.58-.48c5.34-7.28,6.47-11.26,7.06-13.31h-3a22.1,22.1,0,0,0-2.71.14L157.2,168c1.06.07,2.23.14,3.69.14h3.26v-8c0-1.36-.07-2.75-.18-4.21l3.51.44c.37,0,.88.14.88.62s-.37.62-1.32,1v10.1h3l.92-1.31c.14-.22.25-.37.51-.37a.87.87,0,0,1,.55.26l1.94,2a1.21,1.21,0,0,1,.36.7c0,.62-.69.66-1,.66H167Zm-8.71-12.66c.81.55,4.47,3.18,4.47,6a1.68,1.68,0,0,1-1.5,1.9c-.84,0-1-.7-1.28-1.94a17.52,17.52,0,0,0-2.27-5.52ZM173.19,160c.73.3,1,.44,1,.81,0,.55-.62.62-1.36.69a30.86,30.86,0,0,1-4.35,5.49l-.62-.44a25,25,0,0,0,2.74-7.64Zm14.12,15.34.62-1.65c.08-.18.22-.51.48-.51a.8.8,0,0,1,.51.22l2.24,1.57a1,1,0,0,1,.47.77c0,.55-.58.66-.84.73l-4.14,1v5.34c0,.91.11,5.3.11,5.78s0,1.32-2.26,1.32c-.92,0-1-.33-1-1.06,0-.88.07-4.69.07-5.46v-5.15l-7.06,1.68a24,24,0,0,0-2.67.8l-1.25-2c1-.15,2.67-.48,3.63-.7l7.35-1.83V160.63c0-.66,0-2.79-.18-4.62l3.66.44c.36,0,.95.11.95.63s-.4.62-1.36,1v17.38Zm-12.4-7.69c1.83.55,6,2.42,6,5.45a1.69,1.69,0,0,1-1.61,1.8c-.73,0-1-.48-1.68-2a22.81,22.81,0,0,0-3.15-4.68Zm.4-9.55c1.72.55,6.15,2.38,6.15,5.38a1.63,1.63,0,0,1-1.5,1.79c-.73,0-.92-.29-2.31-2.89a16.79,16.79,0,0,0-2.74-3.66Z"/><path class="cls-2" d="M226,180.56c0,2.8.46,4,3.77,4h2.62v2.34H212.07v-2.34h2.62c3.37,0,3.77-1.31,3.77-4V145.93l-5.71,1-.29-2.28L226,142.05Z"/><path class="cls-2" d="M266.6,143v4.28c-12.33,16.37-14.89,25.67-15.29,36.22-.06,1.54-.17,4.34-4.34,4.34-1.48,0-4.16-.4-4.16-3.48,0-3.88,3.48-11.35,4-12.44,3.48-7.41,11.7-18.94,14.15-22.13H245.66c-3.37,0-5.48.45-6.62,4.67l-.23.86h-3L238.36,143Z"/><path class="cls-2" d="M284.11,142.05c7.3,0,15.4,6.34,15.4,22.88s-8.21,22.88-15.4,22.88c-7.36,0-15.4-6.39-15.4-22.88C268.71,147.93,277.21,142.05,284.11,142.05Zm0,42.74c2.85,0,7.53-.46,7.53-19.86s-4.68-19.85-7.53-19.85-7.53.45-7.53,19.85S281.31,184.79,284.11,184.79Z"/><path class="cls-2" d="M328.59,168.53l1-1.39c.15-.22.3-.37.52-.37a1,1,0,0,1,.54.3l2.53,2c.36.3.44.48.44.7,0,.51-.55.88-1.39,1.39-.62,17.64-3.22,18.37-9.08,18.44,0-1.13-.07-2.71-4.72-3.66l.08-.73c5.34.4,5.92.44,6.58.44,1.54,0,2.2-.69,2.86-3.73a66.22,66.22,0,0,0,1-11.53H316.59c-.8,6.26-2.53,14.09-12.77,19.29l-.37-.63c9.7-7.64,10.36-16.72,10.36-28.57h-7.14c-.73,0-1.42,0-2.89.14l-.69-2.19c1.06.07,2.19.14,3.69.14H331l1.61-2.27c.11-.18.22-.36.51-.36s.29.07.55.29l3,2.75a1.2,1.2,0,0,1,.4.84c0,.66-.62.66-.91.66h-19c0,3.29-.11,5.15-.33,8Z"/><path class="cls-2" d="M366.28,158.69l1-1.39a.61.61,0,0,1,.51-.37,1.08,1.08,0,0,1,.59.26l2.38,2.05a.76.76,0,0,1,.43.69c0,.37-.14.48-1.35,1.43v21.29c0,4.1,0,4.58-.26,5.24s-1.06,1.64-4.42,1.9c0-1.21-.11-2.6-4.58-3.59v-.73l4.83.15c1,0,1.21-.22,1.21-1.06v-10H344.69v9.84c0,.51.08,3.33.08,3.59,0,1,0,1.83-2.38,1.83-.73,0-1-.22-1-1,0,0,.07-4.72.07-4.9v-22.5c0-2.75-.07-3.63-.14-4.47l3.8,1.69Zm-21.59,1.9v12.07h9.41V160.59Zm21.92,12.07V160.59h-9.37v12.07Z"/><path d="M163.32,205.26h7.16l-.29,1.71h-6l-.27,3.73c.34,0,.93-.09,1.71-.09s6,0,6,4.41c0,2.86-2.58,5-6.15,5-2,0-3.66-.7-3.66-1.93a1,1,0,0,1,1-1c.62,0,.83.4,1.17,1.1.19.38.49.81,1.67.81,2,0,4.16-1.13,4.16-3.56,0-3.18-3.29-3.18-4.6-3.18a16.93,16.93,0,0,0-2.44.17Z"/><path d="M176.51,218.58a1.41,1.41,0,1,1-1.4-1.4A1.4,1.4,0,0,1,176.51,218.58Z"/><path d="M183.33,204.94c2.76,0,5,2.54,5,7.54s-2.31,7.52-5,7.52-5-2.43-5-7.52C178.35,207.22,180.77,204.94,183.33,204.94Zm0,14.05c3,0,3-4.5,3-6.51,0-2.31-.1-6.53-3.07-6.53s-3.05,4-3.05,6.53C180.28,215.34,180.54,219,183.38,219Z"/><path d="M207.16,219.54c-1.06.46-1.19.57-1.55,1.46a13.24,13.24,0,0,1-5-4,12.56,12.56,0,0,1-2.36-5.57h-4.32c0,2.33-.44,6.89-4.6,9.85L189,221c1.46-1.87,3.26-4.54,3.26-9.94v-4.6c0-.59,0-1.69-.07-2.29l1.87.83h9.11l.49-.68c.11-.15.19-.19.27-.19a.45.45,0,0,1,.28.13l1.29,1.08a.41.41,0,0,1,.21.34c0,.13,0,.29-.67.72v2.75c0,.38.06,2,.06,2.35s0,.77-1.21.77c-.53,0-.53-.19-.53-.49v-.36h-4.55c1.29,4,4.11,6.53,8.35,7.74ZM193.89,206v4.45h9.47V206Z"/><path d="M210.19,206.91l4.62,4.62,4.62-4.62.95,1-4.62,4.62,4.62,4.62-.95,1-4.62-4.62-4.62,4.62-.95-1,4.62-4.62-4.62-4.62Z"/><path d="M225.12,205.26h7.15L232,207h-6l-.27,3.73c.34,0,.93-.09,1.71-.09s6,0,6,4.41c0,2.86-2.58,5-6.16,5-1.95,0-3.65-.7-3.65-1.93a1,1,0,0,1,1-1c.63,0,.84.4,1.18,1.1.19.38.49.81,1.66.81,2,0,4.17-1.13,4.17-3.56,0-3.18-3.29-3.18-4.6-3.18a16.93,16.93,0,0,0-2.44.17Z"/><path d="M238.31,218.58a1.41,1.41,0,1,1-1.4-1.4A1.41,1.41,0,0,1,238.31,218.58Z"/><path d="M245.13,204.94c2.76,0,5,2.54,5,7.54s-2.31,7.52-5,7.52-5-2.43-5-7.52C240.15,207.22,242.57,204.94,245.13,204.94Zm.05,14.05c3,0,3-4.5,3-6.51,0-2.31-.09-6.53-3.06-6.53s-3,4-3,6.53C242.08,215.34,242.34,219,245.18,219Z"/><path d="M269,219.54c-1.06.46-1.19.57-1.55,1.46a13.24,13.24,0,0,1-5-4,12.44,12.44,0,0,1-2.36-5.57h-4.32c0,2.33-.44,6.89-4.6,9.85l-.29-.27c1.46-1.87,3.26-4.54,3.26-9.94v-4.6c0-.59,0-1.69-.08-2.29l1.88.83H265l.49-.68c.11-.15.19-.19.27-.19a.48.48,0,0,1,.28.13l1.29,1.08a.39.39,0,0,1,.2.34c0,.13,0,.29-.66.72v2.75c0,.38.06,2,.06,2.35s0,.77-1.21.77c-.53,0-.53-.19-.53-.49v-.36h-4.55c1.29,4,4.11,6.53,8.35,7.74ZM255.69,206v4.45h9.47V206Z"/><path d="M279.49,221.91V203.09h4.76a17.69,17.69,0,0,0,0,18.82Z"/><path d="M293.17,207c.36.2.41.34.41.43,0,.3-.32.3-.83.3a25.22,25.22,0,0,1-3.84,4.25c.21,0,2.63-.16,3.12-.17a6.5,6.5,0,0,0-.85-1.44l.26-.27c1,.59,2.5,1.69,2.5,2.9,0,.51-.3,1-.77,1s-.48-.36-.55-.61a8,8,0,0,0-.36-1.11l-1.46.36v5.7c0,.34,0,1.78,0,2.06s0,.8-1,.8c-.44,0-.57-.14-.57-.57s0-1.95,0-2.27v-5.34c-.36.07-1.9.43-2.22.51-.06.39-.15.57-.34.57s-.27-.16-.36-.46l-.55-1.7c1,.05,1.27.05,2.25,0a22.77,22.77,0,0,0,3.6-5.88Zm-4.53,8c.4.13.44.24.44.36s-.32.32-.59.36a14.56,14.56,0,0,1-2.27,4.43l-.36-.15a18.58,18.58,0,0,0,1.31-5.46Zm-2.31-8.43a8.42,8.42,0,0,1,1.69.8,12.52,12.52,0,0,0,1.42-3.68l1.8.78c.17.07.41.23.41.4,0,.34-.41.32-.81.3a17.61,17.61,0,0,1-2.31,2.56,2.1,2.1,0,0,1,.93,1.47.92.92,0,0,1-.78,1c-.36,0-.42-.11-.85-1a6.46,6.46,0,0,0-1.69-2.26Zm5.49,7.86c.21.13,2.45,1.67,2.45,3.46a.94.94,0,0,1-.82,1.05c-.43,0-.49-.23-.7-1.12a9.25,9.25,0,0,0-1.19-3.13Zm9.13-7.4c.08-.1.17-.23.3-.23s.19.06.38.23l1.12.94c.11.1.27.25.27.42s-.06.26-.74.62c-.12,10.91-.27,12.16-4.45,12.18,0-1.06-.4-1.23-2.07-1.86l0-.38c.49,0,2.67.23,3.13.23s1.09,0,1.32-1.27c.32-1.87.36-3.5.44-9.26h-4.89a12.5,12.5,0,0,1-2.27,2.88l-.32-.23c2-3.9,2.48-5.75,2.76-7.65l1.76.55c.25.08.59.19.59.44s-.27.32-.74.4a28.51,28.51,0,0,1-1.25,2.63h4.17Zm-5.59,3.82c1.48.87,3.45,2.52,3.45,4,0,.66-.38,1.17-.91,1.17s-.62-.3-.85-1a14.12,14.12,0,0,0-1.95-3.83Z"/><path d="M311.48,218a1.75,1.75,0,0,0,1.93-1.55l1,.11-.72,3.14h-8.62V218.5c5-4.68,6.93-6.68,6.93-9.45,0-1.47-.78-3-2.59-3-.61,0-2.3.19-3.28,2.55l-.87-.45a4.81,4.81,0,0,1,4.56-3.24,3.81,3.81,0,0,1,4.09,4c0,2-1,3.59-3.56,6-.51.47-2.82,2.56-3.27,3Z"/><path d="M319.79,218.58a1.4,1.4,0,0,1-1.4,1.42,1.41,1.41,0,1,1,0-2.82A1.4,1.4,0,0,1,319.79,218.58Z"/><path d="M328.87,218a1.74,1.74,0,0,0,1.93-1.55l1,.11-.72,3.14h-8.62V218.5c5-4.68,6.93-6.68,6.93-9.45,0-1.47-.78-3-2.59-3-.61,0-2.29.19-3.28,2.55l-.87-.45A4.81,4.81,0,0,1,327.2,205a3.81,3.81,0,0,1,4.09,4c0,2-1,3.59-3.56,6-.51.47-2.82,2.56-3.27,3Z"/><path d="M335.39,219a7.42,7.42,0,0,0,5.91-6,4.38,4.38,0,0,1-3.48,1.48c-3,0-4.28-2.33-4.28-4.6a4.69,4.69,0,0,1,4.84-4.91c2.92,0,5,2.16,5,5.95a9,9,0,0,1-8,9.11Zm3-13c-2.1,0-2.93,1.76-2.93,3.67,0,1.08.23,3.73,2.82,3.73a3.6,3.6,0,0,0,3.14-2.08C341.51,208.75,340.87,206,338.38,206Z"/><path d="M349.8,219.69h-4.35v-.75c1.1,0,1.36-.21,1.36-1.27v-6.33c0-.45,0-.92-.64-.92a3.2,3.2,0,0,0-.63.07l-.07-.76,3-.53v1.65a4.06,4.06,0,0,1,3.28-1.65,2.4,2.4,0,0,1,2.51,1.71,4.13,4.13,0,0,1,3.36-1.71,2.57,2.57,0,0,1,2.76,2.9v5.57c0,1.08.27,1.27,1.37,1.27v.75h-4.36v-.75c1.08,0,1.36-.19,1.36-1.27V212.2a1.54,1.54,0,0,0-1.61-1.8,2.9,2.9,0,0,0-2.74,2.46v4.81c0,1.08.26,1.27,1.36,1.27v.75h-4.35v-.75c1.07,0,1.34-.19,1.34-1.27V212.2c0-.42,0-1.8-1.5-1.8a3,3,0,0,0-2.78,2.48v4.79c0,1.08.27,1.27,1.36,1.27Zm11.31-11.94c.45,0,.53-.19.61-.53l.45.05-.25,1.29h-3.05V208c.93-.81,2.26-1.93,2.26-2.82a.67.67,0,0,0-.7-.74c-.48,0-.76.34-.95.79L359,205a1.7,1.7,0,0,1,1.63-1.16,1.29,1.29,0,0,1,1.42,1.31c0,.38-.1.83-1,1.73-.16.13-.82.75-.95.87Z"/><path d="M368.72,203.09v18.82H364a17.69,17.69,0,0,0,0-18.82Z"/></svg>