<?xml version="1.0" encoding="utf-8"?>
<!-- Generator: Adobe Illustrator 25.2.0, SVG Export Plug-In . SVG Version: 6.00 Build 0)  -->
<svg version="1.1" id="レイヤー_1" xmlns="http://www.w3.org/2000/svg" xmlns:xlink="http://www.w3.org/1999/xlink" x="0px"
	 y="0px" viewBox="0 0 834.7 84.3" style="enable-background:new 0 0 834.7 84.3;" xml:space="preserve">
<style type="text/css">
	.st0{fill:#006837;}
	.st1{opacity:0.5;}
</style>
<g>
	<g>
		<path class="st0" d="M261.9,6.1l3.2-4.8c2.4,2.1,6.2,7,6.2,7.6c0,0.7-2.4,0.9-3.7,1v58.2c0,8.7,0,14.4-12.8,14.8
			c-0.4-2.6-0.7-4.1-11.9-5.6l0.1-2.7c5.9,1.2,13.9,1.9,15.3,1.9c5.1,0,5.1-1.8,5.1-6.4V42.9h-65.2v40H194V2.1l5.6,4H261.9z
			 M198.2,39.9h30.2V9.2h-30.2V39.9z M263.4,39.9V9.2h-30.9v30.7H263.4z"/>
		<path class="st0" d="M333.3,71.5c0,3.9,0,4.4,0.8,5.2c1.3,1.2,8.6,1.2,12.1,1.2c8.5,0,9.3-0.4,10-3.1c1.5-5.6,2.9-17.1,3.1-19.1
			l2,0.3c-0.3,3.4-0.8,16.9-0.9,20.2c1.6,0.3,3.9,0.5,3.9,2.9c0,1.7-1.1,2.4-2.7,2.8c-4.3,0.9-12.3,1-16.9,1
			c-12.1,0-15.7,0-15.7-9.4v-36h-14.5c-0.8,13-3.1,23.1-8.4,30.5c-4.4,6.2-13,13.2-25.2,16.2l-0.7-2.4c18.1-6.7,28.7-17.7,29.5-44.3
			h-24.6l-3.7,0.4l-0.5-4.1l6,0.7h33.5V0.3l6.6,0.9c1.5,0.2,2.8,0.4,2.8,1.5c0,1.5-3.7,2.1-5.1,2.2v29.6h28.8l4.3-6.5
			c2.8,2.7,4.6,5,6.9,7.9l-1.1,1.6h-30.3V71.5z M290.8,2.2c10.6,6.8,18.3,15,18.3,23.3c0,1.7-0.4,4.1-2.2,4.1
			c-1.3,0-1.5-0.5-3.4-5.6c-3.1-8.3-7.3-14.3-14-20.2L290.8,2.2z M353.2,5.3c0.7,0.4,2.1,1.5,2.1,2.5c0,1-1.1,1-2.1,1
			c-0.4,0-0.9-0.1-1.8-0.3C350,11.1,343.1,23,335,31.4l-1.6-1.4c4.9-6.3,12.3-21.8,14.3-28.5L353.2,5.3z"/>
		<path class="st0" d="M446.2,29.6l3.5-6.2c2.9,2.7,4.5,4.6,7,7.7l-1,1.6h-19v13.5h7.6l3.5-6.2c3.7,3.5,5.6,6.1,7,7.7l-1.1,1.6h-17
			v23.7c0,7.4-2.1,9.5-11.4,11.1c-0.7-3.5-1.4-3.6-13.6-5.7L412,75c3.7,0.7,9.8,1.8,14.8,1.8c5.6,0,5.6-1,5.6-4.8V49.2h-52.7
			l-5.2,0.3l-1.1-4l6,0.7h53V32.6h-54.3l-5.1,0.2l-1.2-3.8l5.9,0.6H412V14.4h-27.8l-5.3,0.2l-1-3.8l5.9,0.6H412V0l6.6,0.4
			c0.5,0,2,0.1,2,1.3c0,0.8-0.4,1.2-4.3,2.1v7.5H440l3.5-6.2c2.7,2.5,5.8,6.3,7,7.7l-1.1,1.6h-33v15.3H446.2z M385.9,52.1
			c18.4,8.1,20.4,16,20.4,19.4c0,2.6-1.1,3.3-1.9,3.3c-1.5,0-2.1-1.2-4.1-4.8c-5.1-9.5-12.7-13.8-15.6-15.6L385.9,52.1z"/>
		<path class="st0" d="M488.6,11.5h-20.9l-2.8,0.3l-1.2-3.8l4,0.5h20.9V0.3l5.8,0.4c1.5,0.1,2.8,0.3,2.8,1.2c0,1.1-1.6,1.4-4.3,2
			v4.5h25.3V0.5l5.8,0.4c1.4,0.1,2.8,0.3,2.8,1.2s-1.6,1.3-4.3,2v4.4h15.1l3-5.3c1.5,1.2,2.3,1.9,6.5,6.6l-1,1.7h-23.6v6.1h9.9
			l3.1-3.7c3.8,3.7,6.1,6.4,6.1,7c0,0.6-1.6,0.7-3.5,0.8v21.7h-4.3v-2.6h-34.5c-1.7,2.8-3.2,5-5.6,8.1h44l3.1-5.3
			c2.3,1.9,3.1,2.9,6.4,6.6l-1,1.7h-26.1c7.9,6.6,15.7,9,27.8,10.3l-0.4,2.5c-2.6,0.2-3.1,2.7-3.3,3.7c-5.8-1.3-17.6-4.1-28-16.5
			H491c-9.5,10.3-19.9,16.3-27.3,20.4l-1.2-2.3c11.7-6.9,18.9-13.8,22.7-18.1h-18.6l-2.8,0.4l-1.2-3.8l4,0.4h21.2
			c2.9-3.7,3.7-5,5.4-8.1h-15.6v3.2h-4.3V14.4l4.4,3.2h10.8V11.5z M503.2,66.7h-20.1l-0.8-3h20.9v-8.2l5.9,0.4
			c1.2,0.1,2.2,0.2,2.2,1.2c0,1.4-1.9,1.9-3.8,2.1v4.5h9.8l2.9-4.6c2.1,1.9,5.6,6,6.2,6.5l-0.8,1.2h-18v12.7h29l3.1-5.3
			c2.1,1.7,2.8,2.4,6.5,6.7l-1.1,1.6h-76.7l-2.8,0.3l-1.2-3.7l4,0.4h34.9V66.7z M477.7,27.4h56.1v-6.8h-56.1V27.4z M477.7,37.6h56.1
			v-7.1h-56.1V37.6z M518.2,17.6v-6.1h-25.3v6.1H518.2z"/>
		<path class="st0" d="M608.4,0.6l6.5,0.4c0.9,0.1,2.4,0.2,2.4,1.2c0,1.6-1.9,2-4.6,2.5v17.5l15.8-8.6l2.6-5.6
			c0.2,0.2,6.8,5.3,6.8,6.3c0,0.9-2.1,1.4-3.5,1.7c0,8,0,35.2-2.4,41c-1.6,4-5.3,4.6-9.7,5.4c-0.6-2.8-0.9-4-8-4.7v-2.2
			c4.4,0.6,7.5,0.8,9.5,0.8c2.4,0,4.6,0,5.1-4.5c0.7-8.3,0.8-8.5,1.2-35.6l-17.3,9.4v38.7h-4.3V27.9l-15.2,8.3v35.4
			c0,3.2,0.2,4.1,1.2,4.7c1.3,0.8,9.5,1.1,11.3,1.1h13.7c3.2,0,12,0,12.8-1.2c1.2-2,2.9-13.9,3.3-17.1l1.7,0.1
			c-0.4,4.3-0.6,15.4-0.6,16.8c1.4,0.1,3.3,0.3,3.3,2.4c0,2.1-2.1,2.7-3.5,2.9c-0.7,0.1-7.1,0.7-15.8,0.7h-15c-12,0-16.7,0-16.7-9.3
			v-9.6c-7,3-20.6,8.7-30.1,11.9c0,0.4,0.2,2.6-0.9,2.6c-0.6,0-1.2-1-1.7-2.1l-2.2-5.4c3.5-0.6,5.1-1,12.8-3V27.7h-12.3l-0.7-3.7
			l4.5,0.6h8.6V0.3l6.7,0.4c0.5,0,2.2,0.3,2.2,1.2c0,1.5-1.8,1.9-4.6,2.3v20.5h5.1l3-5.4c3.7,3.7,4.9,5.5,6.1,7.3l-0.4,1.2h-13.7v38
			c7.2-2,10.3-2.8,17.8-5.4V38.4l-7.9,4.4l-1.9,1.5l-2-3.2l4.8-2.1l7-3.8V9l6.6,0.5c0.9,0.1,2.1,0.2,2.1,1.2c0,1.7-3.4,2.1-4.4,2.1
			v20l15.2-8.3V0.6z"/>
	</g>
	<g class="st1">
		<path class="st0" d="M96.8,33.9c5.4,0.8,10.8,4.5,11.9,10.2c-0.1,3.8,0.4,8.4-1.3,11.8c-0.3,3.3-2.6,6.3-3.9,9.5
			c-4.3,4.8-9.3,10.6-16.7,9.1c-3.6-0.1-5.5-3.9-7.8-5.4c-2.8,1-5.4,2.7-8.9,2c-1.4,0.8-2.3-0.1-3.3,0.2c-6.6-0.5-12.9-2.2-18.7-4.1
			c-8.4-4.6-16.8-10.6-26.9-11.5C15,54.5,8.1,54.7,1.8,56.2c-0.6-0.5-2.4-0.8-1.7-2.2l1.1-0.8c20.9-8.6,49.6-4.8,67.7,8.7
			c4,1.7,10.2,2.7,13.7-0.9c2.9-2.8,8.4-2.8,9.5-7.8c1.4-4.8-0.7-9.2-3-12.9c-2.4-1.6-4.7-3.2-7.9-2.8c-4.3,0.8-9.5,3.3-10.6,8.1
			c0.4,2.2,2.2,4.2,4.1,5.6c1.1,0.2,2.6-0.9,3-2.2c1.7-2.3-0.5-5.1-0.4-7.2c3.7,0.9,7,2.2,8.5,6.1c1.1,4.4-1.8,8.5-5,10.7
			c-5.6,2.2-9.9-2.3-15.5-2c-4-0.9-3.4-5.5-6.1-8c-0.8-2.8,0.4-5.8,2.7-7.8c2.9-2.1,6-3.7,9.5-4.5c3-4.8,7.4-9.2,13-9.8
			C89.8,26.7,94,29.8,96.8,33.9z"/>
		<path class="st0" d="M63.6,42.7c-1.5,1.4-2.2,3.2-2,4.8c1.1,1.3,1.7,2.7,2.2,4c0.7,1.8,1.1,2.5,2,2.8c2.6,0,5,0.7,7,1.5
			c2.6,0.9,4.7,1.6,7,0.8c2.4-1.7,4.5-4.8,3.8-7.8c-0.6-1.5-1.6-2.4-2.8-3.1c0.3,1.4,0.2,3-0.8,4.6c-0.9,2.2-3.4,3.8-5.6,3.5
			l-0.6-0.1l-0.5-0.4c-2.8-2.1-4.5-4.6-5-7.1l-0.1-0.5l0.1-0.5c0.6-2.6,2.2-4.9,4.7-6.7l-0.9,0.2C69.2,39.3,66.5,40.6,63.6,42.7z"/>
		<path class="st0" d="M135.4,29.3l1.1,3c5.2,1.5,9.6,5.9,10.4,11.3c0,3.1,0.4,6.9-1.9,9.4c-2.8,3.2-7.1,4.5-11.5,4.8
			c-2.6,3.7-5.4,9.7-11.1,9.1c-4.3,0.3-8.3-1.7-10.4-5.4c-3.3-7.4-2.7-16.3,2.8-22.6c2.1-2.1,5.1-3,7.8-1.9c1.4,0.6,2.8,1.2,3.5,2.8
			c1.1,2.8,0.7,5.8-1.3,8.1c-1.7,1.1-3.6,3.3-5.7,2.2c-1-0.9-0.5-2.3-0.6-3.5c0.8-0.8,1.1-2.2,0.6-3.3c-0.4-0.2-0.7-0.6-1.3-0.4
			c-1.7,1.3-2.4,2.2-3.3,3.9c-0.2,2.9,2,5.2,4.4,6.7c4.5,1,8.5-1.3,11.9-3c2.5-3.5,2.7-8.6,0.7-12.4c-1.5-2.4-3.9-4.3-6.5-4.6
			c-6-1.9-9.7,4.4-15.5,2.2c-2.6-0.8-3.6-3.3-5-5.4c2.2,0.7,4.2,1.1,6.5,0c4.4-4.7,10.9-7.2,17.4-5.4
			C131,25.7,133.7,26.9,135.4,29.3z"/>
		<path class="st0" d="M66.4,17.6c6.2-0.1,13.2-0.5,17.4,4.6c0.7,1.2,0.1,2.5-1.3,2.6c-6.3,1.4-12.6-0.2-17.4-3.7
			c-1.8-0.1-3.6,0-4.8,1.3c-2.5,3.7-6.9,4.4-11.1,4.6c-1.2,3-2.4,6.1-0.7,9.1c1.5,3.2,4.8,5.5,7.9,6.9v0.5
			C49.9,43,42,43.4,38.2,37.1c-1.1-2.2-0.7-5.3,0.4-7.4c0,0,0.3-1.4,1.5-2.4c1.7-1.3,3.7-2.1,5.9-2.4c0.1-4.1,3.7-7.4,6.9-9.3
			C57.4,13.7,62.6,15.3,66.4,17.6z"/>
		<path class="st0" d="M41.6,29.2c-0.4,0.4-0.6,0.9-0.7,1.1l-0.1,0.3l-0.2,0.3c-0.9,1.5-1,3.8-0.4,5c1.8,2.9,4.9,4,8.4,4.5
			c-0.9-1-1.7-2.1-2.3-3.4l0.1,0.1c-2-3.5-1-7.1,0-9.8l-0.2,0C44.6,27.6,43.1,28.2,41.6,29.2z"/>
		<path class="st0" d="M67.7,20c4,2.4,8.5,3.4,13.1,2.6C77.6,19.9,72.6,19.9,67.7,20z"/>
		<path class="st0" d="M54,17.8c-1.4,0.9-5.2,3.4-5.6,6.7l0.7,0c4.2-0.2,7.4-0.8,9.2-3.5l0.1-0.2l0.1-0.2c1.4-1.4,3.1-1.9,4.7-2
			C60.9,17.5,57.2,16.4,54,17.8z"/>
		<path class="st0" d="M144.5,43.9c-0.7-4.2-4.2-7.9-8.7-9.2l-1.2-0.3l-0.4-1.2l-0.9-2.6c-1.4-1.8-3.6-2.7-5.5-3.5
			c-5.1-1.4-10.8,0.4-14.9,4.8l-0.4,0.5l-0.6,0.2c-0.7,0.2-1.5,0.4-2.2,0.5c0.2,0.1,0.4,0.3,0.7,0.3l0.1,0l0.1,0
			c1.9,0.7,3.4,0.1,5.9-1c2.4-1.1,5.5-2.4,9.2-1.3c3.1,0.4,6.2,2.6,8.1,5.7l0,0l0,0c2.5,4.6,2.2,10.7-0.8,14.9c0,0-0.4,0.5-0.4,0.5
			l-0.5,0.3l-0.8,0.4c-3.5,1.7-7.8,3.9-12.7,2.8l-0.4-0.1l-0.4-0.2c-2.6-1.7-4.4-3.8-5.1-6c-0.5,3.5,0,7.3,1.6,10.9
			c1.6,2.8,4.6,4.4,8.1,4.1l0.2,0l0.2,0c3.1,0.3,5-2.2,7.5-6.1c0.5-0.7,0.9-1.4,1.4-2.1l0.7-0.9l1.1-0.1c3.1-0.2,7.3-1,9.8-3.9l0,0
			l0,0c1.3-1.4,1.3-4,1.3-6.5V43.9z"/>
		<path class="st0" d="M71.6,27.4c0.8,2.7-2.4,4-3.9,5.2c-1,0.6-2.9,0.6-3.9,0c-1.2-1.2,0.1-5-2.8-3.9c-0.9,1-2.8,2.2-1.7,3.4
			c1.2-0.1,1.5,1.2,1.9,2c-0.1,1,0.2,2.1-0.8,2.6c-2.7,0.8-6,0.6-8.3-0.8c-2.2-3.2,2.4-5.6,3.9-8.3c3.9-3.1,10.4-3.5,14.8-1.3
			L71.6,27.4z"/>
		<path class="st0" d="M106.3,44.3c-1.1-4.7-5.7-7.4-9.9-8.1l-1-0.2l-0.6-0.8c-1.6-2.3-5-6.1-10.1-6.3c-5.4,0.7-9.2,5.7-11.1,8.6
			l-0.5,0.8c2.1-1.5,4.7-2.6,7.8-3.2l0.1,0l0.1,0c3.9-0.5,6.8,1.4,9.3,3.1l0.2,0.1l0.4,0.3l0.3,0.4c2.5,3.8,5,9,3.3,14.7
			c0,0,0,0,0-0.1l-0.1,0.2c0,0,0-0.1,0-0.1c-1,4.2-4.3,5.8-7,7c-1.3,0.6-2.5,1.1-3.2,1.9c-4.3,4.4-11.5,3.5-16.4,1.4L67.8,64
			l-0.2-0.2c-14.8-11-37.2-15.2-55.8-11.3c3.3-0.1,6.6,0.1,9.7,0.7c8.7,0.9,15.9,5,22.9,9c1.5,0.9,3.1,1.8,4.7,2.6
			c6.5,2.1,12.3,3.4,17.6,3.9c0.8-0.1,1.5,0.1,1.9,0.2c0,0,0,0,0,0l0.9-0.1l1-0.3c2.1,0.4,3.8-0.3,5.8-1.2c0.6-0.2,1.2-0.5,1.8-0.7
			l1.2-0.4l1,0.7c1,0.7,1.8,1.6,2.7,2.4c1.6,1.6,2.6,2.6,3.9,2.6h0.2l0.2,0c5.8,1.2,10.1-3.5,14.2-8.1l0,0c0.4-1,1-2,1.4-2.9
			c1-1.9,2-3.8,2.1-5.5l0-0.5l0.2-0.4c1.1-2.1,1.1-5.1,1-8C106.3,45.9,106.3,45.1,106.3,44.3z"/>
		<path class="st0" d="M57.2,50.8c0.4,0.4,0.2,1.1,0.2,1.7c-0.5,0.7-1.8,0.5-2.4,0.2C43.2,45,25.3,41.8,11.6,48
			c-0.7,0.1-1.4,0.3-1.7-0.7l0.6-1.3C24.5,39.2,45.8,38.5,57.2,50.8z"/>
	</g>
	<g class="st1">
		<path class="st0" d="M737.9,33.9c-5.4,0.8-10.8,4.5-11.9,10.2c0.1,3.8-0.4,8.4,1.3,11.8c0.3,3.3,2.6,6.3,3.9,9.5
			c4.3,4.8,9.3,10.6,16.7,9.1c3.6-0.1,5.5-3.9,7.8-5.4c2.8,1,5.4,2.7,8.9,2c1.4,0.8,2.3-0.1,3.3,0.2c6.6-0.5,12.9-2.2,18.7-4.1
			c8.4-4.6,16.8-10.6,26.9-11.5c6.2-1.1,13.2-0.8,19.4,0.7c0.6-0.5,2.4-0.8,1.7-2.2l-1.1-0.8c-20.9-8.6-49.6-4.8-67.7,8.7
			c-4,1.7-10.2,2.7-13.7-0.9c-2.9-2.8-8.4-2.8-9.5-7.8c-1.4-4.8,0.7-9.2,3-12.9c2.4-1.6,4.7-3.2,7.9-2.8c4.3,0.8,9.5,3.3,10.6,8.1
			c-0.4,2.2-2.2,4.2-4.1,5.6c-1.1,0.2-2.6-0.9-3-2.2c-1.7-2.3,0.5-5.1,0.4-7.2c-3.7,0.9-7,2.2-8.5,6.1c-1.1,4.4,1.8,8.5,5,10.7
			c5.6,2.2,9.9-2.3,15.5-2c4-0.9,3.4-5.5,6.1-8c0.8-2.8-0.4-5.8-2.7-7.8c-2.9-2.1-6-3.7-9.5-4.5c-3-4.8-7.4-9.2-13-9.8
			C744.9,26.7,740.7,29.8,737.9,33.9z"/>
		<path class="st0" d="M771.1,42.7c1.5,1.4,2.2,3.2,2,4.8c-1.1,1.3-1.7,2.7-2.2,4c-0.7,1.8-1.1,2.5-2,2.8c-2.6,0-5,0.7-7,1.5
			c-2.6,0.9-4.7,1.6-7,0.8c-2.4-1.7-4.5-4.8-3.8-7.8c0.6-1.5,1.6-2.4,2.8-3.1c-0.3,1.4-0.2,3,0.8,4.6c0.9,2.2,3.4,3.8,5.6,3.5
			l0.6-0.1l0.5-0.4c2.8-2.1,4.5-4.6,5-7.1l0.1-0.5l-0.1-0.5c-0.6-2.6-2.2-4.9-4.7-6.7l0.9,0.2C765.5,39.3,768.3,40.6,771.1,42.7z"/>
		<path class="st0" d="M699.3,29.3l-1.1,3c-5.2,1.5-9.6,5.9-10.4,11.3c0,3.1-0.4,6.9,1.9,9.4c2.8,3.2,7.1,4.5,11.5,4.8
			c2.6,3.7,5.4,9.7,11.1,9.1c4.3,0.3,8.3-1.7,10.4-5.4c3.3-7.4,2.7-16.3-2.8-22.6c-2.1-2.1-5.1-3-7.8-1.9c-1.4,0.6-2.8,1.2-3.5,2.8
			c-1.1,2.8-0.7,5.8,1.3,8.1c1.7,1.1,3.6,3.3,5.7,2.2c1-0.9,0.5-2.3,0.6-3.5c-0.8-0.8-1.1-2.2-0.6-3.3c0.4-0.2,0.7-0.6,1.3-0.4
			c1.7,1.3,2.4,2.2,3.3,3.9c0.2,2.9-2,5.2-4.4,6.7c-4.5,1-8.5-1.3-11.9-3c-2.5-3.5-2.7-8.6-0.7-12.4c1.5-2.4,3.9-4.3,6.5-4.6
			c6-1.9,9.7,4.4,15.5,2.2c2.6-0.8,3.6-3.3,5-5.4c-2.2,0.7-4.2,1.1-6.5,0c-4.4-4.7-10.9-7.2-17.4-5.4
			C703.7,25.7,701,26.9,699.3,29.3z"/>
		<path class="st0" d="M768.3,17.6c-6.2-0.1-13.2-0.5-17.4,4.6c-0.7,1.2-0.1,2.5,1.3,2.6c6.3,1.4,12.6-0.2,17.4-3.7
			c1.8-0.1,3.6,0,4.8,1.3c2.5,3.7,6.9,4.4,11.1,4.6c1.2,3,2.4,6.1,0.7,9.1c-1.5,3.2-4.8,5.5-7.9,6.9v0.5c6.5-0.5,14.4-0.1,18.2-6.3
			c1.1-2.2,0.7-5.3-0.4-7.4c0,0-0.3-1.4-1.5-2.4c-1.7-1.3-3.7-2.1-5.9-2.4c-0.1-4.1-3.7-7.4-6.9-9.3
			C777.3,13.7,772.1,15.3,768.3,17.6z"/>
		<path class="st0" d="M793.1,29.2c0.4,0.4,0.6,0.9,0.7,1.1l0.1,0.3l0.2,0.3c0.9,1.5,1,3.8,0.4,5c-1.8,2.9-4.9,4-8.4,4.5
			c0.9-1,1.7-2.1,2.3-3.4l-0.1,0.1c2-3.5,1-7.1,0-9.8l0.2,0C790.1,27.6,791.6,28.2,793.1,29.2z"/>
		<path class="st0" d="M767,20c-4,2.4-8.5,3.4-13.1,2.6C757.1,19.9,762.1,19.9,767,20z"/>
		<path class="st0" d="M780.8,17.8c1.4,0.9,5.2,3.4,5.6,6.7l-0.7,0c-4.2-0.2-7.4-0.8-9.2-3.5l-0.1-0.2l-0.1-0.2
			c-1.4-1.4-3.1-1.9-4.7-2C773.8,17.5,777.5,16.4,780.8,17.8z"/>
		<path class="st0" d="M690.2,43.9c0.7-4.2,4.2-7.9,8.7-9.2l1.2-0.3l0.4-1.2l0.9-2.6c1.4-1.8,3.6-2.7,5.5-3.5
			c5.1-1.4,10.8,0.4,14.9,4.8l0.4,0.5l0.6,0.2c0.7,0.2,1.5,0.4,2.2,0.5c-0.2,0.1-0.4,0.3-0.7,0.3l-0.1,0l-0.1,0
			c-1.9,0.7-3.4,0.1-5.9-1c-2.4-1.1-5.5-2.4-9.2-1.3c-3.1,0.4-6.2,2.6-8.1,5.7l0,0l0,0c-2.5,4.6-2.2,10.7,0.8,14.9
			c0,0,0.4,0.5,0.4,0.5l0.5,0.3l0.8,0.4c3.5,1.7,7.8,3.9,12.7,2.8l0.4-0.1l0.4-0.2c2.6-1.7,4.4-3.8,5.1-6c0.5,3.5,0,7.3-1.6,10.9
			c-1.6,2.8-4.6,4.4-8.1,4.1l-0.2,0l-0.2,0c-3.1,0.3-5-2.2-7.5-6.1c-0.5-0.7-0.9-1.4-1.4-2.1l-0.7-0.9l-1.1-0.1
			c-3.1-0.2-7.3-1-9.8-3.9l0,0l0,0c-1.3-1.4-1.3-4-1.3-6.5V43.9z"/>
		<path class="st0" d="M763.1,27.4c-0.8,2.7,2.4,4,3.9,5.2c1,0.6,2.9,0.6,3.9,0c1.2-1.2-0.1-5,2.8-3.9c0.9,1,2.8,2.2,1.7,3.4
			c-1.2-0.1-1.5,1.2-1.9,2c0.1,1-0.2,2.1,0.8,2.6c2.7,0.8,6,0.6,8.3-0.8c2.2-3.2-2.4-5.6-3.9-8.3c-3.9-3.1-10.4-3.5-14.8-1.3
			L763.1,27.4z"/>
		<path class="st0" d="M728.4,44.3c1.1-4.7,5.7-7.4,9.9-8.1l1-0.2l0.6-0.8c1.6-2.3,5-6.1,10.1-6.3c5.4,0.7,9.2,5.7,11.1,8.6l0.5,0.8
			c-2.1-1.5-4.7-2.6-7.8-3.2l-0.1,0l-0.1,0c-3.9-0.5-6.8,1.4-9.3,3.1l-0.2,0.1l-0.4,0.3l-0.3,0.4c-2.5,3.8-5,9-3.3,14.7
			c0,0,0,0,0-0.1l0.1,0.2c0,0,0-0.1,0-0.1c1,4.2,4.3,5.8,7,7c1.3,0.6,2.5,1.1,3.2,1.9c4.3,4.4,11.5,3.5,16.4,1.4l0.3-0.1l0.2-0.2
			c14.8-11,37.2-15.2,55.8-11.3c-3.3-0.1-6.6,0.1-9.7,0.7c-8.7,0.9-15.9,5-22.9,9c-1.5,0.9-3.1,1.8-4.7,2.6
			c-6.5,2.1-12.3,3.4-17.6,3.9c-0.8-0.1-1.5,0.1-1.9,0.2c0,0,0,0,0,0l-0.9-0.1l-1-0.3c-2.1,0.4-3.8-0.3-5.8-1.2
			c-0.6-0.2-1.2-0.5-1.8-0.7l-1.2-0.4l-1,0.7c-1,0.7-1.8,1.6-2.7,2.4c-1.6,1.6-2.6,2.6-3.9,2.6h-0.2l-0.2,0
			c-5.8,1.2-10.1-3.5-14.2-8.1l0,0c-0.4-1-1-2-1.4-2.9c-1-1.9-2-3.8-2.1-5.5l0-0.5l-0.2-0.4c-1.1-2.1-1.1-5.1-1-8
			C728.4,45.9,728.4,45.1,728.4,44.3z"/>
		<path class="st0" d="M777.5,50.8c-0.4,0.4-0.2,1.1-0.2,1.7c0.5,0.7,1.8,0.5,2.4,0.2c11.9-7.7,29.7-11,43.4-4.8
			c0.7,0.1,1.4,0.3,1.7-0.7l-0.6-1.3C810.2,39.2,789,38.5,777.5,50.8z"/>
	</g>
</g>
</svg>
