<svg id="レイヤー_1" data-name="レイヤー 1" xmlns="http://www.w3.org/2000/svg" viewBox="0 0 433.93 180.83"><defs><style>.cls-1{fill:#333;}</style></defs><path class="cls-1" d="M17.75,15.16a2.26,2.26,0,0,0-1.62,1.47,13.89,13.89,0,0,1-6.49-5.11V14c0,.18,0,2.37,0,2.81s0,.77-1.16.77c-.49,0-.5-.19-.5-.49,0-.47,0-2.53,0-2.94V12.05A17.26,17.26,0,0,1,.19,17L0,16.65a21.17,21.17,0,0,0,6.73-5.43H4.11c0,.4,0,.76-1.09.76-.4,0-.57-.1-.57-.49s0-2.16,0-2.51V6a20.9,20.9,0,0,0-.08-2.1l1.89.83H8.05V3.11H1.94a13.69,13.69,0,0,0-1.49.08L.09,2.06c.61,0,1.16.07,1.91.07H8.05A17.55,17.55,0,0,0,8,.08L9.88.3c.21,0,.47.08.47.32s-.17.34-.71.57v.94h4.88L15.28,1c.09-.13.15-.19.26-.19s.17,0,.3.15l1.44,1.34a.64.64,0,0,1,.22.41c0,.36-.34.36-.49.36H9.64v1.6h3.77l.4-.56c.07-.1.15-.19.26-.19a.56.56,0,0,1,.3.13l1.27,1a.44.44,0,0,1,.2.34c0,.23-.17.34-.64.7V8.56c0,.42.08,2.23.08,2.59,0,.58-.64.68-1.19.68s-.51-.19-.51-.61H10.05a15.27,15.27,0,0,0,7.7,3.57ZM8.05,5.7H4.11V7.47H8.05Zm0,2.75H4.11v1.79H8.05Zm1.59-1h3.94V5.7H9.64Zm0,2.77h3.94V8.45H9.64Z"/><path class="cls-1" d="M35.5,2.34l.79-1.17A.32.32,0,0,1,36.56,1a.51.51,0,0,1,.3.15l1.53,1.43A.73.73,0,0,1,38.6,3c0,.34-.34.34-.5.34H23c-.38,0-.72,0-1.47.09l-.36-1.15c.55,0,1.13.08,1.91.08H29c0-.79,0-1.49-.08-2.3l2,.24c.19,0,.51.06.51.3s-.25.38-.76.61V2.34ZM27,12.32c.15.07.43.24.43.45,0,.39-.6.34-.87.3a15.79,15.79,0,0,1-5.14,3.79l-.23-.3c1.92-1.72,3.58-3.42,4.24-5.06Zm3.71,1.41c0,.28.06,1.55.06,1.81,0,1.26-.41,1.79-2.39,2,0-.66-.08-1.25-2.38-1.79v-.4l2.41.1c.55,0,.68-.12.68-.59V10.67H25.51c0,.31,0,.7-1.08.7-.51,0-.64-.09-.64-.49s.08-2.13.08-2.49V6.56c0-.64,0-1.54-.08-2.17l1.83.87h8.45l.45-.64c.08-.11.15-.19.27-.19a.56.56,0,0,1,.28.13l1.22,1c.14.11.23.17.23.34s-.08.26-.68.74V8.07c0,.15.08,2.42.08,2.55,0,.49-.42.7-1.17.7-.55,0-.55-.15-.55-.65H30.67ZM25.51,6.24V9.69H34.2V6.24Zm7.18,5.45c1.27.38,5,2.25,5,4.11,0,.59-.32,1-.74,1s-.47-.13-1.22-1.28A13,13,0,0,0,32.52,12Z"/><path class="cls-1" d="M51.7,1.77c.3.15.41.27.41.44s-.34.3-.71.3A31.17,31.17,0,0,1,49,6.13h.59L50,5.45c.11-.15.17-.19.24-.19a.48.48,0,0,1,.31.17l1,1a.71.71,0,0,1,.18.4c0,.32-.41.32-.54.32h-3a25,25,0,0,1-2.21,2.22h2.87l.55-.71c.07-.11.13-.17.22-.17a.63.63,0,0,1,.31.13l1.11,1a.51.51,0,0,1,.23.38c0,.17-.1.28-.7.66v3.77c0,.34.07,2,.07,2.17,0,.66-.85.69-1.13.69-.49,0-.49-.15-.49-.73H45.25v.3c0,.59-.7.62-1,.62-.51,0-.59-.2-.59-.47s.06-2,.06-2.38V11a13.32,13.32,0,0,1-1.94,1.06l-.21-.32c.83-.64,1.34-1.08,2.15-1.79,0-.74,0-1-.06-1.45l1.06.5a24.54,24.54,0,0,0,1.75-1.9H43.59a10.15,10.15,0,0,0-1.38.08l-.4-1.14c.57,0,1.15.08,1.91.08H45.4V3.73h-1A10.34,10.34,0,0,0,43,3.81l-.39-1.13c.54,0,1.13.07,1.9.07h.91V2.24c0-.41,0-1.22-.1-2.22l1.81.23c.23,0,.51.07.51.32s-.22.32-.69.52V2.75h.52l.4-.6c.06-.09.13-.21.24-.21s.23.12.29.17l.94.94A9.33,9.33,0,0,0,50.21,1Zm-6.45,8.55v2.09H49V10.32Zm0,3.07v2.19H49V13.39Zm2-7.26a27.55,27.55,0,0,0,1.65-2.4h-2v2.4Zm9.54-4.7.56-.66c.1-.11.15-.17.27-.17a.47.47,0,0,1,.28.17L59.05,2a.56.56,0,0,1,.21.42c0,.22-.23.32-.87.41A38.34,38.34,0,0,1,55.58,7c1.91,1.2,3.62,2.94,3.62,5.17a2.91,2.91,0,0,1-3,3.11,2,2,0,0,0-1.66-1.74l0-.38c.34,0,1.17.06,1.45.06s1.53,0,1.53-1.71c0-2-1.85-3.66-2.83-4.42a27.62,27.62,0,0,0,2-4.66H53.87V14.14c0,.44,0,2.34,0,2.74,0,.21,0,.66-1.11.66-.43,0-.53-.13-.53-.47s0-2.49,0-2.91V3.26c0-.15,0-1.47-.07-2.68l1.82.85Z"/><path class="cls-1" d="M64.69,2.51a16.93,16.93,0,0,0-.09-2l2,.26c.21,0,.49.08.49.3s-.17.36-.74.57V5.45H69.6V2.19a12.82,12.82,0,0,0-.1-2L71.43.4c.26,0,.55.07.55.34s-.25.33-.78.54V5.45h3.17V2.53a14.06,14.06,0,0,0-.09-2l2,.25c.28,0,.49.11.49.33s-.21.34-.74.55V5.45h.61l.67-1.06a.31.31,0,0,1,.27-.18.38.38,0,0,1,.26.15L79,5.66a.72.72,0,0,1,.21.43c0,.34-.32.34-.46.34H76v3.7c0,.41.08,2.19.08,2.54,0,.55-.59.68-1.19.68-.45,0-.51-.15-.51-.54v-.46H71.2v.53c0,.23,0,.7-1,.7-.59,0-.61-.23-.61-.53s.06-2.21.06-2.56V6.43H66.35v8.85h9.21l.83-1.21c.07-.11.13-.19.26-.19s.15,0,.29.15l1.54,1.45a.69.69,0,0,1,.21.42c0,.36-.34.36-.47.36H66.35v.39c0,.38,0,.78-1.16.78-.55,0-.55-.27-.55-.49,0-.46,0-2.46,0-2.85V6.43H63.51A11.83,11.83,0,0,0,62,6.51l-.32-1.13c.58,0,1.16.07,1.9.07h1.07Zm9.68,3.92H71.2v4.94h3.17Z"/><path class="cls-1" d="M95.9,1.83l.49-.72c.09-.15.19-.19.26-.19a.46.46,0,0,1,.28.14l1.25,1a.49.49,0,0,1,.24.4c0,.13,0,.28-.71.72v10.5c0,.27.07,2.42.07,2.57,0,.56-.73.62-1.19.62s-.51-.19-.51-.59v-.75H85.32v.68c0,.38,0,.75-1.1.75-.51,0-.6-.11-.6-.52s.06-2.1.06-2.44V3.39c0-.75,0-1.54-.08-2.39l1.94.83Zm-10.58,1V8.07h4.52V2.81Zm0,6.24v5.51h4.52V9.05Zm10.76-1V2.81H91.41V8.07Zm0,6.49V9.05H91.41v5.51Z"/><path class="cls-1" d="M119.93,10.11a2.51,2.51,0,0,0-1.6,1.43,22.67,22.67,0,0,1-2.43-1.47l.53.45a.54.54,0,0,1,.2.4c0,.17,0,.23-.58.66v2.77c0,.19.07,2.19.07,2.45s0,.7-1.22.7c-.47,0-.51-.17-.51-.49v-.43h-6.77c0,.7,0,.94-1.15.94-.46,0-.57-.13-.57-.53s.06-2.11.06-2.47V11.41c0-.34,0-.45,0-1.38a23.19,23.19,0,0,1-3.68,1.91l-.15-.36c5.11-3.19,7.34-6.77,7.92-8.32l1.68.72c.36.15.49.24.49.43s-.26.32-.62.36a16.87,16.87,0,0,0,8.35,5ZM109.22.94c.38.21.42.29.42.42,0,.36-.4.32-.85.3A18.38,18.38,0,0,1,103,6l-.23-.31c2-1.92,3.92-3.69,4.7-5.71ZM114.31,10l.38-.54c.08-.12.11-.16.23-.19a15.59,15.59,0,0,1-3.78-4.17,18.5,18.5,0,0,1-4.47,4.41l1.12.49Zm-6.69,1V15.6h6.77V11ZM112,.19c2.32.6,6.15,2.64,6.15,4.39a.84.84,0,0,1-.77.93c-.44,0-.55-.13-1.49-1.27a17.08,17.08,0,0,0-4-3.71Z"/><path class="cls-1" d="M136.71,1.51l.72-1a.32.32,0,0,1,.28-.19.4.4,0,0,1,.26.15l1.55,1.34a.62.62,0,0,1,.21.38c0,.34-.44.34-.59.34H125.7V15.16H137l.76-1.09c.05-.08.11-.19.26-.19a.43.43,0,0,1,.28.15l1.57,1.38a.54.54,0,0,1,.21.38c0,.33-.44.35-.57.35H125.7v.51c0,.38,0,.76-1,.76-.53,0-.68-.12-.68-.51,0-.15.08-2.19.08-2.61V2.79c0-.24,0-1-.08-2.15l2,.87ZM126.49,13.8a33.34,33.34,0,0,0,5.28-5.45,55.58,55.58,0,0,0-4.85-3.69l.21-.32a23.75,23.75,0,0,1,5.53,2.85A14.37,14.37,0,0,0,135,3.09l1.69.81c.36.17.47.31.47.46,0,.37-.49.34-.86.3a33.1,33.1,0,0,1-2.38,3.45c1.74,1.38,3.66,3.19,3.66,4.45,0,.66-.4.91-.64.91-.44,0-.51-.08-1.85-1.74a20.51,20.51,0,0,0-2.21-2.38,20.2,20.2,0,0,1-6.13,4.76Z"/><path class="cls-1" d="M150.36,15.82c3.89-1.47,6.21-4.05,6.21-7.31a5,5,0,0,0-5.19-5.1c-.21,0-.32,0-.85,0a1.92,1.92,0,0,1,.77,1.4c0,.81-1.54,4.47-2.11,5.73-1,2.21-1.85,4-3.26,4s-3-1.95-3-4.45c0-3.68,3.15-7.74,8.49-7.74,3.7,0,6.92,2.17,6.92,6.24s-3.36,7-7.83,7.49Zm-6.07-5.73c0,1.7.87,3,1.53,3s1.09-.89,1.88-2.58c.62-1.31,2.17-4.93,2.17-6.11a1.32,1.32,0,0,0-.26-.8A7,7,0,0,0,144.29,10.09Z"/><path class="cls-1" d="M167.66,2.36h-4.09a13.82,13.82,0,0,0-1.49.07l-.36-1.13c.55,0,1.15.08,1.9.08h12.51L176.9.23a.31.31,0,0,1,.28-.19.58.58,0,0,1,.29.15L179,1.58a.67.67,0,0,1,.2.42c0,.36-.34.36-.49.36h-5.86V5.47H176l.49-.68a.35.35,0,0,1,.26-.17.52.52,0,0,1,.28.13l1.21,1c.17.15.23.25.23.36s-.17.38-.7.76v7.28c0,.41.07,2.18.07,2.54s-.39.68-1.2.68c-.47,0-.47-.21-.47-.62v-.79H164.79v.58c0,.6,0,.87-1.09.87-.43,0-.59-.1-.59-.47,0-.12.08-2.12.08-2.51V7a21.87,21.87,0,0,0-.08-2.3l1.89.81h2.66ZM164.79,15h11.36V6.45h-3.34V9.81c0,.56.11.66.79.66.85,0,1,0,1.15-.55.06-.25.3-1.38.34-1.58l.36,0c0,.15,0,1,0,1,0,.62.07.79.2.91.34.3.46.39.46.6,0,1.11-1.57,1.11-2.61,1.11-1.88,0-2.22-.15-2.22-1.64V6.45h-2.13a8.21,8.21,0,0,1-.89,4.09,6.77,6.77,0,0,1-3.49,2.76Zm0-2.23c2.66-1.87,2.77-4.11,2.87-6.28h-2.87Zm4.4-7.26h2.11V2.36h-2.11Z"/><path class="cls-1" d="M183.43,11.39c2.73.77,4.72,2.49,4.72,4a1.15,1.15,0,0,1-1.06,1.28c-.51,0-.59-.15-1.17-1.41a10.73,10.73,0,0,0-2.68-3.57Z"/><path class="cls-1" d="M16.13,37.74l1.3,1.15a.61.61,0,0,1,.2.38c0,.34-.43.34-.56.34H7.68a12.75,12.75,0,0,0-1.38.07c.3.31.38.4.38.57s-.42.32-.53.32H4.22v4.6c1.06-.3,1.4-.39,2.23-.64l.15.36c-.75.57-1.09.72-5,2.6,0,.36-.06.64-.36.64S.91,48,.83,47.81L0,46c.58-.09,1.47-.23,2.66-.49v-5H2.17c-.25,0-.85,0-1.42.08L.38,39.51c.49,0,1,.08,1.88.08H2.7V35.48H1.92a11.94,11.94,0,0,0-1.41.07L.13,34.42c.74.06,1.12.08,1.89.08H4l.66-.93c.08-.09.13-.18.26-.18a.5.5,0,0,1,.31.15l1.35,1.24a.48.48,0,0,1,.19.25v-.36A15.64,15.64,0,0,0,6.66,33l1.66.77h6.24l.47-.62c.06-.08.11-.15.23-.15a.43.43,0,0,1,.26.13l1.1.94a.5.5,0,0,1,.2.36c0,.21-.19.34-.66.62v.76c0,.24.06,1.28.06,1.49a.42.42,0,0,1-.17.38Zm-.66.13c-.74.08-.74-.17-.76-.39H8.15c0,.43-.44.55-1,.55s-.53-.23-.53-.4.07-1.43.07-1.7v-.7c-.07.25-.35.25-.54.25h-2v4.11h.29L5,38.87c.07-.09.13-.17.24-.17a.34.34,0,0,1,.27.15l.75.78-.38-1.08c.55,0,1.15.08,1.91.08H14.9Zm2.28,10.55a1.83,1.83,0,0,0-1.3,1.26A8.79,8.79,0,0,1,12,45.19v2.1c0,.33,0,1.86,0,2.16,0,.63-.58.72-1.06.72s-.52-.15-.52-.43,0-2.06,0-2.4V46a14.24,14.24,0,0,1-6.11,3.79l-.15-.36A21.8,21.8,0,0,0,10,44.31H8.47c-.06.49-.89.49-1,.49-.45,0-.55-.19-.55-.44,0,0,.08-1.53.08-1.68V41.61a14,14,0,0,0-.08-1.68l1.72.81h5.62l.49-.66c.08-.11.13-.15.23-.15a.66.66,0,0,1,.28.11l1.09,1a.47.47,0,0,1,.19.35c0,.23-.38.46-.62.61v.64c0,.23.06,1.21.06,1.39a.46.46,0,0,1-.25.46l1,.71a.47.47,0,0,1,.24.36.27.27,0,0,1-.3.27,2.08,2.08,0,0,1-.56-.08,15.09,15.09,0,0,1-1.78.89A8.91,8.91,0,0,0,17.75,48ZM9.56,34.74H8.15V36.5H9.56Zm-1.09,7v1.6h5.92v-1.6Zm3.64-7h-1.4V36.5h1.4Zm.05,9.57a7.36,7.36,0,0,0,1.65,1.86,7.45,7.45,0,0,0,1.35-1.58c-.52,0-.73,0-.77-.28Zm2.55-9.57H13.28V36.5h1.43Z"/><path class="cls-1" d="M38.28,48.68A2.74,2.74,0,0,0,36.5,50a16.91,16.91,0,0,1-4.37-9.7c-.23,1.95-1,7.38-5.88,9.83l-.19-.3c-.19.28-1,.32-1.1.32-.47,0-.54-.11-.54-.53s0-2.41,0-2.83V42.51c-.39.4-2.24,2-2.6,2.34,0,.49,0,.7-.28.7-.11,0-.23-.06-.36-.34l-.75-1.7a24.09,24.09,0,0,0,4-1.84V34.86c0-.38,0-1-.09-2.17l1.94.22c.21,0,.49.08.49.31s-.11.34-.71.54V46.53c0,.47,0,2.55,0,3a.9.9,0,0,1-.05.36c1.6-1.49,4.15-4.17,4.56-10.5H28.09a11.85,11.85,0,0,0-1.41.07l-.4-1.13c.55,0,1.15.07,1.91.07h2.49c0-.5.05-1.35.05-2.6,0-.6,0-2-.11-3l2,.23c.23,0,.53.06.53.32s-.15.3-.78.57c0,2.41,0,3.54,0,4.5H34.9l.74-1.07c0-.08.11-.19.26-.19a.59.59,0,0,1,.3.13l1.57,1.4A.58.58,0,0,1,38,39c0,.3-.38.34-.59.34H32.54c.87,4.6,3.19,7.41,5.81,8.95ZM21.1,35.12c1.22.64,2.79,2.15,2.79,3.4A1,1,0,0,1,23,39.59c-.41,0-.45-.11-.77-1.24a10.31,10.31,0,0,0-1.4-3Zm12.95-1.68c.91.28,3.1,1.1,3.1,2.53a.87.87,0,0,1-.8,1c-.37,0-.41-.06-.92-1a6.48,6.48,0,0,0-1.57-2.15Z"/><path class="cls-1" d="M52.92,44.93c0,2.43-2.24,4-5.09,4S43,47.42,43,45.15c0-1.39.8-2.82,3.63-4.15-1.17-.66-2.78-1.6-2.78-3.58s1.83-3.51,4.28-3.51,4,1.47,4,3.34-1.62,2.91-2.64,3.43C50.83,41.4,52.92,42.53,52.92,44.93ZM44.77,45c0,1.4.91,2.87,3.25,2.87,2,0,3.39-1.06,3.39-2.61S50.34,43,47.74,41.63C45.57,42.63,44.77,43.66,44.77,45Zm6-7.84c0-1.27-1-2.29-2.75-2.29-1.56,0-2.71.83-2.71,2.1,0,1.43,1.35,2.24,3,3.09C49.43,39.57,50.73,38.78,50.73,37.2Z"/><path class="cls-1" d="M64,41.5c-.11.26-.66,1.6-.79,1.9h6.9l.59-.72c.11-.13.17-.18.26-.18a.48.48,0,0,1,.32.15l1.12,1a.66.66,0,0,1,.22.38c0,.19,0,.36-.83.68a21.8,21.8,0,0,1-1.49,4.36c-.54.94-1.6,1.07-2.81,1.09,0-.6,0-1.22-2.24-1.75l0-.38c.79.08,2.51.21,2.83.21.83,0,.88-.19,1.22-1.13a20.82,20.82,0,0,0,.83-2.74H62.85c-.52,1.28-.58,1.41-1.33,1.41-.17,0-.91,0-.91-.37a2.14,2.14,0,0,1,.28-.79c.48-1,1-2.08,1.4-3.13H59.22a8.29,8.29,0,0,0-1.38.07l-.4-1.13c1,.06,1.27.07,1.91.07h12.5l.81-1.09a.35.35,0,0,1,.27-.17.45.45,0,0,1,.28.15l1.51,1.36a.56.56,0,0,1,.21.38c0,.36-.46.36-.57.36Zm6.13-7.7.51-.7c.08-.11.15-.17.25-.17a.59.59,0,0,1,.32.13l1.24,1c.17.14.21.25.21.34s-.08.27-.7.72V36.5c0,.15.08,1.79.08,2.13s0,.72-1.21.72c-.51,0-.51-.14-.51-.74H62c0,.47,0,.81-1.13.81-.49,0-.57-.19-.57-.53s.06-1.9.06-2.22V35.21c0-.52,0-1.56-.06-2.26l1.85.85Zm-8.2,1v2.85h8.39V34.78Z"/><path class="cls-1" d="M85.42,36.1c.4.25.43.36.43.47,0,.34-.26.32-.83.29a21.16,21.16,0,0,1-3.65,4l2.81-.15a6.15,6.15,0,0,0-.76-1.3l.27-.27c.47.27,2.16,1.31,2.16,2.61,0,.64-.37.92-.69.92s-.42-.3-.46-.47a7.85,7.85,0,0,0-.32-.94l-1.15.32v5.69c0,.32,0,1.87,0,2s0,.81-1.06.81c-.45,0-.49-.19-.49-.55s0-2,0-2.3V42l-2.05.5c-.06.3-.12.54-.34.54s-.27-.17-.32-.36l-.59-1.77c1,0,1.13,0,2,0A24.23,24.23,0,0,0,84,35.18Zm-4.26,7.77c.32.11.43.13.43.3s-.37.36-.54.38a14.53,14.53,0,0,1-2.15,4.53l-.34-.15a21.61,21.61,0,0,0,1.18-5.55ZM79,35.52a8.3,8.3,0,0,1,1.58.73,13.55,13.55,0,0,0,1.32-3.66l1.74.72c.17.09.45.23.45.45s-.41.34-.81.34a16.64,16.64,0,0,1-2.17,2.53,2,2,0,0,1,1,1.45c0,.44-.25,1-.76,1-.34,0-.4-.09-.83-.94a7,7,0,0,0-1.68-2.32Zm5,7.75a4.21,4.21,0,0,1,1.83,2.79c0,.58-.36.9-.68.9s-.4-.2-.55-1a8.88,8.88,0,0,0-.88-2.47Zm3.75-.59c.12-.13.19-.22.29-.22s.24.11.35.22l.89.89c.15.15.21.23.21.38s-.15.36-.81.49a10.29,10.29,0,0,1-4.25,4.88L84.14,49a11.36,11.36,0,0,0,3.15-4.9H87a13.31,13.31,0,0,0-1.47.07l-.36-1.13c1.09.08,1.41.08,2.17.08Zm8,.34c.28.25.3.36.3.46a.28.28,0,0,1-.3.28,3.38,3.38,0,0,1-.57-.11,13.3,13.3,0,0,1-2.36,1.28,8.56,8.56,0,0,0,3.55,2.62v.36A2.11,2.11,0,0,0,95,49.34a11.39,11.39,0,0,1-3.88-6.15v3.27c0,.3,0,1.62,0,1.88,0,1.36-.57,1.72-2.13,1.89-.08-1.08-.46-1.25-1.87-1.66v-.38l1.87.06c.62,0,.64-.19.64-.57V42.61A13.91,13.91,0,0,0,89.57,41H87.93c0,.51-.64.55-1,.55-.6,0-.6-.17-.6-.45s.07-2,.07-2.4V36.38c0-1.18,0-1.64-.07-2.15L88,35h.81a7.39,7.39,0,0,0,.59-2.36l1.87.47c.07,0,.45.14.45.4s-.3.32-.79.36a13.38,13.38,0,0,1-1,1.13h3.15l.4-.59c.05-.07.15-.18.24-.18a.46.46,0,0,1,.28.13l1.12,1a.43.43,0,0,1,.2.34c0,.21,0,.26-.62.64v2.17c0,.38.06,2.09.06,2.43,0,.51-.51.62-1.08.62s-.51-.15-.51-.51H91.34c.17,0,.36.08.36.29s-.15.26-.53.43a9,9,0,0,0,1.27,2.66,17.36,17.36,0,0,0,2-2.55Zm-7.81-7.09v1.55h5.2V35.93Zm0,2.53V40h5.2V38.46Z"/><path class="cls-1" d="M107.59,48.47c3.89-1.47,6.21-4,6.21-7.31a5,5,0,0,0-5.19-5.1c-.21,0-.32,0-.85,0a1.92,1.92,0,0,1,.78,1.4c0,.81-1.55,4.47-2.12,5.73-1,2.21-1.84,4-3.26,4s-3-2-3-4.45c0-3.68,3.15-7.74,8.49-7.74,3.7,0,6.92,2.17,6.92,6.25s-3.35,6.94-7.82,7.48Zm-6.07-5.73c0,1.7.87,3,1.53,3s1.09-.89,1.88-2.58c.63-1.31,2.17-4.93,2.17-6.11a1.34,1.34,0,0,0-.26-.8A7,7,0,0,0,101.52,42.74Z"/><path class="cls-1" d="M127.15,35.38c.1-.11.17-.18.29-.18a.46.46,0,0,1,.32.15l1.11,1.11a.56.56,0,0,1,.21.38c0,.26-.46.49-.78.64a18.91,18.91,0,0,1-2.41,7.18,12.87,12.87,0,0,1-5.49,5l-.24-.3A16.94,16.94,0,0,0,125,43.23a.6.6,0,0,1-.32.11c-.34,0-.47-.18-.9-.83A10.76,10.76,0,0,0,122,40.57a10.89,10.89,0,0,1-2.08,2.32l-.28-.24a26.53,26.53,0,0,0,3.71-10.08l1.76.42c.28.07.51.11.51.36s-.38.37-.63.41c-.24.87-.41,1.42-.71,2.28h2.41ZM123.85,37a17.39,17.39,0,0,1-1.56,3c1,.25,3,.89,3.11,2.21A22.91,22.91,0,0,0,126.72,37Zm13.58,7.16a2.87,2.87,0,0,0-1.36,1.45A14.67,14.67,0,0,1,133,43.49v3.12c0,.47,0,2.5,0,2.92s-.4.64-1.15.64c-.49,0-.55-.17-.55-.53s.06-2.47.06-2.88V41.7A14.46,14.46,0,0,1,128.94,36l.42-.1a12.85,12.85,0,0,0,2,3.89v-5c0-.11,0-1-.1-2.17l1.93.23c.18,0,.49.07.49.32s-.12.3-.72.53V41.5a11,11,0,0,0,4.43,2.32Z"/><path class="cls-1" d="M147.29,34.08h2.38l.4-.56a.31.31,0,0,1,.24-.17.52.52,0,0,1,.28.13l1,.92a.45.45,0,0,1,.19.36c0,.21-.05.27-.62.62v8.19c0,.23,0,1.28,0,1.51s0,.85-.93.85c-.43,0-.47-.1-.47-.38v-.3h-2.68c0,.49,0,.56-.22.68l1.3.73c.21.12.38.27.38.44,0,.34-.65.26-.8.24a13.25,13.25,0,0,1-3.09,2.91l-.28-.25a14.48,14.48,0,0,0,2.34-4,2,2,0,0,1-.53.08c-.51,0-.51-.45-.51-.79s0-1.25,0-1.45V35.21c0-.6,0-.67,0-1.3a2.3,2.3,0,0,1-.51.1c-.38,1.13-.61,1.77-1.38,3.68l.36,0c.08,0,.36,0,.36.29s-.17.34-.55.51v7.71c0,.51,0,2.73,0,3.19s-.43.69-1.15.69c-.42,0-.45-.2-.45-.47,0-.45,0-2.47,0-2.86V40.44a11.24,11.24,0,0,1-1.84,2.49l-.29-.25c2.87-5.79,3.32-9.54,3.38-10.11l1.81.65c.24.09.32.11.4.24Zm2.51,1h-2.68v2.38h2.68Zm0,3.36h-2.68v2.41h2.68Zm0,3.4h-2.68v2.45h2.68ZM148.93,46c1,.46,3.12,1.48,3.12,2.89a.89.89,0,0,1-.8,1c-.34,0-.39-.09-.86-1a8.52,8.52,0,0,0-1.66-2.54Zm5.32-11.1c.17,0,.49.07.49.32s-.24.36-.73.54V41.8c0,.45.05,2.83.05,2.9,0,.3,0,.7-1,.7-.41,0-.41-.23-.41-.49,0-.45,0-2.45,0-2.87V36.82c0-.38,0-1.32-.1-2.17Zm3-1.87c.21,0,.51.07.51.32s-.19.36-.76.57V46c0,.34.06,2,.06,2.28,0,1.11-.23,1.71-2.24,2,0-1-.42-1.28-2.1-1.81V48l2.21.08c.49,0,.58-.08.58-.47v-13c0-.7-.05-1.41-.09-1.83Z"/><path class="cls-1" d="M163,34.31a2.31,2.31,0,0,1,2.36,1.87,13.36,13.36,0,0,1-.43,1.41,19.33,19.33,0,0,0-1.13,6.21c0,.09,0,1.17.18,1.17s1.34-2.72,1.48-3l.34.13c-.12.47-.66,2.58-.78,3a6.83,6.83,0,0,0-.26,1.75c0,.19,0,1,0,1.15a.66.66,0,0,1-.64.74c-.92,0-1.69-2-1.69-4.68a25.79,25.79,0,0,1,.47-4.62,30,30,0,0,0,.53-3.43,1.5,1.5,0,0,0-.65-1.38ZM169,42.89a2.92,2.92,0,0,0-.15,1c0,2.3,2.09,2.3,3.56,2.3.47,0,1.19,0,1.83-.09.06,0,.77-.1.9-.1.74,0,1.4.42,1.4.95s-.55.64-.83.7a18.58,18.58,0,0,1-2.51.13c-1.73,0-5.35,0-5.35-2.94a3.08,3.08,0,0,1,.83-2Zm-1-5.39a8.25,8.25,0,0,1,5.6-1.7c.77,0,2.3,0,2.3,1,0,.45-.13.47-1.15.66a18.24,18.24,0,0,0-3.3,1.56l-.23-.26c.17-.17,1.45-1.45,1.45-1.51s-.37-.09-.49-.09a16.18,16.18,0,0,0-4,.64Z"/><path class="cls-1" d="M194.36,34.06l.51-.71a.33.33,0,0,1,.27-.19.56.56,0,0,1,.3.13l1.22,1.06a.39.39,0,0,1,.23.36c0,.18-.08.24-.7.73v11c0,2.11,0,2.36-.13,2.69s-.55.85-2.28,1c0-.63-.06-1.34-2.36-1.85v-.38l2.49.08c.51,0,.62-.12.62-.55V42.25H183.24v5.07c0,.27,0,1.72,0,1.85,0,.53,0,.94-1.22.94-.38,0-.51-.11-.51-.49,0,0,0-2.43,0-2.52V35.5a21.29,21.29,0,0,0-.08-2.3l2,.86Zm-11.12,1v6.23h4.84V35Zm11.29,6.23V35H189.7v6.23Z"/><path class="cls-1" d="M215,39.78l.73-1.13a.3.3,0,0,1,.27-.17.51.51,0,0,1,.3.15L217.73,40a.65.65,0,0,1,.23.41c0,.36-.34.36-.49.36h-5.62v6.49c0,.58.05.73.79.73h2.41c.95,0,1.08,0,1.77-3.09l.38,0c0,.36.11,1.88.15,2.21s.06.35.4.75a.71.71,0,0,1,.17.42c0,1.3-1.94,1.3-2.94,1.3h-2.66c-2.06,0-2.11-.46-2.11-2.06V40.76h-3.63l1.4.3c.26.06.49.11.49.32s-.17.38-.75.53a9.42,9.42,0,0,1-7,8.32l-.13-.36c3.3-2,5.37-4.41,5.54-9.11h-3.77a13.5,13.5,0,0,0-1.47.07l-.36-1.13c.55,0,1.13.08,1.89.08h5.94V34.69a16,16,0,0,0-.1-2l2,.21c.16,0,.49.05.49.32s-.25.34-.72.52v6Zm-12.85-6.13c1.11.47,4.11,2.26,4.11,4a.94.94,0,0,1-.88,1c-.49,0-.61-.25-1-1.1a13.69,13.69,0,0,0-2.45-3.6Zm13.56.92c.47.27.49.38.49.47,0,.38-.54.33-.9.31A18.69,18.69,0,0,1,211.51,39l-.29-.25A18.64,18.64,0,0,0,214,33.61Z"/><path class="cls-1" d="M229.17,34.71a17.46,17.46,0,0,0-.07-2l1.92.22c.23,0,.53.06.53.3s-.24.36-.72.55v1.53h3.32l.78-1.15a.31.31,0,0,1,.26-.19.48.48,0,0,1,.3.15L237,35.5a.69.69,0,0,1,.21.45c0,.28-.26.34-.45.34h-5.89V39h4.83l.78-1.15a.37.37,0,0,1,.26-.17.48.48,0,0,1,.3.15l1.47,1.38a.63.63,0,0,1,.21.43c0,.34-.32.34-.45.34H223.31a12.29,12.29,0,0,0-1.47.08L221.48,39c.75.05,1.11.07,1.9.07h5.79V36.29h-4.56a12.18,12.18,0,0,0-1.49.08l-.36-1.14c.68,0,1.13.08,1.91.08h4.5Zm3.49,7.18c0-.6,0-1.21-.07-1.83l1.88.23c.15,0,.48.07.48.3s-.21.36-.66.55v1.51h1.22l.72-1.08a.33.33,0,0,1,.26-.17.44.44,0,0,1,.3.15l1.36,1.3a.68.68,0,0,1,.21.42c0,.36-.36.36-.45.36h-3.62v3c0,.26,0,1.45,0,1.69,0,1.1-.07,1.68-2.37,1.89a1.35,1.35,0,0,0-.78-1.19,7.9,7.9,0,0,0-1.68-.6V48l2.8.08c.37,0,.37-.19.37-.34V43.61h-8.88a13.93,13.93,0,0,0-1.47.07l-.38-1.11c.68,0,1.15.06,1.91.06h8.82ZM225,44c1.29.51,3.36,1.51,3.36,3a1,1,0,0,1-.88,1.09c-.46,0-.51-.13-1.08-1.35a7.94,7.94,0,0,0-1.6-2.46Z"/><path class="cls-1" d="M243.49,34.38a3.76,3.76,0,0,1,.55-.07,2.14,2.14,0,0,1,1.85,1.79,13.29,13.29,0,0,1-.61,1.81,20.26,20.26,0,0,0-.9,5.6c0,.27,0,1.49.26,1.49s.17-.15.27-.32c.39-.75.49-.88,1.15-2.2l.34.13c-.13.51-.78,2.77-.87,3.24a4.67,4.67,0,0,0-.11,1c0,.19.09,1,.09,1.19a.61.61,0,0,1-.6.66c-.87,0-1.81-1.64-1.81-4.92a31.08,31.08,0,0,1,.62-5.72,14.43,14.43,0,0,0,.34-2.26,1.08,1.08,0,0,0-.68-1.08Zm8.17-.09a2.08,2.08,0,0,1,1.09-.36c.66,0,1.78.53,1.78,1.21,0,.17-.14,1-.16,1.19,0,.39-.05.7-.07,1.17.32-.06,1.79-.53,2.15-.53s1.11.34,1.11.87-.39.52-.71.62-1.61.34-2.55.49c0,1,0,3.26.15,5.58.75.28,3.32,1.26,3.32,2.83a.68.68,0,0,1-.64.7c-.3,0-.51-.19-1-.59a8.39,8.39,0,0,0-1.72-1.24c-.26,2.26-2.43,2.39-3.22,2.39-1.68,0-3.12-.86-3.12-2.35,0-.78.55-2.38,3.12-2.38a9.67,9.67,0,0,1,1.79.21c0-.49-.1-4.28-.12-4.94a19.84,19.84,0,0,1-2.2.19A2.55,2.55,0,0,1,248,37.91l.24-.26a5.6,5.6,0,0,0,2.08.3,18.07,18.07,0,0,0,2.53-.21c-.08-2.83-.1-2.92-1.19-3.09ZM251,45.17c-1,0-1.75.38-1.75,1.1s.75,1,1.75,1c1.9,0,2-1.17,2-1.73A6.48,6.48,0,0,0,251,45.17Z"/><path class="cls-1" d="M271.36,38.44A2.13,2.13,0,0,1,273,39.61c3.87.56,4.26,3.22,4.26,4.32,0,5.11-6.49,5.47-7.64,5.54l-.07-.36c2.92-.64,6-2.39,6-5.39a3.07,3.07,0,0,0-2.64-3A18.45,18.45,0,0,1,269,45.83a4.77,4.77,0,0,1,.25,1.15.6.6,0,0,1-.61.63c-.56,0-.77-.53-.85-.7a6.33,6.33,0,0,1-3.33,1.64c-1.51,0-2-1.6-2-2.45,0-2.15,1.69-4.32,4.79-5.66,0-.34,0-.81.24-2.36-.47.06-1.58.19-2.2.19a1.92,1.92,0,0,1-2.15-1.53l.26-.2A2.13,2.13,0,0,0,265,37a24.93,24.93,0,0,0,2.73-.19,13.41,13.41,0,0,0,.3-2.07c0-.66-.45-.89-.92-1.1l.09-.34a2.72,2.72,0,0,1,.81-.17c.93,0,2,.76,2,1.32a1.35,1.35,0,0,1-.26.72,6.11,6.11,0,0,0-.53,1.43,18.13,18.13,0,0,0,3.25-.71,5.64,5.64,0,0,1,1.32-.38c.52,0,1.15.4,1.15.87s-.55.62-2.12.94c-1.34.26-2.5.45-3.86.62a15.4,15.4,0,0,0-.25,2,12.75,12.75,0,0,1,3-.44c0-.3-.19-.5-.54-.79Zm-4.11,3.19c-1.6.81-3.4,2.51-3.4,4.3,0,.77.4,1.19.85,1.19a6.47,6.47,0,0,0,2.78-1.61A19.51,19.51,0,0,1,267.25,41.63Zm1.51,2.68a15.08,15.08,0,0,0,2.64-3.76,10,10,0,0,0-2.77.51A19.86,19.86,0,0,0,268.76,44.31Z"/><path class="cls-1" d="M283.39,33.27a2.36,2.36,0,0,1,1,.13A2,2,0,0,1,285.77,35a20.78,20.78,0,0,1-.68,2.11,15.42,15.42,0,0,0-.53,3.71c0,.19,0,1.23.17,1.23a4.17,4.17,0,0,0,.3-.94,19.58,19.58,0,0,1,1.47-3.94c.61-1.21,1.72-2.78,3.45-2.78,3.42,0,3.42,5.1,3.42,6,0,7.51-4.89,9-7.79,9.6l-.15-.34c5.22-2.3,6.26-5.88,6.26-9.45,0-.88,0-4.54-2-4.54-2.53,0-3.92,5.39-3.92,7.71,0,.66,0,1.7-.85,1.7-1.36,0-1.66-2.71-1.66-4a30.25,30.25,0,0,1,.53-4.61A7.44,7.44,0,0,0,284,35a1.54,1.54,0,0,0-.73-1.36Z"/><path class="cls-1" d="M304.84,33.65a2.11,2.11,0,0,1,.94-.25c.92,0,2,.7,2,1.31a6.63,6.63,0,0,1-.19.86c0,.1-.08.49-.13.87a19.26,19.26,0,0,0,2.32-.36,15.74,15.74,0,0,1,1.64-.39c.36,0,1.22.41,1.22,1s-.54.56-1.32.68c-.3,0-1.15.19-4,.49,0,.56-.08,1.86-.08,2.35.4,0,.87-.11,1.56-.26.34-.08,2.1-.55,2.19-.55.32,0,1.06.34,1.06.85s-.42.57-1,.7c-1.23.3-3.19.57-3.79.64,0,1,.09,2,.17,3.06,1.54.41,4.75,1.41,4.75,3.07a.61.61,0,0,1-.6.64c-.29,0-.4-.07-1.3-.77a12.68,12.68,0,0,0-2.72-1.42c0,1.23,0,3-3.53,3-2,0-3.71-.73-3.71-2.41,0-.94.73-2.55,3.88-2.55a14,14,0,0,1,1.79.15c0-1-.07-1.62-.09-2.62-1,.08-1.94.12-2.45.12-.76,0-2.85,0-2.85-1.63a1.69,1.69,0,0,1,.7-1.26l.3.19a1,1,0,0,0-.11.45c0,.89,1.05.89,2,.89s1.58,0,2.39-.1c0-.49,0-1.79,0-2.37-1.09.11-2.68.24-3.75.24-2.15,0-2.51-1-2.74-1.68l.29-.22c.3.22.68.51,2.24.51,1,0,2.25-.1,4-.23.08-1.7.09-2.26-1.15-2.62Zm-1,11.79c-1.09,0-2.3.32-2.3,1.18,0,1,1.81,1.12,2.38,1.12,2.3,0,2.26-.85,2.2-2A9.78,9.78,0,0,0,303.8,45.44Z"/><path class="cls-1" d="M321.78,49.57c3.93-1.89,4.4-3.85,4.77-5.47a2.29,2.29,0,0,1-2.2,1.41,2.74,2.74,0,0,1-2.7-3,3,3,0,0,1,3-3.25,3.31,3.31,0,0,1,1.51.38c0-.47,0-1.26,0-2a42.67,42.67,0,0,0-5,.7c-.26.06-1.45.42-1.7.42a1.94,1.94,0,0,1-1.66-1.87,1.42,1.42,0,0,1,.12-.57l.35-.07a1.31,1.31,0,0,0,1.38.72c1,0,5.56-.51,6.49-.59-.06-1.74-.08-2.11-1.36-2.43l0-.36a2.13,2.13,0,0,1,1-.36c.64,0,2,.51,2,1.23,0,.13-.13.71-.15.84a7.51,7.51,0,0,0-.05,1L331,36c.2,0,1.15-.15,1.33-.15.63,0,1.53.45,1.53,1s-.66.6-.88.6c-.48,0-2.47-.06-2.87-.06-1,0-1.36,0-2.47.06,0,1.79,0,2,0,3.54a4.8,4.8,0,0,1,.51,2.36c0,4.53-3.83,6.08-6.21,6.55Zm2.64-5.26C325.5,44.31,326,43,326,42c0-1.22-.68-1.71-1.4-1.71-1.13,0-1.62,1.22-1.62,2.11C323,43.51,323.57,44.31,324.42,44.31Z"/><path class="cls-1" d="M344,46.59A2.62,2.62,0,1,1,341.32,44,2.63,2.63,0,0,1,344,46.59Zm-4.4,0a1.77,1.77,0,0,0,1.77,1.77,1.78,1.78,0,1,0-1.77-1.77Z"/><path class="cls-1" d="M3,72.28c.11-.15.19-.17.27-.17a.48.48,0,0,1,.28.13l1.17,1a.39.39,0,0,1,.19.34c0,.19-.1.32-.7.72v3.8c0,1,0,2.55,4.73,2.55,2.6,0,6.32-.22,8.92-.45v.38c-1.15.64-1.19,1.2-1.2,1.58H10.83a17.54,17.54,0,0,1-4.51-.42,3.65,3.65,0,0,1-2.49-2.3c-.28.38-1.36,1.59-2.06,2.36,0,.45.08.83-.26.83-.17,0-.32-.23-.36-.28L0,80.45a11.11,11.11,0,0,0,2.64-1.21V74H1.89a10.44,10.44,0,0,0-1.42.08L.08,73c.58,0,1.17.07,1.9.07h.43Zm-2-6.47c.27.13,3.53,1.62,3.53,3.45,0,.68-.41,1.15-.89,1.15S3,70.26,2.49,68.92A9.74,9.74,0,0,0,.7,66.11ZM8.83,71h5.75l.72-1.06c.11-.15.18-.19.26-.19a.61.61,0,0,1,.3.15l1.51,1.36a.53.53,0,0,1,.21.36c0,.34-.38.36-.57.36H14v5c0,.37.06,2.16.06,2.39,0,.47-.38.68-1.17.68-.49,0-.55-.19-.55-.51s.06-2.07.06-2.41V72H8.79c-.13,2.17-.42,5.33-3.58,7.81l-.29-.27C6.39,77,7.19,75.65,7.19,70.71V68.77c0-.47,0-1.28-.08-2.38L9,67.17c3.77-.85,4.69-1.06,6.07-1.85l1.51,1.36a.63.63,0,0,1,.26.41c0,.25-.26.27-.32.27a3.66,3.66,0,0,1-.71-.17c-.83.09-4.15.51-6.94.58Z"/><path class="cls-1" d="M28.45,65.94a3,3,0,0,1,.66-.09,2.23,2.23,0,0,1,2.21,1.9c0,.53-.13.63-1,1.21-6.79,4.66-6.79,4.85-6.79,5.19s.15.45,1.55,1.32a36.23,36.23,0,0,1,5.62,4c1,.94,1,1.39,1,1.69,0,.66-.37,1.15-.86,1.15s-.55-.17-.93-.69a20,20,0,0,0-5.49-4.87C22.57,75.48,22,75.11,22,74.28c0-1.06.76-1.61,2.19-2.66s5-3.75,5-4.41c0-.19-.15-.57-.83-.93Z"/><path class="cls-1" d="M38.79,67a2.32,2.32,0,0,1,2.36,1.87,11.56,11.56,0,0,1-.44,1.41,19.33,19.33,0,0,0-1.13,6.21c0,.09,0,1.17.19,1.17s1.34-2.72,1.47-3l.34.13c-.11.47-.66,2.58-.77,3a6.59,6.59,0,0,0-.27,1.75c0,.19.06,1,.06,1.15a.66.66,0,0,1-.64.74c-.92,0-1.7-2-1.7-4.68a26.79,26.79,0,0,1,.47-4.62,27.32,27.32,0,0,0,.53-3.43,1.51,1.51,0,0,0-.64-1.38Zm5.92,8.58a3.21,3.21,0,0,0-.15,1c0,2.3,2.09,2.3,3.57,2.3.47,0,1.18,0,1.83-.09,0,0,.77-.09.9-.09.74,0,1.4.41,1.4.94s-.55.64-.83.7a18.66,18.66,0,0,1-2.51.13c-1.74,0-5.36,0-5.36-2.94a3.08,3.08,0,0,1,.83-2Zm-1-5.39a8.3,8.3,0,0,1,5.6-1.7c.78,0,2.3,0,2.3,1,0,.45-.13.47-1.15.66a18.57,18.57,0,0,0-3.3,1.56L47,71.43c.17-.17,1.45-1.45,1.45-1.51s-.38-.09-.49-.09a16.29,16.29,0,0,0-4,.64Z"/><path class="cls-1" d="M60.93,72.32l.4-.57c.07-.11.13-.17.24-.17a.43.43,0,0,1,.29.13l1,1a.47.47,0,0,1,.21.35c0,.23-.08.29-.62.66V77.8c0,.4.07,2.32.07,2.51,0,.4-.19.72-1.07.72-.4,0-.42-.19-.42-.45v-.81h-2V81c0,.38,0,.78-1.06.78-.38,0-.45-.17-.45-.46,0-.45.05-2.43.05-2.84V75.13a9.64,9.64,0,0,1-1.66,2.11l-.3-.23a23.75,23.75,0,0,0,2.66-9h-.68c-.26,0-.7,0-1.47.07l-.36-1.13c.55,0,1.13.08,1.89.08h3.51l.68-1c.09-.16.16-.21.26-.21s.15,0,.28.17l1.25,1.22a.72.72,0,0,1,.2.42c0,.34-.33.34-.47.34H59.91a20.73,20.73,0,0,1-1,4.22l.21.12Zm-1.88,1v5.49h2V73.3Zm7.86.6V67.3a18,18,0,0,0-.09-1.94l2,.24c.19,0,.46.06.46.3s-.12.31-.74.55v2.79h2l.68-1c.1-.16.17-.19.27-.19a.45.45,0,0,1,.3.17L73,69.45a.75.75,0,0,1,.21.41c0,.36-.34.36-.47.36H68.53V73.9h1.91l.52-.72c.12-.15.17-.18.25-.18a.37.37,0,0,1,.28.13l1.21,1a.51.51,0,0,1,.21.37c0,.15,0,.27-.7.7v4.19c0,.36.06,2.15.06,2.56s-.32.7-1.19.7c-.49,0-.49-.23-.49-.53v-.58H65.5V82c0,.38,0,.74-1.14.74-.43,0-.54-.16-.54-.51s.07-2.08.07-2.45v-4.4c0-.55,0-1.55-.07-2.34l1.85.85Zm-1.41,1v5.7h5.09v-5.7Z"/><path class="cls-1" d="M83.5,67.05c.32.17.47.29.47.48s-.3.37-.81.39a17.79,17.79,0,0,1-6.28,7.13l-.25-.28a22.18,22.18,0,0,0,5.21-8.6Zm2.31,5.06c.44.15.63.24.63.45s-.29.36-.85.45a31.17,31.17,0,0,1-4,6.79c1.73-.13,2.32-.2,7.66-.86A17.11,17.11,0,0,0,87,76l.27-.31c1.48.76,4.92,3.63,4.92,5.53,0,.51-.27,1-.83,1s-.68-.29-1.06-1.19c-.24-.55-.51-1.08-.75-1.55-.64.19-1.3.4-2.28.63-1.42.34-2.06.45-7.78,1.56,0,.23-.13.59-.43.59s-.23-.1-.36-.46L78.1,80c1.32,0,1.81,0,2.74-.09,1.22-2.51,2.9-6,3.18-8.41Zm2-6.56c.11-.16.18-.19.26-.19a.45.45,0,0,1,.34.17l.87.83c.07,0,.34.3.34.52s-.38.44-1,.61a10.68,10.68,0,0,0,5.85,5.56v.4a2.39,2.39,0,0,0-1.53,1.24,12.59,12.59,0,0,1-5.07-7.41H86.29a10.25,10.25,0,0,0-1.38.08l-.4-1.14c.55,0,1.15.08,1.91.08h.75Z"/><path class="cls-1" d="M100.22,66.34H112l.42-.61a.34.34,0,0,1,.26-.18.52.52,0,0,1,.3.13l1.19,1a.45.45,0,0,1,.23.36c0,.2-.11.32-.68.75V79.43c0,.36.06,2.09.06,2.49,0,.24,0,.71-1.19.71-.47,0-.47-.21-.47-.54v-.38H100.05c0,.77,0,1-1.11,1-.53,0-.55-.27-.55-.57,0-.47.06-2,.06-2.43v-12c0-.35,0-1.52-.06-2.18Zm11.94,1H100.05V80.73h12.11Zm-1.36,9a.51.51,0,0,1,.28.39c0,.19-.17.23-.32.23a3.15,3.15,0,0,1-.45-.08,7.26,7.26,0,0,1-1.08.53c1.62.64,2,1.34,2,1.79a.67.67,0,0,1-.65.7c-.28,0-.35-.07-1-.75a8.78,8.78,0,0,0-2.7-1.83v.41c0,.3,0,1.66,0,1.94s0,.72-1,.72c-.47,0-.58-.13-.58-.51s0-1.83,0-2.13v-.79a16.85,16.85,0,0,1-4.7,3l-.17-.34a17.9,17.9,0,0,0,4.09-3.68h-.9c0,.42-.83.42-1,.42-.4,0-.49-.17-.49-.38s0-1.91,0-2.25c0-.13,0-.81-.07-1.58l1.62.72h4.55l.47-.59a.25.25,0,0,1,.21-.13.47.47,0,0,1,.26.11l1,.87a.44.44,0,0,1,.2.32c0,.15-.09.27-.6.57,0,.28,0,1.49,0,1.73ZM107,67.64c.17,0,.47.06.47.3s-.21.32-.7.51v.38h1.62l.51-.72c.06-.07.12-.17.25-.17a.43.43,0,0,1,.3.15l1.09,1a.53.53,0,0,1,.23.38c0,.28-.3.34-.57.34h-3.43V70.9h2.47l.53-.75c.08-.12.15-.19.26-.19a.46.46,0,0,1,.31.15l1.11,1.06a.56.56,0,0,1,.21.37c0,.34-.42.34-.55.34h-8.64c-.66,0-1.15.06-1.41.08l-.38-1.13c.55,0,1.13.07,1.89.07h2.75V69.81h-1.92a13,13,0,0,0-1.42.07l-.39-1.13c.54,0,1.15.08,1.9.08h1.83a13.57,13.57,0,0,0-.08-1.42Zm-3.32,6.15V74.9h4.81V73.79Zm3.13,2.94a9.29,9.29,0,0,1,1.64.38c.45-.49.7-.76.85-1-.7.08-.81,0-.81-.28h-1.68Z"/><path class="cls-1" d="M119.12,76.69c2.73.77,4.71,2.49,4.71,4a1.15,1.15,0,0,1-1,1.28c-.51,0-.59-.15-1.17-1.41A10.73,10.73,0,0,0,118.93,77Z"/><path class="cls-1" d="M132.42,67.81a15.32,15.32,0,0,0-.1-2l2,.26c.21,0,.49.08.49.31s-.17.35-.73.56v3.81h3.24V67.49a14.23,14.23,0,0,0-.09-2l1.92.25c.27,0,.55.07.55.34s-.25.34-.78.54v4.17h3.17V67.83a12.53,12.53,0,0,0-.09-2l2,.25c.28,0,.49.11.49.34s-.21.33-.73.54v3.83h.6l.68-1.06a.3.3,0,0,1,.26-.18.4.4,0,0,1,.27.15l1.22,1.3a.67.67,0,0,1,.21.43c0,.34-.32.34-.45.34h-2.79v3.7c0,.41.07,2.19.07,2.54,0,.55-.58.68-1.19.68-.45,0-.51-.15-.51-.54v-.46h-3.17v.53c0,.23,0,.7-1,.7-.59,0-.6-.23-.6-.53s0-2.21,0-2.56V71.73h-3.24v8.85h9.2l.83-1.21c.08-.11.13-.19.27-.19s.15,0,.28.15l1.54,1.45a.69.69,0,0,1,.21.42c0,.36-.34.36-.47.36H134.08V82c0,.38,0,.78-1.17.78-.55,0-.55-.27-.55-.49,0-.46.06-2.45.06-2.85V71.73h-1.19a11.83,11.83,0,0,0-1.47.08l-.32-1.13c.58,0,1.17.07,1.9.07h1.08Zm9.67,3.92h-3.17v4.94h3.17Z"/><path class="cls-1" d="M163.62,67.13l.49-.72c.09-.15.19-.19.26-.19a.49.49,0,0,1,.29.14l1.24,1c.19.15.25.26.25.39s0,.28-.72.72V79c0,.27.08,2.42.08,2.57,0,.56-.74.62-1.19.62s-.51-.19-.51-.58v-.76H153v.68c0,.38,0,.75-1.09.75-.51,0-.61-.11-.61-.52s.06-2.1.06-2.44V68.7c0-.76,0-1.55-.08-2.4l2,.83Zm-10.58,1v5.26h4.53V68.11Zm0,6.24v5.51h4.53V74.35Zm10.77-1V68.11h-4.68v5.26Zm0,6.49V74.35h-4.68v5.51Z"/><path class="cls-1" d="M187.66,75.41a2.53,2.53,0,0,0-1.61,1.43,25,25,0,0,1-2.43-1.47l.53.45a.52.52,0,0,1,.21.4c0,.17-.06.23-.59.66v2.77c0,.19.08,2.19.08,2.45s0,.7-1.23.7c-.47,0-.51-.17-.51-.49v-.43h-6.77c0,.7,0,.94-1.15.94-.45,0-.57-.13-.57-.53s.06-2.11.06-2.47V76.71c0-.34,0-.45,0-1.38A23.19,23.19,0,0,1,170,77.24l-.15-.36c5.11-3.19,7.34-6.77,7.92-8.32l1.68.72c.36.15.49.25.49.43s-.26.32-.62.36a16.85,16.85,0,0,0,8.36,5Zm-10.72-9.17c.38.21.42.29.42.42,0,.36-.4.32-.85.3a18.26,18.26,0,0,1-5.77,4.36l-.23-.31c2-1.92,3.93-3.69,4.7-5.71Zm5.1,9.09.37-.54a.38.38,0,0,1,.23-.19,15.35,15.35,0,0,1-3.77-4.17,18.7,18.7,0,0,1-4.47,4.41l1.11.49Zm-6.7,1V80.9h6.77V76.31Zm4.39-10.82c2.32.6,6.15,2.64,6.15,4.39a.84.84,0,0,1-.77.93c-.43,0-.55-.13-1.49-1.27a16.87,16.87,0,0,0-4-3.71Z"/><path class="cls-1" d="M197.79,68.7c.17.09.45.26.45.45s-.2.3-.81.28a20.63,20.63,0,0,1-3.5,4.09l2.69-.15a11.4,11.4,0,0,0-.77-1.41l.26-.27c1.53,1,2.19,1.93,2.19,2.87,0,.59-.32.94-.7.94s-.36-.17-.54-.84a6.68,6.68,0,0,0-.25-.78c-.34.12-.43.13-1.15.34V80c0,.36,0,1.91,0,2.21s-.28.66-1,.66c-.44,0-.51-.11-.51-.45s0-2.06,0-2.4V74.58l-2,.51c0,.23-.13.51-.36.51s-.26-.15-.36-.45L191,73.52a15.6,15.6,0,0,0,2.08,0,20.58,20.58,0,0,0,3.3-5.66Zm-4.22,7.8c.28.1.43.13.43.32s-.36.34-.55.38a14.28,14.28,0,0,1-2,4.51l-.33-.15a22,22,0,0,0,1.07-5.49Zm-2.06-8.39a5.9,5.9,0,0,1,1.51.74,11.91,11.91,0,0,0,1.23-3.61l1.62.64c.49.19.49.38.49.46,0,.32-.25.32-.78.34a20,20,0,0,1-2,2.56,2.19,2.19,0,0,1,.9,1.55.84.84,0,0,1-.73.9c-.34,0-.4-.11-1-1.28a6.82,6.82,0,0,0-1.45-2Zm4.72,7.6a4.64,4.64,0,0,1,2,3.13.85.85,0,0,1-.76.91c-.37,0-.41-.3-.51-.91A8.74,8.74,0,0,0,196,76Zm5.33-8.88c.44.19.48.22.48.43s-.34.36-.76.38a13.93,13.93,0,0,1-3.64,4.43l-.28-.24a16,16,0,0,0,2.49-5.25c.07-.3.09-.34.11-.45Zm-2.24,10.8a5.21,5.21,0,0,1,.15,1.4c0,1.94-.74,2.66-1.43,2.66a.6.6,0,0,1-.66-.58c0-.27.11-.44.45-.85a4.91,4.91,0,0,0,1.11-2.63Zm3.71-8.2c.48.13.55.23.55.38s-.3.34-.72.41a26.23,26.23,0,0,1-2,3c1.74-.09,2.21-.11,4-.26a7.84,7.84,0,0,0-1.13-1.7L204,71c2,.87,3.13,2.26,3.13,3.36a.81.81,0,0,1-.79.9c-.38,0-.53-.32-.63-.51s-.45-1-.54-1.21c-.55.16-1.4.4-2.51.61-2.74.53-3,.58-3.19.62-.07.25-.17.53-.41.53-.08,0-.19,0-.32-.4l-.55-1.6c.51,0,.94,0,2,0A19.89,19.89,0,0,0,201.39,69Zm-1,7.41c.17,0,.45.08.45.32s-.19.32-.68.53v2.38c0,.45,0,.71.76.71,1.5,0,1.58,0,1.79-.39s.37-1.59.47-2l.38,0c.13,1.77.13,2,.28,2.13.34.36.41.43.41.72,0,1-1.39,1-3.22,1s-2.36,0-2.36-1.52v-2c0-.53,0-1.48-.09-2.17Zm-1.29-2.15c1.19.19,3.49.68,3.49,2.15a.69.69,0,0,1-.68.78c-.28,0-.35-.1-1.05-1a7.43,7.43,0,0,0-1.89-1.58ZM202,66.22c.52,0,1,.06,1.62.08l.45-.6c.11-.15.17-.17.26-.17a.49.49,0,0,1,.31.15l.81.77c.09.09.26.26.26.43,0,.33-.38.42-1.07.57a7.65,7.65,0,0,0,3.94,2.87v.37a2.25,2.25,0,0,0-1.42,1.19,9,9,0,0,1-3.17-4.6,11.27,11.27,0,0,0-1.6.08Zm3.48,10.62c2.38,1.34,2.7,2.81,2.7,3.45,0,.8-.49,1-.81,1s-.49-.13-.87-1.39a10.62,10.62,0,0,0-1.28-2.79Z"/><path class="cls-1" d="M221.18,71.64l.7-1a.28.28,0,0,1,.26-.17.4.4,0,0,1,.3.15l1.25,1.22a.76.76,0,0,1,.22.44c0,.3-.3.34-.47.34h-5.92c-.45,0-.89,0-1.47.07l-.32-1a15.68,15.68,0,0,1-4.3,2.51l-.19-.32c3.36-2.24,6.51-5.77,7.56-8.65l1.72.43c.15,0,.64.17.64.47s-.26.28-.49.32a16.11,16.11,0,0,0,8.51,5.49v.38a2.73,2.73,0,0,0-1.76,1.54,17.67,17.67,0,0,1-7.22-7.13,18,18,0,0,1-4.34,4.87c.47,0,1,.06,1.72.06Zm2.66,3.49.47-.72c.08-.09.15-.19.26-.19a.74.74,0,0,1,.31.13l1.26,1a.49.49,0,0,1,.23.38c0,.21-.08.26-.68.75v3c0,.34.05,2.25.05,2.46,0,.37,0,.77-1.18.77-.49,0-.53-.15-.53-.57v-.54h-7.7v.49c0,.41,0,.75-1.11.75-.43,0-.6-.07-.6-.49s0-2.19,0-2.56v-3.3c0-.78,0-1.7-.07-2.23l2,.89Zm-7.51,1V80.6H224V76.11Z"/><path class="cls-1" d="M235.33,72.3c.08-.12.15-.19.27-.19a.43.43,0,0,1,.28.13l1.13,1a.51.51,0,0,1,.23.38c0,.22-.21.38-.7.71v3.81c0,1,0,2.53,4.81,2.53.3,0,4.69-.07,8.86-.45l0,.38c-1.15.66-1.19,1.11-1.22,1.64h-5.78c-2.52,0-4.09-.12-5.33-.78a3.07,3.07,0,0,1-1.7-2c-.23.32-1.08,1.3-2,2.38,0,.55,0,.83-.26.83s-.31-.19-.36-.28l-1.19-1.91A14.42,14.42,0,0,0,235,79.29V74h-.73a10.33,10.33,0,0,0-1.4.08l-.4-1.13c.59,0,1.15.07,1.91.07h.4Zm-2.17-6.47c.61.28,3.61,1.71,3.61,3.47a1.07,1.07,0,0,1-.93,1.15c-.41,0-.45-.13-.94-1.28a10.16,10.16,0,0,0-2-3Zm14,.68.58-.68c.11-.13.17-.17.27-.17s.15,0,.3.17l1.15,1.09a.63.63,0,0,1,.22.42c0,.28-.24.36-1.13.37a6.9,6.9,0,0,1-.68.51.88.88,0,0,1,.29.17l1.11,1a.48.48,0,0,1,.21.38c0,.32-.4.32-.53.32h-4.87V71.2h2.34l.44-.58c.07-.13.13-.17.22-.17a.52.52,0,0,1,.27.13l1.09.94a.45.45,0,0,1,.17.34c0,.12,0,.25-.64.66v1.31c0,.33.05,1.82.05,2.13a.4.4,0,0,1-.09.3.54.54,0,0,1,.3.15l1.32,1.21a.47.47,0,0,1,.19.35c0,.34-.45.34-.55.34H244.1c0,.23,0,1.21,0,1.42s0,.7-1.06.7c-.41,0-.51-.14-.51-.48s0-1.41,0-1.64h-3.47a9.87,9.87,0,0,0-1.37.08l-.4-1.13c.53,0,1.11.07,1.87.07h3.37V76.16h-2.36c-.05.49-.83.49-1,.49-.49,0-.51-.26-.51-.41s.06-1.75.06-2.09V72.58a20.65,20.65,0,0,0-.07-2.09l1.6.71h2.26V70.13h-2.83a12.37,12.37,0,0,0-1.39.07l-.4-1.13c.59,0,1.15.08,1.87.08h2.73c0-.23,0-.81-.07-1.44l1.81.23c.17,0,.41.08.41.32s-.2.32-.66.49v.4h3l.53-.72-.55.4-.3-.21c.1-.26.14-.34.44-1.13H239.8c0,.21-.24,1.56-1.34,1.56a.64.64,0,0,1-.71-.6c0-.23,0-.3.6-1a6,6,0,0,0,.85-1.68h.38a4.14,4.14,0,0,1,.2.78Zm-6.91,5.6V73.2h2.36V72.11Zm0,2v1.15h2.36V74.11Zm6.25-.91V72.11h-2.42V73.2Zm0,2.06V74.11h-2.42v1.15Zm1.2,1.15a2,2,0,0,1-.73.13c-.44,0-.45-.21-.45-.38h-2.44v1.17h3Z"/><path class="cls-1" d="M258.18,69.69H255.5c-.41,0-.83,0-1.47.08l-.32-1.13c.6,0,1.15.07,1.91.07h2.56V67.32c-1.13.09-2.07.17-3.62.19l0-.36c1.51-.28,5.4-1,6.72-1.91l1.35,1.19c.15.13.21.21.21.32a.29.29,0,0,1-.3.29,1.78,1.78,0,0,1-.68-.19c-.79.13-1.24.2-2.09.3v1.56H261l.6-.84c.12-.16.19-.21.29-.21s.15,0,.28.17l1.15,1.11a.69.69,0,0,1,.21.42c0,.33-.34.33-.49.33h-3.3V71h1.79l.36-.51c.07-.1.13-.19.26-.19a.41.41,0,0,1,.27.15l1,.92a.51.51,0,0,1,.19.36c0,.23-.38.47-.61.6v1.5c0,.35.08,2,.08,2.33,0,.53-.55.64-1.08.64l0,0L263.14,78a.65.65,0,0,1,.23.42c0,.36-.36.36-.47.36h-3.17v1.32l3.3-.44.07.4a52.54,52.54,0,0,1-7.86,2.21c-.08.39-.11.56-.34.56s-.34-.24-.42-.43l-.71-1.7a39.37,39.37,0,0,0,4.41-.41V78.75h-2.56c-.36,0-.72,0-1.48.09l-.32-1.15a18.6,18.6,0,0,0,1.91.08h2.45V76.45h-1.9c-.06.52-.78.52-.87.52-.44,0-.55-.11-.55-.43s.08-1.77.08-2.11V72.52c0-.51,0-1.73-.08-2.2l1.59.68h1.73Zm.13,2.21h-2v1.34h2Zm0,2.25h-2v1.39h2Zm1.3-.91h2V71.9h-2Zm0,2.3h2V74.15h-2Zm.12,2.23h1.09l.6-.89c.12-.15.17-.17.25-.19s0-.09,0-.24h-1.9Zm7.31-12c.27,0,.55.07.55.34s-.17.32-.77.56c0,1,0,1.25-.06,3.25h1.62l.44-.62c.11-.15.2-.27.32-.27s.19.08.32.17l1.13,1c.19.15.23.24.23.35,0,.27-.17.4-.66.76a58,58,0,0,1-.81,9.11c-.57,2.15-1.8,2.18-3.3,2.22a1.43,1.43,0,0,0-.21-.87c-.3-.43-.57-.52-1.49-.92l0-.38,2.32.21c.57,0,1-.15,1.29-1.66a59,59,0,0,0,.64-8.07h-1.94c-.31,4.87-1.12,9.09-5.3,11.88l-.25-.28c3.17-3.26,3.68-6.23,4-11.6h-.42a11.5,11.5,0,0,0-1.47.07L263,69.86c.55,0,1.13.08,1.89.08h.37a38.22,38.22,0,0,0-.05-4.36Z"/><path class="cls-1" d="M280.44,76.73a14.25,14.25,0,0,1-2.24,1.51c-2,1.13-2.26,1.24-2.38,1.32,0,.36-.07.6-.28.6s-.17,0-.34-.43l-.74-1.79a16.62,16.62,0,0,0,2.4-.48v-5.8h-.49a11.85,11.85,0,0,0-1.41.07l-.38-1.11c.66,0,1.13.06,1.88.06h.4v-3a15.42,15.42,0,0,0-.09-2l1.82.21c.17,0,.5.06.5.32s-.1.28-.7.53v3.89h.17L279,70a.31.31,0,0,1,.26-.17.41.41,0,0,1,.29.15l1,1c.17.19.21.28.21.38,0,.3-.42.32-.55.32h-1.79V77c.62-.19,1-.32,1.9-.64Zm1,5.83c4-2.62,5-4.59,5.62-6h-1.5a12,12,0,0,1-5.64,4.92l-.21-.3a15.07,15.07,0,0,0,4.37-4.62h-1.45a10.91,10.91,0,0,1-3.75,3.07l-.23-.3c2.55-2.45,3.21-3.75,3.64-5h-.81a11.91,11.91,0,0,0-1.41.08l-.4-1.13c1.15.07,1.57.07,1.91.07h7.86l.66-.9c.06-.1.11-.19.25-.19a.41.41,0,0,1,.28.15l1.32,1.21a.52.52,0,0,1,.21.37c0,.34-.42.34-.55.34h-7.68a10.91,10.91,0,0,1-.64,1.21h6.21l.54-.68c.06-.08.12-.13.19-.13a.37.37,0,0,1,.25.11l1.11,1a.64.64,0,0,1,.23.4c0,.09,0,.24-.7.52-.59,5.4-.93,5.89-3.47,6,0-1-.28-1-1.85-1.54l0-.36L288,81c.74,0,.91-.19,1.08-.88a21.46,21.46,0,0,0,.49-3.53h-1a11,11,0,0,1-7,6.34Zm6.68-16.15.53-.68c.11-.15.17-.17.24-.17a.56.56,0,0,1,.31.14l1.09.94a.45.45,0,0,1,.21.34c0,.23-.21.36-.64.64v2c0,.4.05,2.34.05,2.45,0,.45-.38.66-1.11.66-.49,0-.49-.19-.49-.56h-5.24c0,.41-.38.58-1,.58-.45,0-.55-.17-.55-.45s.08-2.13.08-2.47v-2c0-.31,0-1.23-.08-2.21l1.79.77Zm-5.05,1v1.38h5.24V67.39Zm0,2.36V71.2h5.24V69.75Z"/><path class="cls-1" d="M299,66.32a2.28,2.28,0,0,1,1-.25c.93,0,2.11.81,2.11,1.4,0,.15-.19.85-.2,1s0,.85,0,1.64a3.74,3.74,0,0,0,.43,2.28c1.06-.49,1.3-.58,3.34-1.41a11.56,11.56,0,0,1,1.75-.72c.59,0,1.46.51,1.46,1.09s-.15.48-1.36.76a34.42,34.42,0,0,0-5.7,2c-1.73.77-3.81,2-3.81,3.64s2.59,2.11,4.79,2.11a20.74,20.74,0,0,0,3.89-.34c.23,0,1.15-.23,1.3-.23.74,0,1.45.61,1.45,1.08s-.83.7-1.24.75a40.11,40.11,0,0,1-4.75.29c-3.29,0-4.32-.51-4.93-.85a3.22,3.22,0,0,1-1.71-2.74c0-1.34.62-2.92,4.28-4.81-.64-.64-.72-1.47-.76-3.28,0-2.35-.07-2.64-1.3-3Z"/><path class="cls-1" d="M314.14,68c2.38-.06,2.57,1.68,2.57,1.89s-.27,1.79-.3,2.09a19.71,19.71,0,0,0-.17,2.36c0,2.47.79,3.82,1.32,3.82.24,0,.43-.16.9-.79s.93-1.3,1.89-2.73l.32.15c-.23.57-1.3,3-1.53,3.54a2.39,2.39,0,0,0-.28.91c0,.15.21.83.21,1a.67.67,0,0,1-.7.64,3.58,3.58,0,0,1-2.49-1.88,9.89,9.89,0,0,1-1.15-5.13c0-.59.15-3.15.15-3.68a1.81,1.81,0,0,0-.89-1.85Zm10.7,8.49c.26-.06,1.43-.32,1.66-.4.52-.15.54-.45.54-.64a7.81,7.81,0,0,0-2.86-5.62l.15-.3c4.17.86,4.54,5.88,4.54,6.73,0,.26,0,1.72-.88,1.72-.31,0-.44-.17-.68-.46s-.42-.49-2.45-.68Z"/><path class="cls-1" d="M334.61,72.94c.17.26.4.6.81.6a5.6,5.6,0,0,0,1.87-.51,15.26,15.26,0,0,1,5-1.09c2.26,0,4.11,1.28,4.11,3.75,0,5.08-6.53,5-8,5l-.06-.42c3.08-.43,6.45-1.58,6.45-4.73a2.41,2.41,0,0,0-2.56-2.62,11.63,11.63,0,0,0-5.47,1.83c-.75.49-.85.55-1,.55a2,2,0,0,1-1.54-1.74,1.57,1.57,0,0,1,.11-.53Z"/><path class="cls-1" d="M355.58,66.19a1.5,1.5,0,0,1,.66-.17c1,0,1.94.85,1.94,1.41,0,.17,0,.23-.3.74-.17.32-.42,1.07-.57,1.47a6.63,6.63,0,0,0,1.3-.44c.74-.35.83-.39,1.08-.39.58,0,1.17.3,1.17.77s-.32.81-4.06,1.55c-1.83,5.39-2.17,6.39-3.07,8.5-.57,1.34-.83,1.85-1.4,1.85s-.77-.49-.77-1c0-.29,0-.31.56-1.27a58.88,58.88,0,0,0,3.15-7.77,14.86,14.86,0,0,1-1.79.15c-1.7,0-2-.94-2.19-1.45l.27-.24a2.58,2.58,0,0,0,1.64.35,16.54,16.54,0,0,0,2.53-.22,13.8,13.8,0,0,0,.6-2.44c0-.62-.62-.9-.87-1Zm3.67,10.43a2.81,2.81,0,0,0-.58,1.6c0,1.7,2.58,1.7,3.86,1.7.34,0,1.8-.12,2.1-.12.94,0,1.34.61,1.34,1s-.36.73-3.34.73c-1.19,0-5.11,0-5.11-2.71A3.05,3.05,0,0,1,359,76.37Zm0-4.34A6.68,6.68,0,0,1,363,71.22c1.75,0,2.79.66,2.79,1.27s-.44.54-1.19.58A6.73,6.73,0,0,0,362,74.24l-.21-.28a12.82,12.82,0,0,0,1.32-1.34c0-.21-1.07-.21-1.36-.21a13.32,13.32,0,0,0-2.35.21Z"/><path class="cls-1" d="M13.15,100.93l.54-.79c.06-.1.13-.19.25-.19a.56.56,0,0,1,.28.13l1.32,1.06c.15.11.23.19.23.36s0,.28-.72.77V112c0,.42.08,2.25.08,2.6s0,.68-1.21.68c-.53,0-.53-.18-.53-.64V114H4.26v.53c0,.45,0,.79-1.11.79-.51,0-.62-.11-.62-.47s.05-2.34.05-2.74V102.4a21.91,21.91,0,0,0-.07-2.32l2.07.85H6.7a11.79,11.79,0,0,0,.83-3l2.2.59c.32.09.57.19.57.43s-.32.36-1,.42c-.43.47-.92,1-1.52,1.56Zm-8.89,1v3h9.13v-3Zm0,4V109h9.13v-3.06Zm0,4V113h9.13v-3.09Z"/><path class="cls-1" d="M32.42,98.23c.13,0,.45.06.45.34s-.17.32-.7.53a34.55,34.55,0,0,1-.13,3.74h2.38l.73-1.08a.83.83,0,0,1-.73-.55A5.37,5.37,0,0,0,33,99.12l.17-.34c1.34.28,2.72,1.11,2.72,2a1,1,0,0,1-.36.81l.17.13,1.36,1.34a.72.72,0,0,1,.19.4c0,.34-.32.34-.46.34h-4.3a7.79,7.79,0,0,0,5,5.11v.37a3,3,0,0,0-1.6,1.42c-2-1.34-3.38-3.55-3.9-6.9h-.08a8.23,8.23,0,0,1-5.7,6.81l-.17-.34c2.76-1.93,3.89-3.8,4.34-6.47h-1a13.53,13.53,0,0,0-1.49.07l-.23-.68a13.15,13.15,0,0,1-7.18,7.68l-.19-.32A15.94,15.94,0,0,0,24.67,106a15.5,15.5,0,0,0,2.18-5H24c-.19.35-.31.58-.59,1.07,1.7.21,2.21.79,2.21,1.53,0,.45-.23.77-.57.77s-.43-.13-.85-.66a5.68,5.68,0,0,0-1.11-1.09,10.15,10.15,0,0,1-1.17,1.6c1.64.38,2.26,1,2.26,1.76a.8.8,0,0,1-.69.9c-.32,0-.46-.24-.81-.85a6.25,6.25,0,0,0-1.17-1.34,9.41,9.41,0,0,1-1.36,1.21l-.27-.28a20,20,0,0,0,3.47-7.7l1.63.42c.43.11.51.22.51.37,0,.32-.36.38-.7.44-.13.38-.17.47-.34.87h2.26l.49-.61c.06-.07.15-.19.27-.19s.24.12.3.17l1.13,1.12a.4.4,0,0,1,.17.35c0,.31-.23.4-.87.68-.19.64-.26.87-.4,1.23.61,0,1,.06,1.61.06h1.07a23.69,23.69,0,0,0,.12-2.51c0-.23,0-1.3-.1-2.3Zm-9.26,12.56c.15,2.17-.34,4.53-1.89,4.53a.7.7,0,0,1-.77-.68c0-.32.21-.6.68-1.13a6.88,6.88,0,0,0,1.6-2.77Zm2.07-.18c.36.24,2.47,1.73,2.47,3.39a1,1,0,0,1-.94,1.15c-.51,0-.57-.28-.74-1.23a8.45,8.45,0,0,0-1.07-3Zm4.11,0c1.17.64,2.74,2,2.74,3.24,0,.79-.47,1.25-.91,1.25s-.56-.38-.85-1.42a9.22,9.22,0,0,0-1.24-2.79Zm3.85,0c.62.24,3.55,1.6,3.55,3.47,0,1.17-.68,1.24-.87,1.24-.4,0-.51-.28-.85-1.11A9.67,9.67,0,0,0,33,110.87Z"/><path class="cls-1" d="M50.88,113.7a10.5,10.5,0,0,0,.88-2.3l1.85.62c.14,0,.32.15.32.3,0,.36-.43.32-.75.3a12.8,12.8,0,0,1-1.11,1.08h3.11l.77-1.11a.29.29,0,0,1,.25-.19.51.51,0,0,1,.3.15l1.41,1.37a.61.61,0,0,1,.21.42c0,.34-.34.34-.47.34H42.47a12.47,12.47,0,0,0-1.49.07l-.36-1.13c.55,0,1.13.08,1.9.08h3.76a8.22,8.22,0,0,0-1.15-2,1.23,1.23,0,0,1-.89.29c-.68,0-.72-.21-.72-.51s.06-1.44.06-1.65V109c0-.39,0-.94-.08-1.88l1.83.79h8.08l.5-.68c.08-.09.14-.17.25-.17a.56.56,0,0,1,.28.13l1.19,1c.1.1.21.19.21.34s0,.26-.66.66v.51c0,.23,0,1.21,0,1.42,0,.54-.66.64-1.18.64s-.49-.17-.49-.38H45.71c1.62.66,2.23,1.21,2.23,2a.72.72,0,0,1-.08.32Zm4.24-7.9.74-1.08c.09-.13.15-.19.24-.19s.17,0,.3.17l1.38,1.3a.73.73,0,0,1,.21.44c0,.34-.34.34-.47.34H42.71a13.4,13.4,0,0,0-1.47.07l-.36-1.13c.55,0,1.13.08,1.89.08ZM46.8,99.44c0-.83,0-.92-.07-1.47l1.77.23c.17,0,.44.07.44.3s-.06.22-.68.49v.45h2.26c0-.89,0-1-.08-1.47l1.76.23c.17,0,.45.07.45.28s-.23.32-.68.51v.45h2.11l.46-.64a.3.3,0,0,1,.24-.17.48.48,0,0,1,.28.13l1.16,1a.42.42,0,0,1,.2.36c0,.13,0,.26-.66.68v1.86c0,.29.06,1.57.06,1.83,0,.61-.74.68-1.13.68s-.47-.22-.47-.45H44.64c0,.17,0,.59-1,.59-.58,0-.6-.27-.6-.53s.06-1.89.06-2.19v-2c0-.75,0-1.45-.08-2l1.74.85Zm-2.16,1v1.15h2.18v-1.15Zm0,2.13v1.21h2.18v-1.21Zm.54,6.32v1.53h8.38v-1.53Zm3.08-8.45v1.15h2.26v-1.15Zm0,2.13v1.21h2.26v-1.21Zm6-1v-1.15H52v1.15Zm0,2.19v-1.21H52v1.21Z"/><path class="cls-1" d="M62.48,103.17a.93.93,0,0,0,1,.7c.34,0,2.57-.51,3.11-.62a14.73,14.73,0,0,0,.85-2.87c0-.6-.6-.86-1-1l.1-.34a2.2,2.2,0,0,1,.79-.17c.88,0,1.9.85,1.9,1.39,0,.17,0,.25-.37.87a16.76,16.76,0,0,0-.78,1.87,9.76,9.76,0,0,1,1-.06c2.19,0,2.91,1.28,2.91,3.7a14.53,14.53,0,0,1-1.34,6.22,2.63,2.63,0,0,1-1.94,1.45c-.63,0-.65-.37-.68-.81a1.39,1.39,0,0,0-.51-1c-.19-.19-1-1-1.21-1.13l.21-.3a10.91,10.91,0,0,0,2.32,1.06c1.17,0,1.73-3.85,1.73-5.83,0-1.77-.6-2.17-1.58-2.17a8,8,0,0,0-1.4.15c-1,2.51-1.69,4.34-3.18,7.56-.42.89-.93,2-1.49,2s-.72-.51-.72-1,.05-.57.7-1.55a53.59,53.59,0,0,0,3.15-6.6,10.51,10.51,0,0,0-1.57.56,4.13,4.13,0,0,1-1,.42A1.87,1.87,0,0,1,62,103.87a1.71,1.71,0,0,1,.15-.66Zm9.87-1.45A5.17,5.17,0,0,1,75.59,103a5.76,5.76,0,0,1,2.07,4.08c0,.85-.45,1.11-.71,1.11a1.15,1.15,0,0,1-.55-.15,1.53,1.53,0,0,0-.58-.11c-.31,0-1.63.16-1.89.18l-.11-.34c1.49-.69,2-.92,2-1.47,0-1.07-1.49-3.28-3.57-4.28Z"/><path class="cls-1" d="M82.06,101.7a2.26,2.26,0,0,0,1.6.4,15.25,15.25,0,0,0,2.36-.23,8.36,8.36,0,0,0,.62-1.94c0-.49-.58-.73-.81-.83l.07-.34a2.4,2.4,0,0,1,.7-.13c.93,0,1.87.85,1.87,1.36a1.87,1.87,0,0,1-.47.92,4,4,0,0,0-.36.62,10.31,10.31,0,0,0,1.17-.34,6.21,6.21,0,0,1,.92-.28c.53,0,1.13.4,1.13.79s-.54.59-1.3.76l-2.62.53c-2,4.22-2.19,4.69-3.26,6.8-.77,1.51-1.08,1.51-1.3,1.51-.57,0-.7-.67-.7-1s.09-.56.94-1.86a48.46,48.46,0,0,0,2.79-5.19,10.61,10.61,0,0,1-1.75.17c-1.32,0-1.57-.64-1.91-1.51ZM91,103a5.06,5.06,0,0,1,1.34-.2c2,0,3.94,1.17,3.94,2.22a.69.69,0,0,1-.66.74c-.19,0-.25,0-.83-.25a1.85,1.85,0,0,0-.74-.15c-2,0-2,1.23-2,2,0,.62.08,1.64.19,3.15.81.34,3.11,1.3,3.11,2.57a.69.69,0,0,1-.6.77c-.3,0-.4-.08-1.11-.7a10.48,10.48,0,0,0-1.36-1c-.32,2.28-2.87,2.28-3.47,2.28-1.83,0-3.15-.83-3.15-2.32,0-1.17,1-2.32,3.24-2.32a7.94,7.94,0,0,1,1.89.23c-.06-1.57-.06-1.74-.06-2.25,0-1.11,0-2.79,2.7-3.22.09,0,.3-.06.3-.17,0-.26-1.36-.81-2.79-1.06Zm-2.49,8.08c-1.36,0-1.81.56-1.81,1,0,.91,1.47,1,1.87,1,2.26,0,2.28-1.15,2.28-1.61A7.14,7.14,0,0,0,88.47,111.08Z"/><path class="cls-1" d="M116.41,103l1.3,1.15a.62.62,0,0,1,.21.38c0,.34-.44.34-.57.34H108a10.64,10.64,0,0,0-1.38.08c.3.3.38.39.38.56,0,.32-.42.32-.53.32h-1.92v4.6c1-.3,1.39-.39,2.22-.64l.15.36c-.75.57-1.09.72-5,2.6,0,.36-.06.64-.36.64s-.28-.15-.36-.32l-.79-1.77c.59-.09,1.47-.22,2.66-.49v-5h-.53c-.24,0-.85,0-1.41.08l-.38-1.13c.49,0,1,.07,1.89.07H103v-4.11h-.77a10.52,10.52,0,0,0-1.42.08l-.37-1.14c.73.06,1.11.08,1.88.08h1.94l.66-.92c.08-.1.14-.19.27-.19a.48.48,0,0,1,.3.15l1.36,1.24a.6.6,0,0,1,.19.25V100a13.7,13.7,0,0,0-.08-1.68l1.66.77h6.24l.47-.62c.06-.07.12-.15.23-.15a.4.4,0,0,1,.26.13l1.1,1a.48.48,0,0,1,.21.35c0,.21-.19.34-.66.63v.75c0,.25,0,1.28,0,1.49a.4.4,0,0,1-.17.38Zm-.66.13c-.74.08-.74-.17-.76-.39h-6.56c0,.43-.43.55-1,.55s-.53-.23-.53-.4.08-1.43.08-1.7v-.7c-.08.25-.36.25-.55.25h-2v4.11h.28l.49-.72c.08-.09.13-.17.25-.17a.32.32,0,0,1,.26.16l.75.77-.37-1.08c.54,0,1.15.08,1.9.08h7.11ZM118,113.72a1.83,1.83,0,0,0-1.3,1.26,8.75,8.75,0,0,1-4.41-4.49v2.1c0,.34,0,1.86,0,2.16,0,.63-.58.72-1,.72s-.53-.15-.53-.43,0-2.06,0-2.4v-1.39A14.29,14.29,0,0,1,104.7,115l-.15-.36a21.82,21.82,0,0,0,5.69-5.07h-1.49c-.06.49-.89.49-1,.49-.45,0-.54-.19-.54-.44,0,0,.07-1.53.07-1.68v-1.07a15.92,15.92,0,0,0-.07-1.68l1.71.81h5.62l.49-.66c.08-.11.13-.15.23-.15a.61.61,0,0,1,.28.11l1.1,1a.52.52,0,0,1,.18.36c0,.22-.37.45-.62.6v.64c0,.23.06,1.21.06,1.4a.44.44,0,0,1-.25.45l1,.72a.45.45,0,0,1,.25.35c0,.21-.17.27-.31.27a2.15,2.15,0,0,1-.56-.08,15.6,15.6,0,0,1-1.77.89,8.76,8.76,0,0,0,3.39,1.45ZM109.84,100h-1.41v1.76h1.41Zm-1.09,7v1.61h5.92V107Zm3.64-7H111v1.76h1.39Zm.06,9.57a7,7,0,0,0,1.64,1.86,8,8,0,0,0,1.36-1.58c-.53.06-.74,0-.78-.28ZM115,100h-1.43v1.76H115Z"/><path class="cls-1" d="M135.54,100l.6-.87c.11-.15.19-.19.27-.19s.16,0,.33.17l1.31,1.13a.61.61,0,0,1,.2.38c0,.32-.37.34-.56.34h-2.36l.57.21c.3.11.35.22.35.34,0,.32-.35.34-.69.36-.42.49-1,1.09-1.06,1.2h1.64l.64-.86a.34.34,0,0,1,.27-.17.42.42,0,0,1,.3.15l1.22,1.17a.51.51,0,0,1,.19.37c0,.32-.43.32-.54.32h-9.28c-.42,0-1,0-1.36.06-.06.09-.13.23-.53.23h-1.9v5.62c.77-.19,1.16-.3,2.16-.61l.14.34c-1,.74-1.38.93-4.81,2.7,0,.47-.12.64-.32.64s-.21-.09-.34-.43l-.76-1.79a18.8,18.8,0,0,0,2.4-.44v-6h-.49a9.71,9.71,0,0,0-1.42.09l-.37-1.13c.66,0,1.13.08,1.9.08h.38v-3a14,14,0,0,0-.1-2l1.85.21c.19,0,.49.06.49.3s-.15.32-.71.55v3.89h.26l.47-.7c.11-.15.19-.17.27-.17a.41.41,0,0,1,.28.15l.83.85-.17-.49c.62,0,1.19.07,1.94.07h1.06c-.08-.15-.34-.9-.4-1a9.14,9.14,0,0,0-.51-1.06,9.27,9.27,0,0,0-1.26.08l-.38-1.14c.6,0,1.19.08,1.94.08h2.3c0-.55,0-1.43-.07-2l1.87.24c.26,0,.52.06.52.29s-.17.32-.69.54V100Zm-.72,12.8c0,.55.1.68.79.68,1.3,0,1.46,0,1.64-.35s.53-1.85.65-2.27l.37,0c0,.3.13,2,.19,2.15a4.87,4.87,0,0,0,.32.47.6.6,0,0,1,.1.34c0,1.15-1.81,1.15-3.23,1.15-2,0-2.39-.11-2.39-1.49v-3.18h-2.21l.7.24c.37.13.45.23.45.36,0,.28-.26.32-.68.4-.6,1.18-1.72,3.43-6,4.26l-.15-.34c2.49-1.3,4.13-2.27,4.79-4.92h-.24c0,.43-.57.54-1,.54s-.6-.13-.6-.49,0-1.79,0-2.07v-1.81c0-.53,0-1.44-.07-2.19l1.75.85h5.47l.55-.72a.33.33,0,0,1,.26-.17.48.48,0,0,1,.28.15l1.12,1c.11.12.2.19.2.34s-.15.32-.68.66v1.57c0,.34.06,1.83.06,2.11,0,.66-.68.74-1.09.74s-.55-.17-.55-.47h-.83Zm-4.92-6.69v1.11h5.75v-1.11Zm0,2.09v1.15h5.75v-1.15Zm.43-7.22c.27.15,1.13.7,1.13,1.53a.79.79,0,0,1-.2.56h2.2a8.34,8.34,0,0,0,.7-2.09Z"/><path class="cls-1" d="M143.85,99.61a2.32,2.32,0,0,1,2.36,1.87,11.56,11.56,0,0,1-.44,1.41,19.33,19.33,0,0,0-1.13,6.21c0,.09,0,1.17.19,1.17s1.34-2.72,1.47-3l.34.13c-.11.47-.66,2.58-.77,3a6.59,6.59,0,0,0-.27,1.75c0,.19.06,1,.06,1.15a.66.66,0,0,1-.64.74c-.92,0-1.7-2-1.7-4.68a26.79,26.79,0,0,1,.47-4.62,27.32,27.32,0,0,0,.53-3.43,1.51,1.51,0,0,0-.64-1.38Zm5.92,8.58a3.21,3.21,0,0,0-.15,1c0,2.3,2.1,2.3,3.57,2.3.47,0,1.19,0,1.83-.09,0,0,.77-.09.9-.09.74,0,1.4.41,1.4.94s-.55.64-.83.7A18.58,18.58,0,0,1,154,113c-1.74,0-5.36,0-5.36-2.94a3.08,3.08,0,0,1,.83-2Zm-1-5.39a8.3,8.3,0,0,1,5.6-1.7c.78,0,2.3,0,2.3,1,0,.45-.13.47-1.15.66a18.57,18.57,0,0,0-3.3,1.56l-.22-.26c.17-.17,1.45-1.45,1.45-1.51s-.38-.09-.49-.09a16.29,16.29,0,0,0-4,.64Z"/><path class="cls-1" d="M164.27,110.06c.06,3.73-1.38,4.54-2.06,4.54a.74.74,0,0,1-.83-.69c0-.36.16-.51.66-1a7.85,7.85,0,0,0,1.85-2.89Zm10.22-7.79.42-.6a.29.29,0,0,1,.26-.17.44.44,0,0,1,.28.11l1.27,1a.37.37,0,0,1,.15.3c0,.19-.06.24-.64.7v2.18c0,.4.07,2.36.07,2.59s0,.7-1.19.7c-.49,0-.49-.17-.49-.65h-9.44c0,.4,0,.78-1.12.78-.51,0-.54-.25-.54-.47,0-.4.07-2.17.07-2.53v-2.6c0-.61,0-1.64-.07-2.25l1.81.87h3.73v-1.49h-5.7a11.83,11.83,0,0,0-1.47.08l-.35-1.14c.37,0,1.07.08,1.9.08h5.62c0-.55,0-1.26-.07-1.81l1.9.22c.17,0,.49.06.49.33s-.17.3-.73.52v.74h4.75l.75-1.11c.1-.15.19-.19.27-.19a.45.45,0,0,1,.3.17l1.45,1.34a.61.61,0,0,1,.23.41c0,.36-.34.36-.49.36h-7.26v1.49Zm-5.43,2.58v-1.6h-3.88v1.6Zm0,2.64v-1.66h-3.88v1.66Zm-1.55,2.14c.21,0,.49.05.49.3s0,.26-.66.51v2.32c0,.47,0,.69.78.69h4.15c.88,0,.94-.11,1.52-2.71l.38,0c0,.32.1,1.71.17,2s.11.3.34.54a.67.67,0,0,1,.23.49c0,1.19-2.15,1.19-2.85,1.19H167.8c-1.91,0-2-.53-2-1.92v-1.7c0-.15,0-1.13-.08-2Zm1.31-1c1,.23,3.35,1.27,3.35,2.51a.9.9,0,0,1-.79,1c-.38,0-.43-.11-1-1.11a7.4,7.4,0,0,0-1.73-2Zm1.83-5.41v1.6h4v-1.6Zm0,2.58v1.66h4v-1.66Zm4.31,3.76c1.74.73,3.57,2.15,3.57,3.47a1,1,0,0,1-.89,1.07c-.41,0-.49-.17-1.09-1.56a10.49,10.49,0,0,0-1.81-2.68Z"/><path class="cls-1" d="M188,99a2.19,2.19,0,0,1,1-.24c.92,0,2,.69,2,1.3,0,.13-.16.73-.19.86s-.08.49-.14.87a19.26,19.26,0,0,0,2.32-.36,16.57,16.57,0,0,1,1.65-.39c.35,0,1.22.41,1.22,1s-.55.56-1.32.68c-.3,0-1.15.19-4,.49,0,.56-.07,1.86-.07,2.36.39-.06.86-.12,1.56-.27.34-.07,2.09-.55,2.19-.55.32,0,1.06.34,1.06.85s-.42.57-1,.7c-1.23.3-3.19.57-3.79.64,0,1,.09,2,.16,3.06,1.55.41,4.76,1.41,4.76,3.07a.61.61,0,0,1-.61.64c-.28,0-.39-.07-1.3-.77a12.55,12.55,0,0,0-2.71-1.42c0,1.23,0,3-3.53,3-2,0-3.72-.73-3.72-2.41,0-.94.74-2.55,3.89-2.55a11.69,11.69,0,0,1,1.79.16c-.06-1-.07-1.63-.09-2.63-1,.08-1.95.12-2.45.12-.76,0-2.85,0-2.85-1.62a1.69,1.69,0,0,1,.7-1.27l.3.19a1,1,0,0,0-.12.45c0,.89,1.06.89,2,.89,1.1,0,1.59,0,2.4-.1,0-.49,0-1.79,0-2.37-1.1.11-2.68.24-3.75.24-2.15,0-2.51-1-2.74-1.68l.28-.22c.31.22.68.51,2.25.51,1,0,2.24-.1,4-.23.07-1.7.09-2.26-1.15-2.62Zm-1,11.79c-1.1,0-2.3.32-2.3,1.19,0,1,1.81,1.11,2.37,1.11,2.3,0,2.26-.85,2.21-2A10.43,10.43,0,0,0,187,110.74Z"/><path class="cls-1" d="M203.45,111.13a10.59,10.59,0,0,0,1,.7c.11,0,.13-.13.15-.22,0-.38.07-2.29.07-3.61a40.57,40.57,0,0,0-2.26,3.44c-.55,1-.6,1.09-.94,1.09s-.66-.57-.66-1.09a1.42,1.42,0,0,1,.52-1,25.91,25.91,0,0,0,3.44-5.57,4.43,4.43,0,0,0,0-.51s-1,.34-1.14.4a4.15,4.15,0,0,1-1.11.36,1.41,1.41,0,0,1-1.09-.76,1.74,1.74,0,0,1-.34-1.09l.3-.17a1.55,1.55,0,0,0,1.11.51,7.84,7.84,0,0,0,2.32-.57c0-.45.08-1.6.08-2,0-1.06-.23-1.34-1-1.74l0-.35a2.12,2.12,0,0,1,.69-.16c.74,0,2,.74,2,1.32,0,.19-.26,1.06-.3,1.27a12.62,12.62,0,0,0-.19,1.3c.29.07.74.3.74.66,0,.19-.1.3-.26.55a6.66,6.66,0,0,0-.63,1,3.78,3.78,0,0,0,0,.49c2.21-2.28,3.64-3.68,5.47-3.68,1,0,2.08.53,2.08,2.43,0,.53-.15,2.17-.3,3.72-.12,1.28-.23,2.51-.23,3s.11,1.24,1,1.24a4.05,4.05,0,0,0,3-1.86l.3.2c-.3.72-1.3,3.19-3.58,3.19-.47,0-2.23-.17-2.23-2.81,0-.45.14-1.72.25-3s.24-2.73.24-3.22,0-1.66-.94-1.66c-1.4,0-3.49,2-5.05,3.68,0,3,0,3.35,0,4.35,0,.23,0,1.3,0,1.55,0,1.09-.56,2.07-1.15,2.07s-.49-.32-.58-1.22c-.06-.55-.32-.87-1-1.79Z"/><path class="cls-1" d="M225.09,98.84a1.5,1.5,0,0,1,.66-.17c1,0,1.94.85,1.94,1.41,0,.17,0,.23-.3.74-.17.32-.41,1.07-.57,1.47a6.69,6.69,0,0,0,1.31-.44c.73-.35.83-.39,1.07-.39.59,0,1.17.3,1.17.77s-.32.81-4.06,1.55c-1.82,5.39-2.16,6.39-3.07,8.5-.56,1.34-.83,1.85-1.39,1.85s-.78-.49-.78-1c0-.29,0-.31.57-1.27a58.88,58.88,0,0,0,3.15-7.77,15.26,15.26,0,0,1-1.79.15c-1.7,0-2-.94-2.19-1.45l.26-.24a2.62,2.62,0,0,0,1.64.35,16.45,16.45,0,0,0,2.53-.22,13.08,13.08,0,0,0,.6-2.43c0-.63-.62-.91-.86-1Zm3.68,10.43a2.8,2.8,0,0,0-.59,1.6c0,1.7,2.59,1.7,3.87,1.7.34,0,1.79-.12,2.09-.12.94,0,1.34.61,1.34,1s-.36.73-3.34.73c-1.19,0-5.11,0-5.11-2.71a3.05,3.05,0,0,1,1.45-2.42Zm0-4.34a6.66,6.66,0,0,1,3.73-1.06c1.75,0,2.79.66,2.79,1.27s-.43.54-1.19.58a6.73,6.73,0,0,0-2.62,1.17l-.21-.28a12.93,12.93,0,0,0,1.33-1.34c0-.21-1.08-.21-1.36-.21a13.41,13.41,0,0,0-2.36.21Z"/><path class="cls-1" d="M239.22,102.53c1.38.32,3.08,1,3.08,2.38,0,.74-.44,1-.79,1s-.59-.29-.91-1a7.44,7.44,0,0,0-1.56-2.14Zm5.7-.66c-.21.8-.42,1.55-2.32,7a6.26,6.26,0,0,0-.58,2,6.64,6.64,0,0,0,.37,1.4,6.87,6.87,0,0,1,.32,1.56,1.24,1.24,0,0,1-1.2,1.32.65.65,0,0,1-.68-.73c0-.21.07-1.15.07-1.34,0-2.17-.24-2.24-1.49-2.62l0-.36c.7,0,1.15,0,1.47-.4s2.32-4.77,3.66-7.9Zm-4.53-3.52c.8.15,3.32.92,3.32,2.41,0,.68-.39,1-.81,1s-.41-.13-.77-.79a10.09,10.09,0,0,0-1-1.42c-.76-.71-.85-.81-1-.88Zm11.36,1c.15-.13.2-.15.3-.15s.17,0,.28.17l1.15,1s.21.2.21.39-.13.3-1.25.49c-.32.32-1.71,1.83-2,2.13h2.67l.49-.62a.35.35,0,0,1,.25-.15.46.46,0,0,1,.28.13l1.1.93a.4.4,0,0,1,.18.33c0,.23-.17.34-.67.67v1.6h.3l.39-.62c.08-.14.14-.21.25-.21a.33.33,0,0,1,.28.19l.68.88c.15.19.19.29.19.38,0,.36-.43.36-.55.36h-1.54v.87c0,.35.07,1.92.07,2.24,0,.47-.41.66-1.11.66-.45,0-.45-.17-.45-.51v-.34h-2.93v1.36c0,.3.06,1.64.06,1.92,0,1.27-.36,1.81-2.21,2,0-1-.47-1.28-2.09-1.79l0-.38,2,.08c.58,0,.64-.17.64-.58v-2.59h-2.1a10.72,10.72,0,0,0-1.43.08l-.4-1.12c.78,0,1.15.06,1.95.06h2v-1.94h-3.28a13.75,13.75,0,0,0-1.44.07l-.39-1.13c.58,0,1.05.08,1.94.08h3.17v-1.91h-1.7a10.65,10.65,0,0,0-1.43.08l-.32-.93a3.92,3.92,0,0,1-.46.36l-.3-.22c2.23-3.42,2.49-4.27,2.89-5.72l1.75.59c.13,0,.43.17.43.39s-.26.34-.77.34a5.39,5.39,0,0,1-.43.68h2.69Zm-2.3,4c.52-.87.86-1.47,1.37-2.47h-3.09a15.88,15.88,0,0,1-2.19,2.42c.89,0,1.25,0,1.64,0Zm3.81,2.89v-1.91h-2.93v1.91Zm0,2.92v-1.94h-2.93v1.94Z"/><path class="cls-1" d="M267.13,100.35c0-.63,0-1.53-.07-2.21l2,.24c.15,0,.49.06.49.33s-.17.32-.72.52v5.23h3.74l.83-1.23a.31.31,0,0,1,.26-.19c.08,0,.15,0,.3.17l1.53,1.46a.55.55,0,0,1,.21.41c0,.36-.34.36-.47.36h-6.4v8h4.77l.83-1.23c.1-.13.15-.19.27-.19a.43.43,0,0,1,.28.15l1.55,1.47a.67.67,0,0,1,.2.42c0,.36-.33.36-.47.36h-15.2a13.6,13.6,0,0,0-1.47.07l-.36-1.13c.59,0,1.15.08,1.91.08h6v-8h-5.07a14.46,14.46,0,0,0-1.47.07l-.36-1.13c.74,0,1.11.08,1.89.08h5Z"/><path class="cls-1" d="M290,111.13c0,.38,0,2.08,0,2.42,0,1.54-.85,1.73-2.41,1.88,0-.73-.21-1.28-2.42-1.83v-.37l2.61.09c.51,0,.54-.07.54-.47V108h-6.18a13.31,13.31,0,0,0-1.47.07l-.36-1.13c.53,0,1.13.08,1.9.08h12.56l.82-1.19a.34.34,0,0,1,.26-.17.4.4,0,0,1,.3.15l1.47,1.41a.69.69,0,0,1,.21.42c0,.36-.32.36-.45.36H290Zm-4.15-1.67c.49.22.52.35.52.47s-.24.28-.77.28a14.07,14.07,0,0,1-5,4.43l-.22-.3c.75-.79,3.26-3.39,3.92-5.6Zm8.84-9,.7-.81c.11-.13.19-.17.26-.17a.51.51,0,0,1,.29.15l1.45,1.4a.63.63,0,0,1,.21.39c0,.32-.14.34-1.27.49a13.13,13.13,0,0,1-1.75,1.49l-.3-.22a15.43,15.43,0,0,0,.54-1.74H282.94c0,.87-.19,2.6-1.53,2.6-.58,0-.81-.35-.81-.64s.13-.49.6-1.17a7,7,0,0,0,1.1-2.6h.38c.09.4.11.55.16.83h5.42a24.26,24.26,0,0,0-.1-2.47l2,.25c.15,0,.49,0,.49.3s-.18.32-.73.54v1.38Zm-2.47,3.19.77-1.13a.3.3,0,0,1,.27-.17.39.39,0,0,1,.28.15l1.45,1.36a.59.59,0,0,1,.21.41c0,.36-.34.36-.45.36h-10a12.28,12.28,0,0,0-1.49.08l-.3-1.14c.59,0,1.15.08,1.89.08ZM291.9,109c1.77.68,5,2.51,5,4.4,0,.83-.57,1-.81,1-.46,0-.55-.11-1.23-1.25a17.75,17.75,0,0,0-3.11-3.79Z"/><path class="cls-1" d="M309.39,113.77c3.89-1.47,6.21-4,6.21-7.31a5,5,0,0,0-5.19-5.1c-.21,0-.32,0-.85,0a1.94,1.94,0,0,1,.77,1.4c0,.81-1.54,4.47-2.11,5.73-1,2.21-1.85,4-3.26,4s-3-1.94-3-4.45c0-3.68,3.15-7.74,8.49-7.74,3.7,0,6.92,2.17,6.92,6.25s-3.36,6.94-7.83,7.48ZM303.32,108c0,1.7.87,3,1.53,3s1.09-.89,1.88-2.58c.62-1.3,2.17-4.93,2.17-6.11a1.34,1.34,0,0,0-.26-.8A7,7,0,0,0,303.32,108Z"/><path class="cls-1" d="M324.88,99.08a2.25,2.25,0,0,1,1-.24c.88,0,2,.64,2,1.24a9.16,9.16,0,0,1-.23.89,10,10,0,0,0-.19,1.66,8.48,8.48,0,0,0,1.1-.4c.83-.38.92-.43,1.19-.43s1,.22,1,.77,0,.7-3.37,1.47c0,1,0,2.21,0,3.13a10.25,10.25,0,0,1,4.83-1.52c2.24,0,4.09,1.33,4.09,3.84a4.17,4.17,0,0,1-4.19,4.25,3.63,3.63,0,0,1-3.35-2.15l.26-.25a3.54,3.54,0,0,0,2.49,1,2.92,2.92,0,0,0,3.13-3,2.36,2.36,0,0,0-2.6-2.53,9,9,0,0,0-4.66,1.6c0,.64.08,3.44.08,4,0,1.28-.63,2.09-1.14,2.09s-.47-.28-.66-.86-.32-.83-2.11-2.28c-1,.88-1,1-1.43,1a.63.63,0,0,1-.59-.7c0-.4.38-1.57,1.29-1.76a2,2,0,0,0,1.07-.45l2.13-1.39c0-.57,0-3.12,0-3.63a16.36,16.36,0,0,1-2.4.36,1.69,1.69,0,0,1-1.73-1.51l.26-.22a2.19,2.19,0,0,0,1.29.36A16,16,0,0,0,326,103c.05-3,.05-3.09-1.17-3.53Zm-.83,11.7c1.35.94,1.5,1,1.64,1s.19-.13.2-.26c0-.38,0-1.85,0-2.26C325,110,324.29,110.59,324.05,110.78Zm7.86-9.66A3.44,3.44,0,0,1,333,101c2.1,0,3.78,1.49,3.78,2.79a.68.68,0,0,1-.65.75c-.11,0-.56-.15-.67-.17a2.13,2.13,0,0,0-.42,0,11.14,11.14,0,0,0-1.62.3l-.19-.3c1.32-.91,1.32-1,1.32-1.15,0-.44-.83-1.36-2.68-1.7Z"/><path class="cls-1" d="M348.69,100a17,17,0,0,0-.08-2l1.93.22c.22,0,.52.06.52.31s-.24.35-.71.54v1.53h3.32l.77-1.15a.33.33,0,0,1,.26-.19c.12,0,.19.06.31.15l1.47,1.38a.78.78,0,0,1,.2.45c0,.28-.26.34-.45.34h-5.88v2.75h4.83l.77-1.15a.39.39,0,0,1,.26-.17.46.46,0,0,1,.3.15l1.48,1.38a.67.67,0,0,1,.2.44c0,.34-.32.34-.45.34H342.82a12.25,12.25,0,0,0-1.47.07l-.36-1.13c.76.06,1.12.07,1.91.07h5.79v-2.75h-4.57a12.29,12.29,0,0,0-1.49.08l-.35-1.14c.67,0,1.13.08,1.9.08h4.51Zm3.49,7.18c0-.6,0-1.2-.08-1.83l1.89.23c.15,0,.47.07.47.3s-.21.36-.66.55V108H355l.72-1.08a.34.34,0,0,1,.27-.17.46.46,0,0,1,.3.15l1.36,1.3a.72.72,0,0,1,.2.42c0,.36-.36.36-.45.36H353.8v3c0,.26,0,1.45,0,1.69,0,1.1-.08,1.68-2.38,1.89a1.36,1.36,0,0,0-.77-1.19,8.1,8.1,0,0,0-1.68-.6v-.4l2.79.08c.38,0,.38-.19.38-.34v-4.13h-8.89a14.06,14.06,0,0,0-1.47.07l-.37-1.11c.67,0,1.15.06,1.9.06h8.83Zm-7.64,2.11c1.28.51,3.36,1.51,3.36,3a1,1,0,0,1-.89,1.09c-.45,0-.51-.13-1.08-1.35a7.66,7.66,0,0,0-1.6-2.45Z"/><path class="cls-1" d="M362.09,101.08a1.2,1.2,0,0,0,1.19.85c.45,0,7.88-1.21,9.35-1.41.36-.06,1.93-.4,2.27-.4.56,0,1.58.41,1.58,1.09s-.75.61-1.08.61a5.72,5.72,0,0,0-2.26.24c-1.79.62-5.09,3.42-5.09,6.72,0,2.37,1.79,3.41,3.64,3.47,1.56,0,1.94.92,1.94,1.3,0,.54-.49.71-1,.71-2.67,0-6.07-1.66-6.07-5.11,0-3.05,2.23-5.65,4.81-7.28-.15,0-4.09.72-6.6,1.47a12,12,0,0,1-1.55.55,2.13,2.13,0,0,1-1.6-2,2.51,2.51,0,0,1,.13-.73ZM372.84,104c2.36.75,3.26,2,3.26,2.7a.67.67,0,0,1-.56.73c-.34,0-.42-.15-.78-.73a7.7,7.7,0,0,0-2.13-2.42Zm1.57-1.15c2.41.56,3.47,1.77,3.47,2.51a.63.63,0,0,1-.53.68c-.27,0-.29,0-1-.89a7.88,7.88,0,0,0-2.18-2Z"/><path class="cls-1" d="M385.17,114.87c3.92-1.89,4.39-3.85,4.77-5.47a2.3,2.3,0,0,1-2.21,1.41,2.73,2.73,0,0,1-2.69-3,3,3,0,0,1,3-3.25,3.25,3.25,0,0,1,1.51.38c0-.47,0-1.26,0-2a42.7,42.7,0,0,0-5,.7c-.27.06-1.46.42-1.7.42a1.93,1.93,0,0,1-1.66-1.87,1.69,1.69,0,0,1,.11-.57l.36-.07c.19.34.43.72,1.38.72s5.56-.51,6.48-.59c0-1.73-.07-2.11-1.35-2.43l0-.36a2.1,2.1,0,0,1,1-.36c.65,0,2,.51,2,1.23,0,.13-.13.71-.15.85a6.09,6.09,0,0,0-.06,1c.53,0,2.87-.17,3.34-.21.21,0,1.15-.15,1.34-.15.62,0,1.53.45,1.53,1s-.66.6-.89.6l-2.86-.06c-1,0-1.36,0-2.47.06,0,1.79,0,2,0,3.55a4.73,4.73,0,0,1,.51,2.35c0,4.53-3.83,6.08-6.21,6.55Zm2.64-5.26c1.07,0,1.6-1.29,1.6-2.29,0-1.22-.68-1.71-1.39-1.71-1.14,0-1.63,1.22-1.63,2.11C386.39,108.81,387,109.61,387.81,109.61Z"/><path class="cls-1" d="M407.33,111.89a2.61,2.61,0,1,1-2.62-2.62A2.62,2.62,0,0,1,407.33,111.89Zm-4.39,0a1.78,1.78,0,0,0,3.56,0,1.78,1.78,0,1,0-3.56,0Z"/><path class="cls-1" d="M14.71,131.6l.45-.66c.08-.09.15-.19.29-.19s.22.1.28.13l1.19,1a.48.48,0,0,1,.22.38c0,.21-.05.27-.68.74v11.75c0,.39.06,2.13.06,2.49s0,.71-1.17.71c-.47,0-.49-.19-.49-.54V147h-12c0,.79,0,1-1.11,1-.51,0-.57-.21-.57-.55s.08-2.09.08-2.43V133c0-.25,0-1.49-.08-2.17L3,131.6Zm-11.9,1V146h12V132.58Zm4.94,11.07.44.31c.16.11.32.26.32.43s-.16.24-.31.24-.43-.07-.56-.09A16.65,16.65,0,0,1,3.36,146l-.13-.36a20.24,20.24,0,0,0,3.2-2H6c-.1.38-.66.44-1.06.44s-.53-.25-.53-.46.08-2.2.08-2.52V138.9c0-.53,0-1.55-.08-2.21l.57.23a.45.45,0,0,1-.06-.28c0-.17,0-.93,0-1.08v-.81c0-.49,0-.88-.06-1.81l1.78.74h4.37l.44-.57a.32.32,0,0,1,.3-.17.37.37,0,0,1,.24.11l1.06.89c.13.11.21.19.21.34s0,.23-.59.64v1.51a.42.42,0,0,1-.28.36l1.13,1a.47.47,0,0,1,.21.36c0,.17-.08.26-.61.66V141c0,.36.08,1.95.08,2.27s-.08.54-.58.66c.94.36,1.26.75,1.26,1.34a.64.64,0,0,1-.62.71c-.27,0-.38-.09-.87-.52a10.35,10.35,0,0,0-3-1.8Zm-1.28-7.09c-.08.62-1,.53-1.13.51l.9.4h5.28l.38-.57c-.58,0-.68,0-.68-.34Zm5.2,1.81H6v.83h5.67Zm0,1.74H6V141h5.67Zm0,1.75H6v.89h5.67Zm-5.2-7.28v1.08h4.75v-1.08Z"/><path class="cls-1" d="M35.11,137.73l.74-1.13a.29.29,0,0,1,.26-.17.48.48,0,0,1,.3.15l1.43,1.36a.61.61,0,0,1,.23.41c0,.36-.34.36-.49.36H32v6.49c0,.58.06.74.79.74h2.42c.94,0,1.07,0,1.77-3.1l.38,0c0,.36.11,1.89.15,2.21s.05.36.39.75a.66.66,0,0,1,.17.42c0,1.3-1.94,1.3-2.94,1.3H32.43c-2.05,0-2.11-.45-2.11-2.06v-6.77H26.7l1.39.3c.27.06.49.12.49.32s-.17.38-.75.53a9.4,9.4,0,0,1-7,8.32l-.13-.36c3.3-2,5.38-4.41,5.55-9.11H22.44a12,12,0,0,0-1.48.08l-.35-1.13c.54,0,1.13.07,1.88.07h5.94v-5.09a17.8,17.8,0,0,0-.09-2l2,.21c.17,0,.49.05.49.32s-.25.34-.72.53v6ZM22.27,131.6c1.11.47,4.11,2.27,4.11,4a.94.94,0,0,1-.89,1c-.49,0-.6-.25-1-1.09A13.5,13.5,0,0,0,22,131.9Zm13.56.93c.47.26.49.37.49.47,0,.38-.55.32-.91.3a18.43,18.43,0,0,1-3.79,3.62l-.28-.25a18.59,18.59,0,0,0,2.73-5.11Z"/><path class="cls-1" d="M49.29,132.66a17,17,0,0,0-.08-2l1.93.22c.22,0,.53.06.53.31s-.25.35-.72.54v1.53h3.32l.77-1.15a.33.33,0,0,1,.26-.19c.12,0,.19.06.31.15l1.47,1.38a.72.72,0,0,1,.21.45c0,.29-.27.34-.46.34H51V137h4.83l.77-1.15a.36.36,0,0,1,.26-.17.46.46,0,0,1,.31.15l1.47,1.37a.67.67,0,0,1,.2.44c0,.34-.32.34-.45.34H43.42c-.51,0-.94,0-1.47.07l-.36-1.13c.76.06,1.12.08,1.91.08h5.79v-2.76H44.72a12.29,12.29,0,0,0-1.49.08l-.35-1.13c.68,0,1.13.07,1.9.07h4.51Zm3.49,7.18c0-.6,0-1.2-.08-1.83l1.89.23c.15,0,.47.08.47.3s-.21.36-.66.55v1.51h1.23l.71-1.08a.34.34,0,0,1,.27-.17.46.46,0,0,1,.3.15l1.36,1.31a.66.66,0,0,1,.2.41c0,.36-.36.36-.45.36H54.4v3c0,.26,0,1.45,0,1.7,0,1.09-.08,1.67-2.38,1.88a1.37,1.37,0,0,0-.77-1.19,8.73,8.73,0,0,0-1.68-.6V146l2.79.08c.38,0,.38-.19.38-.34v-4.13H43.89a14.06,14.06,0,0,0-1.47.07l-.37-1.11c.68,0,1.15.06,1.9.06h8.83ZM45.14,142c1.28.5,3.36,1.5,3.36,3a1,1,0,0,1-.89,1.1c-.45,0-.51-.14-1.07-1.36a7.8,7.8,0,0,0-1.61-2.45Z"/><path class="cls-1" d="M63.61,132.34a2.71,2.71,0,0,1,.54-.08A2.14,2.14,0,0,1,66,134.05a14.74,14.74,0,0,1-.6,1.81,20.42,20.42,0,0,0-.91,5.61c0,.26,0,1.49.27,1.49.09,0,.17-.16.26-.33.4-.75.49-.88,1.15-2.2l.34.13c-.13.51-.77,2.77-.87,3.24a5.52,5.52,0,0,0-.11,1c0,.19.09,1,.09,1.19a.6.6,0,0,1-.6.66c-.87,0-1.81-1.64-1.81-4.92a31.08,31.08,0,0,1,.62-5.72,13.25,13.25,0,0,0,.34-2.26,1,1,0,0,0-.68-1.07Zm8.16-.1a2.11,2.11,0,0,1,1.1-.36c.66,0,1.77.53,1.77,1.21,0,.17-.13,1-.15,1.19,0,.4-.06.7-.08,1.17.32-.06,1.8-.53,2.15-.53s1.12.34,1.12.87-.4.53-.72.62-1.6.34-2.55.49c0,1,0,3.26.15,5.58.76.29,3.32,1.27,3.32,2.83a.68.68,0,0,1-.64.7c-.3,0-.51-.19-1-.58a8.4,8.4,0,0,0-1.72-1.25c-.26,2.26-2.43,2.4-3.22,2.4-1.68,0-3.11-.87-3.11-2.36,0-.77.54-2.38,3.11-2.38a9.45,9.45,0,0,1,1.79.21c0-.49-.09-4.28-.11-4.94a18,18,0,0,1-2.21.19,2.56,2.56,0,0,1-2.68-1.44l.25-.26a5.58,5.58,0,0,0,2.07.3,16.68,16.68,0,0,0,2.53-.21c-.08-2.82-.09-2.92-1.19-3.09Zm-.68,10.89c-1,0-1.75.37-1.75,1.09s.75,1,1.75,1c1.91,0,2-1.17,2-1.74A6.52,6.52,0,0,0,71.09,143.13Z"/><path class="cls-1" d="M95.74,132.94l.79-1.17c.06-.09.13-.19.26-.19a.51.51,0,0,1,.31.15l1.52,1.44a.63.63,0,0,1,.21.41c0,.34-.34.34-.49.34H83.2a12.76,12.76,0,0,0-1.47.1l-.36-1.15c.54,0,1.13.07,1.9.07h5.94c0-.79,0-1.49-.07-2.3l2,.24c.18,0,.51.06.51.31s-.25.37-.76.6v1.15Zm-8.55,10c.16.07.44.24.44.45,0,.4-.61.34-.87.3a15.81,15.81,0,0,1-5.15,3.79l-.22-.3c1.92-1.71,3.58-3.41,4.24-5Zm3.72,1.41c0,.29.06,1.55.06,1.81,0,1.27-.42,1.79-2.4,2,0-.66-.07-1.24-2.38-1.79V146l2.42.1c.55,0,.68-.11.68-.59v-4.18H85.74c0,.3,0,.69-1.07.69-.51,0-.64-.09-.64-.49s.07-2.13.07-2.48v-1.83c0-.65,0-1.55-.07-2.17l1.83.86H94.3l.46-.64c.07-.11.15-.19.26-.19a.47.47,0,0,1,.28.14l1.23,1c.13.12.23.17.23.34s-.08.27-.68.74v1.39c0,.16.07,2.42.07,2.55,0,.49-.41.7-1.17.7-.54,0-.54-.15-.54-.64H90.91Zm-5.17-7.49v3.46h8.7v-3.46Zm7.19,5.45c1.26.38,5,2.25,5,4.12,0,.58-.33,1-.74,1s-.47-.14-1.23-1.29a12.92,12.92,0,0,0-3.2-3.49Z"/><path class="cls-1" d="M111.93,132.38c.3.15.42.26.42.43s-.34.3-.72.3a30.77,30.77,0,0,1-2.43,3.62h.58l.47-.68c.12-.15.17-.19.25-.19a.45.45,0,0,1,.3.17l1,1a.59.59,0,0,1,.19.39c0,.32-.41.32-.55.32h-3a27.06,27.06,0,0,1-2.21,2.23h2.87l.54-.72c.08-.11.14-.17.23-.17a.7.7,0,0,1,.3.13l1.11,1a.5.5,0,0,1,.23.38c0,.17-.09.28-.7.66V145c0,.34.08,2,.08,2.17,0,.66-.85.7-1.13.7-.49,0-.49-.15-.49-.74h-3.74v.3c0,.59-.7.62-1,.62-.51,0-.58-.2-.58-.47s.06-2,.06-2.37v-3.62a13,13,0,0,1-1.95,1l-.2-.32c.82-.64,1.33-1.07,2.15-1.79,0-.74,0-1-.06-1.45l1,.51a22.92,22.92,0,0,0,1.76-1.91h-2.89a9.9,9.9,0,0,0-1.37.08l-.4-1.13c.57,0,1.15.07,1.91.07h1.67v-2.39h-1a12.25,12.25,0,0,0-1.38.07l-.4-1.13c.55,0,1.14.08,1.91.08h.9v-.51c0-.42,0-1.23-.09-2.23l1.81.23c.23,0,.51.07.51.32s-.23.32-.7.53v1.66h.53l.4-.61c0-.09.13-.21.24-.21s.23.12.28.17l1,.95a8.62,8.62,0,0,0,.88-2.08Zm-6.45,8.54V143h3.74v-2.09Zm0,3.07v2.19h3.74V144Zm2-7.26a28.86,28.86,0,0,0,1.66-2.39h-2v2.39ZM117,132l.57-.66c.09-.12.15-.17.26-.17a.45.45,0,0,1,.29.17l1.13,1.18a.56.56,0,0,1,.21.42c0,.23-.23.32-.87.41a37.87,37.87,0,0,1-2.81,4.19c1.9,1.21,3.62,2.94,3.62,5.17a2.91,2.91,0,0,1-3,3.11,2,2,0,0,0-1.66-1.73l0-.38,1.45.05c.41,0,1.53,0,1.53-1.71,0-2-1.85-3.66-2.83-4.42a28.2,28.2,0,0,0,2-4.65H114.1v11.73c0,.43,0,2.34,0,2.73,0,.21,0,.66-1.11.66-.44,0-.53-.13-.53-.47s0-2.49,0-2.9v-10.9c0-.16,0-1.48-.08-2.68l1.83.85Z"/><path class="cls-1" d="M140.78,145.77a2.24,2.24,0,0,0-1.62,1.47,14,14,0,0,1-6.49-5.11v2.43c0,.19,0,2.37,0,2.81s0,.77-1.16.77c-.49,0-.5-.19-.5-.49,0-.47,0-2.53,0-2.94v-2.06a17.26,17.26,0,0,1-7.86,4.94l-.15-.33c1.34-.76,4.71-2.64,6.73-5.44h-2.66c0,.4,0,.76-1.09.76-.4,0-.57-.1-.57-.49s0-2.15,0-2.51v-3a20.49,20.49,0,0,0-.08-2.09l1.89.83h3.75v-1.61H125a13.69,13.69,0,0,0-1.49.08l-.36-1.13c.61,0,1.15.07,1.91.07h6.05a17.64,17.64,0,0,0-.09-2l1.92.22c.21,0,.47.08.47.32s-.17.34-.71.57v.94h4.88l.76-1.09c.09-.13.15-.19.26-.19a.47.47,0,0,1,.3.15l1.44,1.34a.69.69,0,0,1,.22.42c0,.35-.34.35-.49.35h-7.37v1.61h3.77l.4-.57c.07-.09.15-.19.26-.19a.65.65,0,0,1,.3.13l1.26,1a.43.43,0,0,1,.21.34c0,.23-.17.34-.64.7v2.41c0,.42.08,2.23.08,2.59,0,.58-.64.68-1.19.68s-.51-.19-.51-.61h-3.53a15.18,15.18,0,0,0,7.7,3.57Zm-9.7-9.47h-3.94v1.77h3.94Zm0,2.75h-3.94v1.79h3.94Zm1.59-1h3.94V136.3h-3.94Zm0,2.77h3.94v-1.79h-3.94Z"/><path class="cls-1" d="M158,144.75V137c0-.45,0-1.54-.07-2.18l2,.22c.17,0,.49.06.49.3s-.15.31-.72.51v8.7c0,.38,0,2.05,0,2.39s0,.81-1.19.81c-.47,0-.55-.13-.55-.9,0-.08,0-1,0-1.13H146.63c0,.22,0,1.41,0,1.56-.1.53-.89.55-1.1.55-.47,0-.58-.13-.58-.51s.05-2.11.05-2.45V137a18.15,18.15,0,0,0-.09-2.2l2,.24c.19,0,.47.06.47.3s-.17.31-.72.51v8.89h4.87v-11.7a17,17,0,0,0-.09-2.18l2,.22c.19,0,.49.08.49.32s-.27.36-.72.53v12.81Z"/><path class="cls-1" d="M171.89,146.43c3.89-1.48,6.21-4.06,6.21-7.32a5,5,0,0,0-5.19-5.09c-.21,0-.32,0-.85,0a1.94,1.94,0,0,1,.77,1.4c0,.81-1.54,4.47-2.11,5.73-1,2.21-1.85,4-3.26,4s-3-1.94-3-4.45c0-3.68,3.15-7.73,8.49-7.73,3.7,0,6.92,2.16,6.92,6.24s-3.36,6.94-7.83,7.48Zm-6.07-5.74c0,1.7.87,3,1.53,3s1.09-.88,1.88-2.58c.62-1.3,2.17-4.92,2.17-6.11a1.31,1.31,0,0,0-.26-.79A6.93,6.93,0,0,0,165.82,140.69Z"/><path class="cls-1" d="M189.05,133.54c.12-.13.17-.16.25-.16a.41.41,0,0,1,.28.16l1,1.1c.15.19.19.28.19.39s0,.34-1.07.48a32.37,32.37,0,0,1-1.83,3.05c1,.44,2.51,1.36,2.51,2.51a.74.74,0,0,1-.66.83c-.32,0-.36-.1-.7-1a6,6,0,0,0-1.15-1.74v6.06c0,.36,0,1.86,0,2.18,0,.5-.4.7-1.1.7-.43,0-.51-.17-.51-.47s0-2,0-2.36v-4.77a10.61,10.61,0,0,1-2.45,2l-.27-.26a24.76,24.76,0,0,0,4.49-7.13h-2.49a11.56,11.56,0,0,0-1.39.07l-.4-1.13c.53,0,1.13.08,1.91.08h.62v-1.66c0-.7-.06-1.61-.09-1.89l1.84.23c.17,0,.49.05.49.3s-.17.34-.73.55v2.47h.68Zm8,1.23a18,18,0,0,0,1.44-4.11l1.64.73c.47.21.47.36.47.46,0,.34-.51.32-.81.32a25.46,25.46,0,0,1-2.08,2.6h1.08l.45-.6a.36.36,0,0,1,.25-.17.56.56,0,0,1,.28.13l1,.87c.11.11.23.2.23.37s0,.25-.63.63v3.16c0,.34.06,1.85.06,2.17,0,.55-.58.66-1.06.66s-.43-.17-.43-.58h-2.49v2h2.3l.68-.94a.28.28,0,0,1,.25-.17.41.41,0,0,1,.28.15l1.3,1.22a.54.54,0,0,1,.21.38c0,.3-.34.34-.53.34h-4.49v.49c0,.42,0,2.26,0,2.66s-.23.66-1.08.66c-.39,0-.45-.21-.45-.47s.06-2.51.06-2.81v-.53h-3.3a10.48,10.48,0,0,0-1.4.08l-.37-1.14c.47,0,1,.08,1.86.08h3.21v-2H192.6c0,.34,0,.72-.94.72-.47,0-.53-.19-.53-.42s.06-1.81.06-2.15V136.3a19.76,19.76,0,0,0-.08-2.32l1.6.79Zm-6.07-4c2.41,1.21,2.6,2.4,2.6,2.89a.8.8,0,0,1-.75.89c-.44,0-.49-.16-1-1.49a6.37,6.37,0,0,0-1.14-2Zm1.66,5v1.79h2.34v-1.79Zm2.34,2.77H192.6v1.91h2.34Zm-.91-8c2.25,1.24,2.44,2.49,2.44,2.94a.84.84,0,0,1-.78.94c-.36,0-.39-.09-.68-1a7.81,7.81,0,0,0-1.24-2.64Zm2.34,5.22v1.79h2.49v-1.79Zm2.49,2.77h-2.49v1.91h2.49Z"/><path class="cls-1" d="M204.87,144a27.7,27.7,0,0,0,3-6.1c.13-.37.43-1.6.55-2h-1.55c-.42,0-.83,0-1.47.07l-.32-1.13c.58,0,1.15.08,1.9.08h1.57v-2.06c0-.38,0-1.17-.08-2.17l1.77.23c.19,0,.48.07.48.32s-.19.32-.66.51v3.17h.75l.64-.93c.06-.09.13-.21.27-.21a.4.4,0,0,1,.28.17l1.11,1.21a.58.58,0,0,1,.19.4c0,.34-.3.34-.45.34H210v1.26c1.37.58,3,1.68,3,3,0,.75-.47.92-.69.92-.42,0-.55-.28-.76-.81a9.37,9.37,0,0,0-1.54-2.45v6.72c0,.47,0,2.54,0,3,0,.27,0,.7-1.09.7-.43,0-.49-.11-.49-.53s0-2.43,0-2.82v-5.45a17,17,0,0,1-3.38,4.88Zm18.09-.65a2.28,2.28,0,0,0-1.46,1.32,21.87,21.87,0,0,1-3.45-7.63v7.45c0,.47,0,2.54,0,3s0,.71-1.13.71c-.42,0-.47-.13-.47-.51s0-2.39,0-2.84v-5.91a15.53,15.53,0,0,1-4.69,5.85l-.29-.25a24.22,24.22,0,0,0,4.72-8.63h-1.32c-.26,0-.7,0-1.47.07l-.32-1.13c.54,0,1.13.08,1.9.08h1.47v-2.06c0-.36,0-1.15-.07-2.17l1.79.25c.19,0,.47.07.47.32s-.09.3-.66.51v3.15h1.74l.71-1a.35.35,0,0,1,.27-.19.43.43,0,0,1,.3.17l1.34,1.26a.65.65,0,0,1,.21.42c0,.34-.33.34-.44.34h-4a16.65,16.65,0,0,0,4.77,7.11Z"/><path class="cls-1" d="M233.48,132.66a17,17,0,0,0-.08-2l1.93.22c.23,0,.53.06.53.31s-.25.35-.72.54v1.53h3.32l.77-1.15a.33.33,0,0,1,.27-.19.48.48,0,0,1,.3.15l1.47,1.38a.72.72,0,0,1,.21.45c0,.29-.27.34-.46.34h-5.88V137H240l.77-1.15a.37.37,0,0,1,.27-.17.46.46,0,0,1,.3.15l1.47,1.37a.68.68,0,0,1,.21.44c0,.34-.32.34-.46.34H227.61c-.5,0-.94,0-1.47.07l-.35-1.13c.75.06,1.11.08,1.9.08h5.79v-2.76h-4.56a12.18,12.18,0,0,0-1.49.08l-.36-1.13c.68,0,1.13.07,1.9.07h4.51Zm3.49,7.18c0-.6,0-1.2-.08-1.83l1.89.23c.15,0,.47.08.47.3s-.21.36-.66.55v1.51h1.23l.71-1.08a.34.34,0,0,1,.27-.17.44.44,0,0,1,.3.15l1.36,1.31a.67.67,0,0,1,.21.41c0,.36-.36.36-.46.36h-3.62v3c0,.26,0,1.45,0,1.7,0,1.09-.08,1.67-2.38,1.88a1.35,1.35,0,0,0-.77-1.19,8.73,8.73,0,0,0-1.68-.6V146l2.79.08c.38,0,.38-.19.38-.34v-4.13h-8.88a13.93,13.93,0,0,0-1.47.07l-.38-1.11c.68,0,1.15.06,1.9.06H237ZM229.33,142c1.28.5,3.36,1.5,3.36,3a1,1,0,0,1-.89,1.1c-.45,0-.51-.14-1.07-1.36a7.62,7.62,0,0,0-1.61-2.45Z"/><path class="cls-1" d="M258.84,136.83a1.71,1.71,0,0,1,.64-.14,2.2,2.2,0,0,1,2,1.68c0,.49-.15.53-1.45.89a28.38,28.38,0,0,0-4.47,1.7c.09,1.24.11,1.62.11,2s0,1.25-.88,1.25c-.72,0-.72-.64-.72-.93s0-1.35,0-1.58c-.55.3-2.57,1.4-2.57,2.58,0,1,1.1,1.25,3.06,1.25a17.21,17.21,0,0,0,3-.25,5.91,5.91,0,0,1,.79-.11c.45,0,1.41.4,1.41,1s-.56.66-.79.7a29.62,29.62,0,0,1-3.88.19c-1.13,0-4.81,0-4.81-2.43,0-1.7,1.66-2.89,3.73-4.06-.07-.85-.19-2-1.56-2-1.59,0-2.55,1.24-3.36,2.3-.57.75-.64.85-1,.85a.77.77,0,0,1-.7-.83c0-.66.57-1.17,1-1.59a19.74,19.74,0,0,0,2.77-3.35l-.83,0a2.43,2.43,0,0,1-2.51-1.65l.29-.23a4.08,4.08,0,0,0,2.18.55,16.45,16.45,0,0,0,1.87-.15,6.62,6.62,0,0,0,1.08-2.06c0-.43-.59-.62-.95-.72l.1-.34a2,2,0,0,1,.81-.19c.83,0,1.92.63,1.92,1.21,0,.23,0,.3-.66,1l-.62.83a9,9,0,0,0,2.41-.7,2.2,2.2,0,0,1,.89-.28c.55,0,1.26.34,1.26.81s-.56.68-1.83,1c-1.11.27-2.49.47-3.82.68,0,0-1.12,1.47-1.66,2.21a3.64,3.64,0,0,1,1.6-.4,2.49,2.49,0,0,1,2.66,2.23c.53-.29,3-1.44,3.47-1.68s.56-.3.56-.45-.43-.42-.66-.49Z"/><path class="cls-1" d="M272.67,134c.17.09.45.26.45.45s-.21.3-.81.28a20.38,20.38,0,0,1-3.51,4.1l2.7-.16a11.73,11.73,0,0,0-.78-1.41L271,137c1.52,1,2.18,1.92,2.18,2.86,0,.59-.32.95-.69.95s-.36-.17-.55-.85a6.92,6.92,0,0,0-.24-.78c-.34.12-.44.14-1.16.34v5.74c0,.35,0,1.9,0,2.2s-.28.66-1,.66c-.43,0-.51-.11-.51-.45s0-2.06,0-2.39v-5.4c-.32.1-1.73.44-2,.51,0,.23-.13.51-.36.51s-.26-.15-.35-.45l-.53-1.62a16.76,16.76,0,0,0,2.07,0,20.45,20.45,0,0,0,3.3-5.65Zm-4.23,7.8c.28.1.43.14.43.33s-.35.33-.54.37a14.75,14.75,0,0,1-2,4.51l-.34-.15a21,21,0,0,0,1.07-5.49Zm-2.05-8.39a6.35,6.35,0,0,1,1.5.74,11.68,11.68,0,0,0,1.23-3.6l1.62.64c.49.19.49.37.49.45,0,.32-.24.32-.77.34a19.4,19.4,0,0,1-2,2.56,2.2,2.2,0,0,1,.91,1.55.86.86,0,0,1-.74.91c-.34,0-.4-.12-1-1.29a7,7,0,0,0-1.45-2Zm4.71,7.6a4.67,4.67,0,0,1,2,3.13.85.85,0,0,1-.75.91c-.38,0-.42-.3-.51-.91a8.82,8.82,0,0,0-1-2.88Zm5.34-8.88c.43.19.47.23.47.43,0,.36-.34.36-.76.38a13.93,13.93,0,0,1-3.64,4.43l-.28-.24a16,16,0,0,0,2.49-5.25,2.8,2.8,0,0,0,.11-.45Zm-2.25,10.81a5.06,5.06,0,0,1,.15,1.39c0,1.94-.73,2.66-1.43,2.66a.6.6,0,0,1-.66-.58c0-.27.11-.44.45-.85a5,5,0,0,0,1.12-2.62Zm3.72-8.21c.47.13.55.23.55.38s-.31.34-.72.41a25.36,25.36,0,0,1-2,3c1.73-.09,2.21-.11,4-.26a9.11,9.11,0,0,0-1.13-1.7l.24-.28c2,.87,3.13,2.26,3.13,3.36a.81.81,0,0,1-.79.9.71.71,0,0,1-.62-.51c-.1-.19-.45-1-.55-1.2-.55.15-1.39.39-2.51.6-2.73.53-3,.58-3.18.62-.08.25-.17.53-.42.53-.08,0-.19,0-.32-.4l-.55-1.6c.51,0,.95,0,2,0a20.52,20.52,0,0,0,1.25-4.24Zm-1,7.41c.17,0,.45.08.45.32s-.18.33-.67.53v2.38c0,.45,0,.72.75.72,1.51,0,1.58,0,1.79-.4a17.51,17.51,0,0,0,.47-2l.38,0c.13,1.77.13,2,.28,2.13.34.36.42.43.42.72,0,1-1.4,1-3.23,1s-2.36,0-2.36-1.53v-2a21.51,21.51,0,0,0-.09-2.17ZM275.59,140c1.19.19,3.49.68,3.49,2.15a.7.7,0,0,1-.68.78c-.28,0-.36-.1-1.06-1a7.33,7.33,0,0,0-1.88-1.59Zm1.32-8.46,1.62.07.45-.6c.12-.15.17-.17.27-.17a.47.47,0,0,1,.3.15l.81.77c.09.1.26.27.26.44,0,.32-.37.41-1.07.56a7.59,7.59,0,0,0,3.94,2.87V136a2.16,2.16,0,0,0-1.41,1.18,8.88,8.88,0,0,1-3.17-4.6,11.2,11.2,0,0,0-1.6.08Zm3.49,10.61c2.37,1.34,2.7,2.81,2.7,3.46s-.5,1-.82,1-.49-.13-.86-1.39a10.93,10.93,0,0,0-1.29-2.79Z"/><path class="cls-1" d="M304.73,143.39a2.93,2.93,0,0,0-1.64,1.6,17.23,17.23,0,0,1-6.72-9.41v7.88h1.42l.68-1c.07-.09.15-.2.28-.2a.51.51,0,0,1,.32.19l1.19,1.24a.78.78,0,0,1,.19.42c0,.34-.32.34-.46.34h-3.62c0,.47.06,2.5.06,2.92s0,.79-1.19.79c-.51,0-.51-.21-.51-.57,0-.05,0-2.33,0-2.77v-.37h-2.09a13.56,13.56,0,0,0-1.48.07l-.37-1.13c.54,0,1.13.07,1.9.07h2v-6.33a18.67,18.67,0,0,1-7.88,8.35l-.21-.32a24.7,24.7,0,0,0,7-9.62h-5a12.28,12.28,0,0,0-1.49.08l-.36-1.13c.55,0,1.14.07,1.89.07h6v-1.75c0-.55,0-1.4-.1-2.17l1.95.24c.15,0,.49.06.49.34s-.21.32-.74.51v2.83h4.85l.87-1.22a.27.27,0,0,1,.26-.19.54.54,0,0,1,.28.15l1.55,1.47a.69.69,0,0,1,.21.43c0,.34-.32.34-.45.34h-7.06a14.39,14.39,0,0,0,7.85,7.47Z"/><path class="cls-1" d="M321.81,144.75V137a21.65,21.65,0,0,0-.08-2.18l2,.22c.17,0,.49.06.49.3s-.15.31-.71.51v8.7c0,.38,0,2.05,0,2.39s0,.81-1.18.81c-.48,0-.55-.13-.55-.9,0-.08,0-1,0-1.13H310.49c0,.22,0,1.41,0,1.56-.09.53-.88.55-1.09.55-.47,0-.59-.13-.59-.51s.06-2.11.06-2.45V137a18.15,18.15,0,0,0-.09-2.2l2,.24c.18,0,.47.06.47.3s-.17.31-.72.51v8.89h4.87v-11.7a15.27,15.27,0,0,0-.1-2.18l2,.22c.19,0,.49.08.49.32s-.26.36-.71.53v12.81Z"/><path class="cls-1" d="M331.36,131.62a2.33,2.33,0,0,1,1-.24c.93,0,2.12.81,2.12,1.39,0,.15-.19.85-.21,1s0,.85,0,1.64a3.65,3.65,0,0,0,.44,2.28c1.05-.49,1.3-.58,3.33-1.41a12.8,12.8,0,0,1,1.76-.72c.58,0,1.45.51,1.45,1.1,0,.43-.15.47-1.36.75a33.82,33.82,0,0,0-5.69,2c-1.74.77-3.81,2-3.81,3.64s2.58,2.11,4.79,2.11a20.64,20.64,0,0,0,3.88-.34c.23,0,1.15-.22,1.3-.22.74,0,1.46.6,1.46,1.07s-.83.7-1.25.76a43.62,43.62,0,0,1-4.75.28c-3.28,0-4.32-.51-4.92-.85a3.21,3.21,0,0,1-1.72-2.73c0-1.34.62-2.93,4.28-4.81-.64-.65-.72-1.48-.75-3.29,0-2.35-.08-2.64-1.31-3.05Z"/><path class="cls-1" d="M350.19,147.52c3.92-1.89,4.39-3.85,4.77-5.47a2.28,2.28,0,0,1-2.21,1.41,2.73,2.73,0,0,1-2.69-3.05,3,3,0,0,1,3-3.24,3.24,3.24,0,0,1,1.51.37c0-.47,0-1.26,0-2a41.48,41.48,0,0,0-5,.69c-.27.06-1.46.42-1.7.42a1.93,1.93,0,0,1-1.66-1.87,1.63,1.63,0,0,1,.11-.56l.36-.08c.19.34.43.72,1.38.72s5.56-.51,6.48-.59c-.05-1.73-.07-2.11-1.35-2.43l0-.36a2.1,2.1,0,0,1,1-.36c.65,0,2,.51,2,1.23,0,.13-.13.72-.15.85a6.09,6.09,0,0,0-.06,1c.53,0,2.87-.17,3.34-.21.21,0,1.15-.15,1.34-.15.62,0,1.53.45,1.53,1s-.66.6-.89.6l-2.86-.06c-1,0-1.36,0-2.48.06,0,1.79,0,2,0,3.55a4.76,4.76,0,0,1,.51,2.35c0,4.53-3.83,6.08-6.21,6.55Zm2.64-5.26c1.07,0,1.6-1.29,1.6-2.28,0-1.23-.68-1.72-1.39-1.72-1.14,0-1.63,1.23-1.63,2.11C351.41,141.47,352,142.26,352.83,142.26Z"/><path class="cls-1" d="M368.5,132.49a1.39,1.39,0,0,0,1.32.72,20.33,20.33,0,0,0,2.86-.48l2.13-.47c.7,0,1.34,1,1.34,1.28s-.13.38-.85.82a49.45,49.45,0,0,0-5.39,4.77,8.15,8.15,0,0,1,4.47-1.34c2.77,0,4.83,1.53,4.83,4.05,0,3-2.79,5.06-6.3,5.06-2.34,0-3.85-1-3.85-2.42a2.52,2.52,0,0,1,2.66-2.3,3.65,3.65,0,0,1,3.45,3.06,3.61,3.61,0,0,0,2.38-3.44c0-2-1.42-3-3.43-3-2.72,0-5.51,1.9-7,3.69-.68.85-.76.95-1.08.95-.49,0-.7-.61-.7-1s.14-.63,1.13-1.57c.4-.36,7.06-6.79,7.06-7.09,0-.08-.1-.11-.17-.11a11.14,11.14,0,0,0-2,.52,11.92,11.92,0,0,1-1.68.63,1.87,1.87,0,0,1-1.6-1.76,2.32,2.32,0,0,1,.06-.45Zm3,10.79a1.17,1.17,0,0,0-1.27,1.07c0,1,1.36,1.36,2.59,1.36a4.39,4.39,0,0,0,1-.1C373.3,143.28,371.51,143.28,371.46,143.28Z"/><path class="cls-1" d="M385.49,142c2.74.78,4.72,2.49,4.72,4a1.15,1.15,0,0,1-1.06,1.28c-.51,0-.58-.15-1.17-1.41a10.84,10.84,0,0,0-2.68-3.57Z"/><path class="cls-1" d="M.28,167.84c1.38.32,3.08,1,3.08,2.37,0,.74-.44,1-.8,1s-.58-.28-.9-1a7.22,7.22,0,0,0-1.57-2.13Zm5.7-.66c-.21.79-.42,1.54-2.32,6.95a6.5,6.5,0,0,0-.59,2,6.78,6.78,0,0,0,.38,1.39,6.84,6.84,0,0,1,.32,1.57,1.24,1.24,0,0,1-1.21,1.32.65.65,0,0,1-.67-.74c0-.21.07-1.15.07-1.34,0-2.17-.24-2.24-1.49-2.62l0-.36c.7,0,1.15,0,1.47-.39s2.32-4.78,3.66-7.91Zm-4.53-3.53c.79.15,3.32.92,3.32,2.41,0,.68-.39,1-.81,1s-.41-.13-.77-.79a9.37,9.37,0,0,0-1-1.41c-.76-.72-.85-.82-.95-.89Zm11.36,1c.15-.13.2-.15.3-.15s.17.06.28.17l1.15,1s.21.2.21.39-.13.3-1.25.49c-.32.32-1.71,1.83-2,2.13h2.68l.49-.62a.37.37,0,0,1,.25-.15.52.52,0,0,1,.28.13l1.09.93a.39.39,0,0,1,.19.34c0,.22-.17.34-.68.66v1.6h.31l.39-.62c.08-.13.13-.21.25-.21a.35.35,0,0,1,.28.19l.68.88c.15.19.19.29.19.38,0,.36-.44.36-.55.36H15.8v.87c0,.36.08,1.92.08,2.24,0,.47-.41.66-1.11.66-.46,0-.46-.17-.46-.51v-.34H11.39v1.36c0,.3.06,1.64.06,1.93,0,1.26-.36,1.81-2.21,2,0-1-.47-1.29-2.09-1.8l0-.37,2,.07c.58,0,.64-.17.64-.58v-2.59H7.73a10.72,10.72,0,0,0-1.43.08l-.4-1.11c.78,0,1.15.05,1.95.05h2v-1.94H6.54a11.43,11.43,0,0,0-1.43.08l-.39-1.14c.58,0,1,.08,1.94.08H9.83v-1.9H8.13a12.15,12.15,0,0,0-1.43.07l-.32-.92a5.76,5.76,0,0,1-.46.35l-.3-.22c2.23-3.42,2.49-4.26,2.89-5.72l1.75.59c.13,0,.43.17.43.39s-.26.34-.77.34a5.39,5.39,0,0,1-.43.68h2.69Zm-2.3,4.05c.52-.86.86-1.47,1.37-2.47H8.79a15.88,15.88,0,0,1-2.19,2.42c.89.05,1.25.05,1.64.05Zm3.8,2.89v-1.9H11.39v1.9Zm0,2.92v-1.94H11.39v1.94Z"/><path class="cls-1" d="M28.19,165.65c0-.62,0-1.53-.07-2.21l2,.25c.15,0,.49.05.49.32s-.17.32-.72.53v5.22h3.74l.83-1.23a.31.31,0,0,1,.26-.19c.07,0,.15,0,.3.17L36.55,170a.57.57,0,0,1,.21.41c0,.36-.34.36-.48.36H29.89v8h4.77l.83-1.23c.1-.13.15-.19.27-.19a.43.43,0,0,1,.28.15l1.55,1.47a.67.67,0,0,1,.2.42c0,.36-.34.36-.47.36H22.12a13.5,13.5,0,0,0-1.47.07l-.36-1.13c.59,0,1.15.08,1.91.08h6v-8H23.12a12.07,12.07,0,0,0-1.47.08l-.36-1.14c.74,0,1.11.08,1.89.08h5Z"/><path class="cls-1" d="M51,176.44c0,.37,0,2.07,0,2.41,0,1.55-.85,1.73-2.41,1.89,0-.74-.21-1.29-2.42-1.83v-.38l2.61.09c.51,0,.54-.07.54-.47v-4.9H43.19a13.31,13.31,0,0,0-1.47.07l-.36-1.13c.53,0,1.13.08,1.9.08H55.82l.81-1.19a.38.38,0,0,1,.27-.17.46.46,0,0,1,.3.15l1.47,1.41a.69.69,0,0,1,.21.42c0,.36-.32.36-.45.36H51Zm-4.15-1.68c.5.22.53.36.53.47,0,.26-.24.28-.77.28a14.07,14.07,0,0,1-5,4.43l-.22-.3c.75-.79,3.26-3.39,3.92-5.6Zm8.85-9,.7-.81c.11-.13.19-.17.26-.17a.51.51,0,0,1,.29.15l1.45,1.4a.62.62,0,0,1,.2.4c0,.32-.13.33-1.26.49a14.82,14.82,0,0,1-1.75,1.49l-.3-.23a14.77,14.77,0,0,0,.54-1.74H44c0,.87-.19,2.61-1.53,2.61-.58,0-.81-.36-.81-.64s.13-.5.6-1.17a7,7,0,0,0,1.1-2.61h.37c.1.4.12.55.17.83h5.42a24.26,24.26,0,0,0-.1-2.47l2,.25c.15,0,.49.05.49.3s-.19.32-.73.55v1.37Zm-2.47,3.19.77-1.13a.32.32,0,0,1,.27-.17.41.41,0,0,1,.28.15L56,169.12a.63.63,0,0,1,.21.41c0,.36-.34.36-.45.36h-10a12.28,12.28,0,0,0-1.49.08l-.3-1.14c.59,0,1.15.08,1.89.08ZM53,174.3c1.77.68,5,2.51,5,4.4,0,.83-.57,1-.81,1-.46,0-.55-.11-1.23-1.24a17.26,17.26,0,0,0-3.11-3.79Z"/><path class="cls-1" d="M67.9,165.61H63.8a12.28,12.28,0,0,0-1.49.08L62,164.55c.55,0,1.15.08,1.91.08h12.5l.78-1.15a.3.3,0,0,1,.28-.19.55.55,0,0,1,.28.15l1.49,1.4a.59.59,0,0,1,.21.41c0,.36-.34.36-.49.36H73v3.11h3.17l.49-.68c.08-.09.15-.17.27-.17s.22.1.28.13l1.21,1c.17.15.22.24.22.35s-.17.38-.69.76v7.28c0,.41.07,2.19.07,2.54s-.4.68-1.21.68c-.47,0-.47-.2-.47-.62v-.79H65v.58c0,.61,0,.87-1.1.87-.43,0-.58-.09-.58-.47,0-.11.08-2.11.08-2.51v-7.45a22,22,0,0,0-.08-2.3l1.89.81H67.9ZM65,178.21H76.38V169.7H73v3.36c0,.57.12.66.8.66.85,0,1,0,1.15-.55.05-.24.3-1.37.34-1.58l.35,0c0,.15,0,1,0,1,0,.63.08.8.21.91.34.3.45.4.45.6,0,1.12-1.56,1.12-2.6,1.12-1.89,0-2.22-.15-2.22-1.64V169.7H69.4a8.24,8.24,0,0,1-.88,4.09A6.77,6.77,0,0,1,65,176.55ZM65,176c2.66-1.86,2.77-4.11,2.87-6.28H65Zm4.39-7.26h2.12v-3.11H69.42Z"/><path class="cls-1" d="M96.44,177.4v-7.73a21.75,21.75,0,0,0-.08-2.19l2,.22c.17,0,.49.06.49.3s-.15.31-.72.51v8.7c0,.38,0,2,0,2.39s0,.82-1.19.82c-.47,0-.55-.14-.55-.91,0-.08,0-1,0-1.13H85.12c0,.22,0,1.41,0,1.56-.09.53-.88.55-1.09.55-.47,0-.58-.13-.58-.51s0-2.11,0-2.45v-7.86a18.23,18.23,0,0,0-.09-2.21l2,.24c.19,0,.47.06.47.3s-.17.31-.72.51v8.89H90V165.7a17,17,0,0,0-.09-2.18l2,.22c.18,0,.49.08.49.32s-.27.36-.72.53V177.4Z"/><path class="cls-1" d="M107.87,166.19c.11-.13.17-.16.25-.16s.18.07.28.16l1,1.1c.15.19.19.28.19.39s0,.34-1.08.48a27.54,27.54,0,0,1-1.83,3.05c1,.44,2.51,1.36,2.51,2.51,0,.58-.37.83-.66.83s-.36-.09-.69-1a5.91,5.91,0,0,0-1.16-1.74v6.06c0,.36,0,1.86,0,2.19,0,.49-.39.69-1.09.69-.44,0-.51-.17-.51-.47s0-2,0-2.36v-4.77a10.61,10.61,0,0,1-2.45,2l-.27-.26a24.76,24.76,0,0,0,4.49-7.13H104.4a11.62,11.62,0,0,0-1.4.07l-.39-1.13c.53,0,1.13.08,1.9.08h.63v-1.66a18.7,18.7,0,0,0-.1-1.89l1.85.23c.17,0,.49.05.49.3s-.17.34-.74.55v2.47h.68Zm8,1.23a17.94,17.94,0,0,0,1.43-4.11l1.64.73c.48.21.48.36.48.46,0,.34-.51.32-.82.32a25.76,25.76,0,0,1-2.07,2.6h1.07l.46-.6a.34.34,0,0,1,.24-.17.56.56,0,0,1,.29.13l1,.87c.11.11.22.2.22.37s0,.25-.62.63v3.16c0,.34.06,1.85.06,2.17,0,.55-.59.66-1.06.66s-.43-.17-.43-.58h-2.49v2h2.3l.68-.94a.27.27,0,0,1,.24-.17.41.41,0,0,1,.29.15l1.3,1.22a.54.54,0,0,1,.21.38c0,.3-.34.34-.53.34h-4.49v.49c0,.42,0,2.26,0,2.66s-.23.66-1.08.66c-.4,0-.45-.21-.45-.47s0-2.51,0-2.81V177h-3.3a10.35,10.35,0,0,0-1.39.08l-.38-1.14c.47,0,1,.08,1.87.08h3.2v-2h-2.33c0,.34,0,.72-1,.72-.47,0-.52-.19-.52-.42s0-1.81,0-2.15V169c0-1.51,0-1.94-.07-2.32l1.6.79Zm-6.07-4c2.41,1.21,2.6,2.4,2.6,2.89a.8.8,0,0,1-.76.89c-.43,0-.49-.16-1-1.49a6,6,0,0,0-1.13-2Zm1.66,5v1.79h2.33V168.4Zm2.33,2.77h-2.33v1.91h2.33Zm-.9-8c2.24,1.24,2.43,2.49,2.43,2.94a.83.83,0,0,1-.77.94c-.36,0-.4-.09-.68-1a7.81,7.81,0,0,0-1.24-2.64Zm2.34,5.22v1.79h2.49V168.4Zm2.49,2.77h-2.49v1.91h2.49Z"/><path class="cls-1" d="M123.68,176.61a27.23,27.23,0,0,0,3-6.1c.14-.37.44-1.6.55-2h-1.54c-.42,0-.84,0-1.48.07l-.32-1.13c.59,0,1.15.08,1.91.08h1.56v-2.06c0-.38,0-1.17-.07-2.17l1.77.23c.19,0,.47.07.47.32s-.19.32-.66.51v3.17h.76l.64-.93c.05-.09.13-.21.26-.21a.38.38,0,0,1,.28.17l1.12,1.21a.58.58,0,0,1,.19.4c0,.34-.31.34-.46.34h-2.79v1.26c1.38.59,3,1.68,3,3,0,.75-.47.92-.7.92-.41,0-.54-.28-.75-.81a9.21,9.21,0,0,0-1.55-2.45v6.72c0,.47,0,2.54,0,3,0,.26,0,.69-1.09.69-.44,0-.49-.11-.49-.52s0-2.44,0-2.83V172a17.12,17.12,0,0,1-3.37,4.88Zm18.09-.65a2.28,2.28,0,0,0-1.45,1.32,21.48,21.48,0,0,1-3.45-7.63v7.45c0,.47,0,2.54,0,3s0,.71-1.14.71c-.41,0-.47-.13-.47-.51s0-2.39,0-2.84v-5.91a15.56,15.56,0,0,1-4.7,5.85l-.28-.25a24.38,24.38,0,0,0,4.72-8.63h-1.32c-.27,0-.7,0-1.48.07l-.32-1.13c.55,0,1.14.08,1.91.08h1.47v-2.06c0-.36,0-1.15-.08-2.17l1.8.25c.19,0,.47.07.47.32s-.1.3-.66.51v3.15h1.73l.72-1a.35.35,0,0,1,.26-.19c.12,0,.19.06.31.17l1.33,1.26a.65.65,0,0,1,.21.42c0,.34-.32.34-.43.34h-4a16.55,16.55,0,0,0,4.77,7.11Z"/><path class="cls-1" d="M152.3,165.31a17,17,0,0,0-.08-2l1.93.23c.22,0,.52.05.52.3s-.24.36-.71.54v1.53h3.32l.77-1.15a.31.31,0,0,1,.26-.19.46.46,0,0,1,.3.15l1.48,1.38a.78.78,0,0,1,.2.45c0,.29-.26.34-.45.34H154v2.76h4.82l.78-1.15a.36.36,0,0,1,.26-.17.42.42,0,0,1,.3.15l1.47,1.37a.64.64,0,0,1,.21.44c0,.34-.32.34-.45.34H146.43c-.51,0-.94,0-1.47.07l-.36-1.13c.76.06,1.11.08,1.91.08h5.79v-2.76h-4.57a12.18,12.18,0,0,0-1.49.08l-.36-1.13c.68,0,1.14.07,1.91.07h4.51Zm3.49,7.18c0-.6,0-1.2-.08-1.83l1.89.23c.15,0,.47.08.47.3s-.21.36-.66.55v1.51h1.22l.72-1.08a.34.34,0,0,1,.26-.17.46.46,0,0,1,.31.15l1.35,1.31a.62.62,0,0,1,.21.41c0,.36-.36.36-.45.36h-3.62v3c0,.26,0,1.45,0,1.7,0,1.09-.08,1.67-2.38,1.88a1.37,1.37,0,0,0-.77-1.19,8.73,8.73,0,0,0-1.68-.6v-.4l2.79.08c.38,0,.38-.19.38-.34v-4.13H146.9a11.75,11.75,0,0,0-1.47.08l-.38-1.12c.68,0,1.16.06,1.91.06h8.83Zm-7.64,2.12c1.28.51,3.35,1.51,3.35,3a1,1,0,0,1-.88,1.1c-.45,0-.51-.14-1.08-1.36a7.84,7.84,0,0,0-1.6-2.45Z"/><path class="cls-1" d="M165,167.84c.79.18,3,.73,3,2.37,0,.57-.34,1-.79,1s-.56-.28-.9-1a7,7,0,0,0-1.51-2.12Zm5.16-.5c-.56,2.25-1.13,4.1-2.26,7.7a3.75,3.75,0,0,0-.26,1.19,3.11,3.11,0,0,0,.3,1.19,4.64,4.64,0,0,1,.32,1.52c0,.89-.51,1.51-1.15,1.51-.15,0-.64-.07-.64-.75,0-.25.06-1.25.06-1.45,0-2.12-.25-2.19-1.46-2.53l0-.38c.77,0,1.19-.05,1.47-.55.1-.16,1-2.16,3.23-7.58Zm-4.14-3.63c.58.11,3.26.71,3.26,2.37a.89.89,0,0,1-.81,1c-.34,0-.4-.07-.85-.89a6.6,6.6,0,0,0-1.79-2.15Zm2.62,16.59c1.07-1.7,2.18-4.22,2.18-10.37v-2.79c0-.3,0-1.34-.07-2.21l1.68.66c4.24-1.11,5.3-1.38,6.64-2.3l1.68,1.28a.66.66,0,0,1,.24.4.3.3,0,0,1-.32.28,2.62,2.62,0,0,1-.74-.19,47.48,47.48,0,0,1-7.58,1.19V170c1.19-.42,5.42-1.85,7.28-3.36l1.47,1.26c.1.1.27.25.27.42a.3.3,0,0,1-.34.28,2.27,2.27,0,0,1-.61-.15c-.45.17-2.52.85-2.94,1a15.18,15.18,0,0,0,.74,3.38,12.49,12.49,0,0,0,2.34-2.55l1.3,1.32c.07.08.32.3.32.49a.28.28,0,0,1-.32.28,2.42,2.42,0,0,1-.66-.13,17.94,17.94,0,0,1-2.76,1.25,9,9,0,0,0,3.89,4.94v.38a2.88,2.88,0,0,0-1.53,1.54c-3.43-2.9-3.71-8.84-3.81-10.73l-1.3.4v7.39c0,.41,0,2.49,0,2.6,0,.29,0,.76-1.15.76-.47,0-.49-.19-.49-.49,0-.46,0-2.46,0-2.87v-7c-.8.17-1.14.2-1.78.3-.07,2.54-.28,7.39-3.43,9.92Z"/><path class="cls-1" d="M193.79,179.08c3.88-1.48,6.2-4.06,6.2-7.32a5,5,0,0,0-5.18-5.09c-.21,0-.32,0-.85,0a1.94,1.94,0,0,1,.77,1.4c0,.81-1.54,4.47-2.11,5.73-1,2.21-1.85,4-3.26,4s-3-1.94-3-4.45c0-3.68,3.15-7.73,8.49-7.73,3.69,0,6.92,2.16,6.92,6.24s-3.36,6.94-7.83,7.49Zm-6.07-5.74c0,1.7.86,3,1.52,3s1.1-.88,1.89-2.58c.62-1.3,2.17-4.92,2.17-6.11a1.32,1.32,0,0,0-.27-.79A6.92,6.92,0,0,0,187.72,173.34Z"/><path class="cls-1" d="M222.3,178.42a2.26,2.26,0,0,0-1.62,1.47,14.11,14.11,0,0,1-6.49-5.11v2.43c0,.19,0,2.37,0,2.81s0,.77-1.15.77c-.49,0-.51-.19-.51-.49,0-.47,0-2.53,0-2.94V175.3a17.41,17.41,0,0,1-7.87,4.95l-.15-.34c1.34-.76,4.72-2.64,6.74-5.44h-2.66c0,.4,0,.76-1.1.76-.39,0-.56-.1-.56-.49s0-2.15,0-2.51v-3c0-1.13,0-1.66-.07-2.09l1.89.83h3.75v-1.61H206.5a13.5,13.5,0,0,0-1.49.08l-.36-1.13c.6,0,1.15.07,1.9.07h6.06a15.89,15.89,0,0,0-.1-2l1.93.22c.21,0,.47.08.47.33s-.17.33-.72.56v.94h4.89l.75-1.09c.1-.13.15-.19.27-.19a.47.47,0,0,1,.3.15l1.43,1.34a.65.65,0,0,1,.23.42c0,.35-.34.35-.49.35h-7.38V168H218l.4-.57c.08-.09.15-.19.26-.19a.64.64,0,0,1,.31.13l1.26,1a.45.45,0,0,1,.21.34c0,.23-.17.34-.64.7v2.41c0,.42.07,2.23.07,2.59,0,.58-.64.68-1.19.68s-.51-.19-.51-.61h-3.52A15.19,15.19,0,0,0,222.3,178ZM212.61,169h-3.94v1.77h3.94Zm0,2.75h-3.94v1.79h3.94Zm1.58-1h3.94V169h-3.94Zm0,2.77h3.94V171.7h-3.94Z"/><path class="cls-1" d="M240.06,165.59l.79-1.17c.06-.09.13-.19.26-.19a.51.51,0,0,1,.31.15l1.52,1.44a.63.63,0,0,1,.21.41c0,.34-.34.34-.49.34H227.52a13,13,0,0,0-1.48.1l-.35-1.15c.54,0,1.13.07,1.9.07h5.94c0-.79,0-1.49-.07-2.3l2,.25c.18,0,.5.05.5.3s-.24.37-.75.6v1.15Zm-8.55,10c.15.07.44.24.44.45,0,.4-.61.34-.87.3a15.81,15.81,0,0,1-5.15,3.79l-.23-.3c1.93-1.71,3.59-3.41,4.25-5.05Zm3.72,1.41c0,.29.06,1.55.06,1.81,0,1.27-.42,1.79-2.4,2,0-.66-.08-1.24-2.38-1.79v-.4l2.42.1c.55,0,.68-.11.68-.59v-4.18h-3.55c0,.3,0,.7-1.07.7-.51,0-.64-.1-.64-.5s.07-2.13.07-2.48v-1.83c0-.65,0-1.55-.07-2.17l1.82.86h8.45l.46-.64c.07-.11.15-.19.26-.19a.47.47,0,0,1,.28.14l1.23,1c.13.12.23.17.23.34s-.08.27-.68.74v1.39c0,.16.07,2.42.07,2.55,0,.49-.41.7-1.17.7-.54,0-.54-.15-.54-.64h-3.53Zm-5.17-7.48V173h8.7V169.5Zm7.19,5.45c1.26.37,5,2.24,5,4.11,0,.58-.33,1-.74,1s-.47-.14-1.23-1.29a12.78,12.78,0,0,0-3.2-3.48Z"/><path class="cls-1" d="M247.73,166.38a1.18,1.18,0,0,0,1.18.85c.46,0,7.89-1.2,9.36-1.41.36-.06,1.92-.4,2.26-.4.57,0,1.59.42,1.59,1.1s-.76.6-1.08.6a5.72,5.72,0,0,0-2.26.24c-1.79.63-5.09,3.42-5.09,6.72,0,2.37,1.79,3.41,3.64,3.47,1.56,0,1.94.92,1.94,1.3,0,.55-.49.72-1,.72-2.68,0-6.07-1.66-6.07-5.11,0-3.06,2.22-5.66,4.81-7.28a63.81,63.81,0,0,0-6.61,1.47,13.45,13.45,0,0,1-1.54.54,2.13,2.13,0,0,1-1.61-2,2.56,2.56,0,0,1,.14-.73Zm10.75,2.87c2.35.75,3.26,2,3.26,2.7a.67.67,0,0,1-.57.73c-.34,0-.41-.15-.77-.73a7.7,7.7,0,0,0-2.13-2.42ZM260,168.1c2.42.57,3.47,1.77,3.47,2.51a.62.62,0,0,1-.53.68c-.26,0-.28,0-.94-.89a8,8,0,0,0-2.19-2Z"/><path class="cls-1" d="M278.68,167.18a13.42,13.42,0,0,0,1.24-3.81l1.75.62c.19,0,.53.21.53.45s-.32.34-.83.36a18.1,18.1,0,0,1-1.85,2.38h1.87l.61-.85c.07-.14.15-.19.24-.19a.38.38,0,0,1,.28.15l1.21,1.17a.6.6,0,0,1,.19.36c0,.34-.42.34-.55.34h-3.43v2.64h1.24l.61-.85c.07-.12.13-.19.24-.19s.21.11.29.17l1.18,1.15a.57.57,0,0,1,.21.36c0,.28-.28.34-.54.34h-3.23v2.71h1.24l.59-.86c.09-.12.15-.17.24-.17a.39.39,0,0,1,.31.15l1.18,1.15a.54.54,0,0,1,.21.37c0,.34-.43.34-.56.34h-3.21v3h1.7l.6-.85c.09-.15.15-.18.25-.18a.41.41,0,0,1,.28.15l1.21,1.17a.72.72,0,0,1,.18.37c0,.27-.3.32-.54.32h-7.7v.49c0,.34,0,.74-1,.74-.49,0-.56-.15-.56-.47s.06-2.42.06-2.87v-7.79a8.66,8.66,0,0,1-1.29,1.38l-.15-.11v3.07c0,.32.08,2,.08,2.36s0,.64-1,.64c-.36,0-.43-.11-.43-.49v-.77h-2.38v1.81c0,.26,0,.6-1,.6-.41,0-.53-.11-.53-.38s.08-2.17.08-2.56v-8.26c0-.93,0-1.31-.08-2.53l1.66.83h2.08l.51-.7a.3.3,0,0,1,.22-.15.45.45,0,0,1,.25.11l1.09.95a.47.47,0,0,1,.19.34c0,.17-.06.3-.68.69v4.08a27.33,27.33,0,0,0,2.85-7.21l1.7.55c.53.17.54.32.54.43,0,.27-.3.34-.75.36a20.17,20.17,0,0,1-1.28,2.59Zm-7.11-1.06h-2.38v8.52h2.38Zm4.35,2v2.64h2.53v-2.64Zm0,3.62v2.71h2.53v-2.71Zm2.53,3.69h-2.53v3h2.53Z"/><path class="cls-1" d="M301.78,171.38l.83-1.22a.32.32,0,0,1,.26-.19.39.39,0,0,1,.3.17l1.66,1.52a.69.69,0,0,1,.21.42c0,.36-.32.36-.47.36H289.42a14,14,0,0,0-1.49.07l-.39-1.2c.54,0,1.13.07,1.9.07Z"/><path class="cls-1" d="M308.75,168.25a1.22,1.22,0,0,0,1.07.77,16.9,16.9,0,0,0,2.53-.69,18.59,18.59,0,0,1,6.32-1.38c2.68,0,5.2,1.45,5.2,4.77,0,4.7-4.58,6.43-10.12,6.39l0-.35c3.86-.57,8.37-2,8.37-6.21a3.23,3.23,0,0,0-3.49-3.51c-3.28,0-6.43,1.93-7.77,2.81a1.08,1.08,0,0,1-.64.27A2.42,2.42,0,0,1,308.3,169a2.08,2.08,0,0,1,.11-.63Z"/><path class="cls-1" d="M336,179.08c3.88-1.48,6.2-4.06,6.2-7.32a5,5,0,0,0-5.18-5.09c-.21,0-.32,0-.85,0a1.94,1.94,0,0,1,.77,1.4c0,.81-1.55,4.47-2.11,5.73-1,2.21-1.85,4-3.26,4s-3-1.94-3-4.45c0-3.68,3.15-7.73,8.49-7.73,3.69,0,6.92,2.16,6.92,6.24s-3.36,6.94-7.83,7.49Zm-6.08-5.74c0,1.7.87,3,1.53,3s1.1-.88,1.89-2.58c.62-1.3,2.17-4.92,2.17-6.11a1.32,1.32,0,0,0-.27-.79A6.93,6.93,0,0,0,329.91,173.34Z"/><path class="cls-1" d="M351.47,164.38a2.28,2.28,0,0,1,1-.24c.89,0,2,.64,2,1.24,0,.14-.15.57-.22.89a8.24,8.24,0,0,0-.19,1.66,8.83,8.83,0,0,0,1.09-.4c.83-.37.93-.43,1.19-.43s1,.23,1,.77,0,.7-3.38,1.47c0,1,0,2.21,0,3.13a10.2,10.2,0,0,1,4.82-1.52c2.25,0,4.1,1.34,4.1,3.84a4.17,4.17,0,0,1-4.19,4.25,3.63,3.63,0,0,1-3.36-2.15l.27-.25a3.52,3.52,0,0,0,2.49,1,2.92,2.92,0,0,0,3.13-3.05,2.36,2.36,0,0,0-2.61-2.53,9,9,0,0,0-4.65,1.6c0,.65.07,3.44.07,4,0,1.28-.62,2.1-1.13,2.1s-.47-.29-.66-.87-.32-.83-2.11-2.28c-1,.88-1.06,1-1.44,1a.63.63,0,0,1-.58-.7c0-.4.38-1.57,1.28-1.75a2,2,0,0,0,1.08-.46c1.54-1,1.71-1.13,2.13-1.39,0-.57,0-3.11,0-3.62a17.89,17.89,0,0,1-2.39.35,1.7,1.7,0,0,1-1.74-1.5l.27-.23a2.16,2.16,0,0,0,1.28.36,15.83,15.83,0,0,0,2.6-.36c.06-3,.06-3.09-1.17-3.53Zm-.83,11.7c1.36.94,1.51,1,1.64,1s.19-.13.21-.26c0-.38,0-1.85,0-2.26C351.62,175.27,350.89,175.89,350.64,176.08Zm7.87-9.66a3.64,3.64,0,0,1,1.11-.15c2.09,0,3.77,1.49,3.77,2.79a.68.68,0,0,1-.64.76c-.11,0-.57-.15-.68-.17a1.5,1.5,0,0,0-.41,0,11.25,11.25,0,0,0-1.63.3l-.19-.3c1.33-.91,1.33-1,1.33-1.15,0-.44-.84-1.36-2.68-1.7Z"/><path class="cls-1" d="M375.28,165.31c0-.83,0-1.59-.07-2l1.92.23c.23,0,.53.05.53.3s-.25.36-.72.54v1.53h3.32l.78-1.15a.31.31,0,0,1,.26-.19.48.48,0,0,1,.3.15l1.47,1.38a.72.72,0,0,1,.21.45c0,.29-.26.34-.45.34h-5.89v2.76h4.83l.77-1.15a.37.37,0,0,1,.27-.17.46.46,0,0,1,.3.15l1.47,1.37a.64.64,0,0,1,.21.44c0,.34-.32.34-.45.34H369.42a14.6,14.6,0,0,0-1.47.07l-.36-1.13c.75.06,1.11.08,1.9.08h5.79v-2.76h-4.56a12.18,12.18,0,0,0-1.49.08l-.36-1.13c.68,0,1.13.07,1.91.07h4.5Zm3.49,7.18c0-.6,0-1.2-.07-1.83l1.88.23c.15,0,.47.08.47.3s-.2.36-.66.55v1.51h1.23l.72-1.08a.33.33,0,0,1,.26-.17.44.44,0,0,1,.3.15l1.36,1.31a.62.62,0,0,1,.21.41c0,.36-.36.36-.45.36h-3.63v3c0,.26,0,1.45,0,1.7,0,1.09-.07,1.67-2.37,1.88a1.36,1.36,0,0,0-.78-1.19,8.49,8.49,0,0,0-1.68-.6v-.4l2.8.08c.37,0,.37-.19.37-.34v-4.13h-8.88a11.64,11.64,0,0,0-1.47.08l-.38-1.12c.68,0,1.15.06,1.91.06h8.82Zm-7.64,2.12c1.29.51,3.36,1.51,3.36,3a1,1,0,0,1-.89,1.1c-.45,0-.5-.14-1.07-1.36a7.84,7.84,0,0,0-1.6-2.45Z"/><path class="cls-1" d="M388.69,166.38a1.18,1.18,0,0,0,1.18.85c.46,0,7.89-1.2,9.36-1.41.36-.06,1.92-.4,2.26-.4.57,0,1.58.42,1.58,1.1s-.75.6-1.07.6a5.69,5.69,0,0,0-2.26.24c-1.8.63-5.1,3.42-5.1,6.72,0,2.37,1.8,3.41,3.64,3.47,1.57,0,2,.92,2,1.3,0,.55-.49.72-1,.72-2.68,0-6.07-1.66-6.07-5.11,0-3.06,2.22-5.66,4.8-7.28a64.43,64.43,0,0,0-6.6,1.47,13.45,13.45,0,0,1-1.54.54,2.13,2.13,0,0,1-1.61-2,2.56,2.56,0,0,1,.14-.73Zm10.75,2.87c2.35.75,3.26,2,3.26,2.7a.67.67,0,0,1-.57.73c-.34,0-.41-.15-.77-.73a7.7,7.7,0,0,0-2.13-2.42ZM401,168.1c2.41.57,3.47,1.77,3.47,2.51a.62.62,0,0,1-.53.68c-.26,0-.28,0-.94-.89a8,8,0,0,0-2.19-2Z"/><path class="cls-1" d="M411.76,180.17c3.93-1.89,4.4-3.85,4.78-5.47a2.31,2.31,0,0,1-2.21,1.42,2.75,2.75,0,0,1-2.7-3.06,3,3,0,0,1,3-3.24,3.27,3.27,0,0,1,1.51.37c0-.47,0-1.26,0-2a42.21,42.21,0,0,0-5,.69c-.26.06-1.45.42-1.7.42a1.94,1.94,0,0,1-1.66-1.87,1.41,1.41,0,0,1,.12-.56l.36-.08c.18.34.43.72,1.37.72s5.57-.51,6.49-.59c-.06-1.73-.08-2.11-1.36-2.43l0-.36a2.13,2.13,0,0,1,1-.36c.64,0,2,.51,2,1.23,0,.13-.14.72-.15.85a6.09,6.09,0,0,0-.06,1c.53,0,2.87-.17,3.34-.21.2,0,1.15-.15,1.34-.15.62,0,1.52.45,1.52,1s-.66.6-.88.6l-2.87-.06c-1,0-1.36,0-2.47.06,0,1.79,0,2,0,3.55a4.65,4.65,0,0,1,.51,2.35c0,4.53-3.83,6.08-6.2,6.55Zm2.64-5.26c1.08,0,1.61-1.28,1.61-2.28,0-1.23-.68-1.72-1.4-1.72-1.13,0-1.62,1.23-1.62,2.11C413,174.12,413.56,174.91,414.4,174.91Z"/><path class="cls-1" d="M433.93,177.19a2.62,2.62,0,1,1-2.62-2.62A2.62,2.62,0,0,1,433.93,177.19Zm-4.4,0a1.79,1.79,0,1,0,1.78-1.79A1.78,1.78,0,0,0,429.53,177.19Z"/></svg>