<?xml version="1.0" encoding="utf-8"?>
<!-- Generator: Adobe Illustrator 25.2.0, SVG Export Plug-In . SVG Version: 6.00 Build 0)  -->
<svg version="1.1" id="レイヤー_1" xmlns="http://www.w3.org/2000/svg" xmlns:xlink="http://www.w3.org/1999/xlink" x="0px"
	 y="0px" viewBox="0 0 368.5 34.6" style="enable-background:new 0 0 368.5 34.6;" xml:space="preserve">
<style type="text/css">
	.st0{fill:#006837;}
</style>
<g>
	<g>
		<path class="st0" d="M1.5,2.4v31.9H0V0.8h12.2v1.6H1.5z"/>
		<path class="st0" d="M50.7,5.7c0,1.3-0.1,3.7-0.1,6.6c0,4.6,0.3,11.9,0.3,16.4c0,2,0,4.6-4.8,5.1c-0.1-1.2-0.3-2.1-3.4-3.9l0-0.3
			c1.9,0.3,3.6,0.3,3.9,0.3c1.1,0,1.3-0.3,1.3-1.8v-9.4H26.4c0.1,7.7,0.1,8.5,0.2,11.5c0,0.1,0,1,0,1.3c0,0.8,0,2.2-2,2.2
			c-1.1,0-1.1-0.7-1.1-1.2c0-0.7,0.1-3.6,0.1-4.2c0.2-6.6,0.2-13.1,0.2-19.7c0-3.8-0.1-5.7-0.3-7.4l4,2.3h19.9l1.3-1.3
			c0.3-0.3,0.4-0.4,0.6-0.4c0.2,0,0.3,0.1,0.7,0.4l1.7,1.5c0.2,0.2,0.4,0.5,0.4,0.7C52.1,4.8,51.5,5.3,50.7,5.7z M35.9,4.5h-9.5
			v13.5h9.5V4.5z M48,4.5h-9.5v13.5H48V4.5z"/>
		<path class="st0" d="M87.9,33.1c-7.4,0-7.4-0.1-7.4-5.4c0-2,0.1-10.9,0.1-12.7h-6.7l2.8,1.4c0.2,0.1,0.6,0.3,0.6,0.6
			c0,0.3-0.3,0.5-1.1,1C75.3,25.2,73.8,32,62.3,34l-0.1-0.3c8.5-3.5,10.9-8.3,10.9-16.3c0-1.6-0.1-2.1-0.1-2.4h-5.6
			c-0.9,0-2.7,0-4.3,0.3l-0.7-1.5c2.5,0.2,5.2,0.3,5.7,0.3h9.6c0-6.9,0-7.9-0.1-10.2C77.2,2,77,1.3,76.7,0.5l4.1,0.9
			c0.4,0.1,0.7,0.2,0.7,0.5c0,0.4-0.7,0.9-1.3,1.2v11h10.1l1.7-2.1c0.3-0.3,0.4-0.5,0.6-0.5c0.2,0,0.4,0.2,0.6,0.4l2.2,2.1
			c0.3,0.3,0.4,0.4,0.4,0.6c0,0.3-0.3,0.4-0.6,0.4h-12c0,2.1-0.1,11.1-0.1,12.3c0,2.6,0,2.9,0.7,3.2c0.5,0.2,3.4,0.2,4,0.2
			c2.7,0,3.8,0,4.5-1.9c0.5-1.5,1.2-4.6,1.5-6.3H94c0.6,5.8,0.7,6.4,1.4,7c0.4,0.4,0.6,0.5,0.6,1C96,33.1,91.5,33.1,87.9,33.1z
			 M72.1,11.6c-1.2,0-1.4-0.7-2.2-2.8c-1.1-2.9-2.3-4.2-3-4.9L67,3.8c3.4,1.4,6.6,3.9,6.6,6C73.6,10.8,73,11.6,72.1,11.6z M89.2,6.2
			c-1.6,2-4.9,5-7.1,6.4l-0.2-0.2c1.3-1.8,4.2-6.6,4.9-9.7l3.3,2c0.4,0.2,0.6,0.4,0.6,0.7C90.7,5.8,90.4,6.1,89.2,6.2z"/>
		<path class="st0" d="M136.5,14h-27.6c-0.7,0-2.6,0-4.3,0.3l-0.7-1.4c2.3,0.1,4.6,0.2,5.7,0.2h9.4V7.4h-6.7c-0.7,0-2.6,0-4.3,0.3
			l-0.7-1.5c2.3,0.2,4.6,0.3,5.7,0.3h6.1c-0.1-3.4-0.1-4.6-0.8-6.5l4.1,1.3c0.5,0.1,0.7,0.3,0.7,0.6c0,0.4-0.4,0.7-1.3,1.3
			c0,0.3,0,2.2,0,3.3h6.6l1.4-2c0.2-0.3,0.4-0.5,0.6-0.5c0.2,0,0.4,0.1,0.7,0.4l2.4,2c0.2,0.1,0.4,0.3,0.4,0.6
			c0,0.4-0.3,0.4-0.6,0.4h-11.3c0,0.2,0,3.5,0,5.8h10.1l1.4-1.8c0.3-0.4,0.4-0.5,0.6-0.5c0.2,0,0.3,0.1,0.7,0.4l2.4,1.9
			c0.2,0.2,0.4,0.4,0.4,0.6C137,14,136.8,14,136.5,14z M135.9,21H127c0.1,10.2,0.1,10.2-0.3,10.9c-0.1,0.3-1,2.2-4.2,2.7
			c-0.3-1.3-0.7-2.6-4.7-4.2v-0.3c1,0.1,3.5,0.3,5.3,0.3c1.1,0,1.3-0.4,1.3-1.3V21h-14.8c-0.9,0-2.7,0-4.3,0.3l-0.7-1.5
			c2.5,0.2,5.2,0.3,5.7,0.3h14.1c0-3.2,0-3.4-0.5-5.4l3.4,1c0.3,0.1,0.7,0.2,0.7,0.6c0,0.5-0.4,0.7-1.1,1.1v2.7h4.1l1.3-1.9
			c0.2-0.3,0.4-0.5,0.6-0.5c0.2,0,0.4,0.1,0.7,0.4l2.4,1.9c0.2,0.1,0.4,0.3,0.4,0.6C136.4,21,136.1,21,135.9,21z M115.5,29.4
			c-1.1,0-1.4-0.7-1.8-1.5c-0.6-1.6-1.5-4.2-3.2-5.5l0.1-0.2c3.3,1,6.4,3.2,6.4,5.4C117.1,28.1,116.8,29.4,115.5,29.4z"/>
		<path class="st0" d="M177.1,29.3c-2.5-0.9-7-2.7-10.7-7.4h-6.7c-3.8,3.9-8.6,6.7-14,7.8l0-0.2c3.2-1.3,6.9-3.7,10.6-7.5h-5.6
			c-0.9,0-2.7,0-4.3,0.3l-0.7-1.5c2.5,0.2,5.1,0.3,5.7,0.3h5.9c0.3-0.3,2.1-2.4,2.8-3.9h-4.5c0.1,1.7-1.5,1.7-1.6,1.7
			c-1,0-1-0.7-1-1c0-1,0.2-5.7,0.2-6.6c0-0.7-0.1-3.1-0.4-4.2l3.2,1.7h13.4l0.9-1c0.3-0.3,0.4-0.4,0.6-0.4c0.2,0,0.4,0.2,0.6,0.3
			l1.4,1.1c0.3,0.2,0.3,0.4,0.3,0.6c0,0.3-0.1,0.4-0.3,0.6c-0.2,0.2-0.5,0.4-0.7,0.6v1.7c0,0.8,0.2,4.3,0.2,5c0,0.8-0.8,1.5-1.7,1.5
			c-1,0-1-0.6-1-1.5h-7l0.7,0.5c0.2,0.1,0.3,0.2,0.3,0.4c0,0.3-0.2,0.4-1.2,0.7c-0.5,0.6-0.9,1.3-1.8,2.3h13.7l1.4-1.9
			c0.2-0.3,0.4-0.5,0.6-0.5c0.1,0,0.4,0.2,0.7,0.4l2.1,1.9c0.2,0.2,0.4,0.3,0.4,0.6c0,0.3-0.3,0.4-0.6,0.4h-11.7
			c2.4,2,7.3,4.3,13.1,4.3v0.2C178.6,27.2,178,27.7,177.1,29.3z M177.7,5.1h-9.6c0,1.5,0,1.7-0.1,1.9c-0.3,0.6-0.9,0.8-1.5,0.8
			c-0.6,0-0.9-0.3-0.9-0.8c0-0.3,0.1-1.7,0.1-1.9H160c0,0.7,0,1.6-0.1,1.9c-0.3,0.6-1.1,0.8-1.6,0.8c-0.7,0-0.8-0.5-0.8-0.7
			c0-0.3,0.1-1.7,0.1-2h-5.3c-0.3,0-2.6,0-4.3,0.3l-0.7-1.5c2.4,0.2,5,0.3,5.6,0.3h4.8c0-2-0.1-2.2-0.4-3.7l3.1,0.8
			c0.3,0.1,0.6,0.2,0.6,0.5c0,0.3-0.2,0.4-0.8,1v1.4h5.6c0-2.4-0.2-2.8-0.4-3.6l3.2,0.8c0.3,0.1,0.5,0.2,0.5,0.5
			c0,0.2-0.2,0.4-0.8,0.9c0,0.5,0,0.6,0,1.3h5.1l1.4-1.8c0.2-0.2,0.3-0.5,0.6-0.5c0.2,0,0.5,0.2,0.7,0.4l2.1,1.8
			c0.2,0.1,0.4,0.3,0.4,0.6C178.3,5,178,5.1,177.7,5.1z M174.9,32.5h-21c-0.9,0-2.7,0-4.3,0.3l-0.7-1.5c2.4,0.2,4.6,0.3,5.7,0.3h6.9
			v-4h-1.5c-0.9,0-2.7,0-4.3,0.3l-0.7-1.5c2.3,0.2,4.6,0.3,5.7,0.3h0.9c0-0.8,0-2.9-0.4-4.3l3.4,0.9c0.2,0,0.6,0.1,0.6,0.6
			c0,0.4-0.6,0.8-1,0.9v1.9h1.9l1.1-1.3c0.2-0.2,0.4-0.5,0.6-0.5c0.2,0,0.4,0.2,0.7,0.4l1.6,1.3c0.3,0.2,0.4,0.4,0.4,0.6
			c0,0.4-0.3,0.4-0.6,0.4h-5.6v4h6.2l1.4-1.8c0.2-0.3,0.4-0.4,0.6-0.4c0.2,0,0.4,0.1,0.7,0.4l2.3,1.8c0.3,0.2,0.4,0.4,0.4,0.6
			C175.4,32.5,175.1,32.5,174.9,32.5z M169.6,9.5h-14.1v2.8h14.1V9.5z M169.6,13.3h-14.1v2.9h14.1V13.3z"/>
		<path class="st0" d="M201,13.8h-4.3v11.9c3-0.9,3.8-1.2,4.7-1.5l0.1,0.3c-1.3,1-3,2-5.3,3.1c-1.5,0.8-3.4,1.7-4.5,2.3
			c-0.3,0.8-0.5,1.2-0.9,1.2c-0.3,0-0.5-0.3-0.6-0.4l-1.9-3.3c1.3,0.1,1.9,0.1,6-1c0-1.3,0-6.8,0-8v-4.5h-0.7c-0.7,0-2.5,0-4.3,0.3
			l-0.7-1.5c2.2,0.2,4.4,0.3,5.8,0.3c0-1.8,0-3.7,0-5.5c0-3.1-0.1-3.9-0.5-5.5l3.7,1.3c0.2,0.1,0.5,0.2,0.5,0.6c0,0.4-0.7,1-1.3,1.3
			c-0.1,2.6-0.1,3.8-0.1,7.8h0.9l1.1-1.2c0.3-0.4,0.4-0.5,0.6-0.5c0.2,0,0.4,0.3,0.6,0.4l1.3,1.2c0.2,0.2,0.3,0.3,0.3,0.6
			C201.6,13.8,201.3,13.8,201,13.8z M217.5,32.7c-0.8,0.1-7.4,0.1-8.4,0.1c-6,0-7.1-0.3-7.1-4.3c0-1.4,0.1-7.8,0.1-9.1
			c0-0.4,0-2,0-2.4c-1.5,0.7-2.3,1.1-3.6,2l-1.3-1c2-0.7,4.3-1.7,4.8-1.9V9.6c0-1.7-0.1-2.5-0.4-4.3l3.4,1.2
			c0.3,0.1,0.6,0.2,0.6,0.5c0,0.3-0.3,0.6-1.2,1.2c0,1.1-0.1,5.9-0.1,6.8l4-1.8c0-3.7,0-6.3-0.1-8.9c-0.1-1.4-0.3-2.7-0.4-3.2
			l3.5,1.2c0.4,0.1,0.6,0.3,0.6,0.6c0,0.3-0.5,0.8-1.3,1.4c-0.1,3.3-0.1,3.8-0.1,8l3.6-1.6l0.9-1.5c0.2-0.3,0.4-0.6,0.6-0.6
			s0.5,0.1,0.7,0.3l1.7,1.1c0.1,0.1,0.4,0.3,0.4,0.6c0,0.4-0.4,0.8-0.9,1.3c0,11-0.1,13.6-4.4,14.7c-0.3-1.8-1.7-2.8-2.2-3.1v-0.2
			c0.6,0.1,0.8,0.1,1.1,0.1c2.6,0,3-0.3,3-8.1c0-2.5,0-2.9-0.1-4l-4.4,2c0,5.4,0.1,8.9,0.1,9.9c0,0.5,0.1,2.7,0.1,3.1
			c0,1.8-1.5,1.8-1.9,1.8c-0.5,0-0.9-0.2-0.9-1c0-0.4,0.1-2.3,0.1-2.7c0.1-2.4,0.1-3.8,0.1-10.2l-4,1.8c0,1.5,0,12.8,0,13.2
			c0,0.5,0.4,0.9,0.9,1c0.5,0.1,5.7,0.1,6.4,0.1c3.8,0,4.9,0,5.7-1.4c0.7-1.3,1.5-4,1.6-4.5h0.3c0.1,1.3,0.2,3.5,0.7,4.4
			c0.2,0.4,0.8,0.7,0.8,1.1C220.9,30.6,220.3,32.2,217.5,32.7z"/>
		<path class="st0" d="M230.5,34v-1.6h10.7V0.5h1.5V34H230.5z"/>
		<path class="st0" d="M269.2,30.6l0-0.3c7.9-2.8,11.6-8,11.6-13.6c0-6.2-5-9.9-11.4-9.9c-0.9,0-1.1,0-1.5,0.2
			c2,1.1,2.5,2.4,2.5,2.9c0,0.4-0.1,0.7-1.3,3.1c-2.4,5-5.8,12.4-8.3,14.5c-0.3,0.2-0.7,0.4-1.2,0.4c-0.8,0-1.2-0.5-2.3-2
			c-0.3-0.4-1.7-1.7-2-2.1c-0.4-0.6-1-1.9-1-3.8c0-7.9,6.7-14.4,15.7-14.4c7.1,0,13.6,4.2,13.6,11.6
			C283.6,24.4,277.6,29.9,269.2,30.6z M266.2,7.3c-4,0.7-9.7,5.9-9.7,12.7c0,2.5,1.4,5.3,2.9,5.3c1,0,2.4-2.6,3.1-3.9
			c3.7-7.4,4.9-9.8,4.9-11.7C267.4,8.7,266.9,7.9,266.2,7.3z"/>
		<path class="st0" d="M307.7,11h-4.9c0,1.9,0,2.8,0,2.9l0,4.7c1.2-0.5,3.4-1.4,4.2-1.8l0.1,0.3c-0.8,0.7-3.1,2.2-4.4,3
			c0,1.5,0,9.2,0,10.3c0,0.3,0.1,1.8,0.1,2.1c0,1.7-1.7,1.8-2,1.8c-0.1,0-0.9,0-0.9-0.8c0-0.4,0.2-2,0.2-2.3c0-1.8,0.1-7.8,0.1-9.6
			c-3,1.9-4.3,2.6-5.2,3c-0.3,0.9-0.6,1.4-1,1.4c-0.3,0-0.5-0.3-0.6-0.6l-1.6-3.3c0.7,0,1.4,0,2-0.2c0.3-0.1,6-2.1,6.4-2.3
			c0-4.1,0.1-6.7,0.1-8.6h-3.9c-0.1,0.6-1.7,5.5-3.4,7.4l-0.3-0.1c1-2.7,2.5-9.6,2.3-15.3l3.5,1.2c0.3,0.1,0.5,0.3,0.5,0.6
			c0,0.4-0.7,0.7-1.1,0.8c-0.2,0.8-0.4,1.9-1.2,4.5h3.6c0-7.2,0-7.5-0.6-9.5l3.8,1.1c0.3,0.1,0.6,0.3,0.6,0.5c0,0.3-0.2,0.5-1.3,1.3
			c0,1-0.1,5.7-0.1,6.6h1.3l1-1.3c0.2-0.3,0.4-0.4,0.6-0.4s0.4,0.1,0.7,0.4l1.6,1.3c0.3,0.2,0.4,0.4,0.4,0.6
			C308.3,10.9,308.1,11,307.7,11z M325.7,14.1h-16.2c-0.4,0-2.7,0-4.3,0.3l-0.7-1.4c2.5,0.2,5,0.2,5.7,0.2h2.9c0-1.1,0-2.5,0-6.2h-2
			c-0.4,0-2.7,0-4.3,0.3l-0.7-1.5c2.4,0.2,5,0.3,5.7,0.3h1.4c0-2.8,0-3.1-0.6-5.5l3.9,1.2c0.3,0.1,0.6,0.3,0.6,0.6
			c0,0.4-0.6,0.8-1.4,1.1v2.7h3.5l1.3-1.6c0.2-0.3,0.4-0.4,0.6-0.4c0.2,0,0.4,0.1,0.7,0.4l1.9,1.6c0.2,0.1,0.4,0.4,0.4,0.6
			c0,0.3-0.3,0.4-0.6,0.4h-7.8v6.2h6l1.3-1.7c0.2-0.3,0.4-0.5,0.6-0.5c0.1,0,0.4,0.1,0.7,0.4l2,1.7c0.2,0.2,0.4,0.4,0.4,0.6
			C326.3,14,326.1,14.1,325.7,14.1z M325.3,20.8h-6.4c0,1.4,0.1,7.9,0.1,9.2c0,2-0.1,3.5-4.1,4.6c-0.8-2.1-1.4-2.5-4.1-3.8v-0.2
			c1.7,0.1,3,0.2,4.1,0.2c1.6,0,1.6-0.3,1.6-2.6c0-1.3-0.1-4.6-0.1-7.4h-5.7c-0.5,0-2.5,0-4.3,0.3l-0.7-1.5c2.4,0.2,5,0.3,5.6,0.3
			h5.1c-0.1-3.4-0.3-4-0.6-4.9l3.3,0.7c0.5,0.1,0.8,0.2,0.8,0.6c0,0.4-0.4,0.7-1.1,1c0,0.6,0,1,0,2.6h2.5l1-1.6
			c0.2-0.3,0.4-0.5,0.6-0.5c0.2,0,0.4,0.1,0.7,0.4l1.8,1.5c0.3,0.2,0.4,0.4,0.4,0.6C325.9,20.7,325.7,20.8,325.3,20.8z M311.6,27.7
			c-0.9,0-1.1-0.5-1.7-1.9c-0.8-2-1.6-2.7-2-3.1l0.1-0.3c1.8,0.3,5,1.4,5,3.6C313,27.1,312.4,27.7,311.6,27.7z"/>
		<path class="st0" d="M364.7,33c-4.9-1.6-12.6-5.6-15.9-14.7H345v10.7c2.3-0.4,5.9-1.1,8.8-1.8l0.1,0.3c-1.5,0.9-3,1.5-3.5,1.7
			c-1.6,0.7-9.1,3.3-10.5,3.8c-0.2,0.1-0.8,0.9-1,0.9c-0.1,0-0.3-0.1-0.4-0.4l-1.7-3.7c0.6,0,1.2,0.1,1.8,0.1c1.2,0,3.6-0.4,4.1-0.5
			V18.3h-2.3c-0.7,0-2.6,0-4.3,0.3l-0.7-1.5c2.3,0.2,4.6,0.3,5.7,0.3h1.7c-0.1-9.5-0.1-10.9-0.3-13.3c0-0.4-0.3-2.1-0.3-2.7l3.5,1.8
			h13l1.5-1.8c0.1-0.2,0.4-0.5,0.6-0.5c0.1,0,0.5,0.3,0.7,0.4l2.7,1.8c0.1,0.1,0.4,0.3,0.4,0.6c0,0.3-0.3,0.4-0.6,0.4H345V8h10.7
			l1.3-1.5c0.3-0.3,0.4-0.5,0.6-0.5s0.4,0.1,0.7,0.4l2.4,1.5c0.2,0.1,0.4,0.3,0.4,0.6c0,0.3-0.3,0.4-0.6,0.4H345v3.8h10.9l1.3-1.6
			c0.2-0.3,0.4-0.5,0.6-0.5c0.1,0,0.4,0.1,0.7,0.4l2.2,1.7c0.2,0.2,0.4,0.3,0.4,0.5c0,0.4-0.3,0.4-0.6,0.4H345v3.9h16.8l1.6-2
			c0.2-0.2,0.4-0.5,0.6-0.5c0.2,0,0.4,0.2,0.7,0.4l2.7,2c0.2,0.1,0.4,0.3,0.4,0.6c0,0.4-0.3,0.4-0.6,0.4h-17.6
			c1.3,2.5,3.1,4.5,4.7,5.9c0.9-0.8,3.2-2.9,4.8-5.8l2.9,2.2c0.3,0.2,0.3,0.4,0.3,0.5c0,0.6-0.5,0.5-1.5,0.4
			c-0.6,0.3-2.9,1.5-3.5,1.7l-2.6,1.3c3.9,3.2,8.8,4.9,13.9,4.9v0.1C366.4,30.4,365.2,32.1,364.7,33z"/>
	</g>
</g>
</svg>
