<svg id="レイヤー_1" data-name="レイヤー 1" xmlns="http://www.w3.org/2000/svg" viewBox="0 0 681.27 125.64"><path d="M23.81,6s1.68,1.36,2.67,2.33c-.09.28-.34.42-.74.42H21V18c0,.29-1,.77-1.85.77h-.42v-2h-5v1.82c0,.25-1,.74-1.81.74h-.4V8.73H6.66V22.94H21l1.58-2.07s1.82,1.44,2.9,2.43c-.09.32-.37.46-.77.46H6.66v1.56c0,.28-1,.88-1.81.88H4.39V8.73H.23L0,7.94H4.39V.71l3.29.37c0,.39-.28.68-1,.79V7.94h4.88V.17l3.23.34c-.06.4-.25.71-1,.79V7.94h5V.42l3.32.34c-.09.4-.32.71-1.05.8V7.94h1.3Zm-5,2.75h-5v7.2h5Z"/><path d="M56.12,3.8a2.43,2.43,0,0,1-1.2.59v20.3a3,3,0,0,1-2,.77h-.34V23.19h-17v1.62c0,.31-.82.85-1.82.85h-.39V2.07l2.44,1.08H52.34l1.22-1.36ZM35.59,4v8.59h7.26V4Zm0,18.4h7.26v-9H35.59ZM45.12,4v8.59h7.51V4Zm7.51,18.4v-9H45.12v9Z"/><path d="M77.44,5.75c-.08.37-.45.52-1.24.57,2.49,3.55,7.31,6.13,12.07,7.68l0,.43a2.81,2.81,0,0,0-2,2.1c-4.59-2.19-8.64-5.61-10.52-9.84a27.64,27.64,0,0,1-7.54,7.48l2,.86h9.53l1.21-1.36,2.61,2a2.23,2.23,0,0,1-1.22.59v9.1a3.45,3.45,0,0,1-2,.65h-.37V24H70V25.4c0,.26-1,.77-1.93.77h-.34V14.49a30.7,30.7,0,0,1-5.7,3l-.2-.4c4.94-2.69,10.35-8.25,11.71-12.3ZM72.51,1.81c-.14.29-.42.43-1.08.32a25.07,25.07,0,0,1-8,7.65l-.28-.34A28.09,28.09,0,0,0,69.34.25ZM70,15.88v7.28h10V15.88ZM77.84.68c10.32,3,9.22,9.07,6.32,7.51C83.06,5.73,80,2.72,77.56,1Z"/><path d="M116.21,21.21s1.84,1.39,3,2.38c-.08.31-.37.45-.74.45h-21v1.39a2.25,2.25,0,0,1-1.93.79h-.4V1.47l2.67,1.17h15.82L115.08.71S116.78,2,117.86,3c-.09.31-.37.45-.77.45H97.39V23.22h17.23Zm-17.43.28A35.2,35.2,0,0,0,107,12.73a42.62,42.62,0,0,0-7-5.13l.26-.4A52.32,52.32,0,0,1,108,11.14a38.82,38.82,0,0,0,3.26-6.77l3.32,1.44a1.13,1.13,0,0,1-1.22.43,40.4,40.4,0,0,1-3.55,6.18c7.06,5.27,5.13,9.3,2.92,7.6a21.86,21.86,0,0,0-4.28-5.85,30,30,0,0,1-9.41,7.66Z"/><path d="M133.91,23.5c7-1.36,10.18-5,10.18-10.12a8,8,0,0,0-8.31-8.33c-.34,0-.68,0-1.05,0a5.34,5.34,0,0,1,1.42,3.18,14.16,14.16,0,0,1-.91,4.7c-1.19,3.46-4.45,8.88-7.51,8.88-2,0-4-3.15-4-6.72a11,11,0,0,1,3.91-8.08A12.38,12.38,0,0,1,136,4c6,0,10.57,4,10.57,9.92,0,4.87-3.2,9.64-12.53,10.18Zm-.29-18.2a10.7,10.7,0,0,0-5.24,2.87,9,9,0,0,0-2.81,6.4c0,2.58,1.17,4.65,2.33,4.65,1.78,0,4.36-4.31,5.47-6.77a13.3,13.3,0,0,0,1.08-4.6A4.59,4.59,0,0,0,133.62,5.3Z"/><path d="M163.63,8s1.5,1.14,2.41,2c-.09.31-.34.45-.74.45H153.11l-.23-.82H158V7.06H154l-.23-.82H158V4h-4.4l-.22-.83H158v-3l3.12.31c0,.37-.29.63-.91.74v2h1.76l1.27-1.61s1.45,1.16,2.36,2c-.09.32-.34.46-.74.46h-4.65V6.24h1.53l1.19-1.51a23.94,23.94,0,0,1,2.24,1.88.64.64,0,0,1-.71.45h-4.25V9.64h2.15ZM178,11.23a25.14,25.14,0,0,1,1.67,1.9.65.65,0,0,1-.71.45h-2.07v5.7a3,3,0,0,1-1.67.54h-.4V18.29h-3.09v4.79c0,1.61-.37,2.78-3,3a2.62,2.62,0,0,0-.51-1.53,3.66,3.66,0,0,0-2.16-.79v-.43s2.44.17,3,.17.59-.14.59-.54v-4.7h-3.88l-.25-.83h4.13V13.58h-4.73l-.06-.23a2.24,2.24,0,0,1-1,.43v9.55c0,1.62-.28,2.55-2.89,2.81a3.15,3.15,0,0,0-.45-1.53,3.34,3.34,0,0,0-1.9-.74v-.45s2.07.17,2.58.17.53-.17.53-.54V19.93H156.8V25.4c0,.23-.88.74-1.79.74h-.34V11.59l2.24,1h4.45l1-1.25,2.3,1.7-.09-.31h5V8.87H166l-.26-.79h4.94a26,26,0,0,0,2.18-4h-3.52a19.67,19.67,0,0,1-4.5,4.47l-.32-.25A23.07,23.07,0,0,0,168.87,0l3.26.91c-.11.31-.34.42-1,.36A19.48,19.48,0,0,1,170,3.2h3l1.3-1.3L176.53,4a2,2,0,0,1-1.11.31,33.33,33.33,0,0,1-3.94,3.74h3.29v0h.09l1-1.13,2,1.81a2.1,2.1,0,0,1-1,.48v3.52H177ZM156.8,13.41v2.38h4.84V13.41Zm4.84,5.73V16.61H156.8v2.53Zm10-6.41h3.09V8.87h-3.09Zm3.09.85h-3.09v3.88h3.09Z"/><path d="M191.22,2.55a4.93,4.93,0,0,1,2.07-.45c1.19,0,3.46,1,3.46,1.78s-.65,1-1,1.82c-.26.65-.66,1.61-1.14,2.75a16.22,16.22,0,0,1,2.24-.23c2.16,0,3.46,1.22,3.46,4.68s-1,7.48-2.78,9.67A4.56,4.56,0,0,1,194,24.3c-1,0-1.22-.4-1.59-1.39-.17-.49-.4-.8-1.9-2.19l.28-.42a9.8,9.8,0,0,0,3.41,1.56,2.36,2.36,0,0,0,2.15-1.33c1.05-1.51,2-5.14,2-8.25,0-1.9-.48-2.78-2-2.78a11.89,11.89,0,0,0-2.44.39c-.8,1.9-1.73,4.06-2.58,5.84a83.17,83.17,0,0,1-4.17,7.86c-.48.79-.85,1-1.36,1a1.15,1.15,0,0,1-1-1.28,2,2,0,0,1,.51-1.44,43,43,0,0,0,4.39-7c.65-1.3,1.34-2.83,2-4.34-1,.35-1.84.68-2.41.91a6.32,6.32,0,0,1-2.3.8c-.76,0-1.9-1.2-2.12-2.19a3.53,3.53,0,0,1,.14-1.73l.51-.08c.37.82.62,1.64,1.42,1.64a48.25,48.25,0,0,0,5.44-1.08,21.69,21.69,0,0,0,1.39-4.47.8.8,0,0,0-.45-.8,7.86,7.86,0,0,0-2.16-.48Zm11,5.64a7.82,7.82,0,0,1,5,2.27,7.57,7.57,0,0,1,1.93,5.33c0,1.3-.46,2.33-1.42,2.33s-.82-.83-1.67-1a15.48,15.48,0,0,0-3.29,0l-.14-.63a32.32,32.32,0,0,0,3.4-.85c.59-.22.74-.51.71-1.25a6.38,6.38,0,0,0-1.11-3.23A5.55,5.55,0,0,0,202,8.82Z"/><path d="M220.64,1.79a5.4,5.4,0,0,1,1.87-.4,4.33,4.33,0,0,1,2.21.54c.51.34.34,1-.65,4.25,2.55-.82,3.14-1.45,3.63-1.45a1.07,1.07,0,0,1,1.16,1c0,.54-.57.9-.94,1.13a17.57,17.57,0,0,1-4.5,1.5,54.07,54.07,0,0,1-5.19,11.49c-.51.73-.91,1.27-1.5,1.27s-1-.68-1-1.33a2.31,2.31,0,0,1,.54-1.5,31.54,31.54,0,0,0,5.3-9.62,18,18,0,0,1-2.15.15c-2.21,0-3.2-.77-4.08-3.09l.48-.34A5.1,5.1,0,0,0,219.62,7a14.38,14.38,0,0,0,2.49-.28,16.75,16.75,0,0,0,.46-2.89,1,1,0,0,0-.63-1.11,5.2,5.2,0,0,0-1.3-.48Zm10.23,4.9a7.75,7.75,0,0,1,4.08.2c1.76.62,2.75,1.78,2.75,3.06,0,.71-.28,1.19-.93,1.19s-1.36-.59-2.67-.54a4.19,4.19,0,0,0-2.49,1.08,3.49,3.49,0,0,0-.57,2.61c.06.82.37,2.49.57,4.17a12.75,12.75,0,0,1,4.2,1.78c1.47.91,2.26,1.82,2.26,2.7,0,.7-.39,1.1-.9,1.1s-1-.59-1.73-1.25a11.7,11.7,0,0,0-3.6-2.38c0,.4,0,.77,0,1.11,0,2.38-1.78,3.74-4.79,3.74s-4.65-1.47-4.65-3.26c0-2.18,2.27-3.91,6.13-3.91.39,0,.79,0,1.16.05-.06-1.16-.17-2.32-.17-3.34a4.85,4.85,0,0,1,1.3-3.69,9.59,9.59,0,0,1,3.23-1.95c.46-.29.34-.63-.08-.94a5.52,5.52,0,0,0-3.15-.91Zm-1,13.1a13.64,13.64,0,0,0-2.47-.23c-2.52,0-3.77,1.08-3.77,2s.88,1.73,2.92,1.73c2.56,0,3.32-1.22,3.32-2.89Z"/><path d="M253.21,1.11a1,1,0,0,1-1.11.56,39.88,39.88,0,0,1-3.4,7l1.73.66a1.05,1.05,0,0,1-.85.54V25.46a2.62,2.62,0,0,1-1.87.74h-.43V10.8a26.65,26.65,0,0,1-3.54,4l-.4-.26A45.45,45.45,0,0,0,249.81,0Zm14.09,21s1.82,1.39,2.89,2.39c-.08.31-.37.45-.79.45H250.86l-.23-.82h8V15.45h-6.32l-.23-.82h6.55V7.4h-7.11l-.23-.82h13.92l1.5-1.9S268.46,6,269.48,7c-.08.31-.34.45-.73.45h-7.69v7.23h3.8l1.45-1.82s1.61,1.25,2.61,2.19c-.06.31-.34.45-.74.45h-7.12v8.68h4.68ZM256.36.31c7.68,1.56,6.43,6.55,4,5.19a14,14,0,0,0-4.23-5Z"/><path d="M298,12s1.87,1.08,3,1.85a.58.58,0,0,1-.62.53L288.07,16v6.69c0,.65.22.85,1.7.85h3.94c1.7,0,3,0,3.6-.09s.62-.14.79-.45a28.25,28.25,0,0,0,1.16-4.2h.34l.09,4.37c.82.28,1,.54,1,1,0,1.08-1.16,1.48-7.12,1.48h-4.08c-2.92,0-3.71-.49-3.71-2.47V16.33l-10.1,1.39-.34-.77,10.44-1.41V10.8c-2.44.48-5,.88-7.43,1.14l-.14-.49a60,60,0,0,0,15.19-5.07L296,8.5c-.26.23-.77.26-1.54,0a61,61,0,0,1-6.37,1.82v4.9l8.7-1.19ZM279.45,5A4.44,4.44,0,0,1,277.86,9c-.77.57-1.93.59-2.3-.2A1.44,1.44,0,0,1,276.33,7a4.94,4.94,0,0,0,2.18-4.51H279a8.62,8.62,0,0,1,.4,1.68h7.77V0l3.35.31c-.06.4-.32.68-1,.8V4.2h8.2L299,2.81l2.44,2.35a1.63,1.63,0,0,1-1.08.31,27,27,0,0,1-3.91,3.4l-.34-.22A30.66,30.66,0,0,0,297.7,5Z"/><path d="M312.07,18.31c1.3-.51,2.69-1.1,4.08-1.7l.14.31c-1.87,1.39-4.59,3.35-8.22,5.59a1.2,1.2,0,0,1-.59.82l-1.25-2.8c.79-.26,2.1-.71,3.65-1.34V9.53h-3.14l-.23-.83h3.37v-8l3.21.34c-.06.4-.29.68-1,.8V8.7h.73l1.25-1.87s1.45,1.36,2.27,2.24c-.06.31-.34.46-.74.46h-3.51Zm19.73,4.37c.82.28,1.08.57,1.08,1,0,1.16-1.31,1.5-7.49,1.5H321.2c-3,0-4-.51-4-2.75V11.31l-3.29,1.22-.54-.68,3.83-1.42V2.32l3.2.37c-.05.34-.31.65-1,.77V9.61l3.43-1.28V.11L326,.45c-.06.4-.28.68-1,.8V7.54l3.43-1.27.23-.09,1.16-1.25,2.38,1.93a1.72,1.72,0,0,1-1.11.45c-.08,7.46-.39,10-1.41,11a3.49,3.49,0,0,1-2.53.91,2.16,2.16,0,0,0-.34-1.53,2.41,2.41,0,0,0-1.39-.68v-.43c.6.06,1.51.12,1.93.12s.6-.06.77-.26c.51-.57.71-3.15.82-9.5l-3.94,1.45V20.21c0,.29-.94.77-1.73.77h-.43V9.21l-3.43,1.28V21.94c0,.85.37,1.17,2,1.17h4.11a35.86,35.86,0,0,0,3.8-.12,1.13,1.13,0,0,0,.85-.42,25,25,0,0,0,1.21-4.17h.34Z"/><path d="M345.52,13.52c-.56,1.53-1.78,4.51-2.06,5.59a7.86,7.86,0,0,0-.46,2.07c0,.88.57,1.81.57,2.52s-.34,1.08-1,1.08a2,2,0,0,1-1.51-1.11,12.33,12.33,0,0,1-1.67-6.49,26.59,26.59,0,0,1,1.33-7.4,16.61,16.61,0,0,0,.68-3.46,4.56,4.56,0,0,0-1.56-3.06l.43-.37a5.7,5.7,0,0,1,1.64.88C342.6,4.28,344,5.67,344,7c0,.68-.4,1.22-1.11,2.8a17,17,0,0,0-1.87,7,4.58,4.58,0,0,0,.37,2.24c.2.37.39.42.65,0,.65-1,2.21-4.31,2.89-5.73Zm2.81,2.38a10.92,10.92,0,0,0,.79,2.36c1,1.76,2.44,2.69,6,2.69a26.49,26.49,0,0,0,4.76-.51c.88,0,1.79.34,1.79,1.08,0,1.33-2.7,1.67-5.87,1.67-4.71,0-7.06-1.7-7.77-4.71a9.61,9.61,0,0,1-.28-2.49Zm.29-8.64a13.19,13.19,0,0,1,6.91-2,9,9,0,0,1,4,.66,1.35,1.35,0,0,1,.94,1.16c0,.45-.26.74-.88.82a10.92,10.92,0,0,0-2.52.54,44.29,44.29,0,0,0-4.65,2.5l-.46-.52c1.25-.93,3.12-2.32,3.66-2.83C355.93,7.23,356,7,354,7a17.41,17.41,0,0,0-5.19.88Z"/><path d="M381.77,8a5,5,0,0,1,2.47,1.17,1.05,1.05,0,0,1,.28,1c4.34.51,6.84,3.62,6.84,6.88,0,5.53-5.65,8-13.24,8.11l-.12-.59c7.06-1.05,11.06-3.83,11.06-8.08a5.43,5.43,0,0,0-4.88-5.45,26.93,26.93,0,0,1-5.24,7.6,5.53,5.53,0,0,1,.65,2c0,.65-.42.9-1,.9s-1-.51-1.36-1.27A9.79,9.79,0,0,1,371.37,23c-1.33,0-2.1-.76-2.1-2.29,0-3.75,3.6-7.15,7.06-8.9.11-1.28.31-2.64.51-3.92a19.07,19.07,0,0,1-2.61.17c-2,0-3-.76-4.05-2.72l.42-.4a5.58,5.58,0,0,0,3.92,1.42,18.33,18.33,0,0,0,2.58-.17,25.53,25.53,0,0,0,.31-2.66c0-.51-.12-.66-.54-.8a9.14,9.14,0,0,0-1.65-.37l0-.53a6.13,6.13,0,0,1,1.59-.37c1.65,0,3.23,1,3.23,1.56s-.59.79-.82,1.81c-.08.31-.17.65-.28,1,3.71-.79,5.64-2.07,6.12-2.07,1.11,0,1.73.37,1.73,1,0,.43-.23.71-.79.94a37.12,37.12,0,0,1-7.46,1.93c-.23,1.1-.42,2.29-.57,3.43a16,16,0,0,1,4.85-.91c.06-.68-.37-1.08-1.36-1.67Zm-5.1,10.63a21.61,21.61,0,0,1-.48-4.53c0-.34,0-.68,0-1-3.15,2-5.13,4.9-5.13,6.8,0,.74.25,1,.9,1C373.33,20.89,375.14,19.9,376.67,18.65Zm1.65-1.53A23.89,23.89,0,0,0,382.57,11a12,12,0,0,0-4.71,1.16c0,.54-.06,1-.06,1.48A11.06,11.06,0,0,0,378.32,17.12Z"/><path d="M403.39,2.83c.39.86.87,1.71,1.61,1.71a32.52,32.52,0,0,0,5.84-1.28c.77-.23.82-.57,1.28-.57,1,0,2.75,1.36,2.75,2.27,0,.6-.77.68-1.73,1.5a85.23,85.23,0,0,0-6.49,6c-.23.22-.09.45.17.34a13.88,13.88,0,0,1,4.84-1c3.72,0,6.87,2.41,6.81,6.44-.06,3.6-3.29,6.57-8.79,6.57-3.2,0-5.47-1.33-5.47-3.48,0-1.62,1.44-2.81,3.37-2.81a4.72,4.72,0,0,1,4.71,4,5.18,5.18,0,0,0,4-4.94c.09-2.49-1.75-4.79-5.18-4.79-4,0-6.84,2.61-9.22,5.7-.51.63-.76.82-1.25.79s-.93-.53-.87-1.33c0-.59.34-1.05,1.07-1.78,4-4.09,9.33-9.19,10.61-11.12.31-.45.11-.62-.26-.54a27.44,27.44,0,0,0-4.37,1.62c-.53.26-1,.68-1.47.68a3.07,3.07,0,0,1-2.52-2.3,4.13,4.13,0,0,1,0-1.67Zm6.94,20.11c-.37-2.1-1.67-3.27-3.26-3.27-1.05,0-1.78.57-1.78,1.48S406.53,23,409.11,23C409.54,23,409.93,23,410.33,22.94Z"/><path d="M433,1.16a1,1,0,0,1-1.08.54A35.06,35.06,0,0,1,428.63,6c2.18,1.7.85,3.86-.65,2.81a8.84,8.84,0,0,0-2.44-3.86l.31-.2a9.12,9.12,0,0,1,2.16.83C428.6,4,429.28,1.93,429.82,0ZM425.6,23.7a31.68,31.68,0,0,0,1.58-7.45l2.84.62a1,1,0,0,1-1,.62,18.2,18.2,0,0,1-3,6.44Zm6.66-10.55V25.52a2,2,0,0,1-1.76.68h-.37V13.64l-2.83.62a1.08,1.08,0,0,1-.74.6l-.91-2.39c.66,0,1.65-.05,2.84-.08a97.73,97.73,0,0,0,4.62-9l3.06,1.19a1.07,1.07,0,0,1-1.16.49,69.8,69.8,0,0,1-5.61,7.28c1.3-.05,2.77-.14,4.31-.22a18.22,18.22,0,0,0-1.22-2.19l.34-.17c5.5,2.64,3.46,6.55,1.61,4.85a6.35,6.35,0,0,0-.48-1.84Zm1.16,2.53c4.74,2.63,2.64,6.18,1,4.53a11.47,11.47,0,0,0-1.34-4.39Zm18.37-2.24c-.11.23-.48.45-1.05.25a36.12,36.12,0,0,1-4.14,3.21,13.56,13.56,0,0,0,5.62,5l0,.31a2.74,2.74,0,0,0-1.9,2.1c-3.06-2.52-5-5.58-6-11.59v10.4c0,1.62-.34,2.7-3,3a2.46,2.46,0,0,0-.42-1.5,3.3,3.3,0,0,0-2-.77v-.42s2.18.17,2.69.17.56-.15.56-.51V17.83c-1.21,1.28-2.94,3.18-5.21,5.39a1,1,0,0,1-.37.88l-2-2.1c1.3-.71,4.42-2.69,7.56-4.73V10.66h-6.49l-.22-.85H446V6.58h-8l-.26-.83H446V2.67h-8.5l-.23-.86h8.42L447,.4l2.72,2.09a2.83,2.83,0,0,1-1.48.68V9.81h.29l1.27-2a30.08,30.08,0,0,1,2.33,2.36c-.06.31-.34.45-.71.45h-7a18,18,0,0,0,1.95,5.73,35.77,35.77,0,0,0,2.75-4.68Zm-14.85-1.16c5.64,2.21,3.71,6.15,1.87,4.56a9.77,9.77,0,0,0-2.21-4.37Z"/><path d="M480.53,22.85s1.64,1.28,2.63,2.18c-.05.29-.34.43-.73.43H457.62l-.23-.79H467a2,2,0,0,1-.74-.37,7.05,7.05,0,0,0-1.53-3.69l.31-.17c4.31,1.25,3.83,3.91,2.47,4.23h4.28a34.19,34.19,0,0,0,1.56-4.31l3.23,1a1,1,0,0,1-1.08.54,23.94,23.94,0,0,1-3,2.81h6.63Zm-22.29-9.47-.25-.82h20.67l1.41-1.73s1.56,1.19,2.58,2.1c-.08.31-.36.45-.76.45Zm4.8-2.24c0,.2-.94.68-1.82.68h-.31V1.9l2.3,1h3.25V0l3,.31c-.05.37-.31.62-.9.74V2.86h3.37V0l3,.31c-.06.37-.32.65-.94.74V2.86h3.32l1.1-1.22,2.47,1.88a2.12,2.12,0,0,1-1.16.59v6.66a3.14,3.14,0,0,1-1.82.63h-.34v-.77H463Zm13.32,9.7V20.1H464.08v.6c0,.14-.68.56-1.78.56H462V14.4l2.46,1h11.85l1.05-1.25,2.27,1.73a1.35,1.35,0,0,1-1,.46V20.3a2.75,2.75,0,0,1-1.87.54ZM463,3.71V6.32h3.42V3.71Zm3.42,3.43H463V9.81h3.42Zm9.9,12.17V16.25H464.08v3.06Zm-7.85-15.6V6.32h3.37V3.71Zm0,6.1h3.37V7.14h-3.37ZM474,3.71V6.32h3.57V3.71Zm3.57,6.1V7.14H474V9.81Z"/><path d="M495.76,2.55a4.93,4.93,0,0,1,2.07-.45c1.19,0,3.46,1,3.46,1.78s-.65,1-1,1.82c-.26.65-.65,1.61-1.13,2.75a15.92,15.92,0,0,1,2.24-.23c2.15,0,3.45,1.22,3.45,4.68s-1,7.48-2.77,9.67a4.57,4.57,0,0,1-3.52,1.73c-1,0-1.22-.4-1.59-1.39-.17-.49-.4-.8-1.9-2.19l.29-.42a9.78,9.78,0,0,0,3.4,1.56,2.35,2.35,0,0,0,2.15-1.33c1.05-1.51,2-5.14,2-8.25,0-1.9-.48-2.78-2-2.78a12.1,12.1,0,0,0-2.44.39c-.79,1.9-1.73,4.06-2.58,5.84a80.91,80.91,0,0,1-4.17,7.86c-.48.79-.85,1-1.36,1a1.15,1.15,0,0,1-1-1.28,2,2,0,0,1,.51-1.44,43,43,0,0,0,4.4-7c.65-1.3,1.33-2.83,1.95-4.34-1,.35-1.84.68-2.41.91a6.35,6.35,0,0,1-2.29.8c-.77,0-1.9-1.2-2.13-2.19a3.65,3.65,0,0,1,.14-1.73l.51-.08c.37.82.63,1.64,1.42,1.64A47.41,47.41,0,0,0,497,8.84a21.69,21.69,0,0,0,1.39-4.47.79.79,0,0,0-.45-.8,7.86,7.86,0,0,0-2.16-.48Zm11,5.64a7.82,7.82,0,0,1,5,2.27,7.57,7.57,0,0,1,1.93,5.33c0,1.3-.45,2.33-1.42,2.33s-.82-.83-1.67-1a15.47,15.47,0,0,0-3.29,0l-.14-.63a31.1,31.1,0,0,0,3.4-.85c.6-.22.74-.51.71-1.25a6.35,6.35,0,0,0-1.1-3.23,5.58,5.58,0,0,0-3.66-2.29Z"/><path d="M525.18,1.79a5.46,5.46,0,0,1,1.87-.4,4.33,4.33,0,0,1,2.21.54c.51.34.34,1-.65,4.25,2.55-.82,3.15-1.45,3.63-1.45a1.07,1.07,0,0,1,1.16,1c0,.54-.57.9-.93,1.13A17.8,17.8,0,0,1,528,8.36a53.57,53.57,0,0,1-5.19,11.49c-.51.73-.91,1.27-1.5,1.27s-1-.68-1-1.33a2.26,2.26,0,0,1,.54-1.5,32,32,0,0,0,5.3-9.62,18.26,18.26,0,0,1-2.16.15c-2.21,0-3.2-.77-4.08-3.09l.48-.34A5.1,5.1,0,0,0,524.16,7a14.38,14.38,0,0,0,2.49-.28,16.75,16.75,0,0,0,.46-2.89,1,1,0,0,0-.63-1.11,5.2,5.2,0,0,0-1.3-.48Zm10.24,4.9a7.76,7.76,0,0,1,4.08.2c1.76.62,2.75,1.78,2.75,3.06,0,.71-.29,1.19-.94,1.19s-1.36-.59-2.66-.54a4.19,4.19,0,0,0-2.5,1.08,3.49,3.49,0,0,0-.57,2.61c.06.82.37,2.49.57,4.17a12.75,12.75,0,0,1,4.2,1.78c1.47.91,2.27,1.82,2.27,2.7,0,.7-.4,1.1-.91,1.1s-1-.59-1.73-1.25a11.47,11.47,0,0,0-3.6-2.38c0,.4.06.77.06,1.11,0,2.38-1.79,3.74-4.8,3.74S527,23.79,527,22c0-2.18,2.26-3.91,6.12-3.91.4,0,.79,0,1.16.05-.06-1.16-.17-2.32-.17-3.34a4.85,4.85,0,0,1,1.31-3.69,9.4,9.4,0,0,1,3.23-1.95c.45-.29.34-.63-.09-.94a5.49,5.49,0,0,0-3.14-.91Zm-1,13.1a13.53,13.53,0,0,0-2.46-.23c-2.53,0-3.77,1.08-3.77,2s.88,1.73,2.92,1.73c2.55,0,3.31-1.22,3.31-2.89Z"/><path d="M558.52,14.94c-1.78,1.28-4.39,3.2-7.91,5.44a1.1,1.1,0,0,1-.56.8l-1.36-2.75c.73-.26,2-.74,3.63-1.36V8.56h-3l-.23-.79h3.27V.4l3.26.34c-.06.39-.32.68-1,.76V7.77h.4l1.25-1.93s1.45,1.36,2.24,2.3a.68.68,0,0,1-.71.42h-3.18v7.6c1.22-.48,2.53-1,3.83-1.59Zm5.11-1.87a17.84,17.84,0,0,1-1.45,2.27h9.39l1.22-1.22,2.32,1.93a1.87,1.87,0,0,1-1.13.45c-.37,5-1.22,7.82-2.5,8.82a4.79,4.79,0,0,1-2.92.88,2,2,0,0,0-.45-1.51,4.58,4.58,0,0,0-2.1-.76v-.48c.93.08,2.52.19,3.06.19a1.46,1.46,0,0,0,1-.25c.71-.6,1.39-3.09,1.73-7.2H570a17.25,17.25,0,0,1-9.33,10l-.26-.43a17.81,17.81,0,0,0,7.2-9.52h-1.89a20.54,20.54,0,0,1-9.59,8.48l-.31-.46a20.67,20.67,0,0,0,7.63-8h-2A19.67,19.67,0,0,1,555,20.78l-.28-.4A18.34,18.34,0,0,0,561,13.07h-4.14l-.23-.82h14.6l1.45-1.82s1.64,1.25,2.66,2.19c-.08.31-.36.45-.73.45ZM562,10.52c0,.23-1,.68-1.84.68h-.34V.54l2.32,1h7.23L570.57.25l2.53,2a2.2,2.2,0,0,1-1.19.54v7.34a2.68,2.68,0,0,1-1.88.8h-.36V9.7H562Zm0-8.14V5.19h7.66V2.38Zm7.66,6.49V6H562V8.87Z"/><path d="M584.3,15c-.23,3.71-1,8-4.17,11.28l-.37-.31c2.21-4.14,2.35-9.24,2.35-13.66V6.09l2.64,1.17h4.42L590.33,6l2.47,1.9a2.12,2.12,0,0,1-1.16.57v7.59a3.17,3.17,0,0,1-1.84.63h-.34V15ZM580.53,3.32l-.2-.8h9.49L591.27.65s1.59,1.31,2.61,2.21a.73.73,0,0,1-.77.46Zm3.82,4.79v4.14c0,.59,0,1.22,0,1.87h5.14v-6Zm19.57-.37s1.61,1.25,2.57,2.18c-.08.31-.36.46-.76.46h-2.86V25.52a2.32,2.32,0,0,1-1.9.7h-.4V10.38h-4v0c0,5.13-.71,11.57-7.2,15.74l-.37-.34c4.59-4.48,5.36-10,5.36-15.43V2.69l2.27.71A35.62,35.62,0,0,0,603.09.14l2.81,2.3c-.26.28-.79.28-1.56.05a60.46,60.46,0,0,1-7.74,1.73V9.55h5.95Z"/><path d="M612.31,6a2.59,2.59,0,0,0,1.82,1.42c1.56,0,6.63-1.48,11.39-2.58a41.27,41.27,0,0,1,6.55-1.25A5.21,5.21,0,0,1,634.2,4c.65.28,1,.65,1,1.16s-.4.88-1.1.88S632.61,6,631.62,6a9,9,0,0,0-4.71,1.11c-1.19.74-3.88,3.29-3.88,8.7,0,3.15,1.3,4.37,2.41,5,1.79,1,4.22.88,5.27.88.77,0,1.79.62,1.79,1.42s-.94,1.13-2.24,1.13c-1.79,0-4.4-.17-6.3-1.53s-2.83-3.06-2.83-6.38a11.87,11.87,0,0,1,4.48-9.67c.2-.14.17-.31-.14-.25a50.6,50.6,0,0,0-8.9,3,4.6,4.6,0,0,1-1.82.79,3.72,3.72,0,0,1-2.89-2.52,5.61,5.61,0,0,1,0-1.42ZM629.86,9.7a11,11,0,0,1,3.4,1.89,2.22,2.22,0,0,1,.91,1.65.77.77,0,0,1-.79.85c-.43,0-.74-.59-1.31-1.3a12.44,12.44,0,0,0-2.58-2.61Zm2.5-1.88a11.05,11.05,0,0,1,3.37,1.59,2.21,2.21,0,0,1,1,1.76c0,.51-.25.79-.74.79s-.79-.59-1.36-1.3A13.64,13.64,0,0,0,632,8.31Z"/><path d="M652.77,2.35a4.64,4.64,0,0,1,2.13-.71c1.27,0,3.12.66,3.12,1.42s-.46,1.16-.48,1.9c0,.34-.06.85-.06,1.48,4.85-.52,6.26-.8,6.83-.8,1.14,0,2.72.6,2.72,1.65,0,.62-.34.82-1,.82a35.14,35.14,0,0,0-8.62-.23c0,1.36,0,2.92,0,4.34a5.57,5.57,0,0,1,1.19,3.85c0,5.39-4.17,8.54-9.84,9.76l-.34-.66c3.46-1.27,6.3-3.23,7.37-6-2.8,1.17-5-1.1-5-4a3.9,3.9,0,0,1,3.83-4.11,5.12,5.12,0,0,1,1.16.14c0-.82-.06-2-.14-3.2a53.62,53.62,0,0,0-7.26,1.36c-1.31.34-1.84.82-2.67.82A3.83,3.83,0,0,1,643,8a5.29,5.29,0,0,1-.25-1.78l.51-.2c.73,1,1.24,1.78,2.21,1.78s6.8-.76,10.12-1.16c-.06-1-.14-1.95-.2-2.63s-.2-.71-.65-.86a8.87,8.87,0,0,0-1.9-.28Zm3.6,12.73c0-1.73-.79-2.72-2-2.72a2.44,2.44,0,0,0-2.3,2.67,2.37,2.37,0,0,0,2.27,2.6C655.72,17.63,656.37,16.92,656.37,15.08Z"/><path d="M673.3,22.23a4,4,0,1,1,4,4A4,4,0,0,1,673.3,22.23Zm1,0a3,3,0,1,0,3-3A3.05,3.05,0,0,0,674.27,22.23Z"/><path d="M56.16,61.33c-.17.26-.45.37-1.08.2A31.09,31.09,0,0,1,49,65a19.76,19.76,0,0,0,8.31,6.87l-.09.25A2.74,2.74,0,0,0,55,74c-5-3.11-8.14-8.08-9.41-15.56H45.1a19.43,19.43,0,0,1-3.2,2.27c5.58,4.28,5.75,11.85,3.66,14.26-.63.68-1.73,1-3.46,1a1.89,1.89,0,0,0-.6-1.45,6.62,6.62,0,0,0-2.41-.79l0-.45c1.17.11,3.18.22,3.83.22.4,0,.65,0,.82-.28.68-.82,1-2.69.77-4.85A37.18,37.18,0,0,1,31.24,74.2l-.2-.45c4.85-1.59,10-4.74,12.87-8.14-.17-.48-.34-.93-.54-1.42a38.68,38.68,0,0,1-11.17,5l-.2-.45a31.48,31.48,0,0,0,10.24-6.67A13.23,13.23,0,0,0,41.36,61a39,39,0,0,1-8.82,3.37l-.22-.45a32.57,32.57,0,0,0,9.44-5.5H35.49l-.23-.79H49.55L51,55.83l1.19,1a28.17,28.17,0,0,0,1.28-2.58H35.35A4.58,4.58,0,0,1,33.76,58c-.79.53-1.93.53-2.27-.2a1.49,1.49,0,0,1,.8-1.82,5.05,5.05,0,0,0,2.18-4.36h.45a11.07,11.07,0,0,1,.4,1.75H43V49.82l3.35.31c-.06.4-.31.68-1,.77v2.46h8.11L54.77,52l2.38,2.3c-.23.22-.51.25-1.08.28a18.3,18.3,0,0,1-3.48,2.52l1,.86c-.06.28-.37.42-.77.42H46.09a20.72,20.72,0,0,0,2.56,6,31.21,31.21,0,0,0,4.7-5Z"/><path d="M74.37,61.1a1.91,1.91,0,0,1-1.16.46c-.22,8-.82,11.59-2,12.81a4.16,4.16,0,0,1-2.89,1,2.07,2.07,0,0,0-.4-1.5,4.77,4.77,0,0,0-2-.74l0-.48c.82.09,2.21.2,2.78.2a1.22,1.22,0,0,0,.91-.31c.76-.71,1.25-4.31,1.44-11.29H68.25c-.34,5.48-1.42,10.61-5.47,14.6l-.45-.45C66.1,69.89,66,62.86,66.1,56.2H62.92l-.23-.82h4.74V50l3.2.28c0,.37-.28.63-.93.74v4.34h1.56l1.41-1.93s1.53,1.3,2.53,2.21a26.09,26.09,0,0,0,2-5.84l3.26,1a1,1,0,0,1-1,.57,21.25,21.25,0,0,1-1.59,3.12h7l1.45-1.93S88,53.93,89,54.89c-.09.32-.4.43-.77.43H77.35a15.71,15.71,0,0,1-3.94,4L73,59.09a16.8,16.8,0,0,0,1.9-3,.87.87,0,0,1-.42.09H68.45c0,1.42-.06,2.83-.14,4.25h2.55L72,59.18Zm8.11,5.16c.63,3,2.53,5.76,7,7.35L89.4,74a2.1,2.1,0,0,0-1.9,2c-3.85-2-5.07-6.12-5.56-9.67-.7,4.31-2.83,7.43-9.58,9.64L72,75.45c5.39-2.35,7.09-5.33,7.63-9.19H74l-.23-.85h6c.14-1.39.17-2.92.2-4.53H78a13.36,13.36,0,0,1-3.57,3.68l-.34-.28a20,20,0,0,0,3.46-8.11l3.15,1a1,1,0,0,1-1,.54A19.07,19.07,0,0,1,78.51,60h6.07L86,58.21s1.59,1.28,2.55,2.21c-.08.32-.34.46-.74.46H82.31a44.64,44.64,0,0,1-.25,4.53h3.17l1.39-1.81s1.62,1.27,2.58,2.21c-.08.31-.37.45-.76.45Z"/><path d="M105.91,73.24c7-1.36,10.17-5,10.17-10.12a8,8,0,0,0-8.3-8.34c-.34,0-.68,0-1,.06A5.32,5.32,0,0,1,108.15,58a14.48,14.48,0,0,1-.91,4.71c-1.19,3.46-4.45,8.87-7.51,8.87-2,0-4-3.14-4-6.72a11,11,0,0,1,3.91-8.08,12.38,12.38,0,0,1,8.37-3c6,0,10.57,4,10.57,9.92,0,4.88-3.2,9.64-12.53,10.18ZM105.62,55a10.6,10.6,0,0,0-5.24,2.86,9.07,9.07,0,0,0-2.81,6.41c0,2.58,1.16,4.65,2.33,4.65,1.78,0,4.36-4.31,5.47-6.78a13.42,13.42,0,0,0,1.08-4.59A4.56,4.56,0,0,0,105.62,55Z"/><path d="M125,73.49A29.64,29.64,0,0,0,126.78,66l2.86.62c-.09.34-.4.6-1,.63a18.18,18.18,0,0,1-3.21,6.49Zm7.6-22.59a1,1,0,0,1-1.05.51,33.57,33.57,0,0,1-3.35,4.25c2.36,1.73,1.05,4-.48,2.92a8.59,8.59,0,0,0-2.63-3.91l.31-.2a10.48,10.48,0,0,1,2.18.79c.62-1.5,1.33-3.6,1.93-5.5Zm.08,8.59c5.67,2.58,3.72,6.49,1.82,4.85a7.17,7.17,0,0,0-.54-1.82c-.57.11-1.22.28-2,.43v12.3a2.07,2.07,0,0,1-1.75.68h-.37V63.4c-.94.2-2,.4-3.09.62a1,1,0,0,1-.71.6l-.91-2.41c.68,0,1.7,0,2.92-.06,1.7-2.83,3.66-6.55,4.91-9.27l3,1.19c-.11.31-.51.54-1.13.46A73.43,73.43,0,0,1,129,62.12c1.42,0,3.06-.14,4.73-.22a16.58,16.58,0,0,0-1.36-2.24Zm.6,6.29c5,3.38,2.92,7.17,1.13,5.44a14.94,14.94,0,0,0-1.5-5.3Zm2.15-6.66a28.67,28.67,0,0,0,3.18-7.23l2.92,1a1,1,0,0,1-1.08.51,20.08,20.08,0,0,1-4.62,6Zm13.67,5.05s1.64,1.27,2.61,2.21c-.09.28-.37.42-.77.42h-6.6V75c0,.31-1,.87-1.85.87h-.42V66.8h-6l-.23-.79h6.24v-5.1H137l-.19-.8h5.3v-10l3.17.31c0,.39-.25.65-.9.73v9h2.43l1.34-1.73s1.56,1.22,2.49,2.1c-.06.31-.34.43-.76.43h-5.5V66h3.37ZM146.17,52c6.72,3,5,7.49,2.86,5.87a15.29,15.29,0,0,0-3.2-5.67Z"/><path d="M163.51,52.49a4.92,4.92,0,0,1,2.07-.46c1.19,0,3.46,1,3.46,1.79s-.66,1-1,1.81-.65,1.62-1.13,2.75a17.78,17.78,0,0,1,2.24-.22c2.15,0,3.46,1.21,3.46,4.67s-1,7.49-2.78,9.67a4.57,4.57,0,0,1-3.52,1.73c-1,0-1.21-.4-1.58-1.39-.17-.48-.4-.79-1.9-2.18l.28-.43a9.78,9.78,0,0,0,3.4,1.56,2.36,2.36,0,0,0,2.16-1.33c1.05-1.5,2-5.13,2-8.25,0-1.9-.48-2.78-2-2.78a11.34,11.34,0,0,0-2.44.4c-.8,1.9-1.73,4.05-2.58,5.84a86.55,86.55,0,0,1-4.17,7.85c-.48.8-.85,1-1.36,1a1.15,1.15,0,0,1-1-1.27,2,2,0,0,1,.51-1.45,43.32,43.32,0,0,0,4.39-7c.65-1.31,1.33-2.84,2-4.34-1,.34-1.85.68-2.41.91a6.32,6.32,0,0,1-2.3.79c-.76,0-1.9-1.19-2.13-2.18a3.66,3.66,0,0,1,.15-1.73l.51-.09c.37.82.62,1.65,1.41,1.65a50.26,50.26,0,0,0,5.45-1.08,21.71,21.71,0,0,0,1.39-4.48.78.78,0,0,0-.46-.79,8,8,0,0,0-2.15-.49Zm11,5.64a7.77,7.77,0,0,1,5,2.26,7.57,7.57,0,0,1,1.93,5.33c0,1.31-.46,2.33-1.42,2.33s-.82-.82-1.67-1a16.1,16.1,0,0,0-3.29,0l-.14-.62c1.1-.26,2.66-.57,3.4-.85.59-.23.73-.51.71-1.25a6.36,6.36,0,0,0-1.11-3.23,5.53,5.53,0,0,0-3.66-2.3Zm1.19-4.82a10,10,0,0,1,3.4,1.84,2.23,2.23,0,0,1,.94,1.64.77.77,0,0,1-.77.85c-.45,0-.79-.59-1.33-1.27a13.22,13.22,0,0,0-2.58-2.61Zm2.58-1.87A10.2,10.2,0,0,1,181.68,53a2.26,2.26,0,0,1,1,1.76.71.71,0,0,1-.77.8c-.45,0-.76-.63-1.36-1.31A13.28,13.28,0,0,0,178,51.89Z"/><path d="M211.23,73c.68.26.85.51.85,1,0,1-.94,1.39-5.53,1.39h-3.09c-2.41,0-2.92-.46-2.92-2.1v-7h-2.92c-.8,5.72-4,8.39-11.43,9.63l-.11-.42c6.09-1.82,8.45-4.37,9-9.21h-2v.93c0,.26-.91.79-1.87.79h-.37V50.42l2.44,1.07h11.6l1.19-1.33,2.58,2a2.32,2.32,0,0,1-1.22.54V66.94a3,3,0,0,1-1.9.74h-.37V66.24h-2.38v6.49c0,.42.11.51,1.1.51h2.78c1.19,0,2.16,0,2.52,0s.49-.11.6-.4a24.2,24.2,0,0,0,1-3.82h.37ZM193.08,52.34V56h12.08V52.34Zm12.08,4.54H193.08v3.83h12.08Zm-12.08,8.5h12.08V61.5H193.08Z"/><path d="M228.94,57.42c.06-.88.08-1.93.14-3.06H217.54l-.22-.85h11.79c0-1.28.09-2.58.09-3.75l3.34.29c-.06.42-.4.71-1,.82l-.23,2.64h6.49l1.65-2s1.81,1.36,3,2.38c-.08.31-.39.46-.79.46H231.26c-.08,1.1-.19,2.18-.28,3.06h4.74l1.19-1.31,2.52,2a2.41,2.41,0,0,1-1.16.54v12a3.1,3.1,0,0,1-1.93.77H236V70h-8.9v.76c0,.26-.91.8-1.87.8h-.34V56.37l2.38,1.05Zm11.2,13.8s1.84,1.37,3,2.39c-.09.31-.37.45-.77.45H221.26v1.08c0,.28-1,.76-1.79.76H219V57.84l3.29.32c-.06.39-.32.7-1.05.79V73.21h17.29Zm-13-13v3H236v-3Zm0,6.95H236V62.1h-8.9Zm8.9,4V66h-8.9v3.2Z"/><path d="M254.56,52.57a5.89,5.89,0,0,1,2.61-.85c1.22,0,2.38.4,2.52,1a24.94,24.94,0,0,0,1.45,4,21.87,21.87,0,0,0,4.68-2.58,1.93,1.93,0,0,1,1.78.29,1,1,0,0,1-.28,1.33,20.06,20.06,0,0,1-5.24,2.72A30.24,30.24,0,0,0,267,64.34c.68.65.91,1,.94,1.5,0,.85-.43,2.07-1.17,2.07s-1.13-.46-1.95-1a13.42,13.42,0,0,0-6.92-2c-3.12,0-5.44,1.7-5.44,4,0,2.07,2.35,3.51,6.66,3.51,2.1,0,3.12-.31,4.14-.31s1.73.37,1.73,1.13-1.39,1.48-5.11,1.48c-4.93,0-9.1-1.67-9.1-5.44,0-3.09,3.32-5.45,7.71-5.45a20.94,20.94,0,0,1,6,.91c.32.06.37,0,.15-.23a49.83,49.83,0,0,1-4.2-5.64,25.91,25.91,0,0,1-6,1.08c-2.95,0-4-1-5.44-3.43l.48-.43c1.76,1.42,2.66,2,4.82,2a21.46,21.46,0,0,0,5.16-.88,37.37,37.37,0,0,0-1.87-3.37c-.48-.74-1.31-.74-2.92-.77Z"/><path d="M301.47,69c-1.19,1.87-3.32,3.82-6,3.82-2.07,0-3.46-1.24-3.46-3.88,0-3.23,1.16-6.44,1.16-9.5,0-1.79-.48-2.72-1.87-2.72-2.44,0-5.64,2.49-8.34,5.58v0a55.56,55.56,0,0,0,.23,8.17,21,21,0,0,1,.2,2.15c0,1.16-.54,2.5-1.39,2.5-.65,0-1-.37-1.08-1a8.61,8.61,0,0,0-.54-2,19.33,19.33,0,0,0-1.87-3.31L277,71.05c-.4.57-.71,1-1.22,1s-.88-.45-.88-1.16a2.16,2.16,0,0,1,.68-1.61,66.31,66.31,0,0,0,6.1-7.89c.06-.7.14-1.41.2-2.09-.91.48-1.82,1-2.41,1.39s-.88,1-1.39,1a3.44,3.44,0,0,1-2.58-2.18,4.77,4.77,0,0,1-.09-1.36l.49-.14c.45.82.87,1.3,1.41,1.3.77,0,3.49-1.27,4.79-2,.23-1.73.4-3.18.43-3.94s-.11-.77-.62-1a9,9,0,0,0-1.59-.48l0-.57a5.86,5.86,0,0,1,1.87-.36c1.31,0,2.89,1.39,2.89,2.26,0,.6-.34.91-.68,2-.14.4-.34,1.08-.54,1.87.49.34,1,.88,1,1.16s-.28.6-.65,1c-.2.23-.37.45-.56.71,2.43-2.21,5.61-4.56,8.36-4.56,2.21,0,3.4,1.3,3.4,4,0,2.36-1.19,6-1.19,9,0,1.5.6,2.13,1.93,2.13A7,7,0,0,0,301,68.53Zm-20-4.51c-.76,1.19-1.64,2.49-2.52,3.71.76,1,1.67,2.07,2,2.52.31.29.48.26.48-.22C281.54,69.21,281.45,66.86,281.51,64.48Z"/><path d="M304.65,55.69a2.57,2.57,0,0,0,1.82,1.42c1.55,0,6.63-1.48,11.39-2.58a41.27,41.27,0,0,1,6.55-1.25,5.21,5.21,0,0,1,2.13.37c.65.28,1,.65,1,1.16s-.4.88-1.11.88S325,55.6,324,55.6a9,9,0,0,0-4.71,1.11c-1.19.74-3.88,3.29-3.88,8.7,0,3.15,1.3,4.37,2.41,5,1.78,1,4.22.88,5.27.88.77,0,1.79.62,1.79,1.42s-.94,1.13-2.24,1.13c-1.79,0-4.4-.17-6.3-1.53s-2.83-3.06-2.83-6.38A11.84,11.84,0,0,1,318,56.28c.2-.14.17-.31-.14-.25a51.59,51.59,0,0,0-8.91,3,4.5,4.5,0,0,1-1.81.79,3.7,3.7,0,0,1-2.89-2.52,5.61,5.61,0,0,1,0-1.42Z"/><path d="M337,58.35c0-1.56-.34-2.38-2.21-3.77l.23-.39a7.86,7.86,0,0,1,2,.42c1.14.51,2.69,1.87,2.69,3.09s-1.13,3-1.13,6.13c0,3.26,1.53,5,2.67,5.58a.73.73,0,0,0,1-.23,43.15,43.15,0,0,0,2.75-5.13l.71.31a45.46,45.46,0,0,0-1.62,5.25c-.2,1.39.25,1.47.25,2.18,0,.91-.93,1.42-2.26.88-2.24-1-5.08-3.46-5.25-8.65C336.83,61.93,337,59.83,337,58.35Zm13.24-.85.2-.62a9,9,0,0,1,5.64,2.78A9.55,9.55,0,0,1,358.57,66c0,1.3-.45,1.93-1.36,1.93a1.12,1.12,0,0,1-1.08-1,18.08,18.08,0,0,0-1.44-5.53A8.17,8.17,0,0,0,350.26,57.5Z"/><path d="M370.31,52.57c.39.85.87,1.7,1.61,1.7A33.33,33.33,0,0,0,377.76,53c.77-.23.82-.57,1.28-.57,1,0,2.75,1.36,2.75,2.27,0,.59-.77.68-1.73,1.5a87.23,87.23,0,0,0-6.49,6c-.23.23-.09.45.17.34a14.14,14.14,0,0,1,4.84-1c3.72,0,6.87,2.41,6.81,6.43-.06,3.6-3.29,6.58-8.79,6.58-3.2,0-5.47-1.33-5.47-3.49,0-1.61,1.44-2.8,3.37-2.8a4.71,4.71,0,0,1,4.71,4,5.17,5.17,0,0,0,4-4.93c.09-2.5-1.75-4.79-5.18-4.79-4,0-6.84,2.61-9.22,5.7-.51.62-.76.82-1.25.79s-.93-.54-.87-1.33c0-.6.34-1,1.07-1.79,4-4.08,9.33-9.18,10.61-11.11.31-.46.11-.63-.26-.54a27.44,27.44,0,0,0-4.37,1.62c-.53.25-1,.68-1.47.68a3.07,3.07,0,0,1-2.52-2.3,4.13,4.13,0,0,1,.05-1.67Zm6.94,20.1c-.37-2.1-1.67-3.26-3.26-3.26-1.05,0-1.78.57-1.78,1.47s1.24,1.85,3.82,1.85C376.46,72.73,376.85,72.7,377.25,72.67Z"/><path d="M396.44,65.13c.05,3.74.9,6.41,7.2,6.41,4.73,0,6.8-1.14,7.57-1.14s1.9.46,1.9,1.22-.29.94-1.25,1.28a27,27,0,0,1-7.74.9c-7.54,0-9.55-3.54-8.39-8.64Zm3.57-5.3c1.33-.88,3-2,4-2.72.28-.23.25-.32-.14-.32-3.21,0-5.36-.25-7.15-2.75l.37-.45a8.61,8.61,0,0,0,5.5,1.5c3.46,0,4.14-.62,5.3-.62s2.84.62,2.84,1.42c0,.56-.34.85-1.14,1a19,19,0,0,0-3,.74,64,64,0,0,0-6.21,2.75Z"/><path d="M430.66,73.24c7-1.36,10.18-5,10.18-10.12a8,8,0,0,0-8.31-8.34c-.34,0-.68,0-1,.06A5.32,5.32,0,0,1,432.9,58a14.45,14.45,0,0,1-.9,4.71c-1.2,3.46-4.46,8.87-7.52,8.87-2,0-4-3.14-4-6.72a11,11,0,0,1,3.91-8.08,12.35,12.35,0,0,1,8.36-3c6,0,10.58,4,10.58,9.92,0,4.88-3.21,9.64-12.53,10.18ZM430.38,55a10.59,10.59,0,0,0-5.25,2.86,9.1,9.1,0,0,0-2.8,6.41c0,2.58,1.16,4.65,2.32,4.65,1.79,0,4.37-4.31,5.47-6.78a13.19,13.19,0,0,0,1.08-4.59A4.63,4.63,0,0,0,430.38,55Z"/><path d="M459.55,53.11a2.23,2.23,0,0,1-1.19.57V71.37a2.71,2.71,0,0,1-1.84.73h-.34V70.18h-3.52V72.7c0,.2-.71.74-1.81.74h-.37v-22l2.49,1h2.92l1.16-1.34Zm-6.89.17v7.57h3.52V53.28Zm3.52,16.07V61.64h-3.52v7.71Zm2.77-9.3-.22-.85h6.72V55.09H459.8l-.22-.85h5.87V49.91l3.26.31c0,.39-.32.68-1,.79v3.23h3.23l1.41-1.78s1.59,1.24,2.59,2.18c-.09.31-.37.45-.77.45h-6.46V59.2h4.08l1.42-1.84a33.56,33.56,0,0,1,2.63,2.24c-.05.31-.34.45-.71.45Zm14.66,2.1s1.53,1.22,2.41,2.07c-.06.31-.37.46-.76.46h-4V72.9c0,1.73-.37,2.72-3.4,3a2.1,2.1,0,0,0-.68-1.56,5.08,5.08,0,0,0-2.55-.82V73.1s3.11.19,3.74.19.68-.14.68-.53V64.68h-9.95l-.23-.83H469V60.59l3.15.32c-.06.36-.34.59-.94.7v2.24h1.08Zm-12.5,3.55c6.69,2.15,4.62,6.77,2.38,5a11.11,11.11,0,0,0-2.66-4.82Z"/><path d="M491.72,50.93c-.12.34-.46.59-1.11.56a40.37,40.37,0,0,1-2.83,5.87l1.41.54c-.11.23-.39.4-.9.48V75.19a2.59,2.59,0,0,1-1.82.74H486V60.08a27.36,27.36,0,0,1-4,4.51l-.39-.25a46.91,46.91,0,0,0,6.57-14.58Zm15.62,22.36c.93,1.25,1,1.79.71,2.16-.8,1-2.78.14-4.14-.88-4.42-3.23-6.64-8.45-7.6-14.69l-6.46.74-.32-.79,6.67-.77a63.22,63.22,0,0,1-.57-8.9l3.46.43c-.06.34-.31.68-1,.79a53.75,53.75,0,0,0,.39,7.43l5.25-.6,1.3-2s1.87,1.11,3,1.9c0,.28-.34.48-.68.54l-8.76,1c.79,5.36,2.69,10.06,6.55,12.62.51.42.71.42,1-.12a24.46,24.46,0,0,0,1.48-3.29l.28.06Zm-6.86-22.48c6.49.91,5,5.25,2.78,4a11.14,11.14,0,0,0-3-3.77Z"/><path d="M523.64,57.16A20,20,0,0,0,527,55.75a2.77,2.77,0,0,1,1-.46c.54,0,1.48.31,1.48,1s-.4.94-1.76,1.48a41.59,41.59,0,0,1-4.77,1.5c-.39,1.33-.82,2.81-1.3,4.14a73.43,73.43,0,0,1-4.25,10.38c-.43.73-.74,1.1-1.45,1.1s-1-.68-1-1.44.4-1.11.91-2a39.65,39.65,0,0,0,4.22-8.64c.34-.94.65-2,.94-3.09a21.91,21.91,0,0,1-2.95.28c-1.82,0-3.15-.57-4.08-3l.45-.34a5,5,0,0,0,3.46,1.54,14.81,14.81,0,0,0,3.63-.43,28.81,28.81,0,0,0,.65-3.54c.06-.68-.08-.91-.6-1.19a9.67,9.67,0,0,0-1.72-.6l0-.57a5.51,5.51,0,0,1,2-.28c1.22,0,3,.79,3,1.47a18.68,18.68,0,0,1-.85,2.61Zm1.47,10.46a7,7,0,0,0,1,2.67c1,1.56,2.72,2.15,5.1,2.15a25.08,25.08,0,0,0,4.45-.53c.79,0,1.7.36,1.7,1.19,0,.62-.74,1-1.67,1.19a19.3,19.3,0,0,1-3.86.37c-3.6,0-6.15-1.22-6.89-3.92a9,9,0,0,1-.42-3.06Zm1.45-6.32A13.51,13.51,0,0,1,532,60.05a8.6,8.6,0,0,1,3.8.71,1.73,1.73,0,0,1,1.05,1.39c0,.6-.48.82-1.33.88a5.18,5.18,0,0,0-1.73.4,27.68,27.68,0,0,0-3.26,1.27l-.31-.45a26.83,26.83,0,0,0,2.83-2c.2-.17.12-.31-.14-.4a8.47,8.47,0,0,0-2.47-.34,18.38,18.38,0,0,0-3.65.43Zm6-8A10.57,10.57,0,0,1,536,55.15a2.2,2.2,0,0,1,.94,1.67.77.77,0,0,1-.83.82c-.45,0-.79-.59-1.3-1.27a13.47,13.47,0,0,0-2.55-2.64Zm2.46-1.76a11.3,11.3,0,0,1,3.38,1.56,2.3,2.3,0,0,1,1,1.76.73.73,0,0,1-.77.82c-.48,0-.79-.62-1.39-1.3A11.85,11.85,0,0,0,534.75,52Z"/><path d="M551.2,52.29a4.92,4.92,0,0,1,2.07-.46c1.19,0,3.46,1,3.46,1.79s-.66,1-1,1.81-.65,1.62-1.13,2.75a17.78,17.78,0,0,1,2.24-.22c2.15,0,3.46,1.22,3.46,4.67s-1,7.49-2.78,9.67A4.57,4.57,0,0,1,554,74c-1,0-1.21-.4-1.58-1.39-.17-.48-.4-.79-1.9-2.18l.28-.43a9.78,9.78,0,0,0,3.4,1.56,2.36,2.36,0,0,0,2.16-1.33c1-1.5,2-5.13,2-8.25,0-1.9-.48-2.78-2-2.78a11.36,11.36,0,0,0-2.43.4c-.8,1.9-1.73,4-2.58,5.84a85.21,85.21,0,0,1-4.17,7.85c-.48.8-.85,1-1.36,1a1.15,1.15,0,0,1-1-1.27,2,2,0,0,1,.51-1.45,43.32,43.32,0,0,0,4.39-7c.65-1.31,1.33-2.84,2-4.34-1,.34-1.85.68-2.41.91A6.32,6.32,0,0,1,547,62c-.77,0-1.9-1.19-2.13-2.18a3.66,3.66,0,0,1,.15-1.73l.51-.09c.36.83.62,1.65,1.41,1.65a50.26,50.26,0,0,0,5.45-1.08,21.71,21.71,0,0,0,1.39-4.48.79.79,0,0,0-.46-.79,7.79,7.79,0,0,0-2.15-.48Zm11,5.64a7.72,7.72,0,0,1,5,2.27,7.53,7.53,0,0,1,1.93,5.33c0,1.3-.46,2.32-1.42,2.32s-.82-.82-1.67-1a16.1,16.1,0,0,0-3.29,0l-.15-.62c1.11-.26,2.67-.57,3.41-.85s.73-.51.71-1.25a6.38,6.38,0,0,0-1.11-3.23,5.53,5.53,0,0,0-3.66-2.3Z"/><path d="M581.23,52.14l.14-.56A9.87,9.87,0,0,1,586.64,53a3.4,3.4,0,0,1,1.9,3c0,.74-.34,1.16-1,1.16s-1.13-.25-2.38-.25a20.76,20.76,0,0,0-4.17.57c-.48.08-.59.28-.59.56s.34,1.11.37,1.73a10.61,10.61,0,0,1-.43,2.41,21,21,0,0,0-.62,3.89c0,.31.17.34.39.17,2.84-2.27,6.24-4,9.47-4,4.31,0,6.44,2.86,6.44,5.78,0,5.22-7.77,7.34-14.43,6.86l-.09-.65a28.81,28.81,0,0,0,5.48-.94c5.15-1.53,6.66-3.82,6.66-6a4,4,0,0,0-4.26-4.05c-3.17,0-6.54,2.78-8.58,5.16-.52.65-.86,1.58-1.51,1.58a1.59,1.59,0,0,1-1.16-.68,2.29,2.29,0,0,1-.62-1.44c0-.51.2-1.14.31-2,.2-1.59.71-4.14.91-5.53a14.52,14.52,0,0,0,.05-2.41A1.4,1.4,0,0,1,580,56.57c1.39-.34,4.14-1,5.22-1.39.39-.17.42-.43.05-.88A8.18,8.18,0,0,0,581.23,52.14Z"/><path d="M606.59,65.13c.06,3.74.91,6.41,7.2,6.41,4.74,0,6.81-1.14,7.57-1.14s1.9.46,1.9,1.22-.28.94-1.25,1.28a26.91,26.91,0,0,1-7.74.9c-7.54,0-9.55-3.54-8.39-8.64Zm3.57-5.3c1.34-.88,3-2,4-2.72.28-.23.26-.32-.14-.32-3.21,0-5.36-.25-7.15-2.75l.37-.45a8.61,8.61,0,0,0,5.5,1.5c3.46,0,4.14-.62,5.3-.62s2.84.62,2.84,1.42c0,.56-.34.85-1.13,1a19.11,19.11,0,0,0-3,.74,64,64,0,0,0-6.21,2.75Z"/><path d="M634.81,51.92c.48.88,1,1.9,1.56,1.9a37,37,0,0,0,6.15-1.33c1-.32,1.05-.74,1.59-.74.88,0,2.8,1.42,2.8,2.32,0,.65-.71.65-1.36,1.28-2.8,2.61-5.67,4.85-8.9,7.85-.14.12-.08.23.09.2,2.52-.71,6.49-1.9,8.42-2.38a21.28,21.28,0,0,1,4.13-.88c1.14,0,2.53.6,2.53,1.47,0,.54-.43.91-1.53.91-.66,0-1.42-.06-2.58,0a12.66,12.66,0,0,0-6.24,1.73,5.4,5.4,0,0,0-2.5,4.59c0,2.13,1.65,3.24,4.06,3.6,1.53.26,2.69.06,3.43.2a1.67,1.67,0,0,1,1.3,1.39c0,.77-.65,1.08-2,1.08a16.91,16.91,0,0,1-3.57-.4c-2.61-.68-4.74-2.32-4.74-5.27a7.17,7.17,0,0,1,2.92-5.5c.29-.26.23-.4-.17-.28a28.8,28.8,0,0,0-5.55,2.18c-1.76,1-2.38,1.76-3.26,1.76A1.63,1.63,0,0,1,630,66.15a1,1,0,0,1,.76-1.08,25.8,25.8,0,0,0,2.5-.9,14.34,14.34,0,0,0,3.66-2.81A51.46,51.46,0,0,0,643.48,54c.26-.43.12-.51-.28-.37a41.11,41.11,0,0,0-4.37,1.64c-1.1.51-1.44,1-2.15,1a3.49,3.49,0,0,1-2.52-2.67,4.44,4.44,0,0,1,.28-1.56Z"/><path d="M94.26,114.47a17.12,17.12,0,0,1,7.65-2c3.41,0,5.82,2,5.82,5.36,0,2.89-2.24,5.35-5.9,5.35A6.33,6.33,0,0,1,96.44,120l.46-.43a6.49,6.49,0,0,0,4.42,1.7,3.9,3.9,0,0,0,4.25-4c0-2.06-1.27-3.74-4.31-3.74-2.24,0-4.76,1.16-7,2.41.11,3.94.45,5,.45,6,0,1.31-.85,2.75-1.81,2.75-.74,0-.77-.93-1.68-1.78a24.3,24.3,0,0,0-2.92-2.21c-.82.79-1.16,1.16-1.61,1.16a1.46,1.46,0,0,1-1-.54,1.87,1.87,0,0,1-.6-1.39c0-.77.17-1,.85-.94a2.28,2.28,0,0,0,1.67-.36c1-.57,3.15-2.27,5.11-3.38v-5.19a16.65,16.65,0,0,1-3.09.49c-1.51,0-2.75-.37-3.83-3.1l.45-.33c1.42,1.36,1.9,1.67,3.35,1.61a14.33,14.33,0,0,0,3.12-.57c0-2,0-3.77,0-4.45s-.17-.82-.63-1a6.51,6.51,0,0,0-1.84-.23l-.08-.51a4.16,4.16,0,0,1,2.18-.65c1.16,0,3.09.94,3.09,1.67s-.43,1.14-.63,2a18.26,18.26,0,0,0-.34,2.55c2-.77,2.87-1.62,3.41-1.62s1.56.06,1.58.91c0,.48-.34.85-1,1.16a34,34,0,0,1-4.17,1.56c-.08,1.25-.11,2.52-.11,3.74Zm-1.5,2.41a42.29,42.29,0,0,0-3.86,3.26c1,.51,2.24,1.08,3,1.42.62.22.82,0,.82-.54ZM101.35,105a8.86,8.86,0,0,1,3.85-.26c2.36.4,4.4,2.33,4.45,4.2,0,.65-.25,1.22-.93,1.27s-1-.7-1.9-.56a11.62,11.62,0,0,0-2.24.79l-.31-.45a22.85,22.85,0,0,0,2.24-1.56.71.71,0,0,0,0-1.08c-1-1.53-3.23-1.81-5.16-1.7Z"/><path d="M133,116.06a21.73,21.73,0,0,0,8.2,3.31l0,.31a2.27,2.27,0,0,0-1.62,1.88,17.67,17.67,0,0,1-7.51-5.5h-8a22,22,0,0,1-9.29,6l-.29-.34a22,22,0,0,0,7.09-5.67h-6.63l-.26-.83h7.54a17.24,17.24,0,0,0,1.45-2.38h-1.7v.4c0,.2-1,.68-1.88.68h-.33v-9.16l2.38,1h11l1.13-1.19,2.44,1.82a1.77,1.77,0,0,1-1.08.54v6.15a2.92,2.92,0,0,1-1.87.68h-.37v-.91h-7.09l1,.23c-.11.31-.42.45-1.21.45-.4.57-.83,1.14-1.31,1.7h12l1.38-1.75s1.65,1.21,2.61,2.12a.68.68,0,0,1-.73.46Zm-18.14-12.88-.2-.82h7.88V99.44l3.21.31c-.06.4-.29.66-1,.77v1.84h5.76V99.44l3.23.31c-.06.4-.31.66-1,.77v1.84h4.08l1.42-1.76s1.59,1.25,2.52,2.13c-.08.31-.36.45-.73.45h-7.29v1.68a2.63,2.63,0,0,1-1.84.54h-.37v-2.22h-5.76V105c0,.2-.9.51-1.81.51h-.37v-2.3Zm22.23,19.23s1.61,1.24,2.6,2.15c-.08.28-.36.43-.76.43H116.22l-.23-.8h10.46v-3.46H120.7l-.2-.82h6v-3l3.12.32c0,.34-.28.59-.88.71v2h2.58l1.19-1.47s1.39,1,2.24,1.84c0,.31-.31.45-.71.45h-5.3v3.46h7Zm-15.14-15.79v2.26h11.42v-2.26Zm0,5.41h11.42v-2.32H121.92Z"/><path d="M165.4,107.61a5.08,5.08,0,0,1,2.32.71,3.63,3.63,0,0,1,1.7,2.43c0,.63-.42.68-1.61,1a56.06,56.06,0,0,0-7.83,3c.11,1.62.14,3.51.14,4.48,0,.76-.37,1.28-1.05,1.28a1.11,1.11,0,0,1-1.16-1.22c0-.71.11-2.1.14-3.55-2.61,1.53-4.59,3.26-4.59,4.88,0,1.44,1.62,2.18,4.34,2.18,4.19,0,5.84-.91,7.11-.91s1.85.34,1.85,1.08c0,.54-.2.91-1.17,1.19a28.09,28.09,0,0,1-6.35.77c-5.33,0-7.08-1.73-7.08-4s2.72-4.65,5.89-6.66c-.08-2.35-.54-3.23-2-3.23s-3.4,1.7-4.54,3c-1,1.11-1.81,2.58-2.61,2.61s-1.07-.54-1.07-1.36,1-1.5,2.24-2.78a25.55,25.55,0,0,0,3.88-5.16,16.83,16.83,0,0,1-2.1.14c-2.29,0-2.8-.84-3.83-3.08l.54-.32a4.3,4.3,0,0,0,3.77,1.7,14.52,14.52,0,0,0,2.61-.28,11.84,11.84,0,0,0,.85-2.35c.14-.48.09-.74-.45-1a6.48,6.48,0,0,0-1.65-.51l0-.49a5.33,5.33,0,0,1,1.73-.37c1,0,2.95.46,2.95,1.22,0,.4-.23.63-.51,1.22s-.57,1.14-.91,1.79a26.08,26.08,0,0,0,3.35-1.14c1.13-.48,1.33-.76,1.76-.76.73,0,1.41.23,1.41.91,0,.39-.25.68-.85,1a30.76,30.76,0,0,1-6.77,2,31,31,0,0,1-2.55,3.83c-.12.17,0,.31.17.2a6.64,6.64,0,0,1,3.11-1c1.76,0,2.87,1.2,3.18,3.21,2.21-1.19,4.93-2.33,6.52-3.18.48-.28.54-.56.14-1a3.94,3.94,0,0,0-1.39-1Z"/><path d="M199,106.19s1.7,1.3,2.72,2.24c-.08.31-.34.45-.73.45H191.5a63.93,63.93,0,0,1-5.67,3.6l-.28,1.19a68,68,0,0,0,10.37-2.86l2.27,2.13a1.59,1.59,0,0,1-1.5-.06,102.51,102.51,0,0,1-11.28,1.47c-.2.86-.43,1.76-.63,2.64H194.9l1.22-1.22,2.33,1.93a1.65,1.65,0,0,1-1.14.43c-.51,3.26-1.5,5.84-2.83,6.71a6,6,0,0,1-3.23.8,1.77,1.77,0,0,0-.57-1.5,8,8,0,0,0-2.92-.85l0-.46c1.3.12,3.63.31,4.31.31a1.75,1.75,0,0,0,1.1-.25c.71-.51,1.45-2.52,1.87-5.08H184.58l-.48,1.85a3.25,3.25,0,0,1-2.44,0c.49-1.7,1.05-3.8,1.51-5.73A57.29,57.29,0,0,1,175.6,117l-.2-.43a58.25,58.25,0,0,0,8.16-4.36l.4-1.82,1.5.57c1-.68,2-1.39,2.89-2.1H176.16l-.22-.82h9.55v-3.74h-7l-.23-.82h7.2v-4l3.2.28c-.05.37-.28.62-.93.74v3h2.75l1.45-1.82s1.33,1,2.38,1.9a35.62,35.62,0,0,0,2.78-3.23l2.94,1.84c-.22.29-.54.34-1.19.17a43.39,43.39,0,0,1-6.26,5.7h5Zm-9.64,1.87a50.54,50.54,0,0,0,4.2-3.74h-5.84v3.74Z"/><path d="M210.56,108c.46.9,1,1.53,1.65,1.53a55.63,55.63,0,0,0,7.6-1.62c.71-.2.93-.62,1.39-.62.88,0,2.8,1.13,2.8,2.07,0,.56-1,.85-2,1.56a68.48,68.48,0,0,0-5.62,4.9,7.92,7.92,0,0,1,1.76-.2,2.35,2.35,0,0,1,2.33,1.65c.28.93.59,2.12.82,3,.37,1.33.82,1.82,2,1.82,3.12,0,3.6-.6,4.65-.6s2,.48,2,1.25c0,1.25-3.52,1.53-5.9,1.53-3.12,0-4.05-.77-4.48-3-.2-1-.4-2.16-.6-3.18-.19-.82-.62-1.36-1.5-1.36a3.8,3.8,0,0,0-2.58,1.16,39.06,39.06,0,0,0-4.48,5.19,1.73,1.73,0,0,1-1.39.88,1,1,0,0,1-1.05-1c0-1.08.6-1.62,1.42-2.41,1.16-1.11,3.52-3.23,4.94-4.62,2.15-2,4.81-4.71,6-6,.45-.51.2-.82-.46-.65a33.74,33.74,0,0,0-5.21,1.84c-.82.43-1.17.91-1.76.91a3.23,3.23,0,0,1-2.75-2.07,3.61,3.61,0,0,1,0-1.73Zm2.78-7.32.4-.4a9.56,9.56,0,0,0,5.24,2,14.13,14.13,0,0,0,1.82-.2c1,0,2.15.74,2.15,1.7,0,.43-.31.82-1.07.82s-1.22,0-2,0a33,33,0,0,0-4.88,1.25l-.22-.59c1.13-.49,2.49-1.08,3.34-1.48A8.17,8.17,0,0,1,213.34,100.66Z"/><path d="M233.91,105.42a2.57,2.57,0,0,0,1.82,1.42c1.56,0,6.63-1.47,11.39-2.58a42.51,42.51,0,0,1,6.55-1.25,5.38,5.38,0,0,1,2.13.37c.65.29,1,.66,1,1.16s-.4.88-1.1.88-1.48-.08-2.47-.08a9.08,9.08,0,0,0-4.71,1.1c-1.19.74-3.88,3.29-3.88,8.71,0,3.14,1.3,4.36,2.41,5,1.78,1,4.22.87,5.27.87.77,0,1.79.63,1.79,1.42s-.94,1.14-2.24,1.14c-1.79,0-4.4-.17-6.3-1.53s-2.83-3.07-2.83-6.38a11.83,11.83,0,0,1,4.48-9.67c.2-.14.17-.31-.14-.26a52.78,52.78,0,0,0-8.91,3,4.52,4.52,0,0,1-1.81.8,3.7,3.7,0,0,1-2.89-2.53,5.61,5.61,0,0,1,0-1.42Z"/><path d="M279.73,110a4.21,4.21,0,0,1,1.62-.31c1,.12,2.27.94,2.27,1.56a16,16,0,0,1-.23,1.62c-.09.54-.26,1.5-.48,2.49a15.74,15.74,0,0,1,2.92,2.1,2.37,2.37,0,0,1,.82,1.87,1,1,0,0,1-1,1c-.8,0-1.59-1.17-3.49-2.64-1.7,3.91-5.3,6.35-10.57,7.45l-.37-.62c4.59-1.47,7.74-4.34,9.18-8.08a15.88,15.88,0,0,0-9.18-2.78c-1.22,2.38-2.67,5.53-3.43,6.61-1,1.42-1.82,2.12-3.21,2.12-1.61,0-2.55-2.49-2.18-4.56.51-2.83,4-4.82,7.6-5.33v0c1.36-2.41,3.94-6.6,4.56-7.82.26-.48.09-.63-.31-.51-1,.31-2.61,1-3.6,1.47-.45.23-.91.71-1.42.71a3.27,3.27,0,0,1-2.46-2.07,4.49,4.49,0,0,1-.09-1.56l.48-.14c.48.79.77,1.47,1.62,1.47a24.23,24.23,0,0,0,4.87-1.13c1-.34,1.25-.79,1.73-.79.85,0,2.7,1.27,2.7,2.07s-1.08,1-1.79,1.75a54.91,54.91,0,0,0-4.36,6.44,22,22,0,0,1,9.1,2,11.56,11.56,0,0,0,.22-2.52c0-.48-.08-.68-.45-.91a3.18,3.18,0,0,0-1.11-.42Zm-10.46,3.8c-2.95.46-5.3,2-5.73,3.8-.28,1.14.32,2.41,1,2.41s1.11-.39,1.73-1.24S268.28,115.63,269.27,113.84Z"/><path d="M290.78,105.42a2.59,2.59,0,0,0,1.82,1.42c1.56,0,6.63-1.47,11.39-2.58a42.51,42.51,0,0,1,6.55-1.25,5.38,5.38,0,0,1,2.13.37c.65.29,1,.66,1,1.16s-.39.88-1.1.88-1.48-.08-2.47-.08a9.08,9.08,0,0,0-4.71,1.1c-1.19.74-3.88,3.29-3.88,8.71,0,3.14,1.3,4.36,2.41,5,1.79,1,4.22.87,5.27.87.77,0,1.79.63,1.79,1.42s-.94,1.14-2.24,1.14c-1.79,0-4.4-.17-6.29-1.53s-2.84-3.07-2.84-6.38a11.86,11.86,0,0,1,4.48-9.67c.2-.14.17-.31-.14-.26a52.32,52.32,0,0,0-8.9,3,4.62,4.62,0,0,1-1.82.8,3.71,3.71,0,0,1-2.89-2.53,5.61,5.61,0,0,1,0-1.42Z"/><path d="M326.75,113.25c-.53,1.5-1.67,4.62-2,5.64a9.07,9.07,0,0,0-.39,2c0,.91.42,1.82.42,2.58a1,1,0,0,1-1,1.08c-.57,0-1.05-.48-1.5-1.16a12.73,12.73,0,0,1-1.68-6.75,28.75,28.75,0,0,1,1.34-7.85,15.43,15.43,0,0,0,.71-3.43,5.11,5.11,0,0,0-1.62-3.18l.42-.34a5.18,5.18,0,0,1,1.68.88c.65.48,2,2,2,3.29,0,.65-.43,1.19-1.11,2.78a19.15,19.15,0,0,0-1.93,7.51,5.57,5.57,0,0,0,.46,2.61c.17.37.42.4.68,0,.62-1,2.15-4.54,2.83-6ZM338,109.82c0,2.83.23,5.47.4,7.51a10.89,10.89,0,0,1,4.7,2.58,2.32,2.32,0,0,1,.91,1.65c0,.68-.31,1.07-.88,1.07s-.85-.37-1.5-1a12.54,12.54,0,0,0-3.09-2.27,4.94,4.94,0,0,1,0,.65c0,2.33-1.45,3.83-5,3.83-2.53,0-4.62-1.22-4.62-3.4,0-2.5,2.6-3.63,5.72-3.63a13.53,13.53,0,0,1,1.85.11c-.09-2-.26-4.82-.29-7.11a22.84,22.84,0,0,1-3.06.22c-1.76,0-3-.34-4.51-2.8l.4-.37a6.49,6.49,0,0,0,3.91,1.42,16.38,16.38,0,0,0,3.26-.32v-3.51c0-.8-.14-.94-.56-1.08a10.23,10.23,0,0,0-2-.34l-.05-.54a5.79,5.79,0,0,1,2.21-.71c1.41,0,3,.85,3,1.53a17,17,0,0,1-.45,2,19.66,19.66,0,0,0-.26,2.24c.52-.17.94-.31,1.28-.45,1.45-.51,1.93-.86,2.18-.86.68,0,1.68.37,1.68,1s-.43.88-1.45,1.28a30.21,30.21,0,0,1-3.74,1Zm-1.45,8.82a11.7,11.7,0,0,0-2.95-.35c-1.7,0-3.51.71-3.51,2S331.4,122,333,122c3,0,3.6-1.11,3.6-3.29Z"/><path d="M351.52,108.09c0-1.56-.34-2.38-2.21-3.77l.23-.4a7.87,7.87,0,0,1,2,.43c1.13.51,2.69,1.87,2.69,3.09s-1.13,3-1.13,6.12c0,3.26,1.53,5,2.66,5.59a.73.73,0,0,0,1-.23,42.49,42.49,0,0,0,2.75-5.13l.71.31a47.68,47.68,0,0,0-1.61,5.24c-.2,1.39.25,1.48.25,2.19,0,.9-.93,1.42-2.27.88-2.24-1-5.07-3.46-5.24-8.65C351.32,111.66,351.52,109.56,351.52,108.09Zm13.24-.85.2-.62a9,9,0,0,1,5.64,2.77,9.57,9.57,0,0,1,2.47,6.33c0,1.3-.45,1.92-1.36,1.92a1.12,1.12,0,0,1-1.08-1,18.16,18.16,0,0,0-1.45-5.53A8.1,8.1,0,0,0,364.76,107.24Z"/><path d="M385.58,102a4.93,4.93,0,0,1,2.07-.45c1.19,0,3.46,1,3.46,1.78s-.65,1-1,1.82-.66,1.62-1.14,2.75a17.93,17.93,0,0,1,2.24-.23c2.16,0,3.46,1.22,3.46,4.68s-1,7.48-2.78,9.67a4.56,4.56,0,0,1-3.51,1.73c-1,0-1.22-.4-1.59-1.39-.17-.48-.4-.8-1.9-2.19l.28-.42a9.88,9.88,0,0,0,3.41,1.56,2.36,2.36,0,0,0,2.15-1.33c1.05-1.51,2-5.13,2-8.25,0-1.9-.48-2.78-2-2.78a11.34,11.34,0,0,0-2.44.4c-.79,1.89-1.73,4-2.58,5.84a84.09,84.09,0,0,1-4.17,7.85c-.48.79-.85,1-1.36,1a1.15,1.15,0,0,1-1-1.28,2,2,0,0,1,.51-1.44,43,43,0,0,0,4.39-7c.66-1.3,1.34-2.83,2-4.34-1,.35-1.84.69-2.41.91a6.32,6.32,0,0,1-2.3.8c-.76,0-1.9-1.19-2.12-2.19a3.53,3.53,0,0,1,.14-1.73l.51-.08c.37.82.62,1.64,1.42,1.64a50,50,0,0,0,5.44-1.07,21.71,21.71,0,0,0,1.39-4.48.8.8,0,0,0-.45-.8,8.67,8.67,0,0,0-2.16-.48Zm11,5.64a7.82,7.82,0,0,1,5,2.27,7.57,7.57,0,0,1,1.93,5.33c0,1.31-.46,2.33-1.42,2.33s-.82-.83-1.67-1a14.78,14.78,0,0,0-3.29,0l-.14-.63a32.32,32.32,0,0,0,3.4-.85c.59-.22.74-.51.71-1.24a6.39,6.39,0,0,0-1.11-3.24,5.55,5.55,0,0,0-3.65-2.29Z"/><path d="M415.7,102.22a4.93,4.93,0,0,1,2.07-.45c1.19,0,3.46,1,3.46,1.78s-.65,1-1,1.82c-.25.65-.65,1.61-1.13,2.75a15.92,15.92,0,0,1,2.24-.23c2.15,0,3.45,1.22,3.45,4.68s-1,7.48-2.77,9.67a4.57,4.57,0,0,1-3.52,1.73c-1,0-1.22-.4-1.59-1.39-.17-.49-.39-.8-1.9-2.19l.29-.42a9.78,9.78,0,0,0,3.4,1.56,2.34,2.34,0,0,0,2.15-1.34c1.05-1.5,2.05-5.13,2.05-8.25,0-1.9-.49-2.77-2-2.77a12.1,12.1,0,0,0-2.44.39c-.79,1.9-1.73,4.06-2.58,5.84a83.43,83.43,0,0,1-4.16,7.86c-.49.79-.86,1-1.37,1a1.16,1.16,0,0,1-1-1.28,2,2,0,0,1,.51-1.44,43,43,0,0,0,4.4-7c.65-1.3,1.33-2.83,1.95-4.34-1,.34-1.84.68-2.41.91a6.23,6.23,0,0,1-2.29.79c-.77,0-1.9-1.19-2.13-2.18a3.65,3.65,0,0,1,.14-1.73l.51-.08c.37.82.63,1.64,1.42,1.64a47.41,47.41,0,0,0,5.44-1.08,21,21,0,0,0,1.39-4.47.78.78,0,0,0-.45-.8,7.78,7.78,0,0,0-2.16-.48Zm11,5.64a7.75,7.75,0,0,1,5,2.27,7.57,7.57,0,0,1,1.93,5.33c0,1.3-.45,2.33-1.42,2.33s-.82-.83-1.67-1a15.46,15.46,0,0,0-3.29,0l-.14-.63a33.58,33.58,0,0,0,3.4-.85c.6-.22.74-.51.71-1.25a6.35,6.35,0,0,0-1.1-3.23,5.54,5.54,0,0,0-3.66-2.29Zm1.19-4.82a10,10,0,0,1,3.41,1.85,2.2,2.2,0,0,1,.93,1.64.77.77,0,0,1-.76.85c-.46,0-.8-.59-1.34-1.28a12.67,12.67,0,0,0-2.58-2.6Zm2.58-1.87a10.15,10.15,0,0,1,3.38,1.59,2.25,2.25,0,0,1,1.05,1.76.71.71,0,0,1-.77.79c-.45,0-.76-.62-1.36-1.3a13.7,13.7,0,0,0-2.64-2.38Z"/><path d="M441.22,105.51a2.59,2.59,0,0,0,1.82,1.42c1.56,0,6.63-1.48,11.39-2.58A41.27,41.27,0,0,1,461,103.1a5.21,5.21,0,0,1,2.13.37c.65.28,1,.65,1,1.16s-.39.88-1.1.88-1.48-.09-2.47-.09a9,9,0,0,0-4.71,1.11c-1.19.74-3.88,3.29-3.88,8.7,0,3.15,1.3,4.37,2.41,5,1.79,1,4.22.88,5.27.88.77,0,1.79.62,1.79,1.42s-.94,1.13-2.24,1.13c-1.79,0-4.4-.17-6.29-1.53s-2.84-3.06-2.84-6.38a11.87,11.87,0,0,1,4.48-9.67c.2-.14.17-.31-.14-.25a52.32,52.32,0,0,0-8.9,3,4.6,4.6,0,0,1-1.82.79,3.72,3.72,0,0,1-2.89-2.52,5.61,5.61,0,0,1,0-1.42Zm17.55,3.66a10.79,10.79,0,0,1,3.4,1.9,2.18,2.18,0,0,1,.91,1.64.77.77,0,0,1-.79.85c-.43,0-.74-.59-1.31-1.3a12.44,12.44,0,0,0-2.58-2.61Zm2.5-1.88a11.05,11.05,0,0,1,3.37,1.59,2.21,2.21,0,0,1,1,1.76c0,.51-.25.79-.74.79s-.79-.59-1.36-1.3a13.83,13.83,0,0,0-2.6-2.35Z"/><path d="M473.11,102.67v-.56a7.38,7.38,0,0,1,2-.29c1.5.06,3.65,1.7,3.65,2.61,0,.65-.59.91-.85,2.27a64.12,64.12,0,0,0-1.05,10.74c0,3.49,1,4.82,4.23,4.82a13.64,13.64,0,0,0,10.77-6l.6.43a12.76,12.76,0,0,1-11.51,7.82c-3.89,0-6-1.9-6-6.89,0-4.31.65-10.69.65-12.47,0-1.14-.17-1.51-.65-1.82A5.12,5.12,0,0,0,473.11,102.67Z"/><path d="M508.86,119.26a13,13,0,0,1,3.12,1c1.5.71,3.2,1.87,3.2,3.15a.8.8,0,0,1-.85.88c-.87,0-1.64-1.39-3.71-2.58a9,9,0,0,0-1.53-.71,5.58,5.58,0,0,1,.06.76c0,1.76-1.11,3.21-4.23,3.21-2.32,0-4-1-4-2.75,0-2.22,2.55-3.24,5.44-3.24.34,0,.68,0,1,0-.06-1.7-.2-3.77-.26-5.07s-.05-4.2-.14-4.71a.79.79,0,0,0-.54-.76,5.24,5.24,0,0,0-1.58-.37l-.06-.34a4.86,4.86,0,0,1,1.93-.57c1.33,0,2.83.91,2.83,1.59s-.34.71-.51,1.33a18.35,18.35,0,0,0-.31,2.18h.34a9.48,9.48,0,0,0,2.69-.51c.71-.25,1.14-.54,1.34-.54.85,0,1.7.26,1.7,1,0,.36-.23.65-.83.9a13.23,13.23,0,0,1-3.59.6,4.16,4.16,0,0,1-1.73-.57c0,.43,0,.82,0,1.13,0,1,.11,3.27.25,4.88Zm-1.47,1.28a9.52,9.52,0,0,0-2.13-.2c-2,0-3.37.79-3.37,1.7,0,.76.85,1.27,2.24,1.27C506.51,123.31,507.36,122.46,507.39,120.54Z"/><path d="M526.39,108.49c.4,1.05,1,1.75,1.62,1.75,1.36,0,5-2.24,8-2.24s5.16,2.41,5.16,6.27c0,6.38-4.93,9.87-12.9,11l-.2-.65c6.84-1.73,10.66-5.08,10.66-10.69,0-3-1.19-4.71-2.94-4.71s-4.4,1.73-5.5,2.55c-.6.46-1.2,1.11-1.93,1.11a3.33,3.33,0,0,1-2.47-2.07,4.13,4.13,0,0,1,0-2.18Zm2.1-7.74.31-.4a8.77,8.77,0,0,0,5.3,1.56c1,0,1.9-.26,2.38-.26,1.14,0,2.5.6,2.5,1.45,0,.42-.37.71-1.08.71a12,12,0,0,0-2.21.28,51.47,51.47,0,0,0-5.33,1.87l-.25-.51c1.19-.68,2.55-1.44,3.34-2A6.89,6.89,0,0,1,528.49,100.75Z"/><path d="M556.17,102a4.93,4.93,0,0,1,2.07-.45c1.19,0,3.46,1,3.46,1.78s-.65,1-1,1.82-.65,1.62-1.13,2.75a17.56,17.56,0,0,1,2.24-.23c2.15,0,3.45,1.22,3.45,4.68s-1,7.48-2.77,9.67a4.57,4.57,0,0,1-3.52,1.73c-1,0-1.22-.4-1.59-1.39-.17-.48-.39-.8-1.9-2.19l.29-.42a9.78,9.78,0,0,0,3.4,1.56,2.35,2.35,0,0,0,2.15-1.33c1-1.51,2-5.13,2-8.25,0-1.9-.48-2.78-2-2.78a11.53,11.53,0,0,0-2.44.4c-.79,1.89-1.73,4-2.58,5.84a81.77,81.77,0,0,1-4.17,7.85c-.48.79-.85,1-1.36,1a1.15,1.15,0,0,1-1-1.28,2,2,0,0,1,.51-1.44,43,43,0,0,0,4.4-7c.65-1.3,1.33-2.83,2-4.34-1,.35-1.84.69-2.41.91a6.35,6.35,0,0,1-2.29.8c-.77,0-1.9-1.19-2.13-2.19a3.65,3.65,0,0,1,.14-1.73l.51-.08c.37.82.63,1.64,1.42,1.64a49.13,49.13,0,0,0,5.44-1.07,21.71,21.71,0,0,0,1.39-4.48.79.79,0,0,0-.45-.8,8.67,8.67,0,0,0-2.16-.48Zm11,5.64a7.82,7.82,0,0,1,5,2.27,7.57,7.57,0,0,1,1.93,5.33c0,1.31-.45,2.33-1.42,2.33s-.82-.83-1.67-1a14.77,14.77,0,0,0-3.29,0l-.14-.63a31.1,31.1,0,0,0,3.4-.85c.6-.22.74-.51.71-1.24a6.36,6.36,0,0,0-1.1-3.24,5.58,5.58,0,0,0-3.66-2.29Z"/><path d="M584.23,105.48c-.4,1.48-.93,2.1-1.9,2.1a1.41,1.41,0,0,1-1.36-.82c.37-3.15,3.15-5.13,6.81-5.13,4.28,0,6.49,2,6.49,5,0,2.21-1.22,3.88-4.08,5.67-1.93,1.19-2.58,1.75-2.67,3.17l-.14,2H586.3a23.32,23.32,0,0,1-.23-2.89c0-1.22.54-2,2.53-3.48s3-2.78,3-4.63c0-2.63-1.92-3.62-4.39-3.62a5.66,5.66,0,0,0-2.27.39Zm4.54,16.39a1.89,1.89,0,1,1-1.9-1.87A1.86,1.86,0,0,1,588.77,121.87Z"/></svg>