<?xml version="1.0" encoding="utf-8"?>
<!-- Generator: Adobe Illustrator 25.2.0, SVG Export Plug-In . SVG Version: 6.00 Build 0)  -->
<svg version="1.1" id="レイヤー_1" xmlns="http://www.w3.org/2000/svg" xmlns:xlink="http://www.w3.org/1999/xlink" x="0px"
	 y="0px" viewBox="0 0 286.5 29.7" style="enable-background:new 0 0 286.5 29.7;" xml:space="preserve">
<style type="text/css">
	.st0{fill:#FFFFFF;}
</style>
<path class="st0" d="M36.8,7.1c-3.9-1.6-8.1-2.5-12.3-2.4c-4.2,0-8.4,0.8-12.3,2.4C8.4,5.5,4.2,4.6,0,4.6V0h49v4.6
	C44.8,4.6,40.7,5.5,36.8,7.1z M0,29.7V7.1c3.1,0,6.3,0.6,9.2,1.6c-3.2,2-5.4,4.9-5.4,8.4c0,6.6,6.2,8.4,8.5,8.4s8.5-1.7,8.5-8.4
	c0-3.5-2.3-6.3-5.5-8.4c6-2.2,12.5-2.2,18.5,0c-3.2,2-5.5,4.9-5.5,8.4c0,6.6,6.2,8.4,8.5,8.4s8.5-1.7,8.5-8.4c0-3.5-2.3-6.3-5.5-8.4
	c3-1,6.1-1.6,9.2-1.6v22.6H0z M6.3,17.1c0-2.7,2.3-5.2,6-7.1c3.7,1.8,6,4.4,6,7.1c0,4.6-4.4,5.9-6,5.9S6.3,21.7,6.3,17.1z M36.8,10
	c3.7,1.9,6,4.4,6,7.1c0,4.6-4.4,5.9-6,5.9s-6-1.3-6-5.9C30.8,14.4,33.1,11.8,36.8,10z"/>
<path class="st0" d="M54.7,27.1c-1.4-1.6-2.1-4.1-2.1-7.4V9.6c0-3.1,0.7-5.5,2.2-7.1S58.3,0,61.1,0s5.1,0.8,6.5,2.4s2.1,4,2.1,7.2
	v10.1c0,3.3-0.7,5.7-2.1,7.4c-1.4,1.7-3.6,2.5-6.5,2.5C58.2,29.6,56.1,28.8,54.7,27.1z M63.6,23.6c0.5-1.4,0.7-2.9,0.7-4.3v-8.9
	c0.1-1.5-0.1-3-0.7-4.4c-0.5-0.9-1.5-1.4-2.5-1.2c-1-0.1-2,0.4-2.4,1.2C58.2,7.4,58,8.9,58,10.3v8.9c-0.1,1.5,0.1,3,0.7,4.3
	c0.5,0.9,1.4,1.4,2.4,1.3C62.1,25,63.1,24.5,63.6,23.6z"/>
<path class="st0" d="M78.1,6.5L73.3,10V4.1l4.8-3.6h5.4v28.7h-5.4V6.5z"/>
<path class="st0" d="M88.2,24.8l9.5-12.3c0.9-1.1,1.5-2.5,1.6-4V7.9c0-0.9-0.2-1.7-0.8-2.4c-0.6-0.6-1.4-0.9-2.2-0.9
	c-0.8,0-1.6,0.3-2.2,0.9c-0.6,0.7-0.8,1.6-0.8,2.5v0.7h-5.3v-1c0-1.4,0.3-2.8,1-4C89.8,2.6,90.8,1.6,92,1c1.4-0.7,2.9-1,4.5-1
	c1.5,0,3,0.3,4.4,1c1.2,0.6,2.2,1.6,2.9,2.8c0.7,1.2,1,2.5,1,3.9v0.7c0,1.2-0.2,2.4-0.7,3.4c-0.5,1.2-1.2,2.3-2,3.2L95,24.3h9.8v4.8
	H88.2V24.8z"/>
<path class="st0" d="M110.9,27.1c-1.4-1.6-2.1-4.1-2.1-7.4V9.6c0-3.1,0.7-5.5,2.2-7.1c1.7-1.7,4-2.6,6.4-2.4c2.9,0,5.1,0.8,6.5,2.4
	c1.4,1.6,2.1,4,2.1,7.2v10.1c0,3.3-0.7,5.7-2.1,7.4c-1.4,1.7-3.6,2.5-6.5,2.5C114.5,29.6,112.3,28.8,110.9,27.1z M119.8,23.6
	c0.5-1.4,0.7-2.9,0.6-4.3v-8.9c0.1-1.5-0.1-3-0.6-4.4c-0.5-0.9-1.5-1.4-2.5-1.2c-1-0.1-2,0.4-2.4,1.2c-0.5,1.4-0.7,2.9-0.6,4.3v8.9
	c-0.1,1.5,0.1,3,0.6,4.3c0.5,0.9,1.4,1.4,2.4,1.3C118.4,25,119.3,24.5,119.8,23.6z"/>
<path class="st0" d="M129.9,12.4h11.4v4.8h-11.4V12.4z"/>
<path class="st0" d="M147.4,27.4c-1.6-1.6-2.5-3.9-2.4-6.2v-1.3c0-1.1,0.2-2.2,0.5-3.2c0.4-1.2,0.8-2.3,1.4-3.4l6.6-12.8h5.7
	l-5.9,11.6c0.7-0.3,1.4-0.4,2.1-0.4c2-0.1,4,0.7,5.4,2.1c1.4,1.6,2.1,3.7,2,5.8V21c0.1,2.4-0.7,4.7-2.4,6.4
	C156.5,30.3,151.1,30.3,147.4,27.4L147.4,27.4z M156.4,24c0.6-0.8,1-1.8,0.9-2.8v-1.3c0.1-1-0.3-2-0.9-2.8c-0.6-0.7-1.6-1-2.5-1
	c-0.9,0-1.8,0.3-2.5,1c-0.6,0.8-1,1.7-0.9,2.7v1.4c-0.1,1,0.3,2,0.9,2.8c0.6,0.7,1.5,1,2.5,1C154.8,25,155.7,24.7,156.4,24L156.4,24
	z"/>
<path class="st0" d="M171,28.6c-1.3-0.7-2.4-1.7-3.1-2.9c-0.8-1.3-1.2-2.9-1.1-4.4v-1c0-1.3,0.3-2.5,0.9-3.6c0.6-1.1,1.5-2,2.6-2.6
	c-0.9-0.5-1.7-1.3-2.2-2.2c-0.6-1-0.8-2.1-0.8-3.3V7.8c0-1.4,0.3-2.7,1-3.9c0.7-1.2,1.7-2.2,2.9-2.8c1.4-0.7,2.9-1.1,4.5-1.1
	c1.6,0,3.1,0.3,4.5,1.1c1.2,0.7,2.2,1.6,2.9,2.8c0.7,1.2,1,2.5,1,3.9v0.7c0,1.1-0.3,2.3-0.8,3.3c-0.5,0.9-1.2,1.7-2.1,2.2
	c1.1,0.6,2,1.5,2.6,2.6c0.6,1.1,0.9,2.3,0.9,3.5v1c0,1.6-0.4,3.1-1.1,4.4c-0.8,1.3-1.9,2.3-3.2,2.9c-1.4,0.7-3,1-4.6,1
	C173.9,29.6,172.4,29.3,171,28.6z M178.2,24c0.7-0.8,1-1.8,1-2.8v-1c0-1-0.3-2-1-2.7c-1.4-1.4-3.7-1.4-5.2,0c-0.7,0.7-1,1.7-1,2.7v1
	c0,1,0.3,2,0.9,2.8c0.7,0.7,1.6,1.1,2.6,1C176.5,25,177.4,24.6,178.2,24L178.2,24z M177.8,11c0.6-0.7,0.9-1.5,0.8-2.4V7.8
	c0-0.8-0.3-1.7-0.9-2.3c-1.2-1.2-3.2-1.2-4.4,0c-0.6,0.6-0.9,1.4-0.9,2.3v0.8c0,0.9,0.3,1.7,0.8,2.4C174.5,12.3,176.5,12.3,177.8,11
	C177.8,11,177.8,11,177.8,11L177.8,11z"/>
<path class="st0" d="M190.6,27.4c-1.6-1.7-2.5-3.9-2.3-6.2v-1.3c0-1.1,0.2-2.2,0.5-3.2c0.4-1.2,0.8-2.3,1.4-3.4l6.6-12.8h5.7
	l-6,11.6c0.7-0.3,1.4-0.4,2.1-0.4c2-0.1,4,0.7,5.5,2.1c1.4,1.6,2.1,3.7,2,5.8V21c0.1,2.4-0.7,4.7-2.4,6.4
	C199.8,30.3,194.4,30.3,190.6,27.4L190.6,27.4z M199.6,24c0.6-0.8,1-1.8,0.9-2.8v-1.3c0.1-1-0.3-2-0.9-2.8c-0.6-0.7-1.6-1-2.5-1
	c-0.9,0-1.8,0.3-2.5,1c-0.6,0.8-1,1.7-0.9,2.7v1.4c-0.1,1,0.3,2,0.9,2.8c0.6,0.7,1.5,1,2.5,1C198.1,25,199,24.7,199.6,24L199.6,24z"
	/>
<path class="st0" d="M209.7,12.4h11.4v4.8h-11.4V12.4z"/>
<path class="st0" d="M227.2,27.4c-1.6-1.7-2.5-3.9-2.3-6.2v-1.3c0-1.1,0.2-2.2,0.5-3.2c0.4-1.2,0.8-2.3,1.4-3.4l6.6-12.8h5.7
	l-5.9,11.6c0.7-0.3,1.4-0.4,2.1-0.4c2-0.1,4,0.7,5.4,2.1c1.4,1.6,2.1,3.7,2,5.8V21c0.1,2.4-0.7,4.7-2.4,6.4
	C236.4,30.3,231,30.3,227.2,27.4L227.2,27.4z M236.2,24c0.6-0.8,1-1.8,0.9-2.8v-1.3c0.1-1-0.3-2-0.9-2.8c-0.6-0.7-1.6-1-2.5-1
	c-0.9,0-1.8,0.3-2.5,1c-0.6,0.8-1,1.7-0.9,2.7v1.4c-0.1,1,0.3,2,0.9,2.8c0.6,0.7,1.5,1,2.5,1C234.7,25,235.6,24.7,236.2,24L236.2,24
	z"/>
<path class="st0" d="M250.8,28.6c-1.3-0.7-2.4-1.7-3.1-2.9c-0.8-1.3-1.2-2.9-1.1-4.4v-1c0-1.3,0.3-2.5,0.9-3.6
	c0.6-1.1,1.5-2,2.5-2.6c-0.9-0.5-1.6-1.3-2.1-2.2c-0.6-1-0.8-2.1-0.8-3.3V7.8c0-1.4,0.3-2.7,1-3.9c0.7-1.2,1.7-2.2,2.9-2.8
	c2.8-1.4,6.1-1.4,8.8,0c1.2,0.7,2.2,1.6,2.9,2.8c0.7,1.2,1,2.5,1,3.9v0.7c0,1.1-0.3,2.3-0.8,3.3c-0.5,0.9-1.2,1.7-2.1,2.2
	c1.1,0.6,2,1.5,2.5,2.6c0.6,1.1,0.9,2.3,0.9,3.5v1c0,1.6-0.4,3.1-1.1,4.4c-0.8,1.3-1.8,2.3-3.2,2.9c-1.4,0.7-3,1-4.6,1
	C253.8,29.7,252.2,29.3,250.8,28.6z M258,24c0.7-0.8,1-1.8,1-2.8v-1c0-1-0.3-2-1-2.7c-1.4-1.4-3.7-1.4-5.2,0c-0.7,0.7-1,1.7-1,2.7v1
	c0,1,0.3,2,1,2.8c0.7,0.7,1.6,1.1,2.6,1C256.4,25,257.3,24.6,258,24z M257.6,11c0.6-0.7,0.9-1.5,0.8-2.4V7.8c0-0.8-0.3-1.7-0.9-2.3
	c-1.2-1.2-3.2-1.2-4.4,0c-0.6,0.6-0.9,1.4-0.9,2.3v0.8c0,0.9,0.3,1.7,0.8,2.4c0.6,0.6,1.4,1,2.2,0.9C256.2,12,257.1,11.6,257.6,11z"
	/>
<path class="st0" d="M286.5,24.6h-2.3v4.6h-5.4v-4.6h-11v-4.8l8.2-19.3h5.4l-8.2,19.3h5.5v-6.7h5.4v6.7h2.3L286.5,24.6z"/>
</svg>
