<?xml version="1.0" encoding="UTF-8"?>
<svg id="_レイヤー_2" data-name="レイヤー 2" xmlns="http://www.w3.org/2000/svg" xmlns:xlink="http://www.w3.org/1999/xlink" viewBox="0 0 600 80">
  <defs>
    <style>
      .cls-1 {
        fill: url(#_名称未設定グラデーション_18_コピー);
      }

      .cls-2 {
        fill: #fff;
      }

      .cls-3 {
        fill: #603;
      }
    </style>
    <linearGradient id="_名称未設定グラデーション_18_コピー" data-name="名称未設定グラデーション 18 コピー" x1="300" y1="2" x2="300" y2="78" gradientTransform="translate(260 340) rotate(-90)" gradientUnits="userSpaceOnUse">
      <stop offset="0" stop-color="#c36"/>
      <stop offset="1" stop-color="#f69"/>
    </linearGradient>
  </defs>
  <g id="en_zh3">
    <g id="UI_3d_en">
      <rect class="cls-3" width="600" height="80" rx="25" ry="25"/>
      <rect class="cls-1" x="262" y="-258" width="76" height="596" rx="23" ry="23" transform="translate(340 -260) rotate(90)"/>
      <g>
        <path class="cls-2" d="M178.18,29.67h-1.98v-1.62h11.09v1.62h-2.16c-.5,0-.86.14-1.06.41-.2.28-.31.53-.31.77v.47l7.31,20.48,7.31-20.48v-.43c0-.24-.12-.49-.36-.74-.24-.25-.58-.41-1.01-.49h-2.16v-1.62h9.4v1.62h-1.8c-.43.07-.83.26-1.21.58-.37.31-.63.67-.77,1.08l-8.35,23.36h-3.6l-8.35-23.36c-.34-.96-1-1.51-1.98-1.66Z"/>
        <path class="cls-2" d="M218.32,51.99c.17.72.6,1.08,1.3,1.08h1.51v1.62h-8.82v-1.62l1.91-.04c.48-.1.85-.44,1.12-1.04v-13.14h-2.7v-.72l4.28-2.16h1.4v16.02ZM215.21,32.1c-.47-.47-.7-1.03-.7-1.67s.23-1.21.7-1.67c.47-.47,1.03-.7,1.67-.7s1.21.23,1.67.7.7,1.03.7,1.67-.23,1.21-.7,1.67-1.03.7-1.67.7-1.21-.23-1.67-.7Z"/>
        <path class="cls-2" d="M245.75,53.46c-2.11,1.18-4.39,1.76-6.84,1.76h-.14c-2.9,0-5.19-.84-6.86-2.52-1.67-1.68-2.5-4.01-2.5-6.98s.82-5.26,2.45-6.84c1.8-1.7,4.07-2.56,6.82-2.56s4.76.86,6.05,2.59c1.28,1.73,1.93,3.91,1.93,6.55v.86h-13.82c.14,1.87.78,3.49,1.91,4.86,1.2,1.39,2.88,2.09,5.04,2.09s4.2-.71,6.12-2.12l-.14,2.3ZM243.7,44.46c-.07-3.94-1.68-5.9-4.82-5.9h-.07c-3.43,0-5.42,1.97-5.98,5.9h10.87Z"/>
        <path class="cls-2" d="M255.85,38.24h-1.44v-1.62h8.57v1.62h-1.62l-.54.47c-.19.17-.29.41-.29.72v.47l3.71,8.78,2.88-7.67-.47-1.12c-.43-1.06-.79-1.61-1.08-1.66h-1.01v-1.62h7.34v1.62h-1.19l-.54.47c-.19.26-.29.5-.29.72v.47l3.89,9.61,3.2-9.61h-.04v-.43c0-.22-.02-.44-.07-.68l-.72-.54h-1.62v-1.62h7.24v1.62h-1.26c-.72.12-1.2.67-1.44,1.66l-5.69,16.52-5.29-13-4.72,13-6.08-16.52c-.41-1.1-.89-1.66-1.44-1.66Z"/>
        <path class="cls-2" d="M314.24,51.99c.17.72.6,1.08,1.3,1.08h1.51v1.62h-8.82v-1.62l1.91-.04c.48-.1.85-.44,1.12-1.04v-13.14h-2.7v-.72l4.28-2.16h1.4v16.02ZM311.13,32.1c-.47-.47-.7-1.03-.7-1.67s.23-1.21.7-1.67c.47-.47,1.03-.7,1.67-.7s1.21.23,1.67.7.7,1.03.7,1.67-.23,1.21-.7,1.67-1.03.7-1.67.7-1.21-.23-1.67-.7Z"/>
        <path class="cls-2" d="M331.67,41.8c.84-3.67,2.75-5.51,5.72-5.51,4.25.02,6.37,2.08,6.37,6.16v9.54c.17.72.6,1.08,1.3,1.08h1.37v1.62h-8.68v-1.62l1.55-.04c.48-.1.85-.44,1.12-1.04v-8.17c0-3.7-1.01-5.54-3.02-5.54-3.82,0-5.72,3.79-5.72,11.38v2.34c.17.72.6,1.08,1.3,1.08h1.37v1.62h-8.32v-1.62l1.55-.04c.48-.1.85-.44,1.12-1.04v-13.14h-2.7v-.72l4.28-2.16h1.4v5.83Z"/>
        <path class="cls-2" d="M384.12,31.07c-.5-.36-1.43-.55-2.77-.58h-.07c-1.32,0-2.93.74-4.82,2.23l-1.04-1.44,1.04-.68c2.45-1.61,4.4-2.41,5.87-2.41s2.71.26,3.74.77c1.03.52,1.76,1.24,2.18,2.16.42.92.63,1.93.63,3.02s-.46,2.17-1.39,3.24c-.92,1.07-2.36,2.02-4.3,2.86,3.12.1,5.24,1.09,6.37,2.99.53.89.79,1.97.79,3.24,0,2.02-.69,3.68-2.07,4.99-1.38,1.31-3.17,2.31-5.38,3.01-1.27.41-2.59.61-3.96.61s-2.7-.1-4-.29l-.61-2.12.65.11.79.11c.53.07,1.28.11,2.25.11s1.85-.07,2.65-.22c1.44-.29,2.86-1,4.25-2.12,1.39-1.13,2.09-2.52,2.09-4.18,0-3.05-1.93-4.57-5.8-4.57h-.04c-.22-.02-.46-.04-.74-.04s-.73.08-1.35.25l-1.73.47-.29-2.09,1.48-.18c.5-.07,1.1-.28,1.8-.61,3.5-1.82,5.26-3.79,5.26-5.9,0-1.13-.49-2.04-1.48-2.74Z"/>
        <path class="cls-2" d="M414.33,28.23c1.58,0,3.13.65,4.64,1.96,1.51,1.31,2.72,2.99,3.64,5.06s1.37,4.12,1.37,6.17-.45,4.09-1.35,6.12-2.16,3.73-3.78,5.09-3.35,2.05-5.2,2.05h-14.69v-1.62h2.56c.67-.1,1.16-.44,1.48-1.04v-20.56c-.07-.41-.26-.76-.56-1.06-.3-.3-.68-.49-1.13-.56h-2.34v-1.62h15.37ZM412.17,52.89c1.51,0,2.88-.56,4.1-1.69,1.22-1.13,2.15-2.55,2.79-4.27.64-1.72.95-3.6.95-5.65s-.32-3.95-.97-5.69-1.59-3.13-2.83-4.16c-1.24-1.03-2.66-1.55-4.27-1.55h-4.07c-.65.1-1.14.46-1.48,1.08v20.45c.12.7.49,1.19,1.12,1.48h4.64Z"/>
      </g>
    </g>
  </g>
</svg>