<?xml version="1.0" encoding="UTF-8"?>
<svg id="_レイヤー_2" data-name="レイヤー 2" xmlns="http://www.w3.org/2000/svg" xmlns:xlink="http://www.w3.org/1999/xlink" viewBox="0 0 570 72">
  <defs>
    <style>
      .cls-1 {
        fill: #fff;
      }

      .cls-2 {
        fill: #603;
      }

      .cls-3 {
        fill: url(#_名称未設定グラデーション_598);
      }
    </style>
    <linearGradient id="_名称未設定グラデーション_598" data-name="名称未設定グラデーション 598" x1="285" y1="1.8" x2="285" y2="70.2" gradientTransform="translate(249 321) rotate(-90)" gradientUnits="userSpaceOnUse">
      <stop offset="0" stop-color="#de1659"/>
      <stop offset="1" stop-color="#c36"/>
    </linearGradient>
  </defs>
  <g id="en_zh3">
    <g id="UI_3d_push">
      <rect class="cls-2" width="570" height="72" rx="25" ry="25"/>
      <rect class="cls-3" x="250.8" y="-247.1" width="68.4" height="566.2" rx="23" ry="23" transform="translate(321 -249) rotate(90)"/>
    </g>
    <g id="_95_en" data-name="95_en">
      <path class="cls-1" d="M169.28,25.8h-1.88v-1.54h10.53v1.54h-2.05c-.48,0-.82.13-1.01.39-.19.26-.29.51-.29.73v.45l6.94,19.46,6.94-19.46v-.41c0-.23-.11-.46-.34-.7-.23-.24-.55-.39-.96-.46h-2.05v-1.54h8.93v1.54h-1.71c-.41.07-.79.25-1.15.55-.35.3-.6.64-.74,1.03l-7.93,22.2h-3.42l-7.93-22.2c-.32-.91-.95-1.44-1.88-1.57Z"/>
      <path class="cls-1" d="M207.41,47c.16.68.57,1.03,1.23,1.03h1.44v1.54h-8.38v-1.54l1.81-.03c.46-.09.81-.42,1.06-.99v-12.48h-2.56v-.68l4.07-2.05h1.33v15.22ZM204.45,28.11c-.44-.44-.67-.98-.67-1.59s.22-1.15.67-1.59c.44-.44.98-.67,1.59-.67s1.15.22,1.59.67.67.97.67,1.59-.22,1.15-.67,1.59-.97.67-1.59.67-1.15-.22-1.59-.67Z"/>
      <path class="cls-1" d="M233.47,48.4c-2.01,1.12-4.17,1.68-6.5,1.68h-.14c-2.76,0-4.93-.8-6.52-2.39-1.59-1.6-2.38-3.81-2.38-6.64s.78-4.99,2.33-6.5c1.71-1.62,3.87-2.43,6.48-2.43s4.53.82,5.75,2.46c1.22,1.64,1.83,3.72,1.83,6.22v.82h-13.13c.14,1.78.74,3.32,1.81,4.62,1.14,1.32,2.74,1.98,4.79,1.98s3.99-.67,5.81-2.02l-.14,2.19ZM231.52,39.85c-.07-3.74-1.6-5.61-4.58-5.61h-.07c-3.26,0-5.15,1.87-5.68,5.61h10.33Z"/>
      <path class="cls-1" d="M243.06,33.94h-1.37v-1.54h8.14v1.54h-1.54l-.51.45c-.18.16-.27.39-.27.68v.44l3.52,8.34,2.74-7.28-.44-1.06c-.41-1-.75-1.53-1.03-1.57h-.96v-1.54h6.98v1.54h-1.13l-.51.45c-.18.25-.27.48-.27.68v.44l3.69,9.13,3.04-9.13h-.03v-.41c0-.21-.02-.42-.07-.65l-.68-.51h-1.54v-1.54h6.87v1.54h-1.2c-.68.12-1.14.64-1.37,1.57l-5.4,15.7-5.03-12.35-4.48,12.35-5.78-15.7c-.39-1.05-.84-1.57-1.37-1.57Z"/>
      <path class="cls-1" d="M298.54,47c.16.68.57,1.03,1.23,1.03h1.44v1.54h-8.38v-1.54l1.81-.03c.46-.09.81-.42,1.06-.99v-12.48h-2.56v-.68l4.07-2.05h1.33v15.22ZM295.58,28.11c-.44-.44-.67-.98-.67-1.59s.22-1.15.67-1.59c.44-.44.98-.67,1.59-.67s1.15.22,1.59.67.67.97.67,1.59-.22,1.15-.67,1.59-.97.67-1.59.67-1.15-.22-1.59-.67Z"/>
      <path class="cls-1" d="M315.09,37.32c.8-3.49,2.61-5.23,5.44-5.23,4.04.02,6.05,1.97,6.05,5.85v9.06c.16.68.57,1.03,1.23,1.03h1.3v1.54h-8.24v-1.54l1.47-.03c.46-.09.81-.42,1.06-.99v-7.76c0-3.51-.96-5.27-2.87-5.27-3.63,0-5.44,3.6-5.44,10.81v2.22c.16.68.57,1.03,1.23,1.03h1.3v1.54h-7.9v-1.54l1.47-.03c.46-.09.81-.42,1.06-.99v-12.48h-2.57v-.68l4.07-2.05h1.33v5.54Z"/>
      <path class="cls-1" d="M364.92,27.13c-.48-.34-1.36-.52-2.63-.55h-.07c-1.25,0-2.78.71-4.58,2.12l-.99-1.37.99-.65c2.33-1.53,4.18-2.29,5.57-2.29s2.58.25,3.56.74c.98.49,1.67,1.17,2.07,2.05.4.88.6,1.84.6,2.87s-.44,2.06-1.32,3.08c-.88,1.01-2.24,1.92-4.09,2.72,2.96.09,4.98,1.04,6.05,2.84.5.84.75,1.87.75,3.08,0,1.92-.66,3.49-1.97,4.74-1.31,1.24-3.02,2.2-5.11,2.86-1.21.39-2.46.58-3.76.58s-2.57-.09-3.8-.27l-.58-2.02.62.1.75.1c.5.07,1.21.1,2.14.1s1.76-.07,2.51-.21c1.37-.27,2.71-.95,4.04-2.02,1.32-1.07,1.98-2.39,1.98-3.97,0-2.9-1.84-4.34-5.51-4.34h-.03c-.21-.02-.44-.03-.7-.03s-.69.08-1.28.24l-1.64.44-.27-1.98,1.4-.17c.48-.07,1.05-.26,1.71-.58,3.33-1.73,4.99-3.6,4.99-5.61,0-1.07-.47-1.94-1.4-2.6Z"/>
      <path class="cls-1" d="M393.62,24.43c1.5,0,2.98.62,4.41,1.86,1.44,1.24,2.59,2.84,3.45,4.81s1.3,3.92,1.3,5.87-.43,3.89-1.28,5.81-2.05,3.54-3.59,4.84-3.19,1.95-4.94,1.95h-13.95v-1.54h2.43c.64-.09,1.11-.42,1.4-.99v-19.53c-.07-.39-.25-.72-.53-1.01-.29-.28-.64-.46-1.08-.53h-2.22v-1.54h14.6ZM391.56,47.86c1.44,0,2.74-.54,3.9-1.61,1.16-1.07,2.05-2.42,2.65-4.05.6-1.63.91-3.42.91-5.37s-.31-3.75-.92-5.4-1.51-2.97-2.68-3.95c-1.17-.98-2.53-1.47-4.05-1.47h-3.86c-.62.09-1.08.43-1.4,1.03v19.43c.11.66.47,1.13,1.06,1.4h4.41Z"/>
    </g>
  </g>
</svg>