<?xml version="1.0" encoding="UTF-8"?>
<svg id="_レイヤー_2" data-name="レイヤー 2" xmlns="http://www.w3.org/2000/svg" xmlns:xlink="http://www.w3.org/1999/xlink" viewBox="0 0 332.5 72">
  <defs>
    <style>
      .cls-1 {
        fill: #fff;
      }

      .cls-2 {
        fill: #603;
      }

      .cls-3 {
        fill: url(#_名称未設定グラデーション_598);
      }
    </style>
    <linearGradient id="_名称未設定グラデーション_598" data-name="名称未設定グラデーション 598" x1="166.25" y1="1.8" x2="166.25" y2="70.2" gradientTransform="translate(130.25 202.25) rotate(-90)" gradientUnits="userSpaceOnUse">
      <stop offset="0" stop-color="#de1659"/>
      <stop offset="1" stop-color="#c36"/>
    </linearGradient>
  </defs>
  <g id="en_zh3">
    <g id="UI_check_push">
      <rect class="cls-2" width="332.5" height="72" rx="25" ry="25"/>
      <rect class="cls-3" x="132.05" y="-128.35" width="68.4" height="328.7" rx="23" ry="23" transform="translate(202.25 -130.25) rotate(90)"/>
    </g>
    <g id="_95_en" data-name="95_en">
      <path class="cls-1" d="M49.8,26.23h-1.88v-1.54h10.53v1.54h-2.05c-.48,0-.82.13-1.01.39-.19.26-.29.51-.29.74v.44l6.94,19.46,6.94-19.46v-.41c0-.23-.11-.46-.34-.7-.23-.24-.55-.39-.96-.46h-2.05v-1.54h8.93v1.54h-1.71c-.41.07-.79.25-1.15.55-.35.3-.6.64-.74,1.03l-7.93,22.2h-3.42l-7.93-22.2c-.32-.91-.95-1.44-1.88-1.57Z"/>
      <path class="cls-1" d="M84.51,47.44c.16.68.57,1.03,1.23,1.03h1.44v1.54h-8.38v-1.54l1.81-.03c.46-.09.81-.42,1.06-.99v-12.48h-2.56v-.68l4.07-2.05h1.33v15.22ZM81.55,28.54c-.44-.45-.67-.98-.67-1.59s.22-1.15.67-1.59c.44-.44.98-.67,1.59-.67s1.15.22,1.59.67.67.98.67,1.59-.22,1.15-.67,1.59c-.44.44-.97.67-1.59.67s-1.15-.22-1.59-.67Z"/>
      <path class="cls-1" d="M107.15,48.84c-2.01,1.12-4.17,1.68-6.5,1.68h-.14c-2.76,0-4.93-.8-6.52-2.39-1.59-1.6-2.38-3.81-2.38-6.63s.78-4.99,2.33-6.5c1.71-1.62,3.87-2.43,6.48-2.43s4.53.82,5.75,2.46c1.22,1.64,1.83,3.72,1.83,6.23v.82h-13.13c.14,1.78.74,3.32,1.81,4.62,1.14,1.32,2.74,1.98,4.79,1.98s3.99-.67,5.81-2.02l-.14,2.19ZM105.2,40.29c-.07-3.74-1.6-5.61-4.58-5.61h-.07c-3.26,0-5.15,1.87-5.68,5.61h10.33Z"/>
      <path class="cls-1" d="M113.32,34.37h-1.37v-1.54h8.14v1.54h-1.54l-.51.44c-.18.16-.27.39-.27.68v.45l3.52,8.34,2.74-7.28-.44-1.06c-.41-1-.75-1.53-1.03-1.57h-.96v-1.54h6.98v1.54h-1.13l-.51.44c-.18.25-.27.48-.27.68v.45l3.69,9.13,3.04-9.13h-.03v-.41c0-.21-.02-.42-.07-.65l-.68-.51h-1.54v-1.54h6.87v1.54h-1.2c-.68.11-1.14.64-1.37,1.57l-5.4,15.7-5.03-12.35-4.48,12.35-5.78-15.7c-.39-1.05-.84-1.57-1.37-1.57Z"/>
      <path class="cls-1" d="M171.36,24.87c1.5,0,2.98.62,4.41,1.86,1.44,1.24,2.59,2.84,3.45,4.8.87,1.96,1.3,3.92,1.3,5.87s-.43,3.89-1.28,5.81c-.85,1.93-2.05,3.54-3.59,4.84-1.54,1.3-3.19,1.95-4.94,1.95h-13.95v-1.54h2.43c.64-.09,1.11-.42,1.4-.99v-19.53c-.07-.39-.25-.72-.53-1.01-.29-.28-.64-.46-1.08-.53h-2.22v-1.54h14.6ZM169.31,48.29c1.44,0,2.74-.54,3.9-1.61,1.16-1.07,2.05-2.42,2.65-4.05.6-1.63.91-3.42.91-5.37s-.31-3.75-.92-5.4c-.62-1.65-1.51-2.97-2.68-3.95-1.17-.98-2.53-1.47-4.05-1.47h-3.86c-.62.09-1.08.43-1.4,1.03v19.43c.11.66.47,1.13,1.06,1.4h4.41Z"/>
      <path class="cls-1" d="M201.49,48.84c-2.01,1.12-4.17,1.68-6.5,1.68h-.14c-2.76,0-4.93-.8-6.52-2.39-1.59-1.6-2.38-3.81-2.38-6.63s.78-4.99,2.33-6.5c1.71-1.62,3.87-2.43,6.48-2.43s4.53.82,5.75,2.46c1.22,1.64,1.83,3.72,1.83,6.23v.82h-13.13c.14,1.78.74,3.32,1.81,4.62,1.14,1.32,2.74,1.98,4.79,1.98s3.99-.67,5.81-2.02l-.14,2.19ZM199.54,40.29c-.07-3.74-1.6-5.61-4.58-5.61h-.07c-3.26,0-5.15,1.87-5.68,5.61h10.33Z"/>
      <path class="cls-1" d="M214.89,50.31c-3.31,0-4.96-1.45-4.96-4.34v-10.47h-3.11v-1.64h1.3c1.69-.09,2.64-1.5,2.87-4.24l1.85-2.12v6.36h4.04v1.64h-4.04v9.51c0,2.35.63,3.52,1.88,3.52,1.53,0,2.7-.4,3.52-1.2v1.2c-.89,1.19-2.01,1.78-3.35,1.78Z"/>
      <path class="cls-1" d="M230.63,33.42h-.07c-1.89,0-3.98.98-6.26,2.94l.1-1.68c2.51-1.76,4.49-2.63,5.95-2.63h.75c1.57,0,2.67.16,3.28.48,1.62.78,2.43,1.95,2.43,3.52v11.7c.14.16.6.24,1.4.24.05,0,.47-.44,1.27-1.33v1.54c-.37,1.48-1.46,2.22-3.28,2.22-1.09,0-1.89-.95-2.39-2.84-1.35,1.89-2.9,2.84-4.65,2.84s-3.03-.23-3.83-.68c-1.48-.87-2.22-2.01-2.22-3.42,0-3.47,2.34-5.87,7.01-7.22.8-.23,2.03-.44,3.69-.65l.03-.82v-.17c0-1.64-.21-2.67-.62-3.08-.68-.64-1.55-.96-2.6-.96ZM233.81,39.78c-4.9.78-7.35,2.69-7.35,5.75,0,1.91.96,2.87,2.87,2.87,2.48,0,3.98-1.28,4.48-3.83v-4.79Z"/>
      <path class="cls-1" d="M250.03,47.44c.16.68.57,1.03,1.23,1.03h1.44v1.54h-8.38v-1.54l1.81-.03c.46-.09.81-.42,1.06-.99v-12.48h-2.56v-.68l4.07-2.05h1.33v15.22ZM247.07,28.54c-.44-.45-.67-.98-.67-1.59s.22-1.15.67-1.59c.44-.44.98-.67,1.59-.67s1.15.22,1.59.67.67.98.67,1.59-.22,1.15-.67,1.59c-.44.44-.97.67-1.59.67s-1.15-.22-1.59-.67Z"/>
      <path class="cls-1" d="M263.55,22.3v25.14c.16.68.46,1.03.89,1.03h1.81v1.54h-8.31v-1.54l1.98-.03c.07-.09.31-.42.72-.99v-22.4h-2.57v-.68l4.07-2.05h1.4Z"/>
      <path class="cls-1" d="M277.39,32.77h.17c1.16,0,2.37.46,3.63,1.37.14,0,.22-.08.24-.24l.17-1.74h1.71l.68,6.63c-2.14-2.78-4.26-4.17-6.36-4.17s-3.15.68-3.15,2.05c0,1.25,1.37,2.22,4.1,2.91,1.71.43,2.99.86,3.83,1.27,1.8.91,2.7,2.3,2.7,4.17v.1c0,1.41-.6,2.63-1.8,3.66-1.2,1.03-2.82,1.54-4.87,1.54-1.3,0-2.78-.83-4.45-2.5-.09.57-.17,1.31-.24,2.22h-1.71l-.68-6.98c3.19,3.58,5.53,5.37,7.01,5.37,2.33,0,3.49-.83,3.49-2.5,0-1.46-1.39-2.61-4.17-3.45-1.28-.36-2.35-.75-3.22-1.15s-1.56-.95-2.07-1.64c-.51-.69-.77-1.44-.77-2.22s.24-1.51.72-2.17c1.21-1.69,2.88-2.53,5.03-2.53Z"/>
    </g>
  </g>
</svg>