<?xml version="1.0" encoding="UTF-8"?>
<svg id="_レイヤー_2" data-name="レイヤー 2" xmlns="http://www.w3.org/2000/svg" xmlns:xlink="http://www.w3.org/1999/xlink" viewBox="0 0 350 80">
  <defs>
    <style>
      .cls-1 {
        fill: url(#_名称未設定グラデーション_18_コピー);
      }

      .cls-2 {
        fill: #fff;
      }

      .cls-3 {
        fill: #603;
      }
    </style>
    <linearGradient id="_名称未設定グラデーション_18_コピー" data-name="名称未設定グラデーション 18 コピー" x1="175" y1="2" x2="175" y2="78" gradientTransform="translate(135 215) rotate(-90)" gradientUnits="userSpaceOnUse">
      <stop offset="0" stop-color="#c36"/>
      <stop offset="1" stop-color="#f69"/>
    </linearGradient>
  </defs>
  <g id="en_zh3">
    <g id="UI_check_en">
      <rect class="cls-3" width="350" height="80" rx="25" ry="25"/>
      <rect class="cls-1" x="137" y="-133" width="76" height="346" rx="23" ry="23" transform="translate(215 -135) rotate(90)"/>
      <g>
        <path class="cls-2" d="M52.41,29.67h-1.98v-1.62h11.09v1.62h-2.16c-.5,0-.86.14-1.06.41-.2.28-.31.53-.31.77v.47l7.31,20.48,7.31-20.48v-.43c0-.24-.12-.49-.36-.74-.24-.25-.58-.41-1.01-.49h-2.16v-1.62h9.4v1.62h-1.8c-.43.07-.83.26-1.21.58-.37.31-.63.67-.77,1.08l-8.35,23.36h-3.6l-8.35-23.36c-.34-.96-1-1.51-1.98-1.66Z"/>
        <path class="cls-2" d="M88.95,51.99c.17.72.6,1.08,1.3,1.08h1.51v1.62h-8.82v-1.62l1.91-.04c.48-.1.85-.44,1.12-1.04v-13.14h-2.7v-.72l4.28-2.16h1.4v16.02ZM85.83,32.1c-.47-.47-.7-1.03-.7-1.67s.23-1.21.7-1.67c.47-.47,1.03-.7,1.67-.7s1.21.23,1.67.7.7,1.03.7,1.67-.23,1.21-.7,1.67c-.47.47-1.03.7-1.67.7s-1.21-.23-1.67-.7Z"/>
        <path class="cls-2" d="M112.77,53.46c-2.11,1.18-4.39,1.76-6.84,1.76h-.14c-2.9,0-5.19-.84-6.86-2.52-1.67-1.68-2.5-4.01-2.5-6.98s.82-5.26,2.45-6.84c1.8-1.7,4.07-2.56,6.82-2.56s4.76.86,6.05,2.59c1.28,1.73,1.93,3.91,1.93,6.55v.86h-13.82c.14,1.87.78,3.49,1.91,4.86,1.2,1.39,2.88,2.09,5.04,2.09s4.2-.71,6.12-2.12l-.14,2.3ZM110.72,44.46c-.07-3.94-1.68-5.9-4.82-5.9h-.07c-3.43,0-5.42,1.97-5.98,5.9h10.87Z"/>
        <path class="cls-2" d="M119.27,38.24h-1.44v-1.62h8.57v1.62h-1.62l-.54.47c-.19.17-.29.41-.29.72v.47l3.71,8.78,2.88-7.67-.47-1.12c-.43-1.06-.79-1.61-1.08-1.66h-1.01v-1.62h7.34v1.62h-1.19l-.54.47c-.19.26-.29.5-.29.72v.47l3.89,9.61,3.2-9.61h-.04v-.43c0-.22-.02-.44-.07-.68l-.72-.54h-1.62v-1.62h7.24v1.62h-1.26c-.72.12-1.2.67-1.44,1.66l-5.69,16.52-5.29-13-4.72,13-6.08-16.52c-.41-1.1-.89-1.66-1.44-1.66Z"/>
        <path class="cls-2" d="M180.37,28.23c1.58,0,3.13.65,4.64,1.96,1.51,1.31,2.72,2.99,3.64,5.06.91,2.06,1.37,4.12,1.37,6.17s-.45,4.09-1.35,6.12c-.9,2.03-2.16,3.73-3.78,5.09-1.62,1.37-3.35,2.05-5.2,2.05h-14.69v-1.62h2.56c.67-.1,1.16-.44,1.48-1.04v-20.56c-.07-.41-.26-.76-.56-1.06-.3-.3-.68-.49-1.13-.56h-2.34v-1.62h15.37ZM178.21,52.89c1.51,0,2.88-.56,4.1-1.69,1.22-1.13,2.15-2.55,2.79-4.27.64-1.72.95-3.6.95-5.65s-.32-3.95-.97-5.69c-.65-1.74-1.59-3.12-2.83-4.16-1.24-1.03-2.66-1.55-4.27-1.55h-4.07c-.65.1-1.14.46-1.48,1.08v20.45c.12.7.49,1.19,1.12,1.48h4.64Z"/>
        <path class="cls-2" d="M212.08,53.46c-2.11,1.18-4.39,1.76-6.84,1.76h-.14c-2.9,0-5.19-.84-6.86-2.52-1.67-1.68-2.5-4.01-2.5-6.98s.82-5.26,2.45-6.84c1.8-1.7,4.07-2.56,6.82-2.56s4.76.86,6.05,2.59c1.28,1.73,1.93,3.91,1.93,6.55v.86h-13.82c.14,1.87.78,3.49,1.91,4.86,1.2,1.39,2.88,2.09,5.04,2.09s4.2-.71,6.12-2.12l-.14,2.3ZM210.03,44.46c-.07-3.94-1.68-5.9-4.82-5.9h-.07c-3.43,0-5.42,1.97-5.98,5.9h10.87Z"/>
        <path class="cls-2" d="M226.19,55.01c-3.48,0-5.22-1.52-5.22-4.57v-11.02h-3.28v-1.73h1.37c1.78-.1,2.78-1.58,3.02-4.46l1.94-2.23v6.7h4.25v1.73h-4.25v10.01c0,2.47.66,3.71,1.98,3.71,1.61,0,2.84-.42,3.71-1.26v1.26c-.94,1.25-2.11,1.87-3.53,1.87Z"/>
        <path class="cls-2" d="M242.75,37.23h-.07c-1.99,0-4.19,1.03-6.59,3.1l.11-1.76c2.64-1.85,4.73-2.77,6.26-2.77h.79c1.66,0,2.81.17,3.46.5,1.7.82,2.56,2.05,2.56,3.71v12.31c.14.17.64.25,1.48.25.05,0,.49-.47,1.33-1.4v1.62c-.38,1.56-1.54,2.34-3.46,2.34-1.15,0-1.99-1-2.52-2.99-1.42,1.99-3.05,2.99-4.9,2.99s-3.19-.24-4.03-.72c-1.56-.91-2.34-2.11-2.34-3.6,0-3.65,2.46-6.18,7.38-7.6.84-.24,2.14-.47,3.89-.68l.04-.86v-.18c0-1.73-.22-2.81-.65-3.24-.72-.67-1.63-1.01-2.74-1.01ZM246.1,43.92c-5.16.82-7.74,2.83-7.74,6.05,0,2.02,1.01,3.02,3.02,3.02,2.62,0,4.19-1.34,4.72-4.03v-5.04Z"/>
        <path class="cls-2" d="M263.18,51.99c.17.72.6,1.08,1.3,1.08h1.51v1.62h-8.82v-1.62l1.91-.04c.48-.1.85-.44,1.12-1.04v-13.14h-2.7v-.72l4.28-2.16h1.4v16.02ZM260.06,32.1c-.47-.47-.7-1.03-.7-1.67s.23-1.21.7-1.67c.47-.47,1.03-.7,1.67-.7s1.21.23,1.67.7.7,1.03.7,1.67-.23,1.21-.7,1.67c-.47.47-1.03.7-1.67.7s-1.21-.23-1.67-.7Z"/>
        <path class="cls-2" d="M277.41,25.53v26.46c.17.72.48,1.08.94,1.08h1.91v1.62h-8.75v-1.62l2.09-.04c.07-.1.32-.44.76-1.04v-23.58h-2.7v-.72l4.28-2.16h1.48Z"/>
        <path class="cls-2" d="M291.98,36.54h.18c1.22,0,2.5.48,3.82,1.44.14,0,.23-.08.25-.25l.18-1.84h1.8l.72,6.98c-2.26-2.93-4.49-4.39-6.7-4.39s-3.31.72-3.31,2.16c0,1.32,1.44,2.34,4.32,3.06,1.8.46,3.14.9,4.03,1.33,1.9.96,2.84,2.42,2.84,4.39v.11c0,1.49-.63,2.77-1.89,3.85-1.26,1.08-2.97,1.62-5.13,1.62-1.37,0-2.93-.88-4.68-2.63-.1.6-.18,1.38-.25,2.34h-1.8l-.72-7.34c3.36,3.77,5.82,5.65,7.38,5.65,2.45,0,3.67-.88,3.67-2.63,0-1.54-1.46-2.75-4.39-3.64-1.34-.38-2.47-.79-3.38-1.21s-1.64-1-2.18-1.73c-.54-.73-.81-1.51-.81-2.34s.25-1.59.76-2.29c1.27-1.78,3.04-2.66,5.29-2.66Z"/>
      </g>
    </g>
  </g>
</svg>