<?xml version="1.0" encoding="UTF-8"?>
<svg id="_レイヤー_2" data-name="レイヤー 2" xmlns="http://www.w3.org/2000/svg" xmlns:xlink="http://www.w3.org/1999/xlink" viewBox="0 0 570 72">
  <defs>
    <style>
      .cls-1 {
        fill: #fff;
      }

      .cls-2 {
        fill: #603;
      }

      .cls-3 {
        fill: url(#_名称未設定グラデーション_598);
      }
    </style>
    <linearGradient id="_名称未設定グラデーション_598" data-name="名称未設定グラデーション 598" x1="285" y1="1.8" x2="285" y2="70.2" gradientTransform="translate(249 321) rotate(-90)" gradientUnits="userSpaceOnUse">
      <stop offset="0" stop-color="#de1659"/>
      <stop offset="1" stop-color="#c36"/>
    </linearGradient>
  </defs>
  <g id="en_zh3">
    <g id="UI_form_push">
      <rect class="cls-2" width="570" height="72" rx="25" ry="25"/>
      <rect class="cls-3" x="250.8" y="-247.1" width="68.4" height="566.2" rx="23" ry="23" transform="translate(321 -249) rotate(90)"/>
    </g>
    <g id="_95_en" data-name="95_en">
      <path class="cls-1" d="M152.16,23.89c3.33,0,5.63.64,6.91,1.91.96-.98,1.57-1.97,1.85-2.98h1.37v9.17c-.52-1.25-1.22-2.35-2.09-3.28-1.82-1.98-3.89-2.98-6.19-2.98h-.07c-2.76,0-5.23,1.31-7.42,3.93-1.39,1.66-2.09,3.79-2.09,6.36,0,3.26.86,6.04,2.57,8.33s3.82,3.44,6.33,3.44c3.88,0,6.68-1.06,8.41-3.18l.68-.92.99.82c-.89,1.16-1.51,1.9-1.86,2.21-.35.31-.73.61-1.13.91-.4.3-.79.54-1.16.72-.38.18-.64.32-.8.41l-.51.21c-1.64.62-3.36.92-5.16.92s-3.41-.33-4.84-.99c-1.43-.66-2.65-1.6-3.68-2.81-1.03-1.21-1.86-2.7-2.5-4.48-.64-1.78-.96-3.5-.96-5.16,0-4.19,1.78-7.65,5.34-10.36,1.94-1.46,3.94-2.19,6.02-2.19Z"/>
      <path class="cls-1" d="M180.29,50.15c-2.31,0-4.27-.89-5.87-2.67s-2.39-3.91-2.39-6.4.8-4.64,2.39-6.46c1.6-1.82,3.55-2.74,5.87-2.74s4.31.91,5.99,2.74c1.68,1.82,2.51,3.98,2.51,6.46s-.84,4.62-2.51,6.4c-1.68,1.78-3.67,2.67-5.99,2.67ZM185.23,41.07c0-2.5-.47-4.38-1.4-5.66-.94-1.28-2.16-1.92-3.68-1.92s-2.69.62-3.52,1.86c-.83,1.24-1.25,3.14-1.25,5.69s.47,4.45,1.4,5.68c.93,1.23,2.17,1.85,3.69,1.85s2.7-.63,3.52-1.88c.82-1.25,1.23-3.13,1.23-5.63Z"/>
      <path class="cls-1" d="M202.1,37.26c.8-3.49,2.61-5.23,5.44-5.23,4.04.02,6.05,1.97,6.05,5.85v9.06c.16.68.57,1.03,1.23,1.03h1.3v1.54h-8.24v-1.54l1.47-.03c.46-.09.81-.42,1.06-.99v-7.76c0-3.51-.96-5.27-2.87-5.27-3.63,0-5.44,3.6-5.44,10.81v2.22c.16.68.57,1.03,1.23,1.03h1.3v1.54h-7.9v-1.54l1.47-.03c.46-.09.81-.42,1.06-.99v-12.48h-2.57v-.68l4.07-2.05h1.33v5.54Z"/>
      <path class="cls-1" d="M231.13,49.81c-3.31,0-4.96-1.45-4.96-4.34v-10.47h-3.11v-1.64h1.3c1.69-.09,2.64-1.5,2.87-4.24l1.85-2.12v6.36h4.04v1.64h-4.04v9.51c0,2.35.63,3.52,1.88,3.52,1.53,0,2.7-.4,3.52-1.2v1.2c-.89,1.19-2.01,1.78-3.35,1.78Z"/>
      <path class="cls-1" d="M250.29,32.92h-.07c-1.89,0-3.98.98-6.26,2.94l.1-1.68c2.51-1.76,4.49-2.63,5.95-2.63h.75c1.57,0,2.67.16,3.28.48,1.62.78,2.43,1.95,2.43,3.52v11.7c.14.16.6.24,1.4.24.05,0,.47-.44,1.27-1.33v1.54c-.37,1.48-1.46,2.22-3.28,2.22-1.09,0-1.89-.95-2.39-2.84-1.35,1.89-2.9,2.84-4.65,2.84s-3.03-.23-3.83-.68c-1.48-.87-2.22-2.01-2.22-3.42,0-3.47,2.34-5.87,7.01-7.22.8-.23,2.03-.45,3.69-.65l.03-.82v-.17c0-1.64-.21-2.67-.62-3.08-.68-.64-1.55-.96-2.6-.96ZM253.47,39.28c-4.9.78-7.35,2.69-7.35,5.75,0,1.91.96,2.87,2.87,2.87,2.48,0,3.98-1.28,4.48-3.83v-4.79Z"/>
      <path class="cls-1" d="M280.7,47.14l1.09.68c-1.62,1.37-3.24,2.05-4.86,2.05h-.44c-2.87,0-5.04-.69-6.5-2.09-1.94-1.85-2.91-4.17-2.91-6.96s.97-4.98,2.91-6.55c1.73-1.39,3.9-2.09,6.52-2.09s4.23.6,4.87,1.81l-.89,2.46c-.41-1.39-1.74-2.09-4-2.09s-3.83.65-4.7,1.95c-.88,1.3-1.32,2.95-1.32,4.96s.61,3.62,1.83,4.84c1.22,1.22,2.96,1.83,5.22,1.83,1.12,0,2.18-.27,3.18-.82Z"/>
      <path class="cls-1" d="M297.93,49.81c-3.31,0-4.96-1.45-4.96-4.34v-10.47h-3.11v-1.64h1.3c1.69-.09,2.64-1.5,2.87-4.24l1.85-2.12v6.36h4.04v1.64h-4.04v9.51c0,2.35.63,3.52,1.88,3.52,1.53,0,2.7-.4,3.52-1.2v1.2c-.89,1.19-2.01,1.78-3.35,1.78Z"/>
      <path class="cls-1" d="M340.44,35.28c1.14-.37,1.71-1.12,1.71-2.26v-1.54h1.54v9.17h-1.54v-1.74c0-.89-.57-1.57-1.71-2.05h-6.29v9.54c.11.66.47,1.15,1.06,1.47h3.01v1.64h-11.15v-1.54h2.43c.64-.09,1.1-.42,1.4-.99v-19.53c-.07-.39-.24-.72-.53-1.01-.29-.28-.64-.46-1.08-.53h-2.22v-1.54h20.66v5.44h-1.54v-2.09c-.09-.64-.66-1.22-1.71-1.74h-9.1c-.39.07-.8.5-1.23,1.3v8h6.29Z"/>
      <path class="cls-1" d="M363.12,50.15c-2.31,0-4.27-.89-5.87-2.67-1.6-1.78-2.39-3.91-2.39-6.4s.8-4.64,2.39-6.46c1.6-1.82,3.55-2.74,5.87-2.74s4.31.91,5.98,2.74c1.68,1.82,2.51,3.98,2.51,6.46s-.84,4.62-2.51,6.4-3.67,2.67-5.98,2.67ZM368.06,41.07c0-2.5-.47-4.38-1.4-5.66-.94-1.28-2.16-1.92-3.68-1.92s-2.69.62-3.52,1.86-1.25,3.14-1.25,5.69.47,4.45,1.4,5.68,2.17,1.85,3.69,1.85,2.7-.63,3.52-1.88c.82-1.25,1.23-3.13,1.23-5.63Z"/>
      <path class="cls-1" d="M390.09,31.51c2.1,0,3.18,1.63,3.25,4.89l-.75.45c-.39-1.78-1.16-2.67-2.32-2.67-3.51,0-5.27,2.19-5.27,6.57v6.19c.16.68.57,1.03,1.23,1.03h1.64v1.54h-8.58v-1.54l1.81-.03c.46-.09.81-.42,1.06-.99v-12.52h-2.57v-.68l4.07-2.05h1.33v5.54c.59-3.81,2.29-5.71,5.1-5.71Z"/>
      <path class="cls-1" d="M416.24,36.13c.55-2.74,2.07-4.1,4.58-4.1,1.91,0,3.41.38,4.48,1.14,1.07.76,1.61,2.12,1.61,4.05v9.71c.16.68.57,1.03,1.23,1.03h1.3v1.54h-7.9v-1.54l1.47-.03h.03c.27,0,.62-.33,1.03-.99v-9.06c0-1.32-.29-2.31-.87-2.98-.58-.66-1.33-.99-2.24-.99-2.69,0-4.03,1.72-4.03,5.16v7.87c.16.68.57,1.03,1.23,1.03h1.3v1.54h-7.9v-1.54l1.47-.03h.03c.27,0,.62-.33,1.03-.99v-8.86c0-1.32-.28-2.35-.84-3.08-.56-.73-1.29-1.09-2.21-1.09-2.74,0-4.1,2.44-4.1,7.32v5.71c.16.68.57,1.03,1.23,1.03h1.3v1.54h-7.9v-1.54l1.47-.03c.46-.09.81-.42,1.06-.99v-12.48h-2.57v-.68l4.07-2.05h1.33v4.45c.57-2.74,1.85-4.12,3.83-4.14h.1c3.42,0,5.21,1.37,5.37,4.1Z"/>
    </g>
  </g>
</svg>