<?xml version="1.0" encoding="UTF-8"?>
<svg id="_レイヤー_2" data-name="レイヤー 2" xmlns="http://www.w3.org/2000/svg" xmlns:xlink="http://www.w3.org/1999/xlink" viewBox="0 0 420 80">
  <defs>
    <style>
      .cls-1 {
        fill: url(#_名称未設定グラデーション_18_コピー);
      }

      .cls-2 {
        fill: #fff;
      }

      .cls-3 {
        fill: #603;
      }
    </style>
    <linearGradient id="_名称未設定グラデーション_18_コピー" data-name="名称未設定グラデーション 18 コピー" x1="210" y1="2" x2="210" y2="78" gradientTransform="translate(170 250) rotate(-90)" gradientUnits="userSpaceOnUse">
      <stop offset="0" stop-color="#c36"/>
      <stop offset="1" stop-color="#f69"/>
    </linearGradient>
  </defs>
  <g id="en_zh3">
    <g id="UI_form_short">
      <rect class="cls-3" width="420" height="80" rx="25" ry="25"/>
      <rect class="cls-1" x="172" y="-168" width="76" height="416" rx="23" ry="23" transform="translate(250 -170) rotate(90)"/>
      <g>
        <path class="cls-2" d="M98.95,27.34c3.5,0,5.93.67,7.27,2.02,1.01-1.03,1.66-2.08,1.94-3.13h1.44v9.65c-.55-1.32-1.28-2.47-2.2-3.46-1.92-2.09-4.09-3.13-6.52-3.13h-.07c-2.9,0-5.51,1.38-7.81,4.14-1.46,1.75-2.2,3.98-2.2,6.7,0,3.43.9,6.35,2.7,8.77,1.8,2.41,4.02,3.62,6.66,3.62,4.08,0,7.03-1.12,8.86-3.35l.72-.97,1.04.86c-.94,1.22-1.59,2-1.96,2.32-.37.32-.77.64-1.19.95-.42.31-.83.56-1.22.76-.4.19-.68.34-.85.43l-.54.22c-1.73.65-3.54.97-5.44.97s-3.59-.35-5.09-1.04c-1.5-.7-2.79-1.68-3.87-2.95-1.08-1.27-1.96-2.84-2.63-4.72-.67-1.87-1.01-3.68-1.01-5.44,0-4.42,1.87-8.05,5.62-10.91,2.04-1.54,4.15-2.3,6.34-2.3Z"/>
        <path class="cls-2" d="M128.56,54.98c-2.44,0-4.49-.94-6.17-2.81-1.68-1.87-2.52-4.12-2.52-6.73s.84-4.88,2.52-6.8c1.68-1.92,3.74-2.88,6.17-2.88s4.54.96,6.3,2.88c1.76,1.92,2.65,4.19,2.65,6.8s-.88,4.86-2.65,6.73c-1.76,1.87-3.86,2.81-6.3,2.81ZM133.76,45.43c0-2.63-.49-4.61-1.48-5.96-.98-1.34-2.27-2.02-3.87-2.02s-2.83.65-3.71,1.96c-.88,1.31-1.31,3.31-1.31,5.99s.49,4.68,1.48,5.98c.98,1.3,2.28,1.94,3.89,1.94s2.84-.66,3.71-1.98c.86-1.32,1.3-3.29,1.3-5.92Z"/>
        <path class="cls-2" d="M151.52,41.41c.84-3.67,2.75-5.51,5.72-5.51,4.25.02,6.37,2.08,6.37,6.16v9.54c.17.72.6,1.08,1.3,1.08h1.37v1.62h-8.68v-1.62l1.55-.04c.48-.1.85-.44,1.12-1.04v-8.17c0-3.7-1.01-5.54-3.02-5.54-3.82,0-5.72,3.79-5.72,11.38v2.34c.17.72.6,1.08,1.3,1.08h1.37v1.62h-8.32v-1.62l1.55-.04c.48-.1.85-.44,1.12-1.04v-13.14h-2.7v-.72l4.28-2.16h1.4v5.83Z"/>
        <path class="cls-2" d="M182.08,54.63c-3.48,0-5.22-1.52-5.22-4.57v-11.02h-3.28v-1.73h1.37c1.78-.1,2.78-1.58,3.02-4.46l1.94-2.23v6.7h4.25v1.73h-4.25v10.01c0,2.47.66,3.71,1.98,3.71,1.61,0,2.84-.42,3.71-1.26v1.26c-.94,1.25-2.11,1.87-3.53,1.87Z"/>
        <path class="cls-2" d="M202.25,36.84h-.07c-1.99,0-4.19,1.03-6.59,3.1l.11-1.76c2.64-1.85,4.73-2.77,6.26-2.77h.79c1.66,0,2.81.17,3.46.5,1.7.82,2.56,2.05,2.56,3.71v12.31c.14.17.64.25,1.48.25.05,0,.49-.47,1.33-1.4v1.62c-.38,1.56-1.54,2.34-3.46,2.34-1.15,0-1.99-1-2.52-2.99-1.42,1.99-3.05,2.99-4.9,2.99s-3.19-.24-4.03-.72c-1.56-.91-2.34-2.11-2.34-3.6,0-3.65,2.46-6.18,7.38-7.6.84-.24,2.14-.47,3.89-.68l.04-.86v-.18c0-1.73-.22-2.81-.65-3.24-.72-.67-1.63-1.01-2.74-1.01ZM205.6,43.54c-5.16.82-7.74,2.83-7.74,6.05,0,2.02,1.01,3.02,3.02,3.02,2.62,0,4.19-1.34,4.72-4.03v-5.04Z"/>
        <path class="cls-2" d="M234.26,51.82l1.15.72c-1.7,1.44-3.41,2.16-5.11,2.16h-.47c-3.02,0-5.3-.73-6.84-2.2-2.04-1.94-3.06-4.39-3.06-7.33s1.02-5.24,3.06-6.89c1.82-1.46,4.11-2.2,6.86-2.2s4.46.64,5.13,1.91l-.94,2.59c-.43-1.46-1.84-2.2-4.21-2.2s-4.03.68-4.95,2.05-1.39,3.11-1.39,5.22.64,3.81,1.93,5.09c1.28,1.28,3.11,1.93,5.49,1.93,1.18,0,2.29-.29,3.35-.86Z"/>
        <path class="cls-2" d="M252.39,54.63c-3.48,0-5.22-1.52-5.22-4.57v-11.02h-3.28v-1.73h1.37c1.78-.1,2.78-1.58,3.02-4.46l1.94-2.23v6.7h4.25v1.73h-4.25v10.01c0,2.47.66,3.71,1.98,3.71,1.61,0,2.84-.42,3.71-1.26v1.26c-.94,1.25-2.11,1.87-3.53,1.87Z"/>
        <path class="cls-2" d="M285.04,29.28h-1.98v-1.62h11.09v1.62h-2.16c-.5,0-.86.14-1.06.41-.2.28-.31.53-.31.77v13.75c0,5.3,2.4,7.96,7.2,7.96s7.16-2.65,7.38-7.96v-13.72c0-.24-.11-.49-.34-.74s-.56-.41-.99-.49h-2.16v-1.62h9.4v1.62h-1.8c-.34.05-.75.25-1.24.59-.49.35-.74.7-.74,1.06v13.28c0,6.72-3.2,10.08-9.61,10.08-7.13,0-10.69-3.36-10.69-10.08v-13.28c0-.91-.66-1.46-1.98-1.66Z"/>
        <path class="cls-2" d="M325.4,36.16h.18c1.22,0,2.5.48,3.82,1.44.14,0,.23-.08.25-.25l.18-1.84h1.8l.72,6.98c-2.26-2.93-4.49-4.39-6.7-4.39s-3.31.72-3.31,2.16c0,1.32,1.44,2.34,4.32,3.06,1.8.46,3.14.9,4.03,1.33,1.9.96,2.84,2.42,2.84,4.39v.11c0,1.49-.63,2.77-1.89,3.85-1.26,1.08-2.97,1.62-5.13,1.62-1.37,0-2.93-.88-4.68-2.63-.1.6-.18,1.38-.25,2.34h-1.8l-.72-7.34c3.36,3.77,5.82,5.65,7.38,5.65,2.45,0,3.67-.88,3.67-2.63,0-1.54-1.46-2.75-4.39-3.64-1.34-.38-2.47-.79-3.38-1.21s-1.64-1-2.18-1.73c-.54-.73-.81-1.51-.81-2.34s.25-1.59.76-2.29c1.27-1.78,3.04-2.66,5.29-2.66Z"/>
      </g>
    </g>
  </g>
</svg>