<?xml version="1.0" encoding="UTF-8"?>
<svg id="_レイヤー_2" data-name="レイヤー 2" xmlns="http://www.w3.org/2000/svg" xmlns:xlink="http://www.w3.org/1999/xlink" viewBox="0 0 570 72">
  <defs>
    <style>
      .cls-1 {
        fill: #fff;
      }

      .cls-2 {
        fill: #603;
      }

      .cls-3 {
        fill: url(#_名称未設定グラデーション_598);
      }
    </style>
    <linearGradient id="_名称未設定グラデーション_598" data-name="名称未設定グラデーション 598" x1="285" y1="1.8" x2="285" y2="70.2" gradientTransform="translate(249 321) rotate(-90)" gradientUnits="userSpaceOnUse">
      <stop offset="0" stop-color="#de1659"/>
      <stop offset="1" stop-color="#c36"/>
    </linearGradient>
  </defs>
  <g id="en1">
    <g id="UI_inquiry_push_en">
      <g id="_95_90" data-name="95_90">
        <rect class="cls-2" x="0" y="0" width="570" height="72" rx="25" ry="25"/>
        <rect class="cls-3" x="250.8" y="-247.1" width="68.4" height="566.2" rx="23" ry="23" transform="translate(321 -249) rotate(90)"/>
      </g>
      <g id="_95" data-name="95">
        <path class="cls-1" d="M126.27,48.59h1.88v1.54h-10.36v-1.54h2.05c.48,0,.81-.14,1.01-.41.19-.27.29-.51.29-.72v-.44l-2.29-5.71h-9.27l-2.33,5.71v.41c0,.23.13.48.39.75.26.27.56.41.91.41h2.05v1.54h-8.93v-1.54h1.71c.39,0,.76-.18,1.13-.53.36-.35.62-.7.75-1.04l9.58-23.67,9.54,23.67c.36.91.99,1.44,1.88,1.57ZM110.23,39.7h7.97l-3.93-9.85-4.04,9.85Z"/>
        <path class="cls-1" d="M137.51,34.84c1.25-1.53,2.88-2.3,4.89-2.33h.1c2.37,0,4.29.85,5.76,2.55,1.47,1.7,2.21,3.92,2.21,6.67s-.75,4.92-2.24,6.52c-1.49,1.6-3.4,2.39-5.73,2.39h-.1c-1.98-.02-3.63-.77-4.92-2.26v4.82c.16.68.57,1.03,1.23,1.03h1.64v1.54h-8.58v-1.54l1.81-.03c.46-.09.81-.42,1.06-.99v-18.4h-2.56v-.68l4.07-2.05h1.37v2.77ZM145.58,36.62c-.82-1.25-1.97-1.88-3.45-1.88-2.71,0-4.23,2.03-4.55,6.09v1.85c.21,3.79,1.72,5.69,4.55,5.71,1.37,0,2.48-.59,3.35-1.78.87-1.19,1.32-2.85,1.37-4.99-.02-2.07-.44-3.74-1.27-4.99Z"/>
        <path class="cls-1" d="M160.44,34.84c1.25-1.53,2.88-2.3,4.89-2.33h.1c2.37,0,4.29.85,5.76,2.55,1.47,1.7,2.21,3.92,2.21,6.67s-.75,4.92-2.24,6.52c-1.49,1.6-3.4,2.39-5.73,2.39h-.1c-1.98-.02-3.63-.77-4.92-2.26v4.82c.16.68.57,1.03,1.23,1.03h1.64v1.54h-8.58v-1.54l1.81-.03c.46-.09.81-.42,1.06-.99v-18.4h-2.56v-.68l4.07-2.05h1.37v2.77ZM168.52,36.62c-.82-1.25-1.97-1.88-3.45-1.88-2.71,0-4.23,2.03-4.55,6.09v1.85c.21,3.79,1.72,5.69,4.55,5.71,1.37,0,2.48-.59,3.35-1.78.87-1.19,1.32-2.85,1.37-4.99-.02-2.07-.44-3.74-1.27-4.99Z"/>
        <path class="cls-1" d="M183.65,22.43v25.14c.16.68.46,1.03.89,1.03h1.81v1.54h-8.31v-1.54l1.98-.03c.07-.09.31-.42.72-.99v-22.4h-2.57v-.68l4.07-2.05h1.4Z"/>
        <path class="cls-1" d="M196.08,35.46c0,.14.01.34.03.62l5.06,10.5,4.58-10.5v-.41c0-.21-.02-.43-.07-.67-.05-.24-.27-.39-.68-.46v-.03h-1.54v-1.54h6.87v1.54h-1.2s-.25.22-.6.51c-.35.3-.61.65-.77,1.06-4.72,10.65-7.31,16.4-7.76,17.27-1.16,2.19-3.13,3.28-5.92,3.28h-2.26v-2.12c1.48.14,2.28.24,2.39.31,2.19,0,3.73-.94,4.62-2.8.48-1,.72-1.56.72-1.66s-.01-.18-.03-.22l-7.11-14.74c-.3-.55-.64-.84-1.03-.89h-1.37v-1.54h8.31v1.54h-1.44v.03c-.55.02-.82.33-.82.92Z"/>
        <path class="cls-1" d="M245.77,22.77l-14.23,31.46h-2.19l14.23-31.46h2.19Z"/>
        <path class="cls-1" d="M276.79,24.52c3.33,0,5.63.64,6.91,1.91.96-.98,1.57-1.97,1.85-2.98h1.37v9.17c-.52-1.25-1.22-2.35-2.09-3.28-1.82-1.98-3.89-2.98-6.19-2.98h-.07c-2.76,0-5.23,1.31-7.42,3.93-1.39,1.66-2.09,3.78-2.09,6.36,0,3.26.85,6.04,2.57,8.33,1.71,2.29,3.82,3.44,6.33,3.44,3.88,0,6.68-1.06,8.41-3.18l.68-.92.99.82c-.89,1.16-1.51,1.9-1.86,2.21-.35.31-.73.61-1.13.91-.4.3-.79.54-1.16.72-.38.18-.64.32-.8.41l-.51.21c-1.64.62-3.36.92-5.16.92s-3.41-.33-4.84-.99-2.65-1.6-3.68-2.8c-1.03-1.21-1.86-2.7-2.5-4.48-.64-1.78-.96-3.5-.96-5.16,0-4.19,1.78-7.65,5.34-10.36,1.94-1.46,3.94-2.19,6.02-2.19Z"/>
        <path class="cls-1" d="M301.5,50.78c-2.31,0-4.27-.89-5.87-2.67-1.6-1.78-2.39-3.91-2.39-6.4s.8-4.64,2.39-6.46c1.6-1.82,3.55-2.74,5.87-2.74s4.31.91,5.99,2.74c1.68,1.82,2.51,3.98,2.51,6.46s-.84,4.62-2.51,6.4c-1.68,1.78-3.67,2.67-5.99,2.67ZM306.44,41.7c0-2.5-.47-4.38-1.4-5.66-.94-1.28-2.16-1.92-3.68-1.92s-2.69.62-3.52,1.86c-.83,1.24-1.25,3.14-1.25,5.69s.47,4.45,1.4,5.68c.93,1.23,2.17,1.85,3.69,1.85s2.7-.63,3.52-1.88c.82-1.25,1.23-3.13,1.23-5.63Z"/>
        <path class="cls-1" d="M319.89,37.89c.8-3.49,2.61-5.23,5.44-5.23,4.04.02,6.05,1.97,6.05,5.85v9.06c.16.68.57,1.03,1.23,1.03h1.3v1.54h-8.24v-1.54l1.47-.03c.46-.09.81-.42,1.06-.99v-7.76c0-3.51-.96-5.27-2.87-5.27-3.63,0-5.44,3.6-5.44,10.81v2.22c.16.68.57,1.03,1.23,1.03h1.3v1.54h-7.9v-1.54l1.47-.03c.46-.09.81-.42,1.06-.99v-12.48h-2.57v-.68l4.07-2.05h1.33v5.54Z"/>
        <path class="cls-1" d="M345.5,50.44c-3.31,0-4.96-1.45-4.96-4.34v-10.47h-3.11v-1.64h1.3c1.69-.09,2.64-1.5,2.87-4.24l1.85-2.12v6.36h4.04v1.64h-4.04v9.51c0,2.35.63,3.52,1.88,3.52,1.53,0,2.7-.4,3.52-1.2v1.2c-.89,1.19-2.01,1.78-3.35,1.78Z"/>
        <path class="cls-1" d="M361.24,33.54h-.07c-1.89,0-3.98.98-6.26,2.94l.1-1.68c2.51-1.76,4.49-2.63,5.95-2.63h.75c1.57,0,2.67.16,3.28.48,1.62.78,2.43,1.95,2.43,3.52v11.7c.14.16.6.24,1.4.24.05,0,.47-.44,1.27-1.33v1.54c-.37,1.48-1.46,2.22-3.28,2.22-1.09,0-1.89-.95-2.39-2.84-1.35,1.89-2.9,2.84-4.65,2.84s-3.03-.23-3.83-.68c-1.48-.87-2.22-2.01-2.22-3.42,0-3.47,2.34-5.87,7.01-7.22.8-.23,2.03-.44,3.69-.65l.03-.82v-.17c0-1.64-.21-2.67-.62-3.08-.68-.64-1.55-.96-2.6-.96ZM364.42,39.9c-4.9.78-7.35,2.69-7.35,5.75,0,1.91.96,2.87,2.87,2.87,2.48,0,3.98-1.28,4.48-3.83v-4.79Z"/>
        <path class="cls-1" d="M388.23,47.77l1.09.68c-1.62,1.37-3.24,2.05-4.86,2.05h-.44c-2.87,0-5.04-.7-6.5-2.09-1.94-1.85-2.91-4.17-2.91-6.96s.97-4.98,2.91-6.55c1.73-1.39,3.9-2.09,6.52-2.09s4.23.6,4.87,1.81l-.89,2.46c-.41-1.39-1.74-2.09-4-2.09s-3.83.65-4.7,1.95c-.88,1.3-1.32,2.95-1.32,4.96s.61,3.62,1.83,4.84c1.22,1.22,2.96,1.83,5.22,1.83,1.12,0,2.18-.27,3.18-.82Z"/>
        <path class="cls-1" d="M402.03,50.44c-3.31,0-4.96-1.45-4.96-4.34v-10.47h-3.11v-1.64h1.3c1.69-.09,2.64-1.5,2.87-4.24l1.85-2.12v6.36h4.04v1.64h-4.04v9.51c0,2.35.63,3.52,1.88,3.52,1.53,0,2.7-.4,3.52-1.2v1.2c-.89,1.19-2.01,1.78-3.35,1.78Z"/>
        <path class="cls-1" d="M426.21,26.36h-1.88v-1.54h10.53v1.54h-2.05c-.48,0-.82.13-1.01.39-.19.26-.29.51-.29.74v13.06c0,5.04,2.28,7.56,6.84,7.56s6.81-2.52,7.01-7.56v-13.03c0-.23-.11-.46-.33-.7s-.53-.39-.94-.46h-2.05v-1.54h8.93v1.54h-1.71c-.32.05-.71.23-1.18.56-.47.33-.7.67-.7,1.01v12.62c0,6.38-3.04,9.58-9.13,9.58-6.77,0-10.16-3.19-10.16-9.58v-12.62c0-.87-.63-1.39-1.88-1.57Z"/>
        <path class="cls-1" d="M461.14,32.89h.17c1.16,0,2.37.46,3.63,1.37.14,0,.22-.08.24-.24l.17-1.74h1.71l.68,6.63c-2.14-2.78-4.26-4.17-6.36-4.17s-3.15.68-3.15,2.05c0,1.25,1.37,2.22,4.1,2.91,1.71.43,2.99.85,3.83,1.27,1.8.91,2.7,2.3,2.7,4.17v.1c0,1.41-.6,2.63-1.8,3.66-1.2,1.03-2.82,1.54-4.87,1.54-1.3,0-2.78-.83-4.45-2.5-.09.57-.17,1.31-.24,2.22h-1.71l-.68-6.98c3.19,3.58,5.53,5.37,7.01,5.37,2.33,0,3.49-.83,3.49-2.5,0-1.46-1.39-2.61-4.17-3.45-1.28-.36-2.35-.75-3.22-1.15-.87-.4-1.56-.95-2.07-1.64-.51-.7-.77-1.44-.77-2.22s.24-1.51.72-2.17c1.21-1.69,2.88-2.53,5.03-2.53Z"/>
      </g>
    </g>
  </g>
</svg>