<?xml version="1.0" encoding="UTF-8"?>
<svg id="_レイヤー_2" data-name="レイヤー 2" xmlns="http://www.w3.org/2000/svg" viewBox="0 0 900 250">
  <defs>
    <style>
      .cls-1 {
        fill: #fff;
      }

      .cls-2 {
        fill: #ff3;
      }
    </style>
  </defs>
  <g id="image_Cautionary">
    <g>
      <g id="zh">
        <rect class="cls-1" width="900" height="250" rx="50" ry="50"/>
        <g>
          <path d="M46.92,139.17c2.47-3.33,4.31-7.01,5.53-11.04l1.9.63c-.74,2.07-1.55,4-2.44,5.78v16.58h-1.83v-13.29c-.77,1.23-1.57,2.37-2.41,3.42-.23-.67-.48-1.37-.75-2.09ZM54.7,131.56v-1.64h14.16v1.59c-.7,5.16-2.53,9.5-5.5,13.03,1.91,1.95,4.28,3.49,7.11,4.64-.61.73-1.1,1.36-1.48,1.88-2.77-1.35-5.11-3.02-7.01-5.02-2.05,2.04-4.53,3.77-7.45,5.18-.3-.42-.77-1-1.41-1.73,2.99-1.38,5.5-3.05,7.51-5.02-2.7-3.47-4.27-7.77-4.71-12.91h-1.23ZM66.75,131.56h-9.01c.49,4.61,1.92,8.43,4.28,11.45,2.66-3.16,4.24-6.97,4.73-11.45Z"/>
          <path d="M81.04,142.1c.45,2.98-.29,4.66-2.23,5.02-.7.14-1.49.16-2.37.05-.12-.64-.3-1.3-.52-1.97.83.2,1.55.27,2.16.19,1.06-.2,1.42-1.32,1.08-3.35-.22-1.25-.93-2.66-2.13-4.22.56-1.7,1.3-3.98,2.2-6.82h-3.47v20.46h-1.76v-22.1h7.1v1.64c-.77,2.2-1.5,4.38-2.2,6.52,1.25,1.7,1.96,3.23,2.13,4.59ZM82.54,129.42h11.11v11.67h-1.73v-.63h-3.96c.48,1.41,1.15,2.67,1.99,3.8,1.41-.89,2.89-1.99,4.45-3.3l1.24,1.48c-1.72,1.2-3.25,2.23-4.59,3.09,1.36,1.38,3.07,2.48,5.13,3.3-.58.56-1.08,1.13-1.5,1.71-4.34-2.28-7.14-5.64-8.39-10.08h-2.02v7.97c1.05-.47,2.41-1.16,4.1-2.06.02.72.05,1.34.12,1.85-1.39.67-2.74,1.4-4.05,2.18-.31.17-.73.5-1.27.98l-1.34-1.76c.47-.41.7-.92.7-1.55v-18.66ZM91.92,131.02h-7.64v3.12h7.64v-3.12ZM91.92,138.87v-3.16h-7.64v3.16h7.64Z"/>
          <path d="M98.78,137.77h10.9v-6.05h-9.02v-1.85h19.41v1.85h-8.41v6.05h10.2v1.85h-10.2v8.04c0,1.06-.2,1.83-.59,2.3-.44.55-1.26.84-2.46.87-.7,0-2.02,0-3.96-.02-.08-.72-.2-1.43-.38-2.13,1.77.12,2.99.19,3.68.19s1.17-.13,1.41-.4c.22-.22.33-.71.33-1.48v-7.36h-10.9v-1.85Z"/>
          <path d="M124.44,140.7c1.19-.27,2.28-.52,3.28-.76v-5.5h-3.07v-1.69h3.07v-4.52h1.83v4.52h3v1.69h-3v5.04c.98-.26,1.84-.5,2.58-.73.02.56.07,1.17.16,1.83-.98.26-1.89.5-2.74.74v7.07c0,1.75-.8,2.62-2.39,2.62-.48,0-1.23-.02-2.23-.05-.06-.64-.16-1.29-.3-1.95.98.11,1.7.16,2.13.16.64,0,.96-.37.96-1.1v-6.26c-1.16.33-2.17.62-3.05.89l-.23-2.02ZM132.27,136.5h6.75v-3.28h-5.41v-1.69h5.41v-3.3h1.83v3.3h5.48v1.69h-5.48v3.28h6.96v1.69h-15.54v-1.69ZM132.36,141.38h9.91v-2.39h1.83v2.39h3.49v1.69h-3.49v5.32c0,1.72-.8,2.59-2.41,2.6-.97.02-2.12,0-3.47-.02-.06-.52-.15-1.13-.26-1.85,1.19.12,2.25.19,3.19.19.75,0,1.12-.42,1.12-1.27v-4.97h-9.91v-1.69ZM133.84,144.47l1.31-.96c1.16,1.22,2.14,2.37,2.95,3.45l-1.57,1.1c-.77-1.19-1.66-2.38-2.7-3.59Z"/>
          <path d="M156.87,151.17h-1.85v-12.13c-1.13,1.32-2.38,2.59-3.75,3.81-.33-.55-.7-1.12-1.12-1.71,3.02-2.52,5.37-5.32,7.07-8.39h-6.41v-1.73h7.29c.45-.98.83-1.98,1.15-3l1.95.45c-.31.87-.66,1.72-1.03,2.55h13.24v1.73h-14.09c-.48.92-1.02,1.82-1.59,2.7h12.84v12.52c0,1.94-.95,2.91-2.84,2.91-.83.02-2.09.02-3.77.02-.08-.53-.2-1.17-.35-1.92,1.44.11,2.59.16,3.47.16,1.08,0,1.62-.53,1.62-1.59v-1.66h-11.81v5.3ZM168.68,137.09h-11.81v2.79h11.81v-2.79ZM156.87,144.28h11.81v-2.81h-11.81v2.81Z"/>
          <path d="M179.37,129.7h16.71v21.28h-1.99v-1.66h-12.73v1.66h-1.99v-21.28ZM181.36,131.46v7.01h12.73v-7.01h-12.73ZM181.36,140.23v7.38h12.73v-7.38h-12.73Z"/>
          <path d="M225.06,145.1c-.41.41-.94.95-1.59,1.64-3.78-2.91-6.8-6.65-9.05-11.2v9.28h5.37v1.64h-5.37v4.8h-1.83v-4.8h-5.55v-1.64h5.55v-9.28c-1.99,3.97-5.05,7.8-9.16,11.48-.61-.58-1.12-1.05-1.55-1.41,4.45-3.65,7.77-7.51,9.97-11.58h-9.46v-1.73h10.2v-4.22h1.83v4.22h10.2v1.73h-9.53c2.48,4.67,5.81,8.36,9.97,11.06Z"/>
          <path d="M229.07,129.38h20.51v21.87h-1.8v-1.17h-16.9v1.2h-1.8v-21.89ZM247.77,131.04h-16.9v17.37h16.9v-17.37ZM231.95,144.33h6.47v-4.64h-5.65v-1.59h5.65v-3.14h-6.09v-1.59h13.97v1.59h-6.14v3.14h5.67v1.59h-5.67v4.64h6.52v1.59h-14.72v-1.59ZM241.37,141.19l1.31-.98c.86.89,1.59,1.73,2.2,2.51l-1.38,1.05c-.75-1.02-1.46-1.88-2.13-2.58Z"/>
          <path d="M261.17,134.25c-.61-.77-1.22-1.48-1.83-2.13l1.12-.84h-2.46c-.97,1.31-2.1,2.5-3.4,3.56-.42-.5-.81-.9-1.17-1.2,1.91-1.45,3.42-3.28,4.55-5.48h1.99c-.31.61-.65,1.2-1.01,1.76h6.61v1.36h-5.06c.64.64,1.28,1.31,1.92,2.02l-1.27.96ZM253.67,148.08c1.45-1.42,2.69-3.06,3.7-4.92h-3.45v-1.36h3.84v-1.92h-3.07v-1.36h3.07v-1.85h-3.59v-1.36h3.59v-1.5h1.55v1.5h3.38v1.36h-3.38v1.85h2.98v1.36h-2.98v1.92h3.73v1.36h-3.73v1.64l.82-.82c1.19.98,2.21,1.88,3.07,2.7l-1.17,1.27c-.78-.88-1.69-1.8-2.72-2.79v6.12h-1.55v-6.12c-1.05,1.86-2.21,3.45-3.49,4.78-.19-.81-.39-1.43-.61-1.85ZM263,139.2h2.74v-2.39h-1.99v-1.36h1.99v-1.41h1.55v1.41h3.8v-1.45h.96c-.62-.73-1.28-1.41-1.97-2.02l.94-.7h-2.67c-.64.97-1.33,1.85-2.06,2.65-.41-.36-.88-.73-1.43-1.1,1.5-1.52,2.59-3.07,3.26-4.66h1.99c-.3.61-.61,1.2-.94,1.76h7.29v1.36h-5.09c.66.55,1.3,1.12,1.95,1.73l-1.22.98h.54v1.45h3.05v1.36h-3.05v2.39h3.68v1.36h-13.31v-1.36ZM264.17,142.15h10.62v9.05h-1.55v-.96h-7.52v.96h-1.55v-9.05ZM273.24,143.51h-7.52v2.02h7.52v-2.02ZM265.72,148.88h7.52v-2.04h-7.52v2.04ZM267.29,139.2h3.8v-2.39h-3.8v2.39Z"/>
          <path d="M280.25,132.05h2.37c.58-1.42,1.05-2.72,1.43-3.89l1.97.56c-.49,1.2-.97,2.3-1.43,3.33h4.69v18.66h-1.88v-1.83h-5.27v1.99h-1.88v-18.82ZM287.39,133.81h-5.27v5.7h5.27v-5.7ZM282.12,147.12h5.27v-5.93h-5.27v5.93ZM289.62,136.85c1.47-2.33,2.71-5.23,3.73-8.7l1.97.49c-.4,1.18-.8,2.29-1.22,3.33h7.55c-.19,8.03-.34,13.09-.47,15.16-.11,2.45-1.4,3.68-3.87,3.68-1.42,0-2.87-.05-4.34-.14-.09-.78-.22-1.48-.38-2.09h.07c1.56.22,2.99.33,4.29.33,1.42,0,2.19-.75,2.3-2.25.17-2.33.3-6.64.38-12.94h-6.28c-.68,1.51-1.38,2.84-2.11,3.98-.42-.3-.96-.59-1.62-.87ZM291.68,138.45l1.43-1.05c1.73,2.05,3.12,3.82,4.15,5.32l-1.73,1.22c-1.11-1.81-2.39-3.64-3.84-5.48Z"/>
          <path d="M315.02,148.88l6.54.09,6.84-.19c-.27.61-.52,1.22-.75,1.83l-7.78.05-5.3-.09c-2.75-.05-4.69-.98-5.81-2.81-.45.38-1.4,1.47-2.84,3.28l-1.01-1.99c1.05-1.05,2.08-2.03,3.07-2.95v-7.88h-2.79v-1.73h4.59v9.98c1,1.57,2.74,2.38,5.23,2.41ZM307.57,128.63c.98,1.23,1.91,2.54,2.79,3.91l-1.57,1.1c-.88-1.48-1.75-2.84-2.62-4.08l1.41-.94ZM310.66,139.38c.92-.26,1.95-.56,3.09-.9v-4.07h-2.65v-1.64h2.65v-4.45h1.76v4.45h2.55v1.64h-2.55v3.53c.78-.25,1.61-.52,2.48-.81-.03.73-.03,1.35,0,1.85-.78.23-1.61.49-2.48.77v4.2c0,1.84-.8,2.77-2.39,2.77-.47.02-1.14,0-2.02-.02-.06-.64-.16-1.27-.3-1.9.67.11,1.3.16,1.9.16.7,0,1.05-.43,1.05-1.29v-3.34c-.86.29-1.76.6-2.7.93l-.4-1.88ZM327.21,129.02l.42,1.71c-2.22.27-4.48.5-6.77.7v4.17h7.29v1.66h-2.74v10.5h-1.76v-10.5h-2.79c-.06,4.52-1.19,8.02-3.38,10.5-.34-.41-.83-.88-1.45-1.41,2.06-2.27,3.09-5.48,3.07-9.63v-6.84c2.62-.16,5.33-.45,8.11-.87Z"/>
          <path d="M331.24,135.73h8.91v-2.95h-6.59v-1.59h6.59v-2.98h1.88v2.98h5.74v1.59h-5.74v2.95h2.3c2.56-1.81,4.66-3.8,6.3-5.95l1.66,1.12c-1.41,1.7-3.09,3.3-5.03,4.83h6.71v1.59h-8.88c-1.29.89-2.68,1.75-4.16,2.58h9.29v11.3h-1.83v-1.38h-10.85v1.38h-1.83v-8.7c-1.28.57-2.62,1.12-4.01,1.66-.27-.48-.62-1.05-1.05-1.71,4.32-1.5,8.06-3.21,11.23-5.13h-10.64v-1.59ZM337.54,141.66v2.46h10.85v-2.67h-10.43l-.42.21ZM337.54,148.27h10.85v-2.7h-10.85v2.7Z"/>
          <path d="M363.55,145.21l-1.98,6.25h-1.64l1.44-6.25h2.18Z"/>
          <path d="M382.53,147.05c6.31-3.28,10.82-7.36,13.54-12.23h-12.86v-1.83h14.23v-4.73h1.97v4.73h6.07v1.83h-6.07v12.52c0,2.22-1.05,3.33-3.14,3.33-1.17,0-2.62-.02-4.34-.05-.09-.69-.22-1.43-.38-2.23,1.52.16,2.93.23,4.24.23,1.09,0,1.64-.6,1.64-1.8v-10.9c-2.87,5.2-7.38,9.48-13.52,12.84-.34-.44-.8-1.01-1.38-1.71Z"/>
          <path d="M417.14,130.22c1.42,1.84,2.66,3.62,3.7,5.32-.59.41-1.13.77-1.62,1.08-.3-.54-.63-1.09-.97-1.65-3.82.28-6.88.54-9.18.76l-.75-1.97c.69-.38,1.45-1.08,2.27-2.11.86-1.12,1.7-2.38,2.53-3.77l1.85.68c-1.3,1.88-2.66,3.65-4.1,5.32,2.34-.15,4.47-.3,6.39-.46-.49-.74-1.02-1.5-1.58-2.29l1.45-.91ZM411.47,150.96h-1.83v-13.83h9.52v11.09c0,1.69-.78,2.53-2.34,2.53-.69.02-1.57.02-2.65.02-.08-.48-.2-1.08-.35-1.78.98.08,1.77.12,2.37.12.77,0,1.15-.4,1.15-1.2v-1.95h-5.86v4.99ZM417.33,138.63h-5.86v2.25h5.86v-2.25ZM411.47,144.56h5.86v-2.27h-5.86v2.27ZM421.43,139.66h1.83v3.87c2.22-.83,4.54-1.91,6.96-3.26l1.05,1.62c-2.55,1.34-5.23,2.54-8.02,3.57v2.03c0,.98.38,1.48,1.15,1.48h3.45c.8,0,1.26-.38,1.38-1.15.11-.69.2-1.71.28-3.07.59.23,1.2.45,1.83.66-.12,1.38-.26,2.41-.4,3.12-.2,1.38-1.18,2.06-2.93,2.06h-3.91c-1.78,0-2.67-.91-2.67-2.74v-8.18ZM421.48,128.23h1.83v4.02c2.15-.85,4.28-1.88,6.4-3.08l1.05,1.62c-2.44,1.23-4.92,2.36-7.45,3.39v1.35c0,1.05.41,1.57,1.24,1.57h2.98c.98,0,1.54-.41,1.66-1.22.11-.67.2-1.65.28-2.93.59.23,1.2.46,1.83.68-.12,1.25-.26,2.27-.4,3.05-.23,1.36-1.29,2.04-3.16,2.04h-3.42c-1.89,0-2.84-.94-2.84-2.81v-7.66Z"/>
          <path d="M434.65,131.04h6.89c.38-.95.73-1.91,1.03-2.91l1.95.49c-.27.82-.57,1.62-.88,2.41h13.61v1.73h-14.34c-.93,2.09-2.02,4.05-3.26,5.89v12.41h-1.83v-9.91c-.84,1.05-1.74,2.06-2.7,3.02-.33-.55-.7-1.11-1.12-1.69,2.88-2.98,5.14-6.23,6.79-9.73h-6.13v-1.73ZM440.46,147.7h7.34v-7.01h-6.09v-1.69h6.09v-4.71h1.92v4.71h6.19v1.69h-6.19v7.01h7.52v1.64h-16.78v-1.64Z"/>
          <path d="M483.06,145.1c-.41.41-.94.95-1.59,1.64-3.78-2.91-6.8-6.65-9.05-11.2v9.28h5.37v1.64h-5.37v4.8h-1.83v-4.8h-5.55v-1.64h5.55v-9.28c-1.99,3.97-5.05,7.8-9.16,11.48-.61-.58-1.12-1.05-1.55-1.41,4.45-3.65,7.77-7.51,9.97-11.58h-9.46v-1.73h10.2v-4.22h1.83v4.22h10.2v1.73h-9.53c2.48,4.67,5.81,8.36,9.97,11.06Z"/>
          <path d="M489.34,134.46l1.38-.73c.93,1.48,1.86,2.98,2.78,4.52.76-1.63,1.41-3.26,1.96-4.88l1.59.59c-.77,2.1-1.62,4.1-2.55,5.99.9,1.53,1.79,3.1,2.67,4.7l-1.59.84c-.65-1.23-1.32-2.48-2-3.73-.96,1.8-2,3.51-3.11,5.11l-1.41-.81v4.89h-1.76v-21.42h19.97v18.8c0,1.67-.9,2.51-2.7,2.51-1,0-2.2-.02-3.59-.05-.08-.5-.19-1.11-.33-1.83,1.31.11,2.43.16,3.35.16,1,0,1.5-.43,1.5-1.29v-16.62h-16.45v14.74c1.34-1.98,2.53-3.95,3.55-5.92-1.04-1.85-2.13-3.71-3.27-5.59ZM497.15,135.59l1.36-.8c.78,1.27,1.59,2.61,2.43,4.02.9-1.79,1.66-3.55,2.29-5.29l1.59.61c-.88,2.23-1.85,4.35-2.89,6.38.98,1.69,2,3.48,3.06,5.37l-1.57.89c-.78-1.48-1.59-2.98-2.44-4.5-.97,1.73-2,3.38-3.09,4.95l-1.43-.91c1.34-1.95,2.53-3.86,3.56-5.74-.91-1.64-1.87-3.3-2.86-4.97Z"/>
          <path d="M511.46,147.05c1.64-.27,3.32-.57,5.03-.9,1.07-3.75,1.85-7.11,2.33-10.09l1.9.45c-.73,3.03-1.52,6.13-2.39,9.29.92-.18,1.86-.37,2.81-.57.03.69.09,1.26.16,1.71-3.34.67-6.48,1.33-9.4,1.97l-.45-1.85ZM511.79,133.15h9.66v1.64h-9.66v-1.64ZM512.59,136.78l1.62-.42c.69,2.41,1.33,4.93,1.92,7.57l-1.73.47c-.52-2.58-1.12-5.12-1.8-7.62ZM514.39,128.67l1.66-.73c.62,1.14,1.27,2.43,1.95,3.87l-1.76.8c-.55-1.36-1.16-2.67-1.85-3.94ZM521.94,139.97h4.45v-11.79h1.88v4.83h6.52v1.78h-6.52v5.18h5.2v11.23h-1.78v-1.38h-7.97v1.38h-1.78v-11.23ZM531.69,141.61h-7.97v6.56h7.97v-6.56Z"/>
          <path d="M550.6,128.48l-.49.68c2.62,4.08,6.12,6.99,10.5,8.74-.5.73-.92,1.41-1.27,2.04-4.59-2.41-8.06-5.5-10.41-9.28-2.34,3.62-5.86,6.84-10.55,9.63-.39-.75-.81-1.43-1.27-2.04,4.67-2.25,8.32-5.51,10.95-9.77h2.53ZM543.47,137.65h1.88c0,5.12-.39,8.41-1.17,9.87-.62,1.34-1.95,2.72-3.98,4.12-.41-.53-.86-1.05-1.36-1.57,1.88-1.19,3.09-2.37,3.66-3.54.66-1.2.98-4.16.98-8.88ZM552.12,137.6h1.9v13.62h-1.9v-13.62Z"/>
          <path d="M566.2,141.96c1.52-.19,3.13-.4,4.85-.63-.05.69-.07,1.3-.07,1.85-3.12.31-5.37.62-6.73.91l-.35-1.83c1.11-1.48,2.24-3.14,3.39-5-1.84.08-3.09.18-3.74.32l-.33-1.78c1-1.17,2.34-3.66,4.01-7.48l1.83.56c-1.12,2.36-2.41,4.64-3.84,6.84.63-.02,1.65-.04,3.05-.08.59-1,1.18-2.05,1.78-3.15l1.69.75c-1.98,3.44-3.83,6.34-5.53,8.72ZM563.39,147.47c2.56-.38,5.16-.83,7.8-1.36-.05.34-.07.92-.07,1.73-2.73.44-5.16.95-7.29,1.52l-.45-1.9ZM572.37,130.81v-1.59h12.68c-.11,3.44-.22,5.8-.33,7.1-.19,2-1.18,3-2.98,3-.81.02-1.78,0-2.91-.07-.09-.73-.21-1.38-.35-1.95.98.17,1.94.26,2.86.26s1.48-.51,1.57-1.52c.14-1.11.23-2.85.26-5.23h-5.04c-.08,4.24-2.06,7.33-5.95,9.26-.3-.48-.68-.98-1.15-1.5,3.38-1.52,5.16-4.1,5.36-7.76h-4.02ZM572.86,141.12h11.86v9.94h-1.83v-1.31h-8.2v1.31h-1.83v-9.94ZM582.89,142.76h-8.2v5.34h8.2v-5.34Z"/>
          <path d="M589.85,132.05h2.37c.58-1.42,1.05-2.72,1.43-3.89l1.97.56c-.49,1.2-.97,2.3-1.43,3.33h4.69v18.66h-1.88v-1.83h-5.27v1.99h-1.88v-18.82ZM596.99,133.81h-5.27v5.7h5.27v-5.7ZM591.72,147.12h5.27v-5.93h-5.27v5.93ZM599.22,136.85c1.47-2.33,2.71-5.23,3.73-8.7l1.97.49c-.4,1.18-.8,2.29-1.22,3.33h7.55c-.19,8.03-.34,13.09-.47,15.16-.11,2.45-1.4,3.68-3.87,3.68-1.42,0-2.87-.05-4.34-.14-.09-.78-.22-1.48-.38-2.09h.07c1.56.22,2.99.33,4.29.33,1.42,0,2.19-.75,2.3-2.25.17-2.33.3-6.64.38-12.94h-6.28c-.68,1.51-1.38,2.84-2.11,3.98-.42-.3-.96-.59-1.62-.87ZM601.28,138.45l1.43-1.05c1.73,2.05,3.12,3.82,4.15,5.32l-1.73,1.22c-1.11-1.81-2.39-3.64-3.84-5.48Z"/>
          <path d="M614.71,140.81h15.33v-1.92h1.88v1.92h6.09v1.69h-6.09v5.67c0,1.89-.99,2.84-2.98,2.84-1.12,0-2.34-.02-3.66-.05-.09-.7-.21-1.38-.35-2.04,1.28.12,2.45.19,3.49.19s1.62-.53,1.62-1.59v-5.02h-15.33v-1.69ZM615.06,136.13h10.31v-3.28h-8.44v-1.69h8.44v-2.98h1.88v2.98h8.41v1.69h-8.41v3.28h10.41v1.69h-22.59v-1.69ZM618.58,144.14l1.27-1.31c1.36,1.11,2.88,2.41,4.57,3.89l-1.48,1.48c-1.23-1.31-2.69-2.66-4.36-4.05Z"/>
          <path d="M651.08,128.98l1.45-.89c.58.73,1.24,1.61,1.99,2.62l-.98.63h9.73v1.69h-18.33v6.49c0,4.98-1.04,8.88-3.12,11.67-.36-.45-.83-.98-1.41-1.57,1.8-2.56,2.7-5.95,2.7-10.15v-8.13h9.61c-.58-.89-1.12-1.68-1.64-2.37ZM646.72,136.99h6.75v-3.26h1.78v3.26h6.77v14.18h-1.78v-1.36h-11.74v1.41h-1.78v-14.23ZM648.5,142.62h4.97v-4.05h-4.97v4.05ZM648.5,148.24h4.97v-4.1h-4.97v4.1ZM660.24,138.56h-4.99v4.05h4.99v-4.05ZM655.25,148.24h4.99v-4.1h-4.99v4.1Z"/>
          <path d="M666.19,144.75c1.78-2.36,3.2-4.98,4.24-7.88h-4.1v-1.59h4.48v-3.7c-1.22.19-2.45.36-3.7.52-.14-.52-.31-1.05-.52-1.62,3.25-.36,6.4-.89,9.45-1.59l.54,1.64c-1.3.27-2.62.52-3.98.75v4.01h4.38v1.59h-4.38v3.02l.84-.84c1.23,1.06,2.45,2.19,3.63,3.38l-1.34,1.36c-.94-1.08-1.98-2.18-3.14-3.3v10.9h-1.78v-11.25c-.92,2.31-2.16,4.52-3.73,6.63-.25-.61-.55-1.28-.89-2.02ZM678.14,131.04h10.36v19.57h-1.88v-2.27h-6.61v2.27h-1.88v-19.57ZM686.63,132.77h-6.61v13.88h6.61v-13.88Z"/>
          <path d="M692.79,141.49h6.96c.53-.52,1-1.07,1.41-1.66h-4.15v.54h-1.64v-7.31h16.69v7.31h-1.64v-.54h-7.41c-.34.58-.74,1.13-1.2,1.66h12.84v1.36h-6.21c1.62,1.22,3.98,2.15,7.05,2.79-.42.53-.77,1.04-1.05,1.52-3.36-.98-6.02-2.42-7.99-4.31h-5.98c-1.89,1.72-4.4,3.21-7.52,4.48-.28-.42-.62-.88-1.03-1.38,2.48-.83,4.55-1.86,6.21-3.09h-5.34v-1.36ZM692.55,130.06h6.87v-1.71h1.64v1.71h5.3v-1.71h1.64v1.71h6.87v1.36h-6.87v1.2h-1.64v-1.2h-5.3v1.2h-1.64v-1.2h-6.87v-1.36ZM693.91,148.9h8.91v-2.06h-5.16v-1.36h5.16v-1.97h1.59v1.97h5.16v1.36h-5.16v2.06h9.38v1.36h-19.88v-1.36ZM710.41,134.37h-13.41v1.43h13.41v-1.43ZM697.01,138.52h13.41v-1.45h-13.41v1.45Z"/>
          <path d="M717.67,146.98c1.12-.36,2.24-.73,3.38-1.1v-9.35h-3.02v-1.64h3.02v-6.54h1.73v6.54h2.72v1.64h-2.72v8.77c.99-.34,1.99-.7,3-1.05.03.66.09,1.23.16,1.73-2.56.92-5.1,1.86-7.62,2.81l-.66-1.8ZM732.42,128.23h1.83v6.06l5.7-1.72c-.09,3.08-.19,5.59-.28,7.55-.09,2.11-.94,3.17-2.53,3.19-.72.02-1.42.02-2.11,0-.09-.58-.21-1.23-.35-1.95.75.09,1.4.14,1.95.14.81.02,1.23-.58,1.27-1.78.09-1.42.15-3.04.16-4.85l-3.8,1.18v10.16h-1.83v-9.6l-3.54,1.1v9.08c0,1.22.66,1.83,1.99,1.83h5.74c1.44,0,2.23-.58,2.39-1.73.19-1,.34-2.16.47-3.49.62.25,1.27.48,1.95.68-.22,1.5-.43,2.72-.63,3.66-.38,1.78-1.6,2.67-3.68,2.67h-6.68c-2.25,0-3.38-1.1-3.38-3.3v-8.81l-1.76.54-.3-1.73,2.06-.62v-5.47h1.83v4.92l3.54-1.07v-6.62Z"/>
          <path d="M753.08,148.83l5.55.12,8.3-.21c-.17.52-.39,1.13-.66,1.85l-7.78.02-5.65-.12c-2.58-.05-4.41-.95-5.48-2.72-.64.59-1.58,1.64-2.81,3.14l-.96-1.95c1.38-1.34,2.38-2.29,3-2.87v-7.89h-2.79v-1.73h4.59v10c.97,1.53,2.53,2.32,4.69,2.36ZM746.36,128.56c1.19,1.48,2.28,2.96,3.28,4.43-.66.42-1.23.81-1.73,1.17-.86-1.5-1.88-3.03-3.05-4.59l1.5-1.01ZM749.9,139.06h4.02c.02-1.22.04-2.88.04-4.97h-2.95v-1.69h2.95v-4.12h1.88v4.12h4.64v-4.12h1.88v4.12h3.47v1.69h-3.47v4.97h4.38v1.69h-4.38v7.12h-1.88v-7.12h-4.82c-.46,3.19-1.81,5.56-4.04,7.12-.41-.45-.88-.93-1.43-1.43,1.91-1.21,3.1-3.11,3.55-5.7h-3.83v-1.69ZM755.8,139.06h4.66v-4.97h-4.64c0,2.69,0,4.34-.02,4.97Z"/>
          <path d="M769.49,142.2c2.42-1.98,4.62-4.77,6.61-8.37l1.64,1.01c-.8,1.39-1.66,2.69-2.55,3.9v12.41h-1.95v-10c-.94,1.06-1.91,2.04-2.93,2.94-.25-.66-.52-1.29-.82-1.9ZM769.6,134.77c2.48-1.92,4.48-4.16,6-6.7l1.69,1.03c-1.81,2.78-4.06,5.27-6.75,7.48-.28-.59-.59-1.2-.94-1.8ZM777.97,136.95h14.84v1.76h-4.55v9.16c0,1.94-.98,2.91-2.93,2.91-1.31,0-2.65,0-4.01-.02-.09-.62-.21-1.33-.35-2.11,1.22.12,2.45.19,3.68.19,1.08,0,1.62-.53,1.62-1.59v-8.53h-8.3v-1.76ZM779.33,129.87h12.16v1.76h-12.16v-1.76Z"/>
          <path d="M795,139.45c2.45-3.3,4.38-7.05,5.79-11.27l1.88.68c-.8,2.09-1.64,4-2.51,5.74v16.66h-1.88v-13.25c-.8,1.31-1.63,2.5-2.48,3.55-.22-.64-.48-1.34-.8-2.11ZM808.5,145.29c-1.84,2.25-3.77,4.26-5.77,6.02-.42-.48-.9-.94-1.43-1.36,1.98-1.5,3.84-3.43,5.58-5.79l1.62,1.12ZM812.42,128.39h1.92v5.16h3.35v1.69h-3.35v6.47h4.17v1.69h-17.04v-1.69h3.96v-6.47h-3.02v-1.69h3.02v-5.13h1.92v5.13h5.06v-5.16ZM807.36,141.7h5.06v-6.47h-5.06v6.47ZM811.29,145.24l1.38-1.17c2.47,2.28,4.4,4.19,5.79,5.72l-1.55,1.43c-1.59-1.89-3.47-3.88-5.62-5.98Z"/>
          <path d="M835.52,143.06h1.8c-1.09-.73-2.05-1.61-2.86-2.62h-3.23c-.64.91-1.66,1.79-3.07,2.65h1.55c0,2.36-.38,4.07-1.12,5.13-.72,1.09-2.26,2.18-4.62,3.26-.31-.5-.7-1.03-1.17-1.59,2.25-.94,3.64-1.8,4.17-2.6.59-.69.9-2.02.91-4.01-1.48.86-3.36,1.7-5.62,2.51-.31-.55-.7-1.1-1.15-1.66,3.7-1.06,6.28-2.29,7.73-3.68h-7.24v-1.62h8.48c.36-.61.65-1.34.87-2.18h-7.41v-1.62h7.71c.08-.66.12-1.37.14-2.13h-8.7v-1.62h6.02c-.59-.73-1.22-1.43-1.88-2.09l1.22-1.08c.84.7,1.64,1.48,2.39,2.32l-.94.84h5.06c.7-.84,1.52-1.91,2.46-3.19l1.64,1.03c-.62.73-1.28,1.45-1.97,2.16h6v1.62h-9.49c-.03.77-.09,1.48-.16,2.13h8.53v1.62h-8.79c-.17.83-.39,1.55-.66,2.18h11.67v1.62h-7.08c1.8,1.62,4.33,2.68,7.59,3.16-.38.64-.73,1.29-1.08,1.95-2.3-.53-4.27-1.35-5.91-2.46v8.25h-1.83v-8.27Z"/>
          <path d="M851.08,144.88c.77,0,1.43.3,1.99.89s.84,1.29.84,2.07c0,.89-.29,1.62-.86,2.17s-1.26.84-2.06.84-1.5-.29-2.08-.86-.87-1.28-.87-2.13.31-1.58.93-2.14,1.32-.84,2.11-.84ZM851.04,149.15c.3,0,.57-.11.83-.34s.39-.52.39-.88c0-.4-.12-.72-.38-.96s-.55-.36-.91-.36c-.34,0-.62.12-.87.36s-.36.55-.36.94.14.68.43.9.58.33.87.33Z"/>
          <path d="M70.26,193.1c-.41.41-.94.95-1.59,1.64-3.78-2.91-6.8-6.65-9.05-11.2v9.28h5.37v1.64h-5.37v4.8h-1.83v-4.8h-5.55v-1.64h5.55v-9.28c-1.99,3.97-5.05,7.8-9.16,11.48-.61-.58-1.12-1.05-1.55-1.41,4.45-3.65,7.77-7.51,9.97-11.58h-9.46v-1.73h10.2v-4.22h1.83v4.22h10.2v1.73h-9.53c2.48,4.67,5.81,8.36,9.97,11.06Z"/>
          <path d="M76.54,182.46l1.38-.73c.93,1.48,1.86,2.98,2.78,4.52.76-1.63,1.41-3.26,1.96-4.88l1.59.59c-.77,2.1-1.62,4.1-2.55,5.99.9,1.53,1.79,3.1,2.67,4.7l-1.59.84c-.65-1.23-1.32-2.48-2-3.73-.96,1.8-2,3.51-3.11,5.11l-1.41-.81v4.89h-1.76v-21.42h19.97v18.8c0,1.67-.9,2.51-2.7,2.51-1,0-2.2-.02-3.59-.05-.08-.5-.19-1.11-.33-1.83,1.31.11,2.43.16,3.35.16,1,0,1.5-.43,1.5-1.29v-16.62h-16.45v14.74c1.34-1.98,2.53-3.95,3.55-5.92-1.04-1.85-2.13-3.71-3.27-5.59ZM84.35,183.59l1.36-.8c.78,1.27,1.59,2.61,2.43,4.02.9-1.79,1.66-3.55,2.29-5.29l1.59.61c-.88,2.23-1.85,4.35-2.89,6.38.98,1.69,2,3.48,3.06,5.37l-1.57.89c-.78-1.48-1.59-2.98-2.44-4.5-.97,1.73-2,3.38-3.09,4.95l-1.43-.91c1.34-1.95,2.53-3.86,3.56-5.74-.91-1.64-1.87-3.3-2.86-4.97Z"/>
          <path d="M98.66,195.05c1.64-.27,3.32-.57,5.03-.9,1.07-3.75,1.85-7.11,2.33-10.09l1.9.45c-.73,3.03-1.52,6.13-2.39,9.29.92-.18,1.86-.37,2.81-.57.03.69.09,1.26.16,1.71-3.34.67-6.48,1.33-9.4,1.97l-.45-1.85ZM98.99,181.15h9.66v1.64h-9.66v-1.64ZM99.79,184.78l1.62-.42c.69,2.41,1.33,4.93,1.92,7.57l-1.73.47c-.52-2.58-1.12-5.12-1.8-7.62ZM101.59,176.67l1.66-.73c.62,1.14,1.27,2.43,1.95,3.87l-1.76.8c-.55-1.36-1.16-2.67-1.85-3.94ZM109.14,187.97h4.45v-11.79h1.88v4.83h6.52v1.78h-6.52v5.18h5.2v11.23h-1.78v-1.38h-7.97v1.38h-1.78v-11.23ZM118.89,189.61h-7.97v6.56h7.97v-6.56Z"/>
          <path d="M124.95,178.22h22.34v1.83h-8.62c-.75,1.3-1.75,2.84-3,4.62h1.36v14.7h-2.02v-13.97c-2.67,3.3-5.82,6.11-9.45,8.44-.39-.56-.83-1.12-1.31-1.69,4.92-3.08,8.89-7.11,11.91-12.09h-11.2v-1.83ZM139.37,185.39c2.92,1.78,5.74,3.59,8.46,5.44l-1.34,1.85c-3.22-2.39-5.98-4.29-8.27-5.7l1.15-1.59Z"/>
          <path d="M150.21,188.6c1-.43,2.01-.88,3.02-1.36v-4.99h-2.84v-1.59h2.84v-4.36h1.78v4.36h3v1.59h-3v4.12c.9-.45,1.8-.91,2.7-1.41.05.61.11,1.23.19,1.88-.96.48-1.92.96-2.88,1.44v8.17c0,1.52-.58,2.34-1.73,2.46-.81.08-1.73.1-2.74.07-.09-.66-.2-1.3-.3-1.95.86.09,1.59.14,2.2.14.53,0,.8-.29.8-.87v-7.11c-.94.48-1.87.97-2.79,1.46l-.23-2.06ZM155.89,198.21c2.2-1.84,3.44-4.48,3.7-7.92h1.76c-.08,1.09-.24,2.12-.48,3.07.99,1.52,2.29,2.54,3.88,3.07v-7.05h-7.24v-1.55h15.8v1.55h-6.8v2.62h5.88v1.5h-5.88v3.3c1.06.12,3.42.12,7.08-.02-.03.08-.21.66-.54,1.73-1.86.05-3.79.02-5.79-.07-3.16-.04-5.48-1.15-6.96-3.33-.66,1.63-1.61,3.03-2.86,4.2-.47-.39-.98-.76-1.55-1.1ZM159.54,177.21h11.7v9.26h-1.69v-.68h-8.32v.68h-1.69v-9.26ZM169.55,178.71h-8.32v2.04h8.32v-2.04ZM161.23,184.29h8.32v-2.06h-8.32v2.06Z"/>
          <path d="M175.8,187.45c2.45-3.3,4.38-7.05,5.79-11.27l1.88.68c-.8,2.09-1.64,4-2.51,5.74v16.66h-1.88v-13.25c-.8,1.31-1.63,2.5-2.48,3.55-.22-.64-.48-1.34-.8-2.11ZM189.3,193.29c-1.84,2.25-3.77,4.26-5.77,6.02-.42-.48-.9-.94-1.43-1.36,1.98-1.5,3.84-3.43,5.58-5.79l1.62,1.12ZM193.22,176.39h1.92v5.16h3.35v1.69h-3.35v6.47h4.17v1.69h-17.04v-1.69h3.96v-6.47h-3.02v-1.69h3.02v-5.13h1.92v5.13h5.06v-5.16ZM188.16,189.7h5.06v-6.47h-5.06v6.47ZM192.09,193.24l1.38-1.17c2.47,2.28,4.4,4.19,5.79,5.72l-1.55,1.43c-1.59-1.89-3.47-3.88-5.62-5.98Z"/>
          <path d="M202.35,178.22h22.34v1.83h-8.62c-.75,1.3-1.75,2.84-3,4.62h1.36v14.7h-2.02v-13.97c-2.67,3.3-5.82,6.11-9.45,8.44-.39-.56-.83-1.12-1.31-1.69,4.92-3.08,8.89-7.11,11.91-12.09h-11.2v-1.83ZM216.77,185.39c2.92,1.78,5.74,3.59,8.46,5.44l-1.34,1.85c-3.22-2.39-5.98-4.29-8.27-5.7l1.15-1.59Z"/>
          <path d="M235.84,190.1c.45,2.98-.29,4.66-2.23,5.02-.7.14-1.49.16-2.37.05-.12-.64-.3-1.3-.52-1.97.83.2,1.55.27,2.16.19,1.06-.2,1.42-1.32,1.08-3.35-.22-1.25-.93-2.66-2.13-4.22.56-1.7,1.3-3.98,2.2-6.82h-3.47v20.46h-1.76v-22.1h7.1v1.64c-.77,2.2-1.5,4.38-2.2,6.52,1.25,1.7,1.96,3.23,2.13,4.59ZM237.34,177.42h11.11v11.67h-1.73v-.63h-3.96c.48,1.41,1.15,2.67,1.99,3.8,1.41-.89,2.89-1.99,4.45-3.3l1.24,1.48c-1.72,1.2-3.25,2.23-4.59,3.09,1.36,1.38,3.07,2.48,5.13,3.3-.58.56-1.08,1.13-1.5,1.71-4.34-2.28-7.14-5.64-8.39-10.08h-2.02v7.97c1.05-.47,2.41-1.16,4.1-2.06.02.72.05,1.34.12,1.85-1.39.67-2.74,1.4-4.05,2.18-.31.17-.73.5-1.27.98l-1.34-1.76c.47-.41.7-.92.7-1.55v-18.66ZM246.72,179.02h-7.64v3.12h7.64v-3.12ZM246.72,186.87v-3.16h-7.64v3.16h7.64Z"/>
          <path d="M259.53,191.2l1.48,1.22c-2.03,2.17-4.1,4.08-6.21,5.72-.42-.59-.84-1.08-1.24-1.45,2.16-1.56,4.15-3.39,5.98-5.48ZM253.81,188.32h22.59v1.69h-10.17v6.14c0,1.83-.87,2.74-2.6,2.74h-3.12c-.02-.08-.13-.71-.35-1.9,1.05.08,1.96.12,2.74.14.94.03,1.41-.43,1.41-1.38v-5.74h-10.5v-1.69ZM254.47,178.97h9.88c-.3-.73-.65-1.49-1.07-2.27l1.78-.68c.47.9.93,1.88,1.38,2.95h9.28v4.41h-1.88v-2.72h-17.51v2.72h-1.88v-4.41ZM257.35,183.66h15.52v1.69h-15.52v-1.69ZM268.58,192.45l1.24-1.29c2.2,1.7,4.34,3.46,6.42,5.27l-1.43,1.5c-2.16-2.06-4.23-3.89-6.23-5.48Z"/>
          <path d="M290.77,178.57l1.41.91c-.95,1.42-2.02,2.83-3.19,4.22h1.73v1.55h-3.07c-.62.7-1.27,1.38-1.92,2.04h3.84v1.41l-3.02,2.98v.42c1.27-.22,2.66-.47,4.2-.75-.05.59-.08,1.13-.09,1.62-1.28.22-2.65.46-4.1.73v2.55c.11,1.94-.8,2.87-2.72,2.79-.67,0-1.54-.02-2.6-.05-.06-.5-.14-1.09-.23-1.76.73.08,1.57.12,2.51.14.98.09,1.44-.34,1.36-1.31v-2.06c-1.52.28-3.11.59-4.78.91l-.28-1.71c1.3-.19,2.98-.45,5.06-.8v-1.17l2.46-2.44h-3.14c-1.3,1.19-2.59,2.28-3.89,3.28-.31-.44-.68-.88-1.1-1.34.91-.64,1.75-1.29,2.53-1.95h-1.95v-1.5h3.63c.73-.66,1.45-1.34,2.13-2.04h-6.07v-1.55h4.62v-2.39h-3.68v-1.55h3.68v-3.19h1.69v3.19h2.88v1.55h-2.88v2.39h1.15c1.41-1.58,2.69-3.29,3.84-5.13ZM290.07,188.04c1.77-3.25,3.18-7.08,4.24-11.48l1.71.42c-.31,1.28-.67,2.55-1.08,3.82h7.31v1.69h-2.3c-.11,4.03-1.09,7.5-2.95,10.41,1.42,1.95,3.29,3.48,5.6,4.57-.44.64-.8,1.22-1.1,1.73-2.28-1.31-4.14-2.91-5.58-4.8-1.58,1.97-3.62,3.65-6.14,5.04-.28-.41-.66-.92-1.15-1.55,2.61-1.33,4.7-3.01,6.26-5.04-1.09-1.83-1.84-3.89-2.23-6.19-.36.77-.73,1.52-1.1,2.27-.5-.33-1-.62-1.5-.89ZM293.84,183.84c.31,2.84,1.02,5.3,2.13,7.38,1.42-2.47,2.18-5.38,2.27-8.74h-3.89c-.16.45-.33.91-.52,1.36Z"/>
          <path d="M304.99,192.75c1.78-2.36,3.2-4.98,4.24-7.88h-4.1v-1.59h4.48v-3.7c-1.22.19-2.45.36-3.7.52-.14-.52-.31-1.05-.52-1.62,3.25-.36,6.4-.89,9.45-1.59l.54,1.64c-1.3.27-2.62.52-3.98.75v4.01h4.38v1.59h-4.38v3.02l.84-.84c1.23,1.06,2.45,2.19,3.63,3.38l-1.34,1.36c-.94-1.08-1.98-2.18-3.14-3.3v10.9h-1.78v-11.25c-.92,2.31-2.16,4.52-3.73,6.63-.25-.61-.55-1.28-.89-2.02ZM316.94,179.04h10.36v19.57h-1.88v-2.27h-6.61v2.27h-1.88v-19.57ZM325.43,180.77h-6.61v13.88h6.61v-13.88Z"/>
          <path d="M332.27,177.38h20.51v21.87h-1.8v-1.17h-16.9v1.2h-1.8v-21.89ZM350.97,179.04h-16.9v17.37h16.9v-17.37ZM335.15,192.33h6.47v-4.64h-5.65v-1.59h5.65v-3.14h-6.09v-1.59h13.97v1.59h-6.14v3.14h5.67v1.59h-5.67v4.64h6.52v1.59h-14.72v-1.59ZM344.57,189.19l1.31-.98c.86.89,1.59,1.73,2.2,2.51l-1.38,1.05c-.75-1.02-1.46-1.88-2.13-2.58Z"/>
          <path d="M364.37,182.25c-.61-.77-1.22-1.48-1.83-2.13l1.12-.84h-2.46c-.97,1.31-2.1,2.5-3.4,3.56-.42-.5-.81-.9-1.17-1.2,1.91-1.45,3.42-3.28,4.55-5.48h1.99c-.31.61-.65,1.2-1.01,1.76h6.61v1.36h-5.06c.64.64,1.28,1.31,1.92,2.02l-1.27.96ZM356.87,196.08c1.45-1.42,2.69-3.06,3.7-4.92h-3.45v-1.36h3.84v-1.92h-3.07v-1.36h3.07v-1.85h-3.59v-1.36h3.59v-1.5h1.55v1.5h3.38v1.36h-3.38v1.85h2.98v1.36h-2.98v1.92h3.73v1.36h-3.73v1.64l.82-.82c1.19.98,2.21,1.88,3.07,2.7l-1.17,1.27c-.78-.88-1.69-1.8-2.72-2.79v6.12h-1.55v-6.12c-1.05,1.86-2.21,3.45-3.49,4.78-.19-.81-.39-1.43-.61-1.85ZM366.2,187.2h2.74v-2.39h-1.99v-1.36h1.99v-1.41h1.55v1.41h3.8v-1.45h.96c-.62-.73-1.28-1.41-1.97-2.02l.94-.7h-2.67c-.64.97-1.33,1.85-2.06,2.65-.41-.36-.88-.73-1.43-1.1,1.5-1.52,2.59-3.07,3.26-4.66h1.99c-.3.61-.61,1.2-.94,1.76h7.29v1.36h-5.09c.66.55,1.3,1.12,1.95,1.73l-1.22.98h.54v1.45h3.05v1.36h-3.05v2.39h3.68v1.36h-13.31v-1.36ZM367.37,190.15h10.62v9.05h-1.55v-.96h-7.52v.96h-1.55v-9.05ZM376.44,191.51h-7.52v2.02h7.52v-2.02ZM368.92,196.88h7.52v-2.04h-7.52v2.04ZM370.49,187.2h3.8v-2.39h-3.8v2.39Z"/>
          <path d="M383.45,180.05h2.37c.58-1.42,1.05-2.72,1.43-3.89l1.97.56c-.49,1.2-.97,2.3-1.43,3.33h4.69v18.66h-1.88v-1.83h-5.27v1.99h-1.88v-18.82ZM390.59,181.81h-5.27v5.7h5.27v-5.7ZM385.32,195.12h5.27v-5.93h-5.27v5.93ZM392.82,184.85c1.47-2.33,2.71-5.23,3.73-8.7l1.97.49c-.4,1.18-.8,2.29-1.22,3.33h7.55c-.19,8.03-.34,13.09-.47,15.16-.11,2.45-1.4,3.68-3.87,3.68-1.42,0-2.87-.05-4.34-.14-.09-.78-.22-1.48-.38-2.09h.07c1.56.22,2.99.33,4.29.33,1.42,0,2.19-.75,2.3-2.25.17-2.33.3-6.64.38-12.94h-6.28c-.68,1.51-1.38,2.84-2.11,3.98-.42-.3-.96-.59-1.62-.87ZM394.88,186.45l1.43-1.05c1.73,2.05,3.12,3.82,4.15,5.32l-1.73,1.22c-1.11-1.81-2.39-3.64-3.84-5.48Z"/>
          <path d="M418.97,188.37h1.97c-.09.62-.21,1.21-.35,1.77,2.29,4.25,5.95,6.59,10.97,7.02-.42.53-.88,1.18-1.36,1.95-4.91-.99-8.34-3.26-10.3-6.8-1.34,3.69-4.82,6.05-10.46,7.08-.2-.47-.59-1.06-1.15-1.78,3.45-.5,6.02-1.49,7.71-2.98,1.53-1.23,2.52-3.32,2.98-6.26ZM410.63,190.08l1.27-1.12c.94.91,2.16,2.18,3.68,3.82l-1.45,1.29c-1.06-1.33-2.23-2.66-3.49-3.98ZM410.93,185.77h16.03v-2.55h-15.16v-1.55h15.16v-2.53h-15.82v-1.59h17.7v10.64h-1.88v-.8h-16.03v-1.62ZM429.26,190.2c-1.03,1.2-2.28,2.51-3.75,3.91l-1.36-1.29c1.3-1.16,2.52-2.43,3.68-3.82l1.43,1.2Z"/>
          <path d="M435.47,177.47h20.51v21.87h-1.76v-1.15h-16.99v1.17h-1.76v-21.89ZM454.22,179.11h-16.99v17.44h16.99v-17.44ZM438.28,186.02h14.84v1.59h-4.57v4.38c0,.77.35,1.15,1.05,1.15h.75c.73,0,1.16-.4,1.29-1.2.11-.64.2-1.53.28-2.67.55.25,1.11.48,1.69.68-.12.98-.27,1.84-.42,2.58-.27,1.47-1.12,2.2-2.58,2.2h-1.38c-1.61,0-2.41-.86-2.41-2.58v-4.55h-3c-.06,2.05-.34,3.55-.84,4.52-.64,1.3-1.79,2.45-3.45,3.47-.34-.52-.74-1.02-1.2-1.52,1.53-.86,2.55-1.79,3.05-2.79.41-.75.63-1.98.68-3.68h-3.77v-1.59ZM439.43,181.66h12.59v1.59h-12.59v-1.59Z"/>
          <path d="M459.91,195.77c2.98-.39,6.88-1,11.67-1.83.02.67.04,1.27.07,1.78-3.52.53-7.27,1.17-11.27,1.92l-.47-1.88ZM469.54,197.93c1.95-1.34,3.66-2.87,5.13-4.59-1-2.77-1.59-6.52-1.78-11.25h-12.63v-1.73h12.56c-.06-1.3-.12-2.66-.16-4.08h1.92c0,1.41.03,2.77.07,4.08h8.3v1.73h-8.26c.1,3.88.54,7.06,1.31,9.54,1.51-2.12,2.7-4.49,3.57-7.12l1.85.77c-1.27,3.18-2.82,5.97-4.65,8.37.7,1.5,1.54,2.56,2.52,3.19.94.61,1.52.35,1.73-.77.23-1.17.41-2.38.54-3.61.64.28,1.24.51,1.8.68-.3,1.8-.58,3.16-.84,4.08-.33,1.22-1.04,1.84-2.13,1.88-.91,0-1.79-.33-2.65-.98-.88-.73-1.63-1.7-2.26-2.89-1.38,1.57-2.91,2.94-4.58,4.11-.36-.41-.81-.87-1.36-1.38ZM461.92,184.36h8.44v8.2h-1.69v-1.08h-5.06v1.64h-1.69v-8.77ZM468.67,186h-5.06v3.84h5.06v-3.84ZM476.36,177.4l.98-1.22c1.27.73,2.55,1.55,3.84,2.46l-1.12,1.41c-1.17-.91-2.41-1.79-3.7-2.65Z"/>
          <path d="M486.58,185.32h7.57v1.55c-1.25,4.77-3.66,8.2-7.22,10.29-.34-.45-.8-.98-1.36-1.57,3.33-1.78,5.51-4.61,6.54-8.48h-5.53v-1.78ZM506.43,181.92l1.15,1.64c-1.89,1.21-4.02,2.58-6.4,4.1,1.9,3.09,4.51,5.65,7.83,7.66-.48.61-.96,1.21-1.43,1.8-4.26-2.91-7.25-6.67-8.98-11.3v9.96c0,2.16-1,3.23-3,3.23-.98,0-2.08,0-3.28-.02-.06-.47-.18-1.15-.35-2.04,1.33.12,2.4.19,3.21.19,1.03,0,1.55-.5,1.55-1.5v-12.84h-7.99v-1.83h9.87v.79c.44,1.51.99,2.93,1.66,4.25,1.93-1.16,3.98-2.52,6.16-4.1ZM493.25,177.63l.77-1.59c2.16.62,4.45,1.33,6.87,2.11l-.8,1.85c-2.42-.91-4.7-1.7-6.84-2.37Z"/>
          <path d="M511.25,187.41c2.44-3.28,4.37-7.03,5.79-11.25l1.88.66c-.7,1.82-1.42,3.51-2.18,5.07v17.38h-1.92v-13.78c-.89,1.49-1.81,2.84-2.77,4.03-.22-.64-.48-1.34-.8-2.11ZM518.05,184.34l5.54-.61c-.19-1.98-.32-4.46-.39-7.43h2.04c-.03,2.34.07,4.74.29,7.22l8.59-.94.21,1.73-8.61.95c.88,6.47,2.58,10.35,5.1,11.64.69.28,1.13.05,1.34-.68.3-1.11.55-2.37.75-3.77.66.28,1.28.51,1.88.68-.23,1.52-.52,2.86-.84,4.03-.42,1.36-1.26,2.02-2.51,1.99-1.34-.05-2.62-.85-3.84-2.41-1.81-2.11-3.07-5.86-3.79-11.26l-5.47.6-.28-1.73ZM527.4,178.15l1.22-1.24c1.38,1.05,2.78,2.21,4.22,3.49l-1.43,1.45c-1.31-1.34-2.65-2.58-4.01-3.7Z"/>
          <path d="M537,187.45c2.45-3.3,4.38-7.05,5.79-11.27l1.88.68c-.8,2.09-1.64,4-2.51,5.74v16.66h-1.88v-13.25c-.8,1.31-1.63,2.5-2.48,3.55-.22-.64-.48-1.34-.8-2.11ZM550.5,193.29c-1.84,2.25-3.77,4.26-5.77,6.02-.42-.48-.9-.94-1.43-1.36,1.98-1.5,3.84-3.43,5.58-5.79l1.62,1.12ZM554.42,176.39h1.92v5.16h3.35v1.69h-3.35v6.47h4.17v1.69h-17.04v-1.69h3.96v-6.47h-3.02v-1.69h3.02v-5.13h1.92v5.13h5.06v-5.16ZM549.36,189.7h5.06v-6.47h-5.06v6.47ZM553.29,193.24l1.38-1.17c2.47,2.28,4.4,4.19,5.79,5.72l-1.55,1.43c-1.59-1.89-3.47-3.88-5.62-5.98Z"/>
          <path d="M577.52,191.06h1.8c-1.09-.73-2.05-1.61-2.86-2.62h-3.23c-.64.91-1.66,1.79-3.07,2.65h1.55c0,2.36-.38,4.07-1.12,5.13-.72,1.09-2.26,2.18-4.62,3.26-.31-.5-.7-1.03-1.17-1.59,2.25-.94,3.64-1.8,4.17-2.6.59-.69.9-2.02.91-4.01-1.48.86-3.36,1.7-5.62,2.51-.31-.55-.7-1.1-1.15-1.66,3.7-1.06,6.28-2.29,7.73-3.68h-7.24v-1.62h8.48c.36-.61.65-1.34.87-2.18h-7.41v-1.62h7.71c.08-.66.12-1.37.14-2.13h-8.7v-1.62h6.02c-.59-.73-1.22-1.43-1.88-2.09l1.22-1.08c.84.7,1.64,1.48,2.39,2.32l-.94.84h5.06c.7-.84,1.52-1.91,2.46-3.19l1.64,1.03c-.62.73-1.28,1.45-1.97,2.16h6v1.62h-9.49c-.03.77-.09,1.48-.16,2.13h8.53v1.62h-8.79c-.17.83-.39,1.55-.66,2.18h11.67v1.62h-7.08c1.8,1.62,4.33,2.68,7.59,3.16-.38.64-.73,1.29-1.08,1.95-2.3-.53-4.27-1.35-5.91-2.46v8.25h-1.83v-8.27Z"/>
          <path d="M589.59,189.49h6.96c.53-.52,1-1.07,1.41-1.66h-4.15v.54h-1.64v-7.31h16.69v7.31h-1.64v-.54h-7.41c-.34.58-.74,1.13-1.2,1.66h12.84v1.36h-6.21c1.62,1.22,3.98,2.15,7.05,2.79-.42.53-.77,1.04-1.05,1.52-3.36-.98-6.02-2.42-7.99-4.31h-5.98c-1.89,1.72-4.4,3.21-7.52,4.48-.28-.42-.62-.88-1.03-1.38,2.48-.83,4.55-1.86,6.21-3.09h-5.34v-1.36ZM589.35,178.06h6.87v-1.71h1.64v1.71h5.3v-1.71h1.64v1.71h6.87v1.36h-6.87v1.2h-1.64v-1.2h-5.3v1.2h-1.64v-1.2h-6.87v-1.36ZM590.71,196.9h8.91v-2.06h-5.16v-1.36h5.16v-1.97h1.59v1.97h5.16v1.36h-5.16v2.06h9.38v1.36h-19.88v-1.36ZM607.21,182.37h-13.41v1.43h13.41v-1.43ZM593.81,186.52h13.41v-1.45h-13.41v1.45Z"/>
          <path d="M616.33,177.49h6.61v19.01c0,1.56-.73,2.34-2.18,2.34-.8,0-1.54-.02-2.23-.07-.06-.47-.16-1.02-.28-1.66.8.12,1.48.19,2.06.19.64,0,.96-.32.96-.96v-5.39h-3.28c.05,3.59-.6,6.34-1.95,8.23-.34-.45-.77-.89-1.29-1.31,1.05-1.61,1.57-3.89,1.57-6.84v-13.52ZM621.27,179.02h-3.28v4.5h3.28v-4.5ZM617.99,189.49h3.28v-4.52h-3.28v4.52ZM624.88,177.59h11.58c-.08,1.27-.14,2.27-.19,3-.12,2.42-1.36,3.61-3.7,3.56-.64-.02-1.65-.05-3.02-.09-.09-.61-.2-1.23-.3-1.85,1.16.14,2.2.23,3.12.26,1.34.05,2.07-.59,2.18-1.92.05-.41.09-.85.12-1.34h-7.99v6.75h9.89v1.38c-.62,2.74-1.77,5.13-3.43,7.16,1.35,1.28,3.03,2.28,5.03,2.99-.53.62-.98,1.19-1.36,1.69-1.92-.9-3.55-2.02-4.89-3.35-1.2,1.18-2.6,2.22-4.21,3.12-.3-.52-.62-1.03-.96-1.55,1.56-.8,2.91-1.75,4.04-2.86-1.52-1.95-2.53-4.3-3.01-7.05h-1.1v11.65h-1.78v-21.54ZM634.7,187.48h-5.33c.48,2.25,1.35,4.16,2.59,5.74,1.29-1.63,2.2-3.55,2.74-5.74Z"/>
          <path d="M647.24,175.9l1.76.75c-.35.58-.72,1.14-1.1,1.69h12.68v1.57c-1.45,1.77-3.44,3.31-5.96,4.63,2.62.95,5.75,1.54,9.39,1.77-.5.7-.94,1.36-1.31,1.97-4.07-.54-7.48-1.45-10.24-2.73-3.1,1.32-6.85,2.36-11.25,3.13-.27-.48-.59-1.03-.96-1.64,3.91-.6,7.31-1.45,10.2-2.55-1.78-1.09-3.21-2.37-4.28-3.86-1.21,1.44-2.55,2.77-4.02,4-.47-.5-.9-.92-1.29-1.27,2.88-2.28,5.01-4.77,6.4-7.45ZM642.31,189.63h6.82c.11-.76.2-1.6.28-2.53h1.9c-.1.93-.21,1.77-.32,2.53h9.46c-.16,2.8-.3,4.76-.45,5.88-.25,2.2-1.56,3.31-3.94,3.33-.92.02-2.3-.02-4.15-.09-.09-.58-.21-1.23-.35-1.95,1.8.16,3.28.24,4.45.26,1.33-.03,2.06-.7,2.2-2.02.14-1.17.24-2.42.3-3.75h-7.82c-.83,3.76-3.74,6.48-8.73,8.18-.36-.52-.74-1.04-1.15-1.57,4.48-1.45,7.14-3.66,7.97-6.61h-6.49v-1.66ZM658.06,179.88h-10.46c1.26,1.51,2.88,2.75,4.85,3.73,2.26-1.05,4.13-2.3,5.61-3.73Z"/>
          <path d="M670.48,192.88c.77,0,1.43.3,1.99.89s.84,1.29.84,2.07c0,.89-.29,1.62-.86,2.17s-1.26.84-2.06.84-1.5-.29-2.08-.86-.87-1.28-.87-2.13.31-1.58.93-2.14,1.32-.84,2.11-.84ZM670.45,197.15c.3,0,.57-.11.83-.34s.39-.52.39-.88c0-.4-.12-.72-.38-.96s-.55-.36-.91-.36c-.34,0-.62.12-.87.36s-.36.55-.36.94.14.68.43.9.58.33.87.33Z"/>
        </g>
      </g>
      <g>
        <path d="M407.66,110.11c-3.25,0-6.17-1.68-7.79-4.5s-1.63-6.18,0-9l42.34-73.33c1.63-2.82,4.54-4.5,7.79-4.5s6.17,1.68,7.79,4.5l42.34,73.33c1.63,2.82,1.63,6.18,0,9-1.63,2.82-4.54,4.5-7.79,4.5h-84.67Z"/>
        <path class="cls-2" d="M446.54,25.78l-42.34,73.33c-1.54,2.67.38,6,3.46,6h84.67c3.08,0,5-3.33,3.46-6l-42.34-73.33c-1.54-2.67-5.39-2.67-6.93,0Z"/>
        <path d="M450,98.15c-1.37,0-2.55-.5-3.54-1.49s-1.49-2.25-1.49-3.77c0-1.63.5-2.92,1.49-3.89.99-.96,2.17-1.45,3.54-1.45s2.62.48,3.58,1.45c.96.97,1.45,2.26,1.45,3.89,0,1.52-.48,2.78-1.45,3.77-.97.99-2.16,1.49-3.58,1.49ZM447.64,80.32l-.99-32.32-.15-7.93h7.01l-.15,7.93-.91,32.32h-4.8Z"/>
      </g>
    </g>
  </g>
</svg>