<?xml version="1.0" encoding="UTF-8"?>
<svg id="_レイヤー_2" data-name="レイヤー 2" xmlns="http://www.w3.org/2000/svg" viewBox="0 0 1120 368.63">
  <defs>
    <style>
      .cls-1 {
        fill: #fff;
      }

      .cls-2 {
        fill: #090064;
      }

      .cls-3 {
        fill: navy;
      }

      .cls-4 {
        fill: lime;
      }
    </style>
  </defs>
  <g id="_引越のページ_" data-name="引越のページ２">
    <g>
      <g>
        <rect class="cls-1" y="94.49" width="340" height="274.14" rx="50" ry="50"/>
        <rect class="cls-1" x="390" y="94.49" width="340" height="274.14" rx="50" ry="50"/>
        <rect class="cls-1" x="780" y="94.49" width="340" height="274.14" rx="50" ry="50"/>
        <g>
          <polygon class="cls-1" points="356.63 228.9 326.63 228.9 326.63 160.08 356.63 160.08 356.63 130.23 408.03 194.49 356.63 258.74 356.63 228.9"/>
          <polygon class="cls-3" points="401.63 194.49 361.63 144.49 361.63 165.08 331.63 165.08 331.63 223.9 361.63 223.9 361.63 244.49 401.63 194.49"/>
        </g>
        <g>
          <polygon class="cls-1" points="742.29 228.9 712.29 228.9 712.29 160.08 742.29 160.08 742.29 130.23 793.69 194.49 742.29 258.74 742.29 228.9"/>
          <polygon class="cls-3" points="787.29 194.49 747.29 144.49 747.29 165.08 717.29 165.08 717.29 223.9 747.29 223.9 747.29 244.49 787.29 194.49"/>
        </g>
      </g>
      <g>
        <circle class="cls-4" cx="165.64" cy="322.35" r="25"/>
        <path class="cls-3" d="M177.62,339c-.18.3-.44.54-.76.7l-1.64.71c-1.23.55-2.49.82-3.79.82-1.05,0-2.08-.17-3.1-.51-1.02-.34-2-.83-2.93-1.46-.93-.64-1.81-1.4-2.63-2.29-.82-.89-1.56-1.89-2.21-2.98-.4-.62-.83-1.32-1.29-2.11-.38-.67-.82-1.46-1.31-2.38-.49-.92-.98-1.95-1.49-3.07-1.2-2.65-2.01-4.97-2.45-6.98-.44-2.01-.65-3.7-.65-5.06,0-1.09.11-2.15.34-3.17.23-1.02.58-1.97,1.05-2.84.47-.87,1.06-1.65,1.77-2.34.71-.69,1.55-1.25,2.53-1.67l1.64-.71c.27-.12.52-.18.75-.18.35,0,.69.1,1,.3.31.2.55.47.71.81l3.04,6.81c.12.27.18.52.18.75,0,.35-.1.69-.31,1-.21.31-.49.55-.84.71l-3.1,1.42c-.47.22-.81.5-1.02.84-.21.34-.31.72-.31,1.15,0,.15.01.3.03.44.02.15.07.3.14.44l5.19,11.62c.19.41.47.73.83.94.36.21.75.32,1.16.32.28,0,.58-.06.89-.18l3.17-1.4c.25-.1.51-.16.78-.16.37,0,.71.09,1.01.28.3.18.53.45.68.79l3.04,6.87c.12.27.18.52.18.78,0,.35-.09.68-.28.99Z"/>
      </g>
      <g>
        <circle class="cls-4" cx="560" cy="322.35" r="25"/>
        <path class="cls-3" d="M571.99,339c-.18.3-.44.54-.76.7l-1.64.71c-1.23.55-2.49.82-3.79.82-1.05,0-2.08-.17-3.1-.51-1.02-.34-2-.83-2.93-1.46-.93-.64-1.81-1.4-2.63-2.29-.82-.89-1.56-1.89-2.21-2.98-.4-.62-.83-1.32-1.29-2.11-.38-.67-.82-1.46-1.31-2.38-.49-.92-.98-1.95-1.49-3.07-1.2-2.65-2.01-4.97-2.45-6.98-.44-2.01-.65-3.7-.65-5.06,0-1.09.11-2.15.34-3.17.23-1.02.58-1.97,1.05-2.84.47-.87,1.06-1.65,1.77-2.34.71-.69,1.55-1.25,2.53-1.67l1.64-.71c.27-.12.52-.18.75-.18.35,0,.69.1,1,.3.31.2.55.47.71.81l3.04,6.81c.12.27.18.52.18.75,0,.35-.1.69-.31,1-.21.31-.49.55-.84.71l-3.1,1.42c-.47.22-.81.5-1.02.84-.21.34-.31.72-.31,1.15,0,.15.01.3.03.44.02.15.07.3.14.44l5.19,11.62c.19.41.47.73.83.94.36.21.75.32,1.16.32.28,0,.58-.06.89-.18l3.17-1.4c.25-.1.51-.16.78-.16.37,0,.71.09,1.01.28.3.18.53.45.68.79l3.04,6.87c.12.27.18.52.18.78,0,.35-.09.68-.28.99Z"/>
      </g>
      <g>
        <circle class="cls-4" cx="950.48" cy="322.35" r="25"/>
        <path class="cls-3" d="M962.46,339c-.18.3-.44.54-.76.7l-1.64.71c-1.23.55-2.49.82-3.79.82-1.05,0-2.08-.17-3.1-.51-1.02-.34-2-.83-2.93-1.46-.93-.64-1.81-1.4-2.63-2.29-.82-.89-1.56-1.89-2.21-2.98-.4-.62-.83-1.32-1.29-2.11-.38-.67-.82-1.46-1.31-2.38-.49-.92-.98-1.95-1.49-3.07-1.2-2.65-2.01-4.97-2.45-6.98-.44-2.01-.65-3.7-.65-5.06,0-1.09.11-2.15.34-3.17.23-1.02.58-1.97,1.05-2.84.47-.87,1.06-1.65,1.77-2.34.71-.69,1.55-1.25,2.53-1.67l1.64-.71c.27-.12.52-.18.75-.18.35,0,.69.1,1,.3.31.2.55.47.71.81l3.04,6.81c.12.27.18.52.18.75,0,.35-.1.69-.31,1-.21.31-.49.55-.84.71l-3.1,1.42c-.47.22-.81.5-1.02.84-.21.34-.31.72-.31,1.15,0,.15.01.3.03.44.02.15.07.3.14.44l5.19,11.62c.19.41.47.73.83.94.36.21.75.32,1.16.32.28,0,.58-.06.89-.18l3.17-1.4c.25-.1.51-.16.78-.16.37,0,.71.09,1.01.28.3.18.53.45.68.79l3.04,6.87c.12.27.18.52.18.78,0,.35-.09.68-.28.99Z"/>
      </g>
    </g>
    <g id="zh">
      <g>
        <path class="cls-2" d="M39.54,158.8h27.84v-6.05h-25.7v-2.5h25.7v-5.94h-26.82v-2.5h13.61v-13.04h2.92v13.04h13.22v21.59h-2.92v-2.11h-27.84v-2.5ZM41.68,132.26l1.97-1.76c2.53,2.37,4.89,4.84,7.07,7.42l-2.36,2c-1.97-2.58-4.2-5.13-6.68-7.66ZM69.81,132.4c-2.51,2.84-5,5.39-7.49,7.66l-2.11-1.9c2.39-2.16,4.79-4.72,7.21-7.7l2.39,1.93Z"/>
        <path class="cls-2" d="M75.33,133.98h11.36c-.77-1.22-1.76-2.54-2.95-3.97l2.21-1.51c1.45,1.62,2.62,3.06,3.52,4.32l-1.74,1.16h9.62l-1.41-.77c1.24-1.52,2.32-3.12,3.23-4.78l2.67,1.55c-1.08,1.48-2.16,2.81-3.25,4.01h11.13v2.46h-34.38v-2.46ZM80.32,163.3h-2.67v-23.41h15.4v19.65c0,2.3-1.18,3.42-3.55,3.38-.98,0-2.33-.02-4.04-.07-.14-.91-.32-1.78-.53-2.6,1.43.12,2.75.18,3.97.18.98.02,1.48-.46,1.48-1.44v-4.46h-10.05v8.79ZM90.38,142.28h-10.05v3.76h10.05v-3.76ZM80.32,152.16h10.05v-3.76h-10.05v3.76ZM97.23,140.45h2.67v15.82h-2.67v-15.82ZM104.47,138.76h2.74v19.65c0,2.88-1.36,4.34-4.08,4.36-1.24.02-2.79.01-4.64-.04-.12-.96-.28-1.95-.49-2.95,1.73.19,3.14.28,4.22.28,1.5,0,2.25-.76,2.25-2.29v-19.02Z"/>
        <path class="cls-2" d="M114.35,148.64h10.44c.8-.77,1.5-1.61,2.11-2.5h-6.22v.81h-2.46v-10.97h25.03v10.97h-2.46v-.81h-11.11c-.52.87-1.11,1.7-1.79,2.5h19.27v2.04h-9.32c2.44,1.83,5.96,3.22,10.58,4.18-.63.8-1.16,1.56-1.58,2.29-5.04-1.48-9.04-3.63-11.99-6.47h-8.96c-2.84,2.58-6.6,4.82-11.29,6.71-.42-.63-.94-1.32-1.55-2.07,3.73-1.24,6.83-2.79,9.32-4.64h-8.02v-2.04ZM114,131.49h10.3v-2.57h2.46v2.57h7.95v-2.57h2.46v2.57h10.3v2.04h-10.3v1.79h-2.46v-1.79h-7.95v1.79h-2.46v-1.79h-10.3v-2.04ZM116.04,159.75h13.36v-3.09h-7.73v-2.04h7.73v-2.95h2.39v2.95h7.73v2.04h-7.73v3.09h14.06v2.04h-29.81v-2.04ZM140.79,137.96h-20.11v2.14h20.11v-2.14ZM120.68,144.18h20.11v-2.18h-20.11v2.18Z"/>
        <path class="cls-2" d="M151.41,156.87c1.68-.54,3.36-1.09,5.06-1.65v-14.03h-4.54v-2.46h4.54v-9.81h2.6v9.81h4.08v2.46h-4.08v13.15c1.49-.52,2.99-1.04,4.5-1.58.05.98.13,1.85.25,2.6-3.84,1.38-7.65,2.79-11.43,4.22l-.98-2.71ZM173.53,128.74h2.74v9.09l8.54-2.58c-.14,4.62-.28,8.39-.42,11.32-.14,3.16-1.41,4.76-3.8,4.78-1.08.02-2.13.02-3.16,0-.14-.87-.32-1.84-.53-2.92,1.12.14,2.1.21,2.92.21,1.22.02,1.85-.87,1.9-2.67.14-2.13.22-4.56.25-7.28l-5.7,1.78v15.24h-2.74v-14.4l-5.31,1.65v13.62c0,1.83,1,2.74,2.99,2.74h8.61c2.16,0,3.35-.87,3.59-2.6.28-1.5.52-3.25.7-5.24.94.38,1.91.71,2.92,1.02-.33,2.25-.64,4.08-.95,5.48-.56,2.67-2.4,4.01-5.52,4.01h-10.02c-3.38,0-5.06-1.65-5.06-4.96v-13.22l-2.64.81-.46-2.6,3.09-.93v-8.21h2.74v7.38l5.31-1.6v-9.93Z"/>
        <path class="cls-2" d="M200.15,138.69c-.89-1.17-1.86-2.37-2.92-3.59l1.58-1.12h-3.02c-1.35,1.71-2.85,3.22-4.5,4.54-.47-.56-1.05-1.22-1.76-1.97,2.74-2.13,4.98-4.82,6.71-8.05h3.02c-.59,1.16-1.22,2.26-1.92,3.3h10.32v2.18h-8.44c1.05,1.02,2.05,2.06,2.99,3.13l-2.07,1.58ZM190.97,138.87h15.03c-.41-.74-.91-1.56-1.49-2.46l2.43-1.05c.77,1.12,1.48,2.3,2.11,3.52h13.89v5.45h-2.71v-3.16h-26.54v3.2h-2.71v-5.48ZM194.94,143.76h21.66v8.47h-2.67v-.88h-16.28v2.67h21.9v9.18h-2.67v-1.34h-19.23v1.37h-2.71v-19.48ZM213.93,145.87h-16.28v3.38h16.28v-3.38ZM216.88,156.13h-19.23v3.45h19.23v-3.45ZM216.21,138.66c-.77-1.1-1.72-2.3-2.85-3.59l1.53-1.09h-2.97c-.68,1.09-1.39,2.1-2.14,3.02-.52-.52-1.23-1.09-2.14-1.72,1.64-1.83,3.01-4.09,4.11-6.79h3.02c-.5,1.16-1.04,2.26-1.6,3.3h11.23v2.18h-9c1.07,1.03,2.03,2.06,2.88,3.09l-2.07,1.58Z"/>
        <path class="cls-2" d="M227.85,157.43c1.8-.43,3.55-.87,5.24-1.3v-10.65h-4.39v-2.46h4.39v-8.79h-4.75v-2.46h12.09v2.46h-4.75v8.79h4.46v2.46h-4.46v9.95c1.55-.43,3.05-.87,4.5-1.3.12,1.05.25,1.97.39,2.74-4.01,1.08-7.93,2.21-11.78,3.41l-.95-2.85ZM239.03,159.51h11v-5.06h-8.96v-2.46h8.96v-4.64h-5.62v1.3h-2.6v-18.14h19.05v18.14h-2.6v-1.3h-5.62v4.64h8.96v2.46h-8.96v5.06h10.51v2.46h-24.12v-2.46ZM244.41,137.74h5.62v-4.85h-5.62v4.85ZM244.41,144.95h5.62v-4.89h-5.62v4.89ZM258.26,132.89h-5.62v4.85h5.62v-4.85ZM252.64,144.95h5.62v-4.89h-5.62v4.89Z"/>
        <path class="cls-2" d="M266.96,160.28c10.22-5.91,15.62-16.27,16.21-31.08h3.09c-.13,2.51-.38,4.9-.74,7.17,2.91,11.72,8.37,19.43,16.38,23.13-.98,1.08-1.85,2.1-2.6,3.06-6.96-3.94-11.92-10.9-14.89-20.9-2.57,9.66-7.65,16.75-15.24,21.29-.63-.87-1.37-1.76-2.21-2.67Z"/>
      </g>
      <g>
        <path d="M117.75,202.54c0-1.22.98-2.21,2.21-2.21s2.21.98,2.21,2.21-.98,2.21-2.21,2.21-2.21-.98-2.21-2.21Z"/>
        <path d="M135.39,208.16v-13.87h-2.23l-.19-.72h10.13l1.13-1.42s1.27,1.01,2.06,1.75c-.07.26-.29.38-.62.38h-2.81v18.6c0,.17-.5.62-1.3.62h-.24v-6.19c-1.75.74-4.03,1.7-6.98,2.81-.07.31-.29.5-.53.58l-.98-2.04c.6-.1,1.49-.29,2.57-.5ZM136.93,198.17h4.39v-3.89h-4.39v3.89ZM136.93,202.83h4.39v-3.96h-4.39v3.96ZM136.93,207.8l4.39-1.01v-3.24h-4.39v4.25ZM151.91,195.97l1.03-1.06,1.78,1.66c-.17.22-.41.29-.96.36-.72,3.46-1.85,6.94-3.89,9.96,1.49,2.09,3.34,3.77,5.5,4.99l-.05.24c-.67.07-1.27.48-1.44,1.13-1.94-1.3-3.55-3.05-4.85-5.16-1.46,1.87-3.31,3.55-5.69,4.9l-.31-.34c2.21-1.56,3.96-3.55,5.33-5.76-1.49-2.86-2.47-6.31-2.95-10.25h-1.68l-.22-.67h8.4ZM145.98,196.64c.53,3.48,1.58,6.5,3.07,9,1.51-2.78,2.45-5.88,3-9h-6.07Z"/>
        <path d="M169.07,191.93c-.07.34-.26.58-.86.67v8.11h5.76v-6.94l2.4.26c-.05.31-.26.53-.84.62v7.51c0,.17-.67.5-1.27.5h-.29v-1.27h-5.76v9.31h6.94v-7.25l2.4.26c-.02.34-.26.55-.84.65v8.4c0,.19-.67.5-1.25.5h-.31v-1.9h-15.29v1.61c0,.19-.65.5-1.25.5h-.29v-10.03l2.4.26c-.05.34-.26.55-.86.65v6.34h6.77v-9.31h-5.62v.87c0,.19-.65.53-1.25.53h-.29v-9.02l2.4.26c-.05.31-.26.53-.86.62v6.05h5.62v-9.05l2.45.26Z"/>
        <path d="M183.24,200.72h-3.12l-.14-.7h2.9l.91-1.22,2.04,1.7c-.14.17-.5.36-1.15.46v7.85c.07,0,.12.07.19.14,1.73,2.35,4.08,2.52,9.26,2.52,2.74,0,4.99,0,7.8-.14v.34c-.74.14-1.15.65-1.25,1.34h-7.08c-5.33,0-7.34-.48-9.1-3.41-.29-.36-.53-.26-.74,0-.53.74-1.73,2.26-2.42,3.34.07.22.02.36-.17.53l-1.39-1.82c1.01-.7,2.5-1.97,3.46-2.62v-8.3ZM183.19,197.07c-.29-1.54-1.49-3.65-2.42-4.97l.31-.14c4.97,2.95,3.7,6.38,2.11,5.11ZM187.85,198.37h-.22v-5.38l1.61.74h3.48v-2.3l2.33.24c-.05.34-.24.53-.79.62v1.44h3.5l.82-.86,1.82,1.37c-.14.17-.5.34-.91.41v2.95c-.02.14-.77.5-1.27.5h-.22v-.72h-3.74v1.87h4.37l1.06-1.32s1.25.94,2.02,1.66c-.07.26-.31.38-.62.38h-15.05l-.19-.72h6.89v-1.87h-3.62v.53c0,.12-.65.46-1.25.46ZM194.3,203.82c-.31,3.19-.7,5.5-6.72,7.06l-.22-.5c5.04-1.75,5.42-3.89,5.54-7.61l2.26.62c-.1.24-.34.46-.86.43ZM188.18,208.35h-.24v-7.63l1.66.77h7.9l.84-.94,1.85,1.42c-.14.17-.5.36-.91.43v5.16c-.02.14-.82.5-1.32.5h-.24v-5.88h-8.23v5.69c0,.14-.65.48-1.3.48ZM189.09,194.43v2.23h3.62v-2.23h-3.62ZM199.1,211.04c-.98-1.18-3.38-2.71-5.09-3.48l.22-.29c6.72,1.06,6.6,4.32,4.87,3.77ZM194.25,196.66h3.74v-2.23h-3.74v2.23Z"/>
        <path d="M205.93,197.62c.14.48.24.94.31,1.37h2.02v-7.13l1.82.79h7.94l.89-.98,1.92,1.49c-.17.19-.55.36-1.03.46v5.38h2.16l.98-.98,1.78,1.73c-.17.14-.46.19-.91.22-.58.74-1.63,1.85-2.35,2.47l-.34-.17c.26-.65.65-1.7.89-2.54h-15.72c.05,1.39-.34,2.4-.84,2.93-.48.5-1.34.65-1.68.1-.29-.5,0-1.03.5-1.42.67-.6,1.37-2.23,1.25-3.7h.41ZM208.26,201.15l1.68.77h8.02l.79-.96,2.04,1.51c-.14.17-.53.38-1.01.46v8.38c0,1.2-.29,1.99-2.57,2.21-.07-.46-.22-.86-.53-1.08-.36-.26-1.01-.46-2.09-.58v-.38s2.47.17,3.02.17c.48,0,.58-.14.58-.48v-2.45h-8.4v4.22c0,.17-.62.55-1.3.55h-.24v-12.34ZM213.18,194.86l1.73.74h3.36v-2.26h-8.5v5.64h3.41v-4.13ZM218.19,204.9v-2.28h-8.4v2.28h8.4ZM209.79,208.02h8.4v-2.42h-8.4v2.42ZM218.26,198.99v-2.66h-3.62v2.66h3.62Z"/>
        <path d="M51.23,250.54c0-1.22.98-2.21,2.21-2.21s2.21.98,2.21,2.21-.98,2.21-2.21,2.21-2.21-.98-2.21-2.21Z"/>
        <path d="M69.3,243.61v17.35c0,.24-.62.58-1.22.58h-.26v-18.87l2.38.26c-.07.36-.26.58-.89.67ZM71.87,243.06c-.38-1.13-1.54-2.62-2.45-3.46l.26-.19c4.92,1.46,3.79,4.66,2.18,3.65ZM84.35,247.88c-.07.26-.31.38-.62.38h-3.67v9.19c0,1.22-.29,2.02-2.62,2.21-.07-.41-.24-.79-.58-1.03-.43-.19-1.08-.41-2.28-.53v-.38s2.78.19,3.31.19.62-.14.62-.53v-7.39c-1.75,3.14-4.39,5.81-7.73,7.78l-.29-.36c3.19-2.33,5.67-5.67,7.08-9.14h-6.31l-.19-.7h7.44v-4.25l2.4.26c-.07.34-.29.55-.86.62v3.36h1.34l1.06-1.42s1.18,1.01,1.9,1.73ZM86.15,240.42l2.02,1.51c-.17.19-.58.38-1.06.46v16.8c0,1.25-.29,2.09-2.62,2.33-.07-.48-.22-.89-.58-1.15-.41-.26-1.08-.48-2.28-.62v-.38s2.79.22,3.31.22.65-.17.65-.58v-16.87h-10.66l-.22-.72h10.63l.79-.98Z"/>
        <path d="M91.01,240.44l1.61.82h3.41l.86-1.03,1.92,1.51c-.14.22-.53.41-1.01.5v16.2c-.02.17-.77.55-1.32.55h-.22v-1.78h-3.77v2.3c0,.19-.53.6-1.2.6h-.29v-19.68ZM96.27,241.93h-3.77v4.2h3.77v-4.2ZM96.27,246.82h-3.77v4.42h3.77v-4.42ZM92.5,251.96v4.54h3.77v-4.54h-3.77ZM112.23,252.54c-.12.17-.36.22-.84.12-1.06.67-2.95,1.75-4.44,2.52,1.39,2.09,3.31,3.72,5.81,4.54l-.02.24c-.62.14-1.13.62-1.32,1.42-4.18-1.99-6.12-5.74-7.06-11.16h-2.74v8.35l4.8-1.3.1.36c-1.7.82-4.1,1.94-7.37,3.34-.07.29-.26.5-.5.58l-1.08-1.99c.58-.12,1.46-.31,2.52-.6v-18.72l1.8.79h6.58l.86-.98,1.94,1.49c-.17.19-.53.38-1.03.48v8.79c-.02.14-.79.53-1.32.53h-.22v-1.1h-3.86c.41,1.66,1.03,3.19,1.87,4.56,1.22-1.1,2.76-2.64,3.67-3.62l1.85,1.39ZM101.62,245.17h7.08v-3.46h-7.08v3.46ZM101.62,249.51h7.08v-3.62h-7.08v3.62Z"/>
        <path d="M122.27,240.34c-.1.29-.38.5-.94.48-.7,1.92-1.54,3.79-2.5,5.5l1.18.43c-.1.24-.34.38-.72.43v13.8c-.05.17-.7.55-1.3.55h-.29v-13.32c-.96,1.51-2.02,2.83-3.1,3.94l-.34-.24c2.06-2.98,4.25-7.71,5.5-12.36l2.5.79ZM127.72,255.68c-.14.24-.36.36-.89.26-1.34,1.94-3.86,4.25-6.72,5.62l-.24-.31c2.35-1.73,4.46-4.54,5.45-6.72l2.4,1.15ZM132.8,240.08c-.07.34-.29.58-.86.67v4.75h1.32l1.13-1.39s1.22.98,1.99,1.73c-.05.26-.29.36-.62.36h-3.82v6.38h1.82l1.1-1.42s1.27,1.03,2.02,1.75c-.05.26-.29.38-.62.38h-15.89l-.19-.72h3.96v-6.38h-3.19l-.19-.7h3.38v-5.71l2.42.26c-.05.34-.29.58-.86.67v4.78h4.66v-5.71l2.45.29ZM125.7,252.58h4.66v-6.38h-4.66v6.38ZM134.68,261.3c-.77-2.02-3.19-4.68-5.04-6.24l.26-.21c7.8,3.26,6.84,7.75,4.78,6.46Z"/>
        <path d="M153.36,252.32c-.94-.77-1.75-1.66-2.35-2.66h-3.29c-.7.91-1.51,1.73-2.47,2.47l2.06.24c-.02.26-.22.5-.77.58v1.85c-.07,2.59-1.18,5.35-7.27,6.77l-.22-.38c4.94-1.51,5.93-3.98,5.93-6.43v-2.42c-1.82,1.37-4.1,2.42-6.62,3.22l-.22-.38c3.12-1.34,5.78-3.26,7.51-5.5h-6.75l-.22-.7h9.65v-2.5h-7.08l-.19-.7h7.27v-2.28h-8.28l-.22-.7h5.88c-.17-1.01-1.06-2.26-1.82-3l.24-.14c3.26.7,3.53,2.54,2.81,3.14h4.42c.53-.96,1.1-2.23,1.49-3.22l2.5.79c-.1.26-.43.46-.91.38-.58.62-1.46,1.39-2.3,2.04h3.5l1.18-1.39s1.27.98,2.09,1.7c-.07.26-.31.38-.65.38h-8.3v2.28h4.54l1.08-1.32s1.25.94,2.02,1.66c-.07.24-.29.36-.6.36h-7.03v2.5h6.67l1.15-1.42s1.27,1.01,2.06,1.73c-.05.26-.29.38-.65.38h-7.54c1.9,2.02,5.5,3.43,8.74,4.08l-.02.24c-.65.14-1.1.65-1.3,1.42-1.9-.65-3.74-1.56-5.28-2.71-.07.14-.26.21-.55.26v8.06c0,.19-.7.53-1.25.53h-.31v-9.38l1.68.17Z"/>
        <path d="M178.44,250.54c0,5.04,2.5,8.5,5.28,10.75l-.41.48c-3.24-2.06-6.46-5.45-6.46-11.23s3.22-9.17,6.46-11.23l.41.48c-2.78,2.26-5.28,5.71-5.28,10.75Z"/>
        <path d="M189.74,250.9v-5.16h-3.34l-.19-.7h3.53v-5.5l2.4.26c-.07.34-.31.58-.89.65v4.58h.5l.96-1.37s.94.82,1.58,1.49l-.02-.07h3.34c.1-1.78.12-3.6.07-5.38l2.57.17c-.05.46-.38.67-.89.74-.02,1.49-.07,2.98-.17,4.46h6.05l1.13-1.39s1.25.98,2.04,1.73c-.05.26-.29.38-.62.38h-8.67l-.05.58c.46,3.19,1.32,5.86,2.69,8.02,1.13-2.18,1.85-4.61,2.23-7.01l2.52.55c-.1.31-.31.46-.96.48-.58,2.45-1.49,4.94-2.98,7.18,1.51,1.97,3.48,3.43,5.93,4.46l-.07.21c-.72.02-1.34.48-1.7,1.22-2.14-1.18-3.79-2.71-5.04-4.68-1.51,1.9-3.53,3.55-6.17,4.7l-.24-.34c2.5-1.39,4.37-3.31,5.74-5.52-1.06-2.02-1.75-4.42-2.18-7.3-.77,5.26-2.54,10.03-6.5,13.13l-.36-.22c3.67-3.7,5.18-9.41,5.59-15.48h-3.1l-.1-.34c-.07.19-.26.26-.48.26h-2.64v4.68l3.17-1.08.12.36-3.29,1.73v7.83c0,1.27-.24,2.06-2.28,2.3-.07-.5-.19-.91-.48-1.18-.34-.26-.86-.43-1.78-.55v-.38s2.09.14,2.5.14c.43,0,.53-.12.53-.48v-6.89l-2.54,1.25c-.07.31-.26.53-.5.6l-.86-1.99c.79-.19,2.21-.62,3.91-1.18ZM204.38,243.54c-.6-.94-2.06-2.21-3.19-2.88l.24-.24c5.33.72,4.63,3.91,2.95,3.12Z"/>
        <path d="M211.4,254.94c.55-1.8,1.18-4.78,1.54-6.96h-2.83l-.19-.67h5.76l1.1-1.42s1.27.98,2.06,1.73c-.07.24-.29.36-.62.36h-3.58c-.65,2.28-1.56,4.99-2.45,6.79l4.25-1.01c-.41-1.13-.98-2.23-1.49-3.07l.31-.14c4.85,3.6,3.34,7.42,1.8,5.95-.02-.72-.19-1.51-.46-2.33-1.27.67-3,1.58-5.23,2.64-.1.29-.31.5-.53.58l-1.13-2.09,1.68-.36ZM215.04,242.26l1.1-1.37s1.25.96,2.02,1.68c-.07.26-.31.38-.62.38h-6.89l-.19-.7h4.58ZM226.28,240.13c-.1.36-.41.53-.91.5-.5.62-1.25,1.49-1.85,2.14h5.47l.79-.94,1.75,1.32c-.17.22-.43.34-.94.41v8.64c0,.07-.58.46-1.27.46h-.26v-.98h-2.98v7.66c0,.34.07.46.77.46h1.7c.74,0,1.39,0,1.63-.02.19,0,.29-.05.41-.17.14-.19.38-.96.58-1.71h.26l.1,1.73c.48.14.62.34.62.6,0,.65-.62.91-3.67.89h-1.94c-1.61,0-1.92-.36-1.92-1.44v-7.99h-1.49c-.43,5.4-2.33,8.18-8.18,9.86l-.12-.38c4.94-2.09,6.34-4.75,6.65-9.48h-1.1v.7c0,.12-.48.48-1.25.48h-.22v-10.85l1.75.77h1.9c.34-.89.82-2.26,1.08-3.22l2.64.58ZM223.9,246.78v-3.31h-3.53v3.31h3.53ZM220.37,250.95h3.53v-3.46h-3.53v3.46ZM229.06,243.46h-3.67v3.31h3.67v-3.31ZM225.39,247.5v3.46h3.67v-3.46h-3.67ZM227.14,256.45c.31-1.18.65-2.71.82-3.86l2.06.6c-.1.29-.36.5-.89.48-.34.77-.82,1.8-1.34,2.74l2.14-.14c-.19-.48-.46-.94-.7-1.27l.31-.17c3.05,1.63,1.78,3.75.77,2.76-.02-.26-.1-.55-.19-.84l-2.76.91c-.14.31-.34.46-.55.5l-.72-1.66,1.06-.05Z"/>
        <path d="M238.35,246.82v14.14c-.02.14-.65.55-1.3.55h-.29v-13.15c-.96,1.42-2.02,2.64-3.1,3.67l-.34-.22c2.11-2.95,4.37-7.63,5.67-12.26l2.59.86c-.12.26-.41.46-.96.46-.7,1.8-1.51,3.55-2.4,5.16l.86.34c-.07.22-.31.36-.74.46ZM253.37,242.86c-.86,4.97-2.54,9.07-5.04,12.29,2.04,2.18,4.56,3.86,7.51,5.02l-.07.22c-.77,0-1.44.38-1.8,1.1-2.64-1.27-4.85-3-6.62-5.16-2.11,2.3-4.7,4.08-7.82,5.28l-.24-.36c2.93-1.37,5.38-3.31,7.34-5.86-2.42-3.31-3.94-7.58-4.63-12.84l.48-.24c.77,4.8,2.47,8.78,5.02,11.88,2.18-3.29,3.62-7.44,4.27-12.46l2.54.55c-.07.34-.36.58-.94.58ZM247.3,245c-.19-1.61-1.42-3.72-2.45-5.06l.31-.17c4.97,3.02,3.67,6.53,2.14,5.23Z"/>
        <path d="M272.31,239.91c-.05.29-.24.58-.84.67-.02,1.39.02,2.81.12,4.2h4.58l1.18-1.44s1.34,1.03,2.16,1.78c-.05.26-.31.38-.65.38h-7.22c.46,5.5,1.92,10.54,5.45,13.11.38.36.53.34.77-.12.26-.6.74-1.75,1.03-2.71l.31.05-.43,3.65c.72.94.82,1.32.58,1.58-.6.77-2.06.07-3.14-.82-3.91-3.05-5.62-8.38-6.19-14.74h-12.07l-.22-.72h12.22c-.12-1.66-.19-3.38-.19-5.16l2.57.29ZM263.21,257.94v-7.49h-4.3l-.17-.72h7.83l1.1-1.37s1.25.96,2.04,1.7c-.07.26-.31.38-.65.38h-4.3v7.1l5.42-1.42.12.41c-2.52.98-5.95,2.3-10.63,3.91-.1.29-.31.48-.5.58l-1.1-1.9c1.06-.19,2.9-.62,5.14-1.2ZM276.06,243.2c-.55-.91-1.94-2.11-3-2.76l.22-.22c5.14.58,4.44,3.75,2.78,2.98Z"/>
        <path d="M288.94,250.54c0,5.78-3.22,9.17-6.46,11.23l-.41-.48c2.78-2.26,5.28-5.71,5.28-10.75s-2.5-8.5-5.28-10.75l.41-.48c3.24,2.06,6.46,5.45,6.46,11.23Z"/>
      </g>
      <g>
        <path class="cls-2" d="M415.58,142.77h8.79v-8.79h-9.46v-2.46h12.2v15.61h-2.74v-1.9h-6.05v11.64c2.86-1.36,5.79-2.88,8.79-4.57.16,1.12.35,2.07.56,2.85-3.05,1.52-6.18,3.19-9.39,4.99-.87.61-1.55,1.16-2.04,1.65l-1.9-2.43c.82-.75,1.23-1.8,1.23-3.16v-13.43ZM427.18,143.33c2.23-4.05,4.22-8.99,5.98-14.8l2.78.81c-.66,1.89-1.33,3.69-2.02,5.41h14.22v2.6h-4.11c-.63,7.59-2.34,13.22-5.12,16.88,2.27,2.43,5.53,4.36,9.76,5.8-.68.66-1.42,1.57-2.21,2.74-4.03-1.92-7.15-4.05-9.37-6.4-2.39,2.44-5.97,4.76-10.74,6.96-.56-.82-1.25-1.65-2.07-2.5,4.91-2.05,8.56-4.29,10.95-6.71-2.17-3.01-3.66-7.05-4.46-12.11-.6,1.23-1.2,2.41-1.81,3.53-.59-.84-1.17-1.58-1.76-2.21ZM432.53,138.13c.82,5.94,2.33,10.54,4.54,13.78,2.19-3.2,3.59-8.05,4.2-14.55h-8.4l-.33.77Z"/>
        <path class="cls-2" d="M451,154.02h9.81c.09-.8.14-1.75.14-2.85h2.57c0,1.05-.05,2-.14,2.85h10.51v-2.85h2.53v2.85h9.18v2.25h-9.18v6.86h-2.53v-6.86h-10.86c-.91,3.42-4.01,5.86-9.28,7.31-.45-.75-1.01-1.54-1.69-2.36,4.5-.98,7.24-2.64,8.23-4.96h-9.28v-2.25ZM451.25,145.51c3.07-1.8,5.47-3.97,7.21-6.5h-6.29v-2.18h32.27v2.18h-11.85v4.29c3.21-.96,6.39-2.04,9.53-3.23l.95,2.25c-3.59,1.27-7.08,2.38-10.48,3.34v.46c0,1.22.7,1.83,2.11,1.83h5.13c1.29,0,2.05-.57,2.29-1.72.21-1.03.38-2.11.49-3.23.82.33,1.65.62,2.5.88-.16,1.08-.35,2.07-.56,2.99-.45,2.18-2.02,3.27-4.71,3.27h-5.7c-2.6,0-3.9-1.3-3.9-3.9v-7.21h-9.07c-.47.73-.97,1.43-1.51,2.11h9.11v1.86c-3.05,4.97-8.32,8.37-15.82,10.2-.38-.73-.81-1.49-1.3-2.29,3.02-.66,5.65-1.57,7.88-2.74-.7-.54-1.69-1.3-2.95-2.29l1.69-1.51c1.27.89,2.41,1.72,3.45,2.5,1.59-1.08,2.92-2.31,3.97-3.69h-7.77c-1.38,1.45-3.11,2.85-5.17,4.18-.47-.68-.96-1.29-1.48-1.83ZM451.32,131.52h9.98v-2.74h2.46v2.74h9.14v-2.74h2.46v2.74h10.05v2.25h-10.05v2.18h-2.46v-2.18h-9.14v2.18h-2.46v-2.18h-9.98v-2.25Z"/>
        <path class="cls-2" d="M491.12,130.36h25.45v32.55h-2.99v-2.64h-19.48v2.64h-2.99v-32.55ZM494.11,132.96v6.57h19.48v-6.57h-19.48ZM494.11,142v6.57h19.48v-6.57h-19.48ZM494.11,151.03v6.64h19.48v-6.64h-19.48Z"/>
        <path class="cls-2" d="M523.45,134.47h3.55c.87-2.13,1.58-4.08,2.14-5.84l2.95.84c-.74,1.79-1.45,3.46-2.14,4.99h7.03v27.98h-2.81v-2.74h-7.91v2.99h-2.81v-28.23ZM534.18,137.11h-7.91v8.54h7.91v-8.54ZM526.27,157.08h7.91v-8.89h-7.91v8.89ZM537.52,141.68c2.2-3.49,4.07-7.84,5.59-13.04l2.95.74c-.6,1.77-1.21,3.43-1.83,4.99h11.32c-.28,12.05-.52,19.63-.7,22.75-.16,3.68-2.1,5.52-5.8,5.52-2.13,0-4.3-.07-6.5-.21-.14-1.17-.33-2.21-.56-3.13h.11c2.34.33,4.49.49,6.43.49,2.13,0,3.28-1.12,3.45-3.38.26-3.49.45-9.96.56-19.41h-9.42c-1.02,2.26-2.07,4.25-3.16,5.98-.63-.45-1.44-.88-2.43-1.3ZM540.61,144.07l2.14-1.58c2.6,3.07,4.68,5.73,6.22,7.98l-2.6,1.83c-1.66-2.72-3.59-5.46-5.77-8.23Z"/>
        <path class="cls-2" d="M558.67,156.87c1.68-.54,3.36-1.09,5.06-1.65v-14.03h-4.54v-2.46h4.54v-9.81h2.6v9.81h4.08v2.46h-4.08v13.15c1.49-.52,2.99-1.04,4.5-1.58.05.98.13,1.85.25,2.6-3.84,1.38-7.65,2.79-11.43,4.22l-.98-2.71ZM580.78,128.74h2.74v9.09l8.54-2.58c-.14,4.62-.28,8.39-.42,11.32-.14,3.16-1.41,4.76-3.8,4.78-1.08.02-2.13.02-3.16,0-.14-.87-.32-1.84-.53-2.92,1.12.14,2.1.21,2.92.21,1.22.02,1.85-.87,1.9-2.67.14-2.13.22-4.56.25-7.28l-5.7,1.78v15.24h-2.74v-14.4l-5.31,1.65v13.62c0,1.83,1,2.74,2.99,2.74h8.61c2.16,0,3.35-.87,3.59-2.6.28-1.5.52-3.25.7-5.24.94.38,1.91.71,2.92,1.02-.33,2.25-.64,4.08-.95,5.48-.56,2.67-2.4,4.01-5.52,4.01h-10.02c-3.38,0-5.06-1.65-5.06-4.96v-13.22l-2.64.81-.46-2.6,3.09-.93v-8.21h2.74v7.38l5.31-1.6v-9.93Z"/>
        <path class="cls-2" d="M606.5,138.69c-.89-1.17-1.86-2.37-2.92-3.59l1.58-1.12h-3.02c-1.35,1.71-2.85,3.22-4.5,4.54-.47-.56-1.05-1.22-1.76-1.97,2.74-2.13,4.98-4.82,6.71-8.05h3.02c-.59,1.16-1.22,2.26-1.92,3.3h10.32v2.18h-8.44c1.05,1.02,2.05,2.06,2.99,3.13l-2.07,1.58ZM597.33,138.87h15.03c-.41-.74-.91-1.56-1.49-2.46l2.43-1.05c.77,1.12,1.48,2.3,2.11,3.52h13.89v5.45h-2.71v-3.16h-26.54v3.2h-2.71v-5.48ZM601.3,143.76h21.66v8.47h-2.67v-.88h-16.28v2.67h21.9v9.18h-2.67v-1.34h-19.23v1.37h-2.71v-19.48ZM620.28,145.87h-16.28v3.38h16.28v-3.38ZM623.24,156.13h-19.23v3.45h19.23v-3.45ZM622.57,138.66c-.77-1.1-1.72-2.3-2.85-3.59l1.53-1.09h-2.97c-.68,1.09-1.39,2.1-2.14,3.02-.52-.52-1.23-1.09-2.14-1.72,1.64-1.83,3.01-4.09,4.11-6.79h3.02c-.5,1.16-1.04,2.26-1.6,3.3h11.23v2.18h-9c1.07,1.03,2.03,2.06,2.88,3.09l-2.07,1.58Z"/>
        <path class="cls-2" d="M633.31,157.43c1.8-.43,3.55-.87,5.24-1.3v-10.65h-4.39v-2.46h4.39v-8.79h-4.75v-2.46h12.09v2.46h-4.75v8.79h4.46v2.46h-4.46v9.95c1.55-.43,3.05-.87,4.5-1.3.12,1.05.25,1.97.39,2.74-4.01,1.08-7.93,2.21-11.78,3.41l-.95-2.85ZM644.49,159.51h11v-5.06h-8.96v-2.46h8.96v-4.64h-5.62v1.3h-2.6v-18.14h19.05v18.14h-2.6v-1.3h-5.62v4.64h8.96v2.46h-8.96v5.06h10.51v2.46h-24.12v-2.46ZM649.86,137.74h5.62v-4.85h-5.62v4.85ZM649.86,144.95h5.62v-4.89h-5.62v4.89ZM663.72,132.89h-5.62v4.85h5.62v-4.85ZM658.09,144.95h5.62v-4.89h-5.62v4.89Z"/>
        <path class="cls-2" d="M671.51,160.28c10.22-5.91,15.62-16.27,16.21-31.08h3.09c-.13,2.51-.38,4.9-.74,7.17,2.91,11.72,8.37,19.43,16.38,23.13-.98,1.08-1.85,2.1-2.6,3.06-6.96-3.94-11.92-10.9-14.89-20.9-2.57,9.66-7.65,16.75-15.24,21.29-.63-.87-1.37-1.76-2.21-2.67Z"/>
      </g>
      <g>
        <path d="M471.08,202.54c0-1.22.98-2.21,2.21-2.21s2.21.98,2.21,2.21-.98,2.21-2.21,2.21-2.21-.98-2.21-2.21Z"/>
        <path d="M507.88,196.5c-.05.26-.29.38-.65.38h-12.12c-.79,1.56-1.8,3.12-3,4.56l.77.29c-.1.22-.31.36-.74.43v10.85c-.02.12-.67.53-1.27.53h-.29v-10.39c-1.22,1.2-2.62,2.3-4.18,3.22l-.26-.29c3.17-2.38,5.57-5.74,7.2-9.19h-6.29l-.22-.72h6.84c.7-1.56,1.22-3.14,1.61-4.63l2.62.72c-.12.29-.34.43-.98.43-.38,1.13-.84,2.3-1.42,3.48h9.05l1.18-1.46s1.34,1.03,2.16,1.8ZM506.61,203.84c-.05.26-.26.38-.6.38h-5.21v7.3h4.18l1.15-1.44s1.32,1.01,2.14,1.78c-.07.26-.26.38-.62.38h-14.62l-.19-.72h6.38v-7.3h-4.87l-.19-.72h5.06v-5.52l2.35.24c-.05.31-.24.53-.77.62v4.66h2.69l1.1-1.37s1.27.96,2.02,1.7Z"/>
        <path d="M517.71,201.39c-.05.31-.24.53-.77.6v1.82h2.26l1.03-1.3s1.18.94,1.87,1.63c-.07.24-.31.36-.62.36h-4.54v1.13c5.3,1.32,4.25,4.73,2.62,3.7-.31-1.15-1.56-2.54-2.62-3.38v7.06c0,.19-.67.53-1.22.53h-.31v-6.77c-1.18,1.92-2.76,3.6-4.66,4.94l-.29-.34c1.92-1.9,3.41-4.34,4.3-6.86h-3.82l-.19-.7h4.66v-2.66l2.3.24ZM520.52,196.28c-.1.24-.36.46-.86.43-.53.98-1.3,2.3-2.16,3.38h1.94l1.06-1.34s1.22.96,1.99,1.68c-.07.26-.31.38-.65.38h-11.16l-.19-.72h6.43c.5-1.32,1.01-3.17,1.27-4.54l2.33.72ZM517.79,191.79c-.05.31-.26.55-.79.65v2.28h1.9l1.01-1.34s1.22.96,1.94,1.66c-.07.26-.26.38-.6.38h-10.1l-.19-.7h4.49v-3.14l2.35.22ZM513.75,199.57c0-1.25-.6-2.83-1.15-3.84l.31-.14c3.72,2.4,2.14,5.28.84,3.98ZM532.26,193.11c-.22.24-.62.24-1.18.05-1.61.55-4.18,1.2-6.5,1.54v5.18h5.11l1.15-1.46s1.27,1.06,2.06,1.78c-.07.26-.26.38-.6.38h-2.62v12.46c0,.12-.53.5-1.32.5h-.26v-12.96h-3.53v.74c0,4.34-.58,9.07-5.45,12.19l-.34-.31c3.62-3.24,4.22-7.34,4.22-11.88v-7.87l1.82.62c2.04-.7,4.3-1.73,5.5-2.5l1.92,1.54Z"/>
        <path d="M538.89,203.55h-.24v-7.56l1.68.74h9.91l.84-.91,1.85,1.42c-.14.17-.5.36-.94.43v5.19c0,.17-.77.53-1.3.53h-.24v-.94h-6.67l1.78.77c-.12.26-.36.41-1.03.36l-.77.84h9.1l1.08-1.3s1.22.91,2.02,1.63c-.07.26-.29.38-.65.38h-5.83c1.63,1.37,4.44,2.26,7.08,2.66l-.02.26c-.58.12-.96.53-1.1,1.25-2.78-.82-5.3-2.21-6.72-4.18h-5.66c-2.11,1.97-4.97,3.84-8.42,4.9l-.24-.34c2.54-1.13,4.9-2.81,6.65-4.56h-5.9l-.22-.72h6.82c.6-.67,1.1-1.32,1.51-1.97h-3.05v.62c0,.14-.65.48-1.3.48ZM556.44,194.21c-.05.26-.26.38-.6.38h-5.78v1.3c0,.17-.65.46-1.25.46h-.29v-1.75h-6.34v1.34c0,.17-.67.5-1.25.5h-.29v-1.85h-5.98l-.22-.72h6.19v-2.45l2.3.24c-.05.31-.26.5-.77.58v1.63h6.34v-2.4l2.33.24c-.07.29-.26.5-.79.55v1.61h3.41l1.06-1.32s1.2.94,1.92,1.66ZM551.42,208.88c-.05.26-.26.38-.6.38h-4.68v2.69h6.07l1.08-1.34s1.22.94,2.02,1.68c-.07.26-.29.38-.62.38h-18.77l-.19-.72h8.88v-2.69h-5.02l-.19-.7h5.21v-2.4l2.3.24c-.02.31-.24.53-.77.58v1.58h2.57l.94-1.15s1.1.82,1.78,1.46ZM540.19,197.46v1.82h10.27v-1.82h-10.27ZM550.46,201.73v-1.73h-10.27v1.73h10.27Z"/>
        <path d="M569.4,196.93c-.1.31-.31.55-.94.55-.31.84-.82,2.06-1.42,3.41h9.48l1.18-1.49s1.34,1.03,2.16,1.8c-.05.26-.29.38-.62.38h-4.66c-.62,2.76-1.56,4.97-3.03,6.7,7.97,2.59,7.39,5.9,5.5,5.14-1.25-1.22-3.53-2.74-6.53-4.1-2.57,2.28-6.48,3.55-12.58,4.18l-.1-.43c5.23-.84,8.81-2.18,11.19-4.37-1.46-.58-3.1-1.13-4.85-1.61l-.89,1.8c-.38.19-1.06.14-1.71-.12.96-1.63,2.33-4.49,3.5-7.18h-6.82l-.19-.7h7.3c.72-1.73,1.34-3.34,1.68-4.42l2.33.46ZM561.1,193.66c.14.48.26.94.31,1.37h6.74v-3.53l2.47.24c-.05.34-.29.58-.89.65v2.64h7.32l1.06-1.06,1.82,1.8c-.17.17-.43.24-.91.26-.65.82-1.85,1.99-2.76,2.67l-.29-.17c.36-.74.82-1.9,1.13-2.81h-15.65c0,1.54-.62,2.54-1.27,3-.6.46-1.49.48-1.78-.1-.22-.53.1-1.01.6-1.32.96-.53,1.82-2.02,1.68-3.65h.41ZM566.76,201.58c-.74,1.66-1.58,3.46-2.33,5.04,2.11.34,3.94.74,5.5,1.15,1.42-1.61,2.3-3.65,2.83-6.19h-6Z"/>
        <path d="M586.83,196.25v-4.7l2.42.24c-.05.34-.29.58-.87.67v3.79h2.16l1.1-1.39s1.25.98,1.99,1.7c-.07.26-.29.38-.6.38h-5.9c-.05,1.27-.1,2.5-.19,3.7h3l.89-.98,1.8,1.49c-.17.19-.46.31-.96.36-.19,6.75-.74,9.77-1.73,10.8-.62.58-1.46.84-2.3.84,0-.46-.07-.87-.34-1.11-.29-.24-.91-.46-1.58-.55l.02-.41c.72.05,1.85.14,2.3.14.38,0,.58-.05.79-.26.7-.62,1.13-3.67,1.32-9.65h-3.27c-.43,4.71-1.56,8.79-4.75,12.07l-.26-.26c3.05-4.58,3.6-10.06,3.58-16.18h-3.19l-.19-.7h4.75ZM598.35,192.13c-.07.29-.34.53-.86.55-.36,1.49-.79,2.93-1.32,4.25h4.97l1.13-1.44s1.27,1.01,2.04,1.75c-.02.26-.26.38-.6.38h-1.56c-.53,3.72-1.54,6.94-3.36,9.6,1.37,2.04,3.19,3.72,5.62,4.9l-.07.22c-.72.12-1.25.48-1.49,1.22-2.14-1.37-3.74-3.14-4.92-5.23-1.75,2.14-4.13,3.86-7.37,5.21l-.21-.34c3.12-1.68,5.35-3.74,6.91-6.19-1.06-2.3-1.73-4.95-2.16-7.78-.77,1.46-1.66,2.74-2.66,3.77l-.36-.22c1.73-2.79,3.1-6.91,3.7-11.23l2.59.58ZM600.32,197.62h-4.46l-.36.84c.5,2.71,1.27,5.21,2.45,7.37,1.3-2.4,2.02-5.14,2.38-8.21Z"/>
        <path d="M609.91,200.72h-3.12l-.14-.7h2.9l.91-1.22,2.04,1.7c-.14.17-.5.36-1.15.46v7.85c.07,0,.12.07.19.14,1.73,2.35,4.08,2.52,9.27,2.52,2.74,0,4.99,0,7.8-.14v.34c-.74.14-1.15.65-1.25,1.34h-7.08c-5.33,0-7.34-.48-9.1-3.41-.29-.36-.53-.26-.74,0-.53.74-1.73,2.26-2.42,3.34.07.22.02.36-.17.53l-1.39-1.82c1.01-.7,2.5-1.97,3.46-2.62v-8.3ZM609.86,197.07c-.29-1.54-1.49-3.65-2.42-4.97l.31-.14c4.97,2.95,3.7,6.38,2.11,5.11ZM614.52,198.37h-.22v-5.38l1.61.74h3.48v-2.3l2.33.24c-.05.34-.24.53-.79.62v1.44h3.5l.82-.86,1.82,1.37c-.14.17-.5.34-.91.41v2.95c-.02.14-.77.5-1.27.5h-.22v-.72h-3.74v1.87h4.37l1.06-1.32s1.25.94,2.02,1.66c-.07.26-.31.38-.62.38h-15.05l-.19-.72h6.89v-1.87h-3.62v.53c0,.12-.65.46-1.25.46ZM620.97,203.82c-.31,3.19-.7,5.5-6.72,7.06l-.22-.5c5.04-1.75,5.42-3.89,5.54-7.61l2.26.62c-.1.24-.34.46-.86.43ZM614.85,208.35h-.24v-7.63l1.66.77h7.9l.84-.94,1.85,1.42c-.14.17-.5.36-.91.43v5.16c-.02.14-.82.5-1.32.5h-.24v-5.88h-8.23v5.69c0,.14-.65.48-1.3.48ZM615.76,194.43v2.23h3.62v-2.23h-3.62ZM625.77,211.04c-.98-1.18-3.38-2.71-5.09-3.48l.22-.29c6.72,1.06,6.6,4.32,4.87,3.77ZM620.92,196.66h3.74v-2.23h-3.74v2.23Z"/>
        <path d="M632.6,197.62c.14.48.24.94.31,1.37h2.02v-7.13l1.82.79h7.94l.89-.98,1.92,1.49c-.17.19-.55.36-1.03.46v5.38h2.16l.98-.98,1.78,1.73c-.17.14-.46.19-.91.22-.58.74-1.63,1.85-2.35,2.47l-.34-.17c.26-.65.65-1.7.89-2.54h-15.72c.05,1.39-.34,2.4-.84,2.93-.48.5-1.34.65-1.68.1-.29-.5,0-1.03.5-1.42.67-.6,1.37-2.23,1.25-3.7h.41ZM634.92,201.15l1.68.77h8.02l.79-.96,2.04,1.51c-.14.17-.53.38-1.01.46v8.38c0,1.2-.29,1.99-2.57,2.21-.07-.46-.22-.86-.53-1.08-.36-.26-1.01-.46-2.09-.58v-.38s2.47.17,3.02.17c.48,0,.58-.14.58-.48v-2.45h-8.4v4.22c0,.17-.62.55-1.3.55h-.24v-12.34ZM639.85,194.86l1.73.74h3.36v-2.26h-8.5v5.64h3.41v-4.13ZM644.86,204.9v-2.28h-8.4v2.28h8.4ZM636.46,208.02h8.4v-2.42h-8.4v2.42ZM644.93,198.99v-2.66h-3.62v2.66h3.62Z"/>
        <path d="M441.49,250.54c0-1.22.98-2.21,2.21-2.21s2.21.98,2.21,2.21-.98,2.21-2.21,2.21-2.21-.98-2.21-2.21Z"/>
        <path d="M477.71,241.93c-.05.26-.29.38-.62.38h-4.82v7.39h3.6l1.1-1.49s1.27,1.03,2.04,1.8c-.07.26-.29.38-.62.38h-6.12v10.54c0,.14-.53.55-1.37.55h-.26v-11.09h-6c-.19,4.42-1.54,8.54-7.7,11.09l-.26-.34c4.99-2.88,6.17-6.46,6.34-10.75h-6.17l-.19-.7h6.38v-7.39h-5.23l-.22-.72h16.97l1.13-1.39s1.25.98,2.04,1.73ZM464.65,249.7h5.98v-7.39h-5.98v7.39Z"/>
        <path d="M481.51,240.44l1.61.82h3.41l.86-1.03,1.92,1.51c-.14.22-.53.41-1.01.5v16.2c-.02.17-.77.55-1.32.55h-.22v-1.78h-3.77v2.3c0,.19-.53.6-1.2.6h-.29v-19.68ZM486.77,241.93h-3.77v4.2h3.77v-4.2ZM486.77,246.82h-3.77v4.42h3.77v-4.42ZM483,251.96v4.54h3.77v-4.54h-3.77ZM502.73,252.54c-.12.17-.36.22-.84.12-1.06.67-2.95,1.75-4.44,2.52,1.39,2.09,3.31,3.72,5.81,4.54l-.02.24c-.62.14-1.13.62-1.32,1.42-4.18-1.99-6.12-5.74-7.06-11.16h-2.74v8.35l4.8-1.3.1.36c-1.7.82-4.1,1.94-7.37,3.34-.07.29-.26.5-.5.58l-1.08-1.99c.58-.12,1.46-.31,2.52-.6v-18.72l1.8.79h6.58l.86-.98,1.94,1.49c-.17.19-.53.38-1.03.48v8.79c-.02.14-.79.53-1.32.53h-.22v-1.1h-3.86c.41,1.66,1.03,3.19,1.87,4.56,1.22-1.1,2.76-2.64,3.67-3.62l1.85,1.39ZM492.12,245.17h7.08v-3.46h-7.08v3.46ZM492.12,249.51h7.08v-3.62h-7.08v3.62Z"/>
        <path d="M512.77,240.34c-.1.29-.38.5-.94.48-.7,1.92-1.54,3.79-2.5,5.5l1.18.43c-.1.24-.34.38-.72.43v13.8c-.05.17-.7.55-1.3.55h-.29v-13.32c-.96,1.51-2.02,2.83-3.1,3.94l-.34-.24c2.06-2.98,4.25-7.71,5.5-12.36l2.5.79ZM518.22,255.68c-.14.24-.36.36-.89.26-1.34,1.94-3.86,4.25-6.72,5.62l-.24-.31c2.35-1.73,4.46-4.54,5.45-6.72l2.4,1.15ZM523.31,240.08c-.07.34-.29.58-.86.67v4.75h1.32l1.13-1.39s1.22.98,1.99,1.73c-.05.26-.29.36-.62.36h-3.82v6.38h1.82l1.1-1.42s1.27,1.03,2.02,1.75c-.05.26-.29.38-.62.38h-15.89l-.19-.72h3.96v-6.38h-3.19l-.19-.7h3.38v-5.71l2.42.26c-.05.34-.29.58-.86.67v4.78h4.66v-5.71l2.45.29ZM516.2,252.58h4.66v-6.38h-4.66v6.38ZM525.18,261.3c-.77-2.02-3.19-4.68-5.04-6.24l.26-.21c7.8,3.26,6.84,7.75,4.78,6.46Z"/>
        <path d="M543.86,252.32c-.94-.77-1.75-1.66-2.35-2.66h-3.29c-.7.91-1.51,1.73-2.47,2.47l2.06.24c-.02.26-.22.5-.77.58v1.85c-.07,2.59-1.18,5.35-7.27,6.77l-.22-.38c4.94-1.51,5.93-3.98,5.93-6.43v-2.42c-1.82,1.37-4.1,2.42-6.62,3.22l-.22-.38c3.12-1.34,5.78-3.26,7.51-5.5h-6.74l-.22-.7h9.65v-2.5h-7.08l-.19-.7h7.27v-2.28h-8.28l-.22-.7h5.88c-.17-1.01-1.06-2.26-1.82-3l.24-.14c3.26.7,3.53,2.54,2.81,3.14h4.42c.53-.96,1.1-2.23,1.49-3.22l2.5.79c-.1.26-.43.46-.91.38-.58.62-1.46,1.39-2.3,2.04h3.5l1.18-1.39s1.27.98,2.09,1.7c-.07.26-.31.38-.65.38h-8.3v2.28h4.54l1.08-1.32s1.25.94,2.02,1.66c-.07.24-.29.36-.6.36h-7.03v2.5h6.67l1.15-1.42s1.27,1.01,2.06,1.73c-.05.26-.29.38-.65.38h-7.54c1.9,2.02,5.5,3.43,8.74,4.08l-.02.24c-.65.14-1.1.65-1.3,1.42-1.9-.65-3.74-1.56-5.28-2.71-.07.14-.26.21-.55.26v8.06c0,.19-.7.53-1.25.53h-.31v-9.38l1.68.17Z"/>
        <path d="M568.94,250.54c0,5.04,2.5,8.5,5.28,10.75l-.41.48c-3.24-2.06-6.46-5.45-6.46-11.23s3.22-9.17,6.46-11.23l.41.48c-2.78,2.26-5.28,5.71-5.28,10.75Z"/>
        <path d="M587.38,240.05l2.66,1.97c-.36.46-1.2.72-2.42.84l.02,1.15c.79,7.51,4.49,13.13,11.23,15.89l-.1.29c-.84.02-1.34.48-1.7,1.37-4.03-2.23-8.21-6.89-9.31-13.03-1.56,6.12-5.33,10.51-10.78,13.03l-.26-.36c5.35-2.86,9.38-8.71,10.18-17.11v-1.8h-5.5l-.14-.7h5.11l1.01-1.54Z"/>
        <path d="M601.13,254.94c.55-1.8,1.18-4.78,1.54-6.96h-2.83l-.19-.67h5.76l1.1-1.42s1.27.98,2.06,1.73c-.07.24-.29.36-.62.36h-3.58c-.65,2.28-1.56,4.99-2.45,6.79l4.25-1.01c-.41-1.13-.98-2.23-1.49-3.07l.31-.14c4.85,3.6,3.34,7.42,1.8,5.95-.02-.72-.19-1.51-.46-2.33-1.27.67-3,1.58-5.23,2.64-.1.29-.31.5-.53.58l-1.13-2.09,1.68-.36ZM604.78,242.26l1.1-1.37s1.25.96,2.02,1.68c-.07.26-.31.38-.62.38h-6.89l-.19-.7h4.58ZM616.01,240.13c-.1.36-.41.53-.91.5-.5.62-1.25,1.49-1.85,2.14h5.47l.79-.94,1.75,1.32c-.17.22-.43.34-.94.41v8.64c0,.07-.58.46-1.27.46h-.26v-.98h-2.98v7.66c0,.34.07.46.77.46h1.7c.74,0,1.39,0,1.63-.02.19,0,.29-.05.41-.17.14-.19.38-.96.58-1.71h.26l.1,1.73c.48.14.62.34.62.6,0,.65-.62.91-3.67.89h-1.94c-1.61,0-1.92-.36-1.92-1.44v-7.99h-1.49c-.43,5.4-2.33,8.18-8.18,9.86l-.12-.38c4.94-2.09,6.34-4.75,6.65-9.48h-1.1v.7c0,.12-.48.48-1.25.48h-.22v-10.85l1.75.77h1.9c.34-.89.82-2.26,1.08-3.22l2.64.58ZM613.63,246.78v-3.31h-3.53v3.31h3.53ZM610.11,250.95h3.53v-3.46h-3.53v3.46ZM618.79,243.46h-3.67v3.31h3.67v-3.31ZM615.12,247.5v3.46h3.67v-3.46h-3.67ZM616.88,256.45c.31-1.18.65-2.71.82-3.86l2.06.6c-.1.29-.36.5-.89.48-.34.77-.82,1.8-1.34,2.74l2.14-.14c-.19-.48-.46-.94-.7-1.27l.31-.17c3.05,1.63,1.78,3.75.77,2.76-.02-.26-.1-.55-.19-.84l-2.76.91c-.14.31-.34.46-.55.5l-.72-1.66,1.06-.05Z"/>
        <path d="M628.08,246.82v14.14c-.02.14-.65.55-1.29.55h-.29v-13.15c-.96,1.42-2.02,2.64-3.1,3.67l-.34-.22c2.11-2.95,4.37-7.63,5.66-12.26l2.59.86c-.12.26-.41.46-.96.46-.7,1.8-1.51,3.55-2.4,5.16l.86.34c-.07.22-.31.36-.74.46ZM643.11,242.86c-.86,4.97-2.54,9.07-5.04,12.29,2.04,2.18,4.56,3.86,7.51,5.02l-.07.22c-.77,0-1.44.38-1.8,1.1-2.64-1.27-4.85-3-6.62-5.16-2.11,2.3-4.71,4.08-7.83,5.28l-.24-.36c2.93-1.37,5.38-3.31,7.34-5.86-2.42-3.31-3.94-7.58-4.63-12.84l.48-.24c.77,4.8,2.47,8.78,5.02,11.88,2.18-3.29,3.62-7.44,4.27-12.46l2.54.55c-.07.34-.36.58-.94.58ZM637.04,245c-.19-1.61-1.42-3.72-2.45-5.06l.31-.17c4.97,3.02,3.67,6.53,2.14,5.23Z"/>
        <path d="M662.04,239.91c-.05.29-.24.58-.84.67-.02,1.39.02,2.81.12,4.2h4.58l1.18-1.44s1.34,1.03,2.16,1.78c-.05.26-.31.38-.65.38h-7.22c.46,5.5,1.92,10.54,5.45,13.11.38.36.53.34.77-.12.26-.6.74-1.75,1.03-2.71l.31.05-.43,3.65c.72.94.82,1.32.58,1.58-.6.77-2.06.07-3.14-.82-3.91-3.05-5.62-8.38-6.19-14.74h-12.07l-.21-.72h12.22c-.12-1.66-.19-3.38-.19-5.16l2.57.29ZM652.95,257.94v-7.49h-4.3l-.17-.72h7.82l1.1-1.37s1.25.96,2.04,1.7c-.07.26-.31.38-.65.38h-4.3v7.1l5.42-1.42.12.41c-2.52.98-5.95,2.3-10.63,3.91-.1.29-.31.48-.5.58l-1.1-1.9c1.06-.19,2.9-.62,5.14-1.2ZM665.79,243.2c-.55-.91-1.94-2.11-3-2.76l.22-.22c5.14.58,4.44,3.75,2.78,2.98Z"/>
        <path d="M678.68,250.54c0,5.78-3.22,9.17-6.46,11.23l-.41-.48c2.78-2.26,5.28-5.71,5.28-10.75s-2.5-8.5-5.28-10.75l.41-.48c3.24,2.06,6.46,5.45,6.46,11.23Z"/>
      </g>
      <g>
        <path class="cls-2" d="M895.09,131.35h32.98v2.6h-18.53c-1.34,3.11-2.95,6.06-4.83,8.86h20.34v20.11h-2.74v-3.09h-17.93v3.23h-2.74v-16.07c-1.88,2.31-3.95,4.5-6.22,6.57-.47-.96-1-1.85-1.58-2.67,5.46-4.71,9.67-10.36,12.62-16.95h-11.36v-2.6ZM922.3,145.41h-17.93v11.81h17.93v-11.81Z"/>
        <path class="cls-2" d="M931.98,151.21c2.74-3.87,4.71-8.11,5.91-12.73h-5.34v-2.5h5.8v-7.1h2.71v7.1h5.1v2.5h-5.1v4.75l1.44-1.3c1.97,1.83,3.81,3.62,5.52,5.38l-2.11,1.93c-1.57-1.85-3.19-3.61-4.85-5.27v19.3h-2.71v-19.2c-1.43,4.1-3.09,7.51-4.99,10.23-.42-1.01-.88-2.04-1.37-3.09ZM947.59,136.09h11.6v-7.21h2.78v7.21h4.99v2.57h-4.99v18.98c0,3.3-1.54,4.96-4.61,4.96-1.34,0-3.16-.01-5.48-.04-.12-.87-.3-1.9-.56-3.09,2.32.16,4.05.25,5.2.25,1.78,0,2.67-.74,2.67-2.21v-15.82c-2.95,6.4-7.34,11.92-13.15,16.56-.56-.68-1.25-1.46-2.07-2.36,6.14-4.64,10.76-10.38,13.85-17.23h-10.23v-2.57Z"/>
        <path class="cls-2" d="M971.48,132.44h16.05c-.45-.83-.99-1.76-1.63-2.78l2.71-1.23c.7,1.21,1.44,2.54,2.21,4.01h15.15v2.5h-34.49v-2.5ZM974.04,139.96h8.54c-.81-1.18-1.69-2.36-2.64-3.52l2.14-1.44c1.12,1.31,2.14,2.53,3.06,3.66l-1.9,1.3h7.98c1.18-1.52,2.27-3.13,3.27-4.82l2.67,1.55c-1.11,1.32-2.05,2.41-2.81,3.27h8.75v18.42c0,2.95-1.35,4.44-4.04,4.46-1.45.02-3.09.01-4.92-.04-.19-1.36-.36-2.34-.53-2.95,1.85.19,3.38.28,4.57.28,1.52,0,2.29-.84,2.29-2.53v-15.22h-23.8v20.88h-2.64v-23.31ZM984.34,142.77l1.9,1.83c-2.74,2.34-5.31,4.41-7.7,6.19-.7-.96-1.25-1.65-1.65-2.07,2.58-1.71,5.06-3.69,7.45-5.94ZM981.64,159.79v-11.32h14.1v9.46h-11.57v1.86h-2.53ZM993.2,155.67v-4.96h-9.04v4.96h9.04ZM990.53,144.71l1.55-1.93c3.47,2.18,6.09,3.93,7.88,5.24l-1.76,2.21c-2.32-1.88-4.88-3.71-7.66-5.52Z"/>
      </g>
      <g>
        <path d="M826.21,229.64c.86-2.26,1.49-4.56,1.92-6.77h-7.58l-.22-.72h7.71l.96-1.01,1.75,1.63c-.17.24-.41.29-.96.34-.55,2.54-1.34,5.26-2.52,7.85.96,1.3,1.7,2.57,2.21,3.67,1.46,3.22-.14,4.51-1.06,2.4-.34-1.25-1.01-2.88-1.87-4.56-1.54,2.95-3.58,5.69-6.31,7.85l-.36-.29c2.45-2.45,4.39-5.66,5.81-9.07-1.13-1.92-2.54-3.82-4.1-5.26l.34-.24c1.7,1.34,3.12,2.76,4.3,4.18ZM842.17,225.49c-.07.26-.31.38-.62.38h-3.07v12.91c0,1.27-.29,2.16-2.74,2.38-.07-.48-.24-.89-.62-1.18-.43-.29-1.13-.5-2.4-.65v-.36s2.98.19,3.53.19.67-.14.67-.53v-12.77h-7.01l-.19-.7h7.2v-5.86l2.45.29c-.07.34-.31.55-.89.62v4.94h.7l1.08-1.51s1.22,1.06,1.92,1.82ZM833.38,233.62c-.43-1.34-1.22-3.58-2.76-4.99l.24-.24c5.47,2.42,4.08,6.65,2.52,5.23Z"/>
        <path d="M861.24,232.81l1.13-1.39s1.29.98,2.11,1.7c-.07.26-.29.38-.65.38h-7.82v5.98h6.84l1.2-1.51s1.34,1.06,2.18,1.85c-.07.24-.31.36-.65.36h-21.05l-.22-.7h10.11v-5.98h-7.68l-.22-.7h14.71ZM847.32,221.09c.14.53.26,1.03.31,1.49h6.79v-3.43l2.45.24c-.05.34-.29.58-.86.65v2.54h7.25l1.06-1.08,1.9,1.82c-.17.19-.46.22-.94.24-.82.96-2.33,2.23-3.46,2.98l-.31-.19c.53-.79,1.25-2.09,1.73-3.07h-4.63v5.11c0,.34.07.41.89.41h2.23c.96,0,1.73,0,2.06-.02.26-.02.36-.07.46-.26.19-.34.43-1.46.67-2.64h.31l.07,2.69c.53.19.67.38.67.7,0,.7-.72.98-4.34.98h-2.45c-1.82,0-2.18-.38-2.18-1.56v-5.4h-3c-.79,4.7-3.36,7.15-9,8.47l-.12-.34c4.78-1.73,6.7-4.08,7.27-8.14h-4.49c.02,1.66-.58,2.81-1.22,3.34-.6.5-1.44.62-1.78.1-.24-.5.05-1.03.53-1.34.94-.7,1.82-2.45,1.73-4.27h.41Z"/>
        <path d="M872.48,231.2h-.24v-7.56l1.68.74h9.91l.84-.91,1.85,1.42c-.14.17-.5.36-.94.43v5.18c0,.17-.77.53-1.3.53h-.24v-.94h-6.67l1.78.77c-.12.26-.36.41-1.03.36l-.77.84h9.1l1.08-1.3s1.22.91,2.02,1.63c-.07.26-.29.38-.65.38h-5.83c1.63,1.37,4.44,2.26,7.08,2.66l-.02.26c-.58.12-.96.53-1.1,1.25-2.78-.82-5.3-2.21-6.72-4.18h-5.67c-2.11,1.97-4.97,3.84-8.42,4.9l-.24-.34c2.54-1.13,4.9-2.81,6.65-4.56h-5.9l-.22-.72h6.82c.6-.67,1.1-1.32,1.51-1.97h-3.05v.62c0,.14-.65.48-1.3.48ZM890.03,221.86c-.05.26-.26.38-.6.38h-5.78v1.3c0,.17-.65.46-1.25.46h-.29v-1.75h-6.34v1.34c0,.17-.67.5-1.25.5h-.29v-1.85h-5.98l-.22-.72h6.19v-2.45l2.3.24c-.05.31-.26.5-.77.58v1.63h6.34v-2.4l2.33.24c-.07.29-.26.5-.79.55v1.61h3.41l1.06-1.32s1.2.94,1.92,1.66ZM885.01,236.53c-.05.26-.26.38-.6.38h-4.68v2.69h6.07l1.08-1.34s1.22.94,2.02,1.68c-.07.26-.29.38-.62.38h-18.77l-.19-.72h8.88v-2.69h-5.02l-.19-.7h5.21v-2.4l2.3.24c-.02.31-.24.53-.77.58v1.58h2.57l.94-1.15s1.1.82,1.78,1.46ZM873.78,225.1v1.82h10.27v-1.82h-10.27ZM884.05,229.38v-1.73h-10.27v1.73h10.27Z"/>
        <path d="M898.29,221.17l1.06-1.39s1.25,1.01,2.02,1.73c-.07.26-.31.38-.65.38h-3.74c-.34,2.06-.84,4.03-1.54,5.88l.41.19h2.38l.82-.94,1.87,1.44c-.17.19-.55.38-1.01.48v10.2c-.02.14-.74.48-1.25.48h-.22v-2.04h-2.86v2.52c0,.1-.5.5-1.22.5h-.24v-9.98c-.53.98-1.13,1.9-1.8,2.76l-.34-.29c1.75-3.17,2.81-7.2,3.36-11.21h-2.86l-.19-.72h6ZM895.58,228.66v8.23h2.86v-8.23h-2.86ZM906.77,232.59c-.12.31-.41.5-.91.46-.53.77-1.27,1.85-1.85,2.62h4.27v-4.06l2.38.26c-.07.31-.29.53-.86.62v3.17h1.61l1.13-1.44s1.25,1.03,1.99,1.78c-.07.26-.26.38-.6.38h-4.13v4.3c0,.19-.65.5-1.22.5h-.29v-4.8h-7.97l-.17-.72h3c.36-1.01.91-2.59,1.27-3.7l2.35.62ZM901.84,221.26l1.61.77h2.57c.24-.84.55-2.11.74-2.98l2.54.5c-.1.34-.41.53-.91.55-.38.58-.98,1.32-1.44,1.92h4.46l.84-.96,1.9,1.46c-.17.17-.55.36-1.01.46v8.52c-.03.12-.77.46-1.27.46h-.21v-1.1h-8.33v.98c0,.14-.62.5-1.25.5h-.24v-11.09ZM906.69,222.7h-3.36v3.31h3.36v-3.31ZM903.33,226.74v3.43h3.36v-3.43h-3.36ZM911.66,222.7h-3.53v3.31h3.53v-3.31ZM908.13,226.74v3.43h3.53v-3.43h-3.53Z"/>
        <path d="M919.42,227.96h-3.36l-.14-.7h3.17l.91-1.22,2.06,1.7c-.17.19-.5.36-1.18.46v7.63c.1.02.19.1.29.24,1.8,2.64,4.15,2.78,9.24,2.78,2.71,0,4.95,0,7.73-.12v.31c-.74.14-1.13.65-1.22,1.34h-7.01c-5.21,0-7.3-.53-9.14-3.7-.26-.38-.5-.34-.77,0-.58.77-1.94,2.45-2.76,3.62.1.24.02.41-.14.58l-1.42-1.85c1.08-.77,2.69-2.16,3.74-2.88v-8.21ZM920.12,224.74c-.41-1.56-1.82-3.67-2.9-4.99l.29-.17c5.54,2.83,4.32,6.38,2.62,5.16ZM937.47,224.55c-.07.26-.31.38-.65.38h-3.5v5.21h1.87l1.08-1.44s1.25,1.01,1.99,1.78c-.05.26-.29.38-.62.38h-4.32v6.79c0,.22-.62.58-1.2.58h-.29v-7.37h-4.32c-.29,2.86-1.34,5.11-3.96,6.91l-.34-.24c1.85-1.82,2.59-3.96,2.81-6.67h-3.65l-.19-.72h3.89l.02-1.25v-3.96h-2.95l-.19-.72h3.14v-4.92l2.38.26c-.07.31-.26.55-.86.62v4.03h4.22v-4.9l2.35.26c-.05.34-.24.55-.87.65v3.98h1.08l1.08-1.42s1.22,1.01,1.99,1.75ZM931.83,230.14v-5.21h-4.22v3.96l-.02,1.25h4.25Z"/>
        <path d="M948.13,225.46c-.14.24-.34.34-.91.24-.55.79-1.27,1.68-2.09,2.59l.74.29c-.1.19-.34.36-.72.43v11.67c-.05.14-.67.53-1.3.53h-.29v-11.3c-1.18,1.13-2.47,2.23-3.82,3.12l-.26-.29c2.54-2.35,5.11-5.98,6.38-8.5l2.26,1.22ZM947.86,220.5c-.14.24-.36.34-.91.22-1.46,1.7-4.1,4.01-6.77,5.52l-.26-.31c2.23-1.82,4.61-4.7,5.78-6.65l2.16,1.22ZM958.83,226.93l1.13-1.42s1.3,1.01,2.06,1.75c-.05.24-.29.36-.62.36h-3.98v11.04c0,1.25-.36,2.21-2.93,2.42-.05-.5-.26-.94-.67-1.18-.46-.26-1.27-.48-2.71-.65v-.38s3.38.24,4.03.24c.53,0,.7-.14.7-.53v-10.97h-7.82l-.19-.7h11.02ZM957.8,221.41l1.1-1.39s1.3.98,2.06,1.73c-.07.26-.31.38-.62.38h-11.04l-.17-.72h8.66Z"/>
        <path d="M970.91,219.99c-.1.29-.38.5-.94.48-.7,1.92-1.54,3.79-2.5,5.5l1.18.43c-.1.24-.34.38-.72.43v13.8c-.05.17-.7.55-1.3.55h-.29v-13.32c-.96,1.51-2.02,2.83-3.1,3.94l-.34-.24c2.06-2.98,4.25-7.71,5.5-12.36l2.5.79ZM976.36,235.33c-.14.24-.36.36-.89.26-1.34,1.94-3.86,4.25-6.72,5.62l-.24-.31c2.35-1.73,4.46-4.54,5.45-6.72l2.4,1.15ZM981.44,219.73c-.07.34-.29.58-.86.67v4.75h1.32l1.13-1.39s1.22.98,1.99,1.73c-.05.26-.29.36-.62.36h-3.82v6.38h1.82l1.1-1.42s1.27,1.03,2.02,1.75c-.05.26-.29.38-.62.38h-15.89l-.19-.72h3.96v-6.38h-3.19l-.19-.7h3.38v-5.71l2.42.26c-.05.34-.29.58-.86.67v4.78h4.66v-5.71l2.45.29ZM974.34,232.23h4.66v-6.38h-4.66v6.38ZM983.32,240.94c-.77-2.02-3.19-4.68-5.04-6.24l.26-.22c7.8,3.26,6.84,7.75,4.78,6.46Z"/>
        <path d="M1002,231.97c-.94-.77-1.75-1.66-2.35-2.66h-3.29c-.7.91-1.51,1.73-2.47,2.47l2.06.24c-.03.26-.22.5-.77.58v1.85c-.07,2.59-1.18,5.35-7.27,6.77l-.22-.38c4.95-1.51,5.93-3.98,5.93-6.43v-2.42c-1.82,1.37-4.1,2.42-6.62,3.22l-.22-.38c3.12-1.34,5.79-3.26,7.51-5.5h-6.75l-.22-.7h9.65v-2.5h-7.08l-.19-.7h7.27v-2.28h-8.28l-.21-.7h5.88c-.17-1.01-1.06-2.26-1.82-3l.24-.14c3.26.7,3.53,2.54,2.81,3.14h4.42c.53-.96,1.1-2.23,1.49-3.22l2.5.79c-.1.26-.43.46-.91.38-.58.62-1.46,1.39-2.3,2.04h3.5l1.18-1.39s1.27.98,2.09,1.7c-.07.26-.31.38-.65.38h-8.3v2.28h4.54l1.08-1.32s1.25.94,2.02,1.66c-.07.24-.29.36-.6.36h-7.03v2.5h6.67l1.15-1.42s1.27,1.01,2.06,1.73c-.05.26-.29.38-.65.38h-7.54c1.9,2.02,5.5,3.43,8.74,4.08l-.02.24c-.65.14-1.1.65-1.3,1.42-1.9-.65-3.74-1.56-5.28-2.71-.07.14-.26.22-.55.26v8.07c0,.19-.7.53-1.25.53h-.31v-9.38l1.68.17Z"/>
        <path d="M1022.58,220.9l.84-.96,1.92,1.56c-.17.19-.58.34-1.08.38-.26,1.2-.74,3.17-1.25,4.99h3.79l1.1-1.03,1.75,1.68c-.19.24-.46.29-1.03.34-1.06,3.14-2.59,5.86-4.92,8.07,2.18,1.68,4.85,2.9,7.99,3.74l-.1.26c-.82,0-1.51.46-1.87,1.25-2.95-.98-5.38-2.33-7.37-4.1-2.3,1.8-5.26,3.17-9.1,4.03l-.21-.36c3.48-1.06,6.26-2.57,8.45-4.51-2.74-2.86-4.49-6.72-5.38-11.83-.34,6.89-1.49,12.43-6.55,16.78l-.29-.26c4.56-5.35,5.28-11.62,5.28-19.35h-3.91l-.22-.67h12.15ZM1016.26,221.58c.84,6,2.95,10.42,6.43,13.51,1.94-2.11,3.31-4.63,4.18-7.51h-4.06l-.41,1.49c-.41.17-.91.19-1.7,0,.72-2.35,1.51-5.42,1.97-7.49h-6.41Z"/>
        <path d="M1039.72,220.06c-.38,1.27-.86,2.69-1.44,4.13h4.68l.96-1.01,1.73,1.61c-.17.24-.43.26-.96.34-.65,3.53-1.68,6.91-3.62,9.84,2.66,3.22,6.41,4.08,11.83,4.08h3v.34c-.62.1-.98.6-1.03,1.25h-2.18c-5.69,0-9.6-1.06-12.26-4.75-1.63,2.14-3.79,3.98-6.77,5.38l-.26-.34c2.74-1.61,4.78-3.72,6.29-6.17-1.1-1.92-1.97-4.42-2.62-7.66-1.01,2.23-2.16,4.32-3.34,5.91l-.36-.22c1.8-3.36,3.72-9.27,4.61-13.59l2.69.41c-.05.31-.24.43-.94.46ZM1040.22,233.79c1.46-2.69,2.38-5.71,2.88-8.9h-5.09l-.62,1.49c.74,3.17,1.66,5.59,2.83,7.42ZM1049.06,220.13v5.45c7.46,2.45,6.89,6.31,4.94,5.33-.82-1.51-3.12-3.53-4.94-4.8v11.14c0,.21-.65.55-1.2.55h-.34v-18.58l2.42.24c-.07.36-.26.58-.89.67Z"/>
        <path d="M1060.9,235.71v-6.82h-2.81l-.19-.67h3v-5.81h-2.88l-.19-.7h5.23l1.1-1.44s1.27,1.01,2.04,1.75c-.05.26-.31.38-.62.38h-3.12v5.81h.65l1.01-1.37s1.1.98,1.75,1.68c-.07.26-.29.36-.62.36h-2.78v6.29l3.6-1.27.12.34c-1.78.94-4.22,2.33-7.37,3.89-.07.29-.26.5-.5.6l-.77-1.97c.67-.17,1.9-.55,3.36-1.06ZM1066.4,220.13l1.66.79h8.69l.89-.98,1.95,1.49c-.17.19-.55.38-1.03.48v9.58c-.02.17-.79.58-1.32.58h-.24v-1.03h-3.86v3.67h3.07l1.1-1.42s1.25.98,2.02,1.75c-.05.26-.29.36-.65.36h-5.54v4.22h3.98l1.15-1.51s1.32,1.06,2.11,1.82c-.07.26-.31.38-.62.38h-15.62l-.17-.7h7.61v-4.22h-5.09l-.19-.7h5.28v-3.67h-3.62v.96c0,.17-.62.55-1.27.55h-.26v-12.41ZM1071.56,221.6h-3.62v4.01h3.62v-4.01ZM1067.94,226.3v4.03h3.62v-4.03h-3.62ZM1076.99,225.61v-4.01h-3.86v4.01h3.86ZM1073.12,230.34h3.86v-4.03h-3.86v4.03Z"/>
      </g>
      <g>
        <path class="cls-1" d="M2.16,26.91h13.92c1.06-1.03,2-2.14,2.81-3.33h-8.3v1.08h-3.28v-14.62h33.38v14.62h-3.28v-1.08h-14.81c-.69,1.16-1.48,2.27-2.39,3.33h25.69v2.72h-12.42c3.25,2.44,7.95,4.3,14.11,5.58-.84,1.06-1.55,2.08-2.11,3.05-6.72-1.97-12.05-4.84-15.98-8.62h-11.95c-3.78,3.44-8.8,6.42-15.05,8.95-.56-.84-1.25-1.77-2.06-2.77,4.97-1.66,9.11-3.72,12.42-6.19H2.16v-2.72ZM1.69,4.03h13.73V.61h3.28v3.42h10.59V.61h3.28v3.42h13.73v2.72h-13.73v2.39h-3.28v-2.39h-10.59v2.39h-3.28v-2.39H1.69v-2.72ZM4.41,41.72h17.81v-4.12h-10.31v-2.72h10.31v-3.94h3.19v3.94h10.31v2.72h-10.31v4.12h18.75v2.72H4.41v-2.72ZM37.41,12.66H10.59v2.86h26.81v-2.86ZM10.59,20.95h26.81v-2.91H10.59v2.91Z"/>
        <path class="cls-1" d="M52.61,37.88c2.23-.72,4.48-1.45,6.75-2.2v-18.7h-6.05v-3.28h6.05V.61h3.47v13.08h5.44v3.28h-5.44v17.53c1.98-.69,3.98-1.39,6-2.11.06,1.31.17,2.47.33,3.47-5.12,1.84-10.2,3.72-15.23,5.62l-1.31-3.61ZM82.1.38h3.66v12.12l11.39-3.45c-.19,6.16-.38,11.19-.56,15.09-.19,4.22-1.88,6.34-5.06,6.38-1.44.03-2.84.03-4.22,0-.19-1.16-.42-2.45-.7-3.89,1.5.19,2.8.28,3.89.28,1.62.03,2.47-1.16,2.53-3.56.19-2.84.3-6.08.33-9.7l-7.59,2.37v20.32h-3.66v-19.2l-7.08,2.2v18.16c0,2.44,1.33,3.66,3.98,3.66h11.48c2.88,0,4.47-1.16,4.78-3.47.38-2,.69-4.33.94-6.98,1.25.5,2.55.95,3.89,1.36-.44,3-.86,5.44-1.27,7.31-.75,3.56-3.2,5.34-7.36,5.34h-13.36c-4.5,0-6.75-2.2-6.75-6.61v-17.62l-3.52,1.08-.61-3.47,4.12-1.24V5.91h3.66v9.84l7.08-2.13V.38Z"/>
        <path class="cls-1" d="M125.87,41.27l11.09.16,14.81-.47c-.53,1.28-1.03,2.53-1.5,3.75l-14.44.05-10.64-.09c-5.59-.14-9.62-1.95-12.09-5.44-1.94,1.66-3.91,3.7-5.91,6.14l-2.02-3.98c2.3-1.98,4.38-3.77,6.23-5.34v-15.98h-6v-3.42h9.75v20.06c2.33,2.95,5.9,4.48,10.71,4.57ZM110.38.56c1.97,2.34,4.36,5.36,7.17,9.05-1.12.66-2.25,1.39-3.38,2.2-2.69-3.97-4.91-7.03-6.66-9.19l2.86-2.06ZM118.81,18.61h14.44V6.8c-3.98.23-8.02.47-12.09.7-.22-1.06-.5-2.2-.84-3.42,10.34-.5,19.72-1.09,28.12-1.78l.84,3.47c-4.02.27-8.08.53-12.19.8v12.05h14.16v3.56h-14.16v17.34h-3.84v-17.34h-14.44v-3.56Z"/>
        <path class="cls-1" d="M156.91,33.7c3.16-4.5,5.67-9.72,7.55-15.66h-6.94v-3.33h7.41v-7.36c-2,.16-4.14.31-6.42.47-.16-1.06-.39-2.2-.7-3.42,6.38-.34,11.94-.86,16.69-1.55l.84,3.56c-1.94.22-4.25.44-6.94.66v7.64h6.52v3.33h-6.52v6l1.55-1.73c2.06,1.62,4.11,3.33,6.14,5.11l-2.48,2.77c-1.59-1.5-3.33-3.11-5.2-4.83v21.23h-3.47v-20.67c-1.69,4.44-3.81,8.38-6.38,11.81-.5-1.34-1.05-2.69-1.64-4.03ZM173.36,34.88c5-3.66,9.08-8,12.23-13.03-2.88,1.41-6.08,2.69-9.61,3.84-.5-.97-1.08-2.02-1.73-3.14,4.62-1.34,8.75-3.03,12.38-5.06-1.34-1.31-3.11-2.86-5.3-4.64l2.16-2.34c2.28,1.78,4.3,3.45,6.05,5.02,2.91-1.84,5.62-4.48,8.16-7.92h-14.02c-1.81,2.53-4.27,5.12-7.36,7.78-.66-.84-1.42-1.72-2.3-2.62,4.5-3.66,7.95-7.91,10.36-12.75l3.33,1.27c-.53,1.03-1.11,2.03-1.73,3h15.66v3.38c-2.69,5.22-7.44,9.66-14.25,13.31l2.48.84c-.5.81-1.02,1.61-1.55,2.39h14.86v3.42c-4.16,9.53-13.62,16.02-28.41,19.45-.56-1.19-1.12-2.22-1.69-3.09,4.97-1.06,9.69-2.72,14.16-4.97-1.34-1.47-2.95-3.08-4.83-4.83l2.25-2.25c2.03,1.81,3.89,3.56,5.58,5.25,3.97-2.81,7-6.03,9.09-9.66h-13.45c-2.88,3.72-6.33,7.16-10.36,10.31-.59-.88-1.31-1.86-2.16-2.95Z"/>
        <path class="cls-1" d="M209.54,23.58c4.41-6.53,7.89-14.27,10.45-23.2l3.84,1.12c-1.2,3.69-2.48,7.15-3.84,10.38v34.43h-3.66v-26.79c-1.58,2.95-3.25,5.65-5.02,8.09-.47-1.19-1.06-2.53-1.78-4.03ZM222.57,19.27c4.16-5.69,7.22-12.03,9.19-19.03l3.84.7c-.73,2.41-1.56,4.73-2.48,6.98h23.11v3.28h-17.06v8.2h15.19v3.28h-15.19v8.53h15.8v3.28h-15.8v11.81h-3.66V11.2h-3.82c-1.77,3.81-3.82,7.39-6.16,10.73-.88-.84-1.86-1.73-2.95-2.67Z"/>
        <path class="cls-1" d="M261.44,39.8h15.05V1.08h3.94v38.72h8.2V1.08h3.94v38.72h15.19v3.47h-46.31v-3.47ZM266.88,10.27c2.56,6.03,5.05,12.44,7.45,19.22l-3.84,1.73c-2.09-6.59-4.44-13.08-7.03-19.45l3.42-1.5ZM294.25,29.91c3.12-6.62,5.75-13.03,7.88-19.22l3.8,1.5c-2.91,7.47-5.67,13.89-8.3,19.27l-3.38-1.55Z"/>
      </g>
    </g>
  </g>
</svg>