<?xml version="1.0" encoding="UTF-8"?>
<svg id="_レイヤー_2" data-name="レイヤー 2" xmlns="http://www.w3.org/2000/svg" viewBox="0 0 1120 974.64">
  <defs>
    <style>
      .cls-1 {
        fill: #29abe2;
      }

      .cls-2 {
        fill: #ffe8bc;
      }

      .cls-3 {
        fill: #fff;
      }

      .cls-4 {
        fill: #066;
      }

      .cls-5 {
        fill: #c93;
      }

      .cls-6 {
        fill: #fff7e6;
      }

      .cls-7 {
        fill: navy;
      }

      .cls-8 {
        fill: #42210b;
      }

      .cls-9 {
        fill: #b1e8ff;
      }
    </style>
  </defs>
  <g id="_引越のページ_" data-name="引越のページ１">
    <g id="zh">
      <rect class="cls-9" y="94.64" width="400" height="880" rx="40" ry="40"/>
      <rect class="cls-2" x="420" y="94.64" width="420" height="880" rx="40" ry="40"/>
      <g id="yoko">
        <rect class="cls-3" x="440" y="673.36" width="380" height="250" rx="30" ry="30"/>
      </g>
      <rect class="cls-6" x="440" y="447.01" width="380" height="200" rx="30" ry="30"/>
      <polygon class="cls-3" points="409.63 551.04 304.49 551.04 304.49 523.04 409.63 523.04 409.63 504.26 455.51 537.04 409.63 569.81 409.63 551.04"/>
      <polygon class="cls-7" points="448.63 537.04 413.63 512.04 413.63 527.04 308.49 527.04 308.49 547.04 413.63 547.04 413.63 562.04 448.63 537.04"/>
      <g id="yoko-2" data-name="yoko">
        <rect class="cls-3" x="20" y="445.84" width="360" height="300" rx="30" ry="30"/>
      </g>
      <polygon class="cls-3" points="910 625.84 850 625.84 850 488.19 910 488.19 910 428.5 1012.81 557.01 910 685.52 910 625.84"/>
      <polygon class="cls-7" points="1000 557.01 920 457.01 920 498.19 860 498.19 860 615.84 920 615.84 920 657.01 1000 557.01"/>
      <polygon class="cls-3" points="910 898.71 850 898.71 850 761.06 910 761.06 910 701.38 1012.81 829.89 910 958.39 910 898.71"/>
      <polygon class="cls-7" points="1000 829.89 920 729.89 920 771.06 860 771.06 860 888.71 920 888.71 920 929.89 1000 829.89"/>
      <g id="_市役所" data-name="市役所">
        <rect class="cls-3" x="100" y="228.5" width="200" height="200"/>
        <g>
          <rect x="172.5" y="368.5" width="55" height="60"/>
          <rect class="cls-1" x="172" y="373" width="56" height="51" transform="translate(598.5 198.5) rotate(90)"/>
          <rect x="136" y="390" width="58" height="19" transform="translate(564.5 234.5) rotate(90)"/>
          <rect x="206" y="390" width="58" height="19" transform="translate(634.5 164.5) rotate(90)"/>
          <rect class="cls-3" x="157.5" y="370.5" width="15" height="58"/>
          <rect class="cls-3" x="227.5" y="370.5" width="15" height="58"/>
          <rect x="188" y="316.5" width="24" height="104" transform="translate(568.5 168.5) rotate(90)"/>
          <rect class="cls-3" x="150" y="358.5" width="100" height="20"/>
        </g>
        <g>
          <g>
            <rect class="cls-1" x="212" y="242.5" width="26" height="26" transform="translate(480.5 30.5) rotate(90)"/>
            <rect class="cls-1" x="262" y="242.5" width="26" height="26" transform="translate(530.5 -19.5) rotate(90)"/>
            <rect class="cls-1" x="162" y="242.5" width="26" height="26" transform="translate(430.5 80.5) rotate(90)"/>
            <rect class="cls-1" x="112" y="242.5" width="26" height="26" transform="translate(380.5 130.5) rotate(90)"/>
          </g>
          <g>
            <rect class="cls-1" x="212" y="282.5" width="26" height="26" transform="translate(520.5 70.5) rotate(90)"/>
            <rect class="cls-1" x="262" y="282.5" width="26" height="26" transform="translate(570.5 20.5) rotate(90)"/>
            <rect class="cls-1" x="162" y="282.5" width="26" height="26" transform="translate(470.5 120.5) rotate(90)"/>
            <rect class="cls-1" x="112" y="282.5" width="26" height="26" transform="translate(420.5 170.5) rotate(90)"/>
          </g>
          <g>
            <rect class="cls-1" x="212" y="322.5" width="26" height="26" transform="translate(560.5 110.5) rotate(90)"/>
            <rect class="cls-1" x="262" y="322.5" width="26" height="26" transform="translate(610.5 60.5) rotate(90)"/>
            <rect class="cls-1" x="162" y="322.5" width="26" height="26" transform="translate(510.5 160.5) rotate(90)"/>
            <rect class="cls-1" x="112" y="322.5" width="26" height="26" transform="translate(460.5 210.5) rotate(90)"/>
          </g>
          <g>
            <rect class="cls-1" x="262" y="362.5" width="26" height="26" transform="translate(650.5 100.5) rotate(90)"/>
            <rect class="cls-1" x="112" y="362.5" width="26" height="26" transform="translate(500.5 250.5) rotate(90)"/>
          </g>
        </g>
      </g>
      <g id="_改葬先" data-name="改葬先">
        <rect class="cls-3" x="555" y="308.5" width="150" height="85"/>
        <polygon points="705 248.5 555 248.5 550 238.5 710 238.5 705 248.5"/>
        <path d="M721.67,288.5c-7-8.27-16.67-40-16.67-40h-150s-9.67,31.73-16.67,40c-6.08,7.18-31.87,20-31.87,20h247.08s-25.79-12.82-31.87-20Z"/>
        <rect x="530" y="368.5" width="200" height="10"/>
        <rect x="530" y="393.5" width="200" height="10"/>
        <rect class="cls-5" x="602.5" y="333.5" width="55" height="60"/>
        <rect x="625" y="263.5" width="10" height="150" transform="translate(968.5 -291.5) rotate(90)"/>
        <rect x="535.5" y="361.5" width="120" height="14" transform="translate(964 -227) rotate(90)"/>
        <rect x="604.5" y="361.5" width="120" height="14" transform="translate(1033 -296) rotate(90)"/>
        <rect class="cls-3" x="590.5" y="308.5" width="10" height="120"/>
        <rect class="cls-3" x="659.5" y="308.5" width="10" height="120"/>
        <rect x="555" y="373.5" width="10" height="55"/>
        <rect x="695" y="373.5" width="10" height="55"/>
        <rect class="cls-3" x="602.5" y="398.5" width="55" height="30"/>
        <rect x="656" y="413.5" width="17" height="15"/>
        <rect x="587" y="413.5" width="17" height="15"/>
        <rect x="602.5" y="426.5" width="55" height="2"/>
        <rect x="602.5" y="416.5" width="55" height="2"/>
        <rect x="602.5" y="406.5" width="55" height="2"/>
      </g>
      <g id="yoko-3" data-name="yoko">
        <rect class="cls-3" x="1020" y="94.64" width="100" height="880" rx="40" ry="40"/>
      </g>
      <g>
        <g>
          <path d="M539.41,790.52l2.77.28c-.06.36-.31.64-1.01.73v2.3h6.5v-3.3l2.8.28c-.06.36-.31.64-.98.73v2.3h3.98l1.32-1.68s1.54,1.2,2.44,2.04c-.06.31-.34.45-.76.45h-6.97v2.3c0,.22-.62.53-1.51.56h-.31v-2.86h-6.5v2.44c0,.25-.78.5-1.48.5l1.96,1.43c-.17.22-.59.39-1.18.2-.64.76-1.34,1.48-2.07,2.13,1.37,2.04,1.85,4.4,1.88,6.94.06,2.72-.28,5.6-1.46,7.08-.53.64-1.48.92-2.83.92,0-.59-.17-.95-.53-1.18-.39-.22-1.23-.56-2.24-.7v-.48s2.44.22,3.53.22c.39,0,.62-.08.81-.36.7-.9.98-3.22.98-5.54,0-.62-.03-1.23-.06-1.82-1.82,1.99-4.31,3.86-6.86,5.1l-.22-.42c2.58-1.62,5.18-4.31,6.64-7.14-.14-.59-.36-1.18-.64-1.76-1.85,1.54-3.86,2.74-5.71,3.58l-.28-.45c1.65-1.01,3.53-2.55,5.24-4.42-.7-1.01-1.62-1.99-2.88-2.91l.39-.39c1.34.73,2.41,1.57,3.28,2.46.7-.81,1.37-1.68,1.99-2.58v-2.86h-7.39l-.2-.81h7.59v-3.3ZM557.11,803.65c-.08.31-.36.45-.73.45h-6.92c1.06,5.18,3.84,8.48,8.12,10.25l-.06.31c-.84.08-1.46.64-1.76,1.54-4-2.41-6.02-6.13-6.89-12.1-.5,5.66-2.13,9.44-9.18,12.18l-.34-.48c5.63-2.88,7.17-6.41,7.62-11.7h-6.05l-.22-.81h6.33c.11-1.54.14-3.19.17-5.04l2.88.28c-.06.39-.34.67-.98.76-.06,1.43-.08,2.77-.17,4h4.34l1.34-1.74s1.57,1.2,2.49,2.1ZM552.63,801.35c-.36-.92-1.46-2.16-2.32-2.86l.28-.22c5.15,1.04,3.7,4.17,2.04,3.08Z"/>
          <path d="M563.9,810.03v-16.18h-2.6l-.22-.84h11.82l1.32-1.65s1.48,1.18,2.41,2.04c-.08.31-.34.45-.73.45h-3.28v21.7c0,.2-.59.73-1.51.73h-.28v-7.22c-2.04.87-4.7,1.99-8.15,3.28-.08.36-.34.59-.62.67l-1.15-2.38c.7-.11,1.74-.34,3-.59ZM565.69,798.39h5.12v-4.54h-5.12v4.54ZM565.69,803.82h5.12v-4.62h-5.12v4.62ZM565.69,809.61l5.12-1.18v-3.78h-5.12v4.96ZM583.16,795.81l1.2-1.23,2.07,1.93c-.2.25-.48.34-1.12.42-.84,4.03-2.16,8.09-4.54,11.62,1.74,2.44,3.89,4.4,6.41,5.82l-.06.28c-.78.08-1.48.56-1.68,1.32-2.27-1.51-4.14-3.56-5.66-6.02-1.71,2.18-3.86,4.14-6.64,5.71l-.36-.39c2.58-1.82,4.62-4.14,6.22-6.72-1.74-3.33-2.88-7.36-3.44-11.96h-1.96l-.25-.78h9.8ZM576.25,796.59c.62,4.06,1.85,7.59,3.58,10.5,1.76-3.25,2.86-6.86,3.5-10.5h-7.08Z"/>
          <path d="M590.57,799.93l2.13.92h5.26v-6.44h-7.62l-.25-.81h7.59l1.01-1.12,2.21,1.71c-.14.22-.59.42-1.15.53v7.59c-.03.17-.92.64-1.51.64h-.28v-1.26h-5.6v8.93c0,.42.14.56,1.12.56h2.58c1.15,0,2.04-.03,2.41-.03.31-.03.42-.11.53-.39.2-.45.53-2.1.87-3.78h.36l.08,3.92c.62.22.73.45.73.81,0,.84-.87,1.23-5.04,1.23h-2.83c-2.18,0-2.6-.45-2.6-1.9v-11.12ZM607.76,791.53c-.11.34-.42.62-1.06.62-.48,1.68-1.06,3.3-1.71,4.79h6.8l1.34-1.65s1.48,1.18,2.38,2.04c-.06.31-.31.45-.7.45h-2.18c-.7,4.45-2.02,8.2-4.37,11.26,1.88,2.35,4.31,4.23,7.62,5.54l-.08.28c-.84.14-1.46.59-1.74,1.48-3-1.54-5.18-3.61-6.8-6.1-2.38,2.58-5.63,4.56-10.08,6.05l-.22-.39c4.26-1.85,7.31-4.2,9.44-7.08-1.4-2.6-2.3-5.63-2.91-8.93-1.12,1.88-2.38,3.5-3.78,4.76l-.39-.28c2.38-3.22,4.45-8.23,5.43-13.58l3.02.76ZM610.51,797.77h-5.91l-.67,1.32c.7,3.16,1.74,6.02,3.33,8.48,1.74-2.83,2.74-6.08,3.25-9.8Z"/>
          <path d="M626.85,793.43v-2.86l2.77.28c-.06.39-.31.64-1.01.76v1.82h6.05v-2.86l2.83.28c-.06.39-.31.64-1.01.76v1.82h4.34l1.32-1.62s1.48,1.15,2.38,1.99c-.06.31-.34.45-.76.45h-7.28v1.71c0,.14-.64.48-1.51.48h-.31v-2.18h-6.05v1.82c0,.2-.73.45-1.48.45h-.28v-2.27h-7.76l-.17-.81h7.92ZM630.1,807.09c-.06.34-.25.56-.92.67v1.88h5.99v-2.86l2.6.28c-.06.31-.25.5-.78.62v1.96h3.84l1.29-1.51s1.46,1.09,2.38,1.9c-.06.31-.34.45-.73.45h-6.78v5.24c0,.2-.78.62-1.48.62h-.34v-5.85h-6.05c-.25,2.41-1.96,4.68-8.54,5.85l-.2-.45c5.15-1.23,6.72-3.25,6.94-5.4h-8.04l-.25-.84h8.34v-2.86l2.72.31ZM640.18,797.21l1.26-1.4s1.4.98,2.32,1.79c-.08.31-.36.45-.76.45h-14.95c-.48.62-1.04,1.2-1.65,1.76h3.28l.98-.95,1.9,1.62c-.2.22-.56.31-1.15.34-2.38,3.75-5.63,5.77-11.4,6.89l-.25-.48c2.63-.78,4.76-1.71,6.5-3.02-.22.14-.53.17-.87-.03-.31-.73-1.18-1.62-1.99-2.18-1.12.64-2.3,1.23-3.44,1.68l-.25-.42c2.3-1.26,4.7-3.25,6.08-5.21h-5.6l-.25-.84h20.24ZM624,801.63c2.63.53,2.97,1.93,2.41,2.46,1.2-.92,2.18-2.07,3-3.47h-3.98c-.48.36-.95.7-1.43,1.01ZM635.56,798.55c-.06.36-.31.62-.81.7v2.46c1.99-.76,4.06-1.9,5.15-2.77l2.07,1.54c-.22.25-.67.28-1.26.08-1.43.64-3.75,1.4-5.96,1.79v1.76c0,.39.11.48,1.06.48h2.74c1.18,0,2.18,0,2.49-.03.31-.03.45-.08.56-.28.2-.31.48-1.26.73-2.3h.36l.08,2.35c.56.17.76.36.76.7,0,.78-.84,1.04-5.07,1.04h-2.94c-2.13,0-2.49-.39-2.49-1.68v-6.13l2.52.28Z"/>
          <path d="M650.67,791.89l2.04.95h12.94l1.09-1.29,2.44,1.93c-.22.25-.7.5-1.32.62v21.34c-.06.2-.95.73-1.65.73h-.25v-2.18h-13.41v1.54c0,.28-.67.76-1.51.76h-.36v-24.39ZM652.54,793.65v5.85h13.41v-5.85h-13.41ZM652.54,806.28h13.41v-5.96h-13.41v5.96ZM652.54,813.17h13.41v-6.08h-13.41v6.08Z"/>
          <path d="M680.98,791.95c-.56,1.09-1.37,2.55-2.02,3.67h3.56l1.04-1.12,2.21,1.74c-.17.22-.64.45-1.2.56v17.16c-.03.2-.87.67-1.51.67h-.25v-2.13h-5.85v2.3c0,.22-.64.64-1.43.64h-.31v-20.72l1.88.9h.92c.34-1.43.81-3.44,1.06-4.93l2.94.67c-.11.39-.48.59-1.04.59ZM676.95,796.45v7h5.85v-7h-5.85ZM676.95,811.69h5.85v-7.42h-5.85v7.42ZM691.4,792.09c-.42,1.2-.9,2.41-1.43,3.53h6.13l1.15-1.26,2.21,1.88c-.22.25-.56.39-1.2.45-.2,10.36-.67,16.6-2.02,18.23-.76.95-1.88,1.34-3.22,1.34,0-.59-.14-1.12-.56-1.43-.42-.31-1.62-.64-2.77-.84l.03-.5c1.29.14,3.3.34,3.95.34.56,0,.78-.08,1.09-.39,1.04-1.04,1.46-7.42,1.65-17h-6.83c-1.18,2.32-2.55,4.37-4.09,5.91l-.39-.28c1.79-2.77,3.56-7.06,4.48-11.37l2.88.84c-.11.31-.45.59-1.06.56ZM691.03,807.4c-.31-1.9-1.99-4.34-3.39-5.82l.31-.2c6.75,3.02,5.12,7.59,3.08,6.02Z"/>
          <path d="M706.36,809.59v-9.6h-3.3l-.22-.84h3.53v-7.92l2.8.31c-.06.39-.31.67-1.01.78v6.83h.95l1.15-1.65s1.4,1.18,2.16,2.04c-.06.31-.31.45-.7.45h-3.56v8.85l4.23-1.88.17.39c-1.96,1.29-4.7,3.16-8.26,5.32-.08.34-.28.62-.53.76l-1.12-2.41c.78-.25,2.1-.76,3.72-1.43ZM724.9,796.59l1.01-1.09,2.1,1.71c-.2.22-.53.34-1.09.42-.08,7.36-.39,10.08-1.34,11.09-.59.59-1.43.87-2.32.87,0-.5-.03-.98-.31-1.26-.25-.25-.84-.45-1.46-.59v-.48c.64.06,1.62.14,2.07.14.42,0,.59-.06.78-.28.5-.53.7-3.28.81-9.72l-4.28,1.6v11.7c0,.22-.76.67-1.46.67h-.31v-11.7l-3.75,1.4v11.4c0,.84.31,1.18,2.07,1.18h4.14c1.96,0,3.39-.03,3.98-.11.45-.06.64-.17.81-.42.22-.53.64-2.18,1.04-4.23h.36l.08,4.34c.76.25.95.48.95.87,0,.98-1.23,1.26-7.28,1.26h-4.23c-2.83,0-3.72-.53-3.72-2.52v-11.09l-3.44,1.29-.53-.67,3.98-1.51v-8.04l2.77.34c-.06.36-.34.67-.98.78v6.24l3.75-1.4v-8.06l2.74.28c-.06.39-.31.67-.98.78v6.33l3.78-1.43.25-.08Z"/>
          <path d="M475.26,839.39l2.1.92h16.04l1.32-1.62s1.54,1.12,2.49,1.99c-.08.28-.36.42-.76.42h-10.25l2.18.5c-.11.36-.45.59-1.01.59-.28.31-.62.67-.98,1.01h5.66l.98-1.12,2.27,1.71c-.2.22-.67.48-1.18.59v5.52c-.03.17-.95.56-1.54.56h-.28v-.92h-4.7v3.81c0,1.29-.31,2.04-2.49,2.27-.03-.39-.14-.81-.42-1.06-.31-.2-.84-.39-1.79-.53v-.42s1.99.17,2.44.17c.39,0,.5-.17.5-.45v-3.78h-4.68v.56c0,.14-.78.56-1.48.56h-.25v-8.29l1.88.84h3.98l.53-2.1h-8.79v3.95c0,3.58-.34,8.43-4.23,11.68l-.36-.34c2.55-3.33,2.83-7.5,2.83-11.31v-5.68ZM476.91,857.22c.64,3.22-.95,4.98-2.21,5.6-.78.39-1.76.42-2.04-.22-.22-.56.2-1.06.76-1.37,1.37-.5,2.94-1.96,3-4h.5ZM483.88,851.51c-.2.28-.39.36-1.04.25-1.23,1.34-3.58,2.88-5.91,3.75l-.31-.36c1.96-1.23,3.98-3.3,4.93-4.87l2.32,1.23ZM482.2,857.17c-.06.28-.31.56-.81.62v3.86c0,.39.11.48,1.34.48h3.61c1.62,0,2.88-.03,3.33-.06.39-.03.5-.08.64-.34.22-.45.5-1.54.81-2.86h.36l.08,2.94c.64.2.81.42.81.76,0,.84-.92,1.12-6.13,1.12h-3.75c-2.46,0-2.94-.36-2.94-1.74v-5.1l2.63.31ZM492.31,844.01h-11.14v1.9h11.14v-1.9ZM481.16,846.72v1.96h11.14v-1.96h-11.14ZM486.82,860.02c-.64-1.29-2.44-2.94-3.84-3.84l.25-.28c6.33,1.04,5.6,5.07,3.58,4.12ZM494.8,855.57c-.9-1.6-3.47-3.53-5.4-4.48l.25-.31c7.64,1.23,7.31,5.66,5.15,4.79ZM496.25,862.68c-.56-1.99-2.83-4.26-4.73-5.49l.28-.25c7.81,1.96,6.75,7.14,4.45,5.74Z"/>
          <path d="M516.61,838.91c-.06.39-.36.67-1.06.76v1.6h6.44l1.37-1.68s1.51,1.18,2.49,2.04c-.06.31-.36.45-.76.45h-6.24l2.3.64c-.08.31-.45.53-1.04.5-.56.73-1.37,1.6-2.16,2.38h5.49l1.34-1.68s1.54,1.18,2.52,2.07c-.08.31-.36.42-.76.42h-24.16l-.25-.81h8.34l-.28-.2c0-1.12-.67-2.52-1.29-3.33h-4.82l-.25-.81h9.88v-2.63l2.88.28ZM506.25,857.5c.67,3.11-.81,4.87-2.04,5.49-.76.39-1.74.39-1.99-.25-.22-.56.2-1.06.76-1.34,1.32-.5,2.74-1.93,2.77-3.89h.5ZM506.72,847.53l1.96.84h11.87l1.04-1.09,2.27,1.71c-.2.22-.64.45-1.23.59v6.44c-.03.17-.9.59-1.51.59h-.28v-1.06h-12.32v.67c0,.2-.78.62-1.51.62h-.28v-9.3ZM520.84,849.21h-12.32v2.32h12.32v-2.32ZM508.52,852.35v2.41h12.32v-2.41h-12.32ZM511.57,857.47c-.06.31-.31.59-.81.64v3.67c0,.39.11.45,1.34.45h3.61c1.62,0,2.88,0,3.33-.03.39-.03.5-.08.64-.34.22-.42.5-1.51.78-2.86h.36l.08,2.94c.64.2.84.39.84.76,0,.84-.92,1.15-6.13,1.15h-3.75c-2.46,0-2.91-.36-2.91-1.79v-4.87l2.6.28ZM511.51,845.6h5.57c.39-1.06.87-2.46,1.12-3.53h-8.54c2.8,1.2,2.72,3.05,1.85,3.53ZM516.05,860.39c-.59-1.29-2.3-2.86-3.61-3.72l.25-.25c6.13.98,5.35,4.9,3.36,3.98ZM525.54,862.91c-.53-1.85-2.63-4.03-4.34-5.29l.28-.25c7.25,2.24,6.16,6.86,4.06,5.54Z"/>
          <path d="M535.28,851.96v-6.08h-3.7l-.22-.81h3.92v-6.41l2.77.31c-.08.39-.36.67-1.04.76v5.35h.64l1.15-1.6s1.29,1.12,2.04,1.96c-.08.31-.31.45-.7.45h-3.14v5.52l3.72-1.26.14.39-3.86,2.07v9.04c0,1.48-.25,2.38-2.63,2.66-.08-.56-.22-1.06-.56-1.34-.39-.31-.98-.5-2.07-.64v-.45s2.44.17,2.91.17.62-.14.62-.56v-7.95l-2.77,1.37c-.08.36-.31.62-.59.7l-1.01-2.32c.9-.2,2.46-.7,4.37-1.32ZM548.36,850.03c-.11.39-.42.64-1.12.64l-1.12,2.46h7.31l1.32-1.65s1.51,1.15,2.46,2.02c-.08.31-.36.45-.76.45h-3.39c-.56,2.16-1.37,3.92-2.58,5.35,6.66,2.55,5.8,5.6,3.89,4.84-.98-1.04-2.77-2.35-5.12-3.58-2.27,1.9-5.63,3.08-10.64,3.75l-.14-.5c4.23-.9,7.22-2.13,9.27-4.03-1.26-.59-2.66-1.18-4.14-1.68l-.64,1.18c-.42.17-1.2.11-1.9-.2.78-1.18,1.82-3.16,2.74-5.12h-4.48l-.22-.81h5.1c.64-1.43,1.2-2.74,1.51-3.61l2.66.5ZM553.82,843.64c-.08.34-.39.62-1.01.62-.7,1.29-1.82,2.94-2.94,4.31h3.64l1.32-1.62s1.48,1.15,2.41,1.99c-.06.31-.36.45-.76.45h-17l-.22-.81h9.88c.67-1.71,1.37-3.95,1.79-5.66l2.88.73ZM549.68,839.1c-.03.36-.28.62-.92.73v2.1h4.54l1.23-1.54s1.4,1.09,2.27,1.93c-.08.28-.34.42-.73.42h-15.68l-.22-.81h6.8v-3.11l2.72.28ZM544.36,847.81c0-1.54-.7-3.44-1.37-4.68l.36-.14c4.73,2.77,2.72,6.41,1.01,4.82ZM543.88,857.56c1.9.34,3.5.73,4.87,1.15,1.06-1.32,1.79-2.86,2.27-4.76h-5.32l-1.82,3.61Z"/>
          <path d="M562.16,856.52v-14.64l2.63.28c-.06.34-.28.56-.9.67v13.22l3.5-1.01v-16.21l2.77.31c-.08.39-.28.67-.98.78v23.63c0,.28-.78.73-1.46.73h-.34v-8.57c-1.4.78-3.3,1.85-5.66,3.08-.08.34-.31.62-.59.7l-1.23-2.41,2.24-.56ZM577.98,839.44c-.08.34-.42.62-1.04.62-.5,1.74-1.12,3.39-1.82,4.9h7.08l1.32-1.68s1.51,1.18,2.41,2.04c-.06.31-.34.45-.73.45h-2.07c-.7,4.42-1.93,8.26-4.23,11.45,1.82,2.27,4.2,4.09,7.34,5.38l-.08.31c-.81.11-1.48.59-1.76,1.46-2.83-1.48-4.93-3.44-6.5-5.8-1.96,2.3-4.51,4.2-7.9,5.74l-.28-.36c3.19-1.88,5.57-4.14,7.34-6.75-1.6-2.83-2.58-6.13-3.22-9.77-1.06,1.76-2.27,3.28-3.64,4.51l-.42-.25c2.27-3.14,4.26-7.92,5.18-12.99l3.02.76ZM581,845.77h-6.27l-.45.81c.76,3.47,1.88,6.61,3.61,9.24,1.68-2.94,2.63-6.33,3.11-10.05Z"/>
          <path d="M593.95,849.35h-3.64l-.17-.81h3.39l1.06-1.43,2.38,1.99c-.17.2-.59.42-1.34.53v9.16c.08,0,.14.08.22.17,2.02,2.74,4.76,2.94,10.81,2.94,3.19,0,5.82,0,9.1-.17v.39c-.87.17-1.34.76-1.46,1.57h-8.26c-6.22,0-8.57-.56-10.61-3.98-.34-.42-.62-.31-.87,0-.62.87-2.02,2.63-2.83,3.89.08.25.03.42-.2.62l-1.62-2.13c1.18-.81,2.91-2.3,4.03-3.05v-9.69ZM593.89,845.1c-.34-1.79-1.74-4.26-2.83-5.8l.36-.17c5.8,3.44,4.31,7.45,2.46,5.96ZM599.32,846.61h-.25v-6.27l1.88.87h4.06v-2.69l2.72.28c-.06.39-.28.62-.92.73v1.68h4.09l.95-1.01,2.13,1.6c-.17.2-.59.39-1.06.48v3.44c-.03.17-.9.59-1.48.59h-.25v-.84h-4.37v2.18h5.1l1.23-1.54s1.46,1.09,2.35,1.93c-.08.31-.36.45-.73.45h-17.56l-.22-.84h8.04v-2.18h-4.23v.62c0,.14-.76.53-1.46.53ZM606.85,852.97c-.36,3.72-.81,6.41-7.84,8.23l-.25-.59c5.88-2.04,6.33-4.54,6.47-8.88l2.63.73c-.11.28-.39.53-1.01.5ZM599.71,858.26h-.28v-8.9l1.93.9h9.21l.98-1.09,2.16,1.65c-.17.2-.59.42-1.06.5v6.02c-.03.17-.95.59-1.54.59h-.28v-6.86h-9.6v6.64c0,.17-.76.56-1.51.56ZM600.78,842.02v2.6h4.23v-2.6h-4.23ZM612.46,861.39c-1.15-1.37-3.95-3.16-5.94-4.06l.25-.34c7.84,1.23,7.7,5.04,5.68,4.4ZM606.8,844.62h4.37v-2.6h-4.37v2.6Z"/>
          <path d="M621.77,845.74c.17.56.28,1.09.36,1.6h2.35v-8.32l2.13.92h9.27l1.04-1.15,2.24,1.74c-.2.22-.64.42-1.2.53v6.27h2.52l1.15-1.15,2.07,2.02c-.2.17-.53.22-1.06.25-.67.87-1.9,2.16-2.74,2.88l-.39-.2c.31-.76.76-1.99,1.04-2.97h-18.34c.06,1.62-.39,2.8-.98,3.42-.56.59-1.57.76-1.96.11-.34-.59,0-1.2.59-1.65.78-.7,1.6-2.6,1.46-4.31h.48ZM624.49,849.86l1.96.9h9.35l.92-1.12,2.38,1.76c-.17.2-.62.45-1.18.53v9.77c0,1.4-.34,2.32-3,2.58-.08-.53-.25-1.01-.62-1.26-.42-.31-1.18-.53-2.44-.67v-.45s2.88.2,3.53.2c.56,0,.67-.17.67-.56v-2.86h-9.8v4.93c0,.2-.73.64-1.51.64h-.28v-14.39ZM630.23,842.52l2.02.87h3.92v-2.63h-9.91v6.58h3.98v-4.82ZM636.08,854.23v-2.66h-9.8v2.66h9.8ZM626.28,857.87h9.8v-2.83h-9.8v2.83ZM636.17,847.34v-3.11h-4.23v3.11h4.23Z"/>
          <path d="M654.32,839.95c-.56,1.09-1.37,2.55-2.02,3.67h3.56l1.04-1.12,2.21,1.74c-.17.22-.64.45-1.2.56v17.16c-.03.2-.87.67-1.51.67h-.25v-2.13h-5.85v2.3c0,.22-.64.64-1.43.64h-.31v-20.72l1.88.9h.92c.34-1.43.81-3.44,1.06-4.93l2.94.67c-.11.39-.48.59-1.04.59ZM650.29,844.45v7h5.85v-7h-5.85ZM650.29,859.69h5.85v-7.42h-5.85v7.42ZM664.73,840.09c-.42,1.2-.9,2.41-1.43,3.53h6.13l1.15-1.26,2.21,1.88c-.22.25-.56.39-1.2.45-.2,10.36-.67,16.6-2.02,18.23-.76.95-1.88,1.34-3.22,1.34,0-.59-.14-1.12-.56-1.43-.42-.31-1.62-.64-2.77-.84l.03-.5c1.29.14,3.3.34,3.95.34.56,0,.78-.08,1.09-.39,1.04-1.04,1.46-7.42,1.65-17h-6.83c-1.18,2.32-2.55,4.37-4.09,5.91l-.39-.28c1.79-2.77,3.56-7.06,4.48-11.37l2.88.84c-.11.31-.45.59-1.06.56ZM664.37,855.4c-.31-1.9-1.99-4.34-3.39-5.82l.31-.2c6.75,3.02,5.12,7.59,3.08,6.02Z"/>
          <path d="M681.73,859.07l4.09-2.91.25.36c-1.04,1.06-3,3.19-5.12,5.29-.17.53-.5.87-.76,1.01l-1.23-2.27c.9-.45,1.04-.62,1.04-1.15v-12.4h-3.7l-.25-.84h3.98l.92-.98,1.82,1.54c-.11.2-.48.42-1.04.53v11.82ZM681.17,843.98c-.42-1.57-1.96-3.67-3.16-4.93l.34-.2c6.08,2.55,4.73,6.44,2.83,5.12ZM702.14,862.29c-.06.31-.34.45-.76.45h-18.28l-.22-.81h3.75v-14.17l2.8.31c-.06.39-.34.67-1.04.78v13.08h4.06v-19.77h-7.28l-.22-.81h13.05l1.29-1.65s1.48,1.18,2.38,2.02c-.08.31-.36.45-.73.45h-6.66v8.96h3.39l1.26-1.62s1.48,1.15,2.38,2.02c-.06.31-.36.45-.76.45h-6.27v9.97h4.06l1.32-1.74s1.54,1.23,2.49,2.1Z"/>
          <path d="M706.38,840.03l2.1.87h4.65l1.01-1.12,2.24,1.74c-.17.22-.64.45-1.2.59v15.62c-.03.2-.87.67-1.51.67h-.25v-2.24h-5.26v2.72c0,.14-.59.64-1.48.64h-.28v-19.49ZM708.15,848.01h5.26v-6.27h-5.26v6.27ZM708.15,855.32h5.26v-6.5h-5.26v6.5ZM718.59,839.53l2.1.92h6.61l.92-1.18,2.38,1.76c-.2.25-.67.48-1.23.59v19.94c0,1.46-.31,2.44-3.16,2.74-.11-.59-.31-1.06-.76-1.37-.48-.31-1.32-.53-2.8-.73v-.45s3.47.25,4.17.25c.59,0,.76-.17.76-.67v-7.08h-7.56c-.64,3.86-2.44,7.5-7.06,10.11l-.39-.34c5.07-3.86,6.02-8.76,6.02-14.62v-9.88ZM720.38,847.67v1.71c0,1.34-.06,2.72-.22,4.06h7.42v-5.77h-7.2ZM720.38,841.26v5.6h7.2v-5.6h-7.2Z"/>
          <path d="M746.01,844.56v-5.88l2.88.28c-.06.39-.34.67-1.04.76v4.84h7.78l1.46-1.82s1.62,1.29,2.6,2.21c-.08.31-.34.45-.76.45h-4.14c-1.32,4.51-3.42,8.37-6.64,11.48,3.19,2.63,7.17,4.48,11.7,5.57l-.06.34c-.95.06-1.74.62-2.13,1.54-4.31-1.37-7.95-3.42-10.84-6.24-3.16,2.69-7.28,4.76-12.52,6.19l-.2-.39c4.9-1.71,8.74-4.03,11.68-6.89-2.66-3.02-4.59-6.86-5.68-11.59h-5.66l-.25-.84h11.79ZM746.96,855.82c2.66-3,4.45-6.5,5.46-10.42h-11.65c1.2,4.26,3.33,7.7,6.19,10.42Z"/>
          <path d="M770.77,839.67c-.11.31-.45.56-1.06.5-.76,2.04-1.62,4.03-2.63,5.85l1.18.45c-.08.25-.34.45-.81.53v16.66c-.03.17-.81.62-1.51.62h-.34v-15.71c-1.06,1.68-2.24,3.16-3.47,4.37l-.39-.28c2.38-3.36,4.82-8.68,6.19-13.97l2.86.98ZM780.29,839.3c-.08.39-.31.67-1.04.78v5.07h4.12l1.32-1.68s1.48,1.18,2.38,2.07c-.06.31-.34.45-.73.45h-7.08v6.8h4.84l1.34-1.68s1.51,1.18,2.44,2.07c-.08.31-.34.45-.73.45h-7.9v9.94c0,.28-.76.7-1.48.7h-.36v-10.64h-8.37l-.22-.84h8.6v-6.8h-4.65c-1.01,2.16-2.27,4.03-3.67,5.43l-.39-.28c1.68-2.72,3.19-6.8,3.92-11l2.86.9c-.11.31-.42.56-1.04.53-.36,1.23-.81,2.44-1.29,3.58h4.26v-6.19l2.88.34Z"/>
        </g>
        <g>
          <path d="M470.45,583.56l3.5-2.35.25.34c-.9.92-2.63,2.8-4.54,4.7-.17.5-.5.84-.76.98l-1.23-2.27c.87-.45,1.01-.64,1.01-1.15v-12.29h-3.7l-.25-.84h3.98l.92-.98,1.82,1.54c-.11.2-.48.39-1.01.5v11.82ZM469.81,568.07c-.39-1.48-1.74-3.44-2.83-4.62l.34-.22c5.77,2.35,4.34,6.16,2.49,4.84ZM489.97,566.84c-.08.31-.34.45-.7.45h-7.25v2.38h3.5l1.23-1.46s1.37,1.04,2.24,1.85c-.06.31-.31.45-.7.45h-6.27v2.58h4.79l1.34-1.62s1.48,1.15,2.44,2.02c-.08.31-.36.45-.76.45h-16.86l-.22-.84h7.45v-2.58h-5.35l-.22-.84h5.57v-2.38h-6.58l-.22-.84h6.8v-3.33l2.74.28c-.06.39-.31.62-.92.73v2.32h4.26l1.29-1.62s1.51,1.15,2.41,2.02ZM475.46,588.74h-.31v-13.86l1.96.9h8.51l.95-1.12,2.35,1.74c-.2.22-.64.45-1.2.56v9.21c0,1.46-.31,2.35-2.74,2.6-.08-.59-.2-1.06-.56-1.37-.36-.28-.98-.53-2.07-.67v-.45s2.46.2,2.97.2c.48,0,.59-.17.59-.56v-2.74h-8.96v4.96c0,.17-.73.62-1.48.62ZM476.95,576.61v2.46h8.96v-2.46h-8.96ZM485.91,582.35v-2.44h-8.96v2.44h8.96Z"/>
          <path d="M517.23,568.91c-.06.31-.34.45-.76.45h-14.14c-.92,1.82-2.1,3.64-3.5,5.32l.9.34c-.11.25-.36.42-.87.5v12.66c-.03.14-.78.62-1.48.62h-.34v-12.12c-1.43,1.4-3.05,2.69-4.87,3.75l-.31-.34c3.7-2.77,6.5-6.69,8.4-10.72h-7.34l-.25-.84h7.98c.81-1.82,1.43-3.67,1.88-5.4l3.05.84c-.14.34-.39.5-1.15.5-.45,1.32-.98,2.69-1.65,4.06h10.56l1.37-1.71s1.57,1.2,2.52,2.1ZM515.74,577.48c-.06.31-.31.45-.7.45h-6.08v8.51h4.87l1.34-1.68s1.54,1.18,2.49,2.07c-.08.31-.31.45-.73.45h-17.05l-.22-.84h7.45v-8.51h-5.68l-.22-.84h5.91v-6.44l2.74.28c-.06.36-.28.62-.9.73v5.43h3.14l1.29-1.6s1.48,1.12,2.35,1.99Z"/>
          <path d="M522.8,580.81v-8.93h-3.28l-.22-.84h3.5v-7.39l2.83.31c-.08.39-.34.67-1.01.76v6.33h.7l1.2-1.62s1.34,1.18,2.13,2.02c-.06.31-.34.45-.7.45h-3.33v8.29l3.98-1.48.17.39c-1.9,1.12-4.59,2.8-8.12,4.73-.06.31-.28.59-.56.7l-1.09-2.41c.78-.22,2.13-.67,3.81-1.29ZM535.32,586.92v-4.79h-7.22l-.22-.78h7.45v-4.42h-4.48v1.2c0,.11-.59.59-1.51.59h-.28v-14.48l2.13.92h10.11l1.04-1.15,2.27,1.74c-.2.22-.64.48-1.2.59v11.09c-.03.17-.95.62-1.57.62h-.25v-1.12h-4.45v4.42h3.86l1.29-1.68s1.51,1.18,2.41,2.04c-.06.28-.34.42-.73.42h-6.83v4.79h4.31l1.4-1.76s1.57,1.23,2.52,2.13c-.08.31-.34.45-.73.45h-18.37l-.22-.81h9.3ZM530.84,570.62h4.48v-4.65h-4.48v4.65ZM530.84,576.11h4.48v-4.68h-4.48v4.68ZM537.11,565.97v4.65h4.45v-4.65h-4.45ZM537.11,571.43v4.68h4.45v-4.68h-4.45Z"/>
          <path d="M555.28,565.92v-2.86l2.77.28c-.06.39-.31.64-1.01.76v1.82h6.05v-2.86l2.83.28c-.05.39-.31.64-1.01.76v1.82h4.34l1.32-1.62s1.48,1.15,2.38,1.99c-.06.31-.34.45-.76.45h-7.28v1.71c0,.14-.64.48-1.51.48h-.31v-2.18h-6.05v1.82c0,.2-.73.45-1.48.45h-.28v-2.27h-7.76l-.17-.81h7.92ZM558.53,579.58c-.06.34-.25.56-.92.67v1.88h5.99v-2.86l2.6.28c-.06.31-.25.5-.79.62v1.96h3.84l1.29-1.51s1.46,1.09,2.38,1.9c-.05.31-.34.45-.73.45h-6.78v5.24c0,.2-.78.62-1.48.62h-.34v-5.85h-6.05c-.25,2.41-1.96,4.68-8.54,5.85l-.2-.45c5.15-1.23,6.72-3.25,6.94-5.4h-8.04l-.25-.84h8.34v-2.86l2.72.31ZM568.61,569.7l1.26-1.4s1.4.98,2.32,1.79c-.08.31-.36.45-.76.45h-14.95c-.48.62-1.04,1.2-1.65,1.76h3.28l.98-.95,1.9,1.62c-.2.22-.56.31-1.15.34-2.38,3.75-5.63,5.77-11.4,6.89l-.25-.48c2.63-.78,4.76-1.71,6.5-3.02-.22.14-.53.17-.87-.03-.31-.73-1.18-1.62-1.99-2.18-1.12.64-2.3,1.23-3.44,1.68l-.25-.42c2.3-1.26,4.7-3.25,6.08-5.21h-5.6l-.25-.84h20.24ZM552.42,574.12c2.63.53,2.97,1.93,2.41,2.46,1.2-.92,2.18-2.07,3-3.47h-3.98c-.48.36-.95.7-1.43,1.01ZM563.99,571.04c-.06.36-.31.62-.81.7v2.46c1.99-.76,4.06-1.9,5.15-2.77l2.07,1.54c-.22.25-.67.28-1.26.08-1.43.64-3.75,1.4-5.96,1.79v1.76c0,.39.11.48,1.06.48h2.74c1.18,0,2.18,0,2.49-.03.31-.03.45-.08.56-.28.2-.31.48-1.26.73-2.3h.36l.08,2.35c.56.17.76.36.76.7,0,.78-.84,1.04-5.07,1.04h-2.94c-2.13,0-2.49-.39-2.49-1.68v-6.13l2.52.28Z"/>
          <path d="M580.7,583.56l4.09-2.91.25.36c-1.04,1.06-3,3.19-5.12,5.29-.17.53-.5.87-.76,1.01l-1.23-2.27c.9-.45,1.04-.62,1.04-1.15v-12.4h-3.7l-.25-.84h3.98l.92-.98,1.82,1.54c-.11.2-.48.42-1.04.53v11.82ZM580.14,568.47c-.42-1.57-1.96-3.67-3.16-4.93l.34-.2c6.08,2.55,4.73,6.44,2.83,5.12ZM601.11,586.78c-.06.31-.34.45-.76.45h-18.28l-.22-.81h3.75v-14.17l2.8.31c-.06.39-.34.67-1.04.78v13.08h4.06v-19.77h-7.28l-.22-.81h13.05l1.29-1.65s1.48,1.18,2.38,2.02c-.08.31-.36.45-.73.45h-6.66v8.96h3.39l1.26-1.62s1.48,1.15,2.38,2.02c-.06.31-.36.45-.76.45h-6.27v9.97h4.06l1.32-1.74s1.54,1.23,2.49,2.1Z"/>
          <path d="M603.95,564.52l2.1.87h4.65l1.01-1.12,2.24,1.74c-.17.22-.64.45-1.2.59v15.62c-.03.2-.87.67-1.51.67h-.25v-2.24h-5.26v2.72c0,.14-.59.64-1.48.64h-.28v-19.49ZM605.71,572.5h5.26v-6.27h-5.26v6.27ZM605.71,579.81h5.26v-6.5h-5.26v6.5ZM616.16,564.01l2.1.92h6.61l.92-1.18,2.38,1.76c-.2.25-.67.48-1.23.59v19.94c0,1.46-.31,2.44-3.16,2.74-.11-.59-.31-1.06-.76-1.37-.48-.31-1.32-.53-2.8-.73v-.45s3.47.25,4.17.25c.59,0,.76-.17.76-.67v-7.08h-7.56c-.64,3.86-2.44,7.5-7.06,10.11l-.39-.34c5.07-3.86,6.02-8.76,6.02-14.62v-9.88ZM617.95,572.16v1.71c0,1.34-.06,2.72-.22,4.06h7.42v-5.77h-7.2ZM617.95,565.75v5.6h7.2v-5.6h-7.2Z"/>
          <path d="M640.95,570.03c-.08.31-.34.45-.73.45h-3.67v2.69c5.68,2.44,4.2,5.99,2.35,4.7-.31-1.23-1.34-2.8-2.35-3.98v14.25c0,.25-.76.7-1.37.7h-.39v-13.36c-1.01,2.6-2.41,4.98-4.23,7.06l-.42-.36c2.13-3.25,3.47-7.48,4.2-11.7h-3.64l-.22-.84h4.31v-6.61l2.74.28c-.06.42-.28.7-.98.81v5.52h.95l1.23-1.57s1.37,1.12,2.21,1.96ZM656.72,586.47c-.08.31-.37.45-.73.45h-17.39l-.22-.84h14.56l1.34-1.68s1.51,1.18,2.44,2.07ZM656.04,571.43c-.08.31-.39.45-.76.45h-14.9l-.22-.81h8.57c.81-2.04,1.9-5.1,2.66-7.7l2.74.98c-.14.28-.45.5-1.06.5-1.04,2.07-2.38,4.45-3.61,6.22h2.86l1.32-1.65s1.48,1.18,2.41,2.02ZM654.64,578.38c-.08.31-.36.45-.76.45h-12.12l-.22-.81h9.38l1.32-1.65s1.48,1.15,2.41,2.02ZM644.42,569.56c-.17-1.88-1.54-4.26-2.74-5.68l.34-.2c5.82,3.16,4.2,7.42,2.41,5.88Z"/>
          <path d="M665.28,564.55c-.34.73-.73,1.46-1.12,2.13h4.98l1.15-1.46s1.29,1.04,2.13,1.85c-.08.31-.36.45-.76.45h-6.72c3.95,2.41,2.21,5.63.67,4.17.03-1.37-.78-3.08-1.68-4.17h-.28c-1.51,2.35-3.28,4.31-5.1,5.68l-.39-.31c2.04-2.24,4.2-5.94,5.49-9.8l2.69.98c-.11.31-.48.53-1.06.48ZM684.65,576.03l-.05.36c-.95.25-1.65.78-1.82,1.6-4.28-.87-8.46-2.94-11.03-5.94-2.94,2.72-7.28,5.24-12.96,6.41l-.22-.42c5.49-1.76,9.8-4.87,11.96-7.92l3,1.04c-.11.31-.45.45-1.26.42,2.6,2.55,8.18,4.09,12.4,4.45ZM679.25,580.2c-1.15,2.58-2.69,5.1-4.37,6.86h4.62l1.46-1.85s1.65,1.29,2.66,2.21c-.08.31-.39.45-.76.45h-23.07l-.22-.81h14.56c1.26-2.07,2.58-5.29,3.42-8.4l2.77,1.04c-.11.28-.48.53-1.06.5ZM665.7,585.55c-.22-1.9-1.51-4.54-2.55-6.22l.37-.14c5.43,4.03,3.86,7.92,2.18,6.36ZM677.71,577.48c-.08.31-.36.45-.73.45h-11.76l-.22-.81h9.38l1.15-1.46s1.34,1.04,2.18,1.82ZM671.16,585.04c-.14-1.96-1.2-4.59-2.13-6.24l.39-.17c5.15,4.09,3.42,8.04,1.74,6.41ZM676,564.6c-.36.7-.76,1.4-1.18,2.04h5.71l1.29-1.6s1.43,1.12,2.32,1.99c-.05.31-.31.45-.73.45h-6.36c4.34,2.52,2.66,6.08,1.01,4.62-.06-1.51-1.04-3.39-2.04-4.62h-1.79c-.84,1.12-1.76,2.1-2.72,2.83l-.42-.31c1.23-1.62,2.46-4.23,3.25-6.86l2.71.98c-.11.28-.48.5-1.06.48Z"/>
          <path d="M700.02,575.07c1.2-.84,2.46-1.99,3.33-2.97h-11.62l-.22-.84h12.24l1.23-1.26,2.24,2.02c-.22.2-.56.28-1.12.31-1.43.92-3.36,2.04-5.24,2.83l.22.03c-.08.39-.36.62-1.01.73v2.32h7.98l1.37-1.71s1.57,1.23,2.52,2.1c-.08.31-.34.45-.73.45h-11.14v7.06c0,1.48-.34,2.41-3.16,2.69-.14-.56-.31-1.04-.73-1.32-.5-.31-1.32-.53-2.8-.7v-.42s3.44.22,4.12.22c.56,0,.73-.17.73-.62v-6.92h-11.51l-.25-.84h11.76v-3.36l1.79.2ZM689.91,565.47c.17.62.28,1.2.34,1.74h7.98v-4.12l2.88.28c-.06.39-.34.67-1.04.76v3.08h8.54l1.23-1.23,2.16,2.1c-.22.2-.53.25-1.09.28-.84.81-2.35,1.93-3.44,2.55l-.36-.2c.45-.7,1.04-1.79,1.46-2.69h-18.28c-.03,1.74-.64,2.91-1.34,3.53-.64.59-1.68.7-2.07.03-.31-.56.06-1.18.64-1.6,1.01-.7,2.02-2.6,1.93-4.51h.48Z"/>
          <path d="M734.77,563.9c-.14.34-.45.56-1.06.53-.95,1.48-2.52,3.36-4,4.84h5.29l1.37-1.71s1.6,1.23,2.55,2.1c-.08.31-.34.45-.7.45h-5.88v6.66h3.5l1.43-1.76s1.6,1.2,2.58,2.13c-.06.31-.37.45-.76.45h-6.75v10.61c0,.14-.62.59-1.6.59h-.31v-11.2h-7c-.22,4.42-1.79,8.65-8.96,11.28l-.28-.39c5.71-2.97,7.11-6.66,7.34-10.89h-7.06l-.22-.81h7.31v-6.66h-6.02l-.22-.84h13.58c1.09-1.82,2.24-4.34,2.91-6.22l2.97.84ZM723.18,568.8c-.28-1.79-1.93-4-3.33-5.35l.34-.2c6.41,2.6,4.96,6.97,3,5.54ZM730.43,570.12h-6.97v6.66h6.97v-6.66Z"/>
          <path d="M767.37,587.25c-.05.31-.31.45-.7.45h-24.58l-.25-.81h3.72v-8.12l2.1.92h13.58l.95-1.26,2.44,1.76c-.22.28-.59.42-1.26.5v6.19h.59l1.23-1.6s1.37,1.15,2.18,1.96ZM766.61,576.22c-.08.31-.34.45-.73.45h-22.65l-.25-.84h10.53v-3.19h-7.9l-.22-.84h8.12v-3.11h-9.16l-.25-.84h12.32c.73-1.4,1.57-3.3,2.1-4.68l2.94.73c-.14.34-.45.56-1.09.53-.76,1.04-1.99,2.35-3.11,3.42h4.9l1.26-1.54s1.46,1.09,2.35,1.93c-.06.31-.34.45-.73.45h-9.69v3.11h4.79l1.26-1.54s1.46,1.09,2.32,1.93c-.06.31-.34.45-.73.45h-7.64v3.19h7.5l1.34-1.62s1.48,1.15,2.41,2.02ZM747.32,580.51v6.38h3.56v-6.38h-3.56ZM750.46,567.29c-.25-1.29-1.46-2.91-2.55-3.84l.31-.22c5.6,1.43,4.12,5.38,2.24,4.06ZM752.61,580.51v6.38h3.58v-6.38h-3.58ZM757.93,586.89h3.61v-6.38h-3.61v6.38Z"/>
          <path d="M773.13,572.22l1.96.9h12.46l.98-1.06,2.18,1.65c-.14.2-.56.42-1.06.53v6.66c-.03.17-.95.62-1.54.62h-.31v-1.15h-5.57v2.97h8.21l1.34-1.65s1.54,1.15,2.49,2.04c-.06.28-.36.42-.76.42h-11.29v4.14c0,.11-.62.5-1.54.5h-.31v-4.65h-11.45l-.25-.81h11.7v-2.97h-5.43v.87c0,.2-.81.64-1.57.64h-.25v-9.66ZM777.33,570.34c-.14-.06-.28-.14-.42-.25-.08-1.15-.78-2.58-1.48-3.44h-4.79l-.25-.84h10v-2.72l2.8.25c-.06.39-.31.64-.95.76v1.71h6.83l1.34-1.65s1.48,1.15,2.41,2.04c-.08.31-.34.45-.7.45h-5.54l1.48.48c-.11.31-.48.53-1.06.48-.67.84-1.68,1.88-2.69,2.74h5.8l1.34-1.68s1.51,1.18,2.46,2.07c-.08.28-.36.42-.76.42h-23.94l-.25-.81h8.37ZM787.81,576.31v-2.35h-12.85v2.35h12.85ZM774.96,579.55h12.85v-2.44h-12.85v2.44ZM778.09,570.34h5.35c.64-1.09,1.32-2.52,1.79-3.7h-8.93c2.86,1.32,2.69,3.28,1.79,3.7Z"/>
        </g>
        <g>
          <path d="M46.28,564.27c-.06.42-.31.7-1.01.78-.06,2.8-.08,5.99-.56,9.27,6.72,5.07,5.18,9.91,3.08,8.09-.31-2.16-1.79-4.93-3.22-7.08-.81,4.73-2.66,9.49-6.92,13.38l-.45-.45c6.3-7.17,6.16-16.74,6.19-24.3l2.88.31ZM63.53,586.81l-.08.31c-.9.11-1.51.62-1.82,1.65-4.23-3.84-5.91-10.05-6.58-17.22-.45,6.64-2.04,12.74-9.18,17.19l-.39-.48c8.09-6.24,7.78-14.9,7.81-24.39l2.91.28c-.06.42-.28.7-.95.78.42,9.58,1.96,17.11,8.29,21.87Z"/>
          <path d="M78.84,564.27v9.13h6.64l1.06-1.18,2.3,1.79c-.2.22-.67.45-1.23.56v13.55c-.03.2-.9.67-1.57.67h-.28v-1.93h-18.96l-.25-.81h19.21v-5.68h-17.28l-.25-.81h17.53v-5.35h-18.79l-.25-.81h10.28v-10.22l2.88.31c-.06.39-.34.67-1.04.78ZM72.04,571.91c-.56-2.16-2.6-4.98-4.17-6.72l.34-.22c7.31,3.84,5.94,8.51,3.84,6.94ZM87.36,566.48c-1.54,2.24-3.5,4.54-5.21,6.05l-.42-.28c1.2-1.82,2.74-4.73,3.89-7.45l2.83,1.26c-.14.31-.5.5-1.09.42Z"/>
          <path d="M100.61,568.38h5.57c.98-1.6,2.04-3.67,2.69-5.24l2.94.87c-.11.31-.45.53-1.09.5-.9,1.15-2.32,2.63-3.7,3.86h6.08l1.4-1.74s1.57,1.23,2.58,2.13c-.08.28-.36.42-.76.42h-24.78l-.25-.81h9.21c-.22,0-.48-.11-.73-.28-.28-1.6-1.71-3.53-2.97-4.68l.31-.2c5.32,1.65,4.98,5.1,3.5,5.15ZM93.86,571.18l1.9.92h5.01l.92-1.15,2.35,1.76c-.2.2-.67.45-1.23.53v13.05c0,1.4-.28,2.24-2.55,2.46-.06-.53-.14-.95-.45-1.26-.34-.25-.87-.45-1.82-.59v-.42s2.04.14,2.52.14c.42,0,.53-.17.53-.53v-4.56h-5.43v6.58c0,.22-.67.64-1.46.64h-.31v-17.58ZM95.62,572.92v3.39h5.43v-3.39h-5.43ZM95.62,577.15v3.58h5.43v-3.58h-5.43ZM109.4,572.02c-.06.39-.31.64-1.04.73v11.23c0,.22-.73.62-1.4.62h-.34v-12.88l2.77.31ZM115.39,571.35c-.06.42-.31.67-.98.76v14.06c0,1.46-.31,2.35-2.91,2.6-.08-.5-.25-.95-.62-1.26-.42-.28-1.15-.48-2.41-.64v-.45s2.88.22,3.5.22c.53,0,.67-.17.67-.59v-15.01l2.74.31Z"/>
          <path d="M123.92,577.15h-.28v-8.82l1.96.87h11.56l.98-1.06,2.16,1.65c-.17.2-.59.42-1.09.5v6.05c0,.2-.9.62-1.51.62h-.28v-1.09h-7.78l2.07.9c-.14.31-.42.48-1.2.42l-.9.98h10.61l1.26-1.51s1.43,1.06,2.35,1.9c-.08.31-.34.45-.76.45h-6.8c1.9,1.6,5.18,2.63,8.26,3.11l-.03.31c-.67.14-1.12.62-1.29,1.46-3.25-.95-6.19-2.58-7.84-4.87h-6.61c-2.46,2.3-5.8,4.48-9.83,5.71l-.28-.39c2.97-1.32,5.71-3.28,7.76-5.32h-6.89l-.25-.84h7.95c.7-.78,1.29-1.54,1.76-2.3h-3.56v.73c0,.17-.76.56-1.51.56ZM144.39,566.25c-.06.31-.31.45-.7.45h-6.75v1.51c0,.2-.76.53-1.46.53h-.34v-2.04h-7.39v1.57c0,.2-.78.59-1.46.59h-.34v-2.16h-6.97l-.25-.84h7.22v-2.86l2.69.28c-.06.36-.31.59-.9.67v1.9h7.39v-2.8l2.72.28c-.08.34-.31.59-.92.64v1.88h3.98l1.23-1.54s1.4,1.09,2.24,1.93ZM138.54,583.36c-.06.31-.31.45-.7.45h-5.46v3.14h7.08l1.26-1.57s1.43,1.09,2.35,1.96c-.08.31-.34.45-.73.45h-21.9l-.22-.84h10.36v-3.14h-5.85l-.22-.81h6.08v-2.8l2.69.28c-.03.36-.28.62-.9.67v1.85h3l1.09-1.34s1.29.95,2.07,1.71ZM125.44,570.03v2.13h11.98v-2.13h-11.98ZM137.42,575.02v-2.02h-11.98v2.02h11.98Z"/>
          <path d="M150.37,582.07v-9.6h-3.3l-.22-.84h3.53v-7.92l2.8.31c-.06.39-.31.67-1.01.78v6.83h.95l1.15-1.65s1.4,1.18,2.16,2.04c-.06.31-.31.45-.7.45h-3.56v8.85l4.23-1.88.17.39c-1.96,1.29-4.7,3.16-8.26,5.32-.08.34-.28.62-.53.76l-1.12-2.41c.78-.25,2.1-.76,3.72-1.43ZM168.91,569.08l1.01-1.09,2.1,1.71c-.2.22-.53.34-1.09.42-.08,7.36-.39,10.08-1.34,11.09-.59.59-1.43.87-2.32.87,0-.5-.03-.98-.31-1.26-.25-.25-.84-.45-1.46-.59v-.48c.64.06,1.62.14,2.07.14.42,0,.59-.06.78-.28.5-.53.7-3.28.81-9.72l-4.28,1.6v11.7c0,.22-.76.67-1.46.67h-.31v-11.7l-3.75,1.4v11.4c0,.84.31,1.18,2.07,1.18h4.14c1.96,0,3.39-.03,3.98-.11.45-.06.64-.17.81-.42.22-.53.64-2.18,1.04-4.23h.36l.08,4.34c.76.25.95.48.95.87,0,.98-1.23,1.26-7.28,1.26h-4.23c-2.83,0-3.72-.53-3.72-2.52v-11.09l-3.44,1.29-.53-.67,3.98-1.51v-8.04l2.77.34c-.06.36-.34.67-.98.78v6.24l3.75-1.4v-8.06l2.74.28c-.06.39-.31.67-.98.78v6.33l3.78-1.43.25-.08Z"/>
          <path d="M177.26,569.19l2.13,1.01h4.98l1.01-1.12,2.24,1.74c-.2.2-.64.42-1.23.53v7.48c-.03.17-.9.56-1.48.56h-.25v-1.65h-5.66c-.2,3.61-.92,7.9-3.75,11.14l-.36-.31c2.18-4.14,2.38-9.13,2.38-13.52v-5.85ZM185.02,565.44l1.32-1.65s1.48,1.18,2.38,2.02c-.08.31-.36.45-.73.45h-12.38l-.22-.81h9.63ZM179.06,571.01v4.03l-.03,1.85h5.63v-5.88h-5.6ZM200.45,565.27c-.25.25-.76.28-1.43.03-1.99.62-5.01,1.37-7.87,1.79v5.32h6.33l1.29-1.68s1.43,1.2,2.32,2.02c-.08.31-.31.45-.7.45h-3.11v15.04c0,.14-.59.62-1.54.62h-.31v-15.65h-4.28v.06c0,5.01-.7,11.31-6.72,15.51l-.39-.34c4.54-4.4,5.32-9.8,5.32-15.2v-7.5l1.9.64c2.52-.9,5.26-2.18,6.75-3.08l2.44,1.99Z"/>
          <path d="M226.88,568.91c-.06.31-.34.45-.76.45h-14.14c-.92,1.82-2.1,3.64-3.5,5.32l.9.34c-.11.25-.36.42-.87.5v12.66c-.03.14-.78.62-1.48.62h-.34v-12.12c-1.43,1.4-3.05,2.69-4.87,3.75l-.31-.34c3.7-2.77,6.5-6.69,8.4-10.72h-7.34l-.25-.84h7.98c.81-1.82,1.43-3.67,1.88-5.4l3.05.84c-.14.34-.39.5-1.15.5-.45,1.32-.98,2.69-1.65,4.06h10.56l1.37-1.71s1.57,1.2,2.52,2.1ZM225.4,577.48c-.06.31-.31.45-.7.45h-6.08v8.51h4.87l1.34-1.68s1.54,1.18,2.49,2.07c-.08.31-.31.45-.73.45h-17.05l-.22-.84h7.45v-8.51h-5.68l-.22-.84h5.91v-6.44l2.74.28c-.06.36-.28.62-.9.73v5.43h3.14l1.29-1.6s1.48,1.12,2.35,1.99Z"/>
          <path d="M236.38,564.43c-.56,1.09-1.37,2.55-2.02,3.67h3.56l1.04-1.12,2.21,1.74c-.17.22-.64.45-1.2.56v17.16c-.03.2-.87.67-1.51.67h-.25v-2.13h-5.85v2.3c0,.22-.64.64-1.43.64h-.31v-20.72l1.88.9h.92c.34-1.43.81-3.44,1.06-4.93l2.94.67c-.11.39-.48.59-1.04.59ZM232.35,568.94v7h5.85v-7h-5.85ZM232.35,584.17h5.85v-7.42h-5.85v7.42ZM246.8,564.57c-.42,1.2-.9,2.41-1.43,3.53h6.13l1.15-1.26,2.21,1.88c-.22.25-.56.39-1.2.45-.2,10.36-.67,16.6-2.02,18.23-.76.95-1.88,1.34-3.22,1.34,0-.59-.14-1.12-.56-1.43s-1.62-.64-2.77-.84l.03-.5c1.29.14,3.3.34,3.95.34.56,0,.78-.08,1.09-.39,1.04-1.04,1.46-7.42,1.65-17h-6.83c-1.18,2.32-2.55,4.37-4.09,5.91l-.39-.28c1.79-2.77,3.56-7.06,4.48-11.37l2.88.84c-.11.31-.45.59-1.06.56ZM246.44,579.89c-.31-1.9-1.99-4.34-3.39-5.82l.31-.2c6.75,3.02,5.12,7.59,3.08,6.02Z"/>
          <path d="M260.74,571.35l2.02.92h6.36v-4.17h-11.54l-.25-.81h11.79v-4.17l2.91.28c-.06.39-.34.67-1.04.76v3.14h7.81l1.43-1.79s1.62,1.26,2.66,2.16c-.08.31-.36.45-.78.45h-11.45l1.26.14c-.08.36-.31.62-.92.7v3.33h6.33l.95-1.15,2.38,1.76c-.17.2-.64.45-1.2.56v9.52c0,1.4-.34,2.35-3.08,2.58-.08-.53-.25-.98-.64-1.26-.45-.31-1.2-.59-2.55-.7v-.45s3.02.22,3.72.22c.53,0,.7-.2.7-.59v-9.69h-6.61v14.73c0,.28-.84.78-1.51.78h-.36v-15.51h-6.52v11.96c0,.2-.76.62-1.54.62h-.31v-14.31Z"/>
          <path d="M286.58,564.69l2.18.98h16.18l1.34-1.71s1.57,1.18,2.49,2.07c-.06.31-.34.45-.73.45h-19.63v19.38h17.58l1.48-1.82s1.65,1.29,2.66,2.18c-.08.31-.34.45-.73.45h-21v1.48c0,.14-.59.64-1.54.64h-.31v-24.11ZM305.43,568.75c-.17.25-.5.5-1.15.39-1.06,2.3-2.3,4.37-3.67,6.24,6.89,5.29,5.4,9.02,3.5,7.53-.76-1.65-2.3-3.84-4.59-6.1-2.69,3.3-5.85,5.88-9.21,7.67l-.31-.39c2.88-1.99,5.8-4.9,8.29-8.48-1.9-1.74-4.23-3.47-6.94-5.07l.28-.42c3.11,1.43,5.57,2.86,7.53,4.17,1.34-2.1,2.52-4.4,3.44-6.83l2.83,1.29Z"/>
          <path d="M330.93,563.85c-.11.36-.42.62-1.06.64-.42,1.74-.95,3.42-1.57,4.96h6.44l1.32-1.68s1.48,1.18,2.41,2.04c-.06.31-.34.45-.73.45h-2.16c-.67,4.4-1.9,8.15-4.14,11.2,1.76,2.38,4.09,4.28,7.22,5.63l-.08.28c-.87.11-1.51.56-1.76,1.43-2.8-1.57-4.87-3.61-6.38-6.08-2.24,2.55-5.29,4.56-9.46,6.1l-.22-.39c4-1.9,6.86-4.31,8.85-7.17-1.32-2.6-2.16-5.57-2.72-8.82-.84,1.51-1.76,2.83-2.83,3.92l-.39-.28c.36-.59.7-1.26,1.04-1.93h-4.45v8.51l5.85-1.54.11.45c-2.8,1.18-6.75,2.83-12.1,4.76-.11.36-.34.62-.62.7l-1.23-2.44,1.82-.39v-13.33l2.44.28c-.06.31-.22.53-.78.62v12.04l2.72-.67v-16.46h-5.43l-.22-.81h9.58l1.29-1.62s1.48,1.12,2.38,1.99c-.08.31-.34.45-.73.45h-5.07v6.64h1.6l1.23-1.6s1.12.92,1.93,1.71c1.32-2.91,2.35-6.52,2.88-10.25l3.05.67ZM333.45,570.26h-5.52l-.62,1.32c.67,3.11,1.65,5.94,3.11,8.4,1.65-2.83,2.58-6.05,3.02-9.72Z"/>
          <path d="M343.55,565.81l2.13.92h7.84v-3.58l2.83.25c-.06.39-.34.67-1.01.78v2.55h7.36l1.37-1.74s1.54,1.23,2.49,2.1c-.06.31-.34.45-.73.45h-20.5v6.05c0,1.65-.03,3.53-.25,5.43,2.55-2.86,4.68-7.31,5.6-10.44l2.83,1.12c-.17.28-.42.45-1.09.39-.59,1.23-1.4,2.69-2.41,4.12l1.32.5c-.11.25-.39.42-.84.48v12.99c-.03.17-.78.59-1.48.59h-.31v-12.77c-.98,1.23-2.1,2.41-3.33,3.39l-.28-.31c-.39,3.25-1.34,6.64-3.7,9.3l-.42-.28c2.38-4.28,2.58-9.6,2.58-14.48v-7.81ZM363.41,569.02c-.08.42-.31.67-.98.76v3.98h.78l1.26-1.65s1.37,1.18,2.24,2.04c-.08.28-.34.42-.73.42h-3.56v11.54c0,1.48-.31,2.41-2.94,2.69-.08-.56-.25-1.04-.62-1.34-.42-.31-1.18-.53-2.46-.7v-.45s2.97.25,3.58.25c.53,0,.67-.17.67-.62v-11.37h-8.09l-.22-.81h8.32v-5.01l2.74.28ZM355.71,581.93c-.08-1.79-1.29-4-2.38-5.38l.34-.22c5.85,2.97,3.92,7.34,2.04,5.6Z"/>
          <path d="M98.93,612.32c6.36,3.84,5.01,7.98,3.22,6.55-.39-1.9-1.99-4.34-3.42-6.02-1.32,3.42-3.64,7.7-6.47,10.36l-.36-.25c2.3-3.08,4.54-8.51,5.35-12.07l2.74.81c-.06.31-.31.5-1.04.56l-.03.06ZM97.9,630.38c.81-1.6,1.82-3.72,2.46-5.24h-7.25l-.25-.84h7.53l1.18-1.12,1.99,1.96c-.22.22-.53.25-1.12.28-.9,1.43-2.66,3.72-4,5.4,3.39,3.05,2.32,5.82.67,4.68-.62-2.3-3.08-5.24-5.01-7l.34-.25c1.46.7,2.58,1.4,3.47,2.13ZM98.31,622.29c-.08-1.32-.92-2.97-1.71-3.98l.31-.2c4.79,2.24,2.97,5.6,1.4,4.17ZM111,621.25c-.28,8.46-.22,12.88-9.41,15.51l-.31-.56c7.92-2.91,7.98-6.94,8.06-16.24l2.69.7c-.11.34-.39.59-1.04.59ZM118.39,613.67c-.06.31-.34.45-.73.45h-6.78c-.48,1.4-1.12,3-1.71,4.12h4.93l.95-1.04,2.07,1.62c-.17.2-.59.39-1.06.48v10.47c-.03.17-.87.59-1.43.59h-.28v-11.28h-8.46v10.95c0,.2-.67.56-1.43.56h-.28v-13.22l1.88.87h2.24c.14-1.12.31-2.8.39-4.12h-5.82l-.22-.84h11.93l1.34-1.68s1.51,1.18,2.46,2.07ZM116.37,636.63c-.98-2.02-3.84-4.59-5.94-6.02l.28-.28c8.68,2.69,7.92,7.48,5.66,6.3Z"/>
          <path d="M123.65,630.52v-16.18h-2.6l-.22-.84h11.82l1.32-1.65s1.48,1.18,2.41,2.04c-.08.31-.34.45-.73.45h-3.28v21.7c0,.2-.59.73-1.51.73h-.28v-7.22c-2.04.87-4.7,1.99-8.15,3.28-.08.36-.34.59-.62.67l-1.15-2.38c.7-.11,1.74-.34,3-.59ZM125.44,618.87h5.12v-4.54h-5.12v4.54ZM125.44,624.31h5.12v-4.62h-5.12v4.62ZM125.44,630.1l5.12-1.18v-3.78h-5.12v4.96ZM142.91,616.3l1.2-1.23,2.07,1.93c-.2.25-.48.34-1.12.42-.84,4.03-2.16,8.09-4.54,11.62,1.74,2.44,3.89,4.4,6.41,5.82l-.06.28c-.78.08-1.48.56-1.68,1.32-2.27-1.51-4.14-3.56-5.66-6.02-1.71,2.18-3.86,4.14-6.64,5.71l-.36-.39c2.58-1.82,4.62-4.14,6.22-6.72-1.74-3.33-2.88-7.36-3.44-11.96h-1.96l-.25-.78h9.8ZM135.99,617.08c.62,4.06,1.85,7.59,3.58,10.5,1.76-3.25,2.86-6.86,3.5-10.5h-7.08Z"/>
          <path d="M169.42,611.9c-.14.34-.45.56-1.06.53-.95,1.48-2.52,3.36-4,4.84h5.29l1.37-1.71s1.6,1.23,2.55,2.1c-.08.31-.34.45-.7.45h-5.88v6.66h3.5l1.43-1.76s1.6,1.2,2.58,2.13c-.06.31-.36.45-.76.45h-6.75v10.61c0,.14-.62.59-1.6.59h-.31v-11.2h-7c-.22,4.42-1.79,8.65-8.96,11.28l-.28-.39c5.71-2.97,7.11-6.66,7.34-10.89h-7.06l-.22-.81h7.31v-6.66h-6.02l-.22-.84h13.58c1.09-1.82,2.24-4.34,2.91-6.22l2.97.84ZM157.83,616.8c-.28-1.79-1.93-4-3.33-5.35l.34-.2c6.41,2.6,4.96,6.97,3,5.54ZM165.08,618.12h-6.97v6.66h6.97v-6.66Z"/>
          <path d="M179.89,628.56v-9.07h-3.25l-.22-.81h3.47v-7.25l2.83.31c-.08.39-.31.67-1.01.78v6.16h.76l1.18-1.65s1.34,1.2,2.16,2.02c-.06.31-.36.45-.73.45h-3.36v8.4l4.31-1.65.14.36c-1.96,1.2-4.7,2.91-8.34,4.9-.06.34-.28.62-.56.73l-1.12-2.38c.78-.22,2.1-.7,3.75-1.29ZM192.07,633.24c-.22.28-.62.31-1.32.2-2.02,1.26-5.46,2.69-8.79,3.36l-.14-.42c2.91-1.09,6.13-3.14,7.67-4.68l2.58,1.54ZM198.45,630.38l1.32-1.68s1.54,1.18,2.46,2.04c-.06.31-.34.45-.73.45h-18.68l-.22-.81h15.85ZM187.14,616.91l1.93.9h3.08v-2.55h-7.28l-.22-.81h7.5v-3.3l2.83.28c-.06.39-.34.67-1.04.76v2.27h4.56l1.32-1.65s1.46,1.18,2.35,2.04c-.06.28-.31.42-.7.42h-7.53v2.55h3.25l1.04-1.12,2.24,1.74c-.17.22-.64.42-1.2.53v9.66c-.03.2-.9.7-1.51.7h-.28v-1.18h-8.54v.81c0,.2-.76.62-1.51.62h-.28v-12.66ZM197.47,618.62h-8.54v2.32h8.54v-2.32ZM188.93,621.79v2.32h8.54v-2.32h-8.54ZM188.93,624.92v2.41h8.54v-2.41h-8.54ZM200.19,636.37c-1.01-1.23-2.97-2.72-5.77-3.92l.17-.45c10.61,1.88,7.42,6.1,5.6,4.37Z"/>
          <path d="M214.83,615.6c-.06.36-.34.64-1.04.73l-.62,2.63h8.82l1.29-1.6s1.46,1.15,2.41,1.99c-.08.31-.36.45-.76.45h-11.96l-1.01,3.78h9.83l1.06-1.15,2.1,1.76c-.22.22-.53.34-1.12.42-.11,1.4-.25,2.72-.42,3.92h2.52l1.4-1.74s1.54,1.2,2.49,2.13c-.06.31-.34.45-.73.45h-5.82c-.53,3.19-1.29,5.52-2.27,6.36-.81.7-1.93,1.04-3.22,1.04,0-.5-.14-1.01-.59-1.34-.48-.28-1.82-.59-3-.76v-.5c1.37.14,3.78.34,4.42.34.59,0,.87-.06,1.2-.31.62-.53,1.18-2.3,1.6-4.82h-16.88l-.25-.84h17.25c.2-1.26.36-2.66.48-4.17h-10.28l-.45,1.54c-.42.25-1.18.28-1.96.03.92-2.44,2.38-8.2,2.74-10.72l2.74.39ZM208.02,611.96c.14.45.25.87.31,1.29h18l1.26-1.26,2.24,2.16c-.2.22-.53.25-1.09.31-.81,1.04-2.35,2.49-3.5,3.33l-.34-.2c.48-.92,1.06-2.38,1.48-3.53h-17.95c.14,2.04-.62,3.42-1.43,4.09-.67.53-1.71.64-2.04-.03-.31-.59.06-1.23.64-1.6,1.09-.7,2.07-2.58,1.93-4.56h.48Z"/>
          <path d="M233.82,614.9l2.02.95h7.03v-4.68l2.88.28c-.08.39-.31.7-1.04.81v3.58h7.08l1.04-1.18,2.3,1.79c-.2.22-.64.45-1.2.56v12.49c-.03.2-.95.62-1.57.62h-.28v-2.04h-7.36v7.98c0,.28-.78.76-1.48.76h-.36v-8.74h-7.22v1.76c0,.2-.76.64-1.51.64h-.31v-15.6ZM235.64,616.66v4.87h7.22v-4.87h-7.22ZM242.86,622.35h-7.22v4.96h7.22v-4.96ZM244.71,621.53h7.36v-4.87h-7.36v4.87ZM252.07,627.3v-4.96h-7.36v4.96h7.36Z"/>
          <path d="M263.53,631.56l3.5-2.35.25.34c-.9.92-2.63,2.8-4.54,4.7-.17.5-.5.84-.76.98l-1.23-2.27c.87-.45,1.01-.64,1.01-1.15v-12.29h-3.7l-.25-.84h3.98l.92-.98,1.82,1.54c-.11.2-.48.39-1.01.5v11.82ZM262.89,616.07c-.39-1.48-1.74-3.44-2.83-4.62l.34-.22c5.77,2.35,4.34,6.16,2.49,4.84ZM283.05,614.84c-.08.31-.34.45-.7.45h-7.25v2.38h3.5l1.23-1.46s1.37,1.04,2.24,1.85c-.06.31-.31.45-.7.45h-6.27v2.58h4.79l1.34-1.62s1.48,1.15,2.44,2.02c-.08.31-.36.45-.76.45h-16.86l-.22-.84h7.45v-2.58h-5.35l-.22-.84h5.57v-2.38h-6.58l-.22-.84h6.8v-3.33l2.74.28c-.06.39-.31.62-.92.73v2.32h4.26l1.29-1.62s1.51,1.15,2.41,2.02ZM268.55,636.74h-.31v-13.86l1.96.9h8.51l.95-1.12,2.35,1.74c-.2.22-.64.45-1.2.56v9.21c0,1.46-.31,2.35-2.74,2.6-.08-.59-.2-1.06-.56-1.37-.36-.28-.98-.53-2.07-.67v-.45s2.46.2,2.97.2c.48,0,.59-.17.59-.56v-2.74h-8.96v4.96c0,.17-.73.62-1.48.62ZM270.03,624.61v2.46h8.96v-2.46h-8.96ZM278.99,630.35v-2.44h-8.96v2.44h8.96Z"/>
          <path d="M310.05,625.56c-.2.28-.45.39-1.04.22-1.4,1.06-3.75,2.46-5.96,3.44,2.27,2.63,5.35,4.28,8.85,5.1l-.03.34c-.92.31-1.6.92-1.76,1.82-5.46-1.93-9.27-6.19-10.89-13.33h-.36c-1.01,1.26-2.24,2.44-3.67,3.5v6.44l6.55-1.57.08.45c-2.55,1.06-6.08,2.46-11,4.17-.11.36-.34.59-.62.67l-1.29-2.38c.98-.17,2.55-.5,4.45-.92v-5.6c-2.16,1.37-4.62,2.52-7.22,3.42l-.28-.48c4.14-1.88,7.95-4.73,10.33-7.7h-9.69l-.25-.81h11.68v-3.19h-8.6l-.22-.81h8.82v-3.11h-9.77l-.25-.78h10.02v-3.3l2.88.31c-.06.39-.36.67-1.04.78v2.21h6.78l1.32-1.68s1.48,1.18,2.41,2.04c-.08.28-.36.42-.73.42h-9.77v3.11h5.91l1.2-1.6s1.37,1.12,2.27,1.99c-.08.28-.34.42-.76.42h-8.62v3.19h7.98l1.32-1.71s1.51,1.2,2.44,2.07c-.08.31-.34.45-.76.45h-10.89c.64,2.21,1.6,4.06,2.8,5.6,1.82-1.43,3.81-3.42,4.84-4.79l2.55,1.6Z"/>
          <path d="M43.7,671.97c0,5.88,2.91,9.91,6.16,12.54l-.48.56c-3.78-2.41-7.53-6.36-7.53-13.1s3.75-10.7,7.53-13.1l.48.56c-3.25,2.63-6.16,6.66-6.16,12.54Z"/>
          <path d="M56.32,660.99c.11.42.2.81.22,1.18h8.12v-3.11l2.86.28c-.06.36-.34.64-1.01.73v2.1h8.57l1.18-1.2,2.16,2.07c-.2.2-.53.22-1.06.28-.76.73-2.1,1.68-3.08,2.21l-.34-.2c.34-.62.81-1.54,1.15-2.35h-5.49v3.64c0,.36.08.45,1.04.45h2.6c1.12,0,2.07,0,2.46-.06.25,0,.42-.03.56-.17.2-.22.42-.78.67-1.46h.28l.11,1.46c.62.2.81.36.81.7,0,.78-.78,1.04-5.01,1.04h-2.86c-2.13,0-2.49-.39-2.49-1.68v-3.92h-4.12c-1.29,4.26-4.65,6.27-10.39,7.28l-.11-.45c4.84-1.37,7.39-3.36,8.34-6.83h-4.93c-.11,1.48-.87,2.44-1.68,2.83-.73.36-1.65.31-1.93-.34-.2-.64.22-1.15.81-1.43,1.06-.39,2.07-1.57,2.04-3.02l.5-.03ZM66.68,667.85c-.11.39-.48.59-1.04.56-.5.62-1.23,1.48-1.82,2.13h9.83l.95-1.15,2.07,1.62c-.2.2-.5.39-1.12.48v12.43c0,.11-.7.56-1.51.56h-.28v-1.74h-15.99v1.48c0,.14-.59.56-1.46.56h-.28v-15.15l2.07.9h4.62c.34-.92.78-2.38,1.04-3.39l2.91.7ZM62.32,674.99c1.04-1.15,1.9-2.44,2.49-3.67h-7.03v10.58h15.99v-10.58h-8.76l2.24.73c-.11.28-.34.39-1.04.28-.25.39-.53.78-.87,1.18h3.7l1.15-1.01,1.82,1.65c-.22.22-.53.28-1.18.28-.7,1.09-1.54,2.07-2.55,2.94,4.09,2.32,3.39,4.31,1.99,3.67-.7-.76-1.82-1.71-3.3-2.66-2.07,1.43-4.68,2.49-7.76,3.16l-.25-.5c2.66-.78,5.01-1.93,6.86-3.39-.92-.53-1.93-1.06-3.05-1.6-1.09.92-2.35,1.71-3.67,2.3l-.31-.42c1.04-.62,2.04-1.43,2.94-2.32-.73-.31-1.51-.62-2.3-.9l.14-.45c.98.22,1.9.48,2.74.73ZM63.58,675.39c1.34.42,2.46.87,3.39,1.32.76-.73,1.4-1.54,1.93-2.38h-4.26c-.31.36-.67.7-1.06,1.06Z"/>
          <path d="M82.95,683.73h-.34v-21.34l2.07.98h14.95l1.15-1.34,2.6,2.04c-.25.28-.81.53-1.51.67v18.03c-.06.17-.95.59-1.62.59h-.28v-3.05h-15.48v2.69c0,.25-.7.73-1.54.73ZM99.98,664.21h-15.48v15.29h15.48v-15.29Z"/>
          <path d="M114.14,659.98c-.17.34-.42.59-1.12.56-.25,1.29-.73,3.14-1.26,5.21h3.56l1.09-1.12,2.04,1.85c-.22.22-.48.31-1.06.39-.45,3.61-1.15,7.06-2.66,10.08,4.26,3.16,3.5,6.19,1.65,5.15-.48-1.15-1.43-2.38-2.58-3.58-1.62,2.52-4.03,4.65-7.56,6.24l-.28-.39c3.16-1.79,5.29-4.14,6.75-6.92-1.12-1.04-2.38-1.99-3.53-2.74l-.7,2.18c-.39.25-1.12.28-1.9.03.92-2.35,2.16-6.47,3.16-10.33h-3.39l-.25-.84h3.86c.64-2.55,1.18-4.9,1.46-6.5l2.72.73ZM109.35,674.15c1.6.59,2.94,1.26,4.03,1.9,1.2-2.83,1.82-6.02,2.13-9.46h-3.98c-.67,2.49-1.46,5.21-2.18,7.56ZM119.93,661.64l1.9.95h6.52l1.04-1.2,2.27,1.79c-.17.22-.64.45-1.2.56v19.43c-.06.17-.9.67-1.57.67h-.25v-3.02h-6.94v2.63c0,.25-.62.7-1.43.7h-.34v-22.51ZM128.64,680.01v-16.6h-6.94v16.6h6.94Z"/>
          <path d="M137.84,667.35l2.02.92h6.36v-4.17h-11.54l-.25-.81h11.79v-4.17l2.91.28c-.06.39-.34.67-1.04.76v3.14h7.81l1.43-1.79s1.62,1.26,2.66,2.16c-.08.31-.36.45-.78.45h-11.45l1.26.14c-.08.36-.31.62-.92.7v3.33h6.33l.95-1.15,2.38,1.76c-.17.2-.64.45-1.2.56v9.52c0,1.4-.34,2.35-3.08,2.58-.08-.53-.25-.98-.64-1.26-.45-.31-1.2-.59-2.55-.7v-.45s3.02.22,3.72.22c.53,0,.7-.2.7-.59v-9.69h-6.61v14.73c0,.28-.84.78-1.51.78h-.36v-15.51h-6.52v11.96c0,.2-.76.62-1.54.62h-.31v-14.31Z"/>
          <path d="M164.46,681.74v-21.84l2.18.95h14.17l1.04-1.15,2.3,1.74c-.2.22-.64.45-1.2.56v6.72c-.03.2-.95.64-1.57.64h-.28v-1.6h-5.99c.03,1.57.25,3.19.64,4.73h6.69l1.4-1.71s1.54,1.2,2.52,2.1c-.08.31-.36.45-.76.45h-9.63c1.15,3.84,3.56,7.2,7.53,8.62.56.2.81.14.98-.28.28-.59.7-1.62,1.04-2.6l.36.06-.34,3.36c.81.67.92,1.01.73,1.43-.45.84-1.96.5-3.47-.2-4.82-1.96-7.45-5.74-8.68-10.39h-7.81v8.01c2.6-.53,5.71-1.2,8.93-1.9l.08.48c-2.88,1.04-6.89,2.38-12.49,4.06-.11.34-.34.56-.56.67l-1.4-2.27c.87-.14,2.1-.36,3.58-.64ZM166.31,666.93h14.78v-5.29h-14.78v5.29ZM173.9,672.5c-.34-1.51-.53-3.11-.62-4.73h-6.97v4.73h7.59Z"/>
          <path d="M193.08,679.42l3.33-2.38.28.34c-.84.92-2.52,2.83-4.37,4.76-.14.56-.5.95-.78,1.09l-1.23-2.27c.87-.45,1.01-.64,1.01-1.15v-12.29h-3.92l-.25-.84h4.2l.92-.98,1.85,1.54c-.14.2-.5.39-1.04.5v11.68ZM192.71,664.35c-.45-1.54-2.13-3.64-3.36-4.9l.34-.22c6.27,2.46,4.96,6.41,3.02,5.12ZM212.73,673.9c-.08.31-.34.45-.73.45h-7.2c1.85,3.19,5.24,5.85,8.46,7.11l-.03.31c-.76.08-1.32.64-1.57,1.51-2.94-1.71-5.6-4.56-7.22-8.23v9.13c0,.17-.56.59-1.46.59h-.28v-8.71c-1.99,3.14-4.93,5.68-8.65,7.53l-.28-.45c3.53-2.21,6.24-5.35,7.87-8.79h-6.47l-.22-.84h7.76v-3h-4.17v.73c0,.14-.56.62-1.46.62h-.25v-11.98l2.04.9h9.38l1.01-1.12,2.21,1.74c-.17.22-.62.42-1.2.53v9.02c-.03.14-.9.56-1.48.56h-.25v-.98h-4.09v3h4.62l1.29-1.65s1.46,1.18,2.38,2.04ZM202.74,661.61h-4.2v3.61h4.2v-3.61ZM202.74,666.06h-4.2v3.61h4.2v-3.61ZM208.53,665.22v-3.61h-4.12v3.61h4.12ZM208.53,669.67v-3.61h-4.12v3.61h4.12Z"/>
          <path d="M219.68,683.56c-.9-1.85-2.04-3.56-4.54-5.32l.31-.48c3.36,1.06,5.12,2.49,6.05,3.84.5.73.67,1.26.67,1.88,0,.81-.48,1.26-1.15,1.26-.59,0-.95-.34-1.34-1.18Z"/>
          <path d="M247.31,662.7l2.16.95h14.34l1.01-1.09,2.18,1.68c-.17.2-.62.42-1.09.5v8.79c-.03.2-.92.62-1.57.62h-.28v-1.68h-15.06c-.34,4.12-1.51,8.82-5.38,12.32l-.42-.34c3.58-4.68,4.12-10.33,4.12-15.48v-6.27ZM264.06,671.66v-7.2h-14.92v4.48c0,.84-.03,1.76-.08,2.72h15.01ZM256.69,663.21c-.36-1.34-1.46-3.05-2.3-4.12l.31-.17c5.38,1.93,3.84,5.54,1.99,4.28Z"/>
          <path d="M277.04,660.18c-.11.31-.5.53-1.09.42-.25.45-.5.87-.78,1.29h5.01l1.15-1.46s1.32,1.04,2.13,1.85c-.08.31-.36.45-.73.45h-5.46c2.18,1.4,1.48,3.19.45,3.05-.11.22-.34.39-.78.45v1.9h1.65l1.01-1.29s1.23.92,1.96,1.68c-.06.28-.31.42-.7.42h-3.92v2.32h1.57l1.01-1.26s1.18.92,1.9,1.65c-.08.31-.31.45-.7.45h-3.78v2.49h2.04l1.12-1.34s1.26.95,2.07,1.71c-.08.31-.34.45-.73.45h-4.51v1.51c5.85,1.54,4.65,5.38,2.8,4.2-.31-1.29-1.6-2.77-2.8-3.72v6.72c0,.22-.78.67-1.43.67h-.36v-6.72c-1.32,1.88-3,3.53-4.96,4.87l-.34-.45c2.04-1.93,3.7-4.48,4.76-7.08h-4.17l-.22-.81h4.93v-2.49h-3.86l-.22-.84h4.09v-2.32h-4.17l-.22-.81h4.4v-2.91l1.96.2c-.06-.87-.5-1.93-1.01-2.69h-1.51c-1.26,1.65-2.74,3-4.26,3.92l-.39-.36c1.71-1.57,3.47-4.23,4.56-7.17l2.55,1.06ZM287.88,660.15c-.11.28-.48.5-1.04.42-.28.45-.62.9-.92,1.32h6.1l1.26-1.57s1.46,1.09,2.35,1.96c-.08.31-.34.45-.73.45h-6.41c2.74,1.57,1.32,3.89-.11,2.8-.11-.9-.7-2.02-1.32-2.8h-1.85c-1.2,1.37-2.58,2.49-3.89,3.25l-.34-.36c1.57-1.4,3.28-3.84,4.4-6.5l2.49,1.04ZM292.55,665.5c-.06.31-.28.53-.78.64v2.13h.92l1.04-1.32s1.18.95,1.9,1.71c-.06.28-.31.42-.7.42h-3.16v3.3h1.04l1.06-1.4s1.26,1.01,2.02,1.76c-.08.31-.31.45-.67.45h-13.66l-.22-.81h3.44v-3.3h-2.77l-.22-.81h3v-3.08l2.46.28c-.06.31-.28.53-.76.64v2.16h3.58v-3.05l2.49.28ZM283.37,674.29l1.88.87h6.36l.95-1.06,2.13,1.62c-.17.2-.59.42-1.06.5v7.87c-.03.17-.92.62-1.51.62h-.28v-1.57h-6.72v1.06c0,.2-.73.62-1.46.62h-.28v-10.53ZM291.82,675.97h-6.72v2.63h6.72v-2.63ZM285.1,679.44v2.88h6.72v-2.88h-6.72ZM286.48,672.39h3.58v-3.3h-3.58v3.3Z"/>
          <path d="M303.69,679.42l3.33-2.38.28.34c-.84.92-2.52,2.83-4.37,4.76-.14.56-.5.95-.78,1.09l-1.23-2.27c.87-.45,1.01-.64,1.01-1.15v-12.29h-3.92l-.25-.84h4.2l.92-.98,1.85,1.54c-.14.2-.5.39-1.04.5v11.68ZM303.32,664.35c-.45-1.54-2.13-3.64-3.36-4.9l.34-.22c6.27,2.46,4.96,6.41,3.02,5.12ZM323.34,673.9c-.08.31-.34.45-.73.45h-7.2c1.85,3.19,5.24,5.85,8.46,7.11l-.03.31c-.76.08-1.32.64-1.57,1.51-2.94-1.71-5.6-4.56-7.22-8.23v9.13c0,.17-.56.59-1.46.59h-.28v-8.71c-1.99,3.14-4.93,5.68-8.65,7.53l-.28-.45c3.53-2.21,6.24-5.35,7.87-8.79h-6.47l-.22-.84h7.76v-3h-4.17v.73c0,.14-.56.62-1.46.62h-.25v-11.98l2.04.9h9.38l1.01-1.12,2.21,1.74c-.17.22-.62.42-1.2.53v9.02c-.03.14-.9.56-1.48.56h-.25v-.98h-4.09v3h4.62l1.29-1.65s1.46,1.18,2.38,2.04ZM313.35,661.61h-4.2v3.61h4.2v-3.61ZM313.35,666.06h-4.2v3.61h4.2v-3.61ZM319.14,665.22v-3.61h-4.12v3.61h4.12ZM319.14,669.67v-3.61h-4.12v3.61h4.12Z"/>
          <path d="M332.72,660.15c-.14.31-.48.53-1.06.48-.31.59-.64,1.18-1.01,1.71h4.76l1.12-1.46s1.32,1.04,2.1,1.82c-.06.31-.28.42-.67.42h-5.6c3.25,1.96,1.65,4.68.25,3.39.03-1.15-.64-2.49-1.34-3.39h-1.18c-1.2,1.65-2.66,3.02-4.17,3.95l-.36-.31c1.74-1.74,3.5-4.54,4.59-7.64l2.58,1.04ZM343.03,660.13c-.14.31-.48.53-1.06.48-.31.59-.67,1.18-1.06,1.74h6.44l1.29-1.6s1.43,1.12,2.32,1.96c-.08.31-.34.42-.73.42h-6.5c3.44,1.82,1.93,4.68.39,3.47-.08-1.2-.9-2.55-1.74-3.47h-2.04c-.64.87-1.37,1.65-2.1,2.32l1.82.22c-.06.31-.25.53-.81.64v1.76h6.24l1.23-1.48s1.37,1.06,2.24,1.85c-.08.31-.34.45-.73.45h-8.99v3.08h8.32l1.29-1.57s1.43,1.09,2.32,1.9c-.06.31-.36.45-.73.45h-24.61l-.25-.78h11.87v-3.08h-8.79l-.22-.81h9.02v-1.96l-.42.34-.39-.34c1.4-1.62,2.88-4.28,3.78-7l2.6,1.01ZM345.1,673.26c-.08.39-.34.62-.95.7v1.9h2.86l1.23-1.54s1.43,1.09,2.32,1.9c-.06.31-.34.45-.73.45h-5.68v5.4c0,1.51-.34,2.46-3.25,2.74-.11-.56-.31-1.04-.76-1.34-.48-.31-1.37-.53-2.91-.73v-.42s3.67.25,4.34.25c.59,0,.73-.17.73-.62v-5.29h-15.48l-.25-.81h15.74v-2.91l2.8.31ZM334.82,682.02c-.34-1.57-1.9-3.53-3.25-4.62l.31-.25c6.33,1.96,4.96,6.24,2.94,4.87Z"/>
          <path d="M362.15,671.97c0,6.75-3.75,10.7-7.53,13.1l-.48-.56c3.25-2.63,6.16-6.66,6.16-12.54s-2.91-9.91-6.16-12.54l.48-.56c3.78,2.41,7.53,6.36,7.53,13.1Z"/>
        </g>
      </g>
      <g>
        <g>
          <path class="cls-4" d="M525.27,732.27c1.85-.51,3.65-1.02,5.39-1.54v-8.93h-4.92v-2.81h4.92v-7.3h2.89v7.3h4.49v2.81h-4.49v8.03c1.24-.39,2.45-.79,3.63-1.19.03,1.17.1,2.19.23,3.05-1.34.43-2.63.85-3.87,1.27v12.05c0,2.81-1.26,4.23-3.79,4.26-.96.03-2.19.01-3.67-.04-.1-1.07-.26-2.15-.47-3.24,1.56.16,2.67.23,3.32.23,1.15,0,1.72-.69,1.72-2.07v-10.23c-1.78.6-3.45,1.17-5,1.72l-.39-3.36ZM535.9,746.84c5.08-.74,9.21-1.97,12.4-3.67-2.44-1.09-5.05-2.24-7.83-3.44,1.12-1.45,2.15-2.89,3.11-4.34h-6.43v-2.62h8.07c.83-1.41,1.59-2.81,2.29-4.22l2.89,1.21c-.62,1.04-1.24,2.04-1.86,3.01h15.02v2.62h-5.14c-1.03,2.87-2.55,5.28-4.57,7.25,3.32,1.38,6.54,2.75,9.67,4.12l-1.72,2.89c-2.93-1.55-6.38-3.24-10.35-5.08-3.49,2.37-8.18,4.11-14.06,5.23-.36-.86-.86-1.85-1.48-2.97ZM537.27,725.35h15.21c1.65-2.29,3.12-4.44,4.39-6.45l2.93,1.6c-1.35,1.63-2.73,3.24-4.12,4.84h8.15v2.62h-26.56v-2.62ZM538.79,715.86h11.04c-.61-1.18-1.26-2.36-1.93-3.52l2.62-1.21c.83,1.41,1.63,2.83,2.38,4.26l-1,.47h11v2.62h-24.1v-2.62ZM542.3,720.47l2.27-1.52c1.22,1.43,2.41,2.94,3.55,4.53l-2.5,1.68c-.99-1.61-2.1-3.18-3.32-4.69ZM544.53,738.87c2.17.86,4.3,1.72,6.39,2.58,2.04-1.65,3.5-3.67,4.36-6.05h-8.42c-.79,1.21-1.57,2.37-2.32,3.48Z"/>
          <path class="cls-4" d="M577.98,711.49h2.97v38.16h-2.97v-12.05c-1.59.89-3.2,1.87-4.84,2.95-.68.5-1.34,1.08-1.99,1.76l-2.23-2.62c.81-.86,1.21-1.98,1.21-3.36v-19.38h2.97v20c1.55-.82,3.18-1.69,4.88-2.62v-22.85ZM581.5,727.93c3.33-5.78,5.74-11.37,7.23-16.76l3.16.9c-.83,2.41-1.71,4.71-2.62,6.91h17.03v2.89h-4.59c-.39,7.54-2.32,13.68-5.8,18.42,2.64,2.34,6.39,4.38,11.25,6.11-.81,1.02-1.55,2.06-2.23,3.12-4.64-1.98-8.33-4.26-11.09-6.86-2.51,2.47-5.99,4.88-10.43,7.21-.55-.86-1.21-1.73-1.99-2.62,4.44-2.23,7.87-4.53,10.29-6.91-3.01-3.76-4.96-8.44-5.84-14.02-.73,1.42-1.48,2.79-2.27,4.1-.5-.75-1.2-1.59-2.11-2.5ZM598.63,721.88h-10.39c.38,6.35,2.21,11.71,5.51,16.05,2.97-4.18,4.6-9.53,4.88-16.05Z"/>
          <path class="cls-4" d="M623.05,734.96c.1.91.35,2.04.74,3.4-3.15,3.12-5.53,5.61-7.15,7.46l-2.23-2.54c.78-1.09,1.17-2.4,1.17-3.91v-12.23h-4.73v-2.81h7.73v15.23c1.2-1.15,2.68-2.68,4.45-4.61ZM614.65,711.92c3.05,3.1,5.18,5.34,6.41,6.72l-2.73,2.3c-1.64-2.13-3.66-4.45-6.05-6.95l2.38-2.07ZM620.75,744.77h5.43v-21.6h3.01v21.6h6.21v-28.55h-12.5v-2.89h26.09v2.89h-10.47v11.76h9.06v2.89h-9.06v13.91h11.09v2.89h-28.87v-2.89Z"/>
          <path class="cls-4" d="M655.79,714.46h12.23v26.56h-9.3v2.85h-2.93v-29.41ZM665.08,717.31h-6.37v8.91h6.37v-8.91ZM665.08,738.17v-9.18h-6.37v9.18h6.37ZM667.5,750c-.68-.75-1.52-1.55-2.54-2.38,3.18-2.86,5.27-5.66,6.29-8.4.99-2.58,1.48-6.67,1.48-12.27v-13.75h17.15v31.64c0,3.1-1.5,4.65-4.49,4.65-1.85,0-4.06-.04-6.64-.12-.16-1.04-.35-2.11-.59-3.2,2.58.16,4.66.23,6.25.23s2.38-.77,2.38-2.3v-7.58h-11.64c-.73,4.87-3.28,9.36-7.66,13.48ZM675.53,733.71h11.27v-7.42h-10.98c.03,2.68-.07,5.16-.29,7.42ZM686.8,716.14h-10.98v7.34h10.98v-7.34Z"/>
          <path class="cls-4" d="M696.45,729.46h14.69v-8.32h-12.15v-2.89h12.15v-6.72h3.24v6.72h13.48l-.72,11.21h5.37c-.05,2.89-.14,5.87-.27,8.95-.16,4.3-2.19,6.42-6.09,6.37-2.03.03-4.22-.07-6.56-.27-.13-1.2-.33-2.34-.59-3.44,2.4.44,4.65.66,6.76.66,2.16.05,3.29-1.13,3.4-3.55.08-1.85.13-3.79.16-5.82h-14.92v17.27h-3.24v-17.27h-14.69v-2.89ZM724.53,721.14h-10.16v8.32h9.61l.55-8.32ZM723.56,713.79l1.91-2.19c2.76,1.85,5.23,3.59,7.42,5.23l-2.07,2.46c-2.03-1.72-4.45-3.55-7.27-5.51Z"/>
        </g>
        <g>
          <path class="cls-8" d="M483.65,512.53c1.85-.52,3.75-1.11,5.7-1.76v-13.91h-5.16v-2.77h5.16v-9.77h2.81v9.77h4.65v2.77h-4.65v13.01c1.59-.55,3.23-1.13,4.92-1.76.08,1.15.18,2.12.31,2.93-4.04,1.28-8.18,2.76-12.42,4.45l-1.33-2.97ZM494.55,520.26c3.57-1.3,7.02-3,10.35-5.08l1.88,2.07c-3.39,2.08-6.88,3.88-10.47,5.39-.52-.81-1.11-1.6-1.76-2.38ZM495.41,512.29h3.75v-19.65h8.48v-2.93h-10.94v-2.42h10.94v-3.36h2.81v3.36h11.21v2.42h-11.21v2.93h8.4v19.65h3.67v2.42h-27.11v-2.42ZM516.11,494.91h-14.22v2.69h14.22v-2.69ZM501.89,502.49h14.22v-2.7h-14.22v2.7ZM501.89,507.37h14.22v-2.7h-14.22v2.7ZM501.89,512.29h14.22v-2.73h-14.22v2.73ZM511.03,517.29l1.52-2.11c4.04,1.77,7.47,3.4,10.31,4.88l-1.56,2.46c-2.94-1.67-6.37-3.41-10.27-5.23Z"/>
          <path class="cls-8" d="M526.8,510.34h28.83v2.89h-28.83v-2.89ZM528.41,486.04h35.43v7.34h-3.2v-4.41h-29.02v4.41h-3.2v-7.34ZM533.13,505.46v-2.81l2.66-12.5h3.28l-.96,4.65h22.91v2.89h-23.5l-1,4.84h25.51c-.26,5.44-.56,9.92-.9,13.44-.44,3.72-2.64,5.6-6.6,5.62-2.47,0-5.3-.07-8.48-.2-.13-1.04-.31-2.17-.55-3.4,2.81.31,5.62.47,8.44.47,2.34,0,3.68-1.04,4.02-3.12.26-2.5.48-5.79.66-9.88h-25.51Z"/>
          <path class="cls-8" d="M568.35,514.17c1.8-.49,3.55-.98,5.27-1.45v-15.94h-4.77v-2.73h4.77v-9.84h2.81v9.84h4.92v2.73h-4.92v15.12c1.77-.55,3.48-1.08,5.12-1.6-.05,1.04-.03,2.08.08,3.12-4.69,1.35-8.78,2.63-12.27,3.83l-1.02-3.09ZM580.54,518.08h11.99v-5.43h-9.92v-2.73h9.92v-5.2h-6.6v1.45h-2.93v-20.16h22.07v20.16h-2.93v-1.45h-6.6v5.2h10.08v2.73h-10.08v5.43h11.8v2.73h-26.8v-2.73ZM585.93,494.05h6.6v-5.39h-6.6v5.39ZM585.93,502.06h6.6v-5.43h-6.6v5.43ZM602.14,488.66h-6.6v5.39h6.6v-5.39ZM595.54,502.06h6.6v-5.43h-6.6v5.43Z"/>
          <path class="cls-8" d="M611.02,511.98h10.9c.1-.88.16-1.94.16-3.16h2.85c0,1.17-.05,2.23-.16,3.16h11.68v-3.16h2.81v3.16h10.2v2.5h-10.2v7.62h-2.81v-7.62h-12.07c-1.02,3.8-4.45,6.51-10.31,8.12-.5-.83-1.12-1.71-1.88-2.62,5-1.09,8.05-2.93,9.14-5.51h-10.31v-2.5ZM611.29,502.53c3.41-2,6.08-4.41,8.01-7.23h-6.99v-2.42h35.86v2.42h-13.16v4.77c3.57-1.07,7.1-2.27,10.59-3.59l1.05,2.5c-3.98,1.41-7.86,2.64-11.64,3.71v.51c0,1.35.78,2.03,2.34,2.03h5.7c1.43,0,2.28-.64,2.54-1.91.23-1.15.42-2.34.55-3.59.91.37,1.84.69,2.77.98-.18,1.2-.39,2.3-.62,3.32-.5,2.42-2.24,3.63-5.23,3.63h-6.33c-2.89,0-4.34-1.45-4.34-4.34v-8.01h-10.08c-.52.81-1.08,1.59-1.68,2.34h10.12v2.07c-3.39,5.52-9.25,9.3-17.58,11.33-.42-.81-.9-1.65-1.45-2.54,3.36-.73,6.28-1.74,8.75-3.05-.78-.6-1.88-1.45-3.28-2.54l1.88-1.68c1.41.99,2.68,1.91,3.83,2.77,1.77-1.2,3.24-2.56,4.41-4.1h-8.63c-1.54,1.62-3.45,3.16-5.74,4.65-.52-.75-1.07-1.43-1.64-2.03ZM611.37,486.98h11.09v-3.05h2.73v3.05h10.16v-3.05h2.73v3.05h11.17v2.5h-11.17v2.42h-2.73v-2.42h-10.16v2.42h-2.73v-2.42h-11.09v-2.5Z"/>
          <path class="cls-8" d="M665.39,507.45c.1.91.35,2.04.74,3.4-3.15,3.12-5.53,5.61-7.15,7.46l-2.23-2.54c.78-1.09,1.17-2.4,1.17-3.91v-12.23h-4.73v-2.81h7.73v15.23c1.2-1.15,2.68-2.68,4.45-4.61ZM656.99,484.4c3.05,3.1,5.18,5.34,6.41,6.72l-2.73,2.3c-1.64-2.14-3.66-4.45-6.05-6.95l2.38-2.07ZM663.08,517.26h5.43v-21.6h3.01v21.6h6.21v-28.55h-12.5v-2.89h26.09v2.89h-10.47v11.76h9.06v2.89h-9.06v13.91h11.09v2.89h-28.87v-2.89Z"/>
          <path class="cls-8" d="M697.12,486.94h12.23v26.56h-9.3v2.85h-2.93v-29.41ZM706.42,489.79h-6.37v8.91h6.37v-8.91ZM706.42,510.65v-9.18h-6.37v9.18h6.37ZM708.84,522.49c-.68-.75-1.52-1.55-2.54-2.38,3.18-2.86,5.27-5.66,6.29-8.4.99-2.58,1.48-6.67,1.48-12.27v-13.75h17.15v31.64c0,3.1-1.5,4.65-4.49,4.65-1.85,0-4.06-.04-6.64-.12-.16-1.04-.35-2.11-.59-3.2,2.58.16,4.66.23,6.25.23s2.38-.77,2.38-2.3v-7.58h-11.64c-.73,4.87-3.28,9.36-7.66,13.48ZM716.86,506.2h11.27v-7.42h-10.98c.03,2.68-.07,5.16-.29,7.42ZM728.13,488.62h-10.98v7.34h10.98v-7.34Z"/>
          <path class="cls-8" d="M736.54,508.39c2.84-3.98,5-8.61,6.48-13.87h-6.05v-2.62h6.02v-7.73h2.85v7.73h4.38v2.62h-4.38v6.17l1.6-1.41c1.85,1.93,3.42,3.69,4.73,5.27l-2.27,2.03c-1.25-1.74-2.6-3.46-4.06-5.16v20.66h-2.85v-20c-1.41,3.8-3.09,7.03-5.04,9.69-.39-1.12-.86-2.25-1.41-3.4ZM749.71,517.06h25.55v2.81h-25.55v-2.81ZM751.74,492.72h11.6c1.98-2.86,3.78-5.86,5.39-8.98l3.12,1.91c-1.9,2.71-3.62,5.07-5.16,7.07h8.05v2.81h-23.01v-2.81ZM753.07,504.13h20.12v2.81h-20.12v-2.81ZM753.73,485.65l2.34-1.76c1.61,1.8,3.18,3.76,4.69,5.9l-2.7,1.88c-1.09-1.74-2.54-3.75-4.34-6.02Z"/>
        </g>
        <g>
          <path class="cls-4" d="M59.32,499.48h9.77v-9.77h-10.51v-2.73h13.55v17.34h-3.05v-2.11h-6.72v12.93c3.18-1.51,6.43-3.2,9.77-5.08.18,1.25.39,2.3.62,3.16-3.39,1.69-6.86,3.54-10.43,5.55-.96.68-1.72,1.29-2.27,1.84l-2.11-2.7c.91-.83,1.37-2,1.37-3.52v-14.92ZM72.21,500.11c2.47-4.5,4.69-9.99,6.64-16.44l3.09.9c-.73,2.1-1.48,4.1-2.25,6.02h15.8v2.89h-4.57c-.7,8.44-2.6,14.69-5.68,18.75,2.53,2.7,6.14,4.84,10.84,6.45-.76.73-1.58,1.75-2.46,3.05-4.48-2.14-7.95-4.5-10.41-7.11-2.66,2.71-6.63,5.29-11.93,7.73-.62-.91-1.39-1.84-2.3-2.77,5.46-2.28,9.51-4.77,12.17-7.46-2.41-3.35-4.06-7.83-4.96-13.46-.66,1.37-1.33,2.68-2.01,3.93-.65-.94-1.3-1.76-1.95-2.46ZM78.14,494.33c.91,6.6,2.59,11.71,5.04,15.31,2.43-3.55,3.99-8.95,4.67-16.17h-9.34l-.37.86Z"/>
          <path class="cls-4" d="M99.63,511.98h10.9c.1-.88.16-1.94.16-3.16h2.85c0,1.17-.05,2.23-.16,3.16h11.68v-3.16h2.81v3.16h10.2v2.5h-10.2v7.62h-2.81v-7.62h-12.07c-1.02,3.8-4.45,6.51-10.31,8.12-.5-.83-1.12-1.71-1.88-2.62,5-1.09,8.05-2.93,9.14-5.51h-10.31v-2.5ZM99.91,502.53c3.41-2,6.08-4.41,8.01-7.23h-6.99v-2.42h35.86v2.42h-13.16v4.77c3.57-1.07,7.1-2.27,10.59-3.59l1.05,2.5c-3.98,1.41-7.86,2.64-11.64,3.71v.51c0,1.35.78,2.03,2.34,2.03h5.7c1.43,0,2.28-.64,2.54-1.91.23-1.15.42-2.34.55-3.59.91.37,1.84.69,2.77.98-.18,1.2-.39,2.3-.62,3.32-.5,2.42-2.24,3.63-5.23,3.63h-6.33c-2.89,0-4.34-1.45-4.34-4.34v-8.01h-10.08c-.52.81-1.08,1.59-1.68,2.34h10.12v2.07c-3.39,5.52-9.25,9.3-17.58,11.33-.42-.81-.9-1.65-1.45-2.54,3.36-.73,6.28-1.74,8.75-3.05-.78-.6-1.88-1.45-3.28-2.54l1.88-1.68c1.41.99,2.68,1.91,3.83,2.77,1.77-1.2,3.24-2.56,4.41-4.1h-8.63c-1.54,1.62-3.45,3.16-5.74,4.65-.52-.75-1.07-1.43-1.64-2.03ZM99.98,486.98h11.09v-3.05h2.73v3.05h10.16v-3.05h2.73v3.05h11.17v2.5h-11.17v2.42h-2.73v-2.42h-10.16v2.42h-2.73v-2.42h-11.09v-2.5Z"/>
          <path class="cls-4" d="M156.75,510.61c.26,1.33.52,2.47.78,3.44-2.47,1.72-4.83,3.49-7.07,5.31-.81.68-1.54,1.45-2.19,2.3l-2.62-2.62c1.02-.99,1.52-2.34,1.52-4.06v-14.8h-5.23v-2.97h8.4v18.24c2.08-1.41,4.22-3.02,6.41-4.84ZM146.05,484.4c2.84,2.92,4.9,5.08,6.17,6.48l-2.73,2.3c-1.64-2.16-3.58-4.4-5.82-6.72l2.38-2.07ZM153.39,502.72h12.34v-10.08h-6.13c-1.16,2.62-2.37,5-3.63,7.15-.73-.65-1.6-1.3-2.62-1.95,2.45-3.88,4.53-8.59,6.25-14.14l3.12.86c-.62,1.85-1.28,3.61-1.95,5.27h18.16v2.81h-9.92v10.08h11.64v2.81h-11.64v16.52h-3.28v-16.52h-12.34v-2.81Z"/>
          <path class="cls-4" d="M184.13,486.98h38.59v2.97h-6.48v26.44c0,3.52-1.71,5.29-5.12,5.31-2.45,0-4.83-.01-7.15-.04-.13-1.2-.34-2.38-.62-3.55,2.94.21,5.18.31,6.72.31,1.93,0,2.89-1.04,2.89-3.12v-25.35h-28.83v-2.97ZM188.47,495.73h17.23v15.43h-14.14v2.77h-3.09v-18.2ZM202.61,498.51h-11.05v9.88h11.05v-9.88Z"/>
          <path class="cls-4" d="M228.67,489.79h14.34v-5.94h3.05v5.94h14.41v24.65h-2.97v-2.38h-11.45v10.31h-3.05v-10.31h-11.37v2.38h-2.97v-24.65ZM231.64,499.56h11.37v-7.03h-11.37v7.03ZM231.64,509.33h11.37v-7.11h-11.37v7.11ZM257.5,492.53h-11.45v7.03h11.45v-7.03ZM246.05,509.33h11.45v-7.11h-11.45v7.11Z"/>
          <path class="cls-4" d="M278.52,512.33c.08,1.3.17,2.44.27,3.4-2.81,1.88-5.2,3.57-7.15,5.08l-1.8-2.58c.89-.83,1.33-1.97,1.33-3.4v-14.77h-4.77v-2.85h7.73v18.2c1.46-.99,2.92-2.02,4.38-3.09ZM270.82,484.91c2.14,2.11,4.02,4.08,5.66,5.9l-2.73,2.27c-1.8-2.32-3.55-4.38-5.27-6.17l2.34-1.99ZM276.6,497.33h12.62v-2.69h-10v-2.46h10v-2.62h-11.37v-2.46h11.37v-3.52h3.16v3.52h11.91v2.46h-11.91v2.62h10.9v2.46h-10.9v2.69h12.7v2.46h-28.48v-2.46ZM283.09,521.98h-3.05v-19.8h21.72v15.2c0,2.81-1.45,4.23-4.34,4.26-1.54.03-3.5.04-5.9.04-.13-.83-.33-1.84-.59-3.01,2.27.16,4.11.23,5.55.23s2.23-.68,2.23-2.03v-1.95h-15.62v7.07ZM298.71,504.68h-15.62v2.7h15.62v-2.7ZM283.09,512.49h15.62v-2.7h-15.62v2.7Z"/>
          <path class="cls-4" d="M308.59,501.94h14.69v-8.32h-12.15v-2.89h12.15v-6.72h3.24v6.72h13.48l-.72,11.21h5.37c-.05,2.89-.14,5.87-.27,8.95-.16,4.3-2.19,6.42-6.09,6.37-2.03.03-4.22-.07-6.56-.27-.13-1.2-.33-2.34-.59-3.44,2.4.44,4.65.66,6.76.66,2.16.05,3.29-1.13,3.4-3.55.08-1.85.13-3.79.16-5.82h-14.92v17.27h-3.24v-17.27h-14.69v-2.89ZM336.68,493.62h-10.16v8.32h9.61l.55-8.32ZM335.7,486.28l1.91-2.19c2.76,1.85,5.23,3.59,7.42,5.23l-2.07,2.46c-2.03-1.72-4.45-3.55-7.27-5.51Z"/>
        </g>
      </g>
      <g>
        <path d="M1046.61,201.02c2-.86,4.02-1.77,6.05-2.72v-9.98h-5.67v-3.19h5.67v-8.72h3.56v8.72h6v3.19h-6v8.25c1.8-.89,3.59-1.83,5.39-2.81.09,1.22.22,2.47.38,3.75-1.92.95-3.84,1.91-5.77,2.88v16.34c0,3.03-1.16,4.67-3.47,4.92-1.62.16-3.45.2-5.48.14-.19-1.31-.39-2.61-.61-3.89,1.72.19,3.19.28,4.41.28,1.06,0,1.59-.58,1.59-1.73v-14.23c-1.88.97-3.73,1.95-5.58,2.93l-.47-4.12ZM1057.95,220.24c4.41-3.69,6.88-8.97,7.41-15.84h3.52c-.16,2.19-.48,4.23-.96,6.14,1.98,3.03,4.57,5.08,7.76,6.14v-14.11h-14.48v-3.09h31.59v3.09h-13.59v5.25h11.77v3h-11.77v6.61c2.12.25,6.84.23,14.16-.05-.06.16-.42,1.31-1.08,3.47-3.72.09-7.58.05-11.58-.14-6.31-.08-10.95-2.3-13.92-6.66-1.31,3.27-3.22,6.06-5.72,8.39-.94-.78-1.97-1.52-3.09-2.2ZM1065.27,178.24h23.39v18.52h-3.38v-1.36h-16.64v1.36h-3.38v-18.52ZM1085.28,181.24h-16.64v4.08h16.64v-4.08ZM1068.64,192.4h16.64v-4.12h-16.64v4.12Z"/>
        <path d="M1077.45,247.84l3.61,1.55c-2.33,5.3-5.1,9.6-8.32,12.91,4.69,3.47,11.34,5.95,19.95,7.43-1.16,1.56-2.09,2.88-2.81,3.94-8.33-2.12-14.97-5.07-19.92-8.84-4.3,3.36-11.12,6.41-20.48,9.16-.69-1.09-1.47-2.3-2.34-3.61,8.8-2.22,15.43-4.91,19.9-8.09-3.09-3.16-5.76-7.27-7.99-12.35l3.14-1.78c2.05,4.64,4.64,8.53,7.78,11.67,2.86-2.84,5.36-6.84,7.5-12ZM1047.45,234.76h21.96c-.73-1.53-1.79-3.39-3.16-5.58l3.47-1.69c1.34,1.88,2.53,3.84,3.56,5.91l-2.62,1.36h21.8v3.47h-45v-3.47ZM1061.33,240.39l3,2.44c-4.38,4.59-8.92,8.7-13.64,12.33-.78-.97-1.66-1.97-2.62-3,4.72-3.34,9.14-7.27,13.27-11.77ZM1078.16,240.15c5.72,4.5,10.19,8.27,13.41,11.3-.88.88-1.81,1.89-2.81,3.05-3.53-3.62-7.92-7.59-13.17-11.91l2.58-2.44Z"/>
        <path d="M1052.42,307.46c.12,0,3.36-.25,9.7-.75-.16.97-.3,1.98-.42,3.05-5.22.47-9.67.91-13.36,1.31l-.75-3c1.88-1.78,4.23-5.06,7.08-9.84-1.97.12-4.33.3-7.08.52l-.98-2.95c2.69-3.06,5.62-8.44,8.81-16.12l3.7,1.31c-3.06,5.91-5.88,10.75-8.44,14.53,1.88-.03,3.73-.06,5.58-.09,1.12-1.94,2.3-4.08,3.52-6.42l3.52,1.5c-4.38,7.25-8,12.91-10.88,16.97ZM1046.8,318.33c5.81-1.09,11.03-2.17,15.66-3.23-.03,1.16-.02,2.27.05,3.33-6.38,1.34-11.2,2.47-14.48,3.38l-1.22-3.47ZM1079.56,279.66l-.98,1.59c3.66,5.97,8.67,10.91,15.05,14.81-.91.94-1.81,1.95-2.72,3.05-6.12-4.34-10.89-9.23-14.3-14.67-3.41,5.75-7.83,10.84-13.27,15.28-.59-.69-1.5-1.56-2.72-2.62,6.31-4.81,11.23-10.62,14.77-17.44h4.17ZM1065.03,305.82h23.72v19.83h-3.56v-3.14h-16.59v3.19h-3.56v-19.88ZM1066.62,297.05h20.53v3.23h-20.53v-3.23ZM1085.19,309.05h-16.59v10.22h16.59v-10.22Z"/>
        <path d="M1055.05,372.28h-3.66v-24.23h16.73v-6.47h-20.72v-3.56h21.87c-.97-1.95-2.1-3.92-3.4-5.91l3.61-1.69c1.34,1.97,2.58,3.98,3.7,6.05l-3.09,1.55h22.69v3.56h-20.91v6.47h17.02v17.53c0,3.94-1.86,5.91-5.58,5.91-1.72,0-3.95-.03-6.7-.09-.16-1.03-.38-2.28-.66-3.75,2.59.16,4.67.23,6.23.23,2.03,0,3.05-1.03,3.05-3.09v-13.27h-13.36v25.64h-3.75v-25.64h-13.08v20.77Z"/>
        <path d="M1050.22,397.86h3.42v21.59c1.61-.3,3.27-.59,4.97-.89v-28.29h-10.73v-3.33h22.22v3.33h-8.02v11.86h7.36v3.33h-7.36v12.47c2.62-.5,5.33-1.02,8.11-1.55-.09,1.38-.11,2.59-.05,3.66-8.66,1.56-16.31,2.98-22.97,4.27l-.52-3.66c1.16-.19,2.34-.39,3.56-.61v-22.17ZM1074.69,382.63l3.66,1.22c-1.16,2.77-2.32,5.31-3.49,7.64h18.21v3.28h-4.36c-.77,8.72-2.98,15.81-6.63,21.28,2.95,3.33,6.8,6.19,11.55,8.58-1.06,1.19-2,2.36-2.81,3.52-4.31-2.55-8.05-5.52-11.2-8.91-3.11,3.56-7.12,6.83-12.05,9.8-.66-.94-1.48-1.98-2.48-3.14,5.09-2.94,9.12-6.15,12.09-9.63-3-4.3-5.13-10.16-6.4-17.58-.64,1-1.29,1.93-1.95,2.79-.66-.81-1.52-1.75-2.58-2.81,3.62-4.5,6.44-9.84,8.44-16.03ZM1085.09,394.77h-11.48c1.08,7.56,3.09,13.6,6.02,18.12,2.92-4.69,4.74-10.73,5.46-18.12Z"/>
        <path d="M1068.36,435.59l3.14-1.78c1.22,1.53,2.41,3.22,3.56,5.06l-2.44,1.36h20.16v3.38h-37.78v11.58c0,10.81-1.91,19.11-5.72,24.89-.62-.84-1.52-1.88-2.67-3.09,3.12-4.78,4.69-11.97,4.69-21.56v-15.19h20.02c-.78-1.3-1.77-2.84-2.95-4.64ZM1055.42,459.91c3.53-3.84,6.77-9.08,9.7-15.7l3.47,1.41c-1.25,2.59-2.55,5.04-3.89,7.34v27.02h-3.66v-21.3c-1.23,1.77-2.5,3.41-3.8,4.95-.75-1.69-1.36-2.92-1.83-3.7ZM1066.77,452.7h15.61v-7.83h3.7v7.83h6.42v3.33h-6.42v17.95c0,3.75-1.8,5.62-5.39,5.62h-6.61c-.19-1.22-.42-2.5-.7-3.84,2.25.16,4.25.25,6,.28,2,.03,3-.97,3-3v-17.02h-15.61v-3.33ZM1072.34,458.51c1.69,3.22,3.22,6.39,4.59,9.52l-3.38,1.73c-1.22-3.06-2.67-6.28-4.36-9.66l3.14-1.59Z"/>
        <path d="M1055.84,503.22c0,8.59-.44,14.39-1.31,17.39-.88,3.44-2.73,7.23-5.58,11.39-.72-1.06-1.58-2.16-2.58-3.28,2.22-3.16,3.72-6.33,4.5-9.52.78-3.06,1.17-7.56,1.17-13.5v-15.8c13.69-.44,25.75-1.38,36.19-2.81l2.25,3.89c-12.94,1.31-24.48,2.16-34.64,2.53v6.19h37.12v3.52h-37.12ZM1060.16,510.76h28.5v21.09h-3.75v-3.19h-21v3.19h-3.75v-21.09ZM1084.91,514.19h-21v11.16h21v-11.16Z"/>
        <path d="M1053.08,547.98h9.91c.77-3.27,1.41-6.83,1.95-10.69l3.98.52c-.53,3.55-1.18,6.94-1.95,10.17h25.9v3.47h-26.79c-.56,2.06-1.18,4.05-1.85,5.95h23.25v3.23c-2.06,5.11-5.27,9.52-9.63,13.24,4.39,2.66,9.51,4.52,15.35,5.6-1.41,1.56-2.5,2.88-3.28,3.94-5-1.66-10.03-4.08-15.09-7.27-4.06,2.67-9.88,5.2-17.44,7.59-.88-1.25-1.81-2.41-2.81-3.47,7.69-2,13.43-4.12,17.23-6.35-4.11-3.52-7.04-7.95-8.79-13.29-3.42,8.56-8.08,15.59-13.97,21.09-.84-1.19-1.67-2.25-2.48-3.19,7.05-6.36,12.23-15.39,15.54-27.09h-13.01v-3.52c1.28-2.97,2.45-5.95,3.52-8.95l3.8,1.03c-1.09,2.75-2.2,5.41-3.33,7.97ZM1083.36,560.63h-16.95c1.41,4.33,4.2,8.05,8.37,11.18,4.05-3.34,6.91-7.07,8.58-11.18ZM1076.14,540.52l2.06-2.62c3.06,1.94,6,3.95,8.81,6.05l-2.53,3.05c-2.72-2.31-5.5-4.47-8.34-6.47Z"/>
        <path d="M1047.17,597.46h22.59v3.47h-13.27c-.03,2.78-.09,5.33-.16,7.64h10.76c-.31,7.69-.61,13.84-.89,18.47-.28,4.12-2.06,6.27-5.34,6.42-1.91.03-3.7.02-5.39-.05-.19-1.16-.45-2.47-.8-3.94,2.06.22,3.66.33,4.78.33,1.91,0,2.94-1.19,3.09-3.56.31-3.66.56-8.39.75-14.2h-7.1c-.11,10.12-2.59,17.86-7.43,23.2-.72-1.06-1.55-2.16-2.48-3.28,2.94-3.31,4.72-6.86,5.34-10.64.8-3.55,1.19-10.34,1.17-20.39h-5.62v-3.47ZM1055.05,590.29l3.19-1.69c1.34,2,2.62,4.16,3.84,6.47l-3.28,1.73c-1.25-2.41-2.5-4.58-3.75-6.52ZM1075.67,588.65l3.75.66c-.67,2.95-1.55,5.81-2.62,8.58h16.31v3.47h-3.91c-.61,9.25-2.8,16.6-6.56,22.05,2.81,3.5,6.45,6.2,10.9,8.09-1.03,1.38-1.89,2.61-2.58,3.7-4.2-2.27-7.79-5.19-10.76-8.77-3.06,3.39-6.73,6.45-10.99,9.19-.72-.91-1.61-1.89-2.67-2.95,4.66-2.83,8.46-5.93,11.41-9.3-2.73-4.47-4.48-10.11-5.23-16.92-.92,1.59-1.92,3.15-3,4.66-.66-.94-1.44-1.94-2.34-3,4.06-5.59,6.83-12.08,8.3-19.45ZM1085.47,601.35h-9.96c.5,7.66,2.12,13.91,4.88,18.75,3.02-4.83,4.71-11.08,5.09-18.75Z"/>
        <path d="M1049.38,659.38h11.72v-11.72h-12.61v-3.28h16.27v20.81h-3.66v-2.53h-8.06v15.52c3.81-1.81,7.72-3.84,11.72-6.09.22,1.5.47,2.77.75,3.8-4.06,2.03-8.23,4.25-12.52,6.66-1.16.81-2.06,1.55-2.72,2.2l-2.53-3.23c1.09-1,1.64-2.41,1.64-4.22v-17.91ZM1064.84,660.13c2.97-5.41,5.62-11.98,7.97-19.73l3.7,1.08c-.88,2.52-1.77,4.92-2.7,7.22h18.96v3.47h-5.48c-.84,10.12-3.12,17.62-6.82,22.5,3.03,3.23,7.37,5.81,13.01,7.73-.91.88-1.89,2.09-2.95,3.66-5.38-2.56-9.54-5.41-12.49-8.53-3.19,3.25-7.96,6.34-14.32,9.28-.75-1.09-1.67-2.2-2.77-3.33,6.55-2.73,11.41-5.72,14.6-8.95-2.89-4.02-4.88-9.4-5.95-16.15-.8,1.64-1.6,3.21-2.41,4.71-.78-1.12-1.56-2.11-2.34-2.95ZM1071.97,653.19c1.09,7.92,3.11,14.05,6.05,18.38,2.92-4.27,4.79-10.73,5.6-19.41h-11.2l-.45,1.03Z"/>
        <path d="M1046.98,725.98h13.08c.12-1.06.19-2.33.19-3.8h3.42c0,1.41-.06,2.67-.19,3.8h14.02v-3.8h3.38v3.8h12.23v3h-12.23v9.14h-3.38v-9.14h-14.48c-1.22,4.56-5.34,7.81-12.38,9.75-.59-1-1.34-2.05-2.25-3.14,6-1.31,9.66-3.52,10.97-6.61h-12.38v-3ZM1047.31,714.63c4.09-2.41,7.3-5.3,9.61-8.67h-8.39v-2.91h43.03v2.91h-15.8v5.72c4.28-1.28,8.52-2.72,12.7-4.31l1.27,3c-4.78,1.69-9.44,3.17-13.97,4.45v.61c0,1.62.94,2.44,2.81,2.44h6.84c1.72,0,2.73-.77,3.05-2.3.28-1.38.5-2.81.66-4.31,1.09.44,2.2.83,3.33,1.17-.22,1.44-.47,2.77-.75,3.98-.59,2.91-2.69,4.36-6.28,4.36h-7.59c-3.47,0-5.2-1.73-5.2-5.2v-9.61h-12.09c-.62.97-1.3,1.91-2.02,2.81h12.14v2.48c-4.06,6.62-11.09,11.16-21.09,13.59-.5-.97-1.08-1.98-1.73-3.05,4.03-.88,7.53-2.09,10.5-3.66-.94-.72-2.25-1.73-3.94-3.05l2.25-2.02c1.69,1.19,3.22,2.3,4.59,3.33,2.12-1.44,3.89-3.08,5.3-4.92h-10.36c-1.84,1.94-4.14,3.8-6.89,5.58-.62-.91-1.28-1.72-1.97-2.44ZM1047.41,695.98h13.31v-3.66h3.28v3.66h12.19v-3.66h3.28v3.66h13.41v3h-13.41v2.91h-3.28v-2.91h-12.19v2.91h-3.28v-2.91h-13.31v-3Z"/>
        <path d="M1064.38,775.98c.31,1.59.62,2.97.94,4.12-2.97,2.06-5.8,4.19-8.48,6.38-.97.81-1.84,1.73-2.62,2.77l-3.14-3.14c1.22-1.19,1.83-2.81,1.83-4.88v-17.77h-6.28v-3.56h10.08v21.89c2.5-1.69,5.06-3.62,7.69-5.81ZM1051.53,744.53c3.41,3.5,5.88,6.09,7.41,7.78l-3.28,2.77c-1.97-2.59-4.3-5.28-6.98-8.06l2.86-2.48ZM1060.34,766.52h14.81v-12.09h-7.36c-1.39,3.14-2.84,6-4.36,8.58-.88-.78-1.92-1.56-3.14-2.34,2.94-4.66,5.44-10.31,7.5-16.97l3.75,1.03c-.75,2.22-1.53,4.33-2.34,6.33h21.8v3.38h-11.91v12.09h13.97v3.38h-13.97v19.83h-3.94v-19.83h-14.81v-3.38Z"/>
        <path d="M1046.89,799.18h46.31v3.56h-7.78v31.73c0,4.22-2.05,6.34-6.14,6.38-2.94,0-5.8-.02-8.58-.05-.16-1.44-.41-2.86-.75-4.27,3.53.25,6.22.38,8.06.38,2.31,0,3.47-1.25,3.47-3.75v-30.42h-34.59v-3.56ZM1052.09,809.68h20.67v18.52h-16.97v3.33h-3.7v-21.84ZM1069.06,813.01h-13.27v11.86h13.27v-11.86Z"/>
        <path d="M1061.38,875.34c.12,1.09.42,2.45.89,4.08-3.78,3.75-6.64,6.73-8.58,8.95l-2.67-3.05c.94-1.31,1.41-2.88,1.41-4.69v-14.67h-5.67v-3.38h9.28v18.28c1.44-1.38,3.22-3.22,5.34-5.53ZM1051.3,847.68c3.66,3.72,6.22,6.41,7.69,8.06l-3.28,2.77c-1.97-2.56-4.39-5.34-7.27-8.34l2.86-2.48ZM1058.61,887.11h6.52v-25.92h3.61v25.92h7.45v-34.27h-15v-3.47h31.31v3.47h-12.56v14.11h10.88v3.47h-10.88v16.69h13.31v3.47h-34.64v-3.47Z"/>
      </g>
      <g>
        <path d="M136.25,163.91h-3.66v-24.23h16.73v-6.47h-20.72v-3.56h21.87c-.97-1.95-2.1-3.92-3.4-5.91l3.61-1.69c1.34,1.97,2.58,3.98,3.7,6.05l-3.09,1.55h22.69v3.56h-20.91v6.47h17.02v17.53c0,3.94-1.86,5.91-5.58,5.91-1.72,0-3.95-.03-6.7-.09-.16-1.03-.38-2.28-.66-3.75,2.59.16,4.67.23,6.23.23,2.03,0,3.05-1.03,3.05-3.09v-13.27h-13.36v25.64h-3.75v-25.64h-13.08v20.77Z"/>
        <path d="M179.66,137.89h3.42v21.59c1.61-.3,3.27-.59,4.97-.89v-28.29h-10.73v-3.33h22.22v3.33h-8.02v11.86h7.36v3.33h-7.36v12.47c2.62-.5,5.33-1.02,8.11-1.55-.09,1.38-.11,2.59-.05,3.66-8.66,1.56-16.31,2.98-22.97,4.27l-.52-3.66c1.16-.19,2.34-.39,3.56-.61v-22.17ZM204.13,122.66l3.66,1.22c-1.16,2.77-2.32,5.31-3.49,7.64h18.21v3.28h-4.36c-.77,8.72-2.98,15.81-6.63,21.28,2.95,3.33,6.8,6.19,11.55,8.58-1.06,1.19-2,2.36-2.81,3.52-4.31-2.55-8.05-5.52-11.2-8.91-3.11,3.56-7.12,6.83-12.05,9.8-.66-.94-1.48-1.98-2.48-3.14,5.09-2.94,9.12-6.15,12.09-9.63-3-4.3-5.13-10.16-6.4-17.58-.64,1-1.29,1.93-1.95,2.79-.66-.81-1.52-1.75-2.58-2.81,3.62-4.5,6.44-9.84,8.44-16.03ZM214.53,134.8h-11.48c1.08,7.56,3.09,13.6,6.02,18.12,2.92-4.69,4.74-10.73,5.46-18.12Z"/>
        <path d="M247.15,124.02l3.14-1.78c1.22,1.53,2.41,3.22,3.56,5.06l-2.44,1.36h20.16v3.38h-37.78v11.58c0,10.81-1.91,19.11-5.72,24.89-.62-.84-1.52-1.88-2.67-3.09,3.12-4.78,4.69-11.97,4.69-21.56v-15.19h20.02c-.78-1.3-1.77-2.84-2.95-4.64ZM234.21,148.35c3.53-3.84,6.77-9.08,9.7-15.7l3.47,1.41c-1.25,2.59-2.55,5.04-3.89,7.34v27.02h-3.66v-21.3c-1.23,1.77-2.5,3.41-3.8,4.95-.75-1.69-1.36-2.92-1.83-3.7ZM245.56,141.13h15.61v-7.83h3.7v7.83h6.42v3.33h-6.42v17.95c0,3.75-1.8,5.62-5.39,5.62h-6.61c-.19-1.22-.42-2.5-.7-3.84,2.25.16,4.25.25,6,.28,2,.03,3-.97,3-3v-17.02h-15.61v-3.33ZM251.14,146.94c1.69,3.22,3.22,6.39,4.59,9.52l-3.38,1.73c-1.22-3.06-2.67-6.28-4.36-9.66l3.14-1.59Z"/>
        <path d="M140.34,218.38c-4.18-4.57-6.28-10.1-6.28-16.59s2.09-12.18,6.28-16.8h3.02c-4.16,4.75-6.24,10.34-6.24,16.77s2.07,11.88,6.21,16.63h-2.99Z"/>
        <path d="M151.82,213.26h-2.74v-18.18h12.55v-4.85h-15.54v-2.67h16.4c-.73-1.46-1.58-2.94-2.55-4.43l2.71-1.27c1.01,1.48,1.93,2.99,2.78,4.54l-2.32,1.16h17.02v2.67h-15.68v4.85h12.76v13.15c0,2.95-1.39,4.43-4.18,4.43-1.29,0-2.96-.02-5.03-.07-.12-.77-.28-1.71-.49-2.81,1.95.12,3.5.18,4.68.18,1.52,0,2.29-.77,2.29-2.32v-9.95h-10.02v19.23h-2.81v-19.23h-9.81v15.57Z"/>
        <path d="M181.63,203.1c3.19-3.02,6.12-6.84,8.79-11.46l2.46,1.27c-1.12,1.83-2.27,3.56-3.45,5.2v18.95h-2.64v-15.5c-1.29,1.55-2.6,3-3.94,4.36-.35-.91-.76-1.85-1.23-2.81ZM181.77,192.17c3.3-2.67,6.11-5.92,8.4-9.74l2.5,1.44c-2.79,4.08-5.94,7.68-9.46,10.79-.42-.82-.9-1.65-1.44-2.5ZM194.25,201.06v-2.46h18.77v2.32c-1.57,3.8-3.83,6.98-6.79,9.56,2.84,1.71,6.38,2.93,10.62,3.66-.66.82-1.24,1.7-1.76,2.64-4.41-.98-8.1-2.51-11.07-4.57-3.14,2.16-6.91,3.77-11.32,4.85-.54-.98-1.04-1.8-1.51-2.46,4.22-.89,7.79-2.25,10.72-4.08-2.77-2.53-4.73-5.68-5.91-9.46h-1.76ZM212.95,193.26h3.76c-.19.61-.39,1.46-.6,2.57h-3.83c-2.62-.02-3.94-1.24-3.94-3.66v-5.73h-8.23v1.3c.12,4.45-1.68,7.83-5.38,10.12-.59-.77-1.22-1.49-1.9-2.14,3.09-1.88,4.64-4.24,4.64-7.1v-4.64h13.5v7.7c0,1.05.66,1.58,1.97,1.58ZM210.1,201.06h-11.53c1.08,3.19,2.91,5.82,5.48,7.91,2.67-2.13,4.69-4.77,6.05-7.91Z"/>
        <path d="M221.91,184.89c3.89-.07,7.96-.55,12.2-1.44l.91,2.64c-3.47.52-7,.9-10.58,1.16v5.45h9.21v12.97h-2.46v-1.55h-6.89c-.39,5.37-1.62,9.62-3.69,12.76-.63-.77-1.28-1.49-1.93-2.14,2.16-2.95,3.23-7.8,3.23-14.55v-15.29ZM231.19,201.8v-6.79h-6.75c0,3.49,0,5.75-.02,6.79h6.77ZM237.03,185.1c5.58-.21,10.65-.73,15.22-1.55l.95,2.67c-5.86.66-10.38,1.08-13.57,1.27v7.84h14.24v2.43h-5.45v18.98h-2.64v-18.98h-6.15v1.97c0,7.38-2.05,13.18-6.15,17.4-.68-.8-1.35-1.57-2-2.32,3.7-3.8,5.55-8.85,5.55-15.15v-14.55Z"/>
        <path d="M259.66,218.38h-3.02c4.16-4.73,6.24-10.34,6.24-16.8s-2.07-11.88-6.21-16.59h2.99c4.16,4.54,6.24,10.07,6.24,16.59s-2.08,12.2-6.24,16.8Z"/>
      </g>
      <g>
        <path d="M515.23,141.41h11.72v-11.72h-12.61v-3.28h16.27v20.81h-3.66v-2.53h-8.06v15.52c3.81-1.81,7.72-3.84,11.72-6.09.22,1.5.47,2.77.75,3.8-4.06,2.03-8.23,4.25-12.52,6.66-1.16.81-2.06,1.55-2.72,2.2l-2.53-3.23c1.09-1,1.64-2.41,1.64-4.22v-17.91ZM530.7,142.16c2.97-5.41,5.62-11.98,7.97-19.73l3.7,1.08c-.88,2.52-1.77,4.92-2.7,7.22h18.96v3.47h-5.48c-.84,10.12-3.12,17.62-6.82,22.5,3.03,3.23,7.37,5.81,13.01,7.73-.91.88-1.89,2.09-2.95,3.66-5.38-2.56-9.54-5.41-12.49-8.53-3.19,3.25-7.96,6.34-14.32,9.28-.75-1.09-1.67-2.2-2.77-3.33,6.55-2.73,11.41-5.72,14.6-8.95-2.89-4.02-4.88-9.4-5.95-16.15-.8,1.64-1.6,3.21-2.41,4.71-.78-1.12-1.56-2.11-2.34-2.95ZM537.83,135.22c1.09,7.92,3.11,14.05,6.05,18.38,2.92-4.27,4.79-10.73,5.6-19.41h-11.2l-.45,1.03Z"/>
        <path d="M561.1,156.41h13.08c.12-1.06.19-2.33.19-3.8h3.42c0,1.41-.06,2.67-.19,3.8h14.02v-3.8h3.38v3.8h12.23v3h-12.23v9.14h-3.38v-9.14h-14.48c-1.22,4.56-5.34,7.81-12.38,9.75-.59-1-1.34-2.05-2.25-3.14,6-1.31,9.66-3.52,10.97-6.61h-12.38v-3ZM561.42,145.06c4.09-2.41,7.3-5.3,9.61-8.67h-8.39v-2.91h43.03v2.91h-15.8v5.72c4.28-1.28,8.52-2.72,12.7-4.31l1.27,3c-4.78,1.69-9.44,3.17-13.97,4.45v.61c0,1.62.94,2.44,2.81,2.44h6.84c1.72,0,2.73-.77,3.05-2.3.28-1.38.5-2.81.66-4.31,1.09.44,2.2.83,3.33,1.17-.22,1.44-.47,2.77-.75,3.98-.59,2.91-2.69,4.36-6.28,4.36h-7.59c-3.47,0-5.2-1.73-5.2-5.2v-9.61h-12.09c-.62.97-1.3,1.91-2.02,2.81h12.14v2.48c-4.06,6.62-11.09,11.16-21.09,13.59-.5-.97-1.08-1.98-1.73-3.05,4.03-.88,7.53-2.09,10.5-3.66-.94-.72-2.25-1.73-3.94-3.05l2.25-2.02c1.69,1.19,3.22,2.3,4.59,3.33,2.12-1.44,3.89-3.08,5.3-4.92h-10.36c-1.84,1.94-4.14,3.8-6.89,5.58-.62-.91-1.28-1.72-1.97-2.44ZM561.52,126.41h13.31v-3.66h3.28v3.66h12.19v-3.66h3.28v3.66h13.41v3h-13.41v2.91h-3.28v-2.91h-12.19v2.91h-3.28v-2.91h-13.31v-3Z"/>
        <path d="M613.18,124.86h33.94v43.41h-3.98v-3.52h-25.97v3.52h-3.98v-43.41ZM617.16,128.33v8.77h25.97v-8.77h-25.97ZM617.16,140.38v8.77h25.97v-8.77h-25.97ZM617.16,152.42v8.86h25.97v-8.86h-25.97Z"/>
        <path d="M654.89,130.35h4.73c1.16-2.84,2.11-5.44,2.86-7.78l3.94,1.12c-.98,2.39-1.94,4.61-2.86,6.66h9.38v37.31h-3.75v-3.66h-10.55v3.98h-3.75v-37.64ZM669.18,133.86h-10.55v11.39h10.55v-11.39ZM658.64,160.49h10.55v-11.86h-10.55v11.86ZM673.64,139.96c2.94-4.66,5.42-10.45,7.45-17.39l3.94.98c-.8,2.36-1.61,4.58-2.44,6.66h15.09c-.38,16.06-.69,26.17-.94,30.33-.22,4.91-2.8,7.36-7.73,7.36-2.84,0-5.73-.09-8.67-.28-.19-1.56-.44-2.95-.75-4.17h.14c3.12.44,5.98.66,8.58.66,2.84,0,4.38-1.5,4.59-4.5.34-4.66.59-13.28.75-25.88h-12.56c-1.36,3.02-2.77,5.67-4.22,7.97-.84-.59-1.92-1.17-3.23-1.73ZM677.76,143.14l2.86-2.11c3.47,4.09,6.23,7.64,8.3,10.64l-3.47,2.44c-2.22-3.62-4.78-7.28-7.69-10.97Z"/>
        <path d="M700.47,160.21c2.23-.72,4.48-1.45,6.75-2.2v-18.7h-6.05v-3.28h6.05v-13.08h3.47v13.08h5.44v3.28h-5.44v17.53c1.98-.69,3.98-1.39,6-2.11.06,1.31.17,2.47.33,3.47-5.12,1.84-10.2,3.72-15.23,5.62l-1.31-3.61ZM729.96,122.71h3.66v12.12l11.39-3.45c-.19,6.16-.38,11.19-.56,15.09-.19,4.22-1.88,6.34-5.06,6.38-1.44.03-2.84.03-4.22,0-.19-1.16-.42-2.45-.7-3.89,1.5.19,2.8.28,3.89.28,1.62.03,2.47-1.16,2.53-3.56.19-2.84.3-6.08.33-9.7l-7.59,2.37v20.32h-3.66v-19.2l-7.08,2.2v18.16c0,2.44,1.33,3.66,3.98,3.66h11.48c2.88,0,4.47-1.16,4.78-3.47.38-2,.69-4.33.94-6.98,1.25.5,2.55.95,3.89,1.36-.44,3-.86,5.44-1.27,7.31-.75,3.56-3.2,5.34-7.36,5.34h-13.36c-4.5,0-6.75-2.2-6.75-6.61v-17.62l-3.52,1.08-.61-3.47,4.12-1.24v-10.95h3.66v9.84l7.08-2.13v-13.24Z"/>
        <path d="M536.13,218.38c-4.18-4.57-6.28-10.1-6.28-16.59s2.09-12.18,6.28-16.8h3.02c-4.16,4.75-6.24,10.34-6.24,16.77s2.07,11.88,6.21,16.63h-2.99Z"/>
        <path d="M540.21,201.24h22.99v-2.88h2.81v2.88h9.14v2.53h-9.14v8.51c0,2.84-1.49,4.25-4.46,4.25-1.69,0-3.52-.02-5.48-.07-.14-1.05-.32-2.07-.53-3.06,1.92.19,3.67.28,5.24.28s2.43-.8,2.43-2.39v-7.52h-22.99v-2.53ZM540.74,194.21h15.47v-4.92h-12.66v-2.53h12.66v-4.46h2.81v4.46h12.62v2.53h-12.62v4.92h15.61v2.53h-33.89v-2.53ZM546.01,206.23l1.9-1.97c2.04,1.66,4.32,3.61,6.86,5.84l-2.21,2.21c-1.85-1.97-4.03-4-6.54-6.08Z"/>
        <path d="M587.92,203.03c.68,4.5-.4,7.03-3.23,7.59-.94.19-2.07.21-3.41.07-.16-.96-.41-1.91-.74-2.85v8.93h-2.57v-32.45h9.81v2.46c-.96,3.68-1.91,6.87-2.85,9.56,1.78,2.48,2.78,4.71,2.99,6.68ZM583.7,208.02c1.57-.3,2.09-1.98,1.55-5.03-.26-1.71-1.28-3.77-3.06-6.19,1.31-4.52,2.25-7.86,2.81-10.02h-4.46v20.95c1.2.3,2.25.4,3.16.28ZM588.66,200.36h21.45v2.43h-7.03v9c0,1.1.4,1.65,1.2,1.65h2.36c.82,0,1.31-.55,1.48-1.65.14-1.1.26-2.66.35-4.68.77.33,1.7.69,2.78,1.09-.19,1.8-.39,3.36-.6,4.68-.26,2.02-1.45,3.02-3.59,3.02h-3.66c-1.97,0-2.95-1.12-2.95-3.38v-9.74h-3.83c-.04,3.83-.62,6.62-1.76,8.37-1.24,2.04-3.69,3.95-7.35,5.73-.91-1.2-1.56-1.99-1.93-2.39,3.14-1.24,5.39-2.79,6.75-4.64,1.12-1.62,1.68-3.97,1.65-7.07h-5.31v-2.43ZM588.8,186.72h9.69c-.62-1.08-1.33-2.21-2.13-3.41l2.25-1.3c.96,1.38,1.79,2.65,2.5,3.8l-1.58.91h10.2v5.62h-2.67v-3.2h-15.57v3.2h-2.67v-5.62ZM590.28,193.54h18.07v2.43h-18.07v-2.43Z"/>
        <path d="M613.08,211.68c4.48-.59,10.31-1.5,17.51-2.74.02,1.01.06,1.9.11,2.67-5.27.8-10.91,1.76-16.91,2.88l-.7-2.81ZM627.53,214.91c2.93-2,5.5-4.3,7.7-6.89-1.5-4.15-2.39-9.77-2.67-16.88h-18.95v-2.6h18.84c-.09-1.96-.18-4-.25-6.12h2.88c.01,2.12.05,4.16.11,6.12h12.45v2.6h-12.39c.15,5.82.81,10.59,1.97,14.31,2.26-3.18,4.05-6.74,5.36-10.69l2.78,1.16c-1.91,4.77-4.24,8.95-6.98,12.55,1.05,2.25,2.31,3.84,3.78,4.78,1.41.91,2.27.53,2.6-1.16.35-1.76.62-3.56.81-5.41.96.42,1.86.76,2.71,1.02-.45,2.7-.87,4.73-1.27,6.12-.49,1.83-1.56,2.77-3.2,2.81-1.36,0-2.68-.49-3.97-1.48-1.31-1.1-2.44-2.55-3.39-4.34-2.07,2.36-4.37,4.41-6.87,6.17-.54-.61-1.22-1.3-2.04-2.07ZM616.11,194.56h12.66v12.3h-2.53v-1.62h-7.59v2.46h-2.53v-13.15ZM626.23,197.02h-7.59v5.77h7.59v-5.77ZM637.76,184.12l1.48-1.83c1.9,1.1,3.82,2.33,5.77,3.69l-1.69,2.11c-1.76-1.36-3.61-2.68-5.55-3.97Z"/>
        <path d="M648.12,198.88c5.23-4.27,9.13-9.29,11.71-15.08l2.78,1.16c-3.16,6.59-7.24,11.98-12.23,16.17-.61-.77-1.36-1.52-2.25-2.25ZM671,203.24c3.38,4.38,6.22,8.37,8.54,11.95l-2.67,1.76c-.66-1.08-1.35-2.2-2.09-3.36-7.73.38-14.02.76-18.86,1.14-.89.09-1.97.29-3.23.6l-1.55-2.99c1.05-.42,2.03-1.07,2.92-1.93,2.74-3.16,5.72-7.84,8.93-14.03l3.02,1.37c-2.91,4.99-6.01,9.66-9.32,13.99,4.84-.15,10.32-.37,16.44-.65-1.34-2.03-2.81-4.17-4.41-6.42l2.29-1.44ZM667.98,184.33l2.6-1.02c2.27,6.12,6.5,10.97,12.69,14.55-.63.66-1.36,1.57-2.18,2.74-6.47-4.45-10.84-9.88-13.11-16.28Z"/>
        <path d="M684.08,202.26h10.44c.8-.77,1.5-1.61,2.11-2.5h-6.22v.81h-2.46v-10.97h25.03v10.97h-2.46v-.81h-11.11c-.52.87-1.11,1.7-1.79,2.5h19.27v2.04h-9.32c2.44,1.83,5.96,3.22,10.58,4.18-.63.8-1.16,1.56-1.58,2.29-5.04-1.48-9.04-3.63-11.99-6.47h-8.96c-2.84,2.58-6.6,4.82-11.29,6.71-.42-.63-.94-1.32-1.55-2.07,3.73-1.24,6.83-2.79,9.32-4.64h-8.02v-2.04ZM683.72,185.1h10.3v-2.57h2.46v2.57h7.95v-2.57h2.46v2.57h10.3v2.04h-10.3v1.79h-2.46v-1.79h-7.95v1.79h-2.46v-1.79h-10.3v-2.04ZM685.76,213.37h13.36v-3.09h-7.73v-2.04h7.73v-2.95h2.39v2.95h7.73v2.04h-7.73v3.09h14.06v2.04h-29.81v-2.04ZM710.51,191.57h-20.11v2.14h20.11v-2.14ZM690.4,197.79h20.11v-2.18h-20.11v2.18Z"/>
        <path d="M723.87,218.38h-3.02c4.16-4.73,6.24-10.34,6.24-16.8s-2.07-11.88-6.21-16.59h2.99c4.16,4.54,6.24,10.07,6.24,16.59s-2.08,12.2-6.24,16.8Z"/>
      </g>
      <g>
        <path class="cls-3" d="M7.27,17.11l3.75,1.41c-2,4.72-4.22,9.44-6.66,14.16-1.03-.56-2.23-1.16-3.61-1.78,2.53-4.25,4.7-8.84,6.52-13.78ZM3.42,9.14h13.76c.11-2.8.18-5.62.21-8.48h3.94c-.05,2.84-.13,5.67-.26,8.48h17.32c-.31,12.69-.58,21.58-.8,26.67-.41,6.16-3.11,9.27-8.11,9.33-2.78,0-5.75-.06-8.91-.19-.12-1.25-.34-2.75-.66-4.5,3.34.38,6.34.56,9,.56,3.06-.06,4.69-2.11,4.88-6.14.31-6.34.55-13.64.7-21.89h-13.62c-.48,9.73-1.77,16.62-3.87,20.67-1.97,4.34-6.27,8.59-12.89,12.75-.75-1.12-1.55-2.2-2.39-3.23,6.25-4.06,10.22-7.98,11.91-11.77,1.8-3.3,2.91-9.44,3.35-18.42H3.42v-3.84ZM39.05,18.56l3.42-1.12c1.59,3.75,3.23,7.94,4.92,12.56l-3.84,1.36c-1.31-4.19-2.81-8.45-4.5-12.8Z"/>
        <path class="cls-3" d="M47.82,38.86c2.41-.58,4.73-1.16,6.98-1.73v-14.2h-5.86v-3.28h5.86V7.92h-6.33v-3.28h16.12v3.28h-6.33v11.72h5.95v3.28h-5.95v13.27c2.06-.58,4.06-1.16,6-1.73.16,1.41.33,2.62.52,3.66-5.34,1.44-10.58,2.95-15.7,4.55l-1.27-3.8ZM62.73,41.62h14.67v-6.75h-11.95v-3.28h11.95v-6.19h-7.5v1.73h-3.47V2.95h25.41v24.19h-3.47v-1.73h-7.5v6.19h11.95v3.28h-11.95v6.75h14.02v3.28h-32.16v-3.28ZM69.9,12.61h7.5v-6.47h-7.5v6.47ZM69.9,22.22h7.5v-6.52h-7.5v6.52ZM88.37,6.14h-7.5v6.47h7.5v-6.47ZM80.87,22.22h7.5v-6.52h-7.5v6.52Z"/>
        <path class="cls-3" d="M99.51,19.31h11.72V7.59h-12.61v-3.28h16.27v20.81h-3.66v-2.53h-8.06v15.52c3.81-1.81,7.72-3.84,11.72-6.09.22,1.5.47,2.77.75,3.8-4.06,2.03-8.23,4.25-12.52,6.66-1.16.81-2.06,1.55-2.72,2.2l-2.53-3.23c1.09-1,1.64-2.41,1.64-4.22v-17.91ZM114.98,20.06c2.97-5.41,5.62-11.98,7.97-19.73l3.7,1.08c-.88,2.52-1.77,4.92-2.7,7.22h18.96v3.47h-5.48c-.84,10.12-3.12,17.62-6.82,22.5,3.03,3.23,7.37,5.81,13.01,7.73-.91.88-1.89,2.09-2.95,3.66-5.38-2.56-9.54-5.41-12.49-8.53-3.19,3.25-7.96,6.34-14.32,9.28-.75-1.09-1.67-2.2-2.77-3.33,6.55-2.73,11.41-5.72,14.6-8.95-2.89-4.02-4.88-9.4-5.95-16.15-.8,1.64-1.6,3.21-2.41,4.71-.78-1.12-1.56-2.11-2.34-2.95ZM122.1,13.12c1.09,7.92,3.11,14.05,6.05,18.38,2.92-4.27,4.79-10.73,5.6-19.41h-11.2l-.45,1.03Z"/>
        <path class="cls-3" d="M145.37,34.31h13.08c.12-1.06.19-2.33.19-3.8h3.42c0,1.41-.06,2.67-.19,3.8h14.02v-3.8h3.38v3.8h12.23v3h-12.23v9.14h-3.38v-9.14h-14.48c-1.22,4.56-5.34,7.81-12.38,9.75-.59-1-1.34-2.05-2.25-3.14,6-1.31,9.66-3.52,10.97-6.61h-12.38v-3ZM145.7,22.97c4.09-2.41,7.3-5.3,9.61-8.67h-8.39v-2.91h43.03v2.91h-15.8v5.72c4.28-1.28,8.52-2.72,12.7-4.31l1.27,3c-4.78,1.69-9.44,3.17-13.97,4.45v.61c0,1.62.94,2.44,2.81,2.44h6.84c1.72,0,2.73-.77,3.05-2.3.28-1.38.5-2.81.66-4.31,1.09.44,2.2.83,3.33,1.17-.22,1.44-.47,2.77-.75,3.98-.59,2.91-2.69,4.36-6.28,4.36h-7.59c-3.47,0-5.2-1.73-5.2-5.2v-9.61h-12.09c-.62.97-1.3,1.91-2.02,2.81h12.14v2.48c-4.06,6.62-11.09,11.16-21.09,13.59-.5-.97-1.08-1.98-1.73-3.05,4.03-.88,7.53-2.09,10.5-3.66-.94-.72-2.25-1.73-3.94-3.05l2.25-2.02c1.69,1.19,3.22,2.3,4.59,3.33,2.12-1.44,3.89-3.08,5.3-4.92h-10.36c-1.84,1.94-4.14,3.8-6.89,5.58-.62-.91-1.28-1.72-1.97-2.44ZM145.79,4.31h13.31V.66h3.28v3.66h12.19V.66h3.28v3.66h13.41v3h-13.41v2.91h-3.28v-2.91h-12.19v2.91h-3.28v-2.91h-13.31v-3Z"/>
        <path class="cls-3" d="M211.4,32.67c.31,1.59.62,2.97.94,4.12-2.97,2.06-5.8,4.19-8.48,6.38-.97.81-1.84,1.73-2.62,2.77l-3.14-3.14c1.22-1.19,1.83-2.81,1.83-4.88v-17.77h-6.28v-3.56h10.08v21.89c2.5-1.69,5.06-3.62,7.69-5.81ZM198.56,1.22c3.41,3.5,5.88,6.09,7.41,7.78l-3.28,2.77c-1.97-2.59-4.3-5.28-6.98-8.06l2.86-2.48ZM207.37,23.2h14.81v-12.09h-7.36c-1.39,3.14-2.84,6-4.36,8.58-.88-.78-1.92-1.56-3.14-2.34,2.94-4.66,5.44-10.31,7.5-16.97l3.75,1.03c-.75,2.22-1.53,4.33-2.34,6.33h21.8v3.38h-11.91v12.09h13.97v3.38h-13.97v19.83h-3.94v-19.83h-14.81v-3.38Z"/>
        <path class="cls-3" d="M241.74,4.31h46.31v3.56h-7.78v31.73c0,4.22-2.05,6.34-6.14,6.38-2.94,0-5.8-.02-8.58-.05-.16-1.44-.41-2.86-.75-4.27,3.53.25,6.22.38,8.06.38,2.31,0,3.47-1.25,3.47-3.75V7.88h-34.59v-3.56ZM246.94,14.81h20.67v18.52h-16.97v3.33h-3.7V14.81ZM263.91,18.14h-13.27v11.86h13.27v-11.86Z"/>
        <path class="cls-3" d="M292.57,3.98c5.19-.09,10.61-.73,16.27-1.92l1.22,3.52c-4.62.69-9.33,1.2-14.11,1.55v7.27h12.28v17.3h-3.28v-2.06h-9.19c-.52,7.16-2.16,12.83-4.92,17.02-.84-1.03-1.7-1.98-2.58-2.86,2.88-3.94,4.31-10.41,4.31-19.41V3.98ZM304.94,26.53v-9.05h-9c0,4.66,0,7.67-.02,9.05h9.02ZM312.72,4.27c7.44-.28,14.2-.97,20.3-2.06l1.27,3.56c-7.81.88-13.84,1.44-18.09,1.69v10.45h18.98v3.23h-7.27v25.31h-3.52v-25.31h-8.2v2.62c0,9.84-2.73,17.58-8.2,23.2-.91-1.06-1.8-2.09-2.67-3.09,4.94-5.06,7.41-11.8,7.41-20.2V4.27Z"/>
        <path class="cls-3" d="M344.69,46.55h-3.56v-15.38h15.28l.77-3.66h-20.46v-2.91h46.12v2.91h-22.03l-.94,3.66h18.8v10.5c0,3.09-1.55,4.64-4.64,4.64-1.5,0-3.14-.03-4.92-.09-.09-1.03-.31-2.23-.66-3.61,1.84.19,3.36.28,4.55.28,1.41,0,2.11-.62,2.11-1.88v-6.94h-8.06v11.16h-3.33v-11.16h-7.78v11.16h-3.33v-11.16h-7.92v12.47ZM338.32,8.39h19.78v-2.72h-17.44v-2.91h37.88v2.91h-17.11v2.72h19.83v8.72h-3.61v-5.81h-16.22v11.16h-3.33v-11.16h-16.17v5.81h-3.61v-8.72ZM344.6,14.02h11.02v2.53h-11.02v-2.53ZM344.6,19.27h11.02v2.53h-11.02v-2.53ZM363.91,14.02h11.02v2.53h-11.02v-2.53ZM363.91,19.27h11.02v2.53h-11.02v-2.53Z"/>
        <path class="cls-3" d="M386.55,8.25h4.73c1.16-2.84,2.11-5.44,2.86-7.78l3.94,1.12c-.98,2.39-1.94,4.61-2.86,6.66h9.38v37.31h-3.75v-3.66h-10.55v3.98h-3.75V8.25ZM400.84,11.77h-10.55v11.39h10.55v-11.39ZM390.3,38.39h10.55v-11.86h-10.55v11.86ZM405.3,17.86c2.94-4.66,5.42-10.45,7.45-17.39l3.94.98c-.8,2.36-1.61,4.58-2.44,6.66h15.09c-.38,16.06-.69,26.17-.94,30.33-.22,4.91-2.8,7.36-7.73,7.36-2.84,0-5.73-.09-8.67-.28-.19-1.56-.44-2.95-.75-4.17h.14c3.12.44,5.98.66,8.58.66,2.84,0,4.38-1.5,4.59-4.5.34-4.66.59-13.28.75-25.88h-12.56c-1.36,3.02-2.77,5.67-4.22,7.97-.84-.59-1.92-1.17-3.23-1.73ZM409.42,21.05l2.86-2.11c3.47,4.09,6.23,7.64,8.3,10.64l-3.47,2.44c-2.22-3.62-4.78-7.28-7.69-10.97Z"/>
        <path class="cls-3" d="M444.91,10.97c.56,1.22,1.17,2.33,1.83,3.33-3.72,2.78-7.59,5.8-11.62,9.05l-2.44-3.19c4.41-3.03,8.48-6.09,12.23-9.19ZM457.66,28.36c-.03,3.38-.27,5.97-.7,7.78,7.12,2.31,13.92,4.72,20.39,7.22l-1.97,3.42c-5.91-2.44-12.48-4.95-19.73-7.55-2.09,3.72-8.77,6.3-20.02,7.73-.56-1.19-1.23-2.41-2.02-3.66,10.34-.91,16.59-2.84,18.75-5.81,1.16-1.56,1.7-4.61,1.64-9.14h3.66ZM436.56.8c2.69,1.69,5.3,3.44,7.83,5.25l-2.39,2.91c-2.25-1.78-4.75-3.64-7.5-5.58l2.06-2.58ZM439.51,23.3h32.58v15.28h-3.66v-12h-25.27v12h-3.66v-15.28ZM445.56,20.02c9.38-2.41,14.45-6.47,15.23-12.19h-7.5c-1.12,2.31-2.38,4.39-3.75,6.23-1-.69-2.05-1.36-3.14-2.02,2.94-3.47,5.02-7.48,6.23-12.05l3.52.84c-.47,1.38-.95,2.67-1.45,3.89h22.22v2.95l-3.19,6.38c-1.06-.5-2.2-.98-3.42-1.45l2.48-4.78h-8.34c-.25,1-.53,1.97-.84,2.91,2.69,4.44,7.73,7.52,15.14,9.23-.88,1.19-1.66,2.33-2.34,3.42-6.66-2.12-11.41-5.25-14.25-9.38-2.16,3.75-6.89,6.78-14.2,9.09-.62-.94-1.42-1.97-2.39-3.09Z"/>
        <path class="cls-3" d="M481.2,36.33c3.34-4.28,5.91-9.11,7.69-14.48h-7.22v-3.19h7.83V.66h3.47v18h7.64v3.19h-7.64v4.64l2.11-1.69c2.12,2.25,4.05,4.41,5.77,6.47l-2.67,2.16c-1.62-2.22-3.36-4.34-5.2-6.38v19.55h-3.47v-18.89c-1.97,5.25-4.25,9.38-6.84,12.38-.41-1.28-.89-2.53-1.45-3.75ZM481.62,6.52l2.81-1.12c1.16,2.69,2.42,5.81,3.8,9.38l-3.23,1.45c-1.41-4.22-2.53-7.45-3.38-9.7ZM494.09,15.28c1.44-3.53,2.64-6.8,3.61-9.8l3.33,1.03c-1.16,3.09-2.5,6.42-4.03,9.98l-2.91-1.22ZM501.92,30.23l15-1.83V.66h3.61v27.33l7.12-.89.28,3.38-7.41.94v15.19h-3.61v-14.77l-14.53,1.78-.47-3.38ZM502.9,19.55l2.02-2.48c2.97,1.97,5.73,3.97,8.3,6l-2.3,2.81c-2.41-2.06-5.08-4.17-8.02-6.33ZM503.93,7.64l2.16-2.48c2.69,1.94,5.33,4.03,7.92,6.28l-2.34,2.77c-2.03-1.97-4.61-4.16-7.73-6.56Z"/>
      </g>
    </g>
  </g>
</svg>