<?xml version="1.0" encoding="UTF-8"?>
<svg id="_レイヤー_2" data-name="レイヤー 2" xmlns="http://www.w3.org/2000/svg" xmlns:xlink="http://www.w3.org/1999/xlink" viewBox="0 0 600 80">
  <defs>
    <style>
      .cls-1 {
        fill: url(#_名称未設定グラデーション_18_コピー);
      }

      .cls-2 {
        fill: #fff;
      }

      .cls-3 {
        fill: #603;
      }
    </style>
    <linearGradient id="_名称未設定グラデーション_18_コピー" data-name="名称未設定グラデーション 18 コピー" x1="300" y1="2" x2="300" y2="78" gradientTransform="translate(260 340) rotate(-90)" gradientUnits="userSpaceOnUse">
      <stop offset="0" stop-color="#c36"/>
      <stop offset="1" stop-color="#f69"/>
    </linearGradient>
  </defs>
  <g id="en_zh3">
    <g id="UI_3d_en_zh">
      <rect class="cls-3" width="600" height="80" rx="25" ry="25"/>
      <rect class="cls-1" x="262" y="-258" width="76" height="596" rx="23" ry="23" transform="translate(340 -260) rotate(90)"/>
      <g>
        <path class="cls-2" d="M227.13,50.12c.25-.72.79-1.12,1.48-1.12.86,0,1.37.5,1.69,1.84l.86,2.81c.79.29,1.66.47,2.66.47,4,0,6.3-2.48,6.3-6.3s-2.23-6.23-6.55-6.23h-1.62v-1.26h1.44c3.49,0,5.98-2.09,5.98-5.94,0-3.35-1.76-5.33-4.9-5.33-.86,0-1.69.11-2.59.4l-.83,2.77c-.32,1.22-.86,1.62-1.76,1.62-.61,0-1.15-.29-1.37-.9.61-3.56,3.82-5,7.23-5,4.61,0,7.27,2.56,7.27,6.33,0,3.06-2.02,5.69-6.01,6.59,4.64.65,6.77,3.28,6.77,7.06,0,4.43-3.49,7.31-8.53,7.31-4.1,0-6.8-1.76-7.52-5.11Z"/>
        <path class="cls-2" d="M258.89,28.48h10.76c8.1,0,12.99,4.75,12.99,13.1s-5.11,13.1-13.5,13.1h-10.26v-1.08l3.71-.32c.04-3.53.04-7.2.04-11.48v-.97c0-3.78,0-7.42-.04-10.98l-3.71-.29v-1.08ZM268.82,53.5c6.88,0,10.44-4.54,10.44-11.92,0-7.77-3.56-11.91-10.04-11.91h-3.35c-.04,3.6-.04,7.27-.04,11.16v.97c0,4.36,0,8.06.04,11.7h2.95Z"/>
        <path class="cls-2" d="M329.87,30.54c-.11.4-.43.58-.94.58h-12.67c3.17,3.64,9.11,6.66,14.11,8.14l-.07.4c-1.01.11-1.73.83-2.05,1.91-4.97-2.16-10.22-5.9-12.99-10.44h-.36v7.74c0,.32-1.01.79-1.91.79h-.43v-7.56c-3.56,4.21-8.89,7.63-14.94,9.86l-.32-.58c5.18-2.56,9.83-6.33,12.85-10.26h-11.91l-.32-1.08h14.65v-5.4l3.67.4c-.07.5-.43.86-1.33.97v4.03h10.01l1.73-2.2s2.02,1.55,3.24,2.7ZM330.38,55.55c-.07.4-.4.58-.94.58h-31.86l-.29-1.08h28.18l1.73-2.09s1.98,1.48,3.17,2.59ZM304.68,53.79h-.4v-14.11l2.52,1.19h13.79l1.3-1.4,2.77,2.16c-.22.25-.76.5-1.37.61v10.33c-.04.25-1.19.86-1.98.86h-.36v-1.84h-14.33v1.44c0,.22-1.01.76-1.94.76ZM306.62,41.91v3.71h14.33v-3.71h-14.33ZM320.95,50.51v-3.82h-14.33v3.82h14.33Z"/>
        <path class="cls-2" d="M369.87,26.97c-.32.29-1.01.29-1.87-.11-3.17.58-7.09,1.08-11.34,1.48-.32,1.3-.72,2.56-1.19,3.78h9.97l1.73-2.12s1.94,1.48,3.17,2.59c-.11.4-.43.58-.94.58h-14.36c-.5,1.19-1.08,2.38-1.73,3.49h14.79l1.69-2.16s1.94,1.51,3.17,2.59c-.07.4-.43.58-.94.58h-19.29c-.61.97-1.3,1.94-2.02,2.84l.76.32h13.89l1.3-1.4,2.74,2.12c-.22.25-.76.54-1.33.68v14.43c-.04.22-1.22.79-2.02.79h-.36v-2.34h-14.69v1.55c0,.18-.76.79-1.87.79h-.4v-14.69c-2.3,2.41-5.08,4.5-8.35,6.26l-.47-.5c4.39-2.84,7.78-6.59,10.26-10.87h-9.61l-.32-1.01h10.51c.61-1.12,1.15-2.3,1.66-3.49h-9.11l-.29-1.04h9.79c.43-1.15.79-2.34,1.12-3.53-3.89.29-7.96.47-11.84.47l-.11-.76c8.89-.43,19.73-2.09,25.41-3.74l2.48,2.41ZM365.7,45.15v-3.28h-14.69v3.28h14.69ZM351.01,49.58h14.69v-3.38h-14.69v3.38ZM351.01,54.04h14.69v-3.38h-14.69v3.38Z"/>
      </g>
    </g>
  </g>
</svg>