<?xml version="1.0" encoding="UTF-8"?>
<svg id="_レイヤー_2" data-name="レイヤー 2" xmlns="http://www.w3.org/2000/svg" xmlns:xlink="http://www.w3.org/1999/xlink" viewBox="0 0 350 80">
  <defs>
    <style>
      .cls-1 {
        fill: url(#_名称未設定グラデーション_18_コピー);
      }

      .cls-2 {
        fill: #fff;
      }

      .cls-3 {
        fill: #603;
      }
    </style>
    <linearGradient id="_名称未設定グラデーション_18_コピー" data-name="名称未設定グラデーション 18 コピー" x1="175" y1="2" x2="175" y2="78" gradientTransform="translate(135 215) rotate(-90)" gradientUnits="userSpaceOnUse">
      <stop offset="0" stop-color="#c36"/>
      <stop offset="1" stop-color="#f69"/>
    </linearGradient>
  </defs>
  <g id="en_zh3">
    <g id="UI_check_en_zh">
      <rect class="cls-3" width="350" height="80" rx="25" ry="25"/>
      <rect class="cls-1" x="137" y="-133" width="76" height="346" rx="23" ry="23" transform="translate(215 -135) rotate(90)"/>
      <g>
        <path class="cls-2" d="M129.6,30.54c-.11.4-.43.58-.94.58h-12.67c3.17,3.64,9.11,6.66,14.11,8.13l-.07.4c-1.01.11-1.73.83-2.05,1.91-4.97-2.16-10.22-5.9-12.99-10.44h-.36v7.74c0,.32-1.01.79-1.91.79h-.43v-7.56c-3.56,4.21-8.89,7.63-14.94,9.86l-.32-.58c5.18-2.56,9.83-6.33,12.85-10.26h-11.91l-.32-1.08h14.65v-5.4l3.67.4c-.07.5-.43.86-1.33.97v4.03h10.01l1.73-2.2s2.02,1.55,3.24,2.7ZM130.1,55.55c-.07.4-.4.58-.94.58h-31.86l-.29-1.08h28.18l1.73-2.09s1.98,1.48,3.17,2.59ZM104.4,53.79h-.4v-14.11l2.52,1.19h13.79l1.3-1.4,2.77,2.16c-.22.25-.76.5-1.37.61v10.33c-.04.25-1.19.86-1.98.86h-.36v-1.84h-14.33v1.44c0,.22-1.01.76-1.94.76ZM106.35,41.91v3.71h14.33v-3.71h-14.33ZM120.67,50.51v-3.82h-14.33v3.82h14.33Z"/>
        <path class="cls-2" d="M167.8,26.97c-.32.29-1.01.29-1.87-.11-3.17.58-7.09,1.08-11.34,1.48-.32,1.3-.72,2.56-1.19,3.78h9.97l1.73-2.12s1.94,1.48,3.17,2.59c-.11.4-.43.58-.94.58h-14.36c-.5,1.19-1.08,2.38-1.73,3.49h14.79l1.69-2.16s1.94,1.51,3.17,2.59c-.07.4-.43.58-.94.58h-19.29c-.61.97-1.3,1.94-2.02,2.84l.76.32h13.89l1.3-1.4,2.74,2.12c-.22.25-.76.54-1.33.68v14.43c-.04.22-1.22.79-2.02.79h-.36v-2.34h-14.69v1.55c0,.18-.76.79-1.87.79h-.4v-14.69c-2.3,2.41-5.08,4.5-8.35,6.26l-.47-.5c4.39-2.84,7.78-6.59,10.26-10.87h-9.61l-.32-1.01h10.51c.61-1.12,1.15-2.3,1.66-3.49h-9.11l-.29-1.04h9.79c.43-1.15.79-2.34,1.12-3.53-3.89.29-7.96.47-11.84.47l-.11-.76c8.89-.43,19.73-2.09,25.41-3.74l2.48,2.41ZM163.62,45.15v-3.28h-14.69v3.28h14.69ZM148.94,49.58h14.69v-3.38h-14.69v3.38ZM148.94,54.04h14.69v-3.38h-14.69v3.38Z"/>
        <path class="cls-2" d="M186.04,51.31c1.37-.72,2.99-1.55,4.61-2.45l.29.47c-1.15,1.04-3.49,3.13-5.98,5.22-.22.5-.61.86-.9,1.04l-1.58-2.92c1.15-.61,1.3-.83,1.3-1.51v-15.87h-4.79l-.32-1.08h5.18l1.15-1.26,2.38,1.98c-.14.25-.65.5-1.33.65v15.73ZM185.18,31.11c-.54-1.98-2.41-4.61-3.89-6.19l.4-.29c7.67,3.17,5.9,8.17,3.49,6.48ZM211.67,32.55c-.11.4-.47.58-.97.58h-9.21v6.3h4.14l1.66-2.12s1.91,1.48,3.02,2.59c-.07.4-.43.58-.9.58h-7.92v6.48h6.23l1.66-2.16s1.94,1.51,3.1,2.63c-.07.4-.43.58-.94.58h-10.04v8.82c0,.18-.76.72-1.98.72h-.36v-9.54h-9.72l-.29-1.04h10.01v-6.48h-7.63l-.29-1.04h7.92v-6.3h-9.14l-.29-1.08h12.17c.97-2.27,2.2-5.4,2.95-7.56l3.89,1.48c-.18.4-.61.65-1.4.58-1.12,1.55-2.84,3.71-4.46,5.51h4.07l1.66-2.09s1.91,1.48,3.1,2.59ZM195.98,31c-.32-1.98-1.87-4.5-3.13-6.08l.43-.25c7.31,3.31,5.08,8.32,2.7,6.33Z"/>
        <path class="cls-2" d="M222.84,31c.94,3.78.25,6.73-.65,8.06-.61.86-1.84,1.33-2.41.65-.43-.61-.14-1.4.43-2.05,1.01-1.12,2.02-4.07,1.98-6.66h.65ZM228.64,24.88c-.11.5-.4.86-1.3,1.01v30.74c0,.32-.94.86-1.8.86h-.47V24.53l3.56.36ZM229.65,35.29c-.04-1.69-.9-3.92-1.73-5.29l.47-.22c5.36,3.28,3.13,7.31,1.26,5.51ZM243.65,24.99c-.07.47-.4.79-1.19.94v2.3h5.72l1.66-2.02s1.8,1.44,2.95,2.52c-.11.4-.47.58-.97.58h-9.36v2.92h4.82l1.51-1.91s1.76,1.4,2.84,2.41c-.11.4-.43.58-.9.58h-8.28v3.2h6.37l1.58-2.05s1.84,1.48,2.99,2.52c-.11.4-.43.58-.94.58h-21.96l-.29-1.04h9.93v-3.2h-7.13l-.29-1.08h7.42v-2.92h-8.67l-.29-1.08h8.96v-3.56l3.49.32ZM233.61,39.1l2.48,1.19h10.8l1.19-1.48,3.02,2.23c-.22.29-.79.58-1.55.72v12.38c0,1.84-.36,2.99-3.35,3.28-.07-.72-.25-1.33-.68-1.73-.4-.36-1.12-.61-2.45-.79v-.58s2.81.22,3.46.22c.58,0,.72-.18.72-.72v-3.85h-11.34v6.62c0,.25-.94.83-1.91.83h-.4v-18.32ZM235.91,41.33v3.2h11.34v-3.2h-11.34ZM235.91,48.93h11.34v-3.31h-11.34v3.31Z"/>
      </g>
    </g>
  </g>
</svg>