<?xml version="1.0" encoding="UTF-8"?>
<svg id="_レイヤー_2" data-name="レイヤー 2" xmlns="http://www.w3.org/2000/svg" xmlns:xlink="http://www.w3.org/1999/xlink" viewBox="0 0 332.5 72">
  <defs>
    <style>
      .cls-1 {
        fill: #fff;
      }

      .cls-2 {
        fill: #603;
      }

      .cls-3 {
        fill: url(#_名称未設定グラデーション_598);
      }
    </style>
    <linearGradient id="_名称未設定グラデーション_598" data-name="名称未設定グラデーション 598" x1="166.25" y1="1.8" x2="166.25" y2="70.2" gradientTransform="translate(130.25 202.25) rotate(-90)" gradientUnits="userSpaceOnUse">
      <stop offset="0" stop-color="#de1659"/>
      <stop offset="1" stop-color="#c36"/>
    </linearGradient>
  </defs>
  <g id="en_zh3">
    <g id="UI_check_push">
      <rect class="cls-2" width="332.5" height="72" rx="25" ry="25"/>
      <rect class="cls-3" x="132.05" y="-128.35" width="68.4" height="328.7" rx="23" ry="23" transform="translate(202.25 -130.25) rotate(90)"/>
    </g>
    <g id="zh95">
      <path class="cls-1" d="M123.13,27.06c-.1.38-.41.55-.89.55h-12.04c3.01,3.45,8.65,6.33,13.4,7.73l-.07.38c-.96.1-1.64.79-1.95,1.81-4.72-2.05-9.71-5.61-12.34-9.92h-.34v7.35c0,.31-.96.75-1.81.75h-.41v-7.18c-3.39,4-8.45,7.25-14.19,9.37l-.31-.55c4.92-2.43,9.34-6.02,12.21-9.75h-11.32l-.31-1.03h13.92v-5.13l3.49.38c-.07.48-.41.82-1.27.92v3.83h9.51l1.64-2.09s1.92,1.47,3.08,2.56ZM123.61,50.83c-.07.38-.38.55-.89.55h-30.26l-.27-1.03h26.78l1.64-1.98s1.88,1.4,3.01,2.46ZM99.19,49.15h-.38v-13.4l2.39,1.13h13.1l1.23-1.33,2.63,2.05c-.21.24-.72.48-1.3.58v9.81c-.03.24-1.13.82-1.88.82h-.34v-1.74h-13.61v1.37c0,.21-.96.72-1.85.72ZM101.04,37.87v3.52h13.61v-3.52h-13.61ZM114.65,46.04v-3.62h-13.61v3.62h13.61Z"/>
      <path class="cls-1" d="M159.42,23.67c-.31.27-.96.27-1.78-.1-3.01.55-6.74,1.03-10.77,1.4-.31,1.23-.68,2.43-1.13,3.59h9.47l1.64-2.02s1.85,1.4,3.01,2.46c-.1.38-.41.55-.89.55h-13.64c-.48,1.13-1.03,2.26-1.64,3.32h14.05l1.61-2.05s1.85,1.44,3.01,2.46c-.07.38-.41.55-.89.55h-18.33c-.58.92-1.23,1.85-1.91,2.7l.72.31h13.2l1.23-1.33,2.6,2.02c-.21.24-.72.51-1.27.65v13.71c-.03.21-1.16.75-1.91.75h-.34v-2.22h-13.95v1.47c0,.17-.72.75-1.78.75h-.38v-13.95c-2.19,2.29-4.82,4.27-7.93,5.95l-.44-.48c4.17-2.7,7.39-6.26,9.75-10.33h-9.13l-.31-.96h9.99c.58-1.06,1.09-2.19,1.57-3.32h-8.65l-.27-.99h9.3c.41-1.09.75-2.22,1.06-3.35-3.69.27-7.56.44-11.25.44l-.1-.72c8.45-.41,18.74-1.98,24.14-3.56l2.36,2.29ZM155.45,40.94v-3.11h-13.95v3.11h13.95ZM141.5,45.15h13.95v-3.21h-13.95v3.21ZM141.5,49.39h13.95v-3.21h-13.95v3.21Z"/>
      <path class="cls-1" d="M176.75,46.79c1.3-.68,2.84-1.47,4.38-2.32l.27.44c-1.09.99-3.32,2.97-5.68,4.96-.21.48-.58.82-.85.99l-1.5-2.77c1.09-.58,1.23-.79,1.23-1.44v-15.08h-4.55l-.31-1.03h4.92l1.09-1.2,2.26,1.88c-.14.24-.62.48-1.27.62v14.94ZM175.93,27.61c-.51-1.88-2.29-4.38-3.69-5.88l.38-.27c7.28,3.01,5.61,7.76,3.32,6.16ZM201.1,28.97c-.1.38-.44.55-.92.55h-8.75v5.98h3.93l1.57-2.02s1.81,1.4,2.87,2.46c-.07.38-.41.55-.85.55h-7.52v6.16h5.92l1.57-2.05s1.85,1.44,2.94,2.5c-.07.38-.41.55-.89.55h-9.54v8.38c0,.17-.72.68-1.88.68h-.34v-9.06h-9.23l-.27-.99h9.51v-6.16h-7.25l-.27-.99h7.52v-5.98h-8.69l-.27-1.03h11.56c.92-2.15,2.09-5.13,2.8-7.18l3.69,1.4c-.17.38-.58.62-1.33.55-1.06,1.47-2.7,3.52-4.24,5.23h3.86l1.57-1.98s1.81,1.4,2.94,2.46ZM186.19,27.5c-.31-1.88-1.78-4.27-2.97-5.78l.41-.24c6.94,3.15,4.82,7.9,2.56,6.02Z"/>
      <path class="cls-1" d="M211.71,27.5c.89,3.59.24,6.39-.62,7.66-.58.82-1.74,1.27-2.29.62-.41-.58-.14-1.33.41-1.95.96-1.06,1.91-3.86,1.88-6.33h.62ZM217.22,21.69c-.1.48-.38.82-1.23.96v29.2c0,.31-.89.82-1.71.82h-.44v-31.32l3.39.34ZM218.18,31.57c-.03-1.61-.85-3.73-1.64-5.03l.44-.21c5.1,3.11,2.98,6.94,1.2,5.23ZM231.48,21.79c-.07.44-.38.75-1.13.89v2.19h5.44l1.57-1.91s1.71,1.37,2.8,2.39c-.1.38-.44.55-.92.55h-8.89v2.77h4.58l1.44-1.81s1.68,1.33,2.7,2.29c-.1.38-.41.55-.85.55h-7.87v3.04h6.05l1.5-1.95s1.74,1.4,2.84,2.39c-.1.38-.41.55-.89.55h-20.86l-.27-.99h9.44v-3.04h-6.77l-.27-1.03h7.04v-2.77h-8.24l-.27-1.03h8.51v-3.39l3.32.31ZM221.94,35.2l2.36,1.13h10.26l1.13-1.4,2.87,2.12c-.21.27-.75.55-1.47.68v11.76c0,1.74-.34,2.84-3.18,3.11-.07-.68-.24-1.27-.65-1.64-.38-.34-1.06-.58-2.33-.75v-.55s2.67.21,3.28.21c.55,0,.68-.17.68-.68v-3.66h-10.77v6.29c0,.24-.89.79-1.81.79h-.38v-17.41ZM224.13,37.32v3.04h10.77v-3.04h-10.77ZM224.13,44.53h10.77v-3.15h-10.77v3.15Z"/>
    </g>
  </g>
</svg>