<?xml version="1.0" encoding="UTF-8"?>
<svg id="_レイヤー_2" data-name="レイヤー 2" xmlns="http://www.w3.org/2000/svg" xmlns:xlink="http://www.w3.org/1999/xlink" viewBox="0 0 420 80">
  <defs>
    <style>
      .cls-1 {
        fill: url(#_名称未設定グラデーション_18_コピー);
      }

      .cls-2 {
        fill: #fff;
      }

      .cls-3 {
        fill: #603;
      }
    </style>
    <linearGradient id="_名称未設定グラデーション_18_コピー" data-name="名称未設定グラデーション 18 コピー" x1="210" y1="2" x2="210" y2="78" gradientTransform="translate(170 250) rotate(-90)" gradientUnits="userSpaceOnUse">
      <stop offset="0" stop-color="#c36"/>
      <stop offset="1" stop-color="#f69"/>
    </linearGradient>
  </defs>
  <g id="en_zh3">
    <g id="UI_form_short">
      <rect class="cls-3" width="420" height="80" rx="25" ry="25"/>
      <rect class="cls-1" x="172" y="-168" width="76" height="416" rx="23" ry="23" transform="translate(250 -170) rotate(90)"/>
      <g>
        <path class="cls-2" d="M131.55,49.12v-21.38h-2.45l-.29-1.04h12.02l1.62-2.05s1.91,1.44,3.1,2.52c-.11.4-.43.58-.94.58h-3.17v18.72l4.28-1.19.18.58-4.46,1.8v8.67c-.04.18-.72.76-1.87.76h-.36v-8.53c-2.45.97-5.29,2.05-8.46,3.2-.11.43-.43.79-.76.9l-1.15-2.92,2.7-.61ZM139.22,27.74h-5.47v5.87h5.47v-5.87ZM139.22,34.65h-5.47v6.37h5.47v-6.37ZM133.75,42.1v6.44l5.47-1.44v-5h-5.47ZM162.8,41.56c-.11.4-.47.58-.97.58h-7.99c1.48,5.47,4.57,10.26,8.93,12.31l-.04.4c-.94.18-1.69.94-2.02,2.12-4.18-2.99-6.41-8.03-7.6-14.87-.5,5.36-2.59,11.12-10.62,15.05l-.43-.5c6.41-4.32,8.31-9.43,8.75-14.51h-7.92l-.29-1.04h8.31l.04-1.98v-6.08h-6.59l-.29-1.08h9.21c1.12-2.27,2.16-5.44,2.77-7.78l3.85,1.04c-.14.4-.58.72-1.33.68-.97,1.8-2.66,4.17-4.36,6.05h2.77l1.69-2.09s1.91,1.48,3.1,2.59c-.11.4-.47.58-.97.58h-7.56v6.08l-.07,1.98h4.72l1.73-2.2s1.94,1.55,3.17,2.66ZM148.54,30.76c-.14-2.05-1.58-4.64-2.88-6.19l.43-.25c6.8,3.35,4.64,8.35,2.45,6.44Z"/>
        <path class="cls-2" d="M197.59,31.98c-.22.4-.72.61-1.58.47-2.74,2.92-7.24,6.77-11.3,9.72l14.79-.4c-1.55-1.33-3.35-2.52-4.9-3.35l.36-.4c11.37,2.59,10.87,9.07,7.92,7.7-.5-1.01-1.37-2.05-2.41-3.1-2.88.32-6.19.61-10.08.9v12.85c0,.18-.83.79-1.98.79h-.4v-13.46l-12.38.86c-.22.4-.61.68-.97.76l-1.51-3.06c2.3.04,5.83,0,10.19-.07,3.78-3.53,8.17-8.35,10.87-11.84l3.38,1.62ZM184.88,48.18c-.22.36-.5.47-1.33.32-2.05,2.45-5.8,5.65-9.61,7.63l-.4-.47c3.28-2.48,6.62-6.37,8.21-9.21l3.13,1.73ZM202.59,26.69c-.36.32-1.04.29-1.94-.14-3.64.58-8.17,1.12-12.96,1.58l2.27.94c-.22.4-.68.65-1.48.54-1.44,1.69-3.71,3.89-5.9,5.62,2.7,2.2,1.76,4.64-.11,3.78-.97-2.09-4-4.61-6.3-5.87l.32-.4c2.38.47,4.1,1.15,5.29,1.94,1.48-1.98,3.06-4.39,4.21-6.41-4.07.36-8.28.61-12.24.72l-.11-.68c8.93-.83,20.23-2.66,26.28-4.28l2.66,2.66ZM202.02,55.63c-1.26-2.84-5.29-6.52-8.28-8.57l.32-.36c11.91,4.1,10.94,10.58,7.96,8.93Z"/>
        <path class="cls-2" d="M233.31,27.16c-.32.29-.94.32-1.8.04-1.33.47-2.95,1.01-4.75,1.48v7.13h8.28c-.43-3.53-.58-7.34-.58-11.34l3.71.43c-.07.43-.4.86-1.26.97-.04,3.38.07,6.77.4,9.93h6.41l1.76-2.16s1.98,1.51,3.24,2.63c-.11.4-.47.58-.97.58h-10.29c.4,3.06,1.01,5.94,1.98,8.46,1.58-2.23,2.81-4.57,3.67-6.84l3.46,1.44c-.22.43-.54.61-1.44.47-1.15,2.34-2.74,4.75-4.75,7.02,1.19,2.3,2.77,4.17,4.82,5.47.61.47.83.47,1.15-.25.4-.86,1.08-2.59,1.48-4.07l.47.11-.58,5.33c1.08,1.26,1.15,1.76.9,2.16-.79,1.12-2.92.22-4.54-.97-2.27-1.51-4.03-3.56-5.36-6.05-2.84,2.81-6.41,5.25-10.65,6.95l-.29-.5c4-2.05,7.38-4.97,10.08-8.17-1.33-3.06-2.2-6.59-2.7-10.55h-8.39v5.83l7.24-1.8.14.58c-2.09.79-4.5,1.73-7.38,2.74v9.29c0,1.87-.43,3.31-3.78,3.64-.07-.72-.32-1.4-.79-1.76-.58-.43-1.48-.68-3.17-.94v-.54s3.74.29,4.54.29c.68,0,.86-.22.86-.76v-8.39l-6.62,2.23c-.14.47-.47.79-.79.9l-1.33-3.02c1.76-.25,4.93-.97,8.75-1.87v-6.41h-8.53l-.32-1.04h8.85v-6.52c-2.66.65-5.51,1.22-8.21,1.55l-.18-.61c5.15-1.19,11.34-3.56,14.43-5.4l2.84,2.34ZM243.32,32.16c-.54-1.87-2.59-4.21-4.25-5.54l.36-.29c7.96,2.41,6.3,7.49,3.89,5.83Z"/>
        <path class="cls-2" d="M264.65,34.97v21.24c-.04.22-1.01.83-1.94.83h-.47v-19.83c-1.3,2.12-2.7,4.03-4.21,5.62l-.54-.32c2.84-4.5,5.8-11.52,7.42-18.36l3.85,1.15c-.14.43-.54.76-1.37.72-.9,2.66-2.02,5.29-3.2,7.7l1.58.58c-.14.32-.5.58-1.12.68ZM271.92,31.7v24.55c0,.32-.94.86-1.84.86h-.43v-26.82l3.6.43c-.07.5-.4.86-1.33.97ZM274.12,31.12c-.4-1.94-1.98-4.54-3.24-6.08l.43-.25c7.06,3.2,5.15,8.1,2.81,6.33ZM287.69,26.44l3.02,2.27c-.25.32-.86.61-1.58.72v24.19c0,1.91-.4,3.1-3.92,3.46-.11-.72-.32-1.33-.86-1.73-.61-.36-1.62-.68-3.42-.94v-.54s4.18.29,4.97.29.97-.22.97-.83v-24.33h-9.29l-.32-1.04h9.25l1.19-1.51Z"/>
      </g>
    </g>
  </g>
</svg>