<?xml version="1.0" encoding="UTF-8"?>
<svg id="_レイヤー_2" data-name="レイヤー 2" xmlns="http://www.w3.org/2000/svg" xmlns:xlink="http://www.w3.org/1999/xlink" viewBox="0 0 399 72">
  <defs>
    <style>
      .cls-1 {
        fill: #fff;
      }

      .cls-2 {
        fill: #603;
      }

      .cls-3 {
        fill: url(#_名称未設定グラデーション_598);
      }
    </style>
    <linearGradient id="_名称未設定グラデーション_598" data-name="名称未設定グラデーション 598" x1="199.5" y1="1.8" x2="199.5" y2="70.2" gradientTransform="translate(163.5 235.5) rotate(-90)" gradientUnits="userSpaceOnUse">
      <stop offset="0" stop-color="#de1659"/>
      <stop offset="1" stop-color="#c36"/>
    </linearGradient>
  </defs>
  <g id="en_zh3">
    <g id="UI_form_short_push">
      <rect class="cls-2" width="399" height="72" rx="25" ry="25"/>
      <rect class="cls-3" x="165.3" y="-161.6" width="68.4" height="395.2" rx="23" ry="23" transform="translate(235.5 -163.5) rotate(90)"/>
    </g>
    <g id="_95zh" data-name="95zh">
      <path class="cls-1" d="M124.96,44.69v-20.31h-2.32l-.27-.99h11.42l1.54-1.95s1.81,1.37,2.94,2.39c-.1.38-.41.55-.89.55h-3.01v17.78l4.07-1.13.17.55-4.24,1.71v8.24c-.03.17-.68.72-1.78.72h-.34v-8.1c-2.33.92-5.03,1.95-8.04,3.04-.1.41-.41.75-.72.85l-1.09-2.77,2.56-.58ZM132.25,24.38h-5.2v5.57h5.2v-5.57ZM132.25,30.95h-5.2v6.05h5.2v-6.05ZM127.05,38.02v6.12l5.2-1.37v-4.75h-5.2ZM154.64,37.51c-.1.38-.44.55-.92.55h-7.59c1.4,5.2,4.34,9.75,8.48,11.7l-.03.38c-.89.17-1.61.89-1.91,2.02-3.97-2.84-6.09-7.63-7.22-14.12-.48,5.1-2.46,10.57-10.09,14.29l-.41-.48c6.09-4.1,7.9-8.96,8.31-13.78h-7.52l-.27-.99h7.9l.03-1.88v-5.78h-6.26l-.27-1.03h8.75c1.06-2.15,2.05-5.16,2.63-7.39l3.66.99c-.14.38-.55.68-1.27.65-.92,1.71-2.53,3.97-4.14,5.74h2.63l1.61-1.98s1.81,1.4,2.94,2.46c-.1.38-.44.55-.92.55h-7.18v5.78l-.07,1.88h4.48l1.64-2.09s1.85,1.47,3.01,2.53ZM141.1,27.25c-.14-1.95-1.5-4.41-2.74-5.88l.41-.24c6.46,3.18,4.41,7.93,2.33,6.12Z"/>
      <path class="cls-1" d="M187.7,28.41c-.21.38-.68.58-1.5.44-2.6,2.77-6.87,6.43-10.74,9.23l14.05-.38c-1.47-1.27-3.18-2.39-4.65-3.18l.34-.38c10.81,2.46,10.33,8.62,7.52,7.32-.48-.96-1.3-1.95-2.29-2.94-2.74.31-5.88.58-9.58.86v12.21c0,.17-.79.75-1.88.75h-.38v-12.79l-11.76.82c-.21.38-.58.65-.92.72l-1.44-2.91c2.19.03,5.54,0,9.68-.07,3.59-3.35,7.76-7.93,10.33-11.25l3.21,1.54ZM175.63,43.8c-.21.34-.48.44-1.26.31-1.95,2.33-5.51,5.37-9.13,7.25l-.38-.45c3.11-2.36,6.29-6.05,7.8-8.75l2.97,1.64ZM192.45,23.39c-.34.31-.99.27-1.85-.14-3.45.55-7.76,1.06-12.31,1.5l2.15.89c-.21.38-.65.62-1.4.51-1.37,1.61-3.52,3.69-5.61,5.33,2.56,2.09,1.68,4.41-.1,3.59-.92-1.98-3.8-4.38-5.98-5.57l.31-.38c2.26.44,3.9,1.09,5.03,1.85,1.4-1.88,2.91-4.17,4-6.09-3.86.34-7.87.58-11.63.68l-.1-.65c8.48-.79,19.22-2.53,24.96-4.07l2.53,2.53ZM191.9,50.88c-1.2-2.7-5.03-6.19-7.87-8.14l.31-.34c11.32,3.9,10.4,10.05,7.56,8.48Z"/>
      <path class="cls-1" d="M221.63,23.83c-.31.27-.89.31-1.71.03-1.26.44-2.8.96-4.51,1.4v6.77h7.87c-.41-3.35-.55-6.98-.55-10.77l3.52.41c-.07.41-.38.82-1.2.92-.03,3.21.07,6.43.38,9.44h6.09l1.68-2.05s1.88,1.44,3.08,2.5c-.1.38-.44.55-.92.55h-9.78c.38,2.91.96,5.64,1.88,8.04,1.5-2.12,2.67-4.34,3.49-6.5l3.28,1.37c-.21.41-.51.58-1.37.44-1.09,2.22-2.6,4.51-4.51,6.67,1.13,2.19,2.63,3.97,4.58,5.2.58.45.79.45,1.09-.24.38-.82,1.03-2.46,1.4-3.86l.44.1-.55,5.06c1.03,1.2,1.09,1.68.85,2.05-.75,1.06-2.77.21-4.31-.92-2.15-1.44-3.83-3.39-5.1-5.74-2.7,2.67-6.09,4.99-10.12,6.6l-.27-.48c3.8-1.95,7.01-4.72,9.58-7.76-1.27-2.91-2.09-6.26-2.56-10.02h-7.97v5.54l6.87-1.71.14.55c-1.98.75-4.27,1.64-7.01,2.6v8.82c0,1.78-.41,3.15-3.59,3.45-.07-.68-.31-1.33-.75-1.68-.55-.41-1.4-.65-3.01-.89v-.51s3.56.27,4.31.27c.65,0,.82-.21.82-.72v-7.97l-6.29,2.12c-.14.44-.44.75-.75.86l-1.26-2.87c1.68-.24,4.68-.92,8.31-1.78v-6.09h-8.1l-.31-.99h8.41v-6.19c-2.53.62-5.23,1.16-7.8,1.47l-.17-.58c4.89-1.13,10.77-3.39,13.71-5.13l2.7,2.22ZM231.14,28.59c-.51-1.78-2.46-4-4.04-5.27l.34-.27c7.56,2.29,5.98,7.11,3.69,5.54Z"/>
      <path class="cls-1" d="M251.41,31.25v20.18c-.03.21-.96.79-1.85.79h-.44v-18.84c-1.23,2.02-2.56,3.83-4,5.33l-.51-.31c2.7-4.27,5.51-10.94,7.04-17.44l3.66,1.09c-.14.41-.51.72-1.3.68-.85,2.53-1.91,5.03-3.04,7.32l1.5.55c-.14.31-.48.55-1.06.65ZM258.31,28.14v23.32c0,.31-.89.82-1.74.82h-.41v-25.48l3.42.41c-.07.48-.38.82-1.27.92ZM260.4,27.59c-.38-1.85-1.88-4.31-3.08-5.78l.41-.24c6.7,3.04,4.89,7.69,2.67,6.02ZM273.29,23.15l2.87,2.15c-.24.31-.82.58-1.5.68v22.98c0,1.81-.38,2.94-3.73,3.28-.1-.68-.31-1.27-.82-1.64-.58-.34-1.54-.65-3.25-.89v-.51s3.97.27,4.72.27.92-.21.92-.79v-23.12h-8.82l-.31-.99h8.79l1.13-1.44Z"/>
    </g>
  </g>
</svg>