<?xml version="1.0" encoding="UTF-8"?>
<svg id="_レイヤー_2" data-name="レイヤー 2" xmlns="http://www.w3.org/2000/svg" xmlns:xlink="http://www.w3.org/1999/xlink" viewBox="0 0 600 80">
  <defs>
    <style>
      .cls-1 {
        fill: url(#_名称未設定グラデーション_18_コピー);
      }

      .cls-2 {
        fill: #fff;
      }

      .cls-3 {
        fill: #603;
      }
    </style>
    <linearGradient id="_名称未設定グラデーション_18_コピー" data-name="名称未設定グラデーション 18 コピー" x1="300" y1="2" x2="300" y2="78" gradientTransform="translate(260 340) rotate(-90)" gradientUnits="userSpaceOnUse">
      <stop offset="0" stop-color="#c36"/>
      <stop offset="1" stop-color="#f69"/>
    </linearGradient>
  </defs>
  <g id="en_zh3">
    <g id="UI_form_en_zh">
      <rect class="cls-3" width="600" height="80" rx="25" ry="25"/>
      <rect class="cls-1" x="262" y="-258" width="76" height="596" rx="23" ry="23" transform="translate(340 -260) rotate(90)"/>
      <g>
        <path class="cls-2" d="M233.06,35.07l.22.5c-2.41,1.33-5.8,3.24-10.29,5.51-.11.47-.36.76-.68.9l-1.73-2.77c2.16-.54,7.31-2.3,12.49-4.14ZM227.98,28.81l1.69-2.16s1.87,1.51,3.02,2.63c-.11.4-.43.58-.94.58h-10.12l-.29-1.04h6.62ZM226.25,43.31l2.56,1.15h16.27l1.26-1.37,2.81,2.16c-.18.25-.72.54-1.37.65v10.4c-.04.25-1.22.83-2.02.83h-.36v-2.38h-16.77v1.87c0,.21-1.01.79-1.98.79h-.4v-14.11ZM228.63,45.55v8.14h16.77v-8.14h-16.77ZM240.4,25.75c-.14.4-.58.72-1.33.65-.47.94-1.01,1.84-1.66,2.74h11.7l1.48-1.51,2.63,2.59c-.25.25-.65.29-1.4.36-1.01,1.48-3.02,3.64-4.54,4.86l-.47-.25c.68-1.26,1.66-3.42,2.3-5h-6.55c1.04,4.82,3.71,9.11,11.01,11.81l-.04.4c-1.19.18-1.91.61-2.12,1.87-6.05-2.81-8.32-7.56-9.25-12.46-.72,4.72-2.88,8.82-12.2,11.77l-.4-.61c8.82-3.53,9.97-7.92,10.22-12.78h-3.17c-1.48,1.87-3.28,3.49-5.26,4.64l-.47-.4c2.41-2.27,4.64-6.16,5.87-9.9l3.64,1.22Z"/>
        <path class="cls-2" d="M269.86,51.09c1.37-.97,3.02-2.16,4.61-3.38l.32.43c-1.15,1.37-3.42,3.96-5.94,6.62-.22.65-.65,1.04-.97,1.22l-1.58-2.92c1.12-.58,1.3-.83,1.3-1.48v-16.31h-4.97l-.32-1.04h5.33l1.19-1.26,2.34,1.98c-.14.25-.61.5-1.3.65v15.48ZM269.39,31.62c-.5-2.12-2.41-5-3.92-6.73l.43-.25c7.74,3.53,5.9,8.78,3.49,6.98ZM280.34,26.61c-.54,1.44-1.19,2.88-1.87,4.21h12.42l1.44-1.58,2.77,2.38c-.25.29-.72.5-1.51.58-.22,12.78-.76,21.35-2.45,23.43-1.01,1.19-2.45,1.76-4.25,1.76,0-.76-.14-1.44-.68-1.8-.65-.43-2.34-.86-3.89-1.12l.04-.65c1.76.18,4.61.43,5.47.43.76,0,1.01-.07,1.44-.47,1.3-1.37,1.8-10.08,2.02-21.92h-13.35c-1.66,3.02-3.63,5.69-5.76,7.67l-.5-.4c2.45-3.42,4.9-8.93,6.3-14.43l3.74,1.22c-.14.4-.58.72-1.37.68ZM276.2,51.16h-.36v-15.91l2.38,1.08h6.3l1.3-1.4,2.81,2.2c-.25.29-.83.58-1.55.72v11.59c-.04.18-1.15.76-1.87.76h-.32v-1.73h-6.84v1.94c0,.22-.9.76-1.84.76ZM284.87,37.41h-6.84v4.32h6.84v-4.32ZM278.03,42.77v4.61h6.84v-4.61h-6.84Z"/>
        <path class="cls-2" d="M335.44,43.06c-.25.36-.58.5-1.33.29-1.8,1.37-4.82,3.17-7.67,4.43,2.92,3.38,6.88,5.51,11.38,6.55l-.04.43c-1.19.4-2.05,1.19-2.27,2.34-7.02-2.48-11.92-7.96-14-17.13h-.47c-1.3,1.62-2.88,3.13-4.71,4.5v8.28l8.42-2.02.11.58c-3.28,1.37-7.81,3.17-14.15,5.36-.14.47-.43.76-.79.86l-1.66-3.06c1.26-.22,3.28-.65,5.72-1.19v-7.2c-2.77,1.76-5.94,3.24-9.29,4.39l-.36-.61c5.33-2.41,10.22-6.08,13.28-9.9h-12.46l-.32-1.04h15.01v-4.1h-11.05l-.29-1.04h11.34v-4h-12.56l-.32-1.01h12.89v-4.25l3.71.4c-.07.5-.47.86-1.33,1.01v2.84h8.71l1.69-2.16s1.91,1.51,3.1,2.63c-.11.36-.47.54-.94.54h-12.56v4h7.59l1.55-2.05s1.76,1.44,2.92,2.56c-.11.36-.43.54-.97.54h-11.09v4.1h10.26l1.69-2.2s1.94,1.55,3.13,2.66c-.11.4-.43.58-.97.58h-14c.83,2.84,2.05,5.22,3.6,7.2,2.34-1.84,4.9-4.39,6.23-6.16l3.28,2.05Z"/>
        <path class="cls-2" d="M379.68,49.72c-.11.4-.5.58-.97.58h-14.61v6.52c0,.18-.76.76-2.02.76h-.36v-7.27h-15.19l-.32-1.04h15.51v-4.39h-8.13v1.01c0,.25-.97.79-1.94.79h-.4v-15.66l2.56,1.19h11.01c1.4-1.8,3.2-4.79,4.57-7.67l3.49,1.69c-.18.36-.65.65-1.44.5-1.66,2.02-3.67,4.07-5.54,5.47h5.83l1.33-1.44,2.92,2.23c-.25.29-.79.54-1.51.68v11.84c-.04.25-1.19.83-2.02.83h-.36v-1.48h-7.99v4.39h10.22l1.87-2.34s2.16,1.62,3.49,2.81ZM361.72,37.91v-4.64h-8.13v4.64h8.13ZM353.58,43.82h8.13v-4.86h-8.13v4.86ZM357.76,31.51c-.43-2.12-2.38-4.75-4.03-6.3l.4-.29c8.17,2.77,6.3,8.42,3.64,6.59ZM372.08,33.27h-7.99v4.64h7.99v-4.64ZM364.09,38.96v4.86h7.99v-4.86h-7.99Z"/>
      </g>
    </g>
  </g>
</svg>