<?xml version="1.0" encoding="UTF-8"?>
<svg id="_レイヤー_2" data-name="レイヤー 2" xmlns="http://www.w3.org/2000/svg" xmlns:xlink="http://www.w3.org/1999/xlink" viewBox="0 0 570 72">
  <defs>
    <style>
      .cls-1 {
        fill: #fff;
      }

      .cls-2 {
        fill: #603;
      }

      .cls-3 {
        fill: url(#_名称未設定グラデーション_598);
      }
    </style>
    <linearGradient id="_名称未設定グラデーション_598" data-name="名称未設定グラデーション 598" x1="285" y1="1.8" x2="285" y2="70.2" gradientTransform="translate(249 321) rotate(-90)" gradientUnits="userSpaceOnUse">
      <stop offset="0" stop-color="#de1659"/>
      <stop offset="1" stop-color="#c36"/>
    </linearGradient>
  </defs>
  <g id="en_zh3">
    <g id="UI_form_push">
      <rect class="cls-2" width="570" height="72" rx="25" ry="25"/>
      <rect class="cls-3" x="250.8" y="-247.1" width="68.4" height="566.2" rx="23" ry="23" transform="translate(321 -249) rotate(90)"/>
    </g>
    <g id="_95zh" data-name="95zh">
      <path class="cls-1" d="M221.41,30.87l.21.48c-2.29,1.27-5.51,3.08-9.78,5.23-.1.45-.34.72-.65.86l-1.64-2.63c2.05-.51,6.94-2.19,11.87-3.93ZM216.59,24.92l1.61-2.05s1.78,1.44,2.87,2.5c-.1.38-.41.55-.89.55h-9.61l-.27-.99h6.29ZM214.95,38.7l2.43,1.09h15.46l1.2-1.3,2.67,2.05c-.17.24-.68.51-1.3.62v9.88c-.03.24-1.16.79-1.91.79h-.34v-2.26h-15.93v1.78c0,.2-.96.75-1.88.75h-.38v-13.4ZM217.21,40.82v7.73h15.93v-7.73h-15.93ZM228.39,22.01c-.14.38-.55.68-1.27.62-.44.89-.96,1.74-1.57,2.6h11.11l1.4-1.44,2.5,2.46c-.24.24-.62.27-1.33.34-.96,1.4-2.87,3.45-4.31,4.62l-.44-.24c.65-1.2,1.57-3.25,2.19-4.75h-6.22c.99,4.58,3.52,8.65,10.46,11.22l-.03.38c-1.13.17-1.81.58-2.02,1.78-5.75-2.67-7.9-7.18-8.79-11.83-.68,4.48-2.74,8.38-11.59,11.18l-.38-.58c8.38-3.35,9.47-7.52,9.71-12.14h-3.01c-1.4,1.78-3.11,3.32-4.99,4.41l-.44-.38c2.29-2.15,4.41-5.85,5.57-9.4l3.45,1.16Z"/>
      <path class="cls-1" d="M256.37,46.09c1.3-.92,2.87-2.05,4.38-3.21l.31.41c-1.09,1.3-3.25,3.76-5.64,6.29-.21.62-.62.99-.92,1.16l-1.5-2.77c1.06-.55,1.23-.79,1.23-1.4v-15.49h-4.72l-.31-.99h5.06l1.13-1.2,2.22,1.88c-.14.24-.58.48-1.23.62v14.7ZM255.93,27.59c-.48-2.02-2.29-4.75-3.73-6.39l.41-.24c7.35,3.35,5.61,8.34,3.32,6.63ZM266.33,22.83c-.51,1.37-1.13,2.74-1.78,4h11.8l1.37-1.5,2.63,2.26c-.24.27-.68.48-1.44.55-.21,12.14-.72,20.28-2.32,22.26-.96,1.13-2.33,1.68-4.04,1.68,0-.72-.14-1.37-.65-1.71-.62-.41-2.22-.82-3.69-1.06l.03-.62c1.68.17,4.38.41,5.2.41.72,0,.96-.07,1.37-.44,1.23-1.3,1.71-9.58,1.91-20.83h-12.69c-1.57,2.87-3.45,5.4-5.47,7.28l-.48-.38c2.32-3.25,4.65-8.48,5.98-13.71l3.56,1.16c-.14.38-.55.68-1.3.65ZM262.39,46.16h-.34v-15.11l2.26,1.03h5.98l1.23-1.33,2.67,2.09c-.24.27-.79.55-1.47.68v11.01c-.03.17-1.09.72-1.78.72h-.31v-1.64h-6.5v1.85c0,.21-.85.72-1.74.72ZM270.63,33.09h-6.5v4.1h6.5v-4.1ZM264.14,38.19v4.38h6.5v-4.38h-6.5Z"/>
      <path class="cls-1" d="M318.68,38.46c-.24.34-.55.48-1.27.27-1.71,1.3-4.58,3.01-7.28,4.21,2.77,3.21,6.53,5.23,10.81,6.22l-.03.41c-1.13.38-1.95,1.13-2.15,2.22-6.67-2.36-11.32-7.56-13.3-16.28h-.44c-1.23,1.54-2.73,2.97-4.48,4.27v7.86l8-1.91.1.55c-3.11,1.3-7.42,3.01-13.44,5.1-.14.45-.41.72-.75.82l-1.57-2.91c1.2-.21,3.11-.62,5.44-1.13v-6.84c-2.63,1.68-5.64,3.08-8.82,4.17l-.34-.58c5.06-2.29,9.71-5.78,12.62-9.4h-11.83l-.31-.99h14.26v-3.9h-10.5l-.27-.99h10.77v-3.8h-11.93l-.31-.96h12.24v-4.03l3.52.38c-.07.48-.44.82-1.26.96v2.7h8.28l1.61-2.05s1.81,1.44,2.94,2.5c-.1.34-.44.51-.89.51h-11.93v3.8h7.21l1.47-1.95s1.68,1.37,2.77,2.43c-.1.34-.41.51-.92.51h-10.53v3.9h9.75l1.61-2.09s1.85,1.47,2.98,2.53c-.1.38-.41.55-.92.55h-13.3c.79,2.7,1.95,4.96,3.42,6.84,2.22-1.74,4.65-4.17,5.92-5.85l3.11,1.95Z"/>
      <path class="cls-1" d="M360.7,44.79c-.1.38-.48.55-.92.55h-13.88v6.19c0,.17-.72.72-1.91.72h-.34v-6.91h-14.43l-.31-.99h14.74v-4.17h-7.73v.96c0,.24-.92.75-1.85.75h-.38v-14.88l2.43,1.13h10.46c1.33-1.71,3.04-4.55,4.34-7.28l3.32,1.61c-.17.34-.62.62-1.37.48-1.57,1.91-3.49,3.86-5.27,5.2h5.54l1.27-1.37,2.77,2.12c-.24.27-.75.51-1.44.65v11.25c-.03.24-1.13.79-1.91.79h-.34v-1.4h-7.59v4.17h9.71l1.78-2.22s2.05,1.54,3.32,2.67ZM343.64,33.57v-4.41h-7.73v4.41h7.73ZM335.91,39.18h7.73v-4.62h-7.73v4.62ZM339.88,27.48c-.41-2.02-2.26-4.51-3.83-5.98l.38-.27c7.76,2.63,5.98,8,3.45,6.26ZM353.49,29.16h-7.59v4.41h7.59v-4.41ZM345.9,34.56v4.62h7.59v-4.62h-7.59Z"/>
    </g>
  </g>
</svg>