<?xml version="1.0" encoding="UTF-8"?>
<svg id="_レイヤー_2" data-name="レイヤー 2" xmlns="http://www.w3.org/2000/svg" xmlns:xlink="http://www.w3.org/1999/xlink" viewBox="0 0 800 120">
  <defs>
    <style>
      .cls-1 {
        fill: url(#_名称未設定グラデーション_18);
      }

      .cls-2 {
        fill: #fff;
      }

      .cls-3 {
        fill: #603;
      }
    </style>
    <linearGradient id="_名称未設定グラデーション_18" data-name="名称未設定グラデーション 18" x1="400" y1="2" x2="400" y2="112" gradientTransform="translate(343 457) rotate(-90)" gradientUnits="userSpaceOnUse">
      <stop offset="0" stop-color="#c36"/>
      <stop offset="1" stop-color="#f69"/>
    </linearGradient>
  </defs>
  <g id="en1">
    <g id="UI_funeral_process_zh">
      <rect class="cls-3" width="800" height="120" rx="25" ry="25"/>
      <rect class="cls-3" width="800" height="114" rx="25" ry="25"/>
      <rect class="cls-1" x="345" y="-341" width="110" height="796" rx="23" ry="23" transform="translate(457 -343) rotate(90)"/>
      <g>
        <path class="cls-3" d="M689.97,59.6c.02-.1.22,0,.27.02.7.23,7.86,3.33,10.77,11.8,1.97,5.73.97,10.9.25,13.49.85-.23,1.22-2.01,1.47-2.78,1.16-3.58,1.61-7.14,2.17-10.84.83-5.43-1.23-11.08-1.18-16.62.07-7.85,3.03-19.22,4.1-27.49.31-2.36,1.01-4.85.95-7.24-1.94.92-2.34,3.7-3.74,5.01-.67.63-1.78.83-2.53,1.48-3,2.61-6.3,5.02-5.77,9.5,1.87.16,3.52,0,4.77-1.5.8,1.07-1.4,1.99-1.97,3.03-1.31,2.38-1.22,4.89-4.34,6.67-3.73,2.13-9.43-2.19-8.49-3.2,2.71,2.64,6.52,4.71,9.53,1.25-.7-.21-1.95-.7-3.11-1.82-.72-.7-1.18-1.43-1.46-1.97-.4-1.45-.78-3.45-.75-5.84.02-1.75.27-3.27.55-4.47-2.05,1.64-2.1,2.6-2.2,3.22-.24,1.58,1.62,1.93,1.2,2.63-.11.18-.23.3-.38.38-.42.23-1.43-.16-1.87-1.14-.16-.35,1.16-2.21-1.52.27-.01.01-.91,1.88-.96,2.98-.03.83.05,3.83.05,3.87-4.14-1.42-6.69-4.29-7.39-6.83-.81-2.94.49-3.95,1.27-6.51-8.7-1.2-4.39-14.51,3.01-12.99-1.75,4.03-1.4,5.64,1.76,8.5.64.58,1.5.67,2.11,1.15,1.32,1.03.29,2.06,3.38,2.38.71.07,3.5.33,3.79-.52-2.82.56-6.28-8.56-5.9-10.2.23-1.02,1.49-.96,1.96-1.3.06-.04.2-.15.21-.29,0,0,0-.13-.13-.27-1.28-1.28-4.73-1.09-6.17.3-1.12.51-.54-.65.03-.97,2.34-1.28,6.66-1.21,7.5,1.72l-2.02.24c-1.14,1.07-.24,2.08.88,2.65,5.49,2.79,19.39-2.75,20.23-2.16,1.1.78-.71,5.51-.95,7.08-1.65,10.59-4.99,25.67-4.57,35.92.13,3.25.98,6.94,1,10.25l5.76-16c7.27-2.08,14.26,2.22,20.6,5.31l1.13-.41c.97-1.8,1.01-3.81-.38-5.38,3.17-1.26,4.27,3.27,5.19,4.63.58.53,1.46-.31,2.08.37,2.16,2.41,1.18,6.9-.97,9.02-.43.42-1.16.36-1.27.46,1.86-1.12,4.22-5.2,1.94-9.34,0,0,.93,3.23-1.3,5.35-1.17,1.11-6.15,1.99-6.15,1.99-.07.98,1.75.25,1.97,1.29.5,2.34-2.45,1.96-2.49-.29h-.49c.22,1.31-.88,1.14-1.95.93l-1.06-1.93,1,5.49c-1.33.07-1.84.31-2.25-1-1.29,1.09-2.29,2.13-3.12,3.33-.69,1-1.55,1.76-1.68,1.85-1.13.83-3.78-.12-3.87.13-.13,0,1.92,1.18,4.67,1.17.86,0,4.57-.38,6.36-3.23.31-.49.78-1.4.91-2.75,1.35.24-.42,3.09,0,3.49,2.27.27,5.5-3.03,5.05-5.19-.12-.57-1.26.03-1.04-.8.98-.04,2.69-.01,3.51-.5-1.91,1.72-1.86,4.27-4.26,6-1.53,1.1-2.85.96-4.41,1.61-.84.35-1.42,1.37-2.34,1.66-2.88.92-7.44.19-10.07-1.29.38-3.72,5.66,1.74,6.02-1.99-1.48,1.09-2.4-.03-2.97-.19,2.14.8,6.94-3.58,7.37-5.67,1.12-5.4-6.27-12.9-11.6-13.16-3.58,6.11,3.48,9.41,5.77,13.96,1.76,1.02,4.46-3.33,5.44-4.43.02,2.44-2.49,5.11-4.8,5.49-1.45.24-3.44-1.44-3.73-.23-.26,1.1,1.27,3.96,2,4.24-1.4-.41-1.76-.04-2.4-2.37-1.47-5.38,2.1-1.89,2.22-3.15.16-1.59-3.95-3.96-4.77-5.3-.38-.62-2.68-7.23-4.08-6.17-1.2,5.51-4.43,11.15-5.81,16.46-1.02,3.89-1.17,8.77-2.73,12.77l5.36-4.66c5.42-3.17,9.2-1.41,12.22,3.42-3.81-3.9-7.23-6.1-12.3-2.5-1.42,1.01-8.09,7.74-7.78,9.23,4.41,3.08,7.62-2.08,12.29-1.75,4.04.29,6.55,4.16,11.05,4.05,2.07-.05,5.18-1.19,6.27-3.03-2.16-.14-4.4.3-6.54-.24-4.4-1.11-6.48-6.59-12.25-5.74-1.16.07-4.76,2.2-5.96,2.22-.86.02,5.44-2.93,6.15-3.03,5.12-.74,7.35,4,11.58,5.27-.95-1.34-1.69-3.17-2.51-4.49,1.23,1.26,3.23,4.54,3.86,4.9,1.85,1.08,5.08.4,7.18.6,1.18,1.03-5.23,3.88-6.26,4.01-5.58.69-6.2-1.66-10.31-3.25-6.22-2.41-9.22,4.68-15.32,1.35l-2.74,3.39c-.49-1.24,1.05-2.21,1.42-3.64-2.06-2.18-6.66-7.96-7.24-11.06-1.32-7.17-1.48-13.46-3.36-18.82-.75-1.85-2.79-3.81-2.13-5.46.71.56,1.46,1.19,2.22,1.91.73.69,1.29,1.28,1.57,1.58.12.13.09.2-.05.14-.15-.05-2.28-1.9-2.51-1.72-.2.15.94,1.8,1.14,2.26.73,1.71,1.4,4.79,1.68,6.93.32,2.45.36,5.16.77,7.58.98,5.73,4.24,11.42,8.48,15.3.37-5.21-1.3-10.69-3.27-15.48-.78-1.91-2.07-3.57-2.75-5.51,4.16,4.63,6.82,15.25,6.27,20.64,0,0,.25-.59.31-.69,1.52-2.39,3.01-10.08,1.6-15-.43-1.52-1.79-5.28-4.95-8.82-2.98-3.34-6.06-4.66-6-4.95ZM687.21,25.95c-2.67-2.87-9.31-6.37-7.53-10.99-6.01,2.61-5.17,13.39,2.51,11-.15,1.77-2.2,1.65-2.78,3.47-1.52,4.8,2.28,7.41,5.55,10.02.43-1.65.08-3.16.64-4.86.67-2.03,2-2.16,3.05-3.46.26-.31,2.26-3.5,2.08-3.67-1.32.48-1.43-1.01-2.24-1.06-1.53-.09-3.52,1.27-4.47,1.02-1.62-.43-.77-3.09,1.19-2.46v1.5s2.01-.51,2.01-.51ZM709.8,15.96l-5.16,1.14s1.47,1.47,1.47,1.48c0,0,.68,1.37.68,1.37.47-.27,3.01-1.26,3.01-3.99ZM705.56,18.8c-2.55-3.1-7.51.23-11.05.17-1.68-.03-3.63-1.26-5.3-.76.83,1.87,3.32,6.67,5.27,6.78,2.42.14,8.85-2.99,10.69-4.6.57-.5,1-.85.39-1.59ZM706.28,20.46l-9.2,5.08c-4.06,3.08-3.64,4.9-1.84,9.4,0,0,2.05-4.44,3-5.75,2.3-3.18,8.23-4.19,8.04-8.73ZM699.26,36.45c-4.19,2.22-5.96-2.97-6.04-6.28-.04-1.7,2.04-2.9,1.75-4.27-3.92,2.08-4.22,8.03-2.88,11.39.29.74,2.7,3.22,3.48,3.38,1.89.37,2.76-2.42,3.69-4.22ZM732.39,58.44c-4.8-1.57-8.89-5.04-14.05-5.5l4.02,2.74,5.84,6.2c.84-.33,4.84-2.56,4.19-3.44ZM736.27,54.08c-.12-.14-1.65-1.66-1.7-1.6,1.36,6.57-2.34,7.86-5.69,10.45,4.59,1.25,8.73.97,8.57-4.74-.03-1.01-.56-3.4-1.18-4.11Z"/>
        <g>
          <path class="cls-3" d="M110.05,39.2c-3.46.59-5.45-2.44-7.86-3.91-2.4-1.47-9.58-3.05-12.47-3.12-.89-.02-1.68,0-2.25.8l5.21.3c2.13.77,4.88.9,6.94,1.59,3.87,1.28,7.02,6.8,11.94,4.85-2.9-3.03-1.41-6.83-2.52-10.48-.94-.1-.41,1.05-.35,1.6.28,2.88,0,5.98,1.36,8.39Z"/>
          <path class="cls-3" d="M105.69,56.6c-8.26,2.85-8.76,4.18-13.09,10.94-.32.5-.49.85-1.19,1.29-1.04-5.45.27-11.18.06-16.64-2.85,2.27,1.87,9.52-4.18,8.06l-2.84-6.05c1.71,0,4.06.37,5.02-1.5-8.67,4.31-7.97-6.78-14.05-9.75,3.76-1.44,7.3-3.91,11.54-3.25.09-.71-1.94-.95-2.31-.94-2.31.04-10.33,3.41-11.77,5.18-2.13,2.63-1.61,3.83-.67,6.71.18.56.74,1.26-.32.82-1.61-3.05-6.02-5.03-6.43-8.63-.25-2.23,1.22-6.79,2.95-8.33.82-.73,4.26-2.69,5.27-2.76,1.27-.09,2.73.83,4.04.93,6.45.48,8.59-1.39,10.81,6.23,1.51,5.18.17,7.6.41,12.06.04.76-.35,1.45.77,1.26,2.67-.46,1.57-6.58,1.82-8.69.37-3.22,1.3-6.3,2.44-9.31,0,0-1.86,2.64-2.08,3.67-.67,3.17-1.45,13.3-1.93,13.32v-9.75c0-.36-.89-3.26-1.11-3.89-1.11-3.04-4.24-4.94-.37-7.59,1.22-.84,3.02-.97,4.18-1.84.88-.65,1.2-1.73,2.07-2.44,3.93-3.22,8.29-1.91,11.84,1.23.71.63.68,1.69,1.47,1.77.41-2.09-1.82-2.45-2.71-3.54-4.29-5.32-5.55-10.85-14.49-9.33-1.61.27-4.31,2.2-5.14,2.2-1.23,0-3.13-1.98-5.95-1.78-.83.06-9.36,2.47-10.23,2.85-3.06,1.33-1.89,4.35-2.75,5.51-.25.33-2.33.67-3.09,1.18-4.8,3.18-6.03,10.89-4.33,16.42.31,1.02.9-.07.99-.75.62-4.59,1.81-8.91,7.54-7.74-2.07,2.52-3.4,6.35-2.9,9.62.59,3.78,4.22,4.95,6.41,8.62.32.54,2.87.76,2.51.25-1.75-2.49-2.61-5.8,0-8.27.36-.25.72-.22,1.13-.16,3.1.46,9.13,13.54,11.4,16.55.64.85,1.75.84,2.39,2.26.7,1.57.85,4.35,1.13,6.12-5.46-8.99-14.57,2.08-14.05,8.74.12,1.51.96,2.91.88,4.38-.1,1.8-1.5,4.49-1.89,6.37,1.06.8,4.21-2.91,5.45-4.41.06-.07-.03-.17-.11-.12l-3.34,2.28c1.27-4.12,2.2-9.4,4.02-13.24-2.27,2.28-1.95,4.52-3.02,7.5-4.71-4.74,5.08-19.36,10.54-12.24l-5.68,2.33c-1.31.57-1.37,1.42-1.84,2.41,3-3.02,7.7-5.56,10.04-.51-7.84.04-7.44,5.35-10.04,11,.13.14.8-.62,1.35-1.69,1.45-2.8,1.46-7.36,5.54-8.18,4.49-.91,3.73.95,5.95,3.83,2.03,2.63,11.33,14.25,13.63,14.91.86.25,1.76.13,2.64.12l-9.02-9.26c-.89-2-7.88-9.34-7.5-10.88.63-2.55,9.24-1.88,11.5-3.59,2.43-1.84,2.15-8.98,7-10.04,1.72-.38,3.34.88,4.04-.69-4.15-1.94-5.82-2.67-10.38-1.1ZM62.14,34.24l-2.79,4.96c-.55-6.53,1.24-12.24,8.04-14.23,2.97-.87,4.85-1.13,7.51.74.22-1.04-.5-1.16-1.15-1.6-1.5-1-3.81-.54-5.46-1.38-.26-.37.12-1.95,1.81-3.05,2.32-1.52,9.95-2.93,12.48-2.35.72.16,1.43.56,1.86,1.17.15.69-2.65,2.98-1,3.71.64-3.86,7.33-6.25,10.79-6.01,2.53.18,7.27,2.71,7.29,5.51-2.9-.33-5.23,1.75-7.31,3.48-.83.69-1.17,1.8-2.05,2.45-.31.23-5.15,2.52-5.45,2.58-1.43.28-.54-2.18-.75-3.01,4.05,1.88,2.67-1.89.24-2.99-1.31.06-.56,6.88-.75,8.1l-1.47-.39c-.04-1.28-.39-3.05-.64-4.31s.46-1.45-.06-2.08-1.25-1.35-1.83-.83c-1.01.89.86,2.41,1.07,3.17.56,2.01,1.08,3.66.69,4.03-.05.05-.83,0-1.13.06-1.43.29-2.39-3.67-2.68-4.47-.31-.82-.6-1.14-.86-1.13-.51.03-.9,1.67-.84,3.01.04.9,1.34.29,1.44.77.02.09,1.44,1.81,1.26,1.98-.1.1-1.45-.21-1.81-.24-.59-.11-1.46-1.9-1.57-2.1-.53-.97-1.27-1.56-1.24-1.37.01.07,1.15,2.11,1.65,3.28-1.61-.15-3.12-.74-4.79-.53-1.74.22-2.48,1.83-4.56,2.01-2.69.23-3.74-1.76-5.93,1.05ZM95.79,77.66c.96,1.31,4.86,5.44,5.41,6.94-3.27-2.74-7.27-7.77-9.22-12.42,1.73,2.14,2.18,3.26,3.81,5.48ZM92.49,71.18c-.12-.74-.54-1.14-.26-1.96.27-.8,2.93-5.2,3.55-6,2.63-3.36,8.73-5.37,12.76-6.53-.47.95-2.03,1.08-2.98,1.78-3.69,2.72-7.95,5.18-10.78,8.76-.71.9-2.3,3.95-2.3,3.95ZM104.23,68.14l-10.24,2.04c1.54-4.34,6.19-6.49,9.77-9.01.84-.59,1.43-1.6,2.3-2.2,1.38-.94,5.84-3.25,7-1.29-5.87-.07-5.81,7.02-8.83,10.45Z"/>
        </g>
      </g>
      <g>
        <path class="cls-2" d="M283.02,36.32v-6.12l5.94.6c-.12.84-.66,1.38-2.16,1.62v3.9h12.96v-6.12l6.06.6c-.12.84-.66,1.38-2.16,1.62v3.9h9.3l2.82-3.48s3.18,2.46,5.1,4.26c-.12.66-.72.96-1.62.96h-15.6v3.66c0,.3-1.38,1.02-3.24,1.02h-.66v-4.68h-12.96v3.9c0,.42-1.56.96-3.18.96h-.6v-4.86h-16.62l-.36-1.74h16.98ZM289.98,65.6c-.12.72-.54,1.2-1.98,1.44v4.02h12.84v-6.12l5.58.6c-.12.66-.54,1.08-1.68,1.32v4.2h8.22l2.76-3.24s3.12,2.34,5.1,4.08c-.12.66-.72.96-1.56.96h-14.52v11.22c0,.42-1.68,1.32-3.18,1.32h-.72v-12.54h-12.96c-.54,5.16-4.2,10.02-18.3,12.54l-.42-.96c11.04-2.64,14.4-6.96,14.88-11.58h-17.22l-.54-1.8h17.88v-6.12l5.82.66ZM311.58,44.42l2.7-3s3,2.1,4.98,3.84c-.18.66-.78.96-1.62.96h-32.04c-1.02,1.32-2.22,2.58-3.54,3.78h7.02l2.1-2.04,4.08,3.48c-.42.48-1.2.66-2.46.72-5.1,8.04-12.06,12.36-24.42,14.76l-.54-1.02c5.64-1.68,10.2-3.66,13.92-6.48-.48.3-1.14.36-1.86-.06-.66-1.56-2.52-3.48-4.26-4.68-2.4,1.38-4.92,2.64-7.38,3.6l-.54-.9c4.92-2.7,10.08-6.96,13.02-11.16h-12l-.54-1.8h43.38ZM276.9,53.9c5.64,1.14,6.36,4.14,5.16,5.28,2.58-1.98,4.68-4.44,6.42-7.44h-8.52c-1.02.78-2.04,1.5-3.06,2.16ZM301.68,47.3c-.12.78-.66,1.32-1.74,1.5v5.28c4.26-1.62,8.7-4.08,11.04-5.94l4.44,3.3c-.48.54-1.44.6-2.7.18-3.06,1.38-8.04,3-12.78,3.84v3.78c0,.84.24,1.02,2.28,1.02h5.88c2.52,0,4.68,0,5.34-.06.66-.06.96-.18,1.2-.6.42-.66,1.02-2.7,1.56-4.92h.78l.18,5.04c1.2.36,1.62.78,1.62,1.5,0,1.68-1.8,2.22-10.86,2.22h-6.3c-4.56,0-5.34-.84-5.34-3.6v-13.14l5.4.6Z"/>
        <path class="cls-2" d="M346.83,41.96v-11.52l6.12.6c-.12.84-.72,1.44-2.22,1.68v9.24h4.26l2.64-2.52,4.32,4.26c-.54.48-1.32.6-2.7.66-1.92,3.48-4.74,7.02-8.04,10.44,13.68,4.38,11.28,12.54,7.14,10.02-1.26-2.82-4.56-6.42-7.44-8.88v27.78c0,.36-1.38,1.56-3.36,1.56h-.6v-26.46c-3.54,3.06-7.38,5.76-11.22,7.86l-.66-.72c7.8-5.4,15.9-14.52,19.74-22.26h-17.82l-.54-1.74h10.38ZM372.21,31.82c-.12.78-.66,1.44-2.16,1.68v44.46c0,1.62.48,2.22,3.24,2.22h6.12c2.94,0,5.04-.06,6-.12.66-.06,1.02-.3,1.32-.9.42-1.08,1.26-5.28,2.04-9.54h.78l.18,9.96c1.5.48,1.86.96,1.86,1.8,0,1.98-2.34,2.58-12.3,2.58h-6.6c-5.1,0-6.66-1.26-6.66-4.98V31.1l6.18.72Z"/>
        <path class="cls-2" d="M412.94,51.86c-.96-2.58-4.02-5.52-6.6-7.14l.54-.6c12.72,1.62,10.38,10.2,6.06,7.74ZM411.8,67.22q1.08-2.04,11.1-24.42l1.08.18c-2.4,7.02-7.2,20.1-7.98,22.86-.54,1.74-.9,3.6-.84,4.98,0,2.7,1.62,5.52,1.44,10.32-.12,2.58-1.32,4.14-3.3,4.14-1.08,0-1.8-1.08-1.92-3,.84-6.12.48-10.8-.84-11.64-.72-.6-1.62-.72-2.88-.84v-1.32h2.64c.72,0,.9,0,1.5-1.26ZM417.92,39.5c-.9-2.76-4.14-6.06-6.84-7.86l.6-.54c13.08,1.92,10.74,10.86,6.24,8.4ZM433.7,57.5c-.18.78-.6,1.26-2.04,1.44v5.88c-.12,7.14-1.92,15.78-13.02,20.7l-.72-.78c8.52-5.28,10.08-13.2,10.08-20.04v-7.8l5.7.6ZM432.08,50.06c1.38-3.12,3-7.26,4.08-10.32h-13.5l-.48-1.74h15.9v-7.32l6.06.54c-.12.84-.72,1.44-2.16,1.68v5.1h11.94l2.88-3.6s3.12,2.52,5.16,4.44c-.18.6-.84.9-1.68.9h-18.66c-2.1,3.3-4.86,7.2-7.08,10.26l16.56-.78c-1.98-2.16-4.14-4.26-6-5.76l.66-.6c16.62,6.18,14.52,15.78,9.9,13.02-.66-1.62-1.92-3.48-3.48-5.34-6.3,1.08-14.64,2.34-25.62,3.84-.36.72-1.02,1.08-1.62,1.2l-2.1-5.28c2.16,0,5.34-.06,9.24-.24ZM444.02,57.5c-.06.84-.66,1.32-2.04,1.5v22.38c0,.42-1.62,1.26-3,1.26h-.72v-25.8l5.76.66ZM454.82,57.2c-.06.72-.6,1.26-1.74,1.44v21c0,.78.18,1.02,1.14,1.02h1.98c.96,0,1.68,0,1.92-.06.42-.06.6-.18.78-.72.36-1.02,1.08-5.28,1.68-8.82h.78l.18,9.12c1.08.48,1.32.96,1.32,1.62,0,1.62-1.5,2.4-6.72,2.4h-2.94c-3.36,0-3.9-1.02-3.9-3.54v-24.12l5.52.66Z"/>
        <path class="cls-2" d="M501.5,34.46c-.54.54-1.56.6-3,.18-1.62.6-3.6,1.26-5.82,1.86v11.4h2.22l2.58-3.3s2.88,2.34,4.62,4.08c-.12.66-.72.96-1.56.96h-7.86v3.54c11.4,4.62,8.34,12.06,4.68,9.3-.6-2.52-2.7-5.58-4.68-7.8v29.28c0,.3-1.38,1.32-3.24,1.32h-.6v-25.56c-2.46,5.04-5.7,9.54-9.78,13.44l-.78-.84c4.74-6.24,7.98-14.52,9.84-22.68h-8.76l-.48-1.74h9.96v-10.44c-3.12.72-6.48,1.38-9.66,1.8l-.3-1.02c6.3-1.8,13.86-5.28,17.58-7.8l5.04,4.02ZM514.22,81.38v-10.44h-12.42l-.48-1.74h12.9v-9.3h-12.9l-.48-1.74h24.72l2.76-3.48s3.06,2.46,4.98,4.26c-.18.66-.72.96-1.56.96h-13.56v9.3h6.6l2.7-3.36s3,2.4,4.92,4.2c-.18.6-.78.9-1.62.9h-12.6v10.44h9l2.76-3.54s3.24,2.52,5.1,4.38c-.18.6-.72.9-1.5.9h-35.7l-.48-1.74h16.86ZM503.6,32.6l4.08,1.86h17.28l2.04-2.28,4.68,3.48c-.36.48-1.26.96-2.34,1.14v14.94c-.06.36-1.98,1.32-3.3,1.32h-.6v-2.52h-18.06v1.98c0,.36-1.62,1.26-3.24,1.26h-.54v-21.18ZM525.44,48.74v-12.54h-18.06v12.54h18.06Z"/>
      </g>
    </g>
  </g>
</svg>