<?xml version="1.0" encoding="UTF-8"?>
<svg id="_レイヤー_2" data-name="レイヤー 2" xmlns="http://www.w3.org/2000/svg" xmlns:xlink="http://www.w3.org/1999/xlink" viewBox="0 0 600 80">
  <defs>
    <style>
      .cls-1 {
        fill: url(#_名称未設定グラデーション_18_コピー);
      }

      .cls-2 {
        fill: #fff;
      }

      .cls-3 {
        fill: #603;
      }
    </style>
    <linearGradient id="_名称未設定グラデーション_18_コピー" data-name="名称未設定グラデーション 18 コピー" x1="300" y1="2" x2="300" y2="78" gradientTransform="translate(260 340) rotate(-90)" gradientUnits="userSpaceOnUse">
      <stop offset="0" stop-color="#c36"/>
      <stop offset="1" stop-color="#f69"/>
    </linearGradient>
  </defs>
  <g id="en1">
    <g id="UI_inquiry_zh">
      <rect class="cls-3" width="600" height="80" rx="25" ry="25"/>
      <rect class="cls-1" x="262" y="-258" width="76" height="596" rx="23" ry="23" transform="translate(340 -260) rotate(90)"/>
      <g>
        <path class="cls-2" d="M205.76,29.35l2.59,1.22h9.03v-6.01l3.71.36c-.11.5-.4.9-1.33,1.04v4.61h9.11l1.33-1.51,2.95,2.3c-.25.29-.83.58-1.55.72v16.05c-.04.25-1.22.79-2.02.79h-.36v-2.63h-9.47v10.26c0,.36-1.01.97-1.91.97h-.47v-11.23h-9.29v2.27c0,.25-.97.83-1.94.83h-.4v-20.05ZM208.1,31.62v6.26h9.29v-6.26h-9.29ZM217.39,38.92h-9.29v6.37h9.29v-6.37ZM219.77,37.88h9.47v-6.26h-9.47v6.26ZM229.23,45.29v-6.37h-9.47v6.37h9.47Z"/>
        <path class="cls-2" d="M251.05,50.77l4.5-3.02.32.43c-1.15,1.19-3.38,3.6-5.83,6.05-.22.65-.65,1.08-.97,1.26l-1.58-2.92c1.12-.58,1.3-.83,1.3-1.48v-15.8h-4.75l-.32-1.08h5.11l1.19-1.26,2.34,1.98c-.14.25-.61.5-1.3.65v15.19ZM250.22,30.86c-.5-1.91-2.23-4.43-3.64-5.94l.43-.29c7.42,3.02,5.58,7.92,3.2,6.23ZM276.14,29.28c-.11.4-.43.58-.9.58h-9.32v3.06h4.5l1.58-1.87s1.76,1.33,2.88,2.38c-.07.4-.4.58-.9.58h-8.06v3.31h6.16l1.73-2.09s1.91,1.48,3.13,2.59c-.11.4-.47.58-.97.58h-21.67l-.29-1.08h9.57v-3.31h-6.88l-.29-1.08h7.16v-3.06h-8.46l-.29-1.08h8.75v-4.28l3.53.36c-.07.5-.4.79-1.19.94v2.99h5.47l1.66-2.09s1.94,1.48,3.1,2.59ZM257.5,57.42h-.4v-17.82l2.52,1.15h10.94l1.22-1.44,3.02,2.23c-.25.29-.83.58-1.55.72v11.84c0,1.87-.4,3.02-3.53,3.35-.11-.76-.25-1.37-.72-1.76-.47-.36-1.26-.68-2.66-.86v-.58s3.17.25,3.82.25c.61,0,.76-.22.76-.72v-3.53h-11.52v6.37c0,.22-.94.79-1.91.79ZM259.4,41.84v3.17h11.52v-3.17h-11.52ZM270.92,49.22v-3.13h-11.52v3.13h11.52Z"/>
        <path class="cls-2" d="M303.55,26.9h1.58l-10.44,34.05h-1.66l10.51-34.05Z"/>
        <path class="cls-2" d="M335.8,35.07l.22.5c-2.41,1.33-5.8,3.24-10.29,5.51-.11.47-.36.76-.68.9l-1.73-2.77c2.16-.54,7.31-2.3,12.49-4.14ZM330.72,28.81l1.69-2.16s1.87,1.51,3.02,2.63c-.11.4-.43.58-.94.58h-10.11l-.29-1.04h6.62ZM328.99,43.31l2.56,1.15h16.27l1.26-1.37,2.81,2.16c-.18.25-.72.54-1.37.65v10.4c-.04.25-1.22.83-2.02.83h-.36v-2.38h-16.77v1.87c0,.22-1.01.79-1.98.79h-.4v-14.11ZM331.37,45.55v8.14h16.77v-8.14h-16.77ZM343.14,25.75c-.14.4-.58.72-1.33.65-.47.94-1.01,1.84-1.66,2.74h11.7l1.48-1.51,2.63,2.59c-.25.25-.65.29-1.4.36-1.01,1.48-3.02,3.64-4.54,4.86l-.47-.25c.68-1.26,1.66-3.42,2.3-5h-6.55c1.04,4.82,3.71,9.11,11.01,11.81l-.04.4c-1.19.18-1.91.61-2.12,1.87-6.05-2.81-8.31-7.56-9.25-12.45-.72,4.72-2.88,8.82-12.2,11.77l-.4-.61c8.82-3.53,9.97-7.92,10.22-12.78h-3.17c-1.48,1.87-3.28,3.49-5.26,4.64l-.47-.4c2.41-2.27,4.64-6.16,5.87-9.9l3.64,1.22Z"/>
        <path class="cls-2" d="M372.6,51.09c1.37-.97,3.02-2.16,4.61-3.38l.32.43c-1.15,1.37-3.42,3.96-5.94,6.62-.22.65-.65,1.04-.97,1.22l-1.58-2.92c1.12-.58,1.3-.83,1.3-1.48v-16.31h-4.97l-.32-1.04h5.33l1.19-1.26,2.34,1.98c-.14.25-.61.5-1.3.65v15.48ZM372.13,31.62c-.5-2.12-2.41-5-3.92-6.73l.43-.25c7.74,3.53,5.9,8.78,3.49,6.98ZM383.07,26.61c-.54,1.44-1.19,2.88-1.87,4.21h12.42l1.44-1.58,2.77,2.38c-.25.29-.72.5-1.51.58-.22,12.78-.76,21.35-2.45,23.43-1.01,1.19-2.45,1.76-4.25,1.76,0-.76-.14-1.44-.68-1.8-.65-.43-2.34-.86-3.89-1.12l.04-.65c1.76.18,4.61.43,5.47.43.76,0,1.01-.07,1.44-.47,1.3-1.37,1.8-10.08,2.02-21.92h-13.35c-1.66,3.02-3.64,5.69-5.76,7.67l-.5-.4c2.45-3.42,4.9-8.93,6.3-14.43l3.74,1.22c-.14.4-.58.72-1.37.68ZM378.93,51.16h-.36v-15.91l2.38,1.08h6.3l1.3-1.4,2.81,2.2c-.25.29-.83.58-1.55.72v11.59c-.04.18-1.15.76-1.87.76h-.32v-1.73h-6.84v1.94c0,.22-.9.76-1.84.76ZM387.61,37.41h-6.84v4.32h6.84v-4.32ZM380.77,42.77v4.61h6.84v-4.61h-6.84Z"/>
      </g>
    </g>
  </g>
</svg>