<?xml version="1.0" encoding="UTF-8"?>
<svg id="_レイヤー_2" data-name=" レイヤー 2" xmlns="http://www.w3.org/2000/svg" xmlns:xlink="http://www.w3.org/1999/xlink" viewBox="0 0 404.5 24.66">
  <defs>
    <style>
      .cls-1 {
        fill: url(#_名称未設定グラデーション-17);
      }

      .cls-1, .cls-2, .cls-3, .cls-4, .cls-5, .cls-6, .cls-7, .cls-8, .cls-9, .cls-10, .cls-11, .cls-12, .cls-13, .cls-14, .cls-15, .cls-16, .cls-17, .cls-18, .cls-19 {
        stroke-width: 0px;
      }

      .cls-2 {
        fill: url(#_名称未設定グラデーション-9);
      }

      .cls-3 {
        fill: url(#_名称未設定グラデーション-13);
      }

      .cls-4 {
        fill: url(#_名称未設定グラデーション-6);
      }

      .cls-5 {
        fill: url(#_名称未設定グラデーション-10);
      }

      .cls-6 {
        fill: url(#_名称未設定グラデーション-16);
      }

      .cls-7 {
        fill: url(#_名称未設定グラデーション);
      }

      .cls-8 {
        fill: url(#_名称未設定グラデーション-3);
      }

      .cls-9 {
        fill: url(#_名称未設定グラデーション-8);
      }

      .cls-10 {
        fill: url(#_名称未設定グラデーション-7);
      }

      .cls-11 {
        fill: url(#_名称未設定グラデーション-15);
      }

      .cls-12 {
        fill: url(#_名称未設定グラデーション-18);
      }

      .cls-13 {
        fill: url(#_名称未設定グラデーション-11);
      }

      .cls-14 {
        fill: url(#_名称未設定グラデーション-14);
      }

      .cls-15 {
        fill: url(#_名称未設定グラデーション-2);
      }

      .cls-16 {
        fill: url(#_名称未設定グラデーション-4);
      }

      .cls-17 {
        fill: url(#_名称未設定グラデーション-5);
      }

      .cls-18 {
        fill: url(#_名称未設定グラデーション-19);
      }

      .cls-19 {
        fill: url(#_名称未設定グラデーション-12);
      }
    </style>
    <linearGradient id="_名称未設定グラデーション" data-name="名称未設定グラデーション" x1="54.59" y1="24.51" x2="54.59" y2="6.08" gradientTransform="translate(0 25.91) scale(1 -1)" gradientUnits="userSpaceOnUse">
      <stop offset="0" stop-color="#fff"/>
      <stop offset="1" stop-color="#ccc"/>
    </linearGradient>
    <linearGradient id="_名称未設定グラデーション-2" data-name="名称未設定グラデーション" x1="71.75" y1="20.19" x2="71.75" xlink:href="#_名称未設定グラデーション"/>
    <linearGradient id="_名称未設定グラデーション-3" data-name="名称未設定グラデーション" x1="89.25" y1="20.19" x2="89.25" y2="6.4" xlink:href="#_名称未設定グラデーション"/>
    <linearGradient id="_名称未設定グラデーション-4" data-name="名称未設定グラデーション" x1="104.1" y1="23.5" x2="104.1" y2="6.09" xlink:href="#_名称未設定グラデーション"/>
    <linearGradient id="_名称未設定グラデーション-5" data-name="名称未設定グラデーション" x1="118.23" y1="20.2" x2="118.23" y2="6.09" xlink:href="#_名称未設定グラデーション"/>
    <linearGradient id="_名称未設定グラデーション-6" data-name="名称未設定グラデーション" x1="134.38" y1="20.19" x2="134.38" y2="6.07" xlink:href="#_名称未設定グラデーション"/>
    <linearGradient id="_名称未設定グラデーション-7" data-name="名称未設定グラデーション" x1="148.3" y1="23.5" x2="148.3" y2="6.09" xlink:href="#_名称未設定グラデーション"/>
    <linearGradient id="_名称未設定グラデーション-8" data-name="名称未設定グラデーション" x1="168.06" y1="25.77" x2="168.06" y2="2.08" xlink:href="#_名称未設定グラデーション"/>
    <linearGradient id="_名称未設定グラデーション-9" data-name="名称未設定グラデーション" x1="192.11" y1="24.21" x2="192.11" y2="6.42" xlink:href="#_名称未設定グラデーション"/>
    <linearGradient id="_名称未設定グラデーション-10" data-name="名称未設定グラデーション" x1="208.55" y1="20.2" x2="208.55" y2="6.09" xlink:href="#_名称未設定グラデーション"/>
    <linearGradient id="_名称未設定グラデーション-11" data-name="名称未設定グラデーション" x1="225.19" y1="20.19" x2="225.19" y2="1.25" xlink:href="#_名称未設定グラデーション"/>
    <linearGradient id="_名称未設定グラデーション-12" data-name="名称未設定グラデーション" x1="243.11" y1="19.86" x2="243.11" y2="6.08" xlink:href="#_名称未設定グラデーション"/>
    <linearGradient id="_名称未設定グラデーション-13" data-name="名称未設定グラデーション" x1="260.05" y1="20.2" x2="260.05" y2="6.09" xlink:href="#_名称未設定グラデーション"/>
    <linearGradient id="_名称未設定グラデーション-14" data-name="名称未設定グラデーション" x1="275.12" y1="20.19" x2="275.12" y2="6.08" xlink:href="#_名称未設定グラデーション"/>
    <linearGradient id="_名称未設定グラデーション-15" data-name="名称未設定グラデーション" x1="288.88" y1="23.5" x2="288.88" y2="6.09" xlink:href="#_名称未設定グラデーション"/>
    <linearGradient id="_名称未設定グラデーション-16" data-name="名称未設定グラデーション" x1="308.1" y1="24.21" x2="308.1" y2="6.42" xlink:href="#_名称未設定グラデーション"/>
    <linearGradient id="_名称未設定グラデーション-17" data-name="名称未設定グラデーション" x1="321.94" y1="20.19" x2="321.94" y2="6.4" xlink:href="#_名称未設定グラデーション"/>
    <linearGradient id="_名称未設定グラデーション-18" data-name="名称未設定グラデーション" x1="336.85" y1="25.91" x2="336.85" y2="6.42" xlink:href="#_名称未設定グラデーション"/>
    <linearGradient id="_名称未設定グラデーション-19" data-name="名称未設定グラデーション" x1="350.35" y1="20.19" x2="350.35" xlink:href="#_名称未設定グラデーション"/>
  </defs>
  <g id="en1">
    <g id="image_TEL_en" data-name="image TEL en">
      <g>
        <path class="cls-7" d="M55.8,19.82c-1.12,0-2.17-.2-3.14-.59-.98-.39-1.84-.98-2.58-1.76-.74-.78-1.33-1.74-1.75-2.88-.42-1.14-.64-2.44-.64-3.91s.22-2.78.65-3.92c.43-1.14,1.03-2.12,1.79-2.92.76-.8,1.64-1.41,2.64-1.82,1-.42,2.06-.62,3.18-.62s2.15.23,3.04.68c.89.45,1.61.99,2.17,1.6l-1.85,2.26c-.45-.45-.94-.81-1.48-1.08s-1.14-.41-1.81-.41c-.9,0-1.7.24-2.41.73s-1.27,1.19-1.67,2.1-.6,2.01-.6,3.29.19,2.4.56,3.32c.38.92.91,1.63,1.61,2.12.7.5,1.51.74,2.44.74.77,0,1.45-.16,2.05-.49s1.13-.75,1.6-1.26l1.9,2.21c-.74.86-1.58,1.52-2.52,1.96-.94.44-2,.66-3.17.66h-.01Z"/>
        <path class="cls-15" d="M71.76,19.82c-1.12,0-2.17-.28-3.16-.84-.98-.56-1.78-1.36-2.39-2.41-.61-1.05-.91-2.32-.91-3.8s.3-2.76.91-3.8,1.4-1.85,2.39-2.41c.98-.56,2.04-.84,3.16-.84.85,0,1.66.16,2.42.48.77.32,1.46.78,2.06,1.38.61.6,1.09,1.34,1.44,2.21s.53,1.87.53,2.99c0,1.49-.3,2.76-.91,3.8-.61,1.05-1.4,1.85-2.39,2.41-.98.56-2.04.84-3.16.84h0ZM71.76,16.94c.61,0,1.12-.17,1.55-.52.42-.34.74-.83.96-1.45s.32-1.36.32-2.21-.11-1.58-.32-2.21c-.22-.62-.54-1.11-.96-1.45-.42-.34-.94-.52-1.55-.52s-1.12.17-1.55.52c-.42.34-.74.83-.96,1.45s-.32,1.36-.32,2.21.11,1.58.32,2.21.54,1.11.96,1.45c.42.34.94.52,1.55.52Z"/>
        <path class="cls-8" d="M83.4,19.49V6.05h2.88l.26,1.78h.07c.59-.58,1.24-1.07,1.94-1.49s1.51-.62,2.42-.62c1.46,0,2.51.48,3.17,1.43.66.95.98,2.28.98,3.97v8.38h-3.53v-7.94c0-1.04-.15-1.77-.44-2.18-.3-.42-.78-.62-1.45-.62-.54,0-1.02.13-1.43.38-.41.26-.86.63-1.36,1.13v9.24h-3.53l.02-.02Z"/>
        <path class="cls-16" d="M105.84,19.82c-1.06,0-1.91-.21-2.57-.64-.66-.42-1.13-1.01-1.42-1.76-.29-.75-.43-1.62-.43-2.62v-5.98h-1.9v-2.62l2.09-.17.41-3.62h2.9v3.62h3.34v2.78h-3.34v5.95c0,.77.16,1.34.48,1.7.32.37.78.55,1.37.55.22,0,.46-.03.7-.1s.45-.13.62-.19l.6,2.57c-.37.11-.79.22-1.26.34-.47.11-1,.17-1.6.17v.02Z"/>
        <path class="cls-17" d="M116.56,19.82c-.78,0-1.48-.17-2.08-.52-.6-.34-1.06-.82-1.39-1.43s-.49-1.3-.49-2.06c0-1.42.62-2.53,1.85-3.32,1.23-.79,3.19-1.33,5.88-1.62-.02-.45-.1-.84-.24-1.19-.14-.34-.38-.62-.71-.83s-.77-.31-1.33-.31c-.62,0-1.24.12-1.85.36s-1.22.55-1.85.94l-1.25-2.35c.53-.34,1.09-.63,1.68-.89.59-.26,1.22-.47,1.87-.64.66-.17,1.34-.25,2.04-.25,1.14,0,2.09.22,2.86.67.77.45,1.34,1.11,1.73,1.99.38.88.58,1.97.58,3.26v7.85h-2.88l-.24-1.44h-.12c-.58.51-1.2.94-1.87,1.27s-1.4.5-2.18.5h-.01ZM117.74,17.06c.5,0,.95-.12,1.36-.35s.82-.56,1.24-.97v-2.69c-1.09.13-1.95.31-2.59.55s-1.1.52-1.37.85c-.27.33-.41.69-.41,1.09,0,.53.16.91.49,1.15.33.24.76.36,1.28.36h0Z"/>
        <path class="cls-4" d="M135.46,19.82c-1.23,0-2.34-.28-3.34-.84-.99-.56-1.78-1.36-2.35-2.41-.58-1.05-.86-2.32-.86-3.8s.32-2.76.95-3.8,1.47-1.85,2.52-2.41c1.05-.56,2.18-.84,3.4-.84.83,0,1.57.14,2.21.42s1.21.64,1.7,1.09l-1.68,2.23c-.32-.29-.65-.5-.98-.65s-.69-.22-1.06-.22c-.69,0-1.29.17-1.81.52-.52.34-.92.83-1.2,1.45s-.42,1.36-.42,2.21.14,1.58.42,2.21c.28.62.67,1.11,1.18,1.45.5.34,1.08.52,1.72.52.48,0,.94-.1,1.39-.31s.86-.46,1.22-.77l1.39,2.33c-.64.56-1.35.97-2.12,1.24s-1.53.4-2.27.4v-.02Z"/>
        <path class="cls-10" d="M150.04,19.82c-1.06,0-1.91-.21-2.57-.64-.66-.42-1.13-1.01-1.42-1.76s-.43-1.62-.43-2.62v-5.98h-1.9v-2.62l2.09-.17.41-3.62h2.9v3.62h3.34v2.78h-3.34v5.95c0,.77.16,1.34.48,1.7.32.37.78.55,1.37.55.22,0,.46-.03.7-.1s.45-.13.62-.19l.6,2.57c-.37.11-.79.22-1.26.34-.47.11-1,.17-1.6.17v.02Z"/>
        <path class="cls-9" d="M163.91,23.83L169.88.14h2.33l-5.95,23.69h-2.35Z"/>
        <path class="cls-2" d="M185.29,19.49V1.7h6.17c1.26,0,2.4.16,3.41.49,1.01.33,1.81.89,2.4,1.68s.89,1.87.89,3.23-.3,2.39-.89,3.23-1.39,1.46-2.4,1.85-2.14.59-3.41.59h-2.62v6.72h-3.55ZM188.84,9.96h2.3c1.15,0,2.03-.24,2.63-.72s.9-1.19.9-2.14-.3-1.63-.9-2c-.6-.38-1.48-.56-2.63-.56h-2.3v5.42ZM194.94,19.49l-4.13-7.63,2.5-2.21,5.62,9.84h-3.99Z"/>
        <path class="cls-5" d="M209.29,19.82c-1.25,0-2.38-.28-3.38-.84-1.01-.56-1.81-1.37-2.41-2.42-.6-1.06-.9-2.32-.9-3.79,0-1.09.17-2.06.52-2.93.34-.86.82-1.6,1.42-2.22.6-.62,1.27-1.09,2.02-1.42.74-.33,1.52-.49,2.32-.49,1.23,0,2.26.28,3.1.83.83.55,1.46,1.31,1.88,2.28.42.97.64,2.08.64,3.32,0,.32-.02.63-.05.92-.03.3-.07.53-.12.71h-8.28c.1.72.31,1.33.65,1.82.34.5.77.87,1.3,1.12s1.13.37,1.8.37c.54,0,1.06-.08,1.54-.23s.97-.38,1.46-.68l1.2,2.16c-.66.45-1.39.81-2.21,1.08s-1.64.41-2.47.41h-.03ZM205.95,11.4h5.5c0-.9-.2-1.61-.61-2.15s-1.05-.8-1.93-.8c-.46,0-.9.11-1.32.32-.42.22-.77.54-1.06.98s-.48.99-.58,1.64h0Z"/>
        <path class="cls-13" d="M227.89,24.65v-4.27l.12-2.16c-.46.46-1.01.85-1.63,1.15s-1.26.46-1.92.46c-1.12,0-2.09-.28-2.92-.84-.82-.56-1.46-1.37-1.91-2.42-.45-1.06-.67-2.32-.67-3.79s.27-2.71.8-3.76c.54-1.05,1.24-1.86,2.1-2.44s1.78-.86,2.74-.86c.75,0,1.41.13,1.98.4.57.26,1.12.68,1.67,1.26h.1l.31-1.32h2.76v18.6h-3.53ZM225.37,16.92c.48,0,.92-.11,1.33-.32.41-.22.8-.57,1.19-1.07v-5.9c-.4-.37-.81-.63-1.24-.78-.42-.15-.85-.23-1.28-.23-.5,0-.96.16-1.38.47s-.76.77-1.02,1.38c-.26.61-.38,1.36-.38,2.26s.11,1.7.32,2.33.53,1.09.95,1.4c.42.31.92.47,1.51.47h0Z"/>
        <path class="cls-19" d="M241.43,19.82c-1.46,0-2.51-.48-3.17-1.43s-.98-2.28-.98-3.97V6.05h3.5v7.94c0,1.04.15,1.77.46,2.18.3.42.79.62,1.46.62.54,0,1.02-.13,1.43-.4.41-.26.84-.69,1.28-1.28V6.05h3.53v13.44h-2.88l-.26-1.94h-.1c-.58.69-1.2,1.24-1.87,1.66s-1.47.62-2.4.62h0Z"/>
        <path class="cls-3" d="M260.79,19.82c-1.25,0-2.38-.28-3.38-.84-1.01-.56-1.81-1.37-2.41-2.42-.6-1.06-.9-2.32-.9-3.79,0-1.09.17-2.06.52-2.93.34-.86.82-1.6,1.42-2.22.6-.62,1.27-1.09,2.02-1.42.74-.33,1.52-.49,2.32-.49,1.23,0,2.26.28,3.1.83.83.55,1.46,1.31,1.88,2.28.42.97.64,2.08.64,3.32,0,.32-.02.63-.05.92-.03.3-.07.53-.12.71h-8.28c.1.72.31,1.33.65,1.82.34.5.77.87,1.3,1.12s1.13.37,1.8.37c.54,0,1.06-.08,1.54-.23s.97-.38,1.46-.68l1.2,2.16c-.66.45-1.39.81-2.21,1.08s-1.64.41-2.47.41h-.03ZM257.46,11.4h5.5c0-.9-.2-1.61-.61-2.15s-1.05-.8-1.93-.8c-.46,0-.9.11-1.32.32-.42.22-.77.54-1.06.98s-.48.99-.58,1.64h0Z"/>
        <path class="cls-14" d="M275,19.82c-.9,0-1.8-.18-2.72-.53s-1.72-.8-2.39-1.34l1.61-2.23c.59.45,1.18.8,1.76,1.07.58.26,1.2.4,1.84.4s1.16-.13,1.48-.4c.31-.26.47-.6.47-1.02,0-.34-.14-.62-.41-.85-.27-.23-.62-.44-1.06-.62-.43-.18-.88-.36-1.34-.54-.56-.22-1.12-.5-1.67-.82s-1.01-.73-1.38-1.24-.55-1.13-.55-1.88c0-.8.21-1.51.62-2.12.42-.62,1-1.1,1.74-1.45s1.63-.53,2.65-.53,1.84.17,2.6.5c.76.34,1.41.72,1.96,1.15l-1.58,2.14c-.48-.35-.96-.63-1.43-.84-.47-.21-.96-.31-1.45-.31-.62,0-1.08.12-1.37.36s-.43.55-.43.94c0,.32.12.59.36.8.24.22.57.4.98.56.42.16.86.33,1.32.5.45.16.89.35,1.33.56.44.22.84.48,1.21.78.37.3.66.68.88,1.12s.32.97.32,1.6c0,.78-.2,1.5-.61,2.15-.41.65-1.01,1.16-1.8,1.54-.79.38-1.77.56-2.94.56h0Z"/>
        <path class="cls-11" d="M290.62,19.82c-1.06,0-1.91-.21-2.57-.64-.66-.42-1.13-1.01-1.42-1.76s-.43-1.62-.43-2.62v-5.98h-1.9v-2.62l2.09-.17.41-3.62h2.9v3.62h3.34v2.78h-3.34v5.95c0,.77.16,1.34.48,1.7.32.37.78.55,1.37.55.22,0,.46-.03.7-.1s.45-.13.62-.19l.6,2.57c-.37.11-.79.22-1.26.34-.47.11-1,.17-1.6.17v.02Z"/>
        <path class="cls-6" d="M306.33,19.49V1.7h3.55v17.78h-3.55Z"/>
        <path class="cls-1" d="M316.09,19.49V6.05h2.88l.26,1.78h.07c.59-.58,1.24-1.07,1.94-1.49s1.51-.62,2.42-.62c1.46,0,2.51.48,3.17,1.43.66.95.98,2.28.98,3.97v8.38h-3.53v-7.94c0-1.04-.15-1.77-.44-2.18-.3-.42-.78-.62-1.45-.62-.54,0-1.02.13-1.43.38-.41.26-.86.63-1.36,1.13v9.24h-3.53l.02-.02Z"/>
        <path class="cls-12" d="M332.33,8.83v-2.62l2.02-.17h5.88v2.78h-7.9ZM334.15,19.49V4.97c0-.93.16-1.77.47-2.52s.81-1.35,1.49-1.79c.68-.44,1.58-.66,2.7-.66.54,0,1.03.05,1.46.14.43.1.8.2,1.1.31l-.65,2.64c-.45-.21-.93-.31-1.44-.31s-.91.17-1.2.5c-.29.34-.43.87-.43,1.61v14.59h-3.5Z"/>
        <path class="cls-18" d="M350.36,19.82c-1.12,0-2.17-.28-3.16-.84-.98-.56-1.78-1.36-2.39-2.41-.61-1.05-.91-2.32-.91-3.8s.3-2.76.91-3.8,1.4-1.85,2.39-2.41c.98-.56,2.04-.84,3.16-.84.85,0,1.66.16,2.42.48.77.32,1.46.78,2.06,1.38.61.6,1.09,1.34,1.44,2.21s.53,1.87.53,2.99c0,1.49-.3,2.76-.91,3.8-.61,1.05-1.4,1.85-2.39,2.41-.98.56-2.04.84-3.16.84h.01ZM350.36,16.94c.61,0,1.12-.17,1.55-.52.42-.34.74-.83.96-1.45s.32-1.36.32-2.21-.11-1.58-.32-2.21c-.22-.62-.54-1.11-.96-1.45-.42-.34-.94-.52-1.55-.52s-1.12.17-1.55.52c-.42.34-.74.83-.96,1.45s-.32,1.36-.32,2.21.11,1.58.32,2.21.54,1.11.96,1.45c.42.34.94.52,1.55.52Z"/>
      </g>
    </g>
  </g>
</svg>