<?xml version="1.0" encoding="UTF-8"?>
<svg id="_レイヤー_2" data-name=" レイヤー 2" xmlns="http://www.w3.org/2000/svg" xmlns:xlink="http://www.w3.org/1999/xlink" viewBox="0 0 306.68 20.82">
  <defs>
    <style>
      .cls-1 {
        fill: url(#_名称未設定グラデーション_19-6);
      }

      .cls-1, .cls-2, .cls-3, .cls-4, .cls-5, .cls-6, .cls-7, .cls-8, .cls-9, .cls-10, .cls-11, .cls-12, .cls-13, .cls-14, .cls-15, .cls-16, .cls-17, .cls-18, .cls-19 {
        stroke-width: 0px;
      }

      .cls-2 {
        fill: url(#_名称未設定グラデーション_19-11);
      }

      .cls-3 {
        fill: url(#_名称未設定グラデーション_19-12);
      }

      .cls-4 {
        fill: url(#_名称未設定グラデーション_19-15);
      }

      .cls-5 {
        fill: url(#_名称未設定グラデーション_19-16);
      }

      .cls-6 {
        fill: url(#_名称未設定グラデーション_19);
      }

      .cls-7 {
        fill: url(#_名称未設定グラデーション_19-18);
      }

      .cls-8 {
        fill: url(#_名称未設定グラデーション_19-9);
      }

      .cls-9 {
        fill: url(#_名称未設定グラデーション_19-5);
      }

      .cls-10 {
        fill: url(#_名称未設定グラデーション_19-17);
      }

      .cls-11 {
        fill: url(#_名称未設定グラデーション_19-3);
      }

      .cls-12 {
        fill: url(#_名称未設定グラデーション_19-2);
      }

      .cls-13 {
        fill: url(#_名称未設定グラデーション_19-7);
      }

      .cls-14 {
        fill: url(#_名称未設定グラデーション_19-10);
      }

      .cls-15 {
        fill: url(#_名称未設定グラデーション_19-19);
      }

      .cls-16 {
        fill: url(#_名称未設定グラデーション_19-4);
      }

      .cls-17 {
        fill: url(#_名称未設定グラデーション_19-14);
      }

      .cls-18 {
        fill: url(#_名称未設定グラデーション_19-13);
      }

      .cls-19 {
        fill: url(#_名称未設定グラデーション_19-8);
      }
    </style>
    <linearGradient id="_名称未設定グラデーション_19" data-name="名称未設定グラデーション 19" x1="6.85" y1="2411.27" x2="6.85" y2="2426.83" gradientTransform="translate(0 -2410.09)" gradientUnits="userSpaceOnUse">
      <stop offset="0" stop-color="#fff"/>
      <stop offset="1" stop-color="#ccc"/>
    </linearGradient>
    <linearGradient id="_名称未設定グラデーション_19-2" data-name="名称未設定グラデーション 19" x1="23.88" y1="2414.92" x2="23.88" xlink:href="#_名称未設定グラデーション_19"/>
    <linearGradient id="_名称未設定グラデーション_19-3" data-name="名称未設定グラデーション 19" x1="41.23" y1="2414.92" x2="41.23" y2="2426.56" xlink:href="#_名称未設定グラデーション_19"/>
    <linearGradient id="_名称未設定グラデーション_19-4" data-name="名称未設定グラデーション 19" x1="55.97" y1="2412.12" x2="55.97" y2="2426.82" xlink:href="#_名称未設定グラデーション_19"/>
    <linearGradient id="_名称未設定グラデーション_19-5" data-name="名称未設定グラデーション 19" x1="69.98" y1="2414.91" x2="69.98" y2="2426.82" xlink:href="#_名称未設定グラデーション_19"/>
    <linearGradient id="_名称未設定グラデーション_19-6" data-name="名称未設定グラデーション 19" x1="86.01" y1="2414.92" x2="86.01" y2="2426.84" xlink:href="#_名称未設定グラデーション_19"/>
    <linearGradient id="_名称未設定グラデーション_19-7" data-name="名称未設定グラデーション 19" x1="99.82" y1="2412.12" x2="99.82" y2="2426.82" xlink:href="#_名称未設定グラデーション_19"/>
    <linearGradient id="_名称未設定グラデーション_19-8" data-name="名称未設定グラデーション 19" x1="119.42" y1="2410.21" x2="119.42" y2="2430.21" xlink:href="#_名称未設定グラデーション_19"/>
    <linearGradient id="_名称未設定グラデーション_19-9" data-name="名称未設定グラデーション 19" x1="143.28" y1="2411.53" x2="143.28" y2="2426.55" xlink:href="#_名称未設定グラデーション_19"/>
    <linearGradient id="_名称未設定グラデーション_19-10" data-name="名称未設定グラデーション 19" x1="159.59" y1="2414.91" x2="159.59" y2="2426.82" xlink:href="#_名称未設定グラデーション_19"/>
    <linearGradient id="_名称未設定グラデーション_19-11" data-name="名称未設定グラデーション 19" x1="176.1" y1="2414.92" x2="176.1" y2="2430.91" xlink:href="#_名称未設定グラデーション_19"/>
    <linearGradient id="_名称未設定グラデーション_19-12" data-name="名称未設定グラデーション 19" x1="193.88" y1="2415.2" x2="193.88" y2="2426.83" xlink:href="#_名称未設定グラデーション_19"/>
    <linearGradient id="_名称未設定グラデーション_19-13" data-name="名称未設定グラデーション 19" x1="210.68" y1="2414.91" x2="210.68" y2="2426.82" xlink:href="#_名称未設定グラデーション_19"/>
    <linearGradient id="_名称未設定グラデーション_19-14" data-name="名称未設定グラデーション 19" x1="225.63" y1="2414.92" x2="225.63" y2="2426.83" xlink:href="#_名称未設定グラデーション_19"/>
    <linearGradient id="_名称未設定グラデーション_19-15" data-name="名称未設定グラデーション 19" x1="239.29" y1="2412.12" x2="239.29" y2="2426.82" xlink:href="#_名称未設定グラデーション_19"/>
    <linearGradient id="_名称未設定グラデーション_19-16" data-name="名称未設定グラデーション 19" x1="258.36" y1="2411.53" x2="258.36" y2="2426.55" xlink:href="#_名称未設定グラデーション_19"/>
    <linearGradient id="_名称未設定グラデーション_19-17" data-name="名称未設定グラデーション 19" x1="272.09" y1="2414.92" x2="272.09" y2="2426.56" xlink:href="#_名称未設定グラデーション_19"/>
    <linearGradient id="_名称未設定グラデーション_19-18" data-name="名称未設定グラデーション 19" x1="286.88" y1="2410.09" x2="286.88" y2="2426.55" xlink:href="#_名称未設定グラデーション_19"/>
    <linearGradient id="_名称未設定グラデーション_19-19" data-name="名称未設定グラデーション 19" x1="300.28" y1="2414.92" x2="300.28" xlink:href="#_名称未設定グラデーション_19"/>
  </defs>
  <g id="en1">
    <g id="image_TEL_en" data-name="image TEL en">
      <g>
        <path class="cls-6" d="M8.05,16.73c-1.11,0-2.15-.17-3.12-.5-.97-.33-1.83-.83-2.56-1.49-.73-.66-1.32-1.47-1.74-2.43s-.63-2.06-.63-3.3.22-2.35.64-3.31c.43-.96,1.02-1.79,1.78-2.47.75-.68,1.63-1.19,2.62-1.54.99-.35,2.04-.52,3.15-.52s2.13.19,3.02.57c.88.38,1.6.84,2.15,1.35l-1.84,1.91c-.45-.38-.93-.68-1.47-.91s-1.13-.35-1.8-.35c-.89,0-1.69.2-2.39.62s-1.26,1-1.66,1.77-.6,1.7-.6,2.78.19,2.03.56,2.8c.38.78.9,1.38,1.6,1.79.69.42,1.5.62,2.42.62.76,0,1.44-.14,2.03-.41s1.12-.63,1.59-1.06l1.89,1.87c-.73.73-1.57,1.28-2.5,1.65-.93.37-1.98.56-3.14.56h0Z"/>
        <path class="cls-12" d="M23.88,16.73c-1.11,0-2.15-.24-3.14-.71-.97-.47-1.77-1.15-2.37-2.03-.61-.89-.9-1.96-.9-3.21s.3-2.33.9-3.21,1.39-1.56,2.37-2.03c.97-.47,2.02-.71,3.14-.71.84,0,1.65.14,2.4.41.76.27,1.45.66,2.04,1.17.61.51,1.08,1.13,1.43,1.87s.53,1.58.53,2.52c0,1.26-.3,2.33-.9,3.21-.61.89-1.39,1.56-2.37,2.03-.97.47-2.02.71-3.14.71h0ZM23.88,14.3c.61,0,1.11-.14,1.54-.44.42-.29.73-.7.95-1.22s.32-1.15.32-1.87-.11-1.33-.32-1.87c-.22-.52-.54-.94-.95-1.22s-.93-.44-1.54-.44-1.11.14-1.54.44c-.42.29-.73.7-.95,1.22s-.32,1.15-.32,1.87.11,1.33.32,1.87.54.94.95,1.22.93.44,1.54.44Z"/>
        <path class="cls-11" d="M35.43,16.46V5.11h2.86l.26,1.5h.07c.59-.49,1.23-.9,1.92-1.26s1.5-.52,2.4-.52c1.45,0,2.49.41,3.14,1.21.65.8.97,1.92.97,3.35v7.08h-3.5v-6.7c0-.88-.15-1.49-.44-1.84-.3-.35-.77-.52-1.44-.52-.54,0-1.01.11-1.42.32-.41.22-.85.53-1.35.95v7.8h-3.5s.02-.02.02-.02Z"/>
        <path class="cls-16" d="M57.69,16.73c-1.05,0-1.89-.18-2.55-.54-.65-.35-1.12-.85-1.41-1.49s-.43-1.37-.43-2.21v-5.05h-1.89v-2.21l2.07-.14.41-3.06h2.88v3.06h3.31v2.35h-3.31v5.02c0,.65.16,1.13.48,1.44.32.31.77.46,1.36.46.22,0,.46-.03.69-.08s.45-.11.62-.16l.6,2.17c-.37.09-.78.19-1.25.29-.47.09-.99.14-1.59.14v.02h0Z"/>
        <path class="cls-9" d="M68.33,16.73c-.77,0-1.47-.14-2.06-.44-.6-.29-1.05-.69-1.38-1.21s-.49-1.1-.49-1.74c0-1.2.62-2.14,1.84-2.8,1.22-.67,3.16-1.12,5.83-1.37-.02-.38-.1-.71-.24-1-.14-.29-.38-.52-.7-.7s-.76-.26-1.32-.26c-.62,0-1.23.1-1.84.3s-1.21.46-1.84.79l-1.24-1.98c.53-.29,1.08-.53,1.67-.75.59-.22,1.21-.4,1.86-.54.65-.14,1.33-.21,2.02-.21,1.13,0,2.07.19,2.84.57.76.38,1.33.94,1.72,1.68.38.74.58,1.66.58,2.75v6.63h-2.86l-.24-1.22h-.12c-.58.43-1.19.79-1.86,1.07s-1.39.42-2.16.42h0ZM69.5,14.4c.5,0,.94-.1,1.35-.3s.81-.47,1.23-.82v-2.27c-1.08.11-1.93.26-2.57.46s-1.09.44-1.36.72c-.27.28-.41.58-.41.92,0,.45.16.77.49.97.33.2.75.3,1.27.3h0Z"/>
        <path class="cls-1" d="M87.08,16.73c-1.22,0-2.32-.24-3.31-.71-.98-.47-1.77-1.15-2.33-2.03-.58-.89-.85-1.96-.85-3.21s.32-2.33.94-3.21,1.46-1.56,2.5-2.03,2.16-.71,3.37-.71c.82,0,1.56.12,2.19.35s1.2.54,1.69.92l-1.67,1.88c-.32-.24-.64-.42-.97-.55s-.68-.19-1.05-.19c-.68,0-1.28.14-1.8.44-.52.29-.91.7-1.19,1.22s-.42,1.15-.42,1.87.14,1.33.42,1.87c.28.52.66.94,1.17,1.22.5.29,1.07.44,1.71.44.48,0,.93-.08,1.38-.26s.85-.39,1.21-.65l1.38,1.97c-.63.47-1.34.82-2.1,1.05s-1.52.34-2.25.34v-.02h0Z"/>
        <path class="cls-13" d="M101.54,16.73c-1.05,0-1.89-.18-2.55-.54-.65-.35-1.12-.85-1.41-1.49s-.43-1.37-.43-2.21v-5.05h-1.88v-2.21l2.07-.14.41-3.06h2.88v3.06h3.31v2.35h-3.31v5.02c0,.65.16,1.13.48,1.44.32.31.77.46,1.36.46.22,0,.46-.03.69-.08s.45-.11.62-.16l.6,2.17c-.37.09-.78.19-1.25.29-.47.09-.99.14-1.59.14v.02h0Z"/>
        <path class="cls-19" d="M115.3,20.12L121.23.12h2.31l-5.9,20h-2.33Z"/>
        <path class="cls-8" d="M136.51,16.46V1.44h6.12c1.25,0,2.38.14,3.38.41,1,.28,1.8.75,2.38,1.42s.88,1.58.88,2.73-.3,2.02-.88,2.73-1.38,1.23-2.38,1.56-2.12.5-3.38.5h-2.6v5.67h-3.52ZM140.04,8.41h2.28c1.14,0,2.01-.2,2.61-.61s.89-1,.89-1.81-.3-1.38-.89-1.69c-.6-.32-1.47-.47-2.61-.47h-2.28v4.58ZM146.09,16.46l-4.1-6.44,2.48-1.87,5.58,8.31h-3.96,0Z"/>
        <path class="cls-14" d="M160.32,16.73c-1.24,0-2.36-.24-3.35-.71-1-.47-1.8-1.16-2.39-2.04-.6-.89-.89-1.96-.89-3.2,0-.92.17-1.74.52-2.47.34-.73.81-1.35,1.41-1.87.6-.52,1.26-.92,2-1.2.73-.28,1.51-.41,2.3-.41,1.22,0,2.24.24,3.08.7.82.46,1.45,1.11,1.87,1.92.42.82.63,1.76.63,2.8,0,.27-.02.53-.05.78-.03.25-.07.45-.12.6h-8.21c.1.61.31,1.12.64,1.54.34.42.76.73,1.29.95s1.12.31,1.79.31c.54,0,1.05-.07,1.53-.19s.96-.32,1.45-.57l1.19,1.82c-.65.38-1.38.68-2.19.91s-1.63.35-2.45.35h-.03ZM157.01,9.62h5.46c0-.76-.2-1.36-.61-1.82s-1.04-.68-1.91-.68c-.46,0-.89.09-1.31.27-.42.19-.76.46-1.05.83s-.48.84-.58,1.38h0Z"/>
        <path class="cls-2" d="M178.78,20.81v-3.61l.12-1.82c-.46.39-1,.72-1.62.97s-1.25.39-1.9.39c-1.11,0-2.07-.24-2.9-.71-.81-.47-1.45-1.16-1.89-2.04-.45-.89-.66-1.96-.66-3.2s.27-2.29.79-3.17c.54-.89,1.23-1.57,2.08-2.06s1.77-.73,2.72-.73c.74,0,1.4.11,1.96.34.57.22,1.11.57,1.66,1.06h.1l.31-1.11h2.74v15.7h-3.5ZM176.28,14.29c.48,0,.91-.09,1.32-.27.41-.19.79-.48,1.18-.9v-4.98c-.4-.31-.8-.53-1.23-.66-.42-.13-.84-.19-1.27-.19-.5,0-.95.14-1.37.4s-.75.65-1.01,1.17c-.26.52-.38,1.15-.38,1.91s.11,1.44.32,1.97.53.92.94,1.18c.42.26.91.4,1.5.4h0Z"/>
        <path class="cls-3" d="M192.21,16.73c-1.45,0-2.49-.41-3.14-1.21s-.97-1.92-.97-3.35v-7.07h3.47v6.7c0,.88.15,1.49.46,1.84.3.35.78.52,1.45.52.54,0,1.01-.11,1.42-.34.41-.22.83-.58,1.27-1.08v-7.65h3.5v11.35h-2.86l-.26-1.64h-.1c-.58.58-1.19,1.05-1.86,1.4s-1.46.52-2.38.52h0Z"/>
        <path class="cls-18" d="M211.42,16.73c-1.24,0-2.36-.24-3.35-.71-1-.47-1.8-1.16-2.39-2.04-.6-.89-.89-1.96-.89-3.2,0-.92.17-1.74.52-2.47.34-.73.81-1.35,1.41-1.87.6-.52,1.26-.92,2-1.2.73-.28,1.51-.41,2.3-.41,1.22,0,2.24.24,3.08.7.82.46,1.45,1.11,1.87,1.92.42.82.63,1.76.63,2.8,0,.27-.02.53-.05.78-.03.25-.07.45-.12.6h-8.21c.1.61.31,1.12.64,1.54.34.42.76.73,1.29.95s1.12.31,1.79.31c.54,0,1.05-.07,1.53-.19s.96-.32,1.45-.57l1.19,1.82c-.65.38-1.38.68-2.19.91s-1.63.35-2.45.35h-.03ZM208.11,9.62h5.46c0-.76-.2-1.36-.61-1.82s-1.04-.68-1.91-.68c-.46,0-.89.09-1.31.27-.42.19-.76.46-1.05.83s-.48.84-.58,1.38h0Z"/>
        <path class="cls-17" d="M225.52,16.73c-.89,0-1.79-.15-2.7-.45s-1.71-.68-2.37-1.13l1.6-1.88c.59.38,1.17.68,1.75.9.58.22,1.19.34,1.83.34s1.15-.11,1.47-.34c.31-.22.47-.51.47-.86,0-.29-.14-.52-.41-.72-.27-.19-.62-.37-1.05-.52-.43-.15-.87-.3-1.33-.46-.56-.19-1.11-.42-1.66-.69s-1-.62-1.37-1.05-.55-.95-.55-1.59c0-.68.21-1.27.62-1.79.42-.52.99-.93,1.73-1.22s1.62-.45,2.63-.45,1.83.14,2.58.42c.75.29,1.4.61,1.94.97l-1.57,1.81c-.48-.3-.95-.53-1.42-.71s-.95-.26-1.44-.26c-.62,0-1.07.1-1.36.3s-.43.46-.43.79c0,.27.12.5.36.68.24.19.57.34.97.47.42.14.85.28,1.31.42.45.14.88.3,1.32.47.44.19.83.41,1.2.66s.65.57.87.95.32.82.32,1.35c0,.66-.2,1.27-.61,1.82-.41.55-1,.98-1.79,1.3-.78.32-1.76.47-2.92.47h0Z"/>
        <path class="cls-4" d="M241.01,16.73c-1.05,0-1.89-.18-2.55-.54-.65-.35-1.12-.85-1.41-1.49s-.43-1.37-.43-2.21v-5.05h-1.88v-2.21l2.07-.14.41-3.06h2.88v3.06h3.31v2.35h-3.31v5.02c0,.65.16,1.13.48,1.44.32.31.77.46,1.36.46.22,0,.46-.03.69-.08s.45-.11.62-.16l.6,2.17c-.37.09-.78.19-1.25.29-.47.09-.99.14-1.59.14v.02h0Z"/>
        <path class="cls-5" d="M256.6,16.46V1.44h3.52v15.01h-3.52Z"/>
        <path class="cls-10" d="M266.28,16.46V5.11h2.86l.26,1.5h.07c.59-.49,1.23-.9,1.92-1.26s1.5-.52,2.4-.52c1.45,0,2.49.41,3.14,1.21.65.8.97,1.92.97,3.35v7.08h-3.5v-6.7c0-.88-.15-1.49-.44-1.84-.3-.35-.77-.52-1.44-.52-.54,0-1.01.11-1.42.32-.41.22-.85.53-1.35.95v7.8h-3.5l.02-.02h0Z"/>
        <path class="cls-7" d="M282.39,7.46v-2.21l2-.14h5.83v2.35h-7.84ZM284.2,16.46V4.2c0-.79.16-1.49.47-2.13s.8-1.14,1.48-1.51c.67-.37,1.57-.56,2.68-.56.54,0,1.02.04,1.45.12.43.08.79.17,1.09.26l-.64,2.23c-.45-.18-.92-.26-1.43-.26s-.9.14-1.19.42c-.29.29-.43.73-.43,1.36v12.32h-3.47Z"/>
        <path class="cls-15" d="M300.28,16.73c-1.11,0-2.15-.24-3.14-.71-.97-.47-1.77-1.15-2.37-2.03-.61-.89-.9-1.96-.9-3.21s.3-2.33.9-3.21,1.39-1.56,2.37-2.03c.97-.47,2.02-.71,3.14-.71.84,0,1.65.14,2.4.41.76.27,1.45.66,2.04,1.17.61.51,1.08,1.13,1.43,1.87s.53,1.58.53,2.52c0,1.26-.3,2.33-.9,3.21-.61.89-1.39,1.56-2.37,2.03-.97.47-2.02.71-3.14.71h0ZM300.28,14.3c.61,0,1.11-.14,1.54-.44.42-.29.73-.7.95-1.22s.32-1.15.32-1.87-.11-1.33-.32-1.87c-.22-.52-.54-.94-.95-1.22-.42-.29-.93-.44-1.54-.44s-1.11.14-1.54.44c-.42.29-.73.7-.95,1.22s-.32,1.15-.32,1.87.11,1.33.32,1.87.54.94.95,1.22c.42.29.93.44,1.54.44Z"/>
      </g>
    </g>
  </g>
</svg>