<?xml version="1.0" encoding="UTF-8"?>
<svg id="_レイヤー_2" data-name=" レイヤー 2" xmlns="http://www.w3.org/2000/svg" viewBox="0 0 380.52 94.26">
  <defs>
    <style>
      .cls-1 {
        fill: #fc0;
      }

      .cls-1, .cls-2 {
        stroke-width: 0px;
      }

      .cls-2 {
        fill: #ff3;
      }
    </style>
  </defs>
  <g id="en1">
    <g id="_花_en" data-name=" 花 en">
      <g>
        <path class="cls-1" d="M40.17,73.23c-3.8.65-10.11,2.85-10.11,5.48,0,5.89,8.71,6.42,10.11,7.35,1.41-.93,10.11-1.45,10.11-7.35,0-2.63-6.33-4.83-10.11-5.48Z"/>
        <path class="cls-1" d="M59.73,74.83c-2.9-.09-9.45-1.23-13.27-1.23,1.69.72,3.55,1.71,6.01,3.96,2.82,2.58,2.85,4.39,4.98,5.32,2.78,1.22,8.69,1.25,12.28.14,3.24-1,5.22-3.23,6.83-4.31-3-1.34-3.56-2.81-5.54-3.59-3.96-1.57-7.02-.16-11.29-.28Z"/>
        <path class="cls-1" d="M51.18,66.2c-1.88,1.32-7.29,3.72-8.97,4.35,4.1.36,7.65.96,10.57,1.59,4.76,1.02,6.68,1.32,9.39,1.22,3.5-.13,6.91-.42,9.18-3.81,2.33-3.47,1.43-6.58,4.26-9.38.95-.94,2.43-2.38,3.76-3.04-4.86-3.86-8.81-3.64-10.11-3.49-3.78.45-5.3,2.48-9.25,6.18-2.46,2.3-7,5.08-8.84,6.38h0Z"/>
        <path class="cls-1" d="M56.29,59.29c4.13-3.12,5.31-4.44,5.71-6.31.39-1.83,0-4.26-.19-7.05-.15-2.13.28-3.78.34-4.89-5.81-.48-8.47.76-9.84,1.89-1.45,1.19-2.41,2.19-2.97,8.13-.36,3.89-.64,7.08-1.44,9.45-.9,2.69-1.56,3.73-2.69,6.19,4.68-2.78,8.39-5.39,11.07-7.42h0Z"/>
        <path class="cls-1" d="M40.17,69.91c2.11-2.72,4.19-5.03,5.96-10.15,1.37-3.92,2.14-9.91.34-14.84-1.52-4.12-4.01-5.03-6.31-7.56-2.3,2.53-4.79,3.43-6.31,7.56-1.81,4.93-1.02,10.92.34,14.84,1.78,5.12,3.85,7.42,5.96,10.15Z"/>
        <path class="cls-1" d="M20.59,74.83c-4.27.12-7.34-1.29-11.29.28-1.98.78-2.55,2.26-5.54,3.59,1.61,1.07,3.59,3.3,6.83,4.31,3.59,1.11,9.49,1.08,12.28-.14,2.13-.93,2.16-2.74,4.98-5.32,2.46-2.25,4.32-3.23,6.01-3.96-3.81,0-10.37,1.15-13.27,1.23Z"/>
        <path class="cls-1" d="M8.97,69.55c2.27,3.38,5.68,3.68,9.18,3.81,2.72.1,4.63-.19,9.39-1.22,2.93-.63,6.48-1.23,10.57-1.59-1.67-.63-7.08-3.03-8.97-4.35-1.84-1.3-6.39-4.08-8.84-6.38-3.94-3.7-5.47-5.72-9.25-6.18-1.31-.16-5.25-.37-10.11,3.49,1.33.66,2.81,2.11,3.76,3.04,2.84,2.8,1.93,5.9,4.26,9.38h0Z"/>
        <path class="cls-1" d="M18.32,52.98c.4,1.87,1.58,3.19,5.71,6.31,2.69,2.03,6.39,4.64,11.07,7.42-1.12-2.48-1.79-3.51-2.69-6.19-.79-2.37-1.07-5.56-1.44-9.45-.56-5.95-1.52-6.93-2.97-8.13-1.38-1.14-4.04-2.38-9.84-1.89.06,1.11.49,2.76.34,4.89-.2,2.78-.58,5.22-.19,7.05h0Z"/>
      </g>
      <g>
        <path class="cls-2" d="M94.28,60.5l-2.49.3-.93-1.65,3.64.33h14.08v-6.72h-9.82l-2.49.3c-.93-1.04-1.39-1.6-1.39-1.69l3.97.38h9.73v-4.56l-.21-2.07c0-.05.14-.09.42-.09,2.96,0,4.44.31,4.44.93,0,.14-.21.33-.63.57s-.63.5-.63.78v4.44h7.49l2.28-2.87c2.56,1.74,3.85,2.82,3.85,3.22,0,.45-.33.68-1.01.68h-12.6v6.72h11.42s.1-.03.21-.09l2.33-2.79c2.56,2.11,3.85,3.26,3.85,3.43,0,.31-.33.47-1.01.47h-34.47v-.02h0ZM96.05,67.65l-2.49.3c-1.36-.87-2.03-1.45-2.03-1.74.19,0,.7.05,1.5.17.8.11,2.27.19,4.42.21h17.3v-3.05l-.21-1.9c-.03-.19.11-.3.42-.3s1.14.11,2.48.32,2.01.43,2.01.65c0,.14-.22.33-.65.57-.44.24-.65.5-.65.78v2.92h5.37l1.99-2.63c2.45,1.81,3.68,2.8,3.68,3v.33c0,.23-.33.33-1.01.33h-10.03v12.52c.03,2.14-1.39,3.22-4.27,3.22l-1.65-1.31c-1.36-1.07-3.47-1.67-6.34-1.78-.4-.17-.59-.34-.59-.53s.17-.39.51-.62l7.02.68c1.3-.05,1.95-.37,1.95-.93v-11.25h-18.7l-.03.03h0ZM97.32,70.31c-.14-.05-.26-.23-.38-.51-.17-.42.1-.63.8-.63.26,0,.94.19,2.07.55,4.68,1.32,7.02,3.22,7.02,5.71,0,.54-.12,1.07-.36,1.63s-.56.83-.95.83c0,.68-.44.28-1.31-1.18-1.74-3.13-4.04-5.26-6.89-6.39Z"/>
        <path class="cls-2" d="M168.67,61.47c.17,2.26.26,3.48.26,3.68-.09.56-1.03.85-2.84.85-.56,0-.85-.3-.85-.89,0-.33.05-.78.17-1.31h-10.19c-.62,1.36-1.43,2.65-2.41,3.89h17.34l2.66-2.92c2.11,1.74,3.27,2.85,3.47,3.3,0,.45-.31.68-.93.68h-10.95c3.69,2.65,7.59,4.47,11.67,5.45-1.15,1.27-1.93,2.42-2.33,3.47-4.93-2.7-8.76-5.68-11.46-8.93h-10.41c-3.36,3.61-8.48,6.64-15.35,9.09-.42.17-.63-.07-.63-.72,0-.33.16-.56.47-.68,4.91-2.14,8.74-4.7,11.51-7.7h-6.72l-2.87.8-2.37-1.95v-.17c0-.05.05-.11.17-.17,1.6.26,3.55.4,5.83.42h6.89c.99-1.24,1.81-2.54,2.45-3.89h-4.74c.05.45.11.9.17,1.36-.09.56-1.03.85-2.84.85-.54,0-.8-.33-.8-1.01l.17-3.51v-7.28l-.21-1.86c-.03-.19,0-.3.09-.3h.17l4.02,1.74h16.96l2.45-1.86c.48,0,1.18.38,2.11,1.15.93.76,1.39,1.38,1.39,1.86l-1.52,1.9v4.65h.03ZM168.84,48.36l2.66-2.92c2.11,1.74,3.27,2.85,3.47,3.3,0,.45-.31.68-.93.68h-9.85v.63l.26,2.2c-.09.56-1.08.85-3,.85-.48,0-.76-.33-.85-.97l.21-2.07v-.63h-9.56v.63l.26,2.2c-.09.56-1.08.85-3,.85-.48,0-.76-.33-.85-.97l.21-2.07v-.63h-5.45l-2.87.8-2.37-1.95v-.17c0-.05.05-.11.17-.17,1.6.26,3.55.4,5.83.42h4.7v-1.78l-.21-1.86v-.04c0-.17.12-.26.36-.26s1.05.1,2.43.3c1.38.19,2.07.41,2.07.63l-1.27,1.36v1.65h9.56v-1.78l-.21-1.86v-.04c0-.17.12-.26.36-.26s1.05.1,2.43.3c1.38.19,2.07.41,2.07.63l-1.27,1.36v1.65h4.65v-.02h0ZM167.1,81.02l2.66-2.92c2.11,1.74,3.27,2.85,3.47,3.3,0,.45-.31.68-.93.68h-28.63l-2.87.8-2.37-1.95v-.17c0-.05.05-.11.17-.17,1.6.26,3.55.4,5.83.42h9.89v-4.91h-4.32l-2.87.8-2.37-1.95v-.17c0-.05.05-.11.17-.17,1.6.26,3.55.4,5.83.42h3.55v-3.3l-.21-1.86v-.04c0-.17.12-.26.36-.26s1.05.1,2.43.3c1.38.19,2.07.41,2.07.63l-1.27,1.36v3.17h3.05l2.66-2.92c2.11,1.74,3.27,2.85,3.47,3.3,0,.45-.31.68-.93.68h-8.25v4.91h9.41,0ZM146.47,58.43h18.99v-2.45c0-.4-.09-.7-.26-.93h-18.73v3.38h0ZM146.47,62.74h18.99v-3.3h-18.99v3.3Z"/>
        <path class="cls-2" d="M194.82,56.23c1.92,1.81,2.87,2.91,2.87,3.3,0,.23-.35.33-1.06.33h-5.29v11.96c1.5-.56,2.73-1.06,3.7-1.48s1.56-.63,1.75-.63l.04.04c.14.05.3.11.47.17.17.05.23.14.17.26-.7,1.1-4.44,3.61-11.21,7.52-.62,1.36-.97,2.03-1.04,2.03s-.12-.02-.15-.04c-.73-.31-1.74-1.89-3.05-4.74,1.04-.26,3.08-.9,6.13-1.95v-13.15h-1.99l-2.49.51-1.65-2.2c.48.05.85.15,1.1.27s1.45.2,3.59.23h1.44v-8.67l-.21-1.9c-.03-.19.11-.3.42-.3s1.1.11,2.37.32,1.9.43,1.9.65c0,.14-.22.33-.65.57-.44.24-.65.5-.65.78v8.55h1.15l2.33-2.45v.03h0ZM197.28,64.1l-2.28,1.39c-1.1-.87-1.78-1.44-2.03-1.69.03-.03.36-.08,1-.15s1.61-.36,2.94-.86l2.16-.93v-10.74l-.26-1.86c-.03-.19.11-.3.41-.3s1.08.1,2.37.3c1.29.19,1.92.41,1.92.63,0,.14-.21.33-.63.57s-.63.5-.63.78v9.3l5.24-2.24v-10.53l-.17-1.86c-.03-.19.07-.3.3-.3s1,.11,2.33.32,1.99.41,1.99.62l-1.31,1.36v9.09l5.45-2.33c.28-.26.66-.65,1.15-1.21.48-.55.8-.83.97-.83.48,0,1.2.38,2.16,1.15.96.76,1.44,1.31,1.44,1.65,0,.14-.29.41-.86.83-.58.41-.86.71-.86.91v.55c0,6.18-.11,9.96-.33,11.37-.76,2.11-2.09,3.19-3.97,3.22l-.89-1.31c-.73-1.07-1.71-1.62-2.92-1.65-.4-.17-.59-.35-.59-.55s.17-.41.51-.63l3.85.59c.48-.17.72-.48.72-.93.28-1.92.42-5.64.42-11.16-.05-.42-.21-.69-.47-.8l-5.75,2.49v11.37l.26,3.17c0,.05-.02.21-.04.47-.05.56-.96.85-2.7.85-.56,0-.85-.44-.85-1.33s.07-2.08.21-3.58v-9.6l-5.24,2.24v15.52c0,1.81.9,2.7,2.7,2.7h12.31c1.3,0,2.06-1.31,2.28-3.93l.26-2.96c.26-1.67.48-2.49.65-2.49s.33.82.44,2.45l.26,4.99.59,1.78c.33.31.51.61.51.89s-.03.52-.09.72c-.42,1.18-1.52,1.78-3.3,1.78h-15.86c-2.63,0-3.93-1.37-3.93-4.11v-15.95l-1.78.76h-.04,0Z"/>
        <path class="cls-1" d="M233.65,80.13c-.54-.54-.8-1.18-.8-1.95s.26-1.41.8-1.95c.54-.54,1.18-.8,1.95-.8s1.41.26,1.95.8.8,1.18.8,1.95-.26,1.41-.8,1.95c-.54.54-1.18.8-1.95.8s-1.41-.26-1.95-.8Z"/>
        <path class="cls-1" d="M262.68,77.76l1.36.85c-2,1.69-4,2.54-6.01,2.54h-.55c-3.55,0-6.23-.86-8.04-2.58-2.4-2.28-3.59-5.15-3.59-8.61s1.2-6.15,3.59-8.1c2.14-1.72,4.83-2.58,8.05-2.58s5.23.75,6.03,2.24l-1.1,3.05c-.51-1.72-2.16-2.58-4.95-2.58s-4.73.8-5.82,2.41-1.63,3.65-1.63,6.13.76,4.48,2.26,5.98c1.51,1.51,3.66,2.26,6.45,2.26,1.38,0,2.7-.33,3.93-1.01h0Z"/>
        <path class="cls-1" d="M278.95,81.47c-2.86,0-5.28-1.1-7.25-3.3-1.97-2.2-2.96-4.84-2.96-7.91s.99-5.74,2.96-7.99,4.39-3.38,7.25-3.38,5.33,1.13,7.4,3.38c2.07,2.26,3.11,4.92,3.11,7.99s-1.04,5.71-3.11,7.91-4.54,3.3-7.4,3.3ZM285.07,70.25c0-3.08-.58-5.42-1.74-7s-2.67-2.37-4.55-2.37-3.33.77-4.35,2.31c-1.03,1.53-1.54,3.89-1.54,7.04s.58,5.5,1.74,7.02,2.68,2.28,4.56,2.28,3.34-.78,4.35-2.33,1.52-3.87,1.52-6.96Z"/>
        <path class="cls-1" d="M313.05,64.13c.68-3.38,2.56-5.07,5.67-5.07,2.37,0,4.21.48,5.54,1.42,1.32.94,1.99,2.62,1.99,5.01v12.01c.19.85.7,1.27,1.52,1.27h1.6v1.9h-9.77v-1.9l1.82-.04h.04c.33,0,.76-.41,1.27-1.22v-11.21c0-1.64-.36-2.86-1.07-3.68-.72-.82-1.64-1.22-2.77-1.22-3.33,0-4.99,2.13-4.99,6.39v9.73c.19.85.7,1.27,1.52,1.27h1.6v1.9h-9.77v-1.9l1.82-.04h.04c.33,0,.76-.41,1.27-1.22v-10.95c0-1.64-.34-2.91-1.04-3.81-.69-.9-1.6-1.36-2.73-1.36-3.38,0-5.07,3.01-5.07,9.05v7.07c.19.85.7,1.27,1.52,1.27h1.6v1.9h-9.77v-1.9l1.82-.04c.56-.11,1-.52,1.31-1.22v-15.44h-3.17v-.85l5.03-2.54h1.65v5.5c.7-3.38,2.28-5.09,4.74-5.12h.12c4.23,0,6.44,1.69,6.64,5.07h0Z"/>
      </g>
      <g>
        <path class="cls-2" d="M20.7,22.11h1.16v.95h-6.41v-.95h1.27c.3,0,.5-.09.63-.26s.18-.32.18-.44v-.27l-1.42-3.53h-5.73l-1.44,3.53v.26c0,.14.08.3.25.47.16.17.35.26.56.26h1.27v.95h-5.52v-.95h1.06c.24,0,.48-.11.7-.33.23-.22.38-.43.47-.64l5.91-14.64,5.9,14.63c.23.56.62.89,1.16.97h0ZM10.79,16.61h4.93l-2.43-6.09-2.49,6.09Z"/>
        <path class="cls-2" d="M32.88,13.6c.78-.94,1.78-1.43,3.02-1.44h.06c1.46,0,2.65.53,3.56,1.58.91,1.05,1.37,2.42,1.37,4.12s-.46,3.04-1.38,4.03-2.11,1.48-3.54,1.48h-.06c-1.22-.02-2.24-.48-3.05-1.39v2.98c.1.42.35.63.76.63h1.01v.95h-5.3v-.95l1.12-.02c.28-.05.5-.26.65-.62v-11.37h-1.59v-.42l2.52-1.27h.85v1.71h0ZM37.87,14.71c-.51-.78-1.22-1.16-2.13-1.16-1.67,0-2.62,1.25-2.81,3.76v1.15c.12,2.34,1.07,3.52,2.81,3.53.85,0,1.53-.37,2.07-1.1.54-.73.82-1.76.85-3.08-.02-1.29-.27-2.31-.78-3.08h0Z"/>
        <path class="cls-2" d="M45.2,5.93v15.54c.1.42.28.63.55.63h1.12v.95h-5.14v-.95l1.22-.02c.04-.05.19-.26.44-.62V7.62h-1.59v-.42l2.52-1.27h.87Z"/>
        <path class="cls-2" d="M52.59,12.8h-.04c-1.17,0-2.46.61-3.87,1.82l.06-1.04c1.55-1.08,2.78-1.63,3.68-1.63h.47c.97,0,1.65.1,2.03.3,1,.48,1.5,1.21,1.5,2.18v7.23c.09.1.37.15.86.15.03,0,.29-.27.78-.83v.95c-.23.92-.9,1.37-2.03,1.37-.68,0-1.17-.58-1.48-1.75-.83,1.17-1.79,1.75-2.87,1.75s-1.88-.14-2.37-.42c-.92-.54-1.37-1.24-1.37-2.11,0-2.14,1.44-3.63,4.33-4.46.49-.14,1.25-.27,2.28-.41l.02-.51v-.11c0-1.01-.12-1.65-.38-1.9-.42-.4-.96-.59-1.6-.59h0ZM54.56,16.73c-3.03.48-4.55,1.67-4.55,3.55,0,1.18.59,1.78,1.78,1.78,1.53,0,2.46-.79,2.77-2.37v-2.96Z"/>
        <path class="cls-2" d="M67.24,21.6l.68.42c-1,.85-2,1.27-3,1.27h-.27c-1.78,0-3.12-.43-4.02-1.29-1.2-1.15-1.8-2.57-1.8-4.3s.6-3.07,1.8-4.05c1.07-.86,2.41-1.29,4.03-1.29s2.62.37,3.01,1.12l-.55,1.52c-.26-.86-1.07-1.29-2.48-1.29s-2.36.41-2.91,1.21-.81,1.82-.81,3.07.38,2.24,1.13,3c.76.76,1.83,1.13,3.22,1.13.69,0,1.35-.17,1.96-.51h0Z"/>
        <path class="cls-2" d="M77.95,22.34c-1.24.69-2.58,1.04-4.02,1.04h-.09c-1.71,0-3.05-.49-4.03-1.48s-1.47-2.35-1.47-4.11.48-3.08,1.44-4.02c1.06-1,2.4-1.5,4.01-1.5s2.8.51,3.55,1.52c.76,1.01,1.13,2.3,1.13,3.85v.51h-8.12c.09,1.1.46,2.05,1.12,2.85.7.82,1.69,1.22,2.96,1.22s2.47-.41,3.59-1.25l-.09,1.36h.02ZM76.75,17.05c-.04-2.31-.99-3.47-2.84-3.47h-.04c-2.02,0-3.19,1.15-3.51,3.47,0,0,6.39,0,6.39,0Z"/>
        <path class="cls-2" d="M90.91,23.25c-2.04,0-3.07-.9-3.07-2.69v-6.47h-1.92v-1.01h.8c1.04-.05,1.64-.93,1.78-2.63l1.15-1.31v3.93h2.49v1.01h-2.49v5.88c0,1.45.39,2.18,1.16,2.18.94,0,1.67-.25,2.18-.74v.74c-.55.73-1.24,1.1-2.07,1.1h0Z"/>
        <path class="cls-2" d="M98.62,23.46c-1.43,0-2.64-.55-3.63-1.65s-1.48-2.41-1.48-3.96.49-2.87,1.48-4,2.19-1.69,3.63-1.69,2.66.56,3.7,1.69c1.04,1.13,1.55,2.46,1.55,4s-.52,2.85-1.55,3.96c-1.04,1.1-2.27,1.65-3.7,1.65ZM101.68,17.84c0-1.54-.29-2.71-.86-3.5-.58-.79-1.34-1.18-2.27-1.18s-1.67.39-2.18,1.15c-.51.77-.78,1.94-.78,3.52s.29,2.75.86,3.51c.58.76,1.34,1.15,2.28,1.15s1.67-.39,2.18-1.16c.51-.78.76-1.94.76-3.48h0Z"/>
        <path class="cls-2" d="M117.92,11.94c1.3,0,1.96,1,2.01,3.02l-.47.27c-.24-1.1-.72-1.65-1.44-1.65-2.17,0-3.26,1.36-3.26,4.06v3.82c.1.42.35.63.76.63h1.01v.95h-5.3v-.95l1.12-.02c.28-.05.5-.26.65-.62v-7.74h-1.59v-.42l2.52-1.27h.83v3.43c.37-2.35,1.42-3.53,3.15-3.53h0Z"/>
        <path class="cls-2" d="M130.27,22.34c-1.24.69-2.58,1.04-4.02,1.04h-.09c-1.71,0-3.05-.49-4.03-1.48s-1.47-2.35-1.47-4.11.48-3.08,1.44-4.02c1.06-1,2.4-1.5,4.01-1.5s2.8.51,3.55,1.52c.76,1.01,1.13,2.3,1.13,3.85v.51h-8.12c.09,1.1.46,2.05,1.12,2.85.7.82,1.69,1.22,2.96,1.22s2.47-.41,3.59-1.25l-.09,1.36h.02ZM129.07,17.05c-.04-2.31-.99-3.47-2.84-3.47h-.04c-2.02,0-3.19,1.15-3.51,3.47,0,0,6.39,0,6.39,0Z"/>
        <path class="cls-2" d="M140.8,14.79c.33-1.69,1.29-2.54,2.84-2.54,1.18,0,2.11.24,2.77.7.66.48,1,1.3,1,2.5v6.01c.1.42.35.63.76.63h.8v.95h-4.88v-.95l.91-.02h.02c.17,0,.38-.2.63-.62v-5.6c0-.82-.18-1.43-.54-1.84-.36-.41-.82-.62-1.38-.62-1.67,0-2.49,1.07-2.49,3.19v4.86c.1.42.35.63.76.63h.8v.95h-4.88v-.95l.91-.02h.02c.17,0,.38-.2.63-.62v-5.48c0-.82-.18-1.45-.52-1.9s-.8-.68-1.37-.68c-1.69,0-2.54,1.51-2.54,4.53v3.53c.1.42.35.63.76.63h.8v.95h-4.88v-.95l.91-.02c.28-.05.5-.26.65-.62v-7.72h-1.59v-.42l2.52-1.27h.83v2.75c.35-1.69,1.15-2.55,2.37-2.56h.06c2.11,0,3.22.85,3.32,2.54h0Z"/>
        <path class="cls-2" d="M159.3,22.34c-1.24.69-2.58,1.04-4.02,1.04h-.09c-1.71,0-3.05-.49-4.03-1.48s-1.47-2.35-1.47-4.11.48-3.08,1.44-4.02c1.06-1,2.4-1.5,4.01-1.5s2.8.51,3.55,1.52c.76,1.01,1.13,2.3,1.13,3.85v.51h-8.12c.09,1.1.46,2.05,1.12,2.85.7.82,1.69,1.22,2.96,1.22s2.47-.41,3.59-1.25l-.09,1.36h.02ZM158.09,17.05c-.04-2.31-.99-3.47-2.84-3.47h-.04c-2.02,0-3.19,1.15-3.51,3.47,0,0,6.39,0,6.39,0Z"/>
        <path class="cls-2" d="M169.82,14.79c.33-1.69,1.29-2.54,2.84-2.54,1.18,0,2.11.24,2.77.7.66.48,1,1.3,1,2.5v6.01c.1.42.35.63.76.63h.8v.95h-4.88v-.95l.91-.02h.02c.17,0,.38-.2.63-.62v-5.6c0-.82-.18-1.43-.54-1.84-.36-.41-.82-.62-1.38-.62-1.67,0-2.49,1.07-2.49,3.19v4.86c.1.42.35.63.76.63h.8v.95h-4.88v-.95l.91-.02h.02c.17,0,.38-.2.63-.62v-5.48c0-.82-.18-1.45-.52-1.9s-.8-.68-1.37-.68c-1.69,0-2.54,1.51-2.54,4.53v3.53c.1.42.35.63.76.63h.8v.95h-4.88v-.95l.91-.02c.28-.05.5-.26.65-.62v-7.72h-1.59v-.42l2.52-1.27h.83v2.75c.35-1.69,1.15-2.55,2.37-2.56h.06c2.11,0,3.22.85,3.32,2.54h0Z"/>
        <path class="cls-2" d="M181.47,13.77c.83-1.04,1.94-1.57,3.32-1.57s2.53.48,3.44,1.46c.91.97,1.37,2.31,1.37,4.01s-.46,3.07-1.37,4.12-2.05,1.58-3.43,1.58-2.48-.55-3.33-1.65v1.39h-1.78V7.62h-1.59v-.42l2.52-1.27h.85v7.84ZM186.68,20.84c.54-.78.81-1.81.83-3.08-.03-1.32-.33-2.35-.89-3.08s-1.29-1.1-2.18-1.1c-1.85.02-2.84,1.19-2.96,3.53v1.15c.21,2.51,1.2,3.76,2.96,3.76.96,0,1.71-.39,2.24-1.16h0Z"/>
        <path class="cls-2" d="M200.62,22.34c-1.24.69-2.58,1.04-4.02,1.04h-.09c-1.71,0-3.05-.49-4.03-1.48s-1.47-2.35-1.47-4.11.48-3.08,1.44-4.02c1.06-1,2.4-1.5,4.01-1.5s2.8.51,3.55,1.52c.76,1.01,1.13,2.3,1.13,3.85v.51h-8.12c.09,1.1.46,2.05,1.12,2.85.7.82,1.69,1.22,2.96,1.22s2.47-.41,3.59-1.25l-.09,1.36h.02ZM199.41,17.05c-.04-2.31-.99-3.47-2.84-3.47h-.04c-2.02,0-3.19,1.15-3.51,3.47,0,0,6.39,0,6.39,0Z"/>
        <path class="cls-2" d="M208.66,11.94c1.3,0,1.96,1,2.01,3.02l-.47.27c-.24-1.1-.72-1.65-1.44-1.65-2.17,0-3.26,1.36-3.26,4.06v3.82c.1.42.35.63.76.63h1.01v.95h-5.3v-.95l1.12-.02c.28-.05.5-.26.65-.62v-7.74h-1.59v-.42l2.52-1.27h.83v3.43c.37-2.35,1.42-3.53,3.15-3.53Z"/>
        <path class="cls-2" d="M221.29,13.98c0,.09,0,.21.02.38l3.13,6.49,2.84-6.49v-.26c0-.12-.02-.26-.04-.41s-.17-.25-.42-.28v-.02h-.95v-.95h4.25v.95h-.74s-.15.13-.37.32-.38.41-.48.65c-2.92,6.58-4.52,10.14-4.8,10.68-.72,1.36-1.94,2.03-3.66,2.03h-1.39v-1.31c.92.09,1.41.15,1.48.19,1.36,0,2.31-.58,2.85-1.74.3-.62.44-.96.44-1.02s0-.11-.02-.14l-4.4-9.11c-.19-.33-.4-.52-.63-.55h-.85v-.95h5.14v.95h-.89v.02c-.33.02-.51.2-.51.57h0Z"/>
        <path class="cls-2" d="M235.5,23.46c-1.43,0-2.64-.55-3.63-1.65s-1.48-2.41-1.48-3.96.49-2.87,1.48-4,2.19-1.69,3.63-1.69,2.66.56,3.7,1.69c1.04,1.13,1.55,2.46,1.55,4s-.52,2.85-1.55,3.96c-1.04,1.1-2.27,1.65-3.7,1.65ZM238.56,17.84c0-1.54-.29-2.71-.86-3.5-.58-.79-1.34-1.18-2.27-1.18s-1.67.39-2.18,1.15c-.51.77-.78,1.94-.78,3.52s.29,2.75.86,3.51c.58.76,1.34,1.15,2.28,1.15s1.67-.39,2.18-1.16c.51-.78.76-1.94.76-3.48h0Z"/>
        <path class="cls-2" d="M247.78,12.19h3.37v9.47c.09.1.19.15.32.15.09,0,.34-.27.78-.83v.95c-.23.93-.69,1.39-1.37,1.39s-1.19-.5-1.5-1.5v-1.12c-.33,1.78-1.43,2.66-3.26,2.66-2.35-.02-3.53-1.32-3.53-3.91v-6.33h-1.59v-.95h3.34v6.39c.03,2.4.68,3.59,1.95,3.59,2.06,0,3.08-1.65,3.08-4.95v-4.08h-1.59v-.95h0Z"/>
        <path class="cls-2" d="M259.86,11.94c1.3,0,1.96,1,2.01,3.02l-.47.27c-.24-1.1-.72-1.65-1.44-1.65-2.17,0-3.26,1.36-3.26,4.06v3.82c.1.42.35.63.76.63h1.01v.95h-5.3v-.95l1.12-.02c.28-.05.5-.26.65-.62v-7.74h-1.59v-.42l2.52-1.27h.83v3.43c.37-2.35,1.42-3.53,3.15-3.53h0Z"/>
        <path class="cls-2" d="M272.65,5.93v15.54c.1.42.28.63.55.63h1.12v.95h-5.14v-.95l1.22-.02c.04-.05.19-.26.44-.62V7.62h-1.59v-.42l2.52-1.27h.87Z"/>
        <path class="cls-2" d="M280.19,23.46c-1.43,0-2.64-.55-3.63-1.65s-1.48-2.41-1.48-3.96.49-2.87,1.48-4,2.19-1.69,3.63-1.69,2.66.56,3.7,1.69c1.04,1.13,1.55,2.46,1.55,4s-.52,2.85-1.55,3.96c-1.04,1.1-2.27,1.65-3.7,1.65ZM283.24,17.84c0-1.54-.29-2.71-.86-3.5-.58-.79-1.34-1.18-2.27-1.18s-1.67.39-2.18,1.15c-.51.77-.78,1.94-.78,3.52s.29,2.75.86,3.51c.58.76,1.34,1.15,2.28,1.15s1.67-.39,2.18-1.16c.51-.78.76-1.94.76-3.48h0Z"/>
        <path class="cls-2" d="M286.54,13.39h-.85v-.95h5.03v.95h-.95v.02c-.3,0-.45.08-.47.25-.02.16-.02.31-.02.43v.27l2.45,6.13,2.34-6.13h-.02v-.26c0-.12-.02-.26-.04-.41s-.17-.25-.42-.28v-.02h-.95v-.95h4.25v.95h-.74s-.15.13-.37.32-.38.41-.48.65l-3.96,9.71-3.97-9.71c-.26-.61-.54-.93-.85-.97h0Z"/>
        <path class="cls-2" d="M306.88,22.34c-1.24.69-2.58,1.04-4.02,1.04h-.09c-1.71,0-3.05-.49-4.03-1.48-.98-.99-1.47-2.35-1.47-4.11s.48-3.08,1.44-4.02c1.06-1,2.4-1.5,4.01-1.5s2.8.51,3.55,1.52c.76,1.01,1.13,2.3,1.13,3.85v.51h-8.12c.09,1.1.46,2.05,1.12,2.85.7.82,1.69,1.22,2.96,1.22s2.47-.41,3.59-1.25l-.09,1.36h.02ZM305.69,17.05c-.04-2.31-.99-3.47-2.84-3.47h-.04c-2.02,0-3.19,1.15-3.51,3.47,0,0,6.39,0,6.39,0Z"/>
        <path class="cls-2" d="M310.15,21.8c-.91-1.05-1.37-2.42-1.37-4.12s.46-3.03,1.37-4.01c.91-.97,2.05-1.46,3.44-1.46s2.48.52,3.32,1.57v-6.15h-1.59v-.42l2.52-1.27h.85v15.74c.09.1.19.15.32.15.09,0,.34-.27.78-.83v.95c-.23.93-.69,1.39-1.37,1.39s-1.19-.5-1.5-1.5l.02-.06-.02-.04c-.85,1.1-1.96,1.65-3.33,1.65s-2.52-.53-3.43-1.58h0ZM311.7,20.84c.54.78,1.29,1.16,2.24,1.16,1.76,0,2.75-1.25,2.96-3.76v-1.15c-.12-2.34-1.11-3.52-2.96-3.53-.89,0-1.61.37-2.18,1.1s-.86,1.76-.89,3.08c.02,1.29.29,2.31.83,3.08h0Z"/>
        <path class="cls-2" d="M332.29,23.46c-1.43,0-2.64-.55-3.63-1.65s-1.48-2.41-1.48-3.96.49-2.87,1.48-4,2.19-1.69,3.63-1.69,2.66.56,3.7,1.69c1.04,1.13,1.55,2.46,1.55,4s-.52,2.85-1.55,3.96c-1.04,1.1-2.27,1.65-3.7,1.65ZM335.34,17.84c0-1.54-.29-2.71-.86-3.5-.58-.79-1.34-1.18-2.27-1.18s-1.67.39-2.18,1.15c-.51.77-.78,1.94-.78,3.52s.29,2.75.86,3.51c.58.76,1.34,1.15,2.28,1.15s1.67-.39,2.18-1.16c.51-.78.76-1.94.76-3.48h0Z"/>
        <path class="cls-2" d="M341.62,15.49c.49-2.16,1.61-3.23,3.37-3.23,2.49.02,3.74,1.22,3.74,3.61v5.6c.1.42.35.63.76.63h.8v.95h-5.09v-.95l.91-.02c.28-.05.5-.26.65-.62v-4.8c0-2.17-.59-3.26-1.78-3.26-2.24,0-3.37,2.23-3.37,6.68v1.37c.1.42.35.63.76.63h.8v.95h-4.88v-.95l.91-.02c.28-.05.5-.26.65-.62v-7.72h-1.59v-.42l2.52-1.27h.83v3.43h0Z"/>
        <path class="cls-2" d="M360.55,22.34c-1.24.69-2.58,1.04-4.02,1.04h-.09c-1.71,0-3.05-.49-4.03-1.48-.98-.99-1.47-2.35-1.47-4.11s.48-3.08,1.44-4.02c1.06-1,2.4-1.5,4.01-1.5s2.8.51,3.55,1.52c.76,1.01,1.13,2.3,1.13,3.85v.51h-8.12c.09,1.1.46,2.05,1.12,2.85.7.82,1.69,1.22,2.96,1.22s2.47-.41,3.59-1.25l-.09,1.36h.02ZM359.34,17.05c-.04-2.31-.99-3.47-2.84-3.47h-.04c-2.02,0-3.19,1.15-3.51,3.47,0,0,6.39,0,6.39,0Z"/>
        <path class="cls-2" d="M366.15,12.4h.11c.72,0,1.46.28,2.24.85.09,0,.13-.05.15-.15l.11-1.07h1.06l.42,4.11c-1.32-1.72-2.63-2.58-3.93-2.58s-1.95.42-1.95,1.27c0,.78.85,1.37,2.54,1.8,1.06.26,1.85.53,2.37.78,1.11.56,1.67,1.43,1.67,2.58v.06c0,.87-.37,1.63-1.11,2.26s-1.74.95-3.01.95c-.8,0-1.72-.51-2.75-1.54-.05.35-.11.81-.15,1.37h-1.06l-.42-4.32c1.97,2.21,3.42,3.32,4.33,3.32,1.44,0,2.16-.51,2.16-1.54,0-.9-.86-1.61-2.58-2.13-.79-.23-1.45-.46-1.99-.7-.54-.25-.96-.58-1.28-1.01-.32-.43-.48-.89-.48-1.37s.15-.93.44-1.34c.75-1.04,1.78-1.57,3.11-1.57v-.02Z"/>
        <path class="cls-2" d="M373.29,22.79c-.26-.26-.41-.59-.41-.97s.13-.7.41-.97.59-.41.97-.41.7.13.97.41c.26.26.41.59.41.97s-.13.7-.41.97-.59.41-.97.41-.7-.13-.97-.41Z"/>
      </g>
    </g>
  </g>
</svg>