<?xml version="1.0" encoding="UTF-8"?>
<svg id="_レイヤー_2" data-name="レイヤー 2" xmlns="http://www.w3.org/2000/svg" xmlns:xlink="http://www.w3.org/1999/xlink" viewBox="0 0 240 80.3">
  <defs>
    <style>
      .cls-1 {
        fill: #0a1543;
      }

      .cls-2 {
        fill: url(#_名称未設定グラデーション_2);
      }

      .cls-3 {
        fill: #00404f;
      }
    </style>
    <linearGradient id="_名称未設定グラデーション_2" data-name="名称未設定グラデーション 2" x1="120" y1="-699.19" x2="120" y2="-768.19" gradientTransform="translate(0 -697.19) scale(1 -1)" gradientUnits="userSpaceOnUse">
      <stop offset=".24" stop-color="#a5e26f"/>
      <stop offset=".36" stop-color="#a7e273"/>
      <stop offset=".49" stop-color="#b0e580"/>
      <stop offset=".62" stop-color="#bdea96"/>
      <stop offset=".76" stop-color="#d1f0b5"/>
      <stop offset=".9" stop-color="#e9f8dd"/>
      <stop offset="1" stop-color="#fff"/>
    </linearGradient>
  </defs>
  <g id="en_zh2">
    <g id="UI__push2" data-name="UI _push2">
      <rect class="cls-3" width="240" height="80.3" rx="25" ry="25"/>
      <rect class="cls-3" width="240" height="73" rx="25" ry="25"/>
      <rect class="cls-2" x="2" y="2" width="236" height="69" rx="23" ry="23"/>
    </g>
    <g id="_2" data-name="2">
      <g>
        <path class="cls-1" d="M13.54,47.26v-19.79h5.64c1.48,0,2.77.18,3.89.55s1.98.98,2.59,1.82c.61.85.92,1.99.92,3.43s-.31,2.53-.92,3.43c-.61.9-1.47,1.57-2.56,2.01-1.1.44-2.37.66-3.81.66h-3.27v7.88h-2.48ZM16.02,37.36h2.94c1.73,0,3.02-.32,3.86-.97.85-.65,1.27-1.68,1.27-3.1s-.44-2.43-1.31-2.97c-.87-.54-2.18-.81-3.93-.81h-2.83v7.86Z"/>
        <path class="cls-1" d="M37.08,47.62c-1.31,0-2.5-.31-3.56-.92-1.06-.61-1.9-1.49-2.52-2.63-.62-1.14-.93-2.51-.93-4.12,0-1.21.18-2.28.54-3.23.36-.94.85-1.75,1.47-2.43.62-.67,1.33-1.19,2.12-1.54.79-.35,1.6-.53,2.43-.53,1.26,0,2.32.28,3.19.84.86.56,1.53,1.36,1.98,2.39.46,1.04.69,2.25.69,3.66,0,.27,0,.52-.03.76-.02.23-.04.45-.08.65h-9.88c.05,1.04.29,1.95.72,2.71s.99,1.36,1.69,1.78c.7.42,1.52.63,2.46.63.72,0,1.37-.1,1.96-.31s1.16-.49,1.71-.85l.86,1.65c-.63.41-1.34.77-2.13,1.05-.79.29-1.68.43-2.67.43ZM32.47,38.76h7.86c0-1.48-.32-2.61-.96-3.39-.64-.78-1.53-1.17-2.69-1.17-.68,0-1.33.18-1.93.54-.6.36-1.11.87-1.51,1.54-.41.67-.66,1.49-.77,2.48Z"/>
        <path class="cls-1" d="M47.2,47.26v-14.66h2.02l.24,2.67h.05c.5-.94,1.12-1.68,1.85-2.23.73-.55,1.5-.82,2.31-.82.34,0,.63.02.88.07.24.04.47.13.69.26l-.46,2.13c-.25-.07-.48-.13-.67-.17-.2-.04-.45-.07-.76-.07-.59,0-1.23.26-1.92.77-.68.51-1.27,1.39-1.76,2.63v9.42h-2.48Z"/>
        <path class="cls-1" d="M59.09,53.45v-20.84h2.02l.24,1.7h.05c.67-.56,1.4-1.04,2.2-1.46s1.62-.62,2.47-.62c1.26,0,2.33.31,3.2.93s1.53,1.49,1.97,2.61c.44,1.12.66,2.43.66,3.94,0,1.67-.3,3.1-.9,4.28s-1.39,2.08-2.35,2.7c-.96.62-2,.93-3.12.93-.67,0-1.34-.15-2.02-.45-.68-.3-1.36-.71-2.02-1.26l.08,2.57v4.97h-2.48ZM65.14,45.54c.81,0,1.53-.23,2.17-.69.64-.46,1.14-1.12,1.5-2,.36-.87.54-1.91.54-3.12,0-1.08-.13-2.03-.39-2.85-.26-.82-.67-1.45-1.23-1.9-.56-.45-1.31-.67-2.27-.67-.61,0-1.24.17-1.88.51-.64.34-1.31.84-2.01,1.48v7.72c.65.56,1.29.95,1.92,1.17s1.18.34,1.65.34Z"/>
        <path class="cls-1" d="M82.97,47.62c-1.31,0-2.5-.31-3.56-.92-1.06-.61-1.9-1.49-2.52-2.63-.62-1.14-.93-2.51-.93-4.12,0-1.21.18-2.28.54-3.23.36-.94.85-1.75,1.47-2.43.62-.67,1.33-1.19,2.12-1.54.79-.35,1.6-.53,2.43-.53,1.26,0,2.32.28,3.19.84.86.56,1.53,1.36,1.98,2.39.46,1.04.69,2.25.69,3.66,0,.27,0,.52-.03.76-.02.23-.04.45-.08.65h-9.88c.05,1.04.29,1.95.72,2.71s.99,1.36,1.69,1.78c.7.42,1.52.63,2.46.63.72,0,1.37-.1,1.96-.31s1.16-.49,1.71-.85l.86,1.65c-.63.41-1.34.77-2.13,1.05-.79.29-1.68.43-2.67.43ZM78.35,38.76h7.86c0-1.48-.32-2.61-.96-3.39-.64-.78-1.53-1.17-2.69-1.17-.68,0-1.33.18-1.93.54-.6.36-1.11.87-1.51,1.54-.41.67-.66,1.49-.77,2.48Z"/>
        <path class="cls-1" d="M97.83,47.62c-1.03,0-1.85-.2-2.46-.61-.61-.4-1.05-.98-1.31-1.71-.26-.74-.39-1.59-.39-2.56v-8.13h-2.19v-1.86l2.32-.13.27-4.13h2.05v4.13h4v2h-4v8.21c0,.88.17,1.57.5,2.07.33.5.92.74,1.77.74.27,0,.56-.04.86-.12s.58-.18.81-.28l.49,1.86c-.41.14-.85.27-1.32.38-.47.11-.94.16-1.4.16Z"/>
        <path class="cls-1" d="M108.78,47.62c-1.55,0-2.69-.49-3.42-1.46-.73-.97-1.09-2.39-1.09-4.27v-9.29h2.48v8.99c0,1.35.22,2.33.65,2.96s1.13.93,2.11.93c.76,0,1.43-.2,2.02-.59.59-.4,1.24-1.03,1.94-1.89v-10.39h2.46v14.66h-2.05l-.19-2.29h-.08c-.68.79-1.41,1.43-2.17,1.92-.77.49-1.65.73-2.66.73Z"/>
        <path class="cls-1" d="M125,47.62c-.81,0-1.54-.16-2.19-.49-.65-.32-1.16-.8-1.53-1.42-.37-.62-.55-1.37-.55-2.25,0-1.6.72-2.83,2.15-3.69,1.43-.85,3.71-1.45,6.85-1.79,0-.63-.09-1.23-.26-1.79-.17-.57-.47-1.03-.9-1.38-.43-.35-1.05-.53-1.86-.53s-1.64.17-2.39.5-1.42.69-2.01,1.07l-.95-1.7c.45-.29.97-.58,1.57-.88s1.24-.54,1.94-.74c.7-.2,1.45-.3,2.24-.3,1.19,0,2.15.25,2.9.76.75.5,1.29,1.2,1.65,2.09s.53,1.95.53,3.17v9.02h-2.03l-.22-1.75h-.08c-.68.58-1.44,1.07-2.25,1.48-.82.41-1.69.62-2.61.62ZM125.7,45.62c.7,0,1.37-.16,2.01-.49.64-.32,1.31-.8,2.01-1.43v-4.08c-1.64.18-2.94.44-3.92.77-.97.33-1.66.74-2.08,1.21-.41.48-.62,1.04-.62,1.69,0,.85.25,1.45.76,1.8.5.35,1.12.53,1.84.53Z"/>
        <path class="cls-1" d="M140.29,47.62c-.61,0-1.11-.12-1.49-.38s-.66-.63-.84-1.12-.27-1.08-.27-1.77v-18.58h2.48v18.74c0,.38.07.65.2.81.13.16.29.24.47.24.07,0,.14,0,.22-.01.07,0,.17-.02.3-.04l.35,1.89c-.18.05-.38.1-.59.15-.22.04-.5.07-.84.07Z"/>
        <path class="cls-1" d="M162.14,47.62c-1.75,0-3.29-.4-4.63-1.21-1.34-.81-2.39-1.98-3.16-3.51-.77-1.53-1.15-3.37-1.15-5.51,0-1.6.22-3.04.67-4.31.45-1.27,1.08-2.34,1.9-3.23.82-.88,1.78-1.56,2.88-2.03,1.1-.47,2.3-.7,3.62-.7,1.39,0,2.54.26,3.46.77.92.51,1.67,1.07,2.24,1.66l-1.35,1.62c-.5-.52-1.09-.96-1.77-1.32-.68-.36-1.51-.54-2.5-.54-1.33,0-2.49.32-3.48.97-.99.65-1.75,1.57-2.29,2.77s-.81,2.62-.81,4.25.26,3.12.77,4.33,1.26,2.15,2.25,2.81c.99.66,2.19.99,3.59.99.7,0,1.37-.1,2.01-.31.64-.21,1.16-.49,1.55-.85v-5.18h-4.21v-2.08h6.51v8.32c-.65.67-1.5,1.21-2.55,1.65-1.05.43-2.24.65-3.55.65Z"/>
        <path class="cls-1" d="M173.74,47.26v-14.66h2.02l.24,2.67h.05c.5-.94,1.12-1.68,1.85-2.23.73-.55,1.5-.82,2.31-.82.34,0,.63.02.88.07s.47.13.69.26l-.46,2.13c-.25-.07-.48-.13-.67-.17-.2-.04-.45-.07-.76-.07-.59,0-1.23.26-1.92.77-.68.51-1.27,1.39-1.75,2.63v9.42h-2.48Z"/>
        <path class="cls-1" d="M189,47.62c-.81,0-1.54-.16-2.19-.49-.65-.32-1.16-.8-1.53-1.42-.37-.62-.55-1.37-.55-2.25,0-1.6.72-2.83,2.15-3.69,1.43-.85,3.71-1.45,6.84-1.79,0-.63-.09-1.23-.26-1.79-.17-.57-.47-1.03-.9-1.38-.43-.35-1.05-.53-1.86-.53s-1.64.17-2.39.5c-.75.33-1.42.69-2.01,1.07l-.95-1.7c.45-.29.97-.58,1.57-.88.59-.3,1.24-.54,1.94-.74.7-.2,1.45-.3,2.24-.3,1.19,0,2.16.25,2.9.76.75.5,1.3,1.2,1.65,2.09.35.89.53,1.95.53,3.17v9.02h-2.03l-.22-1.75h-.08c-.68.58-1.44,1.07-2.25,1.48-.82.41-1.69.62-2.61.62ZM189.7,45.62c.7,0,1.37-.16,2.01-.49.64-.32,1.31-.8,2.01-1.43v-4.08c-1.64.18-2.94.44-3.92.77-.97.33-1.67.74-2.08,1.21-.41.48-.62,1.04-.62,1.69,0,.85.25,1.45.76,1.8.5.35,1.12.53,1.84.53Z"/>
        <path class="cls-1" d="M204.73,47.26l-5.29-14.66h2.57l2.75,8.34c.23.72.46,1.44.69,2.17.22.73.45,1.44.66,2.15h.14c.23-.7.46-1.42.69-2.15.22-.73.45-1.45.66-2.17l2.78-8.34h2.43l-5.18,14.66h-2.89Z"/>
        <path class="cls-1" d="M222.4,47.62c-1.31,0-2.5-.31-3.56-.92-1.06-.61-1.9-1.49-2.52-2.63-.62-1.14-.93-2.51-.93-4.12,0-1.21.18-2.28.54-3.23.36-.94.85-1.75,1.47-2.43.62-.67,1.33-1.19,2.12-1.54.79-.35,1.6-.53,2.43-.53,1.26,0,2.32.28,3.19.84.86.56,1.53,1.36,1.98,2.39.46,1.04.69,2.25.69,3.66,0,.27,0,.52-.03.76-.02.23-.04.45-.08.65h-9.88c.05,1.04.29,1.95.72,2.71.42.77.99,1.36,1.69,1.78.7.42,1.52.63,2.46.63.72,0,1.37-.1,1.96-.31s1.16-.49,1.71-.85l.86,1.65c-.63.41-1.34.77-2.13,1.05s-1.68.43-2.67.43ZM217.79,38.76h7.86c0-1.48-.32-2.61-.96-3.39s-1.53-1.17-2.69-1.17c-.68,0-1.33.18-1.93.54-.6.36-1.11.87-1.51,1.54-.4.67-.66,1.49-.77,2.48Z"/>
      </g>
    </g>
  </g>
</svg>