<?xml version="1.0" encoding="UTF-8"?>
<svg id="_レイヤー_2" data-name="レイヤー 2" xmlns="http://www.w3.org/2000/svg" xmlns:xlink="http://www.w3.org/1999/xlink" viewBox="0 0 240 80.3">
  <defs>
    <style>
      .cls-1 {
        fill: #0a1543;
      }

      .cls-2 {
        fill: url(#_名称未設定グラデーション_2);
      }

      .cls-3 {
        fill: #00404f;
      }
    </style>
    <linearGradient id="_名称未設定グラデーション_2" data-name="名称未設定グラデーション 2" x1="120" y1="-699.19" x2="120" y2="-768.19" gradientTransform="translate(0 -697.19) scale(1 -1)" gradientUnits="userSpaceOnUse">
      <stop offset=".24" stop-color="#a5e26f"/>
      <stop offset=".36" stop-color="#a7e273"/>
      <stop offset=".49" stop-color="#b0e580"/>
      <stop offset=".62" stop-color="#bdea96"/>
      <stop offset=".76" stop-color="#d1f0b5"/>
      <stop offset=".9" stop-color="#e9f8dd"/>
      <stop offset="1" stop-color="#fff"/>
    </linearGradient>
  </defs>
  <g id="en_zh2">
    <g id="UI__push3" data-name="UI _push3">
      <rect class="cls-3" width="240" height="80.3" rx="25" ry="25"/>
      <rect class="cls-3" width="240" height="73" rx="25" ry="25"/>
      <rect class="cls-2" x="2" y="2" width="236" height="69" rx="23" ry="23"/>
    </g>
    <g id="_3" data-name="3">
      <g>
        <path class="cls-1" d="M54.95,49.52v-26.39h15.19v2.81h-11.88v8.93h10.08v2.81h-10.08v11.84h-3.31Z"/>
        <path class="cls-1" d="M81.3,49.99c-2.06,0-3.58-.65-4.55-1.94-.97-1.3-1.46-3.19-1.46-5.69v-12.38h3.31v11.99c0,1.8.29,3.11.86,3.94.58.83,1.51,1.24,2.81,1.24,1.01,0,1.91-.26,2.7-.79s1.66-1.37,2.59-2.52v-13.86h3.28v19.55h-2.74l-.25-3.06h-.11c-.91,1.06-1.88,1.91-2.9,2.56-1.02.65-2.2.97-3.55.97Z"/>
        <path class="cls-1" d="M99.23,49.52v-19.55h2.7l.32,2.84h.07c.94-.94,1.93-1.73,2.97-2.38s2.24-.97,3.58-.97c2.06,0,3.58.65,4.54,1.96.96,1.31,1.44,3.21,1.44,5.71v12.38h-3.28v-11.95c0-1.85-.29-3.18-.88-4-.59-.82-1.53-1.22-2.83-1.22-1.01,0-1.91.25-2.7.76s-1.67,1.25-2.63,2.23v14.18h-3.31Z"/>
        <path class="cls-1" d="M130.91,49.99c-1.75,0-3.34-.41-4.75-1.22-1.42-.82-2.54-1.99-3.37-3.51-.83-1.52-1.24-3.35-1.24-5.49,0-1.61.24-3.04.72-4.3s1.13-2.34,1.96-3.24,1.77-1.58,2.83-2.05c1.06-.47,2.14-.7,3.24-.7,1.68,0,3.1.37,4.25,1.12,1.15.74,2.03,1.81,2.65,3.19.61,1.38.92,3.01.92,4.88,0,.36-.01.7-.04,1.01-.02.31-.06.6-.11.86h-13.18c.07,1.39.39,2.6.95,3.62.56,1.02,1.31,1.81,2.25,2.38.94.56,2.03.85,3.28.85.96,0,1.83-.14,2.61-.41.78-.28,1.54-.65,2.29-1.13l1.15,2.2c-.84.55-1.79,1.02-2.84,1.4-1.06.38-2.24.58-3.56.58ZM124.75,38.18h10.48c0-1.97-.43-3.47-1.28-4.52-.85-1.04-2.05-1.57-3.58-1.57-.91,0-1.77.24-2.57.72-.8.48-1.48,1.16-2.02,2.05-.54.89-.88,1.99-1.03,3.31Z"/>
        <path class="cls-1" d="M144.73,49.52v-19.55h2.7l.32,3.56h.07c.67-1.25,1.49-2.24,2.47-2.97s2-1.1,3.08-1.1c.46,0,.85.03,1.17.09.32.06.63.17.92.34l-.61,2.84c-.34-.1-.64-.17-.9-.23-.26-.06-.6-.09-1.01-.09-.79,0-1.64.34-2.56,1.03-.91.68-1.69,1.85-2.34,3.51v12.56h-3.31Z"/>
        <path class="cls-1" d="M163.96,49.99c-1.08,0-2.05-.22-2.92-.65-.86-.43-1.54-1.06-2.03-1.89-.49-.83-.74-1.83-.74-3.01,0-2.14.95-3.77,2.86-4.91,1.91-1.14,4.95-1.94,9.13-2.39,0-.84-.11-1.64-.34-2.39-.23-.76-.63-1.37-1.21-1.84-.58-.47-1.4-.7-2.48-.7s-2.19.22-3.19.67c-1,.44-1.89.92-2.68,1.42l-1.26-2.27c.6-.38,1.3-.77,2.09-1.17s1.66-.73,2.59-.99c.94-.26,1.93-.4,2.99-.4,1.58,0,2.87.34,3.87,1.01,1,.67,1.73,1.6,2.2,2.79.47,1.19.7,2.6.7,4.23v12.02h-2.7l-.29-2.34h-.11c-.91.77-1.91,1.43-3.01,1.98-1.09.55-2.25.83-3.47.83ZM164.89,47.32c.94,0,1.83-.22,2.68-.65.85-.43,1.75-1.07,2.68-1.91v-5.44c-2.18.24-3.92.58-5.22,1.03-1.3.44-2.22.98-2.77,1.62-.55.64-.83,1.39-.83,2.25,0,1.13.34,1.93,1.01,2.39.67.47,1.49.7,2.45.7Z"/>
        <path class="cls-1" d="M184.98,49.99c-.82,0-1.48-.17-1.98-.5s-.88-.83-1.12-1.49-.36-1.45-.36-2.36v-24.77h3.31v24.98c0,.5.09.86.27,1.08.18.22.39.32.63.32.09,0,.19,0,.29-.02.1-.01.23-.03.4-.05l.47,2.52c-.24.07-.5.14-.79.2-.29.06-.66.09-1.12.09Z"/>
      </g>
    </g>
  </g>
</svg>