<?xml version="1.0" encoding="UTF-8"?>
<svg id="_レイヤー_2" data-name="レイヤー 2" xmlns="http://www.w3.org/2000/svg" xmlns:xlink="http://www.w3.org/1999/xlink" viewBox="0 0 240 80.3">
  <defs>
    <style>
      .cls-1 {
        fill: #0a1543;
      }

      .cls-2 {
        fill: url(#_名称未設定グラデーション_2);
      }

      .cls-3 {
        fill: #00404f;
      }
    </style>
    <linearGradient id="_名称未設定グラデーション_2" data-name="名称未設定グラデーション 2" x1="120" y1="-699.19" x2="120" y2="-768.19" gradientTransform="translate(0 -697.19) scale(1 -1)" gradientUnits="userSpaceOnUse">
      <stop offset=".24" stop-color="#a5e26f"/>
      <stop offset=".36" stop-color="#a7e273"/>
      <stop offset=".49" stop-color="#b0e580"/>
      <stop offset=".62" stop-color="#bdea96"/>
      <stop offset=".76" stop-color="#d1f0b5"/>
      <stop offset=".9" stop-color="#e9f8dd"/>
      <stop offset="1" stop-color="#fff"/>
    </linearGradient>
  </defs>
  <g id="en_zh2">
    <g id="UI__push5" data-name="UI _push5">
      <rect class="cls-3" width="240" height="80.3" rx="25" ry="25"/>
      <rect class="cls-3" width="240" height="73" rx="25" ry="25"/>
      <rect class="cls-2" x="2" y="2" width="236" height="69" rx="23" ry="23"/>
    </g>
    <g id="_5" data-name="5">
      <g>
        <path class="cls-1" d="M31.99,49.99c-2.33,0-4.39-.54-6.17-1.62-1.79-1.08-3.19-2.64-4.21-4.68-1.02-2.04-1.53-4.49-1.53-7.34,0-2.14.3-4.05.9-5.74.6-1.69,1.45-3.13,2.54-4.3,1.09-1.18,2.37-2.08,3.83-2.7s3.07-.94,4.82-.94c1.85,0,3.38.34,4.61,1.03s2.22,1.42,2.99,2.21l-1.8,2.16c-.67-.7-1.46-1.28-2.36-1.76s-2.01-.72-3.33-.72c-1.78,0-3.32.43-4.64,1.3-1.32.86-2.34,2.09-3.06,3.69-.72,1.6-1.08,3.49-1.08,5.67s.34,4.16,1.03,5.78c.68,1.62,1.69,2.87,3.01,3.74,1.32.88,2.92,1.31,4.79,1.31.94,0,1.83-.14,2.68-.41.85-.28,1.54-.65,2.07-1.13v-6.91h-5.62v-2.77h8.68v11.09c-.86.89-2,1.62-3.4,2.2-1.4.58-2.98.86-4.73.86Z"/>
        <path class="cls-1" d="M47.34,49.52v-19.55h2.7l.32,3.56h.07c.67-1.25,1.49-2.24,2.47-2.97s2-1.1,3.08-1.1c.46,0,.85.03,1.17.09.32.06.63.17.92.34l-.61,2.84c-.34-.1-.64-.17-.9-.23s-.6-.09-1.01-.09c-.79,0-1.64.34-2.56,1.03-.91.68-1.69,1.85-2.34,3.51v12.56h-3.31Z"/>
        <path class="cls-1" d="M67.58,49.99c-1.08,0-2.05-.22-2.92-.65-.86-.43-1.54-1.06-2.03-1.89-.49-.83-.74-1.83-.74-3.01,0-2.14.95-3.77,2.86-4.91,1.91-1.14,4.95-1.94,9.13-2.39,0-.84-.11-1.64-.34-2.39-.23-.76-.63-1.37-1.21-1.84-.58-.47-1.4-.7-2.48-.7s-2.19.22-3.19.67c-1,.44-1.89.92-2.68,1.42l-1.26-2.27c.6-.38,1.3-.77,2.09-1.17s1.66-.73,2.59-.99c.94-.26,1.93-.4,2.99-.4,1.58,0,2.87.34,3.87,1.01,1,.67,1.73,1.6,2.2,2.79.47,1.19.7,2.6.7,4.23v12.02h-2.7l-.29-2.34h-.11c-.91.77-1.91,1.43-3.01,1.98-1.09.55-2.25.83-3.47.83ZM68.52,47.32c.94,0,1.83-.22,2.68-.65.85-.43,1.75-1.07,2.68-1.91v-5.44c-2.18.24-3.92.58-5.22,1.03s-2.22.98-2.77,1.62c-.55.64-.83,1.39-.83,2.25,0,1.13.34,1.93,1.01,2.39.67.47,1.49.7,2.45.7Z"/>
        <path class="cls-1" d="M88.44,49.52l-7.06-19.55h3.42l3.67,11.12c.31.96.62,1.93.92,2.9.3.97.59,1.93.88,2.86h.18c.31-.94.62-1.89.92-2.86.3-.97.59-1.94.88-2.9l3.71-11.12h3.24l-6.91,19.55h-3.85Z"/>
        <path class="cls-1" d="M111.89,49.99c-1.75,0-3.34-.41-4.75-1.22-1.42-.82-2.54-1.99-3.37-3.51-.83-1.52-1.24-3.35-1.24-5.49,0-1.61.24-3.04.72-4.3s1.13-2.34,1.96-3.24c.83-.9,1.77-1.58,2.83-2.05,1.06-.47,2.14-.7,3.24-.7,1.68,0,3.1.37,4.25,1.12,1.15.74,2.03,1.81,2.65,3.19.61,1.38.92,3.01.92,4.88,0,.36-.01.7-.04,1.01-.02.31-.06.6-.11.86h-13.18c.07,1.39.39,2.6.95,3.62.56,1.02,1.31,1.81,2.25,2.38s2.03.85,3.28.85c.96,0,1.83-.14,2.61-.41.78-.28,1.54-.65,2.29-1.13l1.15,2.2c-.84.55-1.79,1.02-2.84,1.4-1.06.38-2.24.58-3.56.58ZM105.74,38.18h10.48c0-1.97-.43-3.47-1.28-4.52-.85-1.04-2.05-1.57-3.58-1.57-.91,0-1.77.24-2.57.72-.8.48-1.48,1.16-2.02,2.05-.54.89-.88,1.99-1.03,3.31Z"/>
        <path class="cls-1" d="M130.63,49.99c-1.37,0-2.69-.26-3.98-.77-1.28-.52-2.38-1.16-3.29-1.93l1.58-2.2c.86.7,1.75,1.26,2.66,1.69.91.43,1.96.65,3.13.65,1.3,0,2.26-.29,2.9-.88s.95-1.31.95-2.18c0-.67-.22-1.23-.67-1.67-.44-.44-1.01-.83-1.69-1.15-.68-.32-1.39-.62-2.11-.88-.91-.36-1.81-.76-2.68-1.21-.88-.44-1.6-1.02-2.16-1.73-.56-.71-.85-1.61-.85-2.72s.26-2,.79-2.83c.53-.83,1.3-1.49,2.3-1.98s2.22-.74,3.64-.74c1.2,0,2.32.22,3.37.65,1.04.43,1.94.96,2.68,1.58l-1.58,2.05c-.67-.48-1.36-.89-2.07-1.22-.71-.33-1.49-.5-2.36-.5-1.25,0-2.17.28-2.75.85-.59.56-.88,1.23-.88,2,0,.6.2,1.1.59,1.51.4.41.92.75,1.57,1.03.65.28,1.33.56,2.05.85.72.27,1.43.55,2.14.87.71.31,1.34.68,1.91,1.12.56.43,1.02.97,1.37,1.6.35.64.52,1.42.52,2.36,0,1.06-.27,2.03-.81,2.92s-1.33,1.59-2.38,2.11-2.35.77-3.91.77Z"/>
        <path class="cls-1" d="M150.49,49.99c-1.37,0-2.46-.27-3.28-.81-.82-.54-1.4-1.3-1.75-2.29-.35-.98-.52-2.12-.52-3.42v-10.84h-2.92v-2.48l3.1-.18.36-5.51h2.74v5.51h5.33v2.66h-5.33v10.94c0,1.18.22,2.09.67,2.75.44.66,1.23.99,2.36.99.36,0,.74-.05,1.15-.16.41-.11.77-.23,1.08-.38l.65,2.48c-.55.19-1.14.36-1.76.5s-1.25.22-1.87.22Z"/>
        <path class="cls-1" d="M166.52,49.99c-1.58,0-3.07-.4-4.46-1.21-1.39-.8-2.5-1.97-3.33-3.49-.83-1.52-1.24-3.37-1.24-5.53s.41-4.04,1.24-5.56c.83-1.52,1.94-2.69,3.33-3.51,1.39-.82,2.88-1.22,4.46-1.22,1.2,0,2.35.23,3.44.68,1.09.46,2.06,1.13,2.9,2.02.84.89,1.5,1.97,1.98,3.24.48,1.27.72,2.72.72,4.36,0,2.16-.42,4-1.26,5.53-.84,1.52-1.94,2.69-3.31,3.49-1.37.8-2.86,1.21-4.46,1.21ZM166.52,47.25c1.13,0,2.12-.31,2.97-.94.85-.62,1.52-1.5,2-2.63.48-1.13.72-2.44.72-3.92s-.24-2.83-.72-3.96c-.48-1.13-1.15-2-2-2.63-.85-.62-1.84-.94-2.97-.94s-2.12.31-2.97.94c-.85.62-1.51,1.5-1.98,2.63-.47,1.13-.7,2.45-.7,3.96s.23,2.8.7,3.92,1.13,2,1.98,2.63c.85.62,1.84.94,2.97.94Z"/>
        <path class="cls-1" d="M181.92,49.52v-19.55h2.7l.32,2.84h.07c.94-.94,1.93-1.73,2.97-2.38s2.24-.97,3.58-.97c2.06,0,3.58.65,4.54,1.96s1.44,3.21,1.44,5.71v12.38h-3.28v-11.95c0-1.85-.29-3.18-.88-4-.59-.82-1.53-1.22-2.83-1.22-1.01,0-1.91.25-2.7.76s-1.67,1.25-2.63,2.23v14.18h-3.31Z"/>
        <path class="cls-1" d="M213.06,49.99c-1.75,0-3.34-.41-4.75-1.22-1.42-.82-2.54-1.99-3.37-3.51-.83-1.52-1.24-3.35-1.24-5.49,0-1.61.24-3.04.72-4.3s1.13-2.34,1.96-3.24,1.77-1.58,2.83-2.05c1.06-.47,2.14-.7,3.24-.7,1.68,0,3.1.37,4.25,1.12,1.15.74,2.03,1.81,2.65,3.19.61,1.38.92,3.01.92,4.88,0,.36-.01.7-.04,1.01-.02.31-.06.6-.11.86h-13.18c.07,1.39.39,2.6.95,3.62.56,1.02,1.31,1.81,2.25,2.38.94.56,2.03.85,3.28.85.96,0,1.83-.14,2.61-.41.78-.28,1.54-.65,2.29-1.13l1.15,2.2c-.84.55-1.79,1.02-2.84,1.4-1.06.38-2.24.58-3.56.58ZM206.9,38.18h10.48c0-1.97-.43-3.47-1.28-4.52-.85-1.04-2.05-1.57-3.58-1.57-.91,0-1.77.24-2.57.72-.8.48-1.48,1.16-2.02,2.05-.54.89-.88,1.99-1.03,3.31Z"/>
      </g>
    </g>
  </g>
</svg>