<?xml version="1.0" encoding="UTF-8"?>
<svg id="_レイヤー_2" data-name="レイヤー 2" xmlns="http://www.w3.org/2000/svg" xmlns:xlink="http://www.w3.org/1999/xlink" viewBox="0 0 404.52 22.75">
  <defs>
    <style>
      .cls-1 {
        fill: url(#_名称未設定グラデーション_56-8);
      }

      .cls-2 {
        fill: url(#_名称未設定グラデーション_56-12);
      }

      .cls-3 {
        fill: url(#_名称未設定グラデーション_56-15);
      }

      .cls-4 {
        fill: url(#_名称未設定グラデーション_56-16);
      }

      .cls-5 {
        fill: url(#_名称未設定グラデーション_56-13);
      }

      .cls-6 {
        fill: url(#_名称未設定グラデーション_56-9);
      }

      .cls-7 {
        fill: url(#_名称未設定グラデーション_56-4);
      }

      .cls-8 {
        fill: url(#_名称未設定グラデーション_56-11);
      }

      .cls-9 {
        fill: url(#_名称未設定グラデーション_56-2);
      }

      .cls-10 {
        fill: url(#_名称未設定グラデーション_56-14);
      }

      .cls-11 {
        fill: url(#_名称未設定グラデーション_56-5);
      }

      .cls-12 {
        fill: url(#_名称未設定グラデーション_56-3);
      }

      .cls-13 {
        fill: url(#_名称未設定グラデーション_56-7);
      }

      .cls-14 {
        fill: url(#_名称未設定グラデーション_56-17);
      }

      .cls-15 {
        fill: url(#_名称未設定グラデーション_56-10);
      }

      .cls-16 {
        fill: url(#_名称未設定グラデーション_56-6);
      }

      .cls-17 {
        fill: url(#_名称未設定グラデーション_56);
      }
    </style>
    <linearGradient id="_名称未設定グラデーション_56" data-name="名称未設定グラデーション 56" x1="10.63" y1="1.03" x2="10.63" y2="21.74" gradientUnits="userSpaceOnUse">
      <stop offset="0" stop-color="#fff"/>
      <stop offset="1" stop-color="#ccc"/>
    </linearGradient>
    <linearGradient id="_名称未設定グラデーション_56-2" data-name="名称未設定グラデーション 56" x1="34.14" y1="1.06" x2="34.14" y2="22.68" xlink:href="#_名称未設定グラデーション_56"/>
    <linearGradient id="_名称未設定グラデーション_56-3" data-name="名称未設定グラデーション 56" x1="58.63" y1="3.31" x2="58.63" y2="21.05" xlink:href="#_名称未設定グラデーション_56"/>
    <linearGradient id="_名称未設定グラデーション_56-4" data-name="名称未設定グラデーション 56" x1="82.1" y1=".17" x2="82.1" y2="22.7" xlink:href="#_名称未設定グラデーション_56"/>
    <linearGradient id="_名称未設定グラデーション_56-5" data-name="名称未設定グラデーション 56" x1="105.9" y1="1.06" x2="105.9" xlink:href="#_名称未設定グラデーション_56"/>
    <linearGradient id="_名称未設定グラデーション_56-6" data-name="名称未設定グラデーション 56" x1="129.64" y1="1.68" x2="129.64" y2="21.34" xlink:href="#_名称未設定グラデーション_56"/>
    <linearGradient id="_名称未設定グラデーション_56-7" data-name="名称未設定グラデーション 56" x1="154.06" y1="8.33" x2="154.06" y2="14.47" xlink:href="#_名称未設定グラデーション_56"/>
    <linearGradient id="_名称未設定グラデーション_56-8" data-name="名称未設定グラデーション 56" x1="178.12" y1=".12" x2="178.12" y2="22.75" xlink:href="#_名称未設定グラデーション_56"/>
    <linearGradient id="_名称未設定グラデーション_56-9" data-name="名称未設定グラデーション 56" x1="202.03" y1=".12" x2="202.03" y2="22.66" xlink:href="#_名称未設定グラデーション_56"/>
    <linearGradient id="_名称未設定グラデーション_56-10" data-name="名称未設定グラデーション 56" x1="226" y1=".12" x2="226" y2="22.63" xlink:href="#_名称未設定グラデーション_56"/>
    <linearGradient id="_名称未設定グラデーション_56-11" data-name="名称未設定グラデーション 56" x1="250.1" y1="0" x2="250.1" y2="22.68" xlink:href="#_名称未設定グラデーション_56"/>
    <linearGradient id="_名称未設定グラデーション_56-12" data-name="名称未設定グラデーション 56" x1="274.79" y1="1.7" x2="274.79" xlink:href="#_名称未設定グラデーション_56"/>
    <linearGradient id="_名称未設定グラデーション_56-13" data-name="名称未設定グラデーション 56" x1="297.97" y1="3.02" x2="297.97" y2="21.55" xlink:href="#_名称未設定グラデーション_56"/>
    <linearGradient id="_名称未設定グラデーション_56-14" data-name="名称未設定グラデーション 56" x1="321.74" y1="1.25" x2="321.74" y2="21.83" xlink:href="#_名称未設定グラデーション_56"/>
    <linearGradient id="_名称未設定グラデーション_56-15" data-name="名称未設定グラデーション 56" x1="346.42" y1="1.2" x2="346.42" y2="21.88" xlink:href="#_名称未設定グラデーション_56"/>
    <linearGradient id="_名称未設定グラデーション_56-16" data-name="名称未設定グラデーション 56" x1="370.54" y1="1.1" x2="370.54" y2="21.98" xlink:href="#_名称未設定グラデーション_56"/>
    <linearGradient id="_名称未設定グラデーション_56-17" data-name="名称未設定グラデーション 56" x1="394.12" y1="2.62" x2="394.12" y2="21.62" xlink:href="#_名称未設定グラデーション_56"/>
  </defs>
  <g id="_レイヤー_10" data-name="レイヤー 10">
    <g>
      <path class="cls-17" d="M8.52,1.03c-.02.13-.04.32-.07.59-.03.26-.06.53-.08.79-.02.26-.04.5-.06.71-.03.46-.06.97-.08,1.52-.02.55-.04,1.12-.06,1.7-.02.58-.03,1.17-.04,1.76,0,.59-.01,1.17-.01,1.73,0,.66,0,1.38.02,2.17.02.79.04,1.58.06,2.35.02.78.04,1.48.05,2.12,0,.64.01,1.14.01,1.49,0,.99-.11,1.76-.32,2.3-.22.54-.52.92-.92,1.14-.4.22-.86.32-1.39.32-.58,0-1.19-.12-1.85-.35s-1.27-.56-1.84-.97c-.57-.42-1.03-.9-1.39-1.45-.36-.55-.54-1.15-.54-1.79,0-.77.29-1.53.88-2.29.58-.76,1.36-1.46,2.33-2.1.97-.64,2.01-1.15,3.13-1.54,1.07-.4,2.18-.69,3.31-.88,1.14-.18,2.16-.28,3.07-.28,1.23,0,2.34.2,3.34.61.99.41,1.78,1,2.38,1.79.59.78.89,1.73.89,2.83,0,.93-.18,1.78-.53,2.57-.35.78-.92,1.46-1.69,2.03s-1.8,1.01-3.08,1.33c-.54.11-1.08.2-1.62.25-.54.06-1.04.1-1.52.13l-1.1-3.1c.54,0,1.07-.01,1.57-.04s.96-.07,1.38-.13c.66-.13,1.25-.32,1.78-.58.53-.26.94-.59,1.25-1.01.3-.42.46-.91.46-1.49,0-.54-.15-1.01-.44-1.39-.3-.38-.71-.68-1.24-.89s-1.14-.31-1.85-.31c-1.01,0-2.03.1-3.06.31-1.03.21-2.02.5-2.96.86-.7.27-1.34.59-1.9.95-.56.36-1,.73-1.32,1.12-.32.38-.48.75-.48,1.1,0,.19.06.37.18.54s.28.32.47.44c.19.13.39.23.59.3.2.07.37.11.52.11.22,0,.41-.07.55-.2.14-.14.22-.4.22-.8,0-.43-.01-1.05-.04-1.86-.02-.81-.05-1.71-.07-2.7-.02-.99-.04-1.98-.04-2.95,0-.67,0-1.35.01-2.04,0-.69.01-1.34.01-1.97s0-1.18.01-1.66.01-.86.01-1.13c0-.18,0-.4-.02-.67s-.04-.55-.06-.83c-.02-.28-.05-.48-.08-.61h3.31ZM.65,4.94c.7.08,1.32.13,1.86.16s1.02.04,1.45.04c.62,0,1.31-.03,2.06-.08s1.52-.14,2.3-.24c.78-.1,1.55-.23,2.29-.37.74-.14,1.42-.3,2.03-.48l.07,2.98c-.67.16-1.4.3-2.18.42-.78.12-1.57.23-2.36.32-.79.1-1.54.17-2.26.22-.71.05-1.33.07-1.86.07-.8,0-1.46,0-1.97-.02-.51-.02-.98-.05-1.39-.1l-.05-2.9ZM15.36,3.62c.61.29,1.29.64,2.05,1.06.76.42,1.49.83,2.18,1.24s1.25.77,1.67,1.09l-1.44,2.45c-.3-.26-.7-.54-1.19-.86-.49-.32-1.02-.65-1.58-.98-.57-.34-1.12-.65-1.64-.95-.53-.3-.98-.53-1.37-.71l1.32-2.33Z"/>
      <path class="cls-9" d="M23.98,1.06h2.86v21.62h-2.86V1.06ZM25.39,4.54h6v1.94h-6v-1.94ZM25.61,1.06h7.61v8.98h-7.61v-2.18h4.9V3.24h-4.9V1.06ZM29.3,11.69h2.66v8.95h-2.66v-8.95ZM30.55,11.69h8.11v7.58h-8.11v-2.35h5.4v-2.86h-5.4v-2.38ZM42.94,1.06v2.18h-5.38v4.66h5.38v2.16h-8.11V1.06h8.11ZM36.53,4.54h6.05v1.94h-6.05v-1.94ZM41.38,1.06h2.93v18.17c0,.8-.1,1.42-.29,1.87-.19.45-.54.79-1.03,1.03-.51.24-1.15.39-1.92.46-.77.06-1.71.1-2.83.1-.02-.29-.08-.61-.19-.96-.11-.35-.23-.71-.36-1.07-.13-.36-.27-.67-.43-.92.48.03.96.05,1.44.06.48,0,.91,0,1.28,0,.38,0,.64-.01.8-.01.22,0,.38-.04.47-.13.09-.09.13-.24.13-.44V1.06Z"/>
      <path class="cls-12" d="M52.3,3.36c-.06.29-.12.62-.16.98s-.07.73-.1,1.08c-.02.35-.04.64-.04.86-.02.53-.02,1.07-.01,1.63,0,.56.02,1.13.05,1.72.02.58.06,1.16.11,1.74.11,1.15.27,2.17.48,3.05.21.88.48,1.56.82,2.05.34.49.76.73,1.27.73.27,0,.54-.15.8-.46.26-.3.5-.7.72-1.19.22-.49.41-1,.58-1.55s.32-1.06.44-1.54l2.4,2.93c-.53,1.39-1.05,2.5-1.57,3.32-.52.82-1.06,1.42-1.62,1.78-.56.36-1.17.54-1.82.54-.86,0-1.68-.29-2.46-.86s-1.44-1.51-1.98-2.8c-.54-1.29-.93-3-1.15-5.15-.08-.74-.14-1.51-.18-2.33-.04-.82-.06-1.59-.07-2.33,0-.74-.01-1.34-.01-1.82,0-.34-.02-.74-.05-1.2-.03-.46-.08-.88-.14-1.25l3.7.05ZM64.3,3.91c.45.54.88,1.21,1.3,1.99.42.78.8,1.62,1.15,2.52.35.9.66,1.81.94,2.75.27.94.49,1.85.66,2.74.17.89.28,1.7.32,2.44l-3.17,1.22c-.08-.98-.22-2.04-.43-3.19s-.49-2.31-.84-3.48c-.35-1.17-.77-2.27-1.26-3.31-.49-1.04-1.06-1.94-1.72-2.69l3.05-.98Z"/>
      <path class="cls-7" d="M81.98,2.98c-.66.94-1.48,1.9-2.48,2.88-1,.98-2.11,1.91-3.34,2.81-1.22.9-2.49,1.7-3.8,2.42-.13-.22-.29-.48-.49-.77-.2-.29-.42-.57-.65-.85-.23-.28-.46-.52-.68-.71,1.39-.69,2.72-1.51,4-2.47,1.27-.96,2.41-1.98,3.42-3.05,1.01-1.07,1.81-2.1,2.4-3.07h3c.64.91,1.36,1.78,2.16,2.62.8.83,1.64,1.61,2.53,2.33.89.72,1.81,1.36,2.77,1.92s1.91,1.03,2.86,1.42c-.35.37-.69.78-1.01,1.24-.32.46-.61.91-.86,1.36-.93-.48-1.86-1.04-2.81-1.67-.94-.63-1.85-1.3-2.72-2.02-.87-.71-1.68-1.44-2.41-2.18-.74-.74-1.36-1.48-1.87-2.2ZM74.5,12.82h15.31v9.89h-2.98v-7.37h-9.5v7.37h-2.83v-9.89ZM75.77,19.27h12.41v2.54h-12.41v-2.54ZM76.08,7.87h12.02v2.54h-12.02v-2.54Z"/>
      <path class="cls-11" d="M100.87,7.85c-.26.02-.58.05-.98.11-.4.06-.83.11-1.28.17-.46.06-.92.12-1.38.18s-.9.12-1.3.17l-.31-3.07c.35.02.68.02,1,.01.31,0,.68-.02,1.09-.04.38-.03.84-.08,1.38-.13.54-.06,1.08-.12,1.63-.2s1.07-.17,1.55-.26c.48-.1.86-.19,1.13-.29l.96,1.22c-.14.19-.31.43-.49.72s-.37.58-.56.88c-.19.3-.36.56-.5.78l-1.42,4.51c-.26.37-.57.83-.95,1.39s-.77,1.15-1.19,1.78-.82,1.22-1.22,1.8c-.4.58-.76,1.08-1.08,1.51l-1.9-2.62c.3-.38.66-.83,1.06-1.33.4-.5.81-1.04,1.24-1.61.42-.57.84-1.14,1.26-1.7.42-.57.8-1.1,1.16-1.61.36-.5.66-.94.9-1.31l.05-.62.17-.43ZM100.58,3.22v-1.07c0-.36-.03-.72-.1-1.09l3.5.12c-.08.37-.18.9-.29,1.6-.11.7-.22,1.49-.32,2.39-.1.9-.2,1.84-.29,2.82s-.16,1.96-.22,2.94c-.06.98-.08,1.89-.08,2.74,0,.66,0,1.32.01,1.99s.02,1.36.04,2.06c.02.7.05,1.43.1,2.18.02.21.04.5.07.88.03.38.06.7.1.97h-3.31c.03-.27.05-.59.06-.95,0-.36.01-.64.01-.83.02-.78.03-1.51.05-2.18.02-.67.03-1.38.04-2.14,0-.75.03-1.62.06-2.62.02-.37.04-.84.07-1.4.03-.57.07-1.19.11-1.87.04-.68.08-1.37.13-2.08s.09-1.36.13-1.98c.04-.62.07-1.14.1-1.58.02-.44.04-.74.04-.9ZM106.32,18.26c1.06-.16,2.02-.39,2.9-.7.88-.3,1.64-.7,2.29-1.18s1.15-1.07,1.5-1.76c.35-.7.53-1.52.53-2.46,0-.46-.09-.91-.26-1.34-.18-.43-.44-.82-.78-1.16-.34-.34-.76-.61-1.24-.8s-1.02-.29-1.63-.29c-1.52,0-2.94.4-4.25,1.19-1.31.79-2.55,1.81-3.72,3.06v-3.41c1.44-1.34,2.89-2.29,4.36-2.83s2.84-.82,4.12-.82,2.35.27,3.35.82,1.8,1.3,2.39,2.28c.59.98.89,2.1.89,3.38s-.19,2.31-.58,3.29c-.38.98-.95,1.83-1.7,2.57s-1.69,1.36-2.81,1.86c-1.12.5-2.42.91-3.91,1.21l-1.44-2.9Z"/>
      <path class="cls-16" d="M118.94,7.82c.35,0,.79-.02,1.32-.05.53-.03,1.1-.07,1.7-.12.48-.05,1.19-.12,2.14-.2s2.02-.19,3.22-.3c1.2-.11,2.45-.23,3.76-.35,1.3-.12,2.56-.23,3.76-.32,1.2-.1,2.26-.18,3.19-.24.34-.03.72-.06,1.14-.08.42-.02.81-.05,1.16-.08v2.95c-.13-.02-.34-.02-.62-.02s-.59,0-.9.01c-.31,0-.57.02-.78.04-.62.02-1.38.05-2.28.11-.9.06-1.86.13-2.88.22-1.02.09-2.07.18-3.13.29s-2.08.21-3.06.32c-.98.11-1.86.21-2.64.29-.78.08-1.41.14-1.87.19-.26.03-.57.08-.94.13s-.73.11-1.09.17c-.36.06-.64.1-.85.13l-.34-3.07ZM126.98,2.4c-.06.4-.1.79-.12,1.16-.02.38-.02.82-.02,1.33,0,.43,0,1.01-.01,1.73,0,.72-.02,1.5-.02,2.34,0,.84-.02,1.68-.02,2.52,0,.84-.01,1.6-.01,2.29s0,1.23.02,1.63c.02.59.06,1.08.13,1.45.07.38.23.67.47.88.24.21.62.35,1.14.43.52.08,1.23.12,2.12.12.78,0,1.62-.03,2.5-.08s1.73-.13,2.54-.23c.82-.1,1.53-.19,2.14-.29l-.12,3.26c-.53.06-1.18.12-1.97.18-.78.06-1.6.1-2.45.14-.85.04-1.66.06-2.42.06-1.55,0-2.79-.09-3.72-.26-.93-.18-1.63-.47-2.11-.89-.48-.42-.8-.98-.96-1.68-.16-.7-.26-1.58-.29-2.62,0-.35,0-.82-.01-1.42s-.01-1.25-.01-1.98v-2.24c0-.77,0-1.5.01-2.2,0-.7.01-1.31.01-1.84v-1.15c0-.5-.02-.96-.05-1.39-.03-.43-.08-.86-.14-1.27h3.38ZM136.42,1.68c-.02.13-.03.32-.05.56-.02.25-.03.51-.05.78-.02.27-.03.52-.05.74,0,.53,0,1.04-.01,1.54,0,.5-.02.96-.02,1.4,0,.44-.02.87-.04,1.28-.02.7-.04,1.44-.07,2.21-.03.77-.07,1.48-.12,2.14-.05.66-.11,1.19-.19,1.61-.13.62-.35,1.04-.67,1.26-.32.22-.79.32-1.42.32-.27,0-.64-.02-1.12-.06s-.94-.09-1.39-.16-.83-.11-1.12-.14l.07-2.66c.37.08.77.15,1.21.22.44.06.77.1,1,.1.24,0,.42-.04.54-.11s.19-.22.2-.44c.05-.3.08-.69.11-1.15.02-.46.05-.97.07-1.52.02-.55.04-1.09.06-1.62V3.89c0-.21-.01-.45-.04-.73-.02-.28-.04-.56-.06-.83s-.04-.49-.07-.65h3.22Z"/>
      <path class="cls-13" d="M154.06,8.33c.58,0,1.09.14,1.55.42.46.28.82.65,1.1,1.1.28.46.42.97.42,1.55s-.14,1.07-.42,1.54c-.28.46-.65.84-1.1,1.12s-.97.42-1.55.42-1.07-.14-1.54-.42-.84-.65-1.12-1.12c-.28-.46-.42-.98-.42-1.54s.14-1.09.42-1.55c.28-.46.65-.82,1.12-1.1.46-.28.98-.42,1.54-.42Z"/>
      <path class="cls-1" d="M166.9,6.5c.88-.16,1.94-.38,3.18-.67,1.24-.29,2.49-.58,3.76-.86l.26,2.26c-1.04.34-2.09.65-3.16.95-1.06.3-2.05.57-2.96.83l-1.08-2.5ZM174.1,18.41l2.62,1.2c-.64.42-1.39.82-2.26,1.22-.86.4-1.75.76-2.66,1.09s-1.78.6-2.59.83c-.18-.19-.39-.42-.64-.68-.25-.26-.51-.53-.78-.79-.27-.26-.51-.48-.72-.64.85-.16,1.71-.35,2.58-.58.87-.22,1.7-.48,2.47-.77.78-.29,1.44-.58,1.98-.89ZM167.95,2.45l1.27-1.97c.54.13,1.13.29,1.75.49s1.24.41,1.84.62c.6.22,1.1.42,1.5.61l-1.3,2.18c-.38-.19-.86-.41-1.44-.66-.58-.25-1.18-.48-1.82-.71-.64-.22-1.24-.42-1.8-.58ZM170.16,8.83h16.13v9.77h-16.13v-9.77ZM172.94,10.54v1.03h10.44v-1.03h-10.44ZM172.94,13.2v1.01h10.44v-1.01h-10.44ZM172.94,15.84v1.06h10.44v-1.06h-10.44ZM177.46.12l2.54.43c-.46.94-1.01,1.85-1.63,2.72-.62.87-1.39,1.68-2.3,2.41-.26-.26-.6-.51-1.02-.77-.42-.26-.81-.46-1.16-.6.88-.61,1.62-1.28,2.21-2.03.59-.74,1.05-1.47,1.37-2.17ZM180,2.59h2.57c-.11.85-.3,1.62-.58,2.32-.27.7-.67,1.31-1.19,1.85-.52.54-1.22,1-2.09,1.4s-1.99.74-3.35,1.01c-.11-.3-.3-.66-.55-1.07-.26-.41-.5-.73-.74-.97,1.15-.19,2.1-.42,2.83-.7.74-.27,1.31-.59,1.72-.95.41-.36.72-.78.92-1.26.21-.48.36-1.02.46-1.63ZM177.53,1.73h9.22v2.04h-10.82l1.61-2.04ZM179.4,19.87l2.4-1.37c.86.3,1.74.63,2.63.97.89.34,1.74.69,2.54,1.03.81.34,1.49.65,2.05.92l-3.36,1.3c-.45-.26-1.01-.55-1.68-.89s-1.4-.68-2.17-1.02c-.78-.34-1.58-.66-2.41-.95ZM182.42,3.19c.1.45.26.88.49,1.3.23.42.59.8,1.07,1.14.48.34,1.15.65,2.02.91.86.26,1.98.48,3.34.64-.27.29-.54.66-.82,1.13s-.48.88-.62,1.25c-1.49-.24-2.71-.58-3.66-1.01s-1.7-.92-2.23-1.46c-.54-.54-.94-1.13-1.22-1.76-.28-.63-.5-1.26-.66-1.88l2.3-.24ZM186.07,1.73h.41l.43-.1,1.9.5c-.3.64-.66,1.3-1.07,1.97-.41.67-.8,1.23-1.19,1.68l-2.26-.7c.32-.38.65-.86.98-1.43s.6-1.1.79-1.6v-.34Z"/>
      <path class="cls-6" d="M194.09,9.55l1.61.79c-.21.8-.45,1.64-.72,2.53-.27.89-.58,1.77-.91,2.65-.34.88-.69,1.71-1.06,2.48s-.76,1.45-1.18,2.03c-.08-.3-.2-.64-.35-1s-.31-.72-.48-1.07c-.17-.35-.32-.66-.47-.91.48-.59.95-1.32,1.4-2.2s.88-1.78,1.26-2.71c.38-.94.68-1.8.89-2.6ZM190.94,2.09l2.02-.53c.21.58.4,1.2.56,1.87s.31,1.33.42,1.97c.11.64.19,1.22.24,1.73l-2.16.58c-.02-.51-.08-1.09-.18-1.74-.1-.65-.23-1.31-.38-1.99-.15-.68-.32-1.31-.52-1.88ZM190.97,8.14h9.84v2.69h-9.84v-2.69ZM194.62.24h2.64v22.37h-2.64V.24ZM197.23,10.94c.13.13.32.33.56.6.25.27.52.58.83.92.3.34.6.69.88,1.03.28.34.54.65.77.92.23.27.4.48.49.62l-1.75,2.26c-.16-.35-.37-.76-.62-1.24-.26-.47-.54-.96-.84-1.46-.3-.5-.6-.98-.89-1.43-.29-.45-.54-.82-.74-1.1l1.32-1.13ZM198.84,1.44l2.42.53c-.19.66-.4,1.33-.62,2.02-.22.69-.45,1.35-.67,1.98-.22.63-.43,1.19-.62,1.67l-1.82-.53c.18-.51.35-1.1.52-1.76.17-.66.32-1.34.47-2.03.14-.69.26-1.31.34-1.87ZM200.76,15.14l12.34-2.21.43,2.66-12.34,2.23-.43-2.69ZM201.02,9.43l1.34-2.06c.48.24.98.52,1.49.85s1,.66,1.46.98c.46.33.84.64,1.13.95l-1.46,2.3c-.26-.3-.61-.64-1.06-1-.45-.36-.92-.72-1.43-1.08-.5-.36-1-.68-1.48-.95ZM202.1,3.38l1.42-1.94c.45.26.92.55,1.4.89.49.34.95.68,1.39,1.03.44.35.79.68,1.04.98l-1.49,2.16c-.24-.32-.57-.66-1-1.03-.42-.37-.88-.74-1.36-1.1-.48-.37-.95-.7-1.42-.98ZM207.94.12h2.69v22.54h-2.69V.12Z"/>
      <path class="cls-15" d="M214.78,4.1h9.17v2.28h-9.17v-2.28ZM215.86,14.09h2.42v8.26h-2.42v-8.26ZM215.9,7.49h7.25v2.18h-7.25v-2.18ZM215.9,10.78h7.25v2.16h-7.25v-2.16ZM216,.89h7.1v2.16h-7.1V.89ZM217.15,14.09h6.05v7.32h-6.05v-2.28h3.58v-2.76h-3.58v-2.28ZM223.97,7.25h13.25v2.06h-13.25v-2.06ZM224.52,1.44h12.24v2.04h-12.24V1.44ZM225.14,4.37h11.26v1.92h-11.26v-1.92ZM225.6,10.22h9.19v2.04h-6.55v10.37h-2.64v-12.41ZM226.75,13.32h7.85v1.9h-7.85v-1.9ZM226.75,16.32h7.85v1.87h-7.85v-1.87ZM229.2.12h2.71v8.88h-2.71V.12ZM233.23,10.22h2.69v9.77c0,.59-.07,1.06-.22,1.4-.14.34-.42.61-.84.8-.4.19-.89.31-1.46.35s-1.25.06-2.02.06c-.05-.35-.15-.75-.3-1.19-.15-.44-.3-.81-.44-1.12.43.02.87.02,1.31.02h.88c.16-.02.27-.05.32-.11s.08-.16.08-.3v-9.7Z"/>
      <path class="cls-8" d="M238.68,17.78c.67-.35,1.44-.76,2.32-1.22.87-.46,1.8-.97,2.78-1.52.98-.55,1.96-1.1,2.92-1.64l.96,2.62c-1.2.78-2.44,1.56-3.71,2.34-1.27.78-2.43,1.47-3.47,2.08l-1.8-2.64ZM239.45,3.77h21.31v2.78h-21.31v-2.78ZM240.38,8.88l2.18-1.54c.46.4.94.85,1.42,1.34.48.5.93.99,1.34,1.48.42.49.75.94,1.01,1.36l-2.35,1.73c-.22-.42-.54-.88-.94-1.39-.4-.51-.83-1.03-1.3-1.56-.46-.53-.92-1-1.37-1.42ZM248.52.17h2.95v18.96c0,.85-.1,1.5-.29,1.94s-.54.79-1.06,1.03c-.48.26-1.11.42-1.9.49-.78.07-1.72.1-2.81.08-.05-.42-.17-.92-.37-1.51-.2-.59-.4-1.1-.61-1.51.74.03,1.44.05,2.1.05h1.36c.22,0,.38-.04.48-.13.1-.09.14-.24.14-.44V.17ZM251.26,6.22c.43,1.33.98,2.6,1.66,3.83.67,1.22,1.44,2.37,2.3,3.44.86,1.07,1.82,2.03,2.88,2.87s2.2,1.54,3.43,2.1c-.22.19-.47.44-.74.73-.27.3-.53.61-.78.94-.25.33-.45.63-.61.9-1.68-.9-3.18-2.06-4.49-3.48-1.31-1.42-2.46-3.04-3.43-4.86-.98-1.82-1.8-3.76-2.47-5.82l2.26-.65ZM257.5,7.01l2.54,1.78c-.54.61-1.12,1.23-1.73,1.86-.61.63-1.22,1.23-1.82,1.8-.61.57-1.18,1.08-1.7,1.52l-2.11-1.61c.51-.45,1.06-.98,1.66-1.58.59-.61,1.17-1.24,1.73-1.9.56-.66,1.04-1.28,1.44-1.87ZM253.03,1.82l1.7-1.82c.48.22,1,.48,1.56.77.56.29,1.1.59,1.62.9.52.31.95.6,1.28.85l-1.8,2.02c-.32-.27-.73-.57-1.22-.89-.5-.32-1.02-.64-1.57-.96-.55-.32-1.08-.61-1.57-.86Z"/>
      <path class="cls-2" d="M268.85,1.99c-.05.16-.12.38-.2.67s-.16.57-.22.84c-.06.27-.1.48-.13.62-.08.34-.17.79-.26,1.36-.1.57-.2,1.21-.3,1.92-.1.71-.2,1.44-.3,2.18-.1.74-.17,1.45-.22,2.11s-.07,1.24-.07,1.72c0,.24,0,.5.01.78,0,.28.04.54.08.78.11-.29.23-.57.35-.84s.24-.54.37-.82c.13-.27.25-.54.36-.82l1.46,1.2c-.22.66-.45,1.34-.68,2.06-.23.72-.44,1.4-.62,2.04-.18.64-.32,1.18-.42,1.61-.03.16-.06.35-.08.58s-.04.41-.04.55c0,.13,0,.28.01.47,0,.18.02.36.04.52l-2.71.22c-.26-.85-.48-1.93-.67-3.25-.19-1.32-.29-2.8-.29-4.43,0-.9.04-1.84.12-2.82s.17-1.93.28-2.84c.1-.91.21-1.75.32-2.51.11-.76.2-1.37.26-1.84.05-.34.1-.72.14-1.14.05-.42.08-.83.1-1.21l3.31.29ZM280.56,1.73c-.03.22-.06.47-.08.74-.02.27-.04.54-.06.82-.02.26-.03.6-.05,1.03-.02.43-.02.92-.02,1.45v1.69c0,1.09.02,2.11.05,3.06.03.95.07,1.83.12,2.64.05.81.09,1.55.13,2.22.04.67.06,1.3.06,1.87,0,.62-.08,1.2-.25,1.73-.17.53-.44.99-.8,1.39s-.85.71-1.45.92c-.6.22-1.33.32-2.2.32-1.67,0-2.98-.34-3.94-1.01-.96-.67-1.44-1.64-1.44-2.9,0-.82.22-1.53.65-2.15.43-.62,1.05-1.1,1.85-1.44.8-.34,1.74-.52,2.83-.52s2.17.12,3.1.36c.93.24,1.78.56,2.54.96.77.4,1.45.84,2.05,1.31.6.47,1.14.92,1.62,1.36l-1.66,2.52c-.91-.86-1.8-1.61-2.66-2.23-.86-.62-1.72-1.1-2.58-1.44-.86-.34-1.74-.5-2.65-.5-.67,0-1.22.13-1.64.38-.42.26-.64.62-.64,1.08s.22.83.65,1.06c.43.22.96.34,1.58.34.5,0,.89-.08,1.18-.25s.49-.42.61-.74c.12-.33.18-.72.18-1.19,0-.42-.02-.96-.05-1.63-.03-.67-.07-1.42-.11-2.26s-.08-1.7-.11-2.6-.05-1.79-.05-2.65c0-.91,0-1.74-.01-2.48s-.01-1.3-.01-1.67c0-.18-.02-.42-.05-.74-.03-.32-.07-.6-.12-.84h3.43ZM271.44,5.78c.69.06,1.38.12,2.08.16.7.04,1.4.06,2.12.06,1.47,0,2.94-.06,4.39-.19s2.8-.33,4.03-.6v3c-1.25.18-2.6.32-4.06.42-1.46.1-2.91.16-4.37.16-.7,0-1.4-.01-2.1-.04-.7-.02-1.4-.06-2.1-.11v-2.86Z"/>
      <path class="cls-5" d="M293.3,13.25c-.11.42-.21.82-.29,1.22s-.12.8-.12,1.2c0,.77.39,1.4,1.16,1.9.78.5,2.03.74,3.76.74,1.09,0,2.14-.04,3.14-.12,1.01-.08,1.96-.19,2.87-.34.9-.14,1.71-.31,2.41-.5l.02,3.38c-.7.16-1.49.3-2.35.42-.86.12-1.8.22-2.8.29-1,.07-2.06.11-3.18.11-1.82,0-3.35-.2-4.58-.6-1.23-.4-2.15-.98-2.76-1.74-.61-.76-.91-1.69-.91-2.8,0-.7.06-1.34.17-1.92.11-.58.22-1.09.31-1.54l3.14.29ZM291.29,3.07c.88.1,1.87.17,2.98.22,1.1.05,2.29.07,3.55.07.78,0,1.6-.02,2.44-.05.84-.03,1.65-.07,2.44-.12.78-.05,1.48-.1,2.09-.17v3.19c-.56.05-1.24.1-2.03.14-.79.05-1.62.08-2.47.11-.86.02-1.67.04-2.44.04-1.25,0-2.41-.02-3.48-.07-1.07-.05-2.1-.11-3.07-.19v-3.17Z"/>
      <path class="cls-10" d="M312.55,4.2c.77.13,1.6.24,2.5.32.9.09,1.72.13,2.47.13s1.61-.02,2.53-.07,1.89-.12,2.92-.22c1.02-.1,2.05-.22,3.08-.37,1.03-.15,2.04-.33,3.04-.54l.05,2.86c-.77.13-1.64.26-2.6.38-.97.13-1.98.24-3.04.35-1.06.1-2.1.19-3.12.25-1.02.06-1.97.1-2.83.1-.93,0-1.81-.02-2.65-.06-.84-.04-1.62-.09-2.34-.16v-2.98ZM320.93,1.39c-.13.42-.24.83-.32,1.24-.09.41-.17.81-.25,1.21-.08.38-.17.82-.28,1.32-.1.5-.22,1.02-.34,1.57-.12.55-.25,1.11-.38,1.67-.14.56-.28,1.11-.42,1.64-.14.54-.28,1.03-.41,1.48.98-.54,1.94-.93,2.9-1.16.96-.23,1.98-.35,3.05-.35,1.3,0,2.43.22,3.4.65.97.43,1.72,1.03,2.26,1.8s.8,1.66.8,2.69c0,1.34-.31,2.48-.92,3.41-.62.93-1.5,1.66-2.64,2.18-1.14.53-2.51.86-4.1,1.01s-3.36.11-5.29-.1l-.84-3.1c1.31.22,2.6.34,3.85.34s2.39-.12,3.4-.36c1.01-.24,1.81-.63,2.41-1.16.6-.54.9-1.24.9-2.12,0-.72-.3-1.34-.91-1.86-.61-.52-1.5-.78-2.66-.78-1.39,0-2.67.24-3.83.72-1.16.48-2.1,1.18-2.82,2.09-.11.18-.22.34-.32.5-.1.16-.22.34-.35.55l-2.83-1.01c.45-.86.86-1.85,1.25-2.95s.73-2.22,1.03-3.34c.3-1.12.55-2.16.74-3.13.19-.97.33-1.76.41-2.36.08-.51.13-.95.14-1.31.02-.36,0-.73-.02-1.12l3.41.14Z"/>
      <path class="cls-3" d="M342.22,6.02c-.08.32-.16.73-.25,1.24-.09.5-.17,1.03-.25,1.57s-.16,1.06-.23,1.56c-.07.5-.13.91-.18,1.25,1.09-.78,2.23-1.36,3.42-1.73,1.19-.37,2.41-.55,3.66-.55,1.41,0,2.61.26,3.6.77.99.51,1.75,1.18,2.27,2.02.52.83.78,1.74.78,2.71,0,1.09-.23,2.1-.7,3.02-.46.93-1.22,1.72-2.28,2.38-1.06.66-2.44,1.12-4.15,1.39s-3.82.3-6.31.1l-.91-3.14c2.4.32,4.42.36,6.05.13,1.63-.23,2.87-.7,3.71-1.39.84-.7,1.26-1.55,1.26-2.56,0-.53-.15-1-.46-1.4-.3-.41-.73-.73-1.27-.96-.54-.23-1.16-.35-1.85-.35-1.34,0-2.6.24-3.78.73s-2.14,1.19-2.89,2.1c-.21.26-.38.49-.52.71-.14.22-.26.44-.37.68l-2.76-.7c.1-.46.19-1.01.29-1.64.1-.63.19-1.31.29-2.04.1-.73.18-1.46.26-2.2s.15-1.46.22-2.18c.06-.72.11-1.38.14-1.97l3.22.46ZM342.07,1.2c.58.18,1.3.36,2.16.55s1.77.38,2.71.56c.94.18,1.84.34,2.68.47.84.13,1.52.22,2.05.29l-.72,2.93c-.48-.06-1.06-.16-1.74-.28-.68-.12-1.4-.25-2.16-.4s-1.51-.29-2.24-.44c-.74-.15-1.41-.3-2.02-.44-.61-.14-1.1-.26-1.49-.36l.77-2.88Z"/>
      <path class="cls-4" d="M372.38,1.1c-.03.24-.06.51-.08.8-.02.3-.04.6-.06.9-.02.32-.03.75-.05,1.28-.02.54-.02,1.12-.02,1.76v3.6c0,.67.02,1.42.05,2.24.03.82.08,1.66.13,2.5.06.84.1,1.62.14,2.35.04.73.06,1.33.06,1.81,0,.67-.18,1.28-.53,1.84-.35.55-.88.99-1.57,1.31-.7.32-1.57.48-2.63.48-1.92,0-3.38-.35-4.37-1.06-.99-.7-1.49-1.69-1.49-2.95,0-.82.24-1.53.71-2.15.47-.62,1.15-1.1,2.04-1.45.89-.35,1.95-.53,3.18-.53,1.31,0,2.54.14,3.68.42,1.14.28,2.19.64,3.13,1.09.94.45,1.78.92,2.52,1.42.74.5,1.36.94,1.87,1.34l-1.73,2.69c-.58-.54-1.22-1.08-1.93-1.61-.71-.53-1.49-1.01-2.33-1.44-.84-.43-1.73-.78-2.66-1.04-.94-.26-1.92-.4-2.96-.4-.83,0-1.48.14-1.93.43s-.68.64-.68,1.06c0,.3.1.57.29.79.19.22.47.39.84.5.37.11.83.17,1.39.17.43,0,.8-.05,1.12-.14.31-.1.56-.27.73-.53.18-.26.26-.62.26-1.08,0-.35-.01-.86-.04-1.51-.02-.66-.05-1.38-.08-2.17s-.06-1.57-.1-2.34c-.03-.77-.05-1.45-.05-2.04s0-1.18.01-1.81c0-.63.01-1.26.01-1.88s0-1.2.01-1.72c0-.52.01-.95.01-1.28,0-.22-.01-.5-.04-.83-.02-.33-.06-.6-.11-.83h3.24ZM362.3,8.54c.38.06.84.13,1.37.19.53.06,1.07.11,1.62.14.55.03,1.08.06,1.57.08s.9.04,1.22.04c1.49,0,2.84-.03,4.04-.1,1.21-.06,2.34-.14,3.4-.24,1.06-.1,2.07-.21,3.05-.34l-.02,2.83c-.83.1-1.64.18-2.41.24-.78.06-1.57.12-2.38.17-.81.05-1.68.08-2.6.1-.93.02-1.97.02-3.12.02-.46,0-1.04-.01-1.73-.04s-1.39-.06-2.1-.11-1.34-.1-1.88-.17l-.02-2.83ZM362.42,3.36c.43.06.91.13,1.44.19.53.06,1.07.12,1.62.18.55.06,1.08.1,1.57.12s.93.04,1.3.04c1.63,0,3.26-.05,4.88-.16,1.62-.1,3.31-.3,5.05-.59l-.02,2.76c-.82.11-1.76.22-2.83.31-1.07.1-2.21.17-3.42.23-1.21.06-2.42.08-3.64.08-.5,0-1.11-.02-1.84-.06-.73-.04-1.45-.1-2.17-.17-.72-.07-1.34-.14-1.87-.2l-.07-2.74Z"/>
      <path class="cls-14" d="M383.71,4.06c.48-.02.94-.04,1.37-.06.43-.02.76-.04.98-.06.5-.03,1.11-.08,1.84-.16.73-.07,1.54-.15,2.45-.23.9-.08,1.87-.16,2.89-.24,1.02-.08,2.09-.17,3.19-.26.83-.08,1.66-.15,2.48-.2.82-.06,1.61-.1,2.35-.14s1.4-.07,1.96-.08l.02,3.07c-.43,0-.93,0-1.49.02-.56.02-1.12.04-1.67.08-.55.04-1.04.12-1.48.23-.72.19-1.39.52-2.02.97s-1.16.99-1.62,1.61c-.46.62-.81,1.28-1.07,1.99-.26.71-.38,1.43-.38,2.15,0,.78.14,1.48.42,2.08.28.6.66,1.11,1.15,1.54.49.42,1.06.78,1.72,1.06.66.28,1.36.49,2.12.64s1.55.24,2.36.29l-1.13,3.29c-1.01-.06-1.99-.22-2.94-.48-.95-.26-1.84-.61-2.68-1.06s-1.56-1-2.17-1.64c-.62-.65-1.1-1.39-1.46-2.23-.36-.84-.54-1.78-.54-2.82,0-1.15.18-2.21.55-3.18.37-.97.83-1.82,1.38-2.54.55-.73,1.1-1.29,1.64-1.69-.45.06-.99.13-1.62.19-.63.06-1.31.14-2.04.23-.73.09-1.47.18-2.22.28-.75.1-1.48.2-2.17.32-.7.12-1.32.24-1.88.35l-.31-3.29ZM399.82,8.04c.21.29.43.63.66,1.02.23.39.46.78.68,1.18.22.39.42.75.58,1.07l-1.82.82c-.3-.67-.6-1.26-.88-1.78-.28-.51-.61-1.03-1-1.56l1.78-.74ZM402.5,6.94c.21.29.44.62.68,1s.49.76.73,1.15c.24.39.44.74.6,1.04l-1.8.86c-.32-.64-.63-1.21-.92-1.7-.3-.5-.64-1.01-1.04-1.54l1.75-.82Z"/>
    </g>
  </g>
</svg>