<?xml version="1.0" encoding="UTF-8"?>
<svg id="_レイヤー_2" data-name="レイヤー 2" xmlns="http://www.w3.org/2000/svg" xmlns:xlink="http://www.w3.org/1999/xlink" viewBox="0 0 454.52 50">
  <defs>
    <style>
      .cls-1 {
        fill: url(#_名称未設定グラデーション_9-11);
      }

      .cls-2 {
        fill: url(#_名称未設定グラデーション_9-3);
      }

      .cls-3 {
        fill: url(#_名称未設定グラデーション_9-9);
      }

      .cls-4 {
        fill: url(#_名称未設定グラデーション_9-6);
      }

      .cls-5 {
        fill: url(#_名称未設定グラデーション_9-7);
      }

      .cls-6 {
        fill: url(#_名称未設定グラデーション_9-10);
      }

      .cls-7 {
        fill: url(#_名称未設定グラデーション_9-4);
      }

      .cls-8 {
        fill: url(#_名称未設定グラデーション_9-5);
      }

      .cls-9 {
        fill: url(#_名称未設定グラデーション_9-8);
      }

      .cls-10 {
        fill: url(#_名称未設定グラデーション_9-2);
      }

      .cls-11 {
        fill: url(#_名称未設定グラデーション_9-12);
      }

      .cls-12 {
        fill: url(#_名称未設定グラデーション_9);
      }

      .cls-13 {
        fill: lime;
      }
    </style>
    <linearGradient id="_名称未設定グラデーション_9" data-name="名称未設定グラデーション 9" x1="75.5" y1="3.7" x2="75.5" y2="48.64" gradientUnits="userSpaceOnUse">
      <stop offset="0" stop-color="#ff3"/>
      <stop offset="1" stop-color="#fc0"/>
    </linearGradient>
    <linearGradient id="_名称未設定グラデーション_9-2" data-name="名称未設定グラデーション 9" x1="111.47" y1="4.54" x2="111.47" y2="47.8" xlink:href="#_名称未設定グラデーション_9"/>
    <linearGradient id="_名称未設定グラデーション_9-3" data-name="名称未設定グラデーション 9" x1="145.82" x2="145.82" y2="47.8" xlink:href="#_名称未設定グラデーション_9"/>
    <linearGradient id="_名称未設定グラデーション_9-4" data-name="名称未設定グラデーション 9" x1="181.7" x2="181.7" xlink:href="#_名称未設定グラデーション_9"/>
    <linearGradient id="_名称未設定グラデーション_9-5" data-name="名称未設定グラデーション 9" x1="210.53" y1="27.46" x2="210.53" y2="33.82" xlink:href="#_名称未設定グラデーション_9"/>
    <linearGradient id="_名称未設定グラデーション_9-6" data-name="名称未設定グラデーション 9" x1="239.51" x2="239.51" xlink:href="#_名称未設定グラデーション_9"/>
    <linearGradient id="_名称未設定グラデーション_9-7" data-name="名称未設定グラデーション 9" x1="274.73" x2="274.73" xlink:href="#_名称未設定グラデーション_9"/>
    <linearGradient id="_名称未設定グラデーション_9-8" data-name="名称未設定グラデーション 9" x1="310.31" x2="310.31" xlink:href="#_名称未設定グラデーション_9"/>
    <linearGradient id="_名称未設定グラデーション_9-9" data-name="名称未設定グラデーション 9" x1="338.93" y1="27.46" x2="338.93" y2="33.82" xlink:href="#_名称未設定グラデーション_9"/>
    <linearGradient id="_名称未設定グラデーション_9-10" data-name="名称未設定グラデーション 9" x1="367.91" x2="367.91" xlink:href="#_名称未設定グラデーション_9"/>
    <linearGradient id="_名称未設定グラデーション_9-11" data-name="名称未設定グラデーション 9" x1="403.13" x2="403.13" xlink:href="#_名称未設定グラデーション_9"/>
    <linearGradient id="_名称未設定グラデーション_9-12" data-name="名称未設定グラデーション 9" x1="438.29" y1="4.54" x2="438.29" y2="47.8" xlink:href="#_名称未設定グラデーション_9"/>
  </defs>
  <g id="_レイヤー_10" data-name="レイヤー 10">
    <path class="cls-13" d="M25,0C11.19,0,0,11.19,0,25s11.19,25,25,25,25-11.19,25-25S38.81,0,25,0ZM36.98,41.65c-.18.3-.44.54-.76.7l-1.64.71c-1.23.55-2.49.82-3.79.82-1.05,0-2.08-.17-3.1-.51-1.02-.34-2-.83-2.93-1.46-.93-.64-1.81-1.4-2.63-2.29-.82-.89-1.56-1.89-2.21-2.98-.4-.62-.83-1.32-1.29-2.11-.38-.67-.82-1.46-1.31-2.38-.49-.92-.98-1.95-1.49-3.07-1.2-2.65-2.01-4.97-2.45-6.98-.44-2.01-.65-3.7-.65-5.06,0-1.09.11-2.15.34-3.17.23-1.02.58-1.97,1.05-2.84.47-.87,1.06-1.65,1.77-2.34.71-.69,1.55-1.25,2.53-1.67l1.64-.71c.27-.12.52-.18.75-.18.35,0,.69.1,1,.3.31.2.55.47.71.81l3.04,6.81c.12.27.18.52.18.75,0,.35-.1.69-.31,1-.21.31-.49.55-.84.71l-3.1,1.42c-.47.22-.81.5-1.02.84-.21.34-.31.72-.31,1.15,0,.15.01.3.03.44.02.15.07.3.14.44l5.19,11.62c.19.41.47.73.83.94.36.21.75.32,1.16.32.28,0,.58-.06.89-.18l3.17-1.4c.25-.1.51-.16.78-.16.37,0,.71.09,1.01.28.3.18.53.45.68.79l3.04,6.87c.12.27.18.52.18.78,0,.35-.09.68-.28.99Z"/>
    <g>
      <path class="cls-12" d="M75.5,48.64c-3.04,0-5.69-.87-7.95-2.61-2.26-1.74-4.01-4.29-5.25-7.65-1.24-3.36-1.86-7.48-1.86-12.36s.62-9.03,1.86-12.33c1.24-3.3,2.99-5.79,5.25-7.47,2.26-1.68,4.91-2.52,7.95-2.52s5.69.84,7.95,2.52c2.26,1.68,4.01,4.17,5.25,7.47,1.24,3.3,1.86,7.41,1.86,12.33s-.62,9-1.86,12.36c-1.24,3.36-2.99,5.91-5.25,7.65-2.26,1.74-4.91,2.61-7.95,2.61ZM75.5,41.74c1.32,0,2.48-.47,3.48-1.41,1-.94,1.78-2.56,2.34-4.86.56-2.3.84-5.45.84-9.45s-.28-7.18-.84-9.42c-.56-2.24-1.34-3.8-2.34-4.68-1-.88-2.16-1.32-3.48-1.32-1.24,0-2.37.44-3.39,1.32-1.02.88-1.83,2.44-2.43,4.68-.6,2.24-.9,5.38-.9,9.42s.3,7.15.9,9.45c.6,2.3,1.41,3.92,2.43,4.86,1.02.94,2.15,1.41,3.39,1.41Z"/>
      <path class="cls-10" d="M98.12,47.8v-7.2h9.6V13.78h-8.1v-5.52c2.24-.44,4.17-.96,5.79-1.56s3.13-1.32,4.53-2.16h6.54v36.06h8.34v7.2h-26.7Z"/>
      <path class="cls-2" d="M131.18,47.8v-5.1c3.84-3.68,7.2-7.01,10.08-9.99,2.88-2.98,5.12-5.7,6.72-8.16,1.6-2.46,2.4-4.75,2.4-6.87,0-1.48-.26-2.74-.78-3.78-.52-1.04-1.27-1.84-2.25-2.4-.98-.56-2.19-.84-3.63-.84-1.6,0-3.07.46-4.41,1.38-1.34.92-2.57,1.98-3.69,3.18l-4.92-4.8c2.08-2.2,4.21-3.87,6.39-5.01,2.18-1.14,4.77-1.71,7.77-1.71,2.8,0,5.25.56,7.35,1.68,2.1,1.12,3.73,2.69,4.89,4.71,1.16,2.02,1.74,4.39,1.74,7.11,0,2.48-.69,5.02-2.07,7.62-1.38,2.6-3.2,5.23-5.46,7.89-2.26,2.66-4.73,5.39-7.41,8.19,1.12-.16,2.36-.29,3.72-.39,1.36-.1,2.56-.15,3.6-.15h9.72v7.44h-29.76Z"/>
      <path class="cls-7" d="M181.7,48.64c-3.04,0-5.69-.87-7.95-2.61-2.26-1.74-4.01-4.29-5.25-7.65-1.24-3.36-1.86-7.48-1.86-12.36s.62-9.03,1.86-12.33c1.24-3.3,2.99-5.79,5.25-7.47,2.26-1.68,4.91-2.52,7.95-2.52s5.69.84,7.95,2.52c2.26,1.68,4.01,4.17,5.25,7.47,1.24,3.3,1.86,7.41,1.86,12.33s-.62,9-1.86,12.36c-1.24,3.36-2.99,5.91-5.25,7.65-2.26,1.74-4.91,2.61-7.95,2.61ZM181.7,41.74c1.32,0,2.48-.47,3.48-1.41,1-.94,1.78-2.56,2.34-4.86.56-2.3.84-5.45.84-9.45s-.28-7.18-.84-9.42c-.56-2.24-1.34-3.8-2.34-4.68-1-.88-2.16-1.32-3.48-1.32-1.24,0-2.37.44-3.39,1.32-1.02.88-1.83,2.44-2.43,4.68-.6,2.24-.9,5.38-.9,9.42s.3,7.15.9,9.45c.6,2.3,1.41,3.92,2.43,4.86,1.02.94,2.15,1.41,3.39,1.41Z"/>
      <path class="cls-8" d="M202.34,33.82v-6.36h16.38v6.36h-16.38Z"/>
      <path class="cls-4" d="M240.5,48.64c-2.12,0-4.13-.42-6.03-1.26-1.9-.84-3.6-2.12-5.1-3.84-1.5-1.72-2.68-3.92-3.54-6.6-.86-2.68-1.29-5.88-1.29-9.6,0-4.16.46-7.72,1.38-10.68.92-2.96,2.2-5.4,3.84-7.32,1.64-1.92,3.49-3.34,5.55-4.26,2.06-.92,4.19-1.38,6.39-1.38,2.72,0,5.09.5,7.11,1.5,2.02,1,3.69,2.18,5.01,3.54l-4.74,5.28c-.76-.88-1.76-1.62-3-2.22-1.24-.6-2.52-.9-3.84-.9-1.76,0-3.37.51-4.83,1.53s-2.62,2.72-3.48,5.1c-.86,2.38-1.29,5.65-1.29,9.81,0,3.56.34,6.41,1.02,8.55.68,2.14,1.6,3.69,2.76,4.65,1.16.96,2.46,1.44,3.9,1.44,1.12,0,2.14-.29,3.06-.87.92-.58,1.65-1.44,2.19-2.58s.81-2.55.81-4.23-.26-3.04-.78-4.08c-.52-1.04-1.26-1.8-2.22-2.28s-2.08-.72-3.36-.72c-1.2,0-2.45.37-3.75,1.11-1.3.74-2.53,2.05-3.69,3.93l-.36-6c.84-1.12,1.8-2.08,2.88-2.88,1.08-.8,2.2-1.41,3.36-1.83,1.16-.42,2.24-.63,3.24-.63,2.48,0,4.68.48,6.6,1.44s3.43,2.43,4.53,4.41c1.1,1.98,1.65,4.49,1.65,7.53s-.64,5.45-1.92,7.59c-1.28,2.14-2.97,3.8-5.07,4.98-2.1,1.18-4.43,1.77-6.99,1.77Z"/>
      <path class="cls-5" d="M274.7,48.64c-2.84,0-5.38-.5-7.62-1.5-2.24-1-4.01-2.4-5.31-4.2-1.3-1.8-1.95-3.86-1.95-6.18,0-1.8.36-3.38,1.08-4.74.72-1.36,1.65-2.56,2.79-3.6,1.14-1.04,2.39-1.92,3.75-2.64v-.24c-1.68-1.2-3.08-2.62-4.2-4.26-1.12-1.64-1.68-3.58-1.68-5.82,0-2.44.58-4.53,1.74-6.27,1.16-1.74,2.75-3.09,4.77-4.05,2.02-.96,4.31-1.44,6.87-1.44s4.92.49,6.84,1.47c1.92.98,3.41,2.35,4.47,4.11,1.06,1.76,1.59,3.82,1.59,6.18,0,1.4-.27,2.72-.81,3.96-.54,1.24-1.25,2.34-2.13,3.3-.88.96-1.8,1.78-2.76,2.46v.3c1.36.76,2.61,1.64,3.75,2.64,1.14,1,2.05,2.2,2.73,3.6.68,1.4,1.02,3.08,1.02,5.04,0,2.24-.63,4.26-1.89,6.06s-3.01,3.22-5.25,4.26c-2.24,1.04-4.84,1.56-7.8,1.56ZM274.88,42.4c1.28,0,2.41-.23,3.39-.69.98-.46,1.75-1.14,2.31-2.04.56-.9.84-1.97.84-3.21,0-1.12-.25-2.06-.75-2.82-.5-.76-1.19-1.44-2.07-2.04-.88-.6-1.92-1.17-3.12-1.71-1.2-.54-2.52-1.09-3.96-1.65-1.2.92-2.18,2.02-2.94,3.3-.76,1.28-1.14,2.7-1.14,4.26,0,1.32.33,2.47.99,3.45.66.98,1.55,1.75,2.67,2.31,1.12.56,2.38.84,3.78.84ZM277.46,23.08c1.04-1.12,1.83-2.26,2.37-3.42.54-1.16.81-2.38.81-3.66,0-1.16-.23-2.21-.69-3.15-.46-.94-1.13-1.66-2.01-2.16-.88-.5-1.94-.75-3.18-.75-1.52,0-2.8.47-3.84,1.41-1.04.94-1.56,2.31-1.56,4.11,0,1.32.36,2.42,1.08,3.3.72.88,1.69,1.66,2.91,2.34,1.22.68,2.59,1.34,4.11,1.98Z"/>
      <path class="cls-9" d="M311.3,48.64c-2.12,0-4.13-.42-6.03-1.26-1.9-.84-3.6-2.12-5.1-3.84-1.5-1.72-2.68-3.92-3.54-6.6-.86-2.68-1.29-5.88-1.29-9.6,0-4.16.46-7.72,1.38-10.68.92-2.96,2.2-5.4,3.84-7.32,1.64-1.92,3.49-3.34,5.55-4.26,2.06-.92,4.19-1.38,6.39-1.38,2.72,0,5.09.5,7.11,1.5,2.02,1,3.69,2.18,5.01,3.54l-4.74,5.28c-.76-.88-1.76-1.62-3-2.22-1.24-.6-2.52-.9-3.84-.9-1.76,0-3.37.51-4.83,1.53s-2.62,2.72-3.48,5.1c-.86,2.38-1.29,5.65-1.29,9.81,0,3.56.34,6.41,1.02,8.55.68,2.14,1.6,3.69,2.76,4.65,1.16.96,2.46,1.44,3.9,1.44,1.12,0,2.14-.29,3.06-.87.92-.58,1.65-1.44,2.19-2.58s.81-2.55.81-4.23-.26-3.04-.78-4.08c-.52-1.04-1.26-1.8-2.22-2.28s-2.08-.72-3.36-.72c-1.2,0-2.45.37-3.75,1.11-1.3.74-2.53,2.05-3.69,3.93l-.36-6c.84-1.12,1.8-2.08,2.88-2.88,1.08-.8,2.2-1.41,3.36-1.83,1.16-.42,2.24-.63,3.24-.63,2.48,0,4.68.48,6.6,1.44s3.43,2.43,4.53,4.41c1.1,1.98,1.65,4.49,1.65,7.53s-.64,5.45-1.92,7.59c-1.28,2.14-2.97,3.8-5.07,4.98-2.1,1.18-4.43,1.77-6.99,1.77Z"/>
      <path class="cls-3" d="M330.74,33.82v-6.36h16.38v6.36h-16.38Z"/>
      <path class="cls-6" d="M368.9,48.64c-2.12,0-4.13-.42-6.03-1.26-1.9-.84-3.6-2.12-5.1-3.84-1.5-1.72-2.68-3.92-3.54-6.6-.86-2.68-1.29-5.88-1.29-9.6,0-4.16.46-7.72,1.38-10.68.92-2.96,2.2-5.4,3.84-7.32,1.64-1.92,3.49-3.34,5.55-4.26,2.06-.92,4.19-1.38,6.39-1.38,2.72,0,5.09.5,7.11,1.5,2.02,1,3.69,2.18,5.01,3.54l-4.74,5.28c-.76-.88-1.76-1.62-3-2.22-1.24-.6-2.52-.9-3.84-.9-1.76,0-3.37.51-4.83,1.53s-2.62,2.72-3.48,5.1c-.86,2.38-1.29,5.65-1.29,9.81,0,3.56.34,6.41,1.02,8.55.68,2.14,1.6,3.69,2.76,4.65,1.16.96,2.46,1.44,3.9,1.44,1.12,0,2.14-.29,3.06-.87.92-.58,1.65-1.44,2.19-2.58s.81-2.55.81-4.23-.26-3.04-.78-4.08c-.52-1.04-1.26-1.8-2.22-2.28s-2.08-.72-3.36-.72c-1.2,0-2.45.37-3.75,1.11-1.3.74-2.53,2.05-3.69,3.93l-.36-6c.84-1.12,1.8-2.08,2.88-2.88,1.08-.8,2.2-1.41,3.36-1.83,1.16-.42,2.24-.63,3.24-.63,2.48,0,4.68.48,6.6,1.44s3.43,2.43,4.53,4.41c1.1,1.98,1.65,4.49,1.65,7.53s-.64,5.45-1.92,7.59c-1.28,2.14-2.97,3.8-5.07,4.98-2.1,1.18-4.43,1.77-6.99,1.77Z"/>
      <path class="cls-1" d="M403.1,48.64c-2.84,0-5.38-.5-7.62-1.5-2.24-1-4.01-2.4-5.31-4.2-1.3-1.8-1.95-3.86-1.95-6.18,0-1.8.36-3.38,1.08-4.74.72-1.36,1.65-2.56,2.79-3.6,1.14-1.04,2.39-1.92,3.75-2.64v-.24c-1.68-1.2-3.08-2.62-4.2-4.26-1.12-1.64-1.68-3.58-1.68-5.82,0-2.44.58-4.53,1.74-6.27,1.16-1.74,2.75-3.09,4.77-4.05,2.02-.96,4.31-1.44,6.87-1.44s4.92.49,6.84,1.47c1.92.98,3.41,2.35,4.47,4.11,1.06,1.76,1.59,3.82,1.59,6.18,0,1.4-.27,2.72-.81,3.96-.54,1.24-1.25,2.34-2.13,3.3-.88.96-1.8,1.78-2.76,2.46v.3c1.36.76,2.61,1.64,3.75,2.64,1.14,1,2.05,2.2,2.73,3.6.68,1.4,1.02,3.08,1.02,5.04,0,2.24-.63,4.26-1.89,6.06s-3.01,3.22-5.25,4.26c-2.24,1.04-4.84,1.56-7.8,1.56ZM403.28,42.4c1.28,0,2.41-.23,3.39-.69.98-.46,1.75-1.14,2.31-2.04.56-.9.84-1.97.84-3.21,0-1.12-.25-2.06-.75-2.82-.5-.76-1.19-1.44-2.07-2.04-.88-.6-1.92-1.17-3.12-1.71-1.2-.54-2.52-1.09-3.96-1.65-1.2.92-2.18,2.02-2.94,3.3-.76,1.28-1.14,2.7-1.14,4.26,0,1.32.33,2.47.99,3.45.66.98,1.55,1.75,2.67,2.31,1.12.56,2.38.84,3.78.84ZM405.86,23.08c1.04-1.12,1.83-2.26,2.37-3.42.54-1.16.81-2.38.81-3.66,0-1.16-.23-2.21-.69-3.15-.46-.94-1.13-1.66-2.01-2.16-.88-.5-1.94-.75-3.18-.75-1.52,0-2.8.47-3.84,1.41-1.04.94-1.56,2.31-1.56,4.11,0,1.32.36,2.42,1.08,3.3.72.88,1.69,1.66,2.91,2.34,1.22.68,2.59,1.34,4.11,1.98Z"/>
      <path class="cls-11" d="M441.02,47.8v-26.1c0-1.32.04-2.88.12-4.68.08-1.8.16-3.36.24-4.68h-.3c-.52,1.16-1.08,2.32-1.68,3.48-.6,1.16-1.22,2.34-1.86,3.54l-6.9,10.92h23.88v6.78h-32.46v-6.06l16.56-26.46h10.62v43.26h-8.22Z"/>
    </g>
  </g>
</svg>