<?xml version="1.0" encoding="UTF-8"?>
<svg id="_レイヤー_2" data-name="レイヤー 2" xmlns="http://www.w3.org/2000/svg" viewBox="0 0 380.52 94.26">
  <defs>
    <style>
      .cls-1 {
        fill: #fc0;
      }

      .cls-2 {
        fill: #ff3;
      }
    </style>
  </defs>
  <g id="_花" data-name="花">
    <g>
      <path class="cls-1" d="M44.52,79.69c-4.31.74-11.48,3.23-11.48,6.22,0,6.69,9.89,7.29,11.48,8.34,1.6-1.05,11.48-1.65,11.48-8.34,0-2.99-7.18-5.48-11.48-6.22Z"/>
      <path class="cls-1" d="M66.73,81.51c-3.29-.1-10.73-1.4-15.06-1.4,1.92.82,4.03,1.94,6.82,4.49,3.2,2.93,3.23,4.98,5.65,6.04,3.16,1.39,9.86,1.42,13.94.16,3.68-1.14,5.92-3.67,7.75-4.89-3.4-1.52-4.04-3.19-6.29-4.08-4.49-1.78-7.97-.18-12.81-.32Z"/>
      <path class="cls-1" d="M57.02,71.71c-2.13,1.5-8.27,4.22-10.18,4.94,4.65.41,8.68,1.09,12,1.81,5.4,1.16,7.58,1.5,10.66,1.39,3.97-.15,7.84-.48,10.42-4.32,2.65-3.94,1.62-7.47,4.84-10.65,1.08-1.07,2.76-2.7,4.27-3.45-5.52-4.38-10-4.13-11.48-3.96-4.29.51-6.02,2.81-10.5,7.01-2.79,2.61-7.94,5.77-10.03,7.24Z"/>
      <path class="cls-1" d="M62.82,63.87c4.69-3.54,6.03-5.04,6.48-7.16.44-2.08.01-4.84-.21-8-.17-2.42.32-4.29.39-5.55-6.59-.55-9.61.86-11.17,2.15-1.65,1.35-2.74,2.48-3.37,9.23-.41,4.42-.73,8.03-1.63,10.73-1.02,3.05-1.77,4.23-3.05,7.03,5.31-3.15,9.52-6.12,12.56-8.42Z"/>
      <path class="cls-1" d="M44.52,75.93c2.4-3.09,4.75-5.71,6.77-11.52,1.55-4.45,2.43-11.25.39-16.84-1.72-4.68-4.55-5.71-7.16-8.58-2.61,2.87-5.44,3.89-7.16,8.58-2.05,5.59-1.16,12.39.39,16.84,2.02,5.81,4.37,8.42,6.77,11.52Z"/>
      <path class="cls-1" d="M22.3,81.51c-4.85.14-8.33-1.46-12.81.32-2.25.89-2.89,2.56-6.29,4.08,1.83,1.21,4.07,3.75,7.75,4.89,4.08,1.26,10.77,1.23,13.94-.16,2.42-1.06,2.45-3.11,5.65-6.04,2.79-2.55,4.9-3.67,6.82-4.49-4.32,0-11.77,1.31-15.06,1.4Z"/>
      <path class="cls-1" d="M9.11,75.52c2.58,3.84,6.45,4.18,10.42,4.32,3.09.11,5.26-.22,10.66-1.39,3.32-.72,7.35-1.4,12-1.81-1.9-.72-8.04-3.44-10.18-4.94-2.09-1.47-7.25-4.63-10.03-7.24-4.47-4.2-6.21-6.49-10.5-7.01-1.49-.18-5.96-.42-11.48,3.96,1.51.75,3.19,2.39,4.27,3.45,3.22,3.18,2.19,6.7,4.84,10.65Z"/>
      <path class="cls-1" d="M19.73,56.71c.45,2.12,1.79,3.62,6.48,7.16,3.05,2.3,7.25,5.27,12.56,8.42-1.27-2.81-2.03-3.98-3.05-7.03-.9-2.69-1.22-6.31-1.63-10.73-.63-6.75-1.73-7.87-3.37-9.23-1.57-1.29-4.59-2.7-11.17-2.15.07,1.26.56,3.13.39,5.55-.23,3.16-.66,5.92-.21,8Z"/>
    </g>
    <g>
      <path class="cls-2" d="M31.42,24.93c-.54.4-1.34,1.27-2.4,2.61-2.22-1.32-4.37-3.38-6.45-6.18-2.08-2.8-3.62-5.99-4.62-9.57-1.52,6.76-5.68,11.91-12.48,15.45-.26.08-.51.12-.74.12s-.41-.06-.54-.17c-.13-.11-.19-.21-.19-.3s.04-.19.12-.31c6.94-4.16,10.86-9.76,11.76-16.8H6.58c-.6.02-1.08.1-1.46.25s-.57.22-.58.19c-.52-.44-1.03-.88-1.53-1.32l.21-.24c1.16.2,2.56.31,4.2.33h8.64V2.28c0-.3-.03-.6-.09-.92s-.08-.5-.05-.57c.03-.07.12-.1.29-.1s.73.07,1.73.22c.99.15,1.48.31,1.48.47,0,.1-.16.24-.46.42-.31.18-.46.37-.46.57v6.63h7.71c.18-.08.51-.42,1-1.03.49-.61.88-.92,1.19-.92s1.03.54,2.19,1.62l1.08.93c-.02.12-.24.18-.66.18h-12.3c1.34,4.48,3.18,7.94,5.52,10.38,1.38,1.42,2.55,2.43,3.51,3.02s2.19,1.18,3.69,1.75Z"/>
      <path class="cls-2" d="M48.55,8.58c.58-.98.87-1.66.87-2.04,2.14.82,3.21,1.46,3.21,1.92,0,.16-.1.26-.3.3l-7.47,1.83v5.1c0,1.52.28,2.28.84,2.28h2.79c.88,0,1.36-1.49,1.44-4.47l.06-2.1.9-.03.18,5.22c.02.54.08.96.18,1.26.24.22.36.43.36.63s-.02.37-.06.51c-.32.84-1.1,1.26-2.34,1.26h-4.23c-1.6,0-2.4-1.21-2.4-3.63v-5.46l-1.77.42c-.58.14-1.03.28-1.35.42l-.84-1.2c.06.02.21.03.45.03s.56-.05.96-.15l2.55-.63V2.22l-.15-1.32c-.02-.14.06-.21.25-.21s.75.07,1.68.21c.93.14,1.4.29,1.4.45,0,.1-.15.24-.45.41s-.45.35-.45.55v7.17l3.69-.9ZM55.96,6.03v-1.53h-3.3c-.86,0-1.64.12-2.34.36l-1.38-1.59.21-.21c.5.16.97.27,1.41.31.44.05,1.42.08,2.94.08h9.21c.26-.12.6-.42,1.04-.88.43-.47.71-.71.82-.71.34,0,.85.27,1.53.81.68.54,1.02.93,1.02,1.17l-1.23,1.32c.02,1.02.03,2.56.03,4.6s-.19,4.76-.57,8.13c-.38,3.37-.85,5.78-1.41,7.22-.54,1.5-1.84,2.26-3.9,2.28l-1.17-.93c-.96-.76-2.46-1.18-4.5-1.26-.28-.12-.42-.24-.42-.38s.12-.27.36-.44l5.85.48c.52,0,.96-.22,1.32-.66.58-2.1,1.05-4.31,1.41-6.65.36-2.33.6-6.56.72-12.71-.04-.16-.1-.29-.18-.39l-5.01.03c-.16,12.18-4.03,19.79-11.61,22.83-.1.04-.35.06-.75.06s-.61-.14-.63-.42c0-.36.11-.58.33-.66,6.8-2.66,10.2-9.42,10.2-20.28Z"/>
      <path class="cls-2" d="M85.94,8.04l-2.16.84c-.92,1.4-2.23,4.35-3.93,8.85-.68,1.82-1.33,2.73-1.95,2.73-.34,0-.67-.31-.98-.93-.31-.62-.46-1.19-.46-1.71s.07-.88.21-1.08c.96-1.38,1.85-2.72,2.67-4.02.82-1.3,1.6-2.46,2.34-3.48l-.15-.03c-.14,0-.79.12-1.95.38-1.16.25-1.9.38-2.21.38s-.58-.16-.83-.48c-.74-1-1.11-1.89-1.11-2.67,0-.26.03-.39.09-.39.2,0,.39.13.57.39.3.52,1.03.83,2.19.93h.22c.13,0,.77-.03,1.94-.1,1.16-.07,1.76-.12,1.8-.17.5-.92.75-2.08.75-3.48,0-.6-.09-1.01-.26-1.25-.17-.23-.45-.46-.82-.71-.38-.24-.57-.44-.57-.6,0-.28.18-.42.53-.42s.79.11,1.33.33c1.54.6,2.39,1.25,2.55,1.95.02.06.03.18.03.36s-.07.49-.21.93c-.14.44-.21.67-.21.69-.44.58-.8,1.21-1.08,1.89.64-.02,1.15-.22,1.53-.6.38-.38.65-.66.83-.85.17-.19.34-.35.52-.5.18-.14.42-.21.73-.21s.75.06,1.31.19c.56.13.97.44,1.23.92.08.16.12.3.12.42,0,.38-.31.63-.93.75-.34.06-.96.19-1.85.39-.89.2-1.5.32-1.84.36ZM92.24,11.64c.28,0,.41.14.39.42,0,.16-.1.51-.29,1.05-.19.54-.28,1.36-.28,2.48s.09,2.52.27,4.21c2.18.64,3.56,1.23,4.14,1.79s.87,1.03.87,1.45c0,.88-.37,1.32-1.11,1.32h-.12c-.42,0-.96-.35-1.6-1.06-.65-.71-1.35-1.19-2.08-1.43-.22,1.66-.55,2.79-.99,3.39-.68.9-2.22,1.35-4.62,1.35-1.4,0-2.59-.33-3.57-.99-.98-.66-1.47-1.46-1.47-2.4v-.03c0-1.26.44-2.28,1.33-3.06.89-.78,2.01-1.17,3.38-1.17s2.57.08,3.63.24c-.04-1.26-.06-1.92-.06-1.98v-.03c0-.5.08-1.35.25-2.54s.63-2.15,1.4-2.87l.36-.12s.1-.03.18-.03ZM87.23,24.75c1.94,0,2.91-.71,2.91-2.13v-.57c0-.34-.03-.67-.09-.99-.62-.3-1.58-.45-2.88-.45-1.72,0-2.86.48-3.42,1.44-.12.2-.18.55-.18,1.05s.19.84.57,1.02c.78.42,1.75.63,2.91.63h.18ZM94.57,9.78c.59,0,1.17.04,1.75.12-.2-.52-.37-.92-.51-1.2-.42-.98-1.48-1.9-3.18-2.76-.4-.2-.6-.46-.6-.77s.18-.46.54-.46c.22,0,.45.06.69.18,1.2.54,2.37,1.26,3.51,2.16,1.64,1.28,2.46,2.41,2.46,3.39,0,.12-.02.24-.04.36-.03.12-.1.43-.2.92-.1.49-.34.73-.72.73-.28,0-.67-.28-1.17-.84-.22-.22-.81-.45-1.77-.71-.96-.25-1.48-.41-1.55-.48-.07-.07-.1-.14-.1-.2,0-.3.29-.45.89-.45Z"/>
      <path class="cls-2" d="M106.63,27.12c-.14.06-.29.09-.45.09s-.28-.09-.36-.26c-.08-.17-.12-.32-.12-.45s.1-.27.3-.41c8.22-4.22,12.33-12.44,12.33-24.66v-.51c2.88.38,4.32.83,4.32,1.35-.48.18-.97.36-1.47.54-.06,1.8-.23,3.52-.51,5.16,2.36,8.76,6.88,14.33,13.56,16.71-.88.6-1.72,1.42-2.52,2.46-6.1-3.74-9.94-9.39-11.52-16.95-1.88,7.82-6.4,13.46-13.56,16.92Z"/>
      <path class="cls-2" d="M147.45,8.19c-1.22.08-2,.12-2.34.12-1.38,0-2.39-.32-3.03-.96-.38-.42-.58-.85-.58-1.3-.01-.45.04-.72.17-.81.12-.09.23-.06.33.07.36.52.75.92,1.16,1.19.41.27,1.09.41,2.04.41s1.94-.04,2.98-.12c.44-1.62.66-2.78.66-3.48s-.29-1.19-.87-1.47c-.18-.08-.27-.19-.27-.33,0-.2.12-.26.36-.18,1.28.38,2.05.63,2.31.75,1.32.64,1.99,1.1,2.01,1.38,0,.1-.15.29-.45.57-.3.28-.55.61-.75.99-.2.38-.46.88-.78,1.5h.03c1.68-.34,2.99-1.02,3.93-2.04.1-.12.27-.18.52-.18s.56.07.94.21c1.42.58,2.13,1.03,2.13,1.35,0,.48-.7.79-2.1.93-.94.5-3,.9-6.18,1.2-.5.94-1.09,1.91-1.77,2.91h1.02c1.22,0,2.04.24,2.46.72.32.36.77,1.25,1.35,2.67l4.83-2.64c.42-.24.63-.55.63-.93,0-.18-.19-.34-.57-.48-.38-.14-.73-.21-1.05-.21s-.48-.1-.48-.3.2-.33.6-.39c.06,0,.12.01.18.03,1.84.1,3.27.66,4.29,1.68.48.48.72.98.72,1.5,0,.42-.38.65-1.14.69-.36,0-.61-.02-.75-.07-.14-.05-.25-.05-.33-.02-1.76.6-3.88,1.54-6.36,2.82.26,1.1.39,2.21.39,3.33,0,1.9-.43,2.85-1.29,2.85-.58,0-.99-.19-1.21-.58-.23-.39-.35-.72-.35-1l.24-2.46v-.96c-1.08.54-1.87.94-2.37,1.2-1.18.68-1.77,1.55-1.77,2.61,0,.38.08.78.24,1.2.58,1.56,2.28,2.34,5.1,2.34h.06c1.38,0,2.19-.07,2.43-.22.24-.15.58-.31,1.04-.48.45-.17.79-.26,1.03-.26s.71.13,1.43.38c.71.25,1.12.48,1.24.68.12.22.18.38.18.48,0,.98-2.05,1.47-6.15,1.47-.92,0-1.86-.05-2.82-.15-3-.24-4.81-1.56-5.43-3.96-.1-.36-.15-.72-.15-1.08,0-2.04,1.45-3.81,4.35-5.31l1.41-.72c-.42-1.58-1.25-2.63-2.49-3.15h-.09c-.94,0-1.53.16-1.77.48-2.26,3.04-3.65,4.56-4.17,4.56-.36,0-.75-.25-1.17-.75-.02-.1-.03-.2-.03-.3,0-.78.4-1.39,1.2-1.83,1.68-.94,3.37-2.98,5.07-6.12Z"/>
      <path class="cls-2" d="M175.62,18.93l.45.09c1.14.34,2.25.84,3.35,1.5,1.09.66,1.92,1.31,2.49,1.94.57.63.91,1.13,1.02,1.5.11.37.17.68.17.93s-.03.46-.09.65c-.24.68-.56,1.02-.96,1.02s-.72-.17-.94-.5c-.23-.33-.55-.93-.96-1.81-.41-.88-.96-1.67-1.65-2.39-.69-.71-1.67-1.39-2.92-2.05-.22-.12-.33-.29-.33-.52s.13-.35.39-.35Z"/>
      <path class="cls-2" d="M211.92,13.44c.12,1.54.18,2.37.18,2.49-.08.38-.8.57-2.16.57-.36,0-.56-.22-.6-.66l.18-2.4v-4.47c-.98,2.18-2.88,4.4-5.7,6.66-.2.08-.36.12-.48.12s-.18-.1-.18-.3.1-.41.3-.63c2.74-2.76,4.45-6.02,5.13-9.78h-2.37c-.58.04-.97.13-1.16.26-.19.13-.31.19-.34.19l-.96-1.59c1.24.18,2.24.27,3,.27h2.76V1.77c-.1-.86-.16-1.32-.17-1.38-.01-.06.08-.09.25-.09s.76.07,1.74.21c.98.14,1.47.28,1.47.42l-.9.93v2.31l1.11.03,1.44-1.71c1.32,1.06,2.1,1.8,2.34,2.22,0,.22-.22.33-.66.33h-4.23v1.89c2.78.88,4.17,2.28,4.17,4.2v.12c-.4,1.22-.79,1.83-1.17,1.83-.26,0-.51-.42-.75-1.26-.5-1.74-1.25-3.11-2.25-4.11v5.73ZM207.72,19.59c.02-.08.03-.27.03-.56s.15-.5.46-.61c.31-.12.52-.05.65.22s.17.55.15.83l-.09,1.14c-.38,2.3-1.16,3.9-2.34,4.8l-.99.81c-1.2,0-1.8-.41-1.8-1.23,0-.38.22-.74.66-1.08,1.78-1.5,2.87-2.94,3.27-4.32ZM215.49,24.93h7.05c.9,0,1.44-.63,1.62-1.89l.18-1.2c.2-1.18.36-1.77.48-1.77.08,0,.18.58.3,1.74l.18,1.74.42,1.26c.24.22.36.43.36.63s-.02.37-.06.51c-.3.84-1.08,1.26-2.34,1.26h-8.94c-2.26,0-3.39-1.09-3.39-3.27v-4.95l-.15-1.32c-.02-.14.07-.21.27-.21.1,0,.63.07,1.6.21.97.14,1.45.29,1.45.45,0,.1-.15.24-.45.41-.3.17-.45.35-.45.55v3.93c0,1.28.62,1.92,1.86,1.92ZM215.91,17.64c-.28-.1-.4-.33-.36-.69,0-.1.08-.14.24-.12h.06c2.8.48,4.81,1.45,6.03,2.91.18.22.27.44.27.66,0,1.26-.28,1.89-.84,1.89-.28,0-.6-.27-.96-.81-1.3-2.02-2.78-3.3-4.44-3.84ZM217.92,2.28l-.15-1.35c0-.08.03-.12.09-.12s.4.13,1,.38c.61.25,1.29.57,2.06.95h5.28l1.86-1.68c1.8.88,2.7,1.56,2.7,2.04l-1.26,1.32v9.78c.12,1.48.18,2.23.18,2.25-.08.38-.8.58-2.16.6-.36,0-.54-.19-.54-.57l.06-1.26h-6.66c.08.72.12,1.13.12,1.23-.06.38-.77.58-2.13.6-.4,0-.59-.25-.57-.75l.12-2.1V2.28ZM220.32,5.79h6.78v-2.46c0-.18-.06-.34-.18-.48h-6.57c-.02.06-.03.16-.03.3v2.64ZM227.1,6.51h-6.78v3.09h6.78v-3.09ZM227.1,10.32h-6.78v3.57h6.78v-3.57ZM226.11,18.72c-.1-.14-.15-.32-.15-.56s.11-.34.33-.34.77.33,1.65.99c2.1,1.78,3.15,3.36,3.15,4.74,0,.48-.2.94-.6,1.36-.4.43-.7.65-.9.65-.26,0-.46-.42-.6-1.26-.26-1.4-1.22-3.26-2.88-5.58Z"/>
      <path class="cls-2" d="M244.07,11.76c3.32-1.56,5.49-2.34,6.52-2.34s1.94.06,2.75.18c1.78.6,2.97,2.05,3.57,4.35.04.38.06.77.06,1.17,0,5.3-3.64,9.35-10.92,12.15-.26.1-.53.15-.81.14-.28-.01-.42-.1-.42-.29,0-.44.24-.75.72-.93,6.02-2.94,9.03-6.53,9.03-10.77,0-.4-.03-.83-.09-1.29-.24-1.94-.89-2.98-1.95-3.12-.38-.04-.69-.06-.92-.06h-.52c-1.46,0-2.5.22-3.1.65-.61.43-1.79,1.24-3.53,2.42-.7.48-1.36.72-1.98.72-.92,0-1.38-.58-1.38-1.74,0-.68.09-1.12.27-1.32,1-1.54,1.78-2.31,2.34-2.31.2,0,.3.11.3.33-.52.24-.78.7-.78,1.38v.18c.2.28.48.45.84.51ZM253.4,5.19c-.06.02-.18.03-.36.03s-.6-.07-1.26-.21c-.96.08-1.92.38-2.88.9-.96.52-1.48.78-1.56.78-.26,0-.41-.09-.45-.27.04-.14.15-.29.33-.45.56-.52,1.38-1.03,2.46-1.53-1.7-.44-3.49-1.39-5.37-2.85-.18-.2-.27-.38-.25-.52,0-.15.04-.23.1-.26.26-.1.52-.06.78.12,1.88,1.1,4.17,1.65,6.87,1.65.16,0,.36.01.6.03.24.02.6.19,1.09.49.49.31.74.69.74,1.14s-.28.77-.84.95Z"/>
      <path class="cls-2" d="M276.17,6.81c1.36,1.28,2.04,2.06,2.04,2.34,0,.16-.25.24-.75.24h-3.75v8.49c1.06-.4,1.94-.75,2.62-1.05.69-.3,1.1-.45,1.25-.45l.03.03c.1.04.21.08.31.12s.15.1.14.18c-.4.78-3.15,2.56-8.25,5.34-.44.96-.69,1.44-.73,1.44s-.09,0-.11-.03c-.52-.22-1.24-1.34-2.16-3.36,1.16-.18,2.71-.64,4.65-1.38v-9.33h-1.71l-1.77.36-1.17-1.56c.34.04.6.1.78.19.18.09,1.03.15,2.55.17h1.32V2.4l-.15-1.35c-.02-.14.08-.21.3-.21s.78.07,1.68.23c.9.15,1.35.31,1.35.46,0,.1-.16.24-.47.4-.31.17-.46.36-.46.56v6.06h.81l1.65-1.74ZM275.57,21.9c-.46,0-.69-.06-.69-.18s.13-.33.39-.63c2.72-2.3,4.53-4.8,5.43-7.5h-3.03l-1.77.21-1.38-1.38c.34.04.78.1,1.33.19.55.09,1.58.15,3.1.17h12.72l1.65-1.74,2.28,2.19c0,.24-.24.36-.72.36h-11.46c-.48.92-1,1.78-1.56,2.58h9.36c.26-.12.6-.42,1.04-.9.43-.48.7-.72.82-.72.34,0,.85.27,1.53.81.68.54,1.02.93,1.02,1.17,0,.1-.21.3-.62.58-.41.29-.61.51-.61.66v.38c0,2.56-.4,4.88-1.2,6.96-.54,1.5-1.82,2.26-3.84,2.28l-.84-.93c-.7-.78-1.88-1.2-3.54-1.26-.28-.12-.42-.24-.42-.38s.12-.27.36-.44l4.56.48c.52,0,.96-.22,1.32-.66.82-1.38,1.26-3.65,1.32-6.81-.04-.16-.1-.29-.18-.39h-1.62c-2.32,4.78-5.8,8.18-10.44,10.2-.46,0-.69-.06-.69-.18s.13-.33.39-.63c3.94-2.24,6.59-5.37,7.95-9.39l-1.77.03c-2.38,3.72-5.38,6.4-9,8.04-.46,0-.69-.06-.69-.18s.13-.33.39-.63c3.2-2.08,5.4-4.49,6.6-7.23h-1.86c-1.56,2-3.44,3.62-5.64,4.86ZM291.83,8.7c.12,1.6.18,2.47.18,2.61-.06.4-.77.6-2.13.6-.4,0-.6-.21-.6-.63s.04-.82.12-1.2h-8.04c0,.06.04.47.12,1.23-.06.4-.77.6-2.13.6-.38,0-.57-.24-.57-.72l.12-2.49V1.89l-.15-1.32c-.02-.14,0-.21.06-.21h.12l2.97,1.23h6.66c.26-.12.6-.42,1.02-.89.42-.47.7-.71.84-.71.34,0,.87.27,1.59.81.72.54,1.08.98,1.08,1.32l-1.26,1.35v5.22ZM281.3,9.33h8.13v-3.15h-8.1l-.03,3.15ZM281.33,5.46h8.1v-2.31c0-.28-.06-.5-.18-.66h-7.92v2.97Z"/>
      <path class="cls-2" d="M304.37,8.34l-.15-1.41c0-.08.03-.12.09-.12s.39.13,1,.38c.61.25,1.29.58,2.06.98h4.44l1.59-1.59c1.52,1.06,2.28,1.78,2.28,2.16l-1.11,1.32v3.66c.12,1.6.18,2.46.18,2.58-.06.4-.77.6-2.13.6-.34,0-.54-.23-.6-.69.06-.98.09-1.49.09-1.53h-5.37c-.42,6.18-1.94,10.48-4.56,12.9-.3,0-.45-.15-.45-.45,0-.16.11-.4.33-.72,1.32-2,2.09-5.99,2.31-11.97v-6.09ZM315.41,3.3h-9.75c-.64,0-1.42.17-2.34.51l-1.29-1.44.27-.3c1.32.28,2.24.42,2.76.42h6.69c.68-.66,1.28-1.27,1.8-1.83.92.66,1.73,1.39,2.43,2.19,0,.3-.19.45-.57.45ZM312.17,13.89v-4.32c0-.26-.06-.47-.18-.63h-5.19c-.02.06-.03.17-.03.33v4.62h5.4ZM327.92,3.36c-2.66.9-5.5,1.41-8.52,1.53v5.25c1.52,0,3.92.01,7.2.03l1.8-1.86c1.38,1.2,2.16,1.98,2.34,2.34,0,.24-.31.36-.93.36h-3.54v13.2c.12,1.6.18,2.46.18,2.58-.06.4-.77.6-2.13.6-.24,0-.39-.23-.45-.69l.15-2.49v-13.2h-4.62v2.28c0,5.84-2.11,10.32-6.33,13.44-.3,0-.45-.16-.45-.48,0-.22.11-.45.33-.69,2.82-2.8,4.23-6.99,4.23-12.57V4.35l-.15-1.41c0-.08.06-.12.2-.12s.92.39,2.38,1.17c3.48-.8,5.86-1.86,7.14-3.18,2.04,1.54,3.06,2.51,3.06,2.91,0,.02-.06.03-.17.03s-.69-.13-1.73-.39Z"/>
      <path class="cls-2" d="M345.18,8.19c-1.22.08-2,.12-2.34.12-1.38,0-2.39-.32-3.03-.96-.38-.42-.58-.85-.58-1.3-.01-.45.04-.72.17-.81.12-.09.23-.06.33.07.36.52.75.92,1.16,1.19.41.27,1.09.41,2.04.41s1.94-.04,2.98-.12c.44-1.62.66-2.78.66-3.48s-.29-1.19-.87-1.47c-.18-.08-.27-.19-.27-.33,0-.2.12-.26.36-.18,1.28.38,2.05.63,2.31.75,1.32.64,1.99,1.1,2.01,1.38,0,.1-.15.29-.45.57-.3.28-.55.61-.75.99-.2.38-.46.88-.78,1.5h.03c1.68-.34,2.99-1.02,3.93-2.04.1-.12.27-.18.52-.18s.56.07.94.21c1.42.58,2.13,1.03,2.13,1.35,0,.48-.7.79-2.1.93-.94.5-3,.9-6.18,1.2-.5.94-1.09,1.91-1.77,2.91h1.02c1.22,0,2.04.24,2.46.72.32.36.77,1.25,1.35,2.67l4.83-2.64c.42-.24.63-.55.63-.93,0-.18-.19-.34-.57-.48-.38-.14-.73-.21-1.05-.21s-.48-.1-.48-.3.2-.33.6-.39c.06,0,.12.01.18.03,1.84.1,3.27.66,4.29,1.68.48.48.72.98.72,1.5,0,.42-.38.65-1.14.69-.36,0-.61-.02-.75-.07-.14-.05-.25-.05-.33-.02-1.76.6-3.88,1.54-6.36,2.82.26,1.1.39,2.21.39,3.33,0,1.9-.43,2.85-1.29,2.85-.58,0-.99-.19-1.21-.58-.23-.39-.35-.72-.35-1l.24-2.46v-.96c-1.08.54-1.87.94-2.37,1.2-1.18.68-1.77,1.55-1.77,2.61,0,.38.08.78.24,1.2.58,1.56,2.28,2.34,5.1,2.34h.06c1.38,0,2.19-.07,2.43-.22.24-.15.58-.31,1.04-.48.45-.17.79-.26,1.03-.26s.71.13,1.43.38c.71.25,1.12.48,1.24.68.12.22.18.38.18.48,0,.98-2.05,1.47-6.15,1.47-.92,0-1.86-.05-2.82-.15-3-.24-4.81-1.56-5.43-3.96-.1-.36-.15-.72-.15-1.08,0-2.04,1.45-3.81,4.35-5.31l1.41-.72c-.42-1.58-1.25-2.63-2.49-3.15h-.09c-.94,0-1.53.16-1.77.48-2.26,3.04-3.65,4.56-4.17,4.56-.36,0-.75-.25-1.17-.75-.02-.1-.03-.2-.03-.3,0-.78.4-1.39,1.2-1.83,1.68-.94,3.37-2.98,5.07-6.12Z"/>
      <path class="cls-2" d="M373.71,26.4c-.78-.78-1.17-1.73-1.17-2.83s.39-2.06,1.17-2.84c.78-.78,1.72-1.17,2.82-1.17s2.04.39,2.82,1.17c.78.78,1.17,1.73,1.17,2.84s-.39,2.05-1.17,2.83c-.78.78-1.72,1.17-2.82,1.17s-2.04-.39-2.82-1.17ZM374.7,21.72c-.5.5-.75,1.11-.75,1.83s.25,1.33.75,1.83c.5.5,1.11.75,1.83.75s1.33-.25,1.83-.75c.5-.5.75-1.11.75-1.83s-.25-1.33-.75-1.83c-.5-.5-1.11-.75-1.83-.75s-1.33.25-1.83.75Z"/>
    </g>
    <g>
      <path class="cls-2" d="M105.94,65.25l-2.83.34-1.06-1.87,4.13.38h15.98v-7.63h-11.14l-2.83.34c-1.06-1.18-1.58-1.82-1.58-1.92l4.51.43h11.04v-5.18l-.24-2.35c0-.06.16-.1.48-.1,3.36,0,5.04.35,5.04,1.06,0,.16-.24.38-.72.65s-.72.57-.72.89v5.04h8.5l2.59-3.26c2.91,1.98,4.37,3.2,4.37,3.65,0,.51-.38.77-1.15.77h-14.3v7.63h12.96s.11-.03.24-.1l2.64-3.17c2.91,2.4,4.37,3.7,4.37,3.89,0,.35-.38.53-1.15.53h-39.12ZM107.95,73.36l-2.83.34c-1.54-.99-2.3-1.65-2.3-1.97.22,0,.79.06,1.7.19.91.13,2.58.21,5.02.24h19.63v-3.46l-.24-2.16c-.03-.22.13-.34.48-.34s1.29.12,2.81.36c1.52.24,2.28.49,2.28.74,0,.16-.25.38-.74.65-.5.27-.74.57-.74.89v3.31h6.1l2.26-2.98c2.78,2.05,4.18,3.18,4.18,3.41v.38c0,.26-.38.38-1.15.38h-11.38v14.21c.03,2.43-1.58,3.65-4.85,3.65l-1.87-1.49c-1.54-1.22-3.94-1.89-7.2-2.02-.45-.19-.67-.39-.67-.6s.19-.44.58-.7l7.97.77c1.47-.06,2.21-.42,2.21-1.06v-12.77h-21.22ZM109.39,76.38c-.16-.06-.3-.26-.43-.58-.19-.48.11-.72.91-.72.29,0,1.07.21,2.35.62,5.31,1.5,7.97,3.66,7.97,6.48,0,.61-.14,1.22-.41,1.85s-.63.94-1.08.94c0,.77-.5.32-1.49-1.34-1.98-3.55-4.59-5.97-7.82-7.25Z"/>
      <path class="cls-2" d="M190.37,66.35c.19,2.56.29,3.95.29,4.18-.1.64-1.17.96-3.22.96-.64,0-.96-.34-.96-1.01,0-.38.06-.88.19-1.49h-11.57c-.7,1.54-1.62,3.01-2.74,4.42h19.68l3.02-3.31c2.4,1.98,3.71,3.23,3.94,3.74,0,.51-.35.77-1.06.77h-12.43c4.19,3.01,8.61,5.07,13.25,6.19-1.31,1.44-2.19,2.75-2.64,3.94-5.6-3.07-9.94-6.45-13.01-10.13h-11.81c-3.81,4.1-9.62,7.54-17.42,10.32-.48.19-.72-.08-.72-.82,0-.38.18-.64.53-.77,5.57-2.43,9.92-5.34,13.06-8.74h-7.63l-3.26.91-2.69-2.21v-.19c0-.06.06-.13.19-.19,1.82.29,4.03.45,6.62.48h7.82c1.12-1.41,2.05-2.88,2.78-4.42h-5.38c.06.51.13,1.02.19,1.54-.1.64-1.17.96-3.22.96-.61,0-.91-.38-.91-1.15l.19-3.98v-8.26l-.24-2.11c-.03-.22,0-.34.1-.34h.19l4.56,1.97h19.25l2.78-2.11c.54,0,1.34.43,2.4,1.3,1.06.86,1.58,1.57,1.58,2.11l-1.73,2.16v5.28ZM190.56,51.47l3.02-3.31c2.4,1.98,3.71,3.23,3.94,3.74,0,.51-.35.77-1.06.77h-11.18v.72l.29,2.5c-.1.64-1.23.96-3.41.96-.54,0-.86-.37-.96-1.1l.24-2.35v-.72h-10.85v.72l.29,2.5c-.1.64-1.23.96-3.41.96-.54,0-.86-.37-.96-1.1l.24-2.35v-.72h-6.19l-3.26.91-2.69-2.21v-.19c0-.06.06-.13.19-.19,1.82.29,4.03.45,6.62.48h5.33v-2.02l-.24-2.11v-.05c0-.19.14-.29.41-.29s1.19.11,2.76.34c1.57.22,2.35.46,2.35.72l-1.44,1.54v1.87h10.85v-2.02l-.24-2.11v-.05c0-.19.14-.29.41-.29s1.19.11,2.76.34c1.57.22,2.35.46,2.35.72l-1.44,1.54v1.87h5.28ZM188.59,88.53l3.02-3.31c2.4,1.98,3.71,3.23,3.94,3.74,0,.51-.35.77-1.06.77h-32.5l-3.26.91-2.69-2.21v-.19c0-.06.06-.13.19-.19,1.82.29,4.03.45,6.62.48h11.23v-5.57h-4.9l-3.26.91-2.69-2.21v-.19c0-.06.06-.13.19-.19,1.82.29,4.03.45,6.62.48h4.03v-3.74l-.24-2.11v-.05c0-.19.14-.29.41-.29s1.19.11,2.76.34c1.57.22,2.35.46,2.35.72l-1.44,1.54v3.6h3.46l3.02-3.31c2.4,1.98,3.71,3.23,3.94,3.74,0,.51-.35.77-1.06.77h-9.36v5.57h10.66ZM165.17,62.89h21.55v-2.78c0-.45-.1-.8-.29-1.06h-21.26v3.84ZM165.17,67.79h21.55v-3.74h-21.55v3.74Z"/>
      <path class="cls-2" d="M220.05,60.4c2.18,2.05,3.26,3.3,3.26,3.74,0,.26-.4.38-1.2.38h-6v13.58c1.7-.64,3.1-1.2,4.2-1.68s1.77-.72,1.99-.72l.05.05c.16.06.34.13.53.19.19.06.26.16.19.29-.8,1.25-5.04,4.1-12.72,8.54-.7,1.54-1.1,2.3-1.18,2.3s-.14-.02-.17-.05c-.83-.35-1.98-2.14-3.46-5.38,1.18-.29,3.5-1.02,6.96-2.21v-14.93h-2.26l-2.83.58-1.87-2.5c.54.06.96.17,1.25.31s1.65.23,4.08.26h1.63v-9.84l-.24-2.16c-.03-.22.13-.34.48-.34s1.25.12,2.69.36c1.44.24,2.16.49,2.16.74,0,.16-.25.38-.74.65-.5.27-.74.57-.74.89v9.7h1.3l2.64-2.78ZM222.84,69.33l-2.59,1.58c-1.25-.99-2.02-1.63-2.3-1.92.03-.03.41-.09,1.13-.17.72-.08,1.83-.41,3.34-.98l2.45-1.06v-12.19l-.29-2.11c-.03-.22.12-.34.46-.34s1.23.11,2.69.34c1.46.22,2.18.46,2.18.72,0,.16-.24.38-.72.65-.48.27-.72.57-.72.89v10.56l5.95-2.54v-11.95l-.19-2.11c-.03-.22.08-.34.34-.34s1.14.12,2.64.36c1.5.24,2.26.47,2.26.7l-1.49,1.54v10.32l6.19-2.64c.32-.29.75-.74,1.3-1.37.54-.62.91-.94,1.1-.94.54,0,1.36.43,2.45,1.3,1.09.86,1.63,1.49,1.63,1.87,0,.16-.33.47-.98.94-.66.46-.98.81-.98,1.03v.62c0,7.01-.13,11.31-.38,12.91-.86,2.4-2.37,3.62-4.51,3.65l-1.01-1.49c-.83-1.22-1.94-1.84-3.31-1.87-.45-.19-.67-.4-.67-.62s.19-.46.58-.72l4.37.67c.54-.19.82-.54.82-1.06.32-2.18.48-6.4.48-12.67-.06-.48-.24-.78-.53-.91l-6.53,2.83v12.91l.29,3.6c0,.06-.02.24-.05.53-.06.64-1.09.96-3.07.96-.64,0-.96-.5-.96-1.51s.08-2.36.24-4.06v-10.9l-5.95,2.54v17.62c0,2.05,1.02,3.07,3.07,3.07h13.97c1.47,0,2.34-1.49,2.59-4.46l.29-3.36c.29-1.89.54-2.83.74-2.83s.38.93.5,2.78l.29,5.66.67,2.02c.38.35.58.69.58,1.01s-.03.59-.1.82c-.48,1.34-1.73,2.02-3.74,2.02h-18c-2.98,0-4.46-1.55-4.46-4.66v-18.1l-2.02.86Z"/>
      <path class="cls-1" d="M264.12,87.52c-.61-.61-.91-1.34-.91-2.21s.3-1.6.91-2.21c.61-.61,1.34-.91,2.21-.91s1.6.3,2.21.91c.61.61.91,1.34.91,2.21s-.3,1.6-.91,2.21c-.61.61-1.34.91-2.21.91s-1.6-.3-2.21-.91Z"/>
      <path class="cls-1" d="M297.07,84.83l1.54.96c-2.27,1.92-4.54,2.88-6.82,2.88h-.62c-4.03,0-7.07-.98-9.12-2.93-2.72-2.59-4.08-5.85-4.08-9.77s1.36-6.98,4.08-9.19c2.43-1.95,5.48-2.93,9.14-2.93s5.94.85,6.84,2.54l-1.25,3.46c-.58-1.95-2.45-2.93-5.62-2.93s-5.37.91-6.6,2.74-1.85,4.14-1.85,6.96.86,5.08,2.57,6.79c1.71,1.71,4.15,2.57,7.32,2.57,1.57,0,3.06-.38,4.46-1.15Z"/>
      <path class="cls-1" d="M315.54,89.05c-3.25,0-5.99-1.25-8.23-3.74-2.24-2.5-3.36-5.49-3.36-8.98s1.12-6.51,3.36-9.07c2.24-2.56,4.98-3.84,8.23-3.84s6.05,1.28,8.4,3.84c2.35,2.56,3.53,5.58,3.53,9.07s-1.18,6.48-3.53,8.98-5.15,3.74-8.4,3.74ZM322.48,76.31c0-3.5-.66-6.15-1.97-7.94-1.31-1.79-3.03-2.69-5.16-2.69s-3.78.87-4.94,2.62c-1.17,1.74-1.75,4.41-1.75,7.99s.66,6.24,1.97,7.97c1.31,1.73,3.04,2.59,5.18,2.59s3.79-.88,4.94-2.64c1.15-1.76,1.73-4.39,1.73-7.9Z"/>
      <path class="cls-1" d="M354.24,69.37c.77-3.84,2.91-5.76,6.43-5.76,2.69,0,4.78.54,6.29,1.61,1.5,1.07,2.26,2.97,2.26,5.69v13.63c.22.96.8,1.44,1.73,1.44h1.82v2.16h-11.09v-2.16l2.06-.05h.05c.38,0,.86-.46,1.44-1.39v-12.72c0-1.86-.41-3.25-1.22-4.18-.82-.93-1.86-1.39-3.14-1.39-3.78,0-5.66,2.42-5.66,7.25v11.04c.22.96.8,1.44,1.73,1.44h1.82v2.16h-11.09v-2.16l2.06-.05h.05c.38,0,.86-.46,1.44-1.39v-12.43c0-1.86-.39-3.3-1.18-4.32-.78-1.02-1.82-1.54-3.1-1.54-3.84,0-5.76,3.42-5.76,10.27v8.02c.22.96.8,1.44,1.73,1.44h1.82v2.16h-11.09v-2.16l2.06-.05c.64-.13,1.14-.59,1.49-1.39v-17.52h-3.6v-.96l5.71-2.88h1.87v6.24c.8-3.84,2.59-5.78,5.38-5.81h.14c4.8,0,7.31,1.92,7.54,5.76Z"/>
    </g>
  </g>
</svg>