<?xml version="1.0" encoding="UTF-8"?>
<svg id="_レイヤー_2" data-name="レイヤー 2" xmlns="http://www.w3.org/2000/svg" viewBox="0 0 500 80">
  <defs>
    <style>
      .cls-1 {
        fill: #fff;
      }

      .cls-2 {
        fill: #099;
      }
    </style>
  </defs>
  <g id="_レイヤー_10" data-name="レイヤー 10">
    <g>
      <rect class="cls-1" y="0" width="500" height="80" rx="40" ry="40"/>
      <path class="cls-2" d="M40,78c-20.95,0-38-17.05-38-38S19.05,2,40,2h420c20.95,0,38,17.05,38,38s-17.05,38-38,38H40Z"/>
      <g>
        <path class="cls-1" d="M79.52,37.01l1.73-2.02c1.94,1.46,2.92,2.39,2.92,2.77,0,.14-.25.22-.76.22h-17.03v14.47l.22,3.42c.05.74-.8,1.12-2.56,1.12-.5,0-.73-.29-.68-.86l.14-3.71v-1.12c-3.07,1.06-6.44,1.92-10.12,2.59-.53,1.18-.85,1.79-.97,1.84-.72-.6-1.46-2.02-2.23-4.25,1.49,0,2.95-.05,4.39-.14v-13.36h-.86c-.96,0-1.76.11-2.41.32l-1.51-1.66c1.37.22,3.01.34,4.93.36h24.8ZM74.81,33.59h-15.41l.14.72c-.05.48-1.06.72-3.02.72-.07,0-.14-.28-.22-.83l.14-1.87v-6.16l-.14-1.69c0-.12.05-.18.14-.18l3.64,1.51h13.72l2.05-2.09c2.14,1.15,3.2,2.06,3.2,2.74l-1.33,1.58v3.85l.22,2.41c-.07.48-.92.72-2.56.72-.48,0-.72-.25-.72-.76,0-.1.05-.32.14-.68ZM63.5,37.98h-6.05v3.56h6.05v-3.56ZM63.5,42.59h-6.05v3.49h6.05v-3.49ZM63.5,49.9v-2.81h-6.05v3.96c2.11-.26,4.13-.65,6.05-1.15ZM59.4,29.2h15.44v-1.51c0-.34-.07-.6-.22-.79h-15.23v2.3ZM59.4,32.69h15.44v-2.59h-15.44v2.59ZM73.4,50.87c-1.9-2.52-3.04-5.57-3.42-9.14h-.4c-.1,0-.62.12-1.58.36l-1.22-1.37v-.14s.05-.1.14-.14c.77.24,1.69.36,2.77.36h7.6l1.8-2.09c1.87,1.2,2.81,2.11,2.81,2.74,0,.05-.24.26-.72.65-.48.43-.74.74-.79.94-.6,2.76-2,5.29-4.21,7.6,2.09,1.63,4.72,2.72,7.88,3.28-1.1,1.18-1.81,2.27-2.12,3.28-3.07-1.27-5.56-2.93-7.45-4.97-2.35,1.99-4.58,3.5-6.7,4.54-.14.07-.26.11-.36.11-.6,0-.74-.2-.43-.61.14-.19.26-.31.36-.36,1.75-.67,3.77-2.34,6.05-5ZM77.69,42.02c-.07-.1-.14-.19-.22-.29h-6.59c.72,3.07,1.99,5.58,3.82,7.52,1.49-2.06,2.48-4.48,2.99-7.24Z"/>
        <path class="cls-1" d="M103.77,36.76h3.28l1.69-1.73c1.7,1.18,2.56,2,2.56,2.48,0,.22-.19.32-.58.32h-14.62c-.48,0-1.12.13-1.91.4l-1.44-1.44.22-.32c1.1.17,2.42.26,3.96.29h5.83c-.05-.17.11-.55.47-1.15.91-1.49,1.58-3.29,2.02-5.4,2.69.94,4.03,1.66,4.03,2.16l-1.76-.11c-.91,1.49-2.16,2.99-3.74,4.5ZM103.49,53.18c.14,1.92.22,2.95.22,3.1-.07.48-.92.72-2.56.72-.29,0-.47-.28-.54-.83l.18-2.99v-5.62c-1.94,3.38-4,5.69-6.16,6.91-.24.1-.43.14-.58.14s-.22-.12-.22-.36.12-.5.36-.79c2.86-2.86,4.78-6.25,5.76-10.19h-3.82c-.7.05-1.16.15-1.39.31-.23.16-.37.23-.41.23l-1.15-1.98c1.49.22,2.69.34,3.6.36h4v-1.94c-.12-1.08-.18-1.66-.18-1.73s.1-.11.31-.11.86.08,1.98.25c1.12.17,1.67.35,1.67.54l-1.08,1.15v1.84l2.95.04,1.69-1.8c1.75,1.32,2.69,2.12,2.81,2.41,0,.29-.26.43-.79.43h-6.66v.86c1.56.5,2.79,1.34,3.69,2.5.9,1.16,1.35,2.06,1.35,2.68,0,.1-.01.18-.04.25-.31,1.46-.77,2.2-1.37,2.2-.22,0-.52-.53-.9-1.58-.77-2.06-1.68-3.7-2.74-4.9v7.88ZM110.15,29.85h-13.32c-.48,0-1.12.13-1.91.4l-1.44-1.51.22-.29c1.1.17,2.42.26,3.96.29h2.92v-2.45l-.18-1.62c-.02-.17.06-.25.25-.25,2.57.24,3.86.52,3.89.83,0,.12-.18.28-.54.47-.36.19-.54.42-.54.68v2.34h2.84l1.69-1.73c1.82,1.18,2.74,2,2.74,2.48,0,.24-.19.36-.58.36ZM96.46,30.5c.1-.26.25-.33.47-.22,2.4,1.54,3.6,2.92,3.6,4.14,0,.72-.42,1.34-1.26,1.87-.12.07-.24.11-.36.11-.34,0-.6-.42-.79-1.26-.5-2.16-1.01-3.59-1.51-4.28-.12-.17-.17-.29-.14-.36ZM114.54,31.94v4.5c3.5,0,6.38.01,8.64.04l1.69-1.8c1.8,1.39,2.74,2.18,2.81,2.38,0,.29-.26.43-.79.43h-4.75v15.7c.14,1.92.22,2.95.22,3.1-.07.48-.92.72-2.56.72-.29,0-.47-.28-.54-.83l.18-2.99v-15.7h-4.9v1.3c0,8.69-2.11,14.5-6.34,17.42-.36,0-.54-.19-.54-.58,0-.26.13-.54.4-.83,2.54-2.62,3.82-8.22,3.82-16.81v-7.67l-.18-2.05c.02.14.11.22.25.22s1.09.47,2.84,1.4c3.48-1.13,6.22-2.84,8.21-5.15,2.45,1.85,3.67,3.01,3.67,3.49,0,.02-.07.04-.2.04s-.82-.16-2.07-.47c-1.97,1.32-5.18,2.38-9.65,3.17-.14.12-.22.44-.22.97Z"/>
        <path class="cls-1" d="M137.72,30.53c.07-.29.16-.43.25-.43h.04c.48,0,.84.56,1.08,1.69.38,2.02.58,3.38.58,4.1,0,1.44-.28,2.66-.83,3.67-.65,1.03-1.33,1.55-2.05,1.55-.29,0-.55-.07-.79-.22-.05-.02-.07-.17-.07-.43s.32-1.13.95-2.61c.64-1.48.95-3.23.95-5.27,0-.67-.04-1.36-.11-2.05ZM140.67,53.18v-25.99l-.18-1.58c-.02-.17.07-.25.29-.25.1,0,.73.08,1.91.25,1.18.17,1.76.35,1.76.54l-1.08,1.15v25.88c.14,1.92.22,2.95.22,3.1-.07.48-.86.72-2.38.72-.41,0-.65-.28-.72-.83l.18-2.99ZM145.46,37.62l-.18-2.48c-.31-2.54-.71-4.06-1.19-4.54-.07-.07-.1-.25-.07-.54.02-.29.16-.35.4-.18,1.51,1.34,2.51,2.75,2.99,4.21.19.58.29,1.03.29,1.35s-.04.62-.11.88c1.13.17,2.17.26,3.13.29h5.36v-2.92h-4.97c-.7.05-1.25.11-1.67.2-.42.08-.67.13-.74.13-.34-.7-.84-1.25-1.51-1.66,1.34.22,2.99.34,4.93.36h3.96v-3.02h-5.65c-.96,0-1.76.11-2.41.32l-1.33-1.69c1.37.22,2.95.34,4.75.36h4.61v-2.02l-.18-1.62c-.02-.17.06-.25.25-.25,2.59,0,3.89.28,3.89.83,0,.12-.18.28-.54.49-.36.21-.54.43-.54.67v1.91h5.44l2.27-1.8c1.82,1.46,2.74,2.33,2.74,2.59,0,.14-.25.22-.76.22h-9.68v3.02h4.21l2.23-1.84c1.85,1.7,2.77,2.6,2.77,2.68s-.26.13-.79.13h-8.42v2.92h5.8l2.41-1.84,2.63,2.41c0,.26-.26.4-.79.4h-18.86c-.98.02-1.66.13-2.02.32-.26-.36-.5-.68-.72-.97-.19.38-.44.68-.76.88-.31.2-.56.33-.76.38-.24,0-.37-.19-.4-.58ZM149.1,38.85l3.67,1.66h9.79l1.8-1.84c1.9,1.34,2.84,2.2,2.84,2.56l-1.15,1.58v11.7c0,1.68-.92,2.52-2.77,2.52-.34,0-.73-.25-1.19-.76-1.18-1.3-3.02-1.99-5.54-2.09-.34-.07-.5-.22-.5-.43s.14-.34.43-.36c4.01.41,6.08.61,6.23.61.31,0,.47-.2.47-.61v-4.21h-11.12v4.18c.12,1.56.18,2.53.18,2.92,0,.6-.84.9-2.52.9-.48,0-.72-.29-.72-.86l.14-2.81v-12.67l-.14-1.76c0-.14.04-.22.11-.22ZM152.05,44.39h11.12c0-1.8-.07-2.8-.22-2.99h-10.87s-.04.41-.04,1.08v1.91ZM152.05,48.28h11.12v-2.99h-11.12v2.99Z"/>
        <path class="cls-1" d="M195.56,35.61h-13.57l-2.12.43-1.4-1.66c.41.05.72.13.94.25s1.24.18,3.06.18h3.64v-4.54h-3.2l-2.12.43-1.4-1.62c.41.05.72.13.94.23.22.11,1.24.17,3.06.2h2.74v-2.7l-.18-1.62c-.02-.17.1-.25.36-.25s.94.09,2.02.27c1.08.18,1.62.37,1.62.56,0,.12-.19.28-.56.49-.37.2-.56.43-.56.67v2.59h2.02c1.13-1.39,1.79-2.09,1.98-2.09,1.63,1.54,2.45,2.39,2.45,2.57s-.3.27-.9.27h-5.54v4.54h3.24c1.13-1.39,1.79-2.09,1.98-2.09,1.63,1.54,2.45,2.4,2.45,2.59s-.3.29-.9.29ZM181.85,36.98c-.14-.22-.18-.39-.11-.52.07-.13.22-.19.43-.16.22.02.73.48,1.53,1.37.8.89,1.34,1.55,1.62,2,.28.44.41.86.41,1.26s-.1.8-.29,1.22c-.19.42-.41.74-.65.95h4.57c-.02-.07-.04-.16-.04-.27s.04-.26.11-.45c.72-1.82,1.32-3.91,1.8-6.26,2.47.67,3.78,1.37,3.92,2.09-.07.14-.29.22-.65.22s-.71-.02-1.04-.07c-.58,1.3-1.67,2.88-3.28,4.75h1.87c1.13-1.39,1.79-2.09,1.98-2.09,1.63,1.54,2.45,2.4,2.45,2.59s-.3.29-.9.29h-6.62c-.02.62-.04,2.28-.04,4.97h2.59c1.13-1.39,1.79-2.09,1.98-2.09,1.63,1.54,2.45,2.4,2.45,2.59s-.3.29-.9.29h-6.12v3.35c.14,1.68.22,2.72.22,3.13,0,.58-.88.86-2.63.86-.36,0-.56-.3-.61-.9l.18-3.1v-3.35h-3.56l-2.12.43-1.4-1.66c.41.05.72.13.94.25s1.24.18,3.06.18h3.1v-4.97h-4.1l-2.12.43-1.4-1.66c.41.05.72.13.94.25.22.12,1.24.18,3.06.18h1.37c-.14-.22-.26-.58-.36-1.08-.17-2.02-.71-3.7-1.62-5.04ZM199.52,53c.14,1.68.22,2.72.22,3.13,0,.58-.88.86-2.63.86-.36,0-.56-.3-.61-.9l.18-3.1v-25.85l-.18-1.62c-.02-.14.02-.22.13-.22s.62.21,1.53.63,1.62.7,2.12.85h5.69l2.23-1.91c.43,0,1.07.32,1.93.97.85.65,1.28,1.18,1.28,1.58l-1.51,1.62.07,2.3c0,2.64-.5,4.19-1.51,4.64s-1.69.68-2.03.68-.56-.1-.63-.29c-.55-1.32-2.16-2.14-4.82-2.45-.34-.07-.5-.26-.5-.56s.14-.45.43-.45l4.72.72c.96,0,1.44-1.01,1.44-3.02v-.25l-.04-1.91c0-.31-.07-.58-.22-.79h-7.2c-.02.07-.04,3.8-.04,11.2h7.34l2.05-2.05c1.99,1.22,2.99,2.12,2.99,2.7,0,.02-.25.26-.74.7-.49.44-.75.74-.77.88-.38,3.22-1.62,6.32-3.71,9.32,1.51,1.73,3.31,3.07,5.4,4.03-1.06,1.34-1.76,2.3-2.12,2.88-1.78-1.44-3.32-3.16-4.64-5.15-1.2,1.46-2.6,2.89-4.21,4.28-.38.19-.65.17-.79-.05-.14-.23-.13-.44.04-.63,1.51-1.75,2.8-3.55,3.85-5.4-1.68-2.98-2.92-6.48-3.71-10.51h-.97c-.02,3.58-.04,7.94-.04,13.1ZM205.25,48.5c1.27-2.62,2.08-5.32,2.41-8.1-.12-.19-.19-.37-.22-.54l-5.76.04c.79,3.41,1.98,6.28,3.56,8.6Z"/>
        <path class="cls-1" d="M225.18,41.04l-2.12.25c-.07,0-.17-.07-.29-.22-.12-.14-.41-.36-.88-.65s-.74-.46-.81-.5c-.07-.1-.11-.18-.11-.25s.06-.1.18-.09c.12.01.56.08,1.33.2.77.12,2.06.19,3.89.22h22.61s.08-.02.18-.07c1.44-1.58,2.28-2.38,2.52-2.38,2.54,1.92,3.82,2.95,3.82,3.1,0,.26-.29.4-.86.4h-29.45Z"/>
        <path class="cls-1" d="M271.27,40.72l-.18-1.69c0-.1.04-.14.11-.14s.47.16,1.21.47c.73.31,1.55.71,2.47,1.19h11.09c.31-.14.72-.53,1.22-1.15s.84-.94,1.01-.94c1.85,1.1,2.77,1.96,2.77,2.56,0,.12-.18.36-.54.72-.36.36-.54.66-.54.9v6.77l.22,2.12c-.07.48-.86.72-2.38.72-.46,0-.68-.31-.68-.94l.11-.97h-2.27v2.3c0,1.03.44,1.55,1.33,1.55h5.8c.86,0,1.36-.83,1.48-2.48l.32-4.86c.17-.19.34-.29.5-.29s.32.1.47.29l.4,5.54c.1,1.32.29,2.06.59,2.23.3.17.45.34.45.5,0,1.1-.83,1.66-2.48,1.66h-7.99c-2.33,0-3.49-1.06-3.49-3.17v-3.28h-2.99c-.67,3.98-5.44,6.19-14.29,6.62-.31,0-.47-.22-.47-.67s.13-.69.4-.74c6.7-.6,10.44-2.34,11.23-5.22h-2.09l.14,1.19c-.07.5-.89.76-2.45.76-.14,0-.35-.32-.61-.97l.14-1.91v-8.68ZM274.98,34.06v3.24h2.7l1.69-1.76c2.04,1.46,3.06,2.29,3.06,2.48,0,.24-.28.36-.83.36h-13.39c.1.91.14,1.56.14,1.94-.07.48-.92.72-2.56.72-.46,0-.68-.3-.68-.9l.14-3.49v-10.04l-.18-1.62c-.02-.14.04-.22.18-.22s.69.22,1.64.65c.95.43,1.6.71,1.96.83h7.7l1.87-1.94c2.04,1.46,3.06,2.29,3.06,2.48,0,.24-.28.36-.83.36h-5.69v2.48h1.15c.31-.31.65-.72,1.03-1.22s.62-.76.76-.76.71.38,1.73,1.15c1.02.77,1.53,1.36,1.53,1.76,0,.12-.25.36-.76.72-.5.36-.76.65-.76.86v.65l.22,1.44c0,.7-.85,1.04-2.56,1.04-.41,0-.61-.26-.61-.79,0-.12.01-.26.04-.43h-1.76ZM272.1,27.15h-3.96v2.48h3.96v-2.48ZM276.78,31.25c0-.29-.07-.53-.22-.72h-8.42v2.63h8.64v-1.91ZM272.1,34.06h-3.96v3.24h3.96v-3.24ZM273.97,43.46h13.21v-1.4c0-.22-.07-.42-.22-.61h-12.96c-.02.07-.04.2-.04.4v1.62ZM287.18,44.43h-13.21v2.2h13.21v-2.2ZM287.18,47.6h-13.21v1.94h13.21v-1.94ZM281.03,35.75c-.26,0-.4-.14-.4-.43s.06-.55.18-.79c1.82-3.7,2.94-6.96,3.35-9.79,2.66,1.01,4,1.67,4,2s-.54.49-1.62.49c-.24.72-.53,1.45-.86,2.2h6.01l2.2-2.3c2.09,1.32,3.13,2.3,3.13,2.95-.02.29-.28.43-.76.43h-11.16c-.91,1.68-2.1,3.4-3.56,5.15-.19.07-.36.11-.5.11ZM295.53,37.08h-8.86l-2.45.54-1.69-1.48c-.07-.29,0-.47.22-.54,1.37.24,3.01.37,4.93.4h3.46l2.02-2.3c2.09,1.32,3.13,2.3,3.13,2.95-.02.29-.28.43-.76.43Z"/>
        <path class="cls-1" d="M311.45,51.02c.34.62.5,1.22.5,1.8,0,1.51-.46,2.32-1.37,2.41h-.04c-.38-.02-.86-.42-1.44-1.19-.58-.77-.92-1.44-1.04-2.02-.41-1.8-.61-3.77-.61-5.9s.04-3.79.13-4.95c.08-1.16.4-2.77.95-4.81.55-2.04.83-3.37.83-4s-.08-1.11-.25-1.46c-.17-.35-.44-.81-.83-1.39-.38-.58-.58-.92-.58-1.04s.04-.18.11-.18c.46,0,1.09.24,1.91.72,1.61.98,2.41,2.08,2.41,3.28l-1.33,4.1c-.72,2.23-1.08,4.54-1.08,6.91v.9c0,.46.2,1.66.61,3.6l1.12-1.73c1.32-2.09,2.14-3.29,2.45-3.6.31-.31.53-.47.65-.47.26,0,.4.14.4.43,0,.14-.12.43-.36.86l-.76,1.3c-1.56,2.81-2.34,4.81-2.34,6.01,0,.14-.01.28-.04.4ZM329.74,34.35c.91-.17,1.67-.45,2.27-.85.6-.4.95-.59,1.04-.59h.22c.77,0,1.58.4,2.45,1.19,0,.79-.42,1.21-1.26,1.26l-1.94.43c-.96.17-1.92.35-2.88.54-.05,1.15-.07,1.84-.07,2.07s.04,1.87.11,4.91l.14,4.07c2.71.72,4.6,1.85,5.65,3.38l.04.58c0,.91-.62,1.37-1.87,1.37-.74,0-1.2-.13-1.37-.4-.38-.65-.66-1.12-.83-1.4s-.33-.51-.49-.67c-.16-.16-.55-.38-1.17-.67-.19,1.68-.9,3.04-2.12,4.07-1.22,1.01-2.6,1.51-4.12,1.51s-2.86-.43-4.01-1.3c-1.15-.86-1.73-2.08-1.73-3.64,0-.79.35-1.57,1.04-2.34,1.03-1.08,2.47-1.62,4.32-1.62h.07c1.39,0,2.7.12,3.92.36.19-1.3.29-2.7.29-4.21s-.04-3-.11-4.46l-.07-1.37c-2.04.17-3.55.37-4.54.61-.98.24-1.64.36-1.98.36-1.25,0-2.12-.46-2.63-1.39-.5-.92-.76-1.49-.76-1.71,0-.67.02-1.01.07-1.01.14,0,.24.04.29.11.43.89,1.27,1.43,2.52,1.62,3.02-.07,5.33-.23,6.91-.47v-.79c0-1.08-.1-2.24-.29-3.49-.12-.77-.6-1.42-1.44-1.94-.48-.31-.75-.52-.81-.61-.06-.1-.09-.19-.09-.29,0-.33.24-.46.72-.38.48.08,1.15.25,2.02.49,2.14.65,3.2,1.37,3.2,2.16,0,.38-.13.71-.38.97-.25.26-.38.74-.38,1.44l.04,1.37v.72ZM322.65,53.03h.14c1.82,0,3.02-.6,3.6-1.8.34-.72.5-1.32.5-1.8v-.43c-1.2-.58-2.54-.86-4.03-.86-.77,0-1.5.28-2.2.83-.7.58-1.04,1.13-1.04,1.67s.29,1.07.86,1.6c.58.53,1.28.79,2.12.79h.04Z"/>
        <path class="cls-1" d="M357.09,51.34h2.66c3.17-.02,5.1-.24,5.8-.65.26-.17.55-.37.86-.59.31-.23.67-.34,1.08-.34h.04c1.22,0,2.41.43,3.56,1.3.5.38.76.68.76.9,0,.31-.23.55-.68.72-.98.38-2.54.73-4.68,1.03-2.14.3-4.12.45-5.94.45s-3.44-.05-4.86-.16c-1.42-.11-2.72-.52-3.91-1.22-1.19-.71-2.01-1.4-2.47-2.07-.46-.7-.68-1.3-.68-1.8,0-1.7.29-3.16.88-4.36.59-1.2,1.54-2.28,2.86-3.24.26-.19.48-.29.65-.29s.31.06.43.18.18.25.18.38-.22.35-.65.67c-1.71,1.2-2.56,2.94-2.56,5.22,0,1.2.47,2.08,1.4,2.63,1.32.74,3.07,1.17,5.26,1.26ZM362.52,32.3c-1.27.05-2.74.08-4.39.11-3.48-.41-5.93-1.45-7.34-3.13-.26-.29-.4-.5-.4-.65s.11-.22.32-.22.43.07.65.22c1.87,1.1,4.32,1.66,7.34,1.66,1.68,0,3.31-.29,4.9-.86.62-.22,1.27-.32,1.93-.32s1.27.27,1.84.81c.56.54.85,1.1.85,1.67,0,.36-.34.59-1.01.68l-9.72,5.36c-.43.24-.72.36-.86.36-.34,0-.5-.13-.5-.4,0-.1.1-.22.29-.36l2.23-1.73c2.02-1.56,3.31-2.63,3.89-3.2Z"/>
        <path class="cls-1" d="M390.62,49.04c-.22.77-.62,1.15-1.22,1.15s-1.13-.25-1.6-.76-.7-1.04-.7-1.62.23-1.64.68-3.2l2.2-9.07c-1.25.31-2.15.47-2.7.47-2.23-.41-3.48-1.74-3.74-4-.05-.43,0-.65.14-.65s.24.04.29.13c.05.08.17.26.36.52l.18.32c.43.89,1.12,1.33,2.07,1.33s2.25-.12,3.91-.36c.29-.7.56-1.69.81-2.99s.38-2.17.38-2.63-.28-.94-.83-1.46c-.55-.52-.84-.83-.86-.95-.02-.43.2-.65.68-.65h.36c.24,0,.71.14,1.4.43,1.9.7,2.9,1.43,3.02,2.2.07.6.07.92,0,.97-.62.5-1.36,2.09-2.2,4.75,2.69-.62,4.56-1.32,5.62-2.09.38-.26.75-.56,1.1-.88.35-.32.71-.49,1.1-.49s.73.06,1.04.18c1.85.53,2.77,1.15,2.77,1.87,0,.48-.67.94-2.02,1.37-2.95.89-6.3,1.54-10.04,1.94-1.25,3.58-1.93,6.86-2.05,9.86,2.83-2.47,6.17-3.71,10.01-3.71,5.09,0,7.63,2.04,7.63,6.12,0,1.08-.36,2.22-1.08,3.42-2.3,3.84-7.03,5.76-14.18,5.76h-1.08c-.91-.29-1.37-.55-1.37-.79s.37-.48,1.12-.72c.55.02.85.04.9.04,8.45-.46,12.67-3.26,12.67-8.42-.22-2.21-2.12-3.31-5.72-3.31h-.11c-4.08,0-7.02,1.58-8.82,4.75-.02.41-.06.79-.11,1.15Z"/>
        <path class="cls-1" d="M424.54,49.14h-.04c-.46,0-.85-.24-1.19-.72-.34-.5-.52-.99-.56-1.46-.04-.47-.05-1.06-.05-1.78v-1.12c0-1.27.3-2.64.9-4.1,1.9-4.42,3.32-6.68,4.28-6.8.31-.02.54.02.68.14-1.87,1.94-2.95,4.1-3.24,6.48-.19,1.46-.29,2.42-.29,2.88s.11,1.07.32,1.84c3.22-3.24,6.9-4.86,11.05-4.86,2.04,0,3.74.37,5.11,1.12,2.38,1.34,3.56,3.11,3.56,5.31s-1.27,4.51-3.82,6.93c-2.28,1.51-5.04,2.54-8.28,3.1-.62.1-1.3.14-2.03.14s-1.1-.18-1.1-.54c0-.29.2-.47.61-.54l2.45-.4c6.1-1.94,9.14-4.74,9.14-8.39,0-3-1.86-4.56-5.58-4.68h-.18c-4.2,0-7.27,1.16-9.22,3.49-.26.34-.71.98-1.33,1.94v.32c0,.43-.38,1-1.15,1.69h-.07ZM437.04,32.08c-.36,0-1.02-.14-1.98-.43-.65-.07-1.27-.11-1.87-.11s-1.2.11-1.8.32-.96.32-1.08.32c-.5,0-.74-.13-.7-.38.04-.25.67-.65,1.89-1.21l2.09-.25c-2.35-1.1-4.28-2.52-5.8-4.25-.19-.24-.26-.47-.2-.68.06-.22.15-.35.27-.41.12-.06.36.14.72.59,1.97,1.68,3.95,2.68,5.94,2.99.96.14,1.57.27,1.82.38.25.11.61.38,1.08.81s.7.86.7,1.3c0,.67-.36,1.01-1.08,1.01Z"/>
      </g>
    </g>
  </g>
</svg>