<?xml version="1.0" encoding="UTF-8"?>
<svg id="_レイヤー_2" data-name="レイヤー 2" xmlns="http://www.w3.org/2000/svg" xmlns:xlink="http://www.w3.org/1999/xlink" viewBox="0 0 240 80.3">
  <defs>
    <style>
      .cls-1 {
        fill: #0a1543;
      }

      .cls-2 {
        fill: url(#_新規グラデーションスウォッチ_2);
      }

      .cls-3 {
        fill: #00404f;
      }
    </style>
    <linearGradient id="_新規グラデーションスウォッチ_2" data-name="新規グラデーションスウォッチ 2" x1="120" y1="2" x2="120" y2="71" gradientTransform="translate(83.5 156.5) rotate(-90)" gradientUnits="userSpaceOnUse">
      <stop offset=".24" stop-color="#c6deb4"/>
      <stop offset=".41" stop-color="#c9dfb8"/>
      <stop offset=".59" stop-color="#d3e5c5"/>
      <stop offset=".78" stop-color="#e4efdb"/>
      <stop offset=".98" stop-color="#fbfdfa"/>
      <stop offset="1" stop-color="#fff"/>
    </linearGradient>
  </defs>
  <g id="_1" data-name="1">
    <g id="UI_moving">
      <rect class="cls-3" width="240" height="80.3" rx="25" ry="25"/>
      <rect class="cls-3" width="240" height="73" rx="25" ry="25"/>
      <rect class="cls-2" x="85.5" y="-81.5" width="69" height="236" rx="23" ry="23" transform="translate(156.5 -83.5) rotate(90)"/>
      <g>
        <path class="cls-1" d="M44.67,20.75c-.05.22-.08.46-.11.74-.03.28-.05.57-.07.88-.02.31-.05.6-.07.86-.02.55-.05,1.27-.09,2.16-.04.89-.07,1.87-.09,2.93-.02,1.07-.05,2.15-.07,3.24-.02,1.09-.04,2.11-.04,3.04s0,1.96.02,3.08c.01,1.12.04,2.22.07,3.31.04,1.09.06,2.1.07,3.02.01.92.02,1.66.02,2.21,0,1.1-.13,1.98-.4,2.63-.26.65-.63,1.11-1.1,1.39-.47.28-1.03.41-1.67.41-.7,0-1.48-.16-2.34-.49-.87-.32-1.69-.76-2.47-1.31-.78-.55-1.42-1.19-1.93-1.91-.5-.72-.76-1.48-.76-2.27,0-1.08.41-2.14,1.24-3.17.83-1.03,1.91-1.99,3.24-2.88,1.33-.89,2.74-1.61,4.23-2.16,1.63-.65,3.3-1.13,5-1.46,1.7-.32,3.26-.49,4.68-.49,1.75,0,3.31.3,4.66.9,1.36.6,2.42,1.43,3.2,2.5.78,1.07,1.17,2.32,1.17,3.76s-.29,2.71-.88,3.82c-.59,1.1-1.45,2.03-2.59,2.77-1.14.74-2.54,1.32-4.19,1.73-.79.17-1.58.28-2.36.34-.78.06-1.48.11-2.11.16l-1.01-2.92c.67.02,1.38.02,2.11,0,.73-.02,1.43-.11,2.11-.25,1.06-.19,2.04-.52,2.97-.99.92-.47,1.67-1.09,2.23-1.85.56-.77.85-1.69.85-2.77s-.28-1.9-.83-2.59c-.55-.7-1.3-1.22-2.23-1.58-.94-.36-1.98-.54-3.13-.54-1.58,0-3.13.17-4.64.5-1.51.34-3.05.82-4.61,1.44-1.15.43-2.21.97-3.17,1.6-.96.64-1.72,1.3-2.29,2-.56.7-.85,1.36-.85,1.98,0,.41.14.8.41,1.17s.62.7,1.03.99c.41.29.84.51,1.3.67.46.16.85.23,1.19.23.41,0,.72-.14.95-.43s.34-.73.34-1.33c0-.7-.01-1.66-.04-2.9-.02-1.24-.05-2.58-.07-4.03-.02-1.45-.04-2.84-.04-4.16,0-1.03,0-2.14.02-3.31.01-1.18.02-2.32.04-3.42.01-1.1.02-2.08.04-2.92.01-.84.02-1.44.02-1.8,0-.24,0-.52-.02-.85-.01-.32-.03-.64-.05-.95-.02-.31-.06-.56-.11-.76h3.2ZM34.23,27.23c.98.12,1.83.2,2.54.23.71.04,1.4.05,2.07.05.89,0,1.88-.05,2.99-.14,1.1-.1,2.24-.22,3.42-.38,1.18-.16,2.32-.35,3.44-.58,1.12-.23,2.12-.47,3.01-.74l.07,2.81c-.94.22-1.98.43-3.13.63-1.15.2-2.32.38-3.51.52s-2.32.26-3.4.36c-1.08.1-2.02.14-2.81.14-1.03,0-1.9-.01-2.61-.04s-1.37-.07-2-.14l-.07-2.74ZM55.83,24.75c.86.46,1.82,1,2.88,1.64,1.06.64,2.07,1.28,3.04,1.93s1.75,1.21,2.32,1.69l-1.48,2.3c-.43-.43-.98-.89-1.66-1.39-.67-.49-1.39-.98-2.16-1.48-.77-.49-1.52-.96-2.27-1.4-.74-.44-1.4-.82-1.98-1.13l1.3-2.16Z"/>
        <path class="cls-1" d="M79.02,35.55l2.7.43c-1.03,2.26-2.61,4.37-4.73,6.35-2.12,1.98-4.89,3.67-8.3,5.06-.1-.22-.23-.44-.41-.68-.18-.24-.37-.47-.58-.7-.2-.23-.4-.4-.59-.52,2.16-.82,4.04-1.76,5.63-2.83,1.6-1.07,2.91-2.21,3.94-3.44,1.03-1.22,1.81-2.45,2.34-3.67ZM67.78,38.29h32.18v2.2h-32.18v-2.2ZM68.36,21.73h31.21v2.23h-31.21v-2.23ZM69.73,49.3h28.66v2.2h-28.66v-2.2ZM72.03,26.37h24.01v9.83h-24.01v-9.83ZM74.66,28.1v2.3h18.65v-2.3h-18.65ZM74.66,32.1v2.34h18.65v-2.34h-18.65ZM74.88,43.94h17.96v2.05h-17.96v-2.05ZM76.35,19.28h2.63v6.73h-2.63v-6.73ZM82.58,41.35h2.66v9h-2.66v-9ZM90.82,38.9c.67.86,1.54,1.7,2.61,2.5,1.07.8,2.24,1.52,3.51,2.16s2.54,1.13,3.82,1.49c-.29.24-.59.56-.92.97-.32.41-.57.77-.74,1.08-1.32-.46-2.63-1.06-3.92-1.82-1.3-.76-2.5-1.62-3.6-2.59-1.1-.97-2.04-1.99-2.81-3.04l2.05-.76ZM88.81,19.28h2.66v6.73h-2.66v-6.73Z"/>
        <path class="cls-1" d="M122.18,24.93c-.24,1.87-.55,3.83-.92,5.87-.37,2.04-.85,4.02-1.42,5.94-.72,2.47-1.52,4.54-2.39,6.19-.88,1.66-1.82,2.9-2.83,3.74-1.01.84-2.06,1.26-3.17,1.26s-2.08-.38-3.06-1.15c-.98-.77-1.79-1.88-2.41-3.33-.62-1.45-.94-3.16-.94-5.13s.4-3.83,1.21-5.58c.8-1.75,1.92-3.31,3.35-4.66,1.43-1.36,3.1-2.43,5.02-3.22,1.92-.79,3.97-1.19,6.16-1.19s4.01.35,5.71,1.04c1.69.7,3.14,1.65,4.34,2.86,1.2,1.21,2.12,2.62,2.77,4.21.65,1.6.97,3.31.97,5.13,0,2.52-.54,4.74-1.6,6.66-1.07,1.92-2.6,3.48-4.61,4.68s-4.43,1.99-7.29,2.38l-1.69-2.66c.58-.07,1.13-.14,1.66-.22.53-.07,1.01-.16,1.44-.25,1.15-.26,2.27-.68,3.37-1.24,1.09-.56,2.07-1.28,2.93-2.16.86-.88,1.55-1.92,2.07-3.13.52-1.21.77-2.6.77-4.16,0-1.46-.24-2.83-.72-4.09-.48-1.26-1.19-2.37-2.12-3.33-.94-.96-2.08-1.72-3.42-2.27-1.34-.55-2.88-.83-4.61-.83-1.97,0-3.75.36-5.35,1.08-1.6.72-2.95,1.66-4.07,2.83-1.12,1.16-1.97,2.44-2.57,3.82-.6,1.38-.9,2.73-.9,4.05,0,1.51.2,2.75.59,3.73.4.97.88,1.69,1.44,2.14.56.46,1.12.68,1.67.68s1.16-.28,1.76-.85c.6-.56,1.21-1.48,1.84-2.74.62-1.26,1.24-2.9,1.84-4.91.53-1.73.98-3.56,1.35-5.51.37-1.94.64-3.85.81-5.72l3.02.04Z"/>
        <path class="cls-1" d="M142.59,29.07h2.77c-.22,1.3-.45,2.67-.7,4.12-.25,1.45-.5,2.85-.76,4.19-.25,1.34-.5,2.53-.74,3.56l-2.7-.43c.24-1.01.5-2.17.77-3.47.28-1.31.53-2.66.76-4.07.23-1.4.43-2.71.59-3.91ZM143.56,29.07h9.65v-5.76h-11.84v-2.52h14.47v10.8h-12.28v-2.52ZM142.66,36.7h11.41v2.52h-11.81l.4-2.52ZM153.25,36.7h2.77c-.02.31-.04.56-.04.76s-.01.36-.04.5c-.22,2.83-.44,5.14-.67,6.91-.23,1.78-.49,3.16-.79,4.14-.3.98-.65,1.69-1.06,2.12-.38.41-.8.69-1.24.85-.44.16-1,.26-1.67.31-.58.05-1.39.07-2.43.05-1.04-.01-2.14-.04-3.29-.09-.02-.43-.12-.91-.29-1.44-.17-.53-.4-.98-.68-1.37,1.2.1,2.34.16,3.42.2s1.84.05,2.27.05c.38,0,.7-.02.94-.07.24-.05.46-.16.65-.32.34-.29.63-.88.88-1.76.25-.89.48-2.18.68-3.87.2-1.69.4-3.88.59-6.57v-.4ZM165.74,19.64h2.7v32.76h-2.7V19.64Z"/>
        <path class="cls-1" d="M177.51,35.55l2.27.14c.02,1.8-.04,3.68-.18,5.63-.14,1.96-.45,3.88-.92,5.76-.47,1.88-1.21,3.62-2.21,5.2-.12-.19-.29-.39-.5-.59-.22-.2-.44-.4-.67-.59-.23-.19-.45-.32-.67-.4.89-1.46,1.54-3.06,1.94-4.79.41-1.73.67-3.49.79-5.27.12-1.79.17-3.49.14-5.09ZM175.46,30.69h15.52v2.41h-15.52v-2.41ZM176.83,23.74h13.5v2.38h-13.5v-2.38ZM179.53,39.8c.53,1.9,1.21,3.44,2.03,4.63.83,1.19,1.84,2.11,3.04,2.75s2.6,1.09,4.21,1.33c1.61.24,3.46.36,5.54.36h7.02c1.06,0,2.08,0,3.08-.02,1-.01,1.88-.02,2.65-.02s1.32-.01,1.66-.04c-.14.19-.29.45-.43.77-.14.32-.28.65-.4.99-.12.34-.2.64-.25.9h-13.28c-2.42,0-4.55-.15-6.39-.45-1.84-.3-3.42-.84-4.75-1.62s-2.45-1.89-3.37-3.33-1.69-3.29-2.34-5.54l1.98-.72ZM182.37,19.28h2.48v12.82h-2.48v-12.82ZM182.91,32.27h2.45v16.27h-2.45v-16.27ZM183.88,38.11h6.66v2.41h-6.66v-2.41ZM188.74,43.25c1.2-.62,2.67-1.42,4.41-2.39,1.74-.97,3.51-1.97,5.31-3.01l.72,2.02c-1.58.96-3.19,1.93-4.81,2.9s-3.1,1.85-4.45,2.65l-1.19-2.16ZM191.88,25.54h16.56v2.3h-14.11v14.54h-2.45v-16.85ZM205.56,30.15l2.12.58c-.7,2.45-1.6,4.75-2.72,6.91-1.12,2.16-2.39,4.09-3.83,5.8-1.44,1.7-3.04,3.12-4.79,4.25-.17-.31-.42-.65-.76-1.03s-.64-.67-.9-.88c1.68-.96,3.22-2.24,4.61-3.83,1.39-1.6,2.63-3.41,3.71-5.44,1.08-2.03,1.93-4.15,2.56-6.35ZM198.21,19.28h2.56c0,2.88.08,5.6.23,8.15s.38,4.88.67,6.97.64,3.89,1.06,5.42c.42,1.52.89,2.69,1.4,3.51.52.82,1.09,1.22,1.71,1.22.34,0,.6-.42.79-1.26.19-.84.31-2.2.36-4.07.26.26.58.51.95.74.37.23.71.41,1.03.56-.12,1.66-.31,2.96-.58,3.92-.26.96-.62,1.64-1.06,2.03s-1.04.59-1.78.59c-1.03,0-1.95-.48-2.75-1.44-.8-.96-1.48-2.29-2.03-4s-1.01-3.72-1.37-6.05c-.36-2.33-.64-4.87-.83-7.63-.19-2.76-.31-5.65-.36-8.68ZM202.28,20.61l1.87-1.01c.67.65,1.35,1.37,2.03,2.18.68.8,1.19,1.51,1.53,2.11l-1.94,1.19c-.34-.62-.83-1.36-1.49-2.21-.66-.85-1.33-1.6-2-2.25Z"/>
      </g>
    </g>
  </g>
</svg>