<?xml version="1.0" encoding="UTF-8"?>
<svg id="_レイヤー_2" data-name="レイヤー 2" xmlns="http://www.w3.org/2000/svg" xmlns:xlink="http://www.w3.org/1999/xlink" viewBox="0 0 240 80.3">
  <defs>
    <style>
      .cls-1 {
        fill: #0a1543;
      }

      .cls-2 {
        fill: url(#_新規グラデーションスウォッチ_2);
      }

      .cls-3 {
        fill: #00404f;
      }
    </style>
    <linearGradient id="_新規グラデーションスウォッチ_2" data-name="新規グラデーションスウォッチ 2" x1="120" y1="2" x2="120" y2="71" gradientTransform="translate(83.5 156.5) rotate(-90)" gradientUnits="userSpaceOnUse">
      <stop offset=".24" stop-color="#c6deb4"/>
      <stop offset=".41" stop-color="#c9dfb8"/>
      <stop offset=".59" stop-color="#d3e5c5"/>
      <stop offset=".78" stop-color="#e4efdb"/>
      <stop offset=".98" stop-color="#fbfdfa"/>
      <stop offset="1" stop-color="#fff"/>
    </linearGradient>
  </defs>
  <g id="_1" data-name="1">
    <g id="UI_search">
      <rect class="cls-3" width="240" height="80.3" rx="25" ry="25"/>
      <rect class="cls-3" width="240" height="73" rx="25" ry="25"/>
      <rect class="cls-2" x="85.5" y="-81.5" width="69" height="236" rx="23" ry="23" transform="translate(156.5 -83.5) rotate(90)"/>
      <g>
        <path class="cls-1" d="M13.71,30.91h32.33v2.56H13.71v-2.56ZM14.5,38.14h30.96v2.56H14.5v-2.56ZM16.81,23.64h26.6v2.56h-26.6v-2.56ZM19.11,42.86l2.34-1.48c.72.6,1.45,1.26,2.18,1.98.73.72,1.4,1.45,2.02,2.18.61.73,1.09,1.41,1.42,2.03l-2.48,1.62c-.31-.62-.76-1.31-1.35-2.05-.59-.74-1.24-1.49-1.96-2.25s-1.44-1.43-2.16-2.03ZM28.33,19.24h2.81v12.49h-2.81v-12.49ZM34.92,33.21h2.77v15.8c0,.84-.12,1.48-.36,1.93-.24.44-.67.77-1.3.99-.62.22-1.48.34-2.56.38s-2.42.05-4.03.05c-.05-.38-.17-.83-.36-1.33-.19-.5-.4-.95-.61-1.33.86.02,1.67.04,2.43.04h3.11c.36-.02.6-.08.72-.18s.18-.29.18-.58v-15.77Z"/>
        <path class="cls-1" d="M61.02,35.55l2.7.43c-1.03,2.26-2.61,4.37-4.73,6.35s-4.89,3.67-8.3,5.06c-.1-.22-.23-.44-.41-.68-.18-.24-.37-.47-.58-.7-.2-.23-.4-.4-.59-.52,2.16-.82,4.04-1.76,5.63-2.83,1.6-1.07,2.91-2.21,3.94-3.44,1.03-1.22,1.81-2.45,2.34-3.67ZM49.78,38.29h32.18v2.2h-32.18v-2.2ZM50.36,21.73h31.21v2.23h-31.21v-2.23ZM51.73,49.3h28.66v2.2h-28.66v-2.2ZM54.03,26.37h24.01v9.83h-24.01v-9.83ZM56.66,28.1v2.3h18.65v-2.3h-18.65ZM56.66,32.1v2.34h18.65v-2.34h-18.65ZM56.88,43.94h17.96v2.05h-17.96v-2.05ZM58.35,19.28h2.63v6.73h-2.63v-6.73ZM64.58,41.35h2.66v9h-2.66v-9ZM72.82,38.9c.67.86,1.54,1.7,2.61,2.5,1.07.8,2.24,1.52,3.51,2.16,1.27.64,2.54,1.13,3.82,1.49-.29.24-.59.56-.92.97-.32.41-.57.77-.74,1.08-1.32-.46-2.63-1.06-3.92-1.82-1.3-.76-2.5-1.62-3.6-2.59-1.1-.97-2.04-1.99-2.81-3.04l2.05-.76ZM70.81,19.28h2.66v6.73h-2.66v-6.73Z"/>
        <path class="cls-1" d="M85.06,43.98c.96-.36,2.07-.8,3.33-1.31,1.26-.52,2.6-1.07,4.01-1.66,1.42-.59,2.83-1.18,4.25-1.78l.61,2.41c-1.92.89-3.86,1.78-5.81,2.66-1.96.89-3.73,1.68-5.31,2.38l-1.08-2.7ZM85.39,27.96h11.41v2.56h-11.41v-2.56ZM90,19.71h2.56v23.36h-2.56v-23.36ZM95.43,34.11l19.37-8.17,1.04,2.3-19.4,8.28-1.01-2.41ZM99.32,22.63h2.59v24.12c0,.65.07,1.15.22,1.49.14.35.41.58.81.7.4.12,1,.18,1.82.18h8.68c.72,0,1.25-.14,1.6-.41.35-.28.6-.79.76-1.53.16-.74.28-1.8.38-3.17.31.24.7.46,1.17.65.47.19.88.31,1.24.36-.12,1.66-.34,2.96-.65,3.92-.31.96-.81,1.64-1.49,2.03s-1.65.59-2.9.59h-8.89c-1.37,0-2.44-.14-3.22-.41-.78-.28-1.33-.77-1.64-1.48-.31-.71-.47-1.71-.47-3.01v-24.05ZM106.74,19.28h2.56v25.09h-2.56v-25.09ZM114.33,26.3h-.29l.61-.54.5-.4,1.91.72-.14.5c0,1.7,0,3.3-.02,4.79-.01,1.49-.03,2.83-.05,4.03-.02,1.2-.06,2.2-.11,3.01-.05.8-.1,1.39-.14,1.75-.1.72-.31,1.27-.65,1.64-.34.37-.78.62-1.33.74-.48.14-1.04.23-1.67.25-.64.02-1.21.04-1.71.04-.05-.36-.13-.77-.23-1.22-.11-.46-.25-.84-.41-1.15.43.02.89.04,1.39.05.49.01.83.02,1.03.02.29,0,.52-.06.7-.18.18-.12.31-.38.38-.79.07-.24.13-.73.16-1.46.04-.73.06-1.67.07-2.83.01-1.15.02-2.48.02-4v-4.97Z"/>
        <path class="cls-1" d="M136.44,21.04c-.14.72-.33,1.57-.56,2.54-.23.97-.59,2.07-1.1,3.29-.43,1.08-.97,2.2-1.6,3.35-.64,1.15-1.31,2.2-2.03,3.13.46-.29.97-.53,1.55-.74.58-.2,1.17-.35,1.78-.45.61-.1,1.17-.14,1.67-.14,1.39,0,2.57.39,3.53,1.17.96.78,1.44,1.91,1.44,3.4v1.75c0,.71,0,1.45.02,2.23s.03,1.54.05,2.29c.02.74.04,1.39.04,1.94h-2.77c.02-.48.05-1.04.07-1.69.02-.65.04-1.33.05-2.05.01-.72.01-1.4,0-2.05-.01-.65-.02-1.2-.02-1.66,0-1.06-.32-1.83-.95-2.32-.64-.49-1.43-.74-2.39-.74-1.13,0-2.24.25-3.33.74-1.09.49-2.05,1.12-2.86,1.89-.53.5-1.05,1.07-1.57,1.71-.52.64-1.09,1.31-1.71,2.03l-2.45-1.8c1.73-1.68,3.17-3.25,4.32-4.72,1.15-1.46,2.09-2.83,2.81-4.09s1.28-2.39,1.69-3.4c.38-1.01.7-2.02.94-3.04s.38-1.96.43-2.83l2.95.25ZM124.12,24.93c.96.12,2,.22,3.13.29,1.13.07,2.11.11,2.95.11,1.61,0,3.34-.04,5.18-.13,1.85-.08,3.71-.21,5.6-.38,1.88-.17,3.68-.41,5.38-.72l-.04,2.66c-1.25.22-2.58.39-4,.52-1.42.13-2.86.24-4.32.32s-2.87.14-4.23.18c-1.36.04-2.61.05-3.76.05-.5,0-1.09,0-1.75-.02-.66-.01-1.35-.04-2.07-.07-.72-.04-1.42-.08-2.09-.13v-2.7ZM151.63,33.64c-.31.07-.65.17-1.03.31s-.74.27-1.12.41c-.37.14-.73.29-1.06.43-1.25.48-2.7,1.07-4.36,1.76-1.66.7-3.35,1.5-5.08,2.41-1.2.6-2.26,1.23-3.17,1.89-.91.66-1.63,1.34-2.16,2.05-.53.71-.79,1.48-.79,2.32,0,.7.16,1.26.49,1.69.32.43.79.76,1.39.99.6.23,1.29.38,2.07.45.78.07,1.64.11,2.57.11,1.39,0,2.98-.08,4.77-.23,1.79-.16,3.47-.37,5.06-.63l-.07,2.88c-.91.12-1.94.23-3.08.32-1.14.1-2.29.17-3.46.23-1.17.06-2.27.09-3.33.09-1.71,0-3.26-.16-4.66-.47s-2.53-.86-3.37-1.66c-.84-.79-1.26-1.92-1.26-3.38,0-1.08.25-2.07.76-2.97s1.18-1.72,2.03-2.47c.85-.74,1.79-1.43,2.83-2.07,1.03-.64,2.09-1.22,3.17-1.75,1.15-.62,2.24-1.16,3.26-1.62,1.02-.46,1.99-.88,2.9-1.26.91-.38,1.76-.77,2.56-1.15.53-.24,1.03-.47,1.51-.68.48-.22.96-.46,1.44-.72l1.19,2.7Z"/>
        <path class="cls-1" d="M156.88,37.96c1.39-.41,3.08-.92,5.06-1.53,1.98-.61,3.99-1.24,6.03-1.89l.4,2.48c-1.87.62-3.76,1.25-5.65,1.87-1.9.62-3.61,1.18-5.15,1.66l-.68-2.59ZM157.39,26.55h10.91v2.52h-10.91v-2.52ZM161.89,19.31h2.52v29.95c0,.72-.09,1.28-.27,1.69-.18.41-.5.72-.95.94-.43.22-1.01.36-1.73.43-.72.07-1.66.1-2.81.07-.02-.31-.11-.71-.27-1.21-.16-.49-.32-.93-.49-1.31.77.02,1.47.04,2.11.05.64.01,1.06,0,1.28-.02.22,0,.37-.04.47-.13.1-.08.14-.26.14-.52v-29.95ZM177.04,38.75l2.16.72c-.74,1.63-1.66,3.18-2.75,4.64-1.09,1.46-2.31,2.77-3.65,3.91-1.34,1.14-2.76,2.08-4.25,2.83-.19-.31-.46-.68-.79-1.1-.34-.42-.65-.75-.94-.99,1.42-.62,2.78-1.45,4.1-2.47,1.32-1.02,2.51-2.18,3.56-3.47,1.06-1.3,1.91-2.65,2.56-4.07ZM175.1,24.79h2.48c-.07,1.42-.24,2.66-.5,3.74-.26,1.08-.67,2.03-1.22,2.86-.55.83-1.31,1.54-2.27,2.12-.96.59-2.18,1.1-3.67,1.53-.12-.29-.32-.62-.59-1.01-.28-.38-.55-.7-.81-.94,1.32-.31,2.39-.71,3.22-1.19.83-.48,1.48-1.05,1.94-1.71.47-.66.8-1.43,1.01-2.32.2-.89.34-1.92.41-3.1ZM168.76,37.85h21.28v2.45h-21.28v-2.45ZM169.34,21.26h20.41v6.37h-2.41v-4h-15.62v4.1h-2.38v-6.48ZM177.94,33.93h2.66v18.47h-2.66v-18.47ZM181.58,38.97c.65,1.3,1.48,2.56,2.5,3.8,1.02,1.24,2.13,2.36,3.33,3.37,1.2,1.01,2.41,1.81,3.64,2.41-.17.17-.37.37-.61.61-.24.24-.47.49-.68.76-.22.26-.4.52-.54.76-1.27-.74-2.52-1.69-3.74-2.83-1.22-1.14-2.35-2.41-3.38-3.8-1.03-1.39-1.9-2.82-2.59-4.28l2.09-.79ZM180.86,24.75h2.45v6.37c0,.36.06.59.18.7.12.11.41.16.86.16h2.92c.29,0,.5-.07.63-.2.13-.13.22-.43.27-.88.05-.46.08-1.15.11-2.09.26.19.61.38,1.04.56.43.18.83.31,1.19.38-.07,1.18-.22,2.09-.43,2.74s-.52,1.1-.92,1.35c-.4.25-.92.38-1.57.38h-3.56c-.86,0-1.52-.09-1.98-.27-.46-.18-.77-.5-.94-.95-.17-.46-.25-1.08-.25-1.87v-6.37Z"/>
        <path class="cls-1" d="M195.33,26.01c.98,0,2.1-.02,3.35-.05s2.57-.08,3.98-.13c1.4-.05,2.83-.08,4.27-.11,1.44-.02,2.83-.05,4.16-.07,1.33-.02,2.56-.04,3.69-.04h6.28c.95,0,1.79,0,2.52.02.73.01,1.31.02,1.75.02l-.04,2.66c-1.01-.05-2.36-.09-4.05-.13-1.69-.04-3.86-.05-6.5-.05-1.56,0-3.19.02-4.88.05-1.69.04-3.39.08-5.09.13-1.7.05-3.35.11-4.95.2-1.6.08-3.07.17-4.41.27l-.07-2.77ZM214.23,36.49c0,1.58-.23,2.92-.7,4-.47,1.08-1.12,1.88-1.94,2.41-.83.53-1.79.79-2.9.79-.74,0-1.47-.13-2.18-.38s-1.34-.64-1.91-1.15c-.56-.52-1.01-1.15-1.33-1.91-.32-.76-.49-1.61-.49-2.57,0-1.2.29-2.27.86-3.2.58-.94,1.35-1.68,2.32-2.23.97-.55,2.02-.83,3.15-.83,1.42,0,2.59.32,3.51.95.92.64,1.63,1.5,2.11,2.59.48,1.09.72,2.33.72,3.73,0,1.2-.17,2.42-.52,3.67-.35,1.25-.92,2.45-1.73,3.6-.8,1.15-1.9,2.2-3.28,3.15s-3.13,1.73-5.24,2.36l-2.41-2.38c1.63-.38,3.1-.88,4.39-1.48,1.3-.6,2.39-1.33,3.28-2.2.89-.86,1.57-1.87,2.03-3.02.47-1.15.7-2.47.7-3.96,0-1.63-.35-2.81-1.04-3.53-.7-.72-1.54-1.08-2.52-1.08-.62,0-1.21.15-1.76.45-.55.3-1,.74-1.35,1.31-.35.58-.52,1.26-.52,2.05,0,1.13.37,2,1.1,2.63.73.62,1.59.94,2.57.94.74,0,1.38-.21,1.91-.63.53-.42.91-1.06,1.13-1.91.23-.85.25-1.91.05-3.19l1.98,1.01ZM214.45,21.01c0,.12-.02.34-.05.65-.04.31-.06.62-.07.92-.01.3-.03.53-.05.7-.02.46-.04,1.08-.04,1.87v2.59c0,.94,0,1.88.02,2.84.01.96.02,1.86.04,2.7.01.84.02,1.55.02,2.12l-2.77-1.37v-3.91c0-.9,0-1.79-.02-2.68-.01-.89-.03-1.7-.05-2.45-.02-.74-.05-1.32-.07-1.73-.02-.48-.06-.94-.11-1.39-.05-.44-.08-.74-.11-.88h3.28Z"/>
      </g>
    </g>
  </g>
</svg>